<svg id="Layer_1" data-name="Layer 1" xmlns="http://www.w3.org/2000/svg" viewBox="0 0 950.8 278.61"><defs><style>.cls-1{fill:#282727;}.cls-2{fill:#f9b30a;}.cls-3{fill:#f7b20a;}.cls-4{fill:#7d7d7b;}.cls-5{fill:#f36f17;}</style></defs><title>4starrating2</title><path class="cls-1" d="M954.23,139.23V142c-.87.18-.89,1-1.15,1.6q-36.86,83.63-73.61,167.29c-1.37,3.12-2.86,4.23-6.39,4.23q-297-.15-593.94-.09c-1.53,0-3.06,0-4.59-.05.21-.66.35-1.35.62-2q32.5-73.86,65.06-147.7c3.86-8.74,7.29-17.7,11.86-26.13l33.68,0c1.53.07,3.05.19,4.57.19H950C951.42,139.36,952.83,139.27,954.23,139.23Zm-139,105.85,21.41,10.42c-1-7-1.65-13.33-2.79-19.61-.47-2.62-.09-4.4,1.89-6.2,4.82-4.39,9.48-9,14.2-13.46l-.63-1c-6.43-1.13-12.83-2.38-19.29-3.31a6,6,0,0,1-5-3.68c-2.58-5.25-5.33-10.42-8.09-15.58-.28-.51-.2-2.39-1.75-1-2.95,5.43-6.06,10.78-8.79,16.32-1.26,2.55-3,3.51-5.66,3.88-6.32.91-12.61,2-19.66,3.16,5.12,5.25,9.66,10.08,14.41,14.69a5.75,5.75,0,0,1,1.79,5.89c-1.2,6.49-2.1,13-3.19,20Zm-125.77,9.63c1.3.47,2.22-.46,3.22-.94,4.55-2.18,9.15-4.27,13.55-6.72,2.92-1.62,5.32-1.81,8.36-.07,5.47,3.13,11.23,5.72,17.21,8.7-.64-4.3-1.07-8.24-1.83-12.11-2.11-10.88-2.16-10.86,5.71-18.76,3-3,6-6,9.38-9.52-7.26-1.25-13.71-2.46-20.19-3.41a5.66,5.66,0,0,1-4.76-3.47c-2.93-5.92-6-11.77-9.36-18.22-2.55,4.78-5.26,8.82-6.94,13.23-2.37,6.26-6.4,9-13.08,9.3a38.69,38.69,0,0,0-14.56,3.34,151.66,151.66,0,0,0,14.07,13.39c2.35,2,2.38,4.2,1.91,6.91-1.06,6.1-2.31,12.19-2.62,18.4a1.13,1.13,0,0,0-.26.16s0,.13.07.2ZM395.81,190.2c-3.33,6.29-6.5,11.88-9.28,17.65-1.29,2.69-3.15,3.65-5.92,4-6.22.87-12.4,2-19.4,3.15,5.26,5.39,9.92,10.29,14.73,15a5,5,0,0,1,1.47,5c-1.15,6.65-2.11,13.35-3.21,20.46,6.3-3.1,12.25-5.86,18-8.94a6.44,6.44,0,0,1,6.79.1c5.64,3,11.44,5.78,17.81,9-1-7.16-1.85-13.65-3-20.09-.4-2.32-.08-4,1.72-5.59,4.93-4.48,9.69-9.15,14.52-13.75l-.53-1c-6.3-1.11-12.58-2.41-18.91-3.24a6.63,6.63,0,0,1-5.78-4.23C402.15,202,399.05,196.4,395.81,190.2Zm231,65.5c-.7-4.78-1.24-8.94-1.93-13.07-1.71-10.21-1.74-10.21,5.51-17.49l9.77-9.83c-7.32-1.26-13.76-2.48-20.24-3.43a5.64,5.64,0,0,1-4.78-3.45c-2.92-6-6.06-11.82-9.38-18.22-3.32,6.22-6.58,11.9-9.4,17.78-1.25,2.61-3,3.5-5.64,3.87-6.33.91-12.62,2-19.6,3.16,5.23,5.35,9.93,10.21,14.69,15a4.61,4.61,0,0,1,1.57,4.59c-1.23,6.77-2.13,13.6-3.22,20.86,6.22-3,12.1-5.69,17.73-8.77,2.72-1.49,4.79-1.27,7.38.13C614.86,249.85,620.58,252.56,626.85,255.7ZM466.91,214.89c.1,1.52,1.13,2,1.83,2.75,4,4.13,8,8.27,12.09,12.31a4.76,4.76,0,0,1,1.59,4.9c-1.27,6.72-2.13,13.51-3.22,20.66,4.4-2.16,8.66-3.72,12.31-6.18,6.29-4.25,12-4.13,18.2.15,3.53,2.43,7.7,3.93,12.16,6.13-1.06-7.16-1.92-13.53-3-19.87-.4-2.39-.09-4.17,1.83-5.9,4.94-4.46,9.68-9.13,14.5-13.72a86.08,86.08,0,0,0-16.9-3.61c-4.65-.46-7.64-2.22-9.52-6.7-2.18-5.2-5.12-10.09-8-15.59-3.36,6.28-6.57,11.87-9.34,17.66a6.47,6.47,0,0,1-5.58,4C479.56,212.76,473.25,213.86,466.91,214.89Z" transform="translate(-3.43 -101.53)"/><path class="cls-1" d="M269.57,380.13c.85-1.09,1.12-2.85,3-2.74,1.7.11,2.34,1.26,2.61,2.74Z" transform="translate(-3.43 -101.53)"/><path class="cls-1" d="M108.63,380.13c2.59-2.6,5.18-1.73,7.77,0Z" transform="translate(-3.43 -101.53)"/><path class="cls-2" d="M274.55,315c-5,11.21-10.28,22.32-14.94,33.67-1.75,4.26-3.92,5.48-8.49,5.47q-121.91-.26-243.8-.12c-4.55,0-4.56,0-2.79-4Q56.88,231.24,109.24,112.47c1.55-3.51,2-8.37,5.09-10.07,2.89-1.61,7.33-.5,11.09-.5q118.89,0,237.8,0c1.52,0,3,.07,4.57.12-1.67,5.51-4.51,10.54-6.67,15.85-2.92,7.15-6.62,14-9,21.33-4.57,8.43-8,17.39-11.86,26.13q-32.64,73.8-65.06,147.7C274.9,313.67,274.76,314.36,274.55,315Zm-65.21-63.33" transform="translate(-3.43 -101.53)"/><path class="cls-3" d="M395.81,190.2c3.24,6.2,6.34,11.8,9.09,17.56a6.63,6.63,0,0,0,5.78,4.23c6.33.83,12.61,2.13,18.91,3.24l.53,1c-4.83,4.6-9.59,9.27-14.52,13.75-1.8,1.64-2.12,3.27-1.72,5.59,1.11,6.44,1.93,12.93,3,20.09-6.37-3.18-12.17-5.93-17.81-9a6.44,6.44,0,0,0-6.79-.1c-5.79,3.08-11.74,5.84-18,8.94,1.1-7.11,2.06-13.81,3.21-20.46a5,5,0,0,0-1.47-5c-4.81-4.73-9.47-9.63-14.73-15,7-1.15,13.18-2.28,19.4-3.15,2.77-.38,4.63-1.34,5.92-4C389.31,202.08,392.48,196.49,395.81,190.2Z" transform="translate(-3.43 -101.53)"/><path class="cls-3" d="M626.85,255.7c-6.27-3.14-12-5.85-17.54-8.86-2.59-1.4-4.66-1.62-7.38-.13-5.63,3.08-11.51,5.73-17.73,8.77,1.09-7.26,2-14.09,3.22-20.86a4.61,4.61,0,0,0-1.57-4.59c-4.76-4.8-9.46-9.66-14.69-15,7-1.14,13.27-2.25,19.6-3.16,2.63-.37,4.39-1.26,5.64-3.87,2.82-5.88,6.08-11.56,9.4-17.78,3.32,6.4,6.46,12.26,9.38,18.22a5.64,5.64,0,0,0,4.78,3.45c6.48,1,12.92,2.17,20.24,3.43l-9.77,9.83c-7.25,7.28-7.22,7.28-5.51,17.49C625.61,246.76,626.15,250.92,626.85,255.7Z" transform="translate(-3.43 -101.53)"/><path class="cls-3" d="M689.56,254.76c.31-6.21,1.56-12.3,2.62-18.4.47-2.71.44-4.92-1.91-6.91a151.66,151.66,0,0,1-14.07-13.39,38.69,38.69,0,0,1,14.56-3.34c6.68-.34,10.71-3,13.08-9.3,1.68-4.41,4.39-8.45,6.94-13.23,3.34,6.45,6.43,12.3,9.36,18.22a5.66,5.66,0,0,0,4.76,3.47c6.48,1,12.93,2.16,20.19,3.41-3.42,3.48-6.38,6.51-9.38,9.52-7.87,7.9-7.82,7.88-5.71,18.76.76,3.87,1.19,7.81,1.83,12.11-6-3-11.74-5.57-17.21-8.7-3-1.74-5.44-1.55-8.36.07-4.4,2.45-9,4.54-13.55,6.72-1,.48-1.92,1.41-3.22.94Z" transform="translate(-3.43 -101.53)"/><path class="cls-3" d="M466.91,214.89c6.34-1,12.65-2.13,19-3a6.47,6.47,0,0,0,5.58-4c2.77-5.79,6-11.38,9.34-17.66,2.85,5.5,5.79,10.39,8,15.59,1.88,4.48,4.87,6.24,9.52,6.7a86.08,86.08,0,0,1,16.9,3.61c-4.82,4.59-9.56,9.26-14.5,13.72-1.92,1.73-2.23,3.51-1.83,5.9,1.07,6.34,1.93,12.71,3,19.87-4.46-2.2-8.63-3.7-12.16-6.13-6.21-4.28-11.91-4.4-18.2-.15-3.65,2.46-7.91,4-12.31,6.18,1.09-7.15,1.95-13.94,3.22-20.66a4.76,4.76,0,0,0-1.59-4.9c-4.1-4-8.09-8.18-12.09-12.31C468,216.93,467,216.41,466.91,214.89Z" transform="translate(-3.43 -101.53)"/><path class="cls-4" d="M815.18,191.65c1.55-1.39,1.47.49,1.75,1,2.76,5.16,5.51,10.33,8.09,15.58a6,6,0,0,0,5,3.68c6.46.93,12.86,2.18,19.29,3.31l.63,1c-4.72,4.5-9.38,9.07-14.2,13.46-2,1.8-2.36,3.58-1.89,6.2,1.14,6.28,1.83,12.65,2.79,19.61l-21.41-10.42c0-4.69.14-9.37.12-14.06C815.34,217.9,815.25,204.77,815.18,191.65Z" transform="translate(-3.43 -101.53)"/><path class="cls-4" d="M816,191.37c-1.51-1.39-1.43.49-1.7,1-2.71,5.16-5.4,10.33-7.93,15.58a5.86,5.86,0,0,1-4.92,3.68c-6.33.93-12.6,2.18-18.9,3.31l-.61,1c4.63,4.5,9.19,9.07,13.91,13.46,1.93,1.8,2.31,3.58,1.85,6.2-1.12,6.28-1.8,12.65-2.74,19.61l21-10.42c0-4.69-.13-9.37-.12-14.06C815.87,217.62,816,204.49,816,191.37Z" transform="translate(-3.43 -101.53)"/><path class="cls-5" d="M352.09,139.2c2.41-7.36,6.11-14.18,9-21.33,2.16-5.31,5-10.34,6.67-15.85,1.89-.63,2.09.93,2.57,2q7.72,17.55,15.41,35.11Z" transform="translate(-3.43 -101.53)"/><path class="cls-3" d="M689.49,254.71l-.12.41c0-.07-.09-.18-.07-.2a1.13,1.13,0,0,1,.26-.16Z" transform="translate(-3.43 -101.53)"/><path class="cls-1" d="M205.79,215.75c0,5.63.09,11.26,0,16.89-.05,2.21.47,3.06,2.89,3.05,6.56,0,6.48.09,6.33,6.55-.05,2-.67,2.56-2.65,2.6-6.52.14-6.52.22-6.52,6.63,0,7.09,0,7-7.3,7.07-2.61,0-3.59-.62-3.34-3.31s-.09-5.17.1-7.73c.16-2.23-.67-2.78-2.79-2.75-8.35.11-16.69.09-25,0-1.33,0-3.49,1-3.88-1.13-.49-2.71-3.09-5.42-.68-8.27q16.11-19.11,32.32-38.12c1.1-1.29,8.66-2.25,10-1.32.94.66.61,1.7.61,2.59C205.8,204.25,205.79,210,205.79,215.75Zm-31.07,19.87c6.9,0,12.84,0,18.77,0,1.5,0,1.73-.79,1.72-2,0-7.22,0-14.45,0-22.65Z" transform="translate(-3.43 -101.53)"/><path class="cls-3" d="M134.72,235.62,155.2,211c0,8.2,0,15.43,0,22.65,0,1.22-.22,2-1.72,2C147.56,235.59,141.62,235.62,134.72,235.62Z" transform="translate(-3.43 -101.53)"/></svg>