<svg id="Layer_1" data-name="Layer 1" xmlns="http://www.w3.org/2000/svg" viewBox="0 0 283.89 200.95"><defs><style>.cls-1{fill:#29abe2;stroke:#156cff;stroke-width:2px;}.cls-1,.cls-2{stroke-miterlimit:10;}.cls-1,.cls-2,.cls-3,.cls-4{opacity:0.32;}.cls-2{fill:#ff0826;stroke:#11006a;}.cls-3{fill:#000abf;}.cls-4,.cls-5{fill:#474549;}</style></defs><title>5vine_logo</title><path class="cls-1" d="M107.47,64.72l-41-39.37S63.17,28,60,25.27C59,20.61,83.52.94,83.52.94L86.19,1,88.1,2.65,88.28,5,86.65,6.91l42.18,39.87s18.26-8.54,32.34-2.55A73.47,73.47,0,0,1,183.63,59l18.43,16.3,26.47-24.56s20.69-15.23,45.27-3.56l41.82-40-.14-1.76a2.07,2.07,0,0,0-.68-1.13s.26-4.16,3.39-2,23.46,20,23.46,20l.19,2.35a3.27,3.27,0,0,1-4.71.37L295.36,65.63S304.25,80.91,299,96.7a53.63,53.63,0,0,1-17,24.41s-77.4,76.48-80.2,78.47l-91.65-89.81s-14.24-23.14-1.7-44.23Z" transform="translate(-58.97 0.07)"/><path class="cls-2" d="M298,72.82l-7.38.28-7,1.73-3.43,1.46-8.1,2.41c-5.65.11-6.36.35-7.05.55-.54.16-.31.77-7.24-1.79a83.63,83.63,0,0,0-31.72-4.61s-20,9.59-22,5.87c-1.72-3.12-4.89.16-4.89.16l-.4.26s-11.89-.84-15.65-3.51-15-3-15-3l-8.82.7s-12.48,6.89-24.37,6-22.4-6.52-22.4-6.52l-5.93-.12s-6.41,8.78-1.59,25,32.64,38.6,32.64,38.6l32.06,31,31.84,31.84L266,136l26.17-25.6S306.54,98.77,298,72.82Z" transform="translate(-58.97 0.07)"/><polygon class="cls-3" points="79.49 137.94 143.49 75.12 206 137.63 143.49 200.15 79.49 137.94"/><path class="cls-4" d="M176.43,175.44l0-50.3-6.1-10.73-.62-6.43,4.74-41.86-.38,37.45s.09,2.76.91,2.71,1.59-1.48,1.9-4.27,2.48-36.18,2.48-36.18l.51,39.7s.06,1.84.88,1.79,1.18-1.45,1.14-2.84c-.17-4.86.14-4.85,2-38l.89,38.75s.47,1.82,1.29,1.78,2.05-.13,2-2.43.76-38.39.76-38.39L190.89,91s2.37,21.57-2,26.45a28.67,28.67,0,0,0-5.81,10.05l-1.66,52.88-.59-1L179,177.92Z" transform="translate(-58.97 0.07)"/><path class="cls-4" d="M206.05,119.61s0-40.48,6.32-50.61,7,2.53,7,2.53l-2.21,113.32-6.36,7.42s2.88-67,1-68.86A27.37,27.37,0,0,0,206.05,119.61Z" transform="translate(-58.97 0.07)"/><path class="cls-5" d="M200.52,162" transform="translate(-58.97 0.07)"/><path d="M124,83.29a3.11,3.11,0,0,1,.09.69c0,.83-.55,1.4-1.63,1.68-.07,0-1.17.19-3.31.48q-7.23.94-17.77,1.77-2.76,5.43-7.93,22.26,8.82-.72,17.86-.9c1.8,0,3,.5,3.59,1.6a17.85,17.85,0,0,1,.7,2.84,2.43,2.43,0,0,1,.09.61c0,1-1.21,1.65-3.63,2a21.12,21.12,0,0,1-3.13.38,1.56,1.56,0,0,1-1.35-.82,2.59,2.59,0,0,0-2.47-1.16q-10.17,0-13.29.34-1.68,4-5.93,21.41c-.52,2.16-1.29,3.24-2.28,3.24a17.73,17.73,0,0,1-4-1c-1.21-.38-1.66-1.64-1.35-3.8a59.7,59.7,0,0,1,1.82-8c.37-1.21,1.64-1.62,3.82-1.25a55.74,55.74,0,0,0,2.56-7.16q-2-4.67-2-4.79a3,3,0,0,1,0-.52q.29-1.42,4.62-2.29.23-.74,7.65-22.53A98.84,98.84,0,0,0,82.43,90.5q-8,1.73-10.54,3.84-2.72,2.23-2.71,4.53,0,2.46,3.08,7.77a1.9,1.9,0,0,1,.33,1,1,1,0,0,1-1.08,1.08,1.71,1.71,0,0,1-1.35-.82,38.67,38.67,0,0,1-4.8-7.59,19.56,19.56,0,0,1-1.12-5.49q-.46-5.3,9.28-7.76a157.94,157.94,0,0,1,26-4.32c1-1.87,1.74-2.8,2.23-2.8.72,0,2,.72,3.69,2.15.81,0,3.32-.28,7.55-.86a4,4,0,0,0,2.24-1.51c.68-.83,2.32-1.31,4.9-1.42a2.86,2.86,0,0,1,2.94,1.46C123.11,79.94,123.43,81.1,124,83.29Z" transform="translate(-58.97 0.07)"/><path d="M130.28,109q-1.12,5.82-5.83,19.38a31.22,31.22,0,0,0,3.73-4.1.87.87,0,0,1,.65-.39c.5,0,.56.4.19,1.21-.16.31-1.46,2.28-3.92,5.91a41.7,41.7,0,0,0-4.1,7.33,1.54,1.54,0,0,1-1.54,1,7.07,7.07,0,0,1-3-1c-.81-.4-1.22-.7-1.22-.9a3.12,3.12,0,0,1,.52-1.12q2.51-4.11,5.59-13.73,2.94-9.31,3.31-13.85c.1-1.29,0-1.94-.42-1.94s-.77.32-1.49,1l-2.89,2.5c-1,.86-1.54.91-1.54.13a1.5,1.5,0,0,1,.42-.86,63.58,63.58,0,0,1,4.66-5.4,2.13,2.13,0,0,1,1.45-.73,4.68,4.68,0,0,1,2.19.95,18.4,18.4,0,0,1,2.38.65,2.35,2.35,0,0,1,1.07,2.24A10,10,0,0,1,130.28,109Zm6.57-18.9a1.43,1.43,0,0,1,.75,1.16c0,.84-1.34,2.13-4,3.89a7,7,0,0,1-5.13,1.21,6.51,6.51,0,0,1-2.43-1,2.18,2.18,0,0,1-.49-.54.48.48,0,0,1-.07-.46c.1-.11.28-.14.56-.08a56,56,0,0,0,5.65-5c.71-.74,1.22-1.12,1.53-1.12C133.77,88.25,135,88.87,136.85,90.11Z" transform="translate(-58.97 0.07)"/><path d="M167.21,107.15c-.78,1.64-1.66,3.59-2.66,5.83a13,13,0,0,0,2.1,2.93.59.59,0,0,1-.14.87,1.77,1.77,0,0,1-1.26.43,2.57,2.57,0,0,1-2-.95q-3.07,6.43-7,13.08-4.11,7.07-5.88,8.76a4.55,4.55,0,0,1-3.07,1.42,3.6,3.6,0,0,1-2.57-1.08,8.26,8.26,0,0,1-2.56.69c-1.09,0-1.93-.88-2.52-2.63a35.59,35.59,0,0,1-1.22-10.57q0-9.8,1.82-14.63c-.68.57-2,1.84-3.91,3.79a1.6,1.6,0,0,1-1.17.52c-.59,0-.89-.24-.89-.73a1.55,1.55,0,0,1,.42-.91q2.81-3.5,7.33-9.28a3.17,3.17,0,0,1,2.42-1.55q1.4,0,4.29,2.07a1.35,1.35,0,0,1,.61,1q0,1.08-1.68,1.59a39.85,39.85,0,0,0-4.11,18.26,24.37,24.37,0,0,0,1.36,8.72c.34.92.81,1.38,1.4,1.38s1.27-.49,2-1.47a76.44,76.44,0,0,0,7.09-11.31,55.22,55.22,0,0,0,4.15-9.62,5,5,0,0,1-.61-2.63,21.5,21.5,0,0,1,2-7.81c.59-1.36,1.35-2,2.29-2a9.4,9.4,0,0,1,3.26,1.34,1.92,1.92,0,0,1,1.21,1.72A10.4,10.4,0,0,1,167.21,107.15Z" transform="translate(-58.97 0.07)"/><path d="M192.72,126.06q-11.34,13.41-15.95,13.42-2.19,0-5.55-2.81-3.5-1.51-3.5-4a5.06,5.06,0,0,1,.1-1,67.17,67.17,0,0,1,3.4-13.07c-1.15-.55-1.72-1.07-1.72-1.56s.32-.6,1-.6a3.48,3.48,0,0,1,1.54.39q4.16-8.64,7.47-12.26c1.42-1.61,2.72-2.42,3.87-2.42a15.82,15.82,0,0,1,3.91,1.26c-.15-.87.11-1.37.8-1.51h2.19c1.33,0,2,.21,2,.64a4.35,4.35,0,0,1-.14.74,5.12,5.12,0,0,0-.14,1.12c0,1,0,2.32.05,3.84s0,2.55,0,3.06q0,5.35-3.17,7.47a11.5,11.5,0,0,1-6.53,1.94,34.32,34.32,0,0,1-6.35-1,23.35,23.35,0,0,0-1.77,5.22,31.56,31.56,0,0,0-1.21,8.72c0,1.5.54,2.24,1.54,2.24a5.42,5.42,0,0,0,1.44-.25q5.41-1.77,15.07-10.79a1.77,1.77,0,0,1,1.21-.56c.59,0,.89.26.89.77A1.55,1.55,0,0,1,192.72,126.06ZM187.26,107c0-1.12-.26-1.68-.79-1.68A3,3,0,0,0,185,106q-4.57,3.41-8,12c.62.09,1.71.18,3.26.26q3.78.14,5.64-1.6a5.94,5.94,0,0,0,1.54-4.27Q187.27,114.54,187.26,107Z" transform="translate(-58.97 0.07)"/><path d="M269.44,83.29a2.56,2.56,0,0,1,.6,1.42q0,.87-4.06,3.37-5.73,6.3-15.53,21.32Q240,125.54,235.9,135a6.43,6.43,0,0,1,.24,1.47q0,1.42-2.94,2.67a5.11,5.11,0,0,1-2,.52c-.78,0-1.81-.66-3.08-2a2.46,2.46,0,0,1-.75-1.68,3.06,3.06,0,0,1,1.31-2.33,118.37,118.37,0,0,0-4.15-28.7Q221,92.31,217,86.91A4.41,4.41,0,0,0,213.24,85c-1.68,0-4.09,1.07-7.23,3.23a2.1,2.1,0,0,1-1.21.35c-.9,0-1.35-.3-1.35-.91a1.85,1.85,0,0,1,.74-1.21,44.93,44.93,0,0,1,9.94-6.82,7.83,7.83,0,0,1,3.4-1.12c1.4,0,2.81,1,4.24,2.89q9.57,13,13.25,46.22,3.25-6.08,12.36-21,8.34-13.73,9.51-15.23c-.59.08-1.21-.46-1.87-1.64a7.21,7.21,0,0,1-1-3.5c0-.92.29-1.38.88-1.38s1.43,0,2.15,0A9.24,9.24,0,0,0,260.34,83c.9-.72,1.79-1.45,2.66-2.2a4.35,4.35,0,0,1,2.05-.86C266.29,80,267.76,81.07,269.44,83.29Z" transform="translate(-58.97 0.07)"/><path d="M272.79,109q-1.12,5.82-5.83,19.38a30.52,30.52,0,0,0,3.73-4.1.9.9,0,0,1,.65-.39c.5,0,.56.4.19,1.21q-.22.47-3.92,5.91a42.36,42.36,0,0,0-4.1,7.33,1.53,1.53,0,0,1-1.54,1,7.07,7.07,0,0,1-3-1c-.81-.4-1.21-.7-1.21-.9a3.21,3.21,0,0,1,.51-1.12q2.52-4.11,5.6-13.73,2.93-9.31,3.31-13.85c.09-1.29,0-1.94-.42-1.94s-.78.32-1.49,1l-2.9,2.5c-1,.86-1.53.91-1.53.13a1.47,1.47,0,0,1,.41-.86,63.69,63.69,0,0,1,4.67-5.4,2.12,2.12,0,0,1,1.44-.73,4.74,4.74,0,0,1,2.2.95,17.43,17.43,0,0,1,2.37.65,2.34,2.34,0,0,1,1.08,2.24A10.1,10.1,0,0,1,272.79,109Zm6.58-18.9a1.44,1.44,0,0,1,.74,1.16c0,.84-1.34,2.13-4,3.89A7,7,0,0,1,271,96.37a6.46,6.46,0,0,1-2.42-1,2.18,2.18,0,0,1-.49-.54c-.11-.19-.14-.34-.07-.46s.28-.14.56-.08a54.41,54.41,0,0,0,5.64-5c.71-.74,1.23-1.12,1.54-1.12C276.29,88.25,277.5,88.87,279.37,90.11Z" transform="translate(-58.97 0.07)"/><path d="M313.18,123q-2.81,3.93-7.27,11.39c-.56,1.3-1.11,2.59-1.64,3.89a2,2,0,0,1-1.72,1.34,7.48,7.48,0,0,1-2.47-.65c-1.22-.46-1.82-.92-1.82-1.38a4,4,0,0,1,.6-1.34,71.23,71.23,0,0,0,5.41-14.2q2.57-8.92,2.19-13.63c-.06-1.27-.37-1.9-.93-1.9a3.49,3.49,0,0,0-1.82,1.08Q292,118.2,283.38,136c-.72,1.47-1.55,2.2-2.52,2.2a9.81,9.81,0,0,1-3.4-1.08c-.62-.26-.95-.5-1-.73a5.6,5.6,0,0,1,.51-1.21,100,100,0,0,0,5.36-13.89,68.09,68.09,0,0,0,3.22-14.2q.09-1.56-.09-1.56s-.47.39-1.31,1.17-2,1.78-3.49,3a1.36,1.36,0,0,1-.94.39c-.43,0-.65-.16-.65-.48a1.15,1.15,0,0,1,.47-.77q2-2.39,5.27-5.92a2,2,0,0,1,1.44-.73c.75,0,1.4.5,2,1.51,2.52.69,3.7,1.76,3.54,3.19q-.51,4.76-5.27,17.14a78.32,78.32,0,0,1,9.1-12.45q6-6.89,8.86-8.14a6.41,6.41,0,0,1,2.05-.6,4.28,4.28,0,0,1,2,1q3.87,1.24,3.82,4.14a47.63,47.63,0,0,1-1.58,9.71,85.35,85.35,0,0,1-2.33,8.59q1.35-1.61,3.45-4.14a1,1,0,0,1,.74-.44c.47,0,.7.28.7.82A1.54,1.54,0,0,1,313.18,123Z" transform="translate(-58.97 0.07)"/><path d="M342.19,126.06q-11.34,13.41-15.95,13.42-2.19,0-5.55-2.81-3.49-1.51-3.5-4a5.89,5.89,0,0,1,.09-1,67.26,67.26,0,0,1,3.41-13.07C319.54,118,319,117.48,319,117s.33-.6,1-.6a3.48,3.48,0,0,1,1.54.39q4.15-8.64,7.46-12.26,2.15-2.42,3.87-2.42a15.71,15.71,0,0,1,3.92,1.26c-.16-.87.11-1.37.79-1.51h2.19c1.34,0,2,.21,2,.64a5.83,5.83,0,0,1-.14.74,5.12,5.12,0,0,0-.14,1.12c0,1,0,2.32.05,3.84s0,2.55,0,3.06c0,3.57-1,6.06-3.17,7.47a11.47,11.47,0,0,1-6.53,1.94,34.25,34.25,0,0,1-6.34-1,22.34,22.34,0,0,0-1.77,5.22,31.19,31.19,0,0,0-1.21,8.72c0,1.5.54,2.24,1.54,2.24a5.42,5.42,0,0,0,1.44-.25q5.42-1.77,15.06-10.79a1.79,1.79,0,0,1,1.22-.56c.59,0,.88.26.88.77A1.54,1.54,0,0,1,342.19,126.06ZM336.73,107c0-1.12-.26-1.68-.79-1.68a3,3,0,0,0-1.49.69q-4.57,3.41-8,12c.63.09,1.71.18,3.27.26q3.78.14,5.64-1.6a6,6,0,0,0,1.54-4.27Q336.73,114.54,336.73,107Z" transform="translate(-58.97 0.07)"/></svg>