<svg id="Layer_1" data-name="Layer 1" xmlns="http://www.w3.org/2000/svg" xmlns:xlink="http://www.w3.org/1999/xlink" viewBox="0 0 399.61 162.9"><defs><style>.cls-1{fill:url(#linear-gradient);}.cls-2{fill:#fff;}.cls-3{fill:#ef2e25;}</style><linearGradient id="linear-gradient" x1="5.44" y1="107.21" x2="395.07" y2="107.21" gradientTransform="translate(30.59 -43.81) rotate(13.51)" gradientUnits="userSpaceOnUse"><stop offset="0.15" stop-color="orange"/><stop offset="0.73" stop-color="orange"/><stop offset="1" stop-color="orange" stop-opacity="0.3"/></linearGradient></defs><title>crispy_logo</title><ellipse class="cls-1" cx="200.25" cy="107.21" rx="199.71" ry="66.96" transform="translate(-19.95 24.03) rotate(-13.51)"/><path d="M400.05,65.08c-1-19.68-23.42-28.4-39.54-32.67-31.4-8.32-65.49-7.6-97.57-4.73A577.89,577.89,0,0,0,140.43,52.57C106.82,63.2,73.37,76.73,43.7,96,27,106.8,4.6,122.68.85,143.87c-3.4,19.22,15.29,30.38,30.89,35.67,28.78,9.76,60.94,10,90.94,8.28,41.94-2.33,83.72-10.18,124-21.91,34.66-10.09,68.93-23.07,100.16-41.36,12-7,23.67-14.91,33.81-24.47,7.05-6.65,13.79-14.42,17.3-23.59a29.89,29.89,0,0,0,2.08-11.41c0-1.72-10-1.64-10,0,.43,19.2-18.05,34.78-32,45.16-25.23,18.81-54.68,32-84.09,42.77a563.12,563.12,0,0,1-116.93,29c-32.63,4.47-66.94,6.85-99.55.75-16.37-3.06-41.33-9.55-46.31-28.28C6.46,136.58,23.07,120,35.37,109.74,58.44,90.46,86.48,77.1,114.24,66.09A557,557,0,0,1,228.17,34.75c34.4-5.7,70.21-9.07,105-4.59,18,2.32,44.87,7,54.32,25.05a23.75,23.75,0,0,1,2.6,9.87C390.14,66.88,400.13,66.65,400.05,65.08Z" transform="translate(-0.45 -25.71)"/><path class="cls-2" d="M112.21,127.26l.51,4.67a239.93,239.93,0,0,1-16.27,24.24,80.48,80.48,0,0,1-15.16,15.3q-7.61,5.61-15.19,6.47a20.07,20.07,0,0,1-11.58-1.82c-6.49-3.29-6.56-5.37-8.08-8.2a37.54,37.54,0,0,1-3.94-13.75,58.34,58.34,0,0,1,.25-13.72,82.39,82.39,0,0,1,3.41-15,135.24,135.24,0,0,1,6.38-15.93q3.91-8.3,9.4-17.55A141.9,141.9,0,0,1,73.41,75.25,92.67,92.67,0,0,1,84.07,63.84a50,50,0,0,1,9.19-6.56c2.88-1.53,3.84-1.1,5.82-1.32s2.21.46,3.75,1.45a7.92,7.92,0,0,1,3.38,3.87c1,2.11,2.59,5.47,2.9,8.34a37.46,37.46,0,0,1-1.93,17.53c-2.38,7-3.73,13.14-7.69,19.83a115.39,115.39,0,0,1-11.65,16.61c-3.79,4.37-6.62,6.67-8.48,6.87a4.68,4.68,0,0,1-3.68-1.36,5.75,5.75,0,0,1-2-3.8q-.45-4.1,2.58-10.31a79.94,79.94,0,0,1,6.83-11.56c2.53-3.56,4.08-5.36,4.65-5.43a.38.38,0,0,1,.47.38,7.12,7.12,0,0,1-.39,2.3,8.81,8.81,0,0,0-.43,2c.05.38.19.56.43.53q1-.12,5.22-7.2a103.12,103.12,0,0,0,7.42-15.4q3.24-8.31,2.68-13.34A5.64,5.64,0,0,0,102,64.17a2.58,2.58,0,0,0-2.39-.85q-4.25.48-12,9.6A146.1,146.1,0,0,0,72.19,95.65a152.42,152.42,0,0,0-12.27,27.71q-4.58,14.1-3.46,24.29A28.22,28.22,0,0,0,59,157.31a13.2,13.2,0,0,0,5,5.61,11.3,11.3,0,0,0,7.17,1.37q8.79-1,19-10.36T112.21,127.26Z" transform="translate(-0.45 -25.71)"/><path class="cls-2" d="M110.34,134.25l-.51-4.72a77,77,0,0,0,4-8.75,6.14,6.14,0,0,1-3-1.48,5.6,5.6,0,0,1-1.23-3.34,17.69,17.69,0,0,1,1.08-6.91,42.22,42.22,0,0,1,3.61-8.24,16.11,16.11,0,0,1,4.29-5.33,3.42,3.42,0,0,1,1.55-.79c.8-.13,1.24.26,1.34,1.18s-.35,2.6-1.31,5.32q12-4.44,15.25-5a3.45,3.45,0,0,1,1.75,0c.73.32,1.39,1.24,2,2.76a17.47,17.47,0,0,1,1.17,4.68,6.9,6.9,0,0,1-.75,3.49q-.91,2-3.23,5.85a48.17,48.17,0,0,0-4.35,9.91c-1.08,3.5-1.53,6.06-1.36,7.71.24,2.27,1.52,3.21,3.82,2.81s6.32-4.15,11.67-11.19l.52,4.87c-2.85,4.78-5.29,9-7.18,11.77s-2.17,3-5.19,5.44c-.83.66-4.34,2.12-6.26,1.06-2.57-1.43-3.75-2.41-4.62-6.5a19.5,19.5,0,0,1-.3-7.84,57,57,0,0,1,2.92-9.34c1.35-3.42,2.92-6.85,4.69-10.32-1.08.49-1.19.56-2.46,1.1s-4,1.6-5.5,2.21-2.68,1.08-3.49,1.41A57.09,57.09,0,0,1,110.34,134.25Z" transform="translate(-0.45 -25.71)"/><path class="cls-2" d="M173.2,117.56l.57,5.07a67.41,67.41,0,0,1-9.33,14.27q-4.5,5-8,5.36c-5.45.6-9.09-7.31-7.94-5.16a35.19,35.19,0,0,1-3.84-12.78,27.9,27.9,0,0,1-.1-5.23,22.2,22.2,0,0,1,.68-4.18q.48-1.66,1.89-5.27,6.73-16.27,13.77-17a4.06,4.06,0,0,1,4.67,3.47c.17,1.48-1,3.26-2.25,6.58a30.27,30.27,0,0,1-3.45,7.2,105,105,0,0,0-5.85,8.87,9,9,0,0,0-1,5.38,5.82,5.82,0,0,0,2.08,4,5.55,5.55,0,0,0,4.35,1.2,11.06,11.06,0,0,0,5.9-3.08A78.76,78.76,0,0,0,173.2,117.56Zm-7.64-29.69c-1,.11-3.36,0-4.35-.81a2.92,2.92,0,0,1-1.29-2.57,15,15,0,0,1,1.61-7.9c1.39-2.68,4.5-5,6.29-5.16a3.26,3.26,0,0,1,2.81.93,5.3,5.3,0,0,1,1.6,3.58,12,12,0,0,1-1.7,6.86C169.17,85.39,167.43,87.66,165.56,87.87Z" transform="translate(-0.45 -25.71)"/><path class="cls-2" d="M171,121.26l2.18-2.91c9.52-14,13.75-22.65,17.31-28.24.46-5.93,3.32-9.26,5.8-9.45a5.41,5.41,0,0,1,2.8.67l.46,1.35a10.11,10.11,0,0,0-.07,2.5,27.39,27.39,0,0,0,1.25,5.06c.76,2.46,1.36,4.52,1.81,6.2a31.13,31.13,0,0,1,.89,5.71,23.91,23.91,0,0,1-1.17,9.36,31.85,31.85,0,0,1-4.69,8.85,61.12,61.12,0,0,1-8.35,9,19.21,19.21,0,0,0,3.5.17,12,12,0,0,0,5.27-1.9,33.76,33.76,0,0,0,5.61-4.46q2.82-2.75,6.56-7.06l1.42,2.59c-4.75,6.47-10.81,13.27-15.1,16.25a18.75,18.75,0,0,1-8.95,2.74c-3.81.29-8.21-3.85-8.7-3.87-2.07-2.18-3.44-3.43-4.06-5.53A46.53,46.53,0,0,1,171,121.26Zm21.88-12.88L191,97.83q-3.41,5.39-14.72,20.82,3.72.67,5.16,2.17a40.54,40.54,0,0,1,4.21,5.9,15.51,15.51,0,0,0,6-6c2.13-4,1.87-5.09,1.53-9.82,0-.49-.07-.92-.12-1.31S192.93,108.77,192.87,108.38Z" transform="translate(-0.45 -25.71)"/><path class="cls-2" d="M211.45,119l-1-2.13c5.38-9.34,8.28-20.68,10.93-26.4C225,82.73,227.45,77.31,229,74c1.85-4.07,3.73-5.29,5.28-7.06s3.21-3.31,5.8-3.63c1.29-.15,2.24-.8,2.37.45a11.23,11.23,0,0,1-1.11,4.66,41.6,41.6,0,0,1-3.4,6.55,60.24,60.24,0,0,0-5.32,10.9q-2.49,6.48-5.45,16.4,2.77-3.41,6.37-8T239.38,87A27,27,0,0,1,244,82.65a10.54,10.54,0,0,1,4.86-2,2.41,2.41,0,0,1,2.16.47,5.55,5.55,0,0,1,.77,2.76,28.69,28.69,0,0,1-1,11,56.85,56.85,0,0,1-4.93,11.59q-3.36,6.09-8.44,13.43a9.43,9.43,0,0,0,4.2.44q6.63-.8,16.44-14.91l.53,5.2q-3.83,5.43-7.52,10.25a57.54,57.54,0,0,1-7.08,7.87,12.26,12.26,0,0,1-6.47,3.41,10.19,10.19,0,0,1-2.46,0,17.07,17.07,0,0,1-2.45-.51c-.75-.23-1.73-.56-2.93-1a18.44,18.44,0,0,0-2.91-.57,4.32,4.32,0,0,1-1.84.49,8.21,8.21,0,0,1-4.89-1.46q-1.41,4.85-2.91,12.44t-2.6,12.11a40.71,40.71,0,0,1-3.25,8.79c-.83,1.32-.67.28-1,.33-1.64.19-2.83-1.16-3.21-4.82-.32-3.17-.73-5.19-.08-8.75a67.9,67.9,0,0,1,2.7-10.23q1.72-4.87,3.87-9.92c1.42-3.36,2.42-5.86,3-7.48,4.67-13.81,7.71-23.65,10.11-33.24C219.18,103,215.28,112.7,211.45,119Zm22.32-.44a100.83,100.83,0,0,0,7.1-13.79c1.49-3.73,2.13-6.54,1.94-8.41s-1-2.59-2.39-2.42q-2.85.35-7.41,6.92a94.21,94.21,0,0,0-9,17.34,28.14,28.14,0,0,1,5.61-1.08A10.22,10.22,0,0,1,233.77,118.58Z" transform="translate(-0.45 -25.71)"/><path class="cls-2" d="M286.31,105.43l-8.7,10.32c-4.12,5-6.8,6.84-8.43,7s-3.53-.9-5.73-4.59a27.84,27.84,0,0,1-3.95-9.81,16.41,16.41,0,0,1,.07-6.22A42.2,42.2,0,0,1,262,95.31a79.12,79.12,0,0,1,5.29-9.64,46.12,46.12,0,0,1,4.77-6.22c1.43-1.49,2.46-2.26,3.11-2.3a4.4,4.4,0,0,1,3.26,1.58,6.34,6.34,0,0,1,2,3.6,8.77,8.77,0,0,1-1,4,49.23,49.23,0,0,1-3.94,7.13A103.73,103.73,0,0,1,267.6,104l-.56,3.58a4.45,4.45,0,0,0-.19,1.81q.27,1.72,1.8,1.62t6.82-5a88,88,0,0,0,11-13q2.22-3.18,3.65-5.6t2.55-4.52a27.28,27.28,0,0,1,1.91-3.19,2.61,2.61,0,0,1,1.52-1.2,2.28,2.28,0,0,1,2.42,1.19A10.64,10.64,0,0,1,300,84a9.33,9.33,0,0,1-.72,4.39q-1,2.69-3.81,9.15T289.87,111q-2.73,6.92-5.35,15.54c.09-.14,1.07-1.49,2.93-4.07s3.83-5.26,5.9-8.07,3.79-5,5.15-6.76,3.07-3.7,5.15-6l.64,4.28Q298,115.65,293,124.36t-7.64,13.92q-2.64,5.21-3.09,6.07c-.8,1.56-1.52,3-2.14,4.37a34.91,34.91,0,0,1-1.6,3.14c-.45.73-.84,1.12-1.18,1.14-.8.05-1.65-.78-2.54-2.5a15.11,15.11,0,0,1-1.64-4.62,7.63,7.63,0,0,1,.14-3.3Q275.84,132,286.31,105.43Z" transform="translate(-0.45 -25.71)"/><path class="cls-2" d="M310,63.47c0-.31-.58-.13-.91-.09-1.69.2-2.16-.68-2.37-2.76a15.35,15.35,0,0,1,1-6.36,15.11,15.11,0,0,1,2.83-5.16c1.38-1.81,2.47-2.44,3.66-2.58,1.68-.2,2.88-.13,3.17,2.62a19.8,19.8,0,0,1-1.48,9.08A41.83,41.83,0,0,1,311.33,67c-1.75,2.55-2.11,3-2.64,2.9-.24,0-.7-.26-.73-.56-.07-.71.09-.79.77-2.26A8.61,8.61,0,0,0,310,63.47Z" transform="translate(-0.45 -25.71)"/><path class="cls-2" d="M315.2,107l-.19-1.69q12.5-21,17.13-29.31.3-8.84,5.05-9.4a4.9,4.9,0,0,1,2.64.55l.49,1.3a9.57,9.57,0,0,0,0,2.43,27.36,27.36,0,0,0,1.37,4.88c.81,2.36,1.46,4.34,1.95,6,1.89,6.32,1.13,6.14,1.06,5.52a24,24,0,0,1-.71,9.14,31.52,31.52,0,0,1-4,8.78c-1.86,2.87-4.87,5.29-8,8.43a10.36,10.36,0,0,0,3-.33c1.55-.18,4,.08,5.68-1.1a31.32,31.32,0,0,0,5.06-4.54q2.53-2.76,5.84-7.1l1.79,2a95,95,0,0,1-12.12,15.15c-3.48,3.49-5.76,5.76-10.64,6.28-2.83.3-8.5-2.22-10.35-4.05-2-2-2.84-2.5-3.5-4.52A42.33,42.33,0,0,1,315.2,107Zm19.93-13.32L333,83.52q-3,5.37-12.91,20.79,3.49.51,4.92,1.92a40.59,40.59,0,0,1,4.17,5.58,14.66,14.66,0,0,0,5.32-6.1c1.13-2.45,1.47-5.65,1-9.61-.06-.47-.11-.89-.17-1.27S335.21,94.09,335.13,93.71Z" transform="translate(-0.45 -25.71)"/><path d="M109.45,126.52l.65,4.42a226.89,226.89,0,0,1-15,23.63,77.17,77.17,0,0,1-14.21,15.09,31,31,0,0,1-14.52,6.69A19.81,19.81,0,0,1,55.09,175,18.06,18.06,0,0,1,47,167.53a34.8,34.8,0,0,1-4.28-12.93,53.65,53.65,0,0,1-.23-13,78.18,78.18,0,0,1,2.81-14.37,126.89,126.89,0,0,1,5.66-15.38q3.51-8,8.53-17A135.45,135.45,0,0,1,70,78.46,89.06,89.06,0,0,1,80,67.23a49.05,49.05,0,0,1,8.7-6.56,21.07,21.07,0,0,1,7-2.77,7.86,7.86,0,0,1,5.22.89,10.47,10.47,0,0,1,3.87,4.29,21.6,21.6,0,0,1,2.18,7q1.14,7.68-2,17.75a104.21,104.21,0,0,1-8.56,19.84,109.75,109.75,0,0,1-10.75,16.2q-5.31,6.45-8,6.85a4.66,4.66,0,0,1-3.62-1.17A5.46,5.46,0,0,1,71.94,126q-.57-3.87,2.16-9.9a76.36,76.36,0,0,1,6.24-11.23q3.51-5.2,4.33-5.33a.37.37,0,0,1,.47.35,6.83,6.83,0,0,1-.3,2.2,7.51,7.51,0,0,0-.34,1.92c0,.36.19.53.43.49q1-.15,4.83-7A98.57,98.57,0,0,0,96.44,82.6q2.86-8,2.15-12.77a5.23,5.23,0,0,0-1.18-2.92,2.53,2.53,0,0,0-2.35-.73q-4.11.61-11.31,9.56A138.47,138.47,0,0,0,69.54,97.9a142.89,142.89,0,0,0-11,26.79q-4,13.58-2.55,23.21a26.55,26.55,0,0,0,2.81,9.1,12.66,12.66,0,0,0,5.08,5.15,11.17,11.17,0,0,0,7,1q8.5-1.26,18.15-10.53T109.45,126.52Z" transform="translate(-0.45 -25.71)"/><path d="M109.48,132.19l-.65-4.41a67.43,67.43,0,0,0,3.71-8.12,6.42,6.42,0,0,1-3-1.43,5.27,5.27,0,0,1-1.33-3.13,15.55,15.55,0,0,1,.84-6.44,36.9,36.9,0,0,1,3.3-7.64,14.2,14.2,0,0,1,4.07-4.91,3.2,3.2,0,0,1,1.51-.71c.78-.11,1.24.26,1.36,1.12s-.26,2.42-1.12,5q11.76-4,14.92-4.43a3.84,3.84,0,0,1,1.74,0,4.9,4.9,0,0,1,2.06,2.61,16.38,16.38,0,0,1,1.31,4.39,5.88,5.88,0,0,1-.62,3.25,59.3,59.3,0,0,1-3,5.41,41.45,41.45,0,0,0-4,9.19c-.95,3.25-1.32,5.64-1.09,7.18.31,2.13,1.6,3,3.87,2.69s6.11-3.78,11.18-10.27l.67,4.55q-4,6.63-6.65,10.5a44.58,44.58,0,0,1-5.06,6.27,8.52,8.52,0,0,1-4.51,2.71,4.82,4.82,0,0,1-4.49-2q-2-2.37-2.76-7.33a20.86,20.86,0,0,1,.3-6.84,49.38,49.38,0,0,1,2.58-8.68,100.08,100.08,0,0,1,4.31-9.56c-1.06.44-2.25.9-3.57,1.4l-4.2,1.56c-1.48.54-2.62,1-3.41,1.27A48.84,48.84,0,0,1,109.48,132.19Z" transform="translate(-0.45 -25.71)"/><path d="M172.34,117.81l.74,4.92a66.58,66.58,0,0,1-8.84,14.36q-4.35,5.06-7.86,5.6-4.87.76-8.13-4.66a33.34,33.34,0,0,1-4.3-12.28,26,26,0,0,1-.28-5.09,20.52,20.52,0,0,1,.53-4.11c.28-1.1.85-2.85,1.7-5.23Q152.1,95.12,159.11,94q3.63-.57,4.11,2.6c.22,1.44-.23,3.8-1.33,7.1a30.14,30.14,0,0,1-3.2,7.18q-4.32,6.47-5.56,8.93a8.71,8.71,0,0,0-.81,5.29,5.56,5.56,0,0,0,2.22,3.79,5.64,5.64,0,0,0,4.41,1,11.24,11.24,0,0,0,5.8-3.28A78.19,78.19,0,0,0,172.34,117.81Zm-8.61-29.46a4,4,0,0,1-3-.84,4.32,4.32,0,0,1-1.83-3,12.17,12.17,0,0,1,1.5-7q2-4,4.62-4.44a4,4,0,0,1,3.17.78,5.11,5.11,0,0,1,1.73,3.42A11.68,11.68,0,0,1,168.43,84Q166.52,87.92,163.73,88.35Z" transform="translate(-0.45 -25.71)"/><path d="M171.65,120l-.24-1.63c7.75-14.1,13.78-23.54,17-29,0-5.69,1.69-8.79,5-9.27a5.43,5.43,0,0,1,2.76.42l.54,1.24a9,9,0,0,0,.11,2.34,25.27,25.27,0,0,0,1.56,4.67q1.36,3.38,2.19,5.68a27.59,27.59,0,0,1,1.26,5.29,21.88,21.88,0,0,1-.48,8.86,29.56,29.56,0,0,1-3.94,8.63,57.79,57.79,0,0,1-7.47,9,19.28,19.28,0,0,0,3.4-.09,11.89,11.89,0,0,0,5-2.16,32.14,32.14,0,0,0,5.14-4.58q2.55-2.77,5.86-7.08l.68,4.55a92.92,92.92,0,0,1-11.52,14.86q-5.27,5.25-9.55,5.89-5.5.81-11-3.92a15.29,15.29,0,0,1-4.35-5.74A38.87,38.87,0,0,1,171.65,120ZM192,106.4l-2.53-9.76q-2.92,5.3-12.82,20.57c2.43.25,4.15.8,5.16,1.67a38.34,38.34,0,0,1,4.48,5.23,14.69,14.69,0,0,0,5.36-6.1c1.1-2.41,1.37-5.51.81-9.32-.07-.45-.14-.85-.21-1.21S192.07,106.76,192,106.4Z" transform="translate(-0.45 -25.71)"/><path d="M209.09,118.88l-.7-4.75q6.68-11.53,11.28-21.52t7.26-15.86a35.07,35.07,0,0,1,5-8.48,10.07,10.07,0,0,1,6.29-3.19c1.33-.2,2.08.29,2.26,1.47a9.8,9.8,0,0,1-1,4.45,38.44,38.44,0,0,1-3.29,6.32,55.69,55.69,0,0,0-5.12,10.51Q228.72,94,226,103.54q2.74-3.32,6.3-7.84t5.83-7.11a27,27,0,0,1,4.64-4.26,11.35,11.35,0,0,1,4.94-2,2.62,2.62,0,0,1,2.24.36,4.92,4.92,0,0,1,.89,2.57,25,25,0,0,1-.68,10.41,51,51,0,0,1-4.7,11.14,144.52,144.52,0,0,1-8.25,13,10.88,10.88,0,0,0,4.35.26q6.8-1,16.45-14.73l.72,4.89q-3.77,5.28-7.41,10a56.81,56.81,0,0,1-7,7.7,13,13,0,0,1-6.55,3.47,11.14,11.14,0,0,1-2.54.07,18.57,18.57,0,0,1-2.54-.39c-.79-.19-1.81-.46-3.06-.83s-2.21-.62-2.87-.76a17.83,17.83,0,0,1-2,.86,9,9,0,0,1-5.08-1.19Q218.31,133.76,217,141t-2.27,11.54a36.44,36.44,0,0,1-3.06,8.44c-.81,1.28-1.41,1.94-1.8,2q-2.52.38-3.29-4.79a31.23,31.23,0,0,1,.17-9.57,59.31,59.31,0,0,1,2.45-9.76q1.6-4.68,3.65-9.53t2.83-7.19q6.52-19.85,9.76-33.58Q214.79,109.57,209.09,118.88Zm24.29-.19a93.17,93.17,0,0,0,6.87-13.31c1.4-3.58,2-6.26,1.71-8s-1.09-2.41-2.54-2.2q-2.92.44-7.4,6.83a86.17,86.17,0,0,0-8.69,16.73,30.19,30.19,0,0,1,5.74-1.23A10.67,10.67,0,0,1,233.38,118.69Z" transform="translate(-0.45 -25.71)"/><path d="M285.54,105l-8.91,11.8q-6.33,8.64-8.85,9c-1.52.23-3.43-1.56-5.71-5.36A28.83,28.83,0,0,1,258,110.21a18.66,18.66,0,0,1,.06-6.71A48.49,48.49,0,0,1,260.55,96,93.28,93.28,0,0,1,266,85.22a53.46,53.46,0,0,1,4.88-7.07c1.46-1.72,2.53-2.63,3.19-2.73a4.1,4.1,0,0,1,3.36,1.44,6.4,6.4,0,0,1,2.08,3.72,10.25,10.25,0,0,1-1,4.38,59.47,59.47,0,0,1-4,8,124,124,0,0,1-8.14,11.93l-.56,3.9a4.94,4.94,0,0,0-.19,2c.18,1.22.8,1.75,1.85,1.59s3.43-2.14,7-6a104.44,104.44,0,0,0,11.23-14.92q2.28-3.6,3.74-6.32t2.6-5.07a34.38,34.38,0,0,1,2-3.58,2.93,2.93,0,0,1,1.56-1.41A2.16,2.16,0,0,1,298,76.17a11.3,11.3,0,0,1,1.54,4.7,10.75,10.75,0,0,1-.73,4.8q-1,3-3.89,10.15t-5.67,14.86q-2.79,7.68-5.46,17.16l3-4.61q2.87-4.38,6-9.16t5.27-7.68q2.09-2.91,5.28-6.86l.67,4.55q-6.45,11-11.56,20.8t-7.81,15.6l-3.16,6.78c-.82,1.74-1.55,3.37-2.19,4.87s-1.18,2.68-1.63,3.51-.86,1.27-1.22,1.32q-1.23.18-2.61-2.49a16,16,0,0,1-1.71-4.85,8.9,8.9,0,0,1,.13-3.56Q274.87,134.44,285.54,105Z" transform="translate(-0.45 -25.71)"/><path d="M310.34,63.56c0-.27-.22-.39-.53-.34-1.61.24-2.54-.57-2.82-2.43a12,12,0,0,1,.75-5.45,19.69,19.69,0,0,1,3-5.72q1.9-2.5,3.6-2.76c1.6-.23,2.59.87,2.95,3.31a16.68,16.68,0,0,1-1.12,8.19,37.49,37.49,0,0,1-4.06,8c-1.59,2.34-2.64,3.54-3.14,3.62-.24,0-.38-.08-.42-.36a6.09,6.09,0,0,1,.76-3A7,7,0,0,0,310.34,63.56Z" transform="translate(-0.45 -25.71)"/><path d="M314.64,106l-.24-1.63q12.39-20.72,17-29,.06-8.55,5-9.28a5.34,5.34,0,0,1,2.76.43l.54,1.24a8.61,8.61,0,0,0,.11,2.34,24.71,24.71,0,0,0,1.56,4.66q1.37,3.38,2.19,5.68a29.29,29.29,0,0,1,1.26,5.3,21.82,21.82,0,0,1-.49,8.85,29.31,29.31,0,0,1-3.93,8.64,57.76,57.76,0,0,1-7.47,9,19.32,19.32,0,0,0,3.4-.09,11.64,11.64,0,0,0,5-2.16,32.06,32.06,0,0,0,5.13-4.57q2.55-2.78,5.87-7.09l1.05,4a99.58,99.58,0,0,1-11.89,15.44q-5.28,5.27-9.55,5.89-5.5.82-11-3.92a15.28,15.28,0,0,1-4.36-5.74A39,39,0,0,1,314.64,106ZM335,92.39l-2.52-9.76q-2.93,5.3-12.83,20.57c2.44.24,4.16.8,5.16,1.66a37.77,37.77,0,0,1,4.49,5.24,14.82,14.82,0,0,0,5.36-6.1q1.65-3.61.8-9.32c-.06-.45-.13-.86-.21-1.22S335.06,92.75,335,92.39Z" transform="translate(-0.45 -25.71)"/><path class="cls-3" d="M110.74,126.37l.65,4.41a230,230,0,0,1-15,23.64A77.69,77.69,0,0,1,82.21,169.5a31.24,31.24,0,0,1-14.52,6.7,20,20,0,0,1-11.31-1.31,18.11,18.11,0,0,1-8.12-7.51A35,35,0,0,1,44,154.44a54.15,54.15,0,0,1-.23-13.05A78.22,78.22,0,0,1,46.57,127a127.38,127.38,0,0,1,5.65-15.38q3.53-8,8.54-17A136.08,136.08,0,0,1,71.34,78.31a88.45,88.45,0,0,1,10-11.23A49.31,49.31,0,0,1,90,60.51a21.34,21.34,0,0,1,7-2.77,7.88,7.88,0,0,1,5.23.9,10.51,10.51,0,0,1,3.87,4.28,21.9,21.9,0,0,1,2.18,7q1.13,7.68-2,17.75a103.22,103.22,0,0,1-8.56,19.83A109.63,109.63,0,0,1,87,123.75q-5.31,6.44-8,6.84a4.62,4.62,0,0,1-3.62-1.17,5.42,5.42,0,0,1-2.11-3.53q-.57-3.89,2.16-9.9a76.47,76.47,0,0,1,6.24-11.24q3.51-5.2,4.34-5.32a.36.36,0,0,1,.47.34,6.64,6.64,0,0,1-.31,2.2,7.55,7.55,0,0,0-.34,1.93c0,.36.2.52.43.49q1-.15,4.83-7a99.59,99.59,0,0,0,6.69-14.91q2.85-8,2.15-12.78a5.38,5.38,0,0,0-1.18-2.91A2.53,2.53,0,0,0,96.35,66q-4.09.6-11.31,9.55A139.3,139.3,0,0,0,70.83,97.75a144.44,144.44,0,0,0-11,26.78q-4,13.58-2.55,23.22a26.33,26.33,0,0,0,2.82,9.09A12.52,12.52,0,0,0,65.19,162a11.2,11.2,0,0,0,7,1q8.49-1.26,18.14-10.53T110.74,126.37Z" transform="translate(-0.45 -25.71)"/><path class="cls-3" d="M110.44,132l-.65-4.42a68.31,68.31,0,0,0,3.71-8.12,6.28,6.28,0,0,1-3-1.43,5.24,5.24,0,0,1-1.33-3.13,15.55,15.55,0,0,1,.84-6.44,36.08,36.08,0,0,1,3.3-7.64,14,14,0,0,1,4.07-4.9,3.11,3.11,0,0,1,1.51-.71c.78-.12,1.23.25,1.36,1.11s-.26,2.43-1.12,5q11.75-4,14.92-4.43a3.7,3.7,0,0,1,1.74,0,4.9,4.9,0,0,1,2.06,2.61,16.31,16.31,0,0,1,1.31,4.38,5.84,5.84,0,0,1-.63,3.26,61.34,61.34,0,0,1-3,5.4,41.52,41.52,0,0,0-4,9.2q-1.44,4.86-1.09,7.17.47,3.19,3.87,2.69,3.57-.52,11.18-10.26l.67,4.55q-4,6.63-6.65,10.49a44.58,44.58,0,0,1-5.06,6.27,8.54,8.54,0,0,1-4.51,2.72,4.85,4.85,0,0,1-4.49-2c-1.35-1.58-2.27-4-2.76-7.33a20.91,20.91,0,0,1,.3-6.85,49.38,49.38,0,0,1,2.58-8.68,102.34,102.34,0,0,1,4.3-9.55c-1.05.43-2.24.9-3.56,1.39l-4.21,1.56-3.4,1.27A49.15,49.15,0,0,1,110.44,132Z" transform="translate(-0.45 -25.71)"/><path class="cls-3" d="M173.32,117.38l.73,5a66.41,66.41,0,0,1-8.71,14.37c-2.85,3.36-5.44,5.21-7.74,5.56q-4.82.71-8-4.79a34.22,34.22,0,0,1-4.23-12.42,26.39,26.39,0,0,1-.28-5.13,21.71,21.71,0,0,1,.52-4.14q.42-1.65,1.68-5.24,6.1-16.24,13-17.27c2.38-.35,3.73.53,4.05,2.66q.32,2.18-1.31,7.14a30.21,30.21,0,0,1-3.16,7.2,103,103,0,0,0-5.48,8.93,8.78,8.78,0,0,0-.79,5.32,5.69,5.69,0,0,0,2.18,3.84,5.5,5.5,0,0,0,4.35,1,10.92,10.92,0,0,0,5.72-3.24A79,79,0,0,0,173.32,117.38Zm-8.48-29.77a4,4,0,0,1-3-.88,4.45,4.45,0,0,1-1.8-3.07,12.46,12.46,0,0,1,1.48-7c1.28-2.68,2.79-4.16,4.55-4.42a3.91,3.91,0,0,1,3.12.82,5.23,5.23,0,0,1,1.71,3.46,11.83,11.83,0,0,1-1.45,6.81C168.22,85.9,166.67,87.34,164.84,87.61Z" transform="translate(-0.45 -25.71)"/><path class="cls-3" d="M172.48,120.12l-.24-1.63q12.38-20.71,17-29,0-8.55,5-9.28a5.29,5.29,0,0,1,2.75.43l.55,1.24a8.94,8.94,0,0,0,.1,2.34,25.25,25.25,0,0,0,1.56,4.66c.92,2.25,1.64,4.15,2.19,5.68a28.44,28.44,0,0,1,1.27,5.3,21.82,21.82,0,0,1-.49,8.85,29.84,29.84,0,0,1-3.93,8.64,58,58,0,0,1-7.48,9,17.65,17.65,0,0,0,3.41-.09,11.64,11.64,0,0,0,5-2.16,32.5,32.5,0,0,0,5.13-4.57q2.55-2.77,5.87-7.09l.67,4.56a92.35,92.35,0,0,1-11.51,14.85q-5.28,5.26-9.55,5.9-5.52.81-11-3.93a15.14,15.14,0,0,1-4.35-5.74A38.19,38.19,0,0,1,172.48,120.12Zm20.32-13.63-2.52-9.76q-2.94,5.3-12.83,20.57,3.65.36,5.16,1.67a37.58,37.58,0,0,1,4.49,5.23,14.67,14.67,0,0,0,5.35-6.1q1.65-3.61.81-9.32c-.07-.45-.14-.86-.21-1.22S192.89,106.85,192.8,106.49Z" transform="translate(-0.45 -25.71)"/><path class="cls-3" d="M210.39,117.72l-.71-4.75q6.67-11.55,11.28-21.53t7.27-15.86a34.68,34.68,0,0,1,5-8.47,10,10,0,0,1,6.3-3.19c1.32-.2,2.08.29,2.25,1.47a9.82,9.82,0,0,1-1,4.45,38.75,38.75,0,0,1-3.28,6.32,55.38,55.38,0,0,0-5.13,10.51q-2.34,6.21-5.07,15.71,2.75-3.33,6.3-7.84t5.83-7.11a27.49,27.49,0,0,1,4.64-4.27,11.52,11.52,0,0,1,4.94-2,2.59,2.59,0,0,1,2.24.37,4.83,4.83,0,0,1,.89,2.57,25.06,25.06,0,0,1-.67,10.41,51.45,51.45,0,0,1-4.7,11.14,146.2,146.2,0,0,1-8.26,13,10.57,10.57,0,0,0,4.36.26q6.79-1,16.44-14.72l.73,4.89q-3.78,5.28-7.42,10a57,57,0,0,1-7,7.71,13.05,13.05,0,0,1-6.56,3.47,11.08,11.08,0,0,1-2.53.06,16.23,16.23,0,0,1-2.55-.39c-.78-.18-1.8-.46-3.06-.83s-2.2-.62-2.86-.75a16.3,16.3,0,0,1-2,.85,8.89,8.89,0,0,1-5.09-1.19q-1.29,4.64-2.58,11.87T216,151.38a36.61,36.61,0,0,1-3.06,8.44c-.81,1.27-1.41,1.94-1.8,2q-2.52.38-3.29-4.79a31.23,31.23,0,0,1,.17-9.57,60.45,60.45,0,0,1,2.45-9.77q1.62-4.68,3.65-9.53T217,121q6.53-19.85,9.76-33.59Q216.08,108.41,210.39,117.72Zm24.29-.2a92.4,92.4,0,0,0,6.86-13.3q2.11-5.37,1.72-8c-.25-1.67-1.1-2.4-2.54-2.19q-2.94.44-7.41,6.82a86.29,86.29,0,0,0-8.69,16.74,30.53,30.53,0,0,1,5.75-1.24A11.05,11.05,0,0,1,234.68,117.52Z" transform="translate(-0.45 -25.71)"/><path class="cls-3" d="M286.37,103.34l-8.92,11.8q-6.33,8.65-8.85,9-2.28.34-5.7-5.37a28.76,28.76,0,0,1-4.1-10.25,18.66,18.66,0,0,1,.06-6.71,50.83,50.83,0,0,1,2.51-7.49,93.87,93.87,0,0,1,5.41-10.79,53.66,53.66,0,0,1,4.88-7.08c1.47-1.72,2.53-2.63,3.19-2.73a4.14,4.14,0,0,1,3.36,1.45,6.34,6.34,0,0,1,2.08,3.72,10.1,10.1,0,0,1-1,4.38,59.8,59.8,0,0,1-4,8,125.67,125.67,0,0,1-8.15,11.93l-.56,3.9a4.9,4.9,0,0,0-.19,2c.18,1.22.8,1.76,1.86,1.6s3.42-2.15,7-6A105,105,0,0,0,286.46,89.8q2.28-3.6,3.73-6.32t2.61-5.07a33.16,33.16,0,0,1,1.95-3.59,3,3,0,0,1,1.56-1.41,2.17,2.17,0,0,1,2.5,1.09,11.26,11.26,0,0,1,1.53,4.7,10.71,10.71,0,0,1-.73,4.79q-1,3-3.88,10.16T290.05,109q-2.79,7.67-5.46,17.15l3-4.6q2.85-4.38,6-9.16t5.27-7.69q2.08-2.91,5.27-6.85l.68,4.55q-6.47,11-11.57,20.8t-7.81,15.6l-3.16,6.78q-1.23,2.61-2.18,4.87c-.64,1.51-1.19,2.67-1.64,3.5s-.86,1.28-1.21,1.33c-.82.12-1.69-.71-2.62-2.49A15.79,15.79,0,0,1,273,148a8.55,8.55,0,0,1,.13-3.56Q275.68,132.76,286.37,103.34Z" transform="translate(-0.45 -25.71)"/><path class="cls-3" d="M310.74,63.29c0-.27-.21-.38-.53-.33-1.6.23-2.54-.57-2.81-2.43a12,12,0,0,1,.75-5.46,19.8,19.8,0,0,1,3-5.72c1.27-1.66,2.48-2.58,3.61-2.75,1.6-.24,2.58.87,2.95,3.31a16.66,16.66,0,0,1-1.13,8.18,36.79,36.79,0,0,1-4.05,8q-2.38,3.51-3.15,3.63c-.23,0-.37-.09-.41-.36a6.15,6.15,0,0,1,.76-3A6.86,6.86,0,0,0,310.74,63.29Z" transform="translate(-0.45 -25.71)"/><path class="cls-3" d="M314.85,104.83l-.25-1.63q12.39-20.72,17-29,0-8.55,5-9.28a5.33,5.33,0,0,1,2.76.43l.55,1.24A9,9,0,0,0,340,69a25.5,25.5,0,0,0,1.56,4.66q1.37,3.38,2.19,5.68a28.44,28.44,0,0,1,1.27,5.3,21.82,21.82,0,0,1-.49,8.85,29.84,29.84,0,0,1-3.93,8.64,58.45,58.45,0,0,1-7.48,9,19.28,19.28,0,0,0,3.4-.09,11.54,11.54,0,0,0,5-2.16,32.54,32.54,0,0,0,5.14-4.57q2.55-2.78,5.87-7.09l.67,4.55a91.45,91.45,0,0,1-11.52,14.86q-5.26,5.27-9.55,5.89-5.51.82-11-3.92a15.14,15.14,0,0,1-4.35-5.74A38.35,38.35,0,0,1,314.85,104.83ZM335.17,91.2l-2.52-9.76q-2.94,5.3-12.83,20.57c2.43.24,4.15.8,5.16,1.66a39.22,39.22,0,0,1,4.49,5.24,14.73,14.73,0,0,0,5.35-6.1q1.65-3.61.81-9.32c-.07-.45-.14-.86-.21-1.22S335.26,91.56,335.17,91.2Z" transform="translate(-0.45 -25.71)"/></svg>