<svg id="Layer_2" data-name="Layer 2" xmlns="http://www.w3.org/2000/svg" viewBox="0 0 795.05 643.77"><defs><style>.cls-1,.cls-2{fill:none;stroke-miterlimit:10;stroke-width:10px;}.cls-1{stroke:#fff;}.cls-2{stroke:#000;}.cls-3{font-size:94.02px;font-family:BritannicBold, Britannic Bold;}.cls-4{fill:#fff;}.cls-5{fill:#c1272d;font-size:140px;}</style></defs><title>foe_logo</title><path class="cls-1" d="M669.5,463.5s91-230,305-232,313,170,322,205" transform="translate(-625.04 -226.48)"/><path class="cls-2" d="M810,451s38-67,122-76" transform="translate(-625.04 -226.48)"/><path class="cls-1" d="M1078,373s73,21,104,84" transform="translate(-625.04 -226.48)"/><path class="cls-1" d="M785,663s91,104,204,104c141.23,0,198-107,198-107" transform="translate(-625.04 -226.48)"/><path class="cls-1" d="M678,679s189.54,309,492.84,131a312.3,312.3,0,0,0,92.91-83.38C1285.5,697.25,1309,658.5,1316,621" transform="translate(-625.04 -226.48)"/><path d="M1085,456l-4-9L940,308s-8,32,58,79h9l63,73,15,5Z" transform="translate(-625.04 -226.48)"/><path d="M932,451l96-85,5-22,44-40-30,34,35-30-30,31,31-25-29,29,32-26-28,30,32-29s-18,35-34,45l-22,7-89,95H931l1-15Z" transform="translate(-625.04 -226.48)"/><text class="cls-3" transform="translate(0.02 385.18)">Family o<tspan x="347.63" y="0">f</tspan><tspan class="cls-4" x="377.33" y="0"> </tspan><tspan class="cls-5" x="405.52" y="0">E</tspan><tspan class="cls-4" x="480.1" y="0">ateries</tspan></text></svg>