<svg id="Layer_1" data-name="Layer 1" xmlns="http://www.w3.org/2000/svg" viewBox="0 0 394.5 157.06"><defs><style>.cls-1{fill:#ee8a2e;}.cls-2{fill:#982e2c;}.cls-3{fill:#fec533;}.cls-4{fill:#4d4d4d;}</style></defs><title>hearth_logo</title><path class="cls-1" d="M78.22,20.56S51.72,53.68,79.87,84C89.53,97.56,105,91.49,105,91.49s12.14-1.1,5.52-29.25c0,0,19.87,24.28,19.87,43.6s-24.84,35.33-26.5,34.78S43.72,162.15,35.44,79.9C35.44,79.9,31,45.13,78.22,20.56Z" transform="translate(-2.35 -20.56)"/><path class="cls-2" d="M21.09,87.63S11.7,105.84,23.3,120.2l6.07-8.28,14.9,24.28,6.56-10.57s7.24,12.23,35.94,17.2c0,0-5,33.67-41.39,34.77S3.43,143.38,3.43,143.38-3.75,104.74,21.09,87.63Z" transform="translate(-2.35 -20.56)"/><path class="cls-3" d="M53.65,38.5s-12.14,26-3.31,43.06S73,111.36,73,111.36s18.77,11.6,14.91,32c0,0-45.82-1.66-53-51.34C31.58,47.89,53.65,38.5,53.65,38.5Z" transform="translate(-2.35 -20.56)"/><path class="cls-2" d="M124.31,123.51l-18.77-21-11,16.56-21-32.57-9.32,15.26s20.6,22,21.86,31.8l1.26,9.8S107.75,147.24,124.31,123.51Z" transform="translate(-2.35 -20.56)"/><path class="cls-1" d="M50.34,126.82,64.14,102s28.15,22.63,23.74,41.4C87.88,143.38,64.14,142.27,50.34,126.82Z" transform="translate(-2.35 -20.56)"/><path class="cls-3" d="M4,145.59,23.3,120.2s-6.63-8.28-5-23.74c0,0,2.21-8.83,2.76-8.83S-4.3,100.88,4,145.59Z" transform="translate(-2.35 -20.56)"/><path d="M272.3,127.93l.31,4.6h-.31a5.7,5.7,0,0,0-1.77-3,4.26,4.26,0,0,0-2.75-.91,4.52,4.52,0,0,0-2.43.68,4.47,4.47,0,0,0-1.71,2.18,9.64,9.64,0,0,0-.62,3.72,7.89,7.89,0,0,0,.58,3.18,4.51,4.51,0,0,0,1.77,2.07,5.1,5.1,0,0,0,2.7.72,4.68,4.68,0,0,0,2.33-.57,7.64,7.64,0,0,0,2.21-2.24l.31.2a7,7,0,0,1-2.38,2.64,6,6,0,0,1-3.22.84,6.09,6.09,0,0,1-5.2-2.49,7.12,7.12,0,0,1-1.38-4.37,7.7,7.7,0,0,1,.91-3.72,6.6,6.6,0,0,1,2.5-2.63,6.76,6.76,0,0,1,3.47-.93,6.34,6.34,0,0,1,2.89.72,1.52,1.52,0,0,0,.6.22.64.64,0,0,0,.47-.19,1.56,1.56,0,0,0,.37-.75Z" transform="translate(-2.35 -20.56)"/><path d="M279.44,140.45a14.9,14.9,0,0,1-1.77,1.25,2.6,2.6,0,0,1-1.14.25,2,2,0,0,1-1.56-.65,2.37,2.37,0,0,1-.62-1.7,2.18,2.18,0,0,1,.3-1.16,4.08,4.08,0,0,1,1.42-1.27,22,22,0,0,1,3.37-1.46v-.36a3,3,0,0,0-.43-1.87,1.57,1.57,0,0,0-1.27-.51,1.39,1.39,0,0,0-1,.34,1,1,0,0,0-.38.77l0,.58a1,1,0,0,1-.24.71.85.85,0,0,1-1.21,0,1,1,0,0,1-.24-.71,2.05,2.05,0,0,1,.88-1.57,3.8,3.8,0,0,1,2.46-.72,4.34,4.34,0,0,1,2,.41,1.89,1.89,0,0,1,.87,1,5.39,5.39,0,0,1,.18,1.75v3.1a12.56,12.56,0,0,0,.05,1.6.65.65,0,0,0,.16.4.42.42,0,0,0,.26.1.61.61,0,0,0,.28-.07,6.53,6.53,0,0,0,.81-.73v.56c-.74,1-1.45,1.49-2.13,1.49a1,1,0,0,1-.78-.34A1.85,1.85,0,0,1,279.44,140.45Zm0-.65v-3.48a18.76,18.76,0,0,0-1.94.85,3.22,3.22,0,0,0-1.13.91,1.76,1.76,0,0,0-.34,1,1.67,1.67,0,0,0,.43,1.19,1.28,1.28,0,0,0,1,.48A3.65,3.65,0,0,0,279.44,139.8Z" transform="translate(-2.35 -20.56)"/><path d="M289.23,132.36v3.11h-.33a3.94,3.94,0,0,0-1-2,2.14,2.14,0,0,0-1.51-.53,1.67,1.67,0,0,0-1.13.37,1.07,1.07,0,0,0-.42.81,1.48,1.48,0,0,0,.31,1,3.72,3.72,0,0,0,1.26.87l1.46.71c1.35.66,2,1.52,2,2.6a2.46,2.46,0,0,1-.94,2,3.26,3.26,0,0,1-2.11.76,7.15,7.15,0,0,1-1.91-.3,2.24,2.24,0,0,0-.54-.1.39.39,0,0,0-.36.26h-.33v-3.26h.33a3.75,3.75,0,0,0,1.06,2.11,2.6,2.6,0,0,0,1.77.7,1.57,1.57,0,0,0,1.12-.4,1.27,1.27,0,0,0,.43-1,1.55,1.55,0,0,0-.48-1.16,8.37,8.37,0,0,0-1.93-1.19,5.7,5.7,0,0,1-1.89-1.29,2.25,2.25,0,0,1-.45-1.44,2.53,2.53,0,0,1,.77-1.88,2.72,2.72,0,0,1,2-.76,4.82,4.82,0,0,1,1.31.23,3.09,3.09,0,0,0,.67.15.37.37,0,0,0,.25-.07,1,1,0,0,0,.21-.31Z" transform="translate(-2.35 -20.56)"/><path d="M299.28,132.63v5.53a13.43,13.43,0,0,0,.08,1.94.9.9,0,0,0,.24.5.59.59,0,0,0,.38.14,1.83,1.83,0,0,0,.7-.17l.14.35L298.09,142h-.45v-1.93a8.23,8.23,0,0,1-1.8,1.6,2.7,2.7,0,0,1-1.3.33,2.11,2.11,0,0,1-1.33-.44,2.34,2.34,0,0,1-.79-1.14,7.2,7.2,0,0,1-.22-2V134.4a2,2,0,0,0-.13-.89,1,1,0,0,0-.42-.39,2.36,2.36,0,0,0-1-.12v-.37h3.2v6.11a2.33,2.33,0,0,0,.44,1.68,1.6,1.6,0,0,0,1.08.4,2.23,2.23,0,0,0,1-.27,5.25,5.25,0,0,0,1.29-1v-5.18a1.52,1.52,0,0,0-.28-1.05,1.87,1.87,0,0,0-1.19-.29v-.37Z" transform="translate(-2.35 -20.56)"/><path d="M306.66,140.45a14.3,14.3,0,0,1-1.76,1.25,2.65,2.65,0,0,1-1.15.25,2,2,0,0,1-1.56-.65,2.36,2.36,0,0,1-.61-1.7,2.18,2.18,0,0,1,.3-1.16,3.91,3.91,0,0,1,1.42-1.27,21.81,21.81,0,0,1,3.36-1.46v-.36a3,3,0,0,0-.43-1.87A1.56,1.56,0,0,0,305,133a1.41,1.41,0,0,0-1,.34,1,1,0,0,0-.38.77l0,.58a1,1,0,0,1-.23.71.86.86,0,0,1-1.22,0,1,1,0,0,1-.23-.71,2,2,0,0,1,.87-1.57,3.81,3.81,0,0,1,2.47-.72,4.29,4.29,0,0,1,2,.41,1.89,1.89,0,0,1,.87,1,5.39,5.39,0,0,1,.18,1.75v3.1a15,15,0,0,0,.05,1.6.72.72,0,0,0,.16.4.45.45,0,0,0,.27.1.64.64,0,0,0,.28-.07,6,6,0,0,0,.8-.73v.56c-.74,1-1.45,1.49-2.13,1.49a1,1,0,0,1-.78-.34A1.85,1.85,0,0,1,306.66,140.45Zm0-.65v-3.48a18.76,18.76,0,0,0-1.94.85,3.32,3.32,0,0,0-1.13.91,1.83,1.83,0,0,0-.34,1,1.72,1.72,0,0,0,.43,1.19,1.31,1.31,0,0,0,1,.48A3.65,3.65,0,0,0,306.66,139.8Z" transform="translate(-2.35 -20.56)"/><path d="M313.69,127.58V139.7a3.4,3.4,0,0,0,.13,1.14.91.91,0,0,0,.38.42,2.21,2.21,0,0,0,1,.14v.36h-4.48v-.36a1.88,1.88,0,0,0,.86-.13.84.84,0,0,0,.36-.42,3.29,3.29,0,0,0,.13-1.15v-8.3a13.79,13.79,0,0,0-.07-1.9.83.83,0,0,0-.23-.48.56.56,0,0,0-.39-.13,1.83,1.83,0,0,0-.66.16l-.17-.35,2.73-1.12Z" transform="translate(-2.35 -20.56)"/><path d="M321,141.76v-.37h.51a1.36,1.36,0,0,0,1.22-.54,3.24,3.24,0,0,0,.22-1.48v-8.74a2.82,2.82,0,0,0-.28-1.58,1.49,1.49,0,0,0-1.16-.44H321v-.37h5.51a12,12,0,0,1,4.61.69,5.49,5.49,0,0,1,2.54,2.29,7.1,7.1,0,0,1,1,3.71,6.79,6.79,0,0,1-1.72,4.72c-1.28,1.41-3.24,2.11-5.86,2.11Zm3.86-1a10.74,10.74,0,0,0,2.13.28,5.07,5.07,0,0,0,3.84-1.63,7.17,7.17,0,0,0,0-8.83A5.19,5.19,0,0,0,327,129a8.68,8.68,0,0,0-2.05.29Z" transform="translate(-2.35 -20.56)"/><path d="M339.23,132.36v7.34a3.15,3.15,0,0,0,.13,1.14.81.81,0,0,0,.37.42,1.87,1.87,0,0,0,.89.14v.36h-4.44v-.36a2,2,0,0,0,.9-.13.84.84,0,0,0,.36-.42,3.23,3.23,0,0,0,.14-1.15v-3.52a12.57,12.57,0,0,0-.09-1.93.79.79,0,0,0-.22-.44.65.65,0,0,0-.41-.12,2,2,0,0,0-.68.15l-.14-.36,2.75-1.12Zm-.83-4.78a1,1,0,0,1,1,1,1,1,0,0,1-.29.72,1,1,0,1,1-.72-1.73Z" transform="translate(-2.35 -20.56)"/><path d="M344.42,134.29c1.07-1.29,2.09-1.93,3.06-1.93a2.2,2.2,0,0,1,1.29.37,2.47,2.47,0,0,1,.85,1.24,5.54,5.54,0,0,1,.22,1.83v3.9a3.39,3.39,0,0,0,.14,1.18.83.83,0,0,0,.36.38,1.89,1.89,0,0,0,.9.14v.36h-4.52v-.36h.19a1.5,1.5,0,0,0,.89-.19,1,1,0,0,0,.36-.57,6.94,6.94,0,0,0,0-.94V136a3.75,3.75,0,0,0-.33-1.81,1.14,1.14,0,0,0-1.09-.56,3.28,3.28,0,0,0-2.36,1.29v4.82a3.28,3.28,0,0,0,.11,1.15.92.92,0,0,0,.38.42,2.4,2.4,0,0,0,1,.13v.36h-4.51v-.36h.2a1.06,1.06,0,0,0,.94-.35,2.64,2.64,0,0,0,.24-1.35v-3.39a15.17,15.17,0,0,0-.07-2,.82.82,0,0,0-.23-.48.6.6,0,0,0-.42-.13,1.91,1.91,0,0,0-.66.15l-.15-.36,2.75-1.12h.43Z" transform="translate(-2.35 -20.56)"/><path d="M355.12,132.36v7.34a3.48,3.48,0,0,0,.12,1.14.9.9,0,0,0,.37.42,1.87,1.87,0,0,0,.89.14v.36h-4.43v-.36a2,2,0,0,0,.89-.13.81.81,0,0,0,.37-.42,3.29,3.29,0,0,0,.13-1.15v-3.52a12.57,12.57,0,0,0-.09-1.93.73.73,0,0,0-.22-.44.63.63,0,0,0-.41-.12,2,2,0,0,0-.67.15l-.14-.36,2.75-1.12Zm-.83-4.78a1,1,0,0,1,1,1,1,1,0,0,1-.3.72.94.94,0,0,1-.71.3,1,1,0,0,1-1-1,1,1,0,0,1,1-1Z" transform="translate(-2.35 -20.56)"/><path d="M360.3,134.29c1.07-1.29,2.09-1.93,3.06-1.93a2.2,2.2,0,0,1,1.29.37,2.48,2.48,0,0,1,.86,1.24,5.54,5.54,0,0,1,.22,1.83v3.9a3.39,3.39,0,0,0,.14,1.18.8.8,0,0,0,.35.38,1.91,1.91,0,0,0,.9.14v.36h-4.51v-.36h.19a1.53,1.53,0,0,0,.89-.19,1,1,0,0,0,.35-.57,5.49,5.49,0,0,0,0-.94V136a3.9,3.9,0,0,0-.32-1.81,1.15,1.15,0,0,0-1.09-.56,3.32,3.32,0,0,0-2.37,1.29v4.82a3.56,3.56,0,0,0,.11,1.15.94.94,0,0,0,.39.42,2.37,2.37,0,0,0,1,.13v.36h-4.52v-.36h.2a1,1,0,0,0,.94-.35,2.52,2.52,0,0,0,.25-1.35v-3.39a14.41,14.41,0,0,0-.08-2,.77.77,0,0,0-.23-.48.59.59,0,0,0-.41-.13,1.91,1.91,0,0,0-.67.15l-.15-.36,2.75-1.12h.43Z" transform="translate(-2.35 -20.56)"/><path d="M370.3,138.43a3,3,0,0,1-1.29-1.14,3,3,0,0,1-.45-1.62,3.12,3.12,0,0,1,1-2.33,3.65,3.65,0,0,1,2.62-1,3.92,3.92,0,0,1,2.26.64h1.94a3.84,3.84,0,0,1,.5,0,.22.22,0,0,1,.1.09.6.6,0,0,1,.06.32,1,1,0,0,1-.05.36.24.24,0,0,1-.11.08,2.2,2.2,0,0,1-.5,0h-1.19a3.06,3.06,0,0,1-.42,4,3.67,3.67,0,0,1-2.62.91,4.92,4.92,0,0,1-1.39-.2,2.71,2.71,0,0,0-.59.67,1,1,0,0,0-.15.48.47.47,0,0,0,.16.33,1.32,1.32,0,0,0,.64.23c.19,0,.66,0,1.4.07,1.37,0,2.26.08,2.66.14a2.47,2.47,0,0,1,1.48.68,1.91,1.91,0,0,1,.56,1.38,2.92,2.92,0,0,1-1.06,2.12,5.71,5.71,0,0,1-4.06,1.45,5.79,5.79,0,0,1-3.25-.87c-.5-.33-.75-.67-.75-1a1.2,1.2,0,0,1,.11-.48,6,6,0,0,1,.7-1l1-1.08a3.19,3.19,0,0,1-.74-.55.82.82,0,0,1-.21-.55,1.6,1.6,0,0,1,.28-.82A6.54,6.54,0,0,1,370.3,138.43Zm-.1,3.33a4.76,4.76,0,0,0-.71,1,1.69,1.69,0,0,0-.24.81,1,1,0,0,0,.58.84,5.51,5.51,0,0,0,2.88.61,4.48,4.48,0,0,0,2.65-.63,1.73,1.73,0,0,0,.85-1.35.76.76,0,0,0-.51-.74,7,7,0,0,0-2.05-.26A30.84,30.84,0,0,1,370.2,141.76Zm1.83-8.92a1.56,1.56,0,0,0-1.24.59,2.74,2.74,0,0,0-.49,1.8,3.87,3.87,0,0,0,.67,2.44,1.62,1.62,0,0,0,1.32.66,1.58,1.58,0,0,0,1.25-.57A2.7,2.7,0,0,0,374,136a4,4,0,0,0-.69-2.48A1.59,1.59,0,0,0,372,132.84Z" transform="translate(-2.35 -20.56)"/><path d="M145.5,102.52h13.42V94.26a9.8,9.8,0,0,0-.28-2.92,1.89,1.89,0,0,0-.89-.91,3.93,3.93,0,0,0-1.94-.51h-1v-.79h12.35v.79h-1a4,4,0,0,0-1.93.49,1.75,1.75,0,0,0-.93,1,10.45,10.45,0,0,0-.24,2.82v18.63a9.84,9.84,0,0,0,.27,2.9,1.89,1.89,0,0,0,.87.91,4.07,4.07,0,0,0,2,.51h1V118H154.79v-.79h1a3,3,0,0,0,2.57-1c.36-.45.54-1.55.54-3.28V104.1H145.5v8.79a9.73,9.73,0,0,0,.28,2.9,1.89,1.89,0,0,0,.89.91,3.93,3.93,0,0,0,1.94.51h1V118H137.28v-.79h1a3.06,3.06,0,0,0,2.59-1,6.46,6.46,0,0,0,.52-3.28V94.26a9.8,9.8,0,0,0-.28-2.92,1.89,1.89,0,0,0-.87-.91,4.07,4.07,0,0,0-2-.51h-1v-.79h12.38v.79h-1a4,4,0,0,0-1.94.49,1.81,1.81,0,0,0-.91,1,9.8,9.8,0,0,0-.26,2.82Z" transform="translate(-2.35 -20.56)"/><path d="M172.67,105.84a10.05,10.05,0,0,0,2.11,6.82,6.45,6.45,0,0,0,5,2.47,5.41,5.41,0,0,0,3.34-1.06,7.77,7.77,0,0,0,2.37-3.61l.66.43a10.14,10.14,0,0,1-2.6,5.31,6.93,6.93,0,0,1-5.39,2.4,7.85,7.85,0,0,1-6-2.74,10.47,10.47,0,0,1-2.5-7.36q0-5,2.56-7.8a8.36,8.36,0,0,1,6.44-2.8,7.19,7.19,0,0,1,5.39,2.16,7.91,7.91,0,0,1,2.11,5.78Zm0-1.23h9a8.2,8.2,0,0,0-.45-2.64,4.22,4.22,0,0,0-1.58-1.88,4.06,4.06,0,0,0-2.21-.68,4.38,4.38,0,0,0-3.16,1.38A6,6,0,0,0,172.67,104.61Z" transform="translate(-2.35 -20.56)"/><path d="M199.8,115.19a31.36,31.36,0,0,1-3.77,2.68,5.69,5.69,0,0,1-2.45.54,4.39,4.39,0,0,1-3.33-1.39,5,5,0,0,1-1.31-3.64,4.61,4.61,0,0,1,.64-2.47,8.45,8.45,0,0,1,3-2.72,46.32,46.32,0,0,1,7.19-3.11v-.77c0-1.94-.31-3.28-.93-4a3.32,3.32,0,0,0-2.69-1.09,3,3,0,0,0-2.13.73,2.16,2.16,0,0,0-.81,1.66l0,1.23a2.09,2.09,0,0,1-.5,1.51,1.81,1.81,0,0,1-2.6,0,2.18,2.18,0,0,1-.5-1.51,4.35,4.35,0,0,1,1.88-3.36,8,8,0,0,1,5.26-1.54,9,9,0,0,1,4.25.88,4,4,0,0,1,1.86,2.06,11.84,11.84,0,0,1,.38,3.75v6.62a30.27,30.27,0,0,0,.11,3.42,1.37,1.37,0,0,0,.35.84.83.83,0,0,0,.56.21,1.16,1.16,0,0,0,.6-.15,12.76,12.76,0,0,0,1.72-1.55v1.19q-2.39,3.19-4.55,3.19a2.07,2.07,0,0,1-1.66-.72A3.83,3.83,0,0,1,199.8,115.19Zm0-1.38v-7.43a39.13,39.13,0,0,0-4.15,1.81,7,7,0,0,0-2.41,2,3.83,3.83,0,0,0-.72,2.24,3.63,3.63,0,0,0,.91,2.54,2.76,2.76,0,0,0,2.11,1Q197.16,115.94,199.8,113.81Z" transform="translate(-2.35 -20.56)"/><path d="M213.81,97.92v4.39q2.44-4.4,5-4.39a2.72,2.72,0,0,1,1.94.72,2.18,2.18,0,0,1,.77,1.65,1.94,1.94,0,0,1-.56,1.4,1.79,1.79,0,0,1-1.32.58,2.84,2.84,0,0,1-1.67-.74,2.73,2.73,0,0,0-1.37-.73,1.27,1.27,0,0,0-.83.42,10.12,10.12,0,0,0-2,2.88v9.34a5.78,5.78,0,0,0,.4,2.45,2.17,2.17,0,0,0,1,1,4.24,4.24,0,0,0,2,.38V118h-10v-.77a4.16,4.16,0,0,0,2.21-.46,1.8,1.8,0,0,0,.75-1.09,11.33,11.33,0,0,0,.1-2.07v-7.55a32.74,32.74,0,0,0-.13-4.06,1.7,1.7,0,0,0-.51-1,1.44,1.44,0,0,0-.93-.3,4.26,4.26,0,0,0-1.49.32l-.21-.76,5.89-2.39Z" transform="translate(-2.35 -20.56)"/><path d="M228.29,92.09V98.5h4.55V100h-4.55v12.65a4.25,4.25,0,0,0,.54,2.55,1.72,1.72,0,0,0,1.39.66,2.39,2.39,0,0,0,1.37-.44,2.81,2.81,0,0,0,1-1.28h.83a6.74,6.74,0,0,1-2.11,3.14,4.55,4.55,0,0,1-2.81,1,3.83,3.83,0,0,1-1.92-.54,3.29,3.29,0,0,1-1.38-1.56,8.09,8.09,0,0,1-.45-3.12V100h-3.08v-.7a8.41,8.41,0,0,0,2.39-1.59,12.39,12.39,0,0,0,2.18-2.65,24.61,24.61,0,0,0,1.37-3Z" transform="translate(-2.35 -20.56)"/><path d="M240.47,87.72V102a16.37,16.37,0,0,1,3.74-3.33,5.9,5.9,0,0,1,2.77-.74,4.53,4.53,0,0,1,2.85.92,5.37,5.37,0,0,1,1.77,2.87,20.27,20.27,0,0,1,.41,5v6.9a7.28,7.28,0,0,0,.29,2.54,1.68,1.68,0,0,0,.73.81,4.06,4.06,0,0,0,1.87.29V118h-9.58v-.77h.45a3.14,3.14,0,0,0,1.89-.41,2.25,2.25,0,0,0,.75-1.23,17.81,17.81,0,0,0,.06-2v-6.9a16.6,16.6,0,0,0-.33-4.19,2.81,2.81,0,0,0-1-1.5,3.05,3.05,0,0,0-1.75-.5,4.91,4.91,0,0,0-2.17.55,10.47,10.47,0,0,0-2.7,2.24v10.3a8,8,0,0,0,.22,2.49,1.78,1.78,0,0,0,.83.82,4.73,4.73,0,0,0,2.1.33V118H234v-.77a4.27,4.27,0,0,0,2-.4,1.48,1.48,0,0,0,.68-.81,7.09,7.09,0,0,0,.26-2.43V95.94a28.82,28.82,0,0,0-.16-4.11,1.83,1.83,0,0,0-.49-1,1.34,1.34,0,0,0-.88-.28,5.48,5.48,0,0,0-1.45.34l-.3-.74,5.84-2.39Z" transform="translate(-2.35 -20.56)"/><path class="cls-4" d="M281.15,100h9v.79a5.32,5.32,0,0,0-2.74.82,15.75,15.75,0,0,0-2.76,4.06,45.38,45.38,0,0,1-4.21,6.32,14.65,14.65,0,0,0,3.38,3.1,5.85,5.85,0,0,0,3,.88,4,4,0,0,0,2.5-.79,4.33,4.33,0,0,0,1.44-2.36l.79.58a8.2,8.2,0,0,1-2.53,4.43,6.25,6.25,0,0,1-4.07,1.42,7.57,7.57,0,0,1-3.54-.94,16,16,0,0,1-3.93-3.21,18.75,18.75,0,0,1-4.76,3.25,11.45,11.45,0,0,1-4.53.9,8,8,0,0,1-5.57-1.87,5.83,5.83,0,0,1-2.07-4.47,8.76,8.76,0,0,1,1.85-5.14q1.86-2.57,7-5.32A22.64,22.64,0,0,1,268,98.78a11,11,0,0,1-.36-2.71,6.4,6.4,0,0,1,2.68-5.56A8,8,0,0,1,275,89a5.78,5.78,0,0,1,4.13,1.5,4.85,4.85,0,0,1,1.6,3.7,5.77,5.77,0,0,1-1.54,4,20.08,20.08,0,0,1-5.47,3.72,87.59,87.59,0,0,0,5.65,8.82c2.49-3,3.74-5.5,3.74-7.54a2.71,2.71,0,0,0-.63-1.75,2,2,0,0,0-1.35-.68Zm-4.83,13.87q-2.81-3.84-3.9-5.6c-.72-1.18-1.52-2.64-2.38-4.39a12.06,12.06,0,0,0-3.84,3.24,6.34,6.34,0,0,0-1.29,3.83,6,6,0,0,0,1.47,4,4.94,4.94,0,0,0,4,1.73,6.42,6.42,0,0,0,2.58-.54A15.93,15.93,0,0,0,276.32,113.83ZM273,100.52a11.35,11.35,0,0,0,4-2.85,5.5,5.5,0,0,0,1.31-3.56,3.53,3.53,0,0,0-.95-2.53,3.08,3.08,0,0,0-2.35-1,3.24,3.24,0,0,0-2.8,1.28,4.29,4.29,0,0,0-.95,2.53,8.77,8.77,0,0,0,.36,2.33A35.32,35.32,0,0,0,273,100.52Z" transform="translate(-2.35 -20.56)"/><path d="M318.75,88.47v10H318a12.3,12.3,0,0,0-1.37-4.57,7.15,7.15,0,0,0-2.82-2.71,7.9,7.9,0,0,0-3.79-1,5.18,5.18,0,0,0-3.67,1.35,4.14,4.14,0,0,0-1.44,3.08,3.66,3.66,0,0,0,.91,2.41c.88,1.06,3,2.48,6.28,4.26a42,42,0,0,1,5.53,3.33,8.25,8.25,0,0,1,2.28,2.73,7.24,7.24,0,0,1,.8,3.3,7.49,7.49,0,0,1-2.55,5.66,9.23,9.23,0,0,1-6.55,2.37,13.68,13.68,0,0,1-2.36-.19,23.85,23.85,0,0,1-2.74-.78,12.66,12.66,0,0,0-2.63-.67,1.14,1.14,0,0,0-.84.32,2.5,2.5,0,0,0-.45,1.32h-.79v-9.9h.79a13.68,13.68,0,0,0,1.49,4.65A7.07,7.07,0,0,0,306.9,116a8.87,8.87,0,0,0,4.23,1,6,6,0,0,0,4.2-1.41,4.33,4.33,0,0,0,1.54-3.32,4.51,4.51,0,0,0-.58-2.15,6.43,6.43,0,0,0-1.82-2,50.31,50.31,0,0,0-4.54-2.71,44.25,44.25,0,0,1-5.27-3.32,9,9,0,0,1-2.37-2.72,6.76,6.76,0,0,1-.81-3.28,7.09,7.09,0,0,1,2.39-5.35,8.48,8.48,0,0,1,6.06-2.25,12.22,12.22,0,0,1,4.88,1.13,5.05,5.05,0,0,0,1.68.53,1.29,1.29,0,0,0,.91-.33,2.64,2.64,0,0,0,.56-1.33Z" transform="translate(-2.35 -20.56)"/><path d="M330,92.09V98.5h4.56V100H330v12.65a4.17,4.17,0,0,0,.55,2.55,1.71,1.71,0,0,0,1.39.66,2.36,2.36,0,0,0,1.36-.44,2.89,2.89,0,0,0,1-1.28h.83a6.74,6.74,0,0,1-2.11,3.14,4.57,4.57,0,0,1-2.81,1,3.8,3.8,0,0,1-1.92-.54,3.29,3.29,0,0,1-1.38-1.56,8.09,8.09,0,0,1-.45-3.12V100h-3.09v-.7a8.44,8.44,0,0,0,2.4-1.59A13,13,0,0,0,328,95.05a23.44,23.44,0,0,0,1.36-3Z" transform="translate(-2.35 -20.56)"/><path d="M346,97.92a8.64,8.64,0,0,1,7.12,3.37,10.35,10.35,0,0,1,2.27,6.6,12.55,12.55,0,0,1-1.25,5.3,9,9,0,0,1-8.37,5.41,8.27,8.27,0,0,1-7-3.52,10.87,10.87,0,0,1-2.19-6.64,11.71,11.71,0,0,1,1.33-5.33,8.88,8.88,0,0,1,8.1-5.19Zm-.66,1.39a4.39,4.39,0,0,0-2.26.67,4.68,4.68,0,0,0-1.85,2.35,11.47,11.47,0,0,0-.7,4.32,15.17,15.17,0,0,0,1.69,7.35q1.69,3.09,4.47,3.09a4.14,4.14,0,0,0,3.4-1.71c.9-1.13,1.34-3.09,1.34-5.85,0-3.47-.74-6.19-2.23-8.18A4.62,4.62,0,0,0,345.36,99.31Z" transform="translate(-2.35 -20.56)"/><path d="M364,102.05q3.43-4.12,6.54-4.13a4.74,4.74,0,0,1,2.75.8,5.42,5.42,0,0,1,1.83,2.63,12.23,12.23,0,0,1,.47,3.92v8.32a7.07,7.07,0,0,0,.29,2.52,1.79,1.79,0,0,0,.76.83,4.31,4.31,0,0,0,1.93.29V118h-9.65v-.77h.41a3.22,3.22,0,0,0,1.9-.41,2.26,2.26,0,0,0,.76-1.23,13.7,13.7,0,0,0,.08-2v-8a8.16,8.16,0,0,0-.69-3.87,2.47,2.47,0,0,0-2.33-1.2q-2.53,0-5,2.77v10.28a7.18,7.18,0,0,0,.24,2.45,2,2,0,0,0,.82.91,5.11,5.11,0,0,0,2.12.28V118H357.5v-.77h.43a2.3,2.3,0,0,0,2-.75,5.53,5.53,0,0,0,.52-2.89v-7.24a30.94,30.94,0,0,0-.16-4.28,1.87,1.87,0,0,0-.49-1,1.34,1.34,0,0,0-.88-.28,4.15,4.15,0,0,0-1.43.32l-.32-.76,5.88-2.39H364Z" transform="translate(-2.35 -20.56)"/><path d="M383.37,105.84a10.05,10.05,0,0,0,2.11,6.82,6.44,6.44,0,0,0,5,2.47,5.36,5.36,0,0,0,3.33-1.06,7.7,7.7,0,0,0,2.38-3.61l.66.43a10.22,10.22,0,0,1-2.6,5.31,6.93,6.93,0,0,1-5.39,2.4,7.85,7.85,0,0,1-6-2.74,10.47,10.47,0,0,1-2.5-7.36q0-5,2.56-7.8a8.36,8.36,0,0,1,6.44-2.8,7.21,7.21,0,0,1,5.39,2.16,8,8,0,0,1,2.11,5.78Zm0-1.23h9A8.2,8.2,0,0,0,392,102a4.18,4.18,0,0,0-1.59-1.88,4,4,0,0,0-2.2-.68,4.38,4.38,0,0,0-3.16,1.38A6,6,0,0,0,383.37,104.61Z" transform="translate(-2.35 -20.56)"/></svg>