<svg xmlns="http://www.w3.org/2000/svg" viewBox="0 0 432.54 432.54"><defs><style>.cls-1{fill:#fff;}</style></defs><title>specials_icon</title><g id="Layer_2" data-name="Layer 2"><g id="Capa_1" data-name="Capa 1"><path class="cls-1" d="M202.71,422,406.56,217.85Q417.42,207,425,188.72t7.56-33.4V36.55a35.12,35.12,0,0,0-10.84-25.7A35.15,35.15,0,0,0,396,0H277.23q-15.14,0-33.41,7.56T215,26L10.56,230.12A35,35,0,0,0,0,255.81a36.57,36.57,0,0,0,10.56,26L151,422a35,35,0,0,0,25.7,10.56A36.57,36.57,0,0,0,202.71,422ZM315.34,117.2a35.25,35.25,0,0,1-10.71-25.84,36.55,36.55,0,0,1,73.1,0,36.54,36.54,0,0,1-62.39,25.84Z"/></g></g></svg>