<svg xmlns="http://www.w3.org/2000/svg" viewBox="0 0 339 408.17"><defs><style>.cls-1{fill:#2d2b63;}.cls-2{fill:#e7eafc;}.cls-3{fill:#78c8a7;}.cls-4{fill:#aee5cf;}.cls-5{fill:#f8ac85;}.cls-6{fill:#e0dfdc;}.cls-7{fill:#847dfc;}.cls-8{fill:#d98762;}.cls-9{fill:#c6c4be;}.cls-10{fill:#688c3f;}.cls-11{fill:#efeceb;}.cls-12{fill:#a7bae5;}.cls-13{fill:#c4d2ed;}.cls-14{fill:#7b70bb;}.cls-15{fill:#8fa96e;}.cls-16{fill:#fdda75;}.cls-17{fill:#fdd153;}.cls-18{fill:#1b68a1;}</style></defs><title>p1e20</title><g id="Layer_2" data-name="Layer 2"><g id="Layer_1-2" data-name="Layer 1"><path class="cls-1" d="M18.17,42.82S26.48,67.75,59.71,90.6c0,0,43.62-22.85,54-49.85S97.1,3.36,97.1,3.36s-27-2.08-31.16,12.46c0,0-4.15-10.38-12.46-14.54S18.17,3.36,16.09,15.82,18.17,42.82,18.17,42.82Z"/><polygon class="cls-2" points="30.63 49.05 43.1 49.05 47.25 34.52 57.64 67.75 61.79 67.75 68.02 44.9 72.17 55.29 74.25 55.29 82.56 34.52 84.64 40.75 101.25 42.82 103.33 44.9 105.41 44.9 105.41 42.82 107.49 40.75 107.49 38.67 103.33 36.59 101.25 38.67 88.79 36.59 84.64 24.13 80.48 24.13 74.25 44.9 68.02 34.52 59.71 55.29 49.33 26.21 45.17 26.21 41.02 42.82 32.71 44.9 30.63 40.75 26.48 40.75 24.4 44.9 24.4 46.98 28.56 51.13 30.63 49.05"/><path class="cls-3" d="M0,387.23c.77,0,1.53.11,2.3.11h71c2.79,0,2.79,0,2.8-2.73q0-6.24.07-12.49c0-3.27-.06-6.53-.07-9.79Q76,348.29,76,334.22l-76,0Z"/><path class="cls-4" d="M0,334.19l76,0c0-1,.1-2.07.11-3.11q0-14.13,0-28.25c0-6.46-.11-12.92,0-19.38,0-1.86-.53-2.32-2.36-2.31q-35.52.09-71,0c-.91,0-1.82,0-2.73,0Z"/><path class="cls-5" d="M76.16,302.86q0,14.13,0,28.25c0,1-.07,2.07-.11,3.11q0,14.05.1,28.12c0,3.26,0,6.52.07,9.79,14.43,2.05,28.63,5.06,42.2,10.52a1.91,1.91,0,0,1,1.41.45h0a22.23,22.23,0,0,1,5.91,1.39c15.15,4.86,30.24,9.89,45.43,14.63,13,4.07,25.76,4.61,38.79.23,12.3-4.14,24.5-8.5,36.44-13.57,3.71-1.58,7.4-3.19,11.1-4.79a1.06,1.06,0,0,0-.88-.41,175.18,175.18,0,0,0-22.46,3.17,63.06,63.06,0,0,1-12.31,1.36,303.41,303.41,0,0,1-35.92-1.28,121.88,121.88,0,0,1-16.71-2.59,3.51,3.51,0,0,1,2.16-.27q11,.18,22.09.42c6,.13,12.06.17,18.08.51,3,.16,6.05.05,9,.43a32.33,32.33,0,0,0,14.1-1.55,99.32,99.32,0,0,1,21.46-3.95C265.1,376,273.52,374,279,365.31a9.73,9.73,0,0,1-1.3,4.91c-.23.47-.77,1-.26,1.5s1-.07,1.53-.28c7.11-3.14,14.19-6.36,21.34-9.42,2.74-1.17,5.3-2.88,8.39-3.17l0,0a2.81,2.81,0,0,1,3-1.33c7.89-3.71,15.72-7.55,23.43-11.65,4.86-2.59,5.18-5.06,1.24-8.81-.34-.32-.83-.55-.83-1.13-2.19-.69-4.15-1.92-6.38-2.59-7.44-2.23-14.74-1.4-22,.74a45.66,45.66,0,0,1-8.05,2.12,7.5,7.5,0,0,1-6,2.12,123.36,123.36,0,0,1-16.77,6.27c-1.61,1.72-3.76,2.2-6,2.48a3.79,3.79,0,0,1-3.25,1.07c-2.19-.44-4.4-.84-6.6-1.2a78.22,78.22,0,0,0-20.5-.79c-4.43.45-8.86,1-13.31,1.37-2.63.21-5.3-.2-7.95.35-.92.19-2,.34-2.64-.72a9.85,9.85,0,0,1-1.44-.07c-2.72-.57-5.6-.29-8.18-1.57-4.45-.5-8.62-2.3-13-2.88-3.13-.41-5-2.16-6.45-4.59-1.12-1.14-2.5-2.07-3-3.68a6.9,6.9,0,0,1-1.21-.81A121.4,121.4,0,0,0,162.76,317l-3.28-2-3.27-1.8-8.05-3.91-11.44-4.24a9.06,9.06,0,0,1-3.31-.9c-4.74-.84-9.42-2-14.21-2.64a135.61,135.61,0,0,0-41.79,1.2C77,302.78,76.57,302.81,76.16,302.86ZM250.29,364a21.07,21.07,0,0,1,.83-5.51c.64-1.89,1.49-2.11,2.79-.65,3,3.33,4.2,7.65,1.2,12-1.3,1.88-2.63,1.9-3.71-.14A11.73,11.73,0,0,1,250.29,364Z"/><path class="cls-6" d="M183.89,334.38c.53,1.61,1.91,2.54,3,3.68a83.35,83.35,0,0,0-.71-10.59c-.16-1.59.1-2.41,2-2.54,10.67-.75,21.34-1.61,32-2.43h2.49a8.88,8.88,0,0,1,3-.41l2.61-.16a7.45,7.45,0,0,1,.82-.17l29.69-2.18c2.51-.18,5-.3,7.53-.44,1,0,1.78.28,1.8,1.5a1.59,1.59,0,0,1-1.64,1.76c-.49.06-1,0-1.47.08-2.72.17-5.44.31-8.16.51l-28.22,2.06a42.06,42.06,0,0,0,.45,6.24,72.16,72.16,0,0,0,8.57-.47c4.87-.34,9.74-.77,14.61-1.12s9.47-.63,14.2-1c1.73-.12,2.7.51,2.53,2.37.17,2.56.21,5.14.54,7.68.21,1.63-.32,2-1.86,2.1-4.68.23-9.35.59-14,.92-7.88.55-15.74,1.46-23.64,1.6a5.49,5.49,0,0,1-2.77.43l-3,.3-2.72.1-15.19,1.28c2.58,1.28,5.46,1,8.18,1.57a9.85,9.85,0,0,0,1.44.07c7.12-.56,14.24-1.14,21.36-1.68q16-1.23,32.06-2.41c.83,0,.26-1.73,1.25-1.17,2,1.14,3.57,0,5.27-.6-.08-1.51-.16-3-.25-4.52-.68-2-.23-4.2-.73-6.25-.3-2,.58-2.62,2.58-2.68,4.11-.12,8.23-.37,12.3-.87,2.21-.28,2.58.59,2.35,2.36.17.95.34,1.91.49,2.86a2.9,2.9,0,0,0,4.39,2.2,17.85,17.85,0,0,0,1.56-1.06l-1-15.77c-.49-3.24-1.45-4.42-3.49-4.27s-2.94,1.56-2.67,4.77c.12,1.4-.36,2.08-1.67,2.33-.34.06-.67.14-1,.21-3.3.71-3.44.6-3.44-2.66,0-16.21,0-32.42,0-48.63a16.31,16.31,0,0,0-4-11.12c-2.54-3-5-6-7.45-9-2.8-3.44-3.24-6.72-.88-10.38,3.48-5.39,3.71-10.72.78-16.38-1.66-3.21-3-6.58-4.47-9.89-.75-1.73-1.59-3.3-3.85-3.28s-3.12,1.55-3.76,3.35c-.14.39-.27.78-.41,1.18-.34,4.07-1.38,8-1.76,12.12-.56,6,1.5,10.7,5.64,14.77a4.43,4.43,0,0,0,.43-2.63c0-5.35,0-10.7,0-16.05,0-.7-.24-1.5.54-2.24.48,1,.66,2,1.55,2.55h0c0-1.6-.92-2.91-1.29-4.39-.19-.72-.66-1.59.32-2s1.4.45,1.68,1.14c1.14,2.77,2.23,5.56,3.3,8.35.26.68.32,1.52-.52,1.78-1.28.4-1.31,1.15-1.11,2.25a6,6,0,0,1-.66,3.86,63.09,63.09,0,0,0-3.87,8.29v4a30,30,0,0,0,7.1,11c4.57,4.76,8.05,9.95,6.86,17a17.64,17.64,0,0,0,0,2.91l.06.19a1.3,1.3,0,0,1,1.69,1.34c.1,1.32.29,2.63.29,4q0,17.5,0,35c0,.9-.1,1.8-.18,2.69a1.48,1.48,0,0,1-1.85,1.48l-1.73.06c-2.62.73-3.65.16-3.68-2.45a68.79,68.79,0,0,0-.94-8.85c-4.52-1.52-5.42-.86-5.46,4a4.28,4.28,0,0,0,0,.62c.12,1.52-.6,2.16-2.1,2a41.58,41.58,0,0,1-7.14.45c-1.79.63-3.64.34-5.47.33-2.09.95-4.38.25-6.52.79-5.45.36-10.91.71-16.37,1.1q-12.37.9-24.75,1.84l-10.11.76c-2.83.23-5.66.43-8.49.68s-3,.59-3.24,3.24C183.87,328.67,184.66,331.5,183.89,334.38Zm108.92-17.73c-.11-1,.26-1.8,1.35-1.95A1.43,1.43,0,0,1,296,316a93,93,0,0,1,.9,11.78c0,1-.32,2.05-1.59,2s-1.65-1-1.73-2C293.27,324.1,293.05,320.38,292.81,316.65ZM269,314.42c0-.71,0-1.35.1-2a1.6,1.6,0,0,1,1.68-1.54,1.51,1.51,0,0,1,1.53,1.45c.34,3.8.65,7.6.9,11.41a1.64,1.64,0,0,1-1.5,1.94c-1.24.09-1.71-.77-1.81-1.85C269.61,320.69,269.31,317.51,269,314.42Zm3-84.32c-.44-.06-.75-.3-.7-.79a.7.7,0,0,1,.86-.64c.45,0,.79.28.74.77S272.51,230.09,272,230.1Z"/><path class="cls-7" d="M205.44,321.15q12.38-.93,24.75-1.84c5.46-.39,10.92-.74,16.37-1.1.07-.67.13-1.34.2-2L228.18,316a105,105,0,0,1-12.67-.13l-.18,0-.17-.09c-2.54-.8-4.12-2.44-4.14-4.87q-.11-14.37,0-28.75c0-2.5,2.12-4.84,4.38-4.87,4.25-.06,8.51-.5,12.77-.1,6.23-.39,12.46-.1,18.69-.15a.22.22,0,0,1,.18-.21c0-1.94,0-3.88,0-5.82a3,3,0,1,1,6.07,0c.06,1.94,0,3.88,0,5.82a.18.18,0,0,1,.12.19l2,.17,1.64-.08,1.11-.1.29-.57c.29-5.13-.69-9.9-4.07-14l-4.95-3.69-4.1-1.37h-27a10.33,10.33,0,0,1-1.51.71c-6.13,1.75-11.36,8.48-11.23,16.12C205.64,289.9,205.45,305.52,205.44,321.15Z"/><path class="cls-6" d="M163.8,204.13l-4.23-.25c-.91,0-1.82.06-2.72.07-5.82.06-11.63-.2-17.44.13a4.75,4.75,0,0,1-.69,1,4.23,4.23,0,0,0-1.13,5.11c.72,1.9,2.4,2.61,4.31,2.79.84.08,1.68.06,2.52.06l18.66.08a.39.39,0,0,0,.27-.13,9.9,9.9,0,0,0,4.26-2.44c0,3,.08,5.68,0,8.31-.07,1.92.72,2.57,2.61,2.55,7-.07,13.89,0,20.84,0,1,0,2.09-.41,3.12.06.48-4.29.11-8.6.19-12.9,0-1-.64-1.29-1.54-1.29-1.4,0-2.81,0-4.21,0-.7,0-1.24-.09-1.23-1,0-4.51,0-9,.08-13.55,0-.17.23-.33.35-.5h.42q13,.3,26.1,0h.41c1.23.31,3.15-.43,2.9,2-.07.71.78.63,1.33.63,3.93,0,7.86,0,11.79,0,1,0,1.37-.25,1.35-1.29-.06-2.85,0-5.71,0-8.56,0-1.3-.59-1.89-1.93-1.87-3.64,0-7.29,0-10.94,0-1,0-1.69.22-1.67,1.34s-.55,1.24-1.46,1.24q-13.58,0-27.15,0c-1.15,0-1.56-.34-1.61-1.54-.06-1.68.87-3.93-.48-4.89-1.12-.8-3.24-.26-4.92-.26-2.38,0-4.76.06-7.15.1q0,12.39,0,24.8c0,3.15,0,3.15-3.24,3.27-1.86.6-3.6.93-4.7-1.34a3.18,3.18,0,0,0-2.5-1.69Zm15.58-11.06c0-3.13.06-6.26,0-9.38-.06-1.84.34-2.87,2.52-2.79,3,.11,3.66.37,3.55,2.78-.29,6.46-.1,12.91-.12,19.37,0,2.3-1.46,2.12-3,2.11s-3,.23-3-2.09C179.44,199.74,179.38,196.4,179.38,193.07Zm6.28,26.28c-1.47,0-2.95,0-4.42,0-1.18,0-1.86-.45-1.85-1.7,0-2.23,0-4.45,0-6.68,0-1.13.6-1.63,1.71-1.63h9a1.62,1.62,0,0,1,1.84,1.79c0,2.09,0,4.18,0,6.26,0,1.43-.77,2-2.13,1.95S187.06,219.35,185.66,219.35Zm16.35-33h11.78c1,0,2.22-.5,2.2,1.28,0,1.48-.93,1.67-2.1,1.67H190.11c-1.1,0-2.25-.07-2.22-1.56s1.33-1.34,2.33-1.35C194.15,186.34,198.08,186.35,202,186.35ZM157.46,210.2v0h-6.07c-1.37,0-2.61-.26-2.69-1.92s1.2-2.16,2.64-2.22c2.16-.1,4.32-.2,6.49-.19a51.69,51.69,0,0,1,5.84.31,2.17,2.17,0,0,1,2.08,2.44c-.12,1.36-1.11,1.71-2.42,1.64C161.38,210.13,159.42,210.2,157.46,210.2Zm67.43-25.92h4.19c1.81,0,1.65,1.32,1.66,2.51s.08,2.47-1.7,2.47h-8.18c-2,0-1.88-1.4-1.93-2.76s.35-2.3,2-2.23C222.24,184.32,223.56,184.28,224.89,184.28Z"/><path class="cls-8" d="M308.67,358.85c-3.09.29-5.65,2-8.39,3.17-7.15,3.06-14.23,6.28-21.34,9.42-.48.21-1,.76-1.53.28s0-1,.26-1.5a9.73,9.73,0,0,0,1.3-4.91C273.52,374,265.1,376,256.05,376.82a99.32,99.32,0,0,0-21.46,3.95,32.33,32.33,0,0,1-14.1,1.55c-3-.38-6-.27-9-.43-6-.34-12.06-.38-18.08-.51q-11-.24-22.09-.42a3.51,3.51,0,0,0-2.16.27,121.88,121.88,0,0,0,16.71,2.59,303.41,303.41,0,0,0,35.92,1.28,63.06,63.06,0,0,0,12.31-1.36,175.18,175.18,0,0,1,22.46-3.17,1.06,1.06,0,0,1,.88.41c-3.7,1.6-7.39,3.21-11.1,4.79-11.94,5.07-24.14,9.43-36.44,13.57-13,4.38-25.77,3.84-38.79-.23-15.19-4.74-30.28-9.77-45.43-14.63a22.23,22.23,0,0,0-5.91-1.39c3.83,2,7.94,3.43,11.94,5.09,14.54,6,29,12.21,44.16,16.73A85.68,85.68,0,0,0,190.21,408c6.86.81,13-1.88,19.08-4.22,22.24-8.51,43.82-18.54,65.38-28.58,10.53-4.91,21-9.94,31.48-14.94A6.76,6.76,0,0,0,308.67,358.85Z"/><path class="cls-6" d="M159.48,315l3.28,2c0-4.8.09-9.6.11-14.4,0-20.37.1-40.75.07-61.13,0-1.7.54-2.18,2.16-2.07,1.82.12,3.65,0,5.47,0l34.07.09.75,0c0-.78,0-1.55,0-2.32-7.92,0-15.84,0-23.75.06-1.6,0-2.31-.53-2.27-2.17.07-2.92,0-5.84,0-8.76,0-1.37.49-2.05,2-2.05,7.35,0,14.71,0,22.07,0,1.49,0,2.4.62,2.55,2.15l3-.91c.05-3.32.05-3.32-3.22-3.32H194.14l-29.22-.05c-1.46.33-1.95-.24-1.89-1.71.09-2.19,0-4.39,0-6.59l-18.66,0c-2.62,0-2.85.26-2.83,2.87,0,.42,0,.84.06,1.25l6.62.09,8.52,0c2.9,0,2.91,0,2.91,2.88q0,14.3,0,28.6Q159.55,282.32,159.48,315Z"/><path class="cls-8" d="M297.68,317.58l1,15.77c.48.92.23,1.92.36,2.87a45.66,45.66,0,0,0,8.05-2.12c7.29-2.14,14.59-3,22-.74,2.23.67,4.19,1.9,6.38,2.59a5.92,5.92,0,0,0,2-2.12c1.92-2.71,1.61-5.05-1-7.11-4.11-3.22-9-4.39-14.06-5a16.41,16.41,0,0,1-4.8-1.33A34.51,34.51,0,0,0,297.68,317.58Z"/><path class="cls-6" d="M247,247.07a2.56,2.56,0,0,0,1.11-2.52q0-7.8,0-15.61c0-1.66-.64-2.8-2.42-3.1l-.51,0c-9.84-.07-19.68-.2-29.51.07-.38.79-1.18,1.51-.65,2.49a7.57,7.57,0,0,1,.57,3.87c0,2.71,0,5.42,0,8.13,0,1.5.15,3-.77,4.43-.67,1.05.16,1.85,1.28,2.06a12.69,12.69,0,0,0,2.31.08Zm-28.81-10.66c0-2,0-4,0-6,0-.83.08-1.87,1.17-1.9s1.22,1,1.23,1.83c0,4.09,0,8.18,0,12.28,0,.78-.14,1.65-1.16,1.66s-1.23-1-1.24-1.8C218.14,240.43,218.16,238.42,218.16,236.41Zm10.06.07h0c0-2.28,0-4.57,0-6.85,0-.65.24-1.3,1.07-1.25s.91.63.92,1.2q0,6.64,0,13.29c0,.66-.25,1.33-1,1.34-1,0-1-.82-1-1.5C228.21,240.63,228.22,238.56,228.22,236.48Zm-5-.09c0-2.15,0-4.3,0-6.45,0-.71.09-1.54,1-1.55s1,.82,1,1.52q0,6.36,0,12.71c0,.7-.08,1.54-1,1.55s-1-.82-1-1.53C223.18,240.56,223.2,238.48,223.19,236.39Zm16.8.08c0,2,0,4,0,6.05,0,.74,0,1.71-1.1,1.64-.91,0-.94-.92-.94-1.61q0-6.26,0-12.5c0-.75,0-1.71,1.11-1.65.92.06.92.93.93,1.62C240,232.17,240,234.32,240,236.47Zm5-.31c0,2.16,0,4.31,0,6.46,0,.71-.09,1.54-1,1.55s-1-.82-1-1.52q0-6.36,0-12.71c0-.7.09-1.54,1-1.55s1,.82,1,1.52C245,232,245,234.08,245,236.16Zm-11.76,0h0c0-2.08,0-4.16,0-6.24,0-.61,0-1.41.86-1.44s.82.79.83,1.38c0,4.3,0,8.6,0,12.91,0,.54,0,1.27-.67,1.35-.85.09-1-.67-1-1.29C233.25,240.6,233.27,238.37,233.27,236.15Z"/><path class="cls-9" d="M141.56,218.06c0-.41-.05-.83-.06-1.25,0-2.61.21-2.86,2.83-2.87l18.66,0,.09-.77-18.66-.08c-.84,0-1.68,0-2.52-.06-1.91-.18-3.59-.89-4.31-2.79a4.23,4.23,0,0,1,1.13-5.11,4.75,4.75,0,0,0,.69-1l-2.16-.23c-1.26,0-2.53,0-3.78.1a4.46,4.46,0,0,0-4.22,3.72,4.32,4.32,0,0,0,2.91,5c1.09.38,1.55.78,1.55,2q-.19,44.76-.3,89.52a9.06,9.06,0,0,0,3.31.9c0-.76.12-1.53.12-2.29,0-26.72-.08-53.43.39-80.15C137.31,218.25,137.25,218.25,141.56,218.06Z"/><path class="cls-9" d="M247,247.07l-28.59-.14a12.69,12.69,0,0,1-2.31-.08c-1.12-.21-1.95-1-1.28-2.06.92-1.44.76-2.93.77-4.43,0-2.71,0-5.42,0-8.13a7.57,7.57,0,0,0-.57-3.87c-.53-1,.27-1.7.65-2.49l-6.74-.27-3,.91a14.79,14.79,0,0,0-.47,2.44c-.08,2.77-.07,5.54-.1,8.32,0,.77,0,1.54,0,2.32.43,2.77-1.2,6,1.84,8.24-2.76,1.42-1.61,3.89-1.83,6a3,3,0,0,0,2.59,3.61l7.64-.14a10.56,10.56,0,0,1-1.28-5.42c0-2.74.55-3.3,3.31-3.3q12.74,0,25.46,0a7.15,7.15,0,0,0,3.3-.46C246.27,247.58,246.7,247.37,247,247.07Z"/><path class="cls-9" d="M249.24,258.82l4.95,3.69a120.78,120.78,0,0,1,6.75-10.3c1.42-2,2.45-4.39,4.65-5.82l.06-.79v-4.06l-.39-.89c-4.14-4.07-6.2-8.82-5.64-14.77.38-4.09,1.42-8,1.76-12.12a100.15,100.15,0,0,0-5.57,12.32,12.41,12.41,0,0,0,.93,10.29c.48.92,1,1.81,1.54,2.72a8.14,8.14,0,0,1-.81,9.72C254.76,252.17,252,255.48,249.24,258.82Z"/><path class="cls-10" d="M137.25,203.85l2.16.23c5.81-.33,11.62-.07,17.44-.13.9,0,1.81,0,2.72-.07,0-2.37,0-4.73.06-7.09,0-1.79-.7-2.76-2.58-2.76-5.67,0-11.34-.05-17-.06-1.86,0-2.84.8-2.78,2.79C137.33,199.12,137.26,201.48,137.25,203.85Z"/><path class="cls-6" d="M246.42,248.09a7.15,7.15,0,0,1-3.3.46q-12.72,0-25.46,0c-2.76,0-3.3.56-3.31,3.3a10.56,10.56,0,0,0,1.28,5.42l2.5.18h27a3,3,0,0,0,3-3.51c-.06-1.32.06-2.64-.08-3.94A1.9,1.9,0,0,0,246.42,248.09Zm-10.24,7.17H228.4c-1.15,0-2.25-.22-2-1.7.24-1.32-.52-3.32,2.06-3.3q7.78.06,15.56,0c1.9,0,1.85,1.23,1.87,2.55s-.09,2.51-1.94,2.47C241.36,255.21,238.77,255.25,236.18,255.26Z"/><path class="cls-9" d="M171.5,207.29c3.23-.12,3.23-.12,3.24-3.27q0-12.4,0-24.8c-3.27-.3-3.27-.3-3.27,2.86Q171.51,194.68,171.5,207.29Z"/><path class="cls-9" d="M164.92,222.22l29.22.05,0-.79c-1-.47-2.08,0-3.12-.06-6.95,0-13.89,0-20.84,0-1.89,0-2.68-.63-2.61-2.55.1-2.63,0-5.27,0-8.31a9.9,9.9,0,0,1-4.26,2.44c1.25-.11,1.21.71,1.25,1.6C164.71,217.15,164.22,219.71,164.92,222.22Z"/><path class="cls-8" d="M311.62,357.54a2.81,2.81,0,0,0-3,1.33A7.79,7.79,0,0,0,311.62,357.54Z"/><path class="cls-8" d="M119.79,383.1a1.91,1.91,0,0,0-1.41-.45A1.78,1.78,0,0,0,119.79,383.1Z"/><path class="cls-11" d="M214.73,192.24h0Z"/><path class="cls-9" d="M163.8,204.13l.5.13Z"/><path class="cls-11" d="M188.22,192.24h0Z"/><path class="cls-9" d="M245.16,225.8l.51,0Z"/><path class="cls-12" d="M141.56,218.06c-4.31.19-4.25.19-4.33,4.55-.47,26.72-.35,53.43-.39,80.15,0,.76-.08,1.53-.12,2.29l11.44,4.24q0-18.24.05-36.5,0-27.31,0-54.64Z"/><path class="cls-10" d="M204.64,239.56l-34.07-.09c-1.82,0-3.65.09-5.47,0-1.62-.11-2.16.37-2.16,2.07,0,20.38,0,40.76-.07,61.13,0,4.8-.07,9.6-.11,14.4a121.4,121.4,0,0,1,19.92,16.53,6.9,6.9,0,0,0,1.21.81c.77-2.88,0-5.71-.29-8.55l-1.24,0c-3,0-3,0-3-3q0-3.71-.05-7.41l-10.29-.09c-3.12,0-4.45-1.34-4.46-4.46q0-24.27,0-48.55c0-3.12,1.33-4.43,4.47-4.47l10.29-.09c0-3.55,0-7.09,0-10.64,0-1.3.48-1.9,1.85-1.89,5.25,0,10.51,0,15.77,0,1.23,0,1.78.54,1.77,1.76,0,2.23-.07,4.45,0,6.68.11,3-.4,6.1.3,9.13a16.84,16.84,0,0,1,5.37-3.86c0-4.21-.12-8.41-.08-12.62C204.42,244.09,204.07,241.81,204.64,239.56Z"/><path class="cls-13" d="M148.18,218.15q0,27.32,0,54.64,0,18.25-.05,36.5l8.05,3.91c-.26-19.38.5-38.75.42-58.13,0-12.3,0-24.6.07-36.9Z"/><path class="cls-12" d="M220.22,322.5c-10.68.82-21.35,1.68-32,2.43-1.89.13-2.15.95-2,2.54a83.35,83.35,0,0,1,.71,10.59c1.5,2.43,3.32,4.18,6.45,4.59,4.4.58,8.57,2.38,13,2.88l15.19-1.28Q220.9,333.38,220.22,322.5ZM192.28,333v-.05a7.57,7.57,0,0,0-1.26,0c-2.07.32-3-.62-3.1-2.61,0-.62-.07-1.25-.1-1.87a1.86,1.86,0,0,1,2-2.17c1.88-.13,3.77-.3,5.65-.44,6.91-.51,13.83-1,20.74-1.54,1.78-.14,2.7.4,2.75,2.2,0,.83,0,1.67,0,2.5.06,1.49-.7,2.17-2.15,2.21s-2.81.07-4.2.18C205.81,331.92,199.05,332.46,192.28,333Z"/><path class="cls-12" d="M156.7,218.17c0,12.3-.12,24.6-.07,36.9.08,19.38-.68,38.75-.42,58.13l3.27,1.8q0-32.67.11-65.35,0-14.31,0-28.6C159.61,218.12,159.6,218.12,156.7,218.17Z"/><path class="cls-9" d="M299,336.22c-.13-1,.12-2-.36-2.87a17.85,17.85,0,0,1-1.56,1.06,2.9,2.9,0,0,1-4.39-2.2c-.15-.95-.32-1.91-.49-2.86L275,330.54c.5,2,0,4.22.73,6.25,4.82-.33,9.64-.66,14.46-1,2.62-.17,2.7-.08,2.85,2.51A7.5,7.5,0,0,0,299,336.22Z"/><path class="cls-8" d="M269.43,343.08q-16,1.2-32.06,2.41c-7.12.54-14.24,1.12-21.36,1.68.65,1.06,1.72.91,2.64.72,2.65-.55,5.32-.14,7.95-.35,4.45-.34,8.88-.92,13.31-1.37a78.22,78.22,0,0,1,20.5.79c2.2.36,4.41.76,6.6,1.2a3.79,3.79,0,0,0,3.25-1.07C269.9,345.77,270.36,344.28,269.43,343.08Z"/><path class="cls-8" d="M293,338.34c-.15-2.59-.23-2.68-2.85-2.51-4.82.3-9.64.63-14.46,1,.09,1.5.17,3,.25,4.52.59,1.06,0,2.21.29,3.3A123.36,123.36,0,0,0,293,338.34Z"/><path class="cls-6" d="M250.29,364a11.73,11.73,0,0,0,1.11,5.69c1.08,2,2.41,2,3.71.14,3-4.34,1.77-8.66-1.2-12-1.3-1.46-2.15-1.24-2.79.65A21.07,21.07,0,0,0,250.29,364Z"/><path class="cls-9" d="M276.24,344.61c-.25-1.09.3-2.24-.29-3.3-1.7.61-3.28,1.74-5.27.6-1-.56-.42,1.19-1.25,1.17.93,1.2.47,2.69.83,4C272.48,346.81,274.63,346.33,276.24,344.61Z"/><path class="cls-14" d="M204.47,259a16.69,16.69,0,0,0-5.36,3.86c-2.15,3-3.81,6.13-3.8,9.94q0,24.57,0,49.14l10.11-.76c0-15.63.2-31.25-.05-46.87-.13-7.64,5.1-14.37,11.23-16.12a10.33,10.33,0,0,0,1.51-.71l-2.5-.18-7.64.14Z"/><path class="cls-15" d="M195.33,321.91q0-24.57,0-49.14c0-3.81,1.65-7,3.8-9.94-.71-3-.2-6.09-.31-9.13-.09-2.23,0-4.45,0-6.68,0-1.22-.54-1.77-1.77-1.76-5.26,0-10.52,0-15.77,0-1.37,0-1.86.59-1.85,1.89,0,3.55,0,7.09,0,10.64,3.5,0,7,0,10.51.07,3.06,0,4.51,1.44,4.51,4.5q0,24.28,0,48.57c0,3.07-1.43,4.42-4.52,4.46-3.5,0-7,0-10.51.06q0,3.71.05,7.41c0,3,0,3,3,3l1.24,0c.21-2.65.54-3,3.24-3.24S192.5,322.14,195.33,321.91Z"/><path class="cls-9" d="M230.07,343.42c7.9-.14,15.76-1.05,23.64-1.6,4.68-.33,9.35-.69,14-.92,1.54-.07,2.07-.47,1.86-2.1-.33-2.54-.37-5.12-.54-7.68-7,.48-13.94.92-20.9,1.45-6.2.46-12.39,1-18.58,1.52Q229.82,338.76,230.07,343.42Z"/><path class="cls-13" d="M277.87,321.29l1.73-.06q0-22.23,0-44.48l-.06-.19-13.94.12.05,40c1.5.15,2.22-.49,2.1-2a4.28,4.28,0,0,1,0-.62c0-4.88.94-5.54,5.46-4l0-8.34V283.73c0-1.42.46-2.52,2.11-2.51a2.3,2.3,0,0,1,2.44,2.34,13.15,13.15,0,0,1,.05,1.66Q277.88,303.25,277.87,321.29Z"/><path class="cls-12" d="M265.69,316.64l-.05-40v-.07c-2.47,0-4.94.83-7.39-.11-.1.19-.19.38-.28.57l-.08.09a3.73,3.73,0,0,1,.31,2.23q0,18.42-.08,36.83l.42.87A41.58,41.58,0,0,0,265.69,316.64Z"/><path class="cls-11" d="M265.64,276.68l13.94-.12a17.64,17.64,0,0,1,0-2.91c1.19-7.06-2.29-12.25-6.86-17a30,30,0,0,1-7.1-11l-.06.79.06,30.22Z"/><path class="cls-11" d="M277.87,321.29q0-18,0-36.07a13.15,13.15,0,0,0-.05-1.66,2.3,2.3,0,0,0-2.44-2.34c-1.65,0-2.1,1.09-2.11,2.51v17.92l0,8.34a68.79,68.79,0,0,1,.94,8.85C274.22,321.45,275.25,322,277.87,321.29Z"/><path class="cls-15" d="M230.07,343.42q-.25-4.67-.49-9.33a5.15,5.15,0,0,1-.43-2.79,42.06,42.06,0,0,1-.45-6.24c-.12-1-.23-2.08-.35-3.12l-2.61.16c-.26.82.3,1.86-.64,2.49-1.27.85-2.12.1-2.39-2.08h-2.49q.67,10.88,1.36,21.75l2.72-.1a14.21,14.21,0,0,0,.12-1.44c0-.89.42-1.23,1.27-1.27s1.19.21,1.3,1a14.24,14.24,0,0,0,.31,1.41A5.49,5.49,0,0,0,230.07,343.42Z"/><path class="cls-9" d="M228.35,321.94c.12,1,.23,2.08.35,3.12L256.92,323c2.72-.2,5.44-.34,8.16-.51.49,0,1,0,1.47-.08a1.59,1.59,0,0,0,1.64-1.76c0-1.22-.76-1.55-1.8-1.5-2.51.14-5,.26-7.53.44l-29.69,2.18A7.45,7.45,0,0,0,228.35,321.94Z"/><path class="cls-11" d="M229.15,331.3a5.15,5.15,0,0,0,.43,2.79c6.19-.51,12.38-1.06,18.58-1.52,7-.53,13.93-1,20.9-1.45.17-1.86-.8-2.49-2.53-2.37-4.73.33-9.47.62-14.2,1s-9.74.78-14.61,1.12A72.16,72.16,0,0,1,229.15,331.3Z"/><path class="cls-12" d="M279.64,276.75q0,22.25,0,44.48a1.48,1.48,0,0,0,1.85-1.48c.08-.89.18-1.79.18-2.69q0-17.52,0-35c0-1.32-.19-2.63-.29-4A1.3,1.3,0,0,0,279.64,276.75Z"/><path class="cls-11" d="M265.26,240.65l.39.89a63.57,63.57,0,0,1,3.87-8.28,6,6,0,0,0,.66-3.86c-.2-1.1-.17-1.85,1.11-2.25.84-.26.78-1.1.52-1.78-1.07-2.79-2.16-5.58-3.3-8.35-.28-.69-.7-1.56-1.68-1.14s-.51,1.29-.32,2c.37,1.48,1.31,2.79,1.29,4.39l.13.25-.14-.25c-.89-.55-1.07-1.57-1.55-2.55-.78.74-.53,1.54-.54,2.24,0,5.35,0,10.7,0,16.05A4.43,4.43,0,0,1,265.26,240.65Z"/><path class="cls-11" d="M292.81,316.65c.24,3.73.46,7.45.72,11.17.08,1.05.54,2,1.73,2s1.57-1,1.59-2A93,93,0,0,0,296,316a1.43,1.43,0,0,0-1.79-1.32C293.07,314.85,292.7,315.64,292.81,316.65Z"/><path class="cls-11" d="M269,314.42c.29,3.09.59,6.27.9,9.45.1,1.08.57,1.94,1.81,1.85a1.64,1.64,0,0,0,1.5-1.94c-.25-3.81-.56-7.61-.9-11.41a1.51,1.51,0,0,0-1.53-1.45,1.6,1.6,0,0,0-1.68,1.54C269,313.07,269.06,313.71,269,314.42Z"/><path class="cls-11" d="M275,330.54l17.23-1.19c.23-1.77-.14-2.64-2.35-2.36-4.07.5-8.19.75-12.3.87C275.55,327.92,274.67,328.55,275,330.54Z"/><path class="cls-13" d="M246.76,316.21c-.07.66-.13,1.33-.2,2,2.14-.54,4.43.16,6.52-.79,0-.36,0-.72.07-1.08l-6.12-.26A.35.35,0,0,0,246.76,316.21Z"/><path class="cls-9" d="M222.71,322.51c.27,2.18,1.12,2.93,2.39,2.08.94-.63.38-1.67.64-2.49A8.88,8.88,0,0,0,222.71,322.51Z"/><path class="cls-9" d="M227.3,343.85a14.24,14.24,0,0,1-.31-1.41c-.11-.79-.57-1-1.3-1s-1.29.38-1.27,1.27a14.21,14.21,0,0,1-.12,1.44Z"/><path class="cls-7" d="M253.15,316.34c0,.36-.05.72-.07,1.08,1.83,0,3.68.3,5.47-.33l-.42-.87-2.78-.1h0l-1.63,0Z"/><path class="cls-11" d="M272,230.1c.47,0,.85-.17.9-.66s-.29-.73-.74-.77a.7.7,0,0,0-.86.64C271.29,229.8,271.6,230,272,230.1Z"/><path class="cls-16" d="M246.76,316.21a.35.35,0,0,1,.27-.13,3.49,3.49,0,0,0,.16-.82c-.12-12.72.43-25.44-.32-38.15-6.23.05-12.46-.24-18.69.15V316Z"/><path class="cls-17" d="M228.18,316V277.26c-4.26-.4-8.52,0-12.77.1-2.26,0-4.36,2.37-4.38,4.87q-.12,14.37,0,28.75c0,2.43,1.6,4.07,4.14,4.87a.32.32,0,0,1,.35,0A105,105,0,0,0,228.18,316Z"/><path class="cls-6" d="M246.87,277.11c.75,12.71.2,25.43.32,38.15a3.49,3.49,0,0,1-.16.82l6.12.26.57-.19c-.92-.72-.73-1.74-.73-2.69q0-17.18,0-34.33a14.58,14.58,0,0,1,.27-2.05.21.21,0,0,0-.13-.19h-6.09A.22.22,0,0,0,246.87,277.11Z"/><path class="cls-6" d="M265.65,276.61l-.06-30.22c-2.2,1.43-3.23,3.79-4.65,5.82a120.78,120.78,0,0,0-6.75,10.3c3.38,4.09,4.36,8.86,4.07,14C260.71,277.44,263.18,276.63,265.65,276.61Z"/><path class="cls-17" d="M255.34,316.12l2.79.1q0-18.41.08-36.83a3.8,3.8,0,0,0-.3-2.23h-1.05l-1.64.08q0,19.33,0,38.67A.25.25,0,0,1,255.34,316.12Z"/><path class="cls-16" d="M255.21,315.92q0-19.34,0-38.67l-2-.17a16.19,16.19,0,0,0-.26,2.05q0,17.16,0,34.33c0,1-.19,2,.73,2.69l1.62,0A.67.67,0,0,1,255.21,315.92Z"/><path class="cls-13" d="M247.05,276.9h6.09c0-1.94.06-3.88,0-5.82a3,3,0,1,0-6.07,0C247,273,247.06,275,247.05,276.9Z"/><path class="cls-6" d="M256.86,277.17h1.05l.07-.09Z"/><path class="cls-5" d="M215.51,315.9a.32.32,0,0,0-.35,0l.17.09Z"/><path class="cls-11" d="M179.38,193.07c0,3.33.06,6.67,0,10-.07,2.32,1.48,2.09,3,2.09s3,.19,3-2.11c0-6.46-.17-12.91.12-19.37.11-2.41-.55-2.67-3.55-2.78-2.18-.08-2.58.95-2.52,2.79C179.44,186.81,179.38,189.94,179.38,193.07Z"/><path class="cls-11" d="M185.66,219.35c1.4,0,2.8,0,4.2,0s2.14-.52,2.13-1.95c0-2.08,0-4.17,0-6.26a1.62,1.62,0,0,0-1.84-1.79h-9c-1.11,0-1.71.5-1.71,1.63,0,2.23,0,4.45,0,6.68,0,1.25.67,1.72,1.85,1.7C182.71,219.33,184.19,219.35,185.66,219.35Z"/><path class="cls-11" d="M202,186.35c-3.93,0-7.86,0-11.79,0-1,0-2.3-.25-2.33,1.35s1.12,1.56,2.22,1.56h23.78c1.17,0,2.09-.19,2.1-1.67,0-1.78-1.2-1.28-2.2-1.28H202Z"/><path class="cls-11" d="M157.46,210.2c2,0,3.92-.07,5.87,0,1.31.07,2.3-.28,2.42-1.64a2.17,2.17,0,0,0-2.08-2.44,51.69,51.69,0,0,0-5.84-.31c-2.17,0-4.33.09-6.49.19-1.44.06-2.73.42-2.64,2.22s1.32,1.93,2.69,1.92h6.07Z"/><path class="cls-11" d="M224.89,184.28c-1.33,0-2.65,0-4,0-1.63-.07-2,.83-2,2.23s-.05,2.76,1.93,2.76H229c1.78,0,1.71-1.26,1.7-2.47s.15-2.49-1.66-2.51h-4.19Z"/><path class="cls-18" d="M164.92,222.22c-.7-2.51-.21-5.07-.32-7.6,0-.89,0-1.71-1.25-1.6a.39.39,0,0,1-.27.13l-.09.77c0,2.2.13,4.4,0,6.59C163,222,163.46,222.55,164.92,222.22Z"/><path class="cls-11" d="M205.38,237.27c0-2.78,0-5.55.1-8.32a14.79,14.79,0,0,1,.47-2.44c-.15-1.53-1.06-2.15-2.55-2.15-7.36,0-14.72,0-22.07,0-1.47,0-2,.68-2,2.05,0,2.92.06,5.84,0,8.76,0,1.64.67,2.19,2.27,2.17C189.54,237.28,197.46,237.28,205.38,237.27Z"/><path class="cls-18" d="M204.47,259l3.52-1.56a3,3,0,0,1-2.59-3.61c.22-2.08-.93-4.55,1.83-6-3-2.28-1.41-5.47-1.84-8.24l-.75,0c-.57,2.25-.22,4.53-.25,6.79C204.35,250.56,204.43,254.76,204.47,259Z"/><path class="cls-9" d="M218.16,236.41c0,2,0,4,0,6,0,.85.08,1.81,1.24,1.8s1.16-.88,1.16-1.66c0-4.1,0-8.19,0-12.28,0-.84-.12-1.87-1.23-1.83s-1.15,1.07-1.17,1.9C218.14,232.38,218.16,234.4,218.16,236.41Z"/><path class="cls-9" d="M228.22,236.48c0,2.08,0,4.15,0,6.23,0,.68,0,1.52,1,1.5.77,0,1-.68,1-1.34q0-6.65,0-13.29c0-.57-.22-1.15-.92-1.2s-1.06.6-1.07,1.25c0,2.28,0,4.57,0,6.85Z"/><path class="cls-9" d="M223.19,236.39c0,2.09,0,4.17,0,6.25,0,.71.11,1.54,1,1.53s1-.85,1-1.55q0-6.36,0-12.71c0-.7-.11-1.54-1-1.52s-1,.84-1,1.55C223.18,232.09,223.19,234.24,223.19,236.39Z"/><path class="cls-9" d="M240,236.47c0-2.15,0-4.3,0-6.45,0-.69,0-1.56-.93-1.62-1.1-.06-1.11.9-1.11,1.65q0,6.24,0,12.5c0,.69,0,1.56.94,1.61,1.1.07,1.09-.9,1.1-1.64C240,240.5,240,238.49,240,236.47Z"/><path class="cls-9" d="M245,236.16c0-2.08,0-4.17,0-6.25,0-.7-.1-1.54-1-1.52s-1,.85-1,1.55q0,6.36,0,12.71c0,.7.09,1.54,1,1.52s1-.84,1-1.55C245,240.47,245,238.32,245,236.16Z"/><path class="cls-9" d="M233.27,236.15c0,2.22,0,4.45,0,6.67,0,.62.15,1.38,1,1.29.69-.08.67-.81.67-1.35,0-4.31,0-8.61,0-12.91,0-.59.09-1.43-.83-1.38s-.85.83-.86,1.44c0,2.08,0,4.16,0,6.24Z"/><path class="cls-11" d="M236.18,255.26c2.59,0,5.18,0,7.78,0,1.85,0,2-1.1,1.94-2.47s0-2.56-1.87-2.55q-7.78.06-15.56,0c-2.58,0-1.82,2-2.06,3.3-.26,1.48.84,1.7,2,1.7Z"/><path class="cls-6" d="M179.35,315.44c3.5,0,7,0,10.51-.06,3.09,0,4.52-1.39,4.52-4.46q0-24.29,0-48.57c0-3.06-1.45-4.46-4.51-4.5-3.5-.05-7-.05-10.51-.07l-10.29.09c-3.14,0-4.47,1.35-4.47,4.47q0,24.27,0,48.55c0,3.12,1.34,4.43,4.46,4.46Z"/><path class="cls-13" d="M192.28,333c6.77-.53,13.53-1.07,20.31-1.58,1.39-.11,2.8-.13,4.2-.18s2.21-.72,2.15-2.21c0-.83,0-1.67,0-2.5,0-1.8-1-2.34-2.75-2.2-6.91.58-13.83,1-20.74,1.54-1.88.14-3.77.31-5.65.44a1.86,1.86,0,0,0-2,2.17c0,.62.08,1.25.1,1.87.08,2,1,2.93,3.1,2.61a7.57,7.57,0,0,1,1.26,0Z"/><path class="cls-6" d="M267.79,222.28l.14.25-.13-.25Z"/><path class="cls-6" d="M255.21,315.92a.67.67,0,0,0,.13.21h0A.29.29,0,0,0,255.21,315.92Z"/></g></g></svg>