<svg xmlns="http://www.w3.org/2000/svg" viewBox="0 0 373.39 199.17"><defs><style>.cls-1{fill:#d1f4e4;}.cls-2{fill:#c2d4d0;}.cls-3{fill:#2b2f4a;}.cls-4{fill:#2b2e41;}.cls-5{fill:#cc6b7e;}.cls-6{fill:#fdfcfc;}.cls-7{fill:#ececec;}.cls-8{fill:#fcfcfc;}.cls-9{fill:#b2b3b3;}.cls-10{fill:#354860;}.cls-11{fill:#2c3d52;}.cls-12{fill:#2c384c;}.cls-13{fill:#95b1b2;}.cls-14{fill:#16212f;}.cls-15{fill:#d9d9d9;}.cls-16{fill:#e20914;}.cls-17{fill:#04968b;}.cls-18{fill:#fefdfd;}.cls-19{fill:#35475f;}</style></defs><title>P1E3</title><g id="Layer_2" data-name="Layer 2"><g id="Layer_1-2" data-name="Layer 1"><path class="cls-1" d="M12.63,40.51s-8.31,8.3-8.31,14.54,47.77,45.69,47.77,45.69L50,104.9,2.24,63.35S-4,57.12,4.32,44.66s6.23-8.31,6.23-8.31l4.16,2.08Z"/><path class="cls-2" d="M45.86,19.73S64.56,7.27,70.79,28,87.4,75.82,87.4,75.82h6.24L70.79,17.66S68.71,7.27,45.86,13.5Z"/><path class="cls-3" d="M12.83,23.09,23.21,35.55s-4.15,6.23-8.31,4.16a15.55,15.55,0,0,1-6.23-6.24L6.59,31.4s-2.07,0,0-2.08Z"/><path class="cls-3" d="M32.25,12.5s6.23,16.62,8.3,16.62,6.24-4.15,6.24-8.31S42.63,6.27,32.25,12.5Z"/><path class="cls-4" d="M54.17,107l-3.07-1.91,1-2.24h6.23S68.71,119.44,81.17,107,91.56,86.2,89.48,80s4.16-2.08,4.16-2.08,8.3,16.62,0,24.93c-4.68,4.68-8,8-11.57,10.45a27.25,27.25,0,0,1-9.21,4.09c-8.3,2.08-18.69-8.31-18.69-8.31Z"/><path class="cls-5" d="M89.48,111.13S104,136.05,87.4,150.59c-10.9,9.54-14.54,14.15-22.84,16.62-4.35,1.29-9.41,4.93-18.7,2.08C18.86,161,20.94,129.82,23,129.82l4.16,2.08s2.08,37.39,27,29.08,41.54-18.7,35.31-33.24-6-15.2-6-15.2l4.24-4Z"/><path class="cls-4" d="M23,129.82s8.31,8.31,12.47,0-6.23-10.38-6.23-10.38S20.94,123.59,23,129.82Z"/><polygon class="cls-6" points="29.25 123.59 27.17 125.67 27.17 127.74 29.25 129.82 31.32 129.82 33.4 127.74 33.4 125.67 31.32 123.59 29.25 123.59 29.25 123.59"/><path class="cls-7" d="M144.54,194.25l-.36-.16c0-1.77.38-3.5.38-5.28q0-71.34,0-142.67a27.15,27.15,0,0,0-.17-4.59,3.34,3.34,0,0,1,.89-2.76c1.61-1.88,3.71-2.3,6-2.3H368.92c1,0,2-.1,3-.16h0c-.05.16-.1.31-.16.47-.47.39-.29,1-.4,1.46-2.05.69-3.55,2.26-5.29,3.44q-13,8.84-25.91,17.75-11.49,7.92-22.94,15.87L294.45,91.08c-.18-.23-.37-.45-.53-.69C283.06,74,267.84,66.76,248.34,69.52,224,73,206.88,97.72,211.7,121.8a48.6,48.6,0,0,0,9.08,19.93c-2.79,2-5.54,4-8.35,5.93Q198.9,157,185.35,166.2q-9.69,6.65-19.38,13.28c-6.06,4.17-12.09,8.39-18.14,12.57a1.59,1.59,0,0,0-.82,1.08C146.21,193.55,144.7,192.43,144.54,194.25Z"/><path class="cls-8" d="M371.91,36.33c-1,.06-2,.16-3,.16H151.29c-2.34,0-4.44.42-6,2.3a3.34,3.34,0,0,0-.89,2.76,27.15,27.15,0,0,1,.17,4.59q0,71.34,0,142.67c0,1.78-.38,3.51-.38,5.28a4.59,4.59,0,0,1-2.64-4.27c0-.83,0-1.65,0-2.48V40.72c0-3.58,1.08-5.06,4.43-6.07l.4-.06L158,34.41l22,0,23.71.09a9.61,9.61,0,0,0,4,0l5.62-.09h8.16l.68.06a7,7,0,0,0,3.61,0c.59,0,1.18,0,1.76,0h56.65c1.65,0,3.3,0,4.95-.06a6.32,6.32,0,0,0,3.63,0l14.49,0a.33.33,0,0,0,.29.12,8.66,8.66,0,0,0,3.62,0l21.93,0a.26.26,0,0,0,.43,0l1.27-.13h22.1l10.25.11A5.86,5.86,0,0,1,371.91,36.33Z"/><path class="cls-9" d="M144.54,194.25c.16-1.82,1.67-.7,2.47-1.12.53,0,1.06.06,1.59.06H365.5c4.15,0,5.91-1.78,5.91-5.91V43.22c0-1.66,0-3.31,0-5,.11-.5-.07-1.07.4-1.46l.39-.24c1.17,1.14,1.22,2.61,1.22,4.1v31q0,58.6,0,117.22c0,3.92-2.07,6-6,6.06L349,195H323.16c-.65,0-1.3-.08-2-.08H193.8c-.7,0-1.41,0-2.12.06H165.83l-18.29-.07A4.3,4.3,0,0,1,144.54,194.25Z"/><path class="cls-10" d="M209.15,30.9A39.34,39.34,0,0,1,212.43,18C217,8.4,224.63,2.9,234.84.77A36.79,36.79,0,0,1,242.4,0c10.08,0,20.17-.06,30.26,0,9.34.07,17.67,2.9,24.26,9.76a31.57,31.57,0,0,1,8.57,19.36c.06.58.18,1.15.27,1.73-.05.77-.1,1.53-.14,2.29-.51.6-1.66-.33-1.94.81h-1c-.7-2.22-.3-4.55-.67-6.83A28.07,28.07,0,0,0,289.43,7.48,28.91,28.91,0,0,0,273,2.8c-10.33.06-20.66,0-31,.05a30.87,30.87,0,0,0-10.56,1.74C220.82,8.49,215,16.27,212.89,27.16c-.44,2.28.11,4.61-.66,6.83h-1l-.36-.47-.37.46h-.69l-.51-.83Z"/><path class="cls-10" d="M191.13,196.79a3.14,3.14,0,0,1-3.34,2.35q-9,.06-18,0a3.13,3.13,0,0,1-3.32-2.36Z"/><path class="cls-10" d="M348.41,196.74a2.81,2.81,0,0,1-3.07,2.37c-6.15.07-12.29.06-18.43,0a3.16,3.16,0,0,1-3.08-2,4,4,0,0,1,2.05-.4Z"/><path class="cls-11" d="M334.85,34a1.82,1.82,0,0,1,1.67-2.08,49.34,49.34,0,0,1,11.31-.8,3.57,3.57,0,0,1,2.34.57,1.5,1.5,0,0,0,1.84.06c1.75-1.58,2.86.36,4.23.71.53.13.68.91.58,1.54Z"/><path class="cls-11" d="M158,34c.33-2,2.83-3.4,4.49-2.41a2.41,2.41,0,0,0,2,.2,20.45,20.45,0,0,1,11.32,0,7.23,7.23,0,0,0,1.92.17c1.45,0,2.24.56,2.17,2.09Z"/><path class="cls-12" d="M348.41,196.74l-22.53,0a4,4,0,0,0-2.05.4,3.59,3.59,0,0,1-.67-2.1H349A2.36,2.36,0,0,1,348.41,196.74Z"/><path class="cls-12" d="M191.13,196.79l-24.71,0a4.13,4.13,0,0,1-.59-1.77h25.85A2.32,2.32,0,0,1,191.13,196.79Z"/><path class="cls-13" d="M209.15,30.9c0,.76.08,1.51.11,2.27-.55.48-1.83-.67-1.9.86l.33.45a9.61,9.61,0,0,1-4,0C204.67,31.57,205.73,30.87,209.15,30.9Z"/><path class="cls-13" d="M305.62,33.18c0-.76.09-1.52.14-2.29,3.44,0,4.35.59,5.39,3.59a8.66,8.66,0,0,1-3.62,0C308,32.49,306.26,33.6,305.62,33.18Z"/><path class="cls-14" d="M158,34H180l.06.38-22,0Z"/><path class="cls-14" d="M334.85,34h22l.06.4h-22.1C334.8,34.26,334.83,34.13,334.85,34Z"/><path class="cls-13" d="M146.36,34.59l-.4.06Z"/><path class="cls-13" d="M333.51,34.52a.26.26,0,0,1-.43,0Z"/><path class="cls-8" d="M372.16,36.56l-.39.24c.06-.16.11-.31.16-.47A.51.51,0,0,1,372.16,36.56Z"/><path class="cls-15" d="M371.37,38.26c0,1.65,0,3.3,0,5V187.28c0,4.13-1.76,5.91-5.91,5.91H148.6c-.53,0-1.06,0-1.59-.06a1.59,1.59,0,0,1,.82-1.08c6-4.18,12.08-8.4,18.14-12.57q9.67-6.66,19.38-13.28,13.54-9.27,27.08-18.54c2.81-1.93,5.56-3.95,8.35-5.93.17.15.36.29.52.46,11.13,12.75,25.09,18,41.82,15.53,22.2-3.28,38.94-24.58,37.21-47a49.56,49.56,0,0,0-5.88-19.68l22.78-15.76q11.46-7.93,22.94-15.87,12.93-8.89,25.91-17.75C367.82,40.52,369.32,39,371.37,38.26Z"/><path class="cls-16" d="M294.45,91.08a49.56,49.56,0,0,1,5.88,19.68c1.73,22.38-15,43.68-37.21,47-16.73,2.47-30.69-2.78-41.82-15.53-.16-.17-.35-.31-.52-.46a48.6,48.6,0,0,1-9.08-19.93C206.88,97.72,224,73,248.34,69.52c19.5-2.76,34.72,4.45,45.58,20.87C294.08,90.63,294.27,90.85,294.45,91.08Zm-38.88,53.51c3.13,0,6.27-.08,9.39,0,1.4.05,1.64-.42,1.63-1.7-.07-5.43,0-10.87-.07-16.3,0-1.64.3-2.22,2.09-2.18,5.49.13,11,0,16.47.07,1.2,0,1.62-.25,1.6-1.54q-.1-9.39,0-18.78c0-1.14-.27-1.5-1.46-1.48-5.67.06-11.34,0-17,0-1.32,0-1.7-.31-1.68-1.65.08-5.67,0-11.34.05-17,0-1.13-.27-1.51-1.46-1.5q-9.39.09-18.79,0c-1.27,0-1.55.39-1.54,1.59.06,5.67,0,11.34.06,17,0,1.26-.36,1.57-1.59,1.56-5.61-.07-11.22,0-16.83-.06-1.24,0-1.76.18-1.74,1.61.09,6.2.07,12.4,0,18.61,0,1.21.3,1.61,1.57,1.59,5.67-.07,11.34,0,17-.06,1.25,0,1.58.36,1.57,1.59-.07,5.73,0,11.46-.06,17.19,0,1.08.29,1.41,1.39,1.38C249.31,144.55,252.44,144.6,255.57,144.59Z"/><path class="cls-12" d="M212.23,34c.77-2.22.22-4.55.66-6.83C215,16.27,220.82,8.49,231.46,4.59A30.87,30.87,0,0,1,242,2.85c10.33-.09,20.66,0,31-.05a28.91,28.91,0,0,1,16.42,4.68A28.07,28.07,0,0,1,302,27.16c.37,2.28,0,4.61.67,6.83H297a6.83,6.83,0,0,0,.16-3.12c-.21-1.46-.59-2.89-.8-4.33a17.63,17.63,0,0,0-4.82-9.45C287,12.17,281.07,10,274.53,10c-11.51-.14-23-.09-34.55,0a23.73,23.73,0,0,0-10.71,2.69A20.39,20.39,0,0,0,218.86,25a21,21,0,0,0-.93,9c-1.3.22-2.68-.33-3.92.4h-.7A1.47,1.47,0,0,0,212.23,34Z"/><path class="cls-17" d="M289.12,34.43c-1.65,0-3.3.06-4.95.06H227.52c-.58,0-1.17,0-1.76,0,0-.17,0-.33.05-.49,6.42,0,12.84,0,19.26,0l44,0Z"/><path class="cls-13" d="M225.81,34c0,.16,0,.32-.05.49a7,7,0,0,1-3.61,0c.52-1.11-.16-1.21-1-1.18l0-2.4C224,31,225,31.66,225.81,34Z"/><path class="cls-13" d="M289.12,34.43c0-.15,0-.31,0-.46.66-2.23,1.7-2.94,4.59-3.11,0,.81,0,1.61.05,2.42-.44.11-1.29-.34-1,.74l.05.41A6.32,6.32,0,0,1,289.12,34.43Z"/><path class="cls-14" d="M292.75,34.43,292.7,34l2.85,0h8.13c1.18.21,2.44-.32,3.56.39Z"/><path class="cls-14" d="M214,34.39c1.24-.73,2.62-.18,3.92-.4a3.2,3.2,0,0,0,2.41-.58c.12.62.82.57,1.13,1Z"/><path class="cls-12" d="M307.24,34.38c-1.12-.71-2.38-.18-3.56-.39.28-1.14,1.43-.21,1.94-.81.64.42,2.35-.69,1.91,1.32A.33.33,0,0,1,307.24,34.38Z"/><path class="cls-14" d="M212.23,34a1.47,1.47,0,0,1,1.08.4l-5.62.09-.34-.45,2.42,0h2.46Z"/><path class="cls-12" d="M221.47,34.39c-.31-.41-1-.36-1.13-1l.81-.14c.84,0,1.52.07,1,1.18Z"/><path class="cls-12" d="M209.77,34l-2.42,0c.08-1.53,1.36-.38,1.91-.86Z"/><path class="cls-12" d="M211.19,34h-.73c.12-.16.24-.31.37-.46Z"/><path class="cls-18" d="M255.57,144.6c-3.13,0-6.26,0-9.39,0-1.1,0-1.4-.3-1.39-1.38.05-5.73,0-11.46.06-17.19,0-1.23-.32-1.6-1.57-1.59-5.67.07-11.34,0-17,.06-1.27,0-1.58-.38-1.57-1.59.06-6.21.08-12.41,0-18.61,0-1.43.5-1.62,1.74-1.61,5.61.06,11.22,0,16.83.06,1.23,0,1.6-.3,1.59-1.56-.07-5.67,0-11.34-.06-17,0-1.2.27-1.61,1.54-1.59q9.39.09,18.79,0c1.19,0,1.48.37,1.46,1.5-.05,5.67,0,11.34-.05,17,0,1.34.36,1.67,1.68,1.65,5.67-.07,11.34,0,17,0,1.19,0,1.47.34,1.46,1.48q-.09,9.39,0,18.78c0,1.29-.4,1.55-1.6,1.54-5.49-.06-11,.06-16.47-.07-1.79,0-2.12.54-2.09,2.18.1,5.43,0,10.87.07,16.3,0,1.28-.23,1.75-1.63,1.7C261.84,144.51,258.7,144.59,255.57,144.6Z"/><path class="cls-19" d="M221.15,33.27l-.81.14a3.2,3.2,0,0,1-2.41.58,21,21,0,0,1,.93-9,20.39,20.39,0,0,1,10.41-12.38A23.73,23.73,0,0,1,240,9.93c11.52-.07,23-.12,34.55,0,6.54.08,12.43,2.22,17,7.14a17.63,17.63,0,0,1,4.82,9.45c.21,1.44.59,2.87.8,4.33A6.83,6.83,0,0,1,297,34h-1.4c-.31-1-1.28-.34-1.83-.72,0-.81,0-1.61-.05-2.42a18.57,18.57,0,0,0-4.79-12.23c-4.25-4.69-9.87-6.09-15.86-6.16-10.32-.12-20.65,0-31,0a26.86,26.86,0,0,0-7.51,1c-8.14,2.32-13,9-13.33,17.38Z"/><path class="cls-12" d="M293.72,33.28c.55.38,1.52-.29,1.83.72l-2.85,0C292.43,32.94,293.28,33.39,293.72,33.28Z"/></g></g></svg>