<svg xmlns="http://www.w3.org/2000/svg" viewBox="0 0 153 548.87"><defs><style>.cls-1{fill:#fbfdfc;}.cls-2{fill:#2c8dce;}.cls-3{font-size:27.62px;}.cls-3,.cls-6{fill:#fff;font-family:MyriadPro-Regular, Myriad Pro;}.cls-4{fill:#2b8dcc;}.cls-5{fill:#c2e4f7;}.cls-6{font-size:9px;}.cls-7{fill:#fc0101;}.cls-8{fill:#030303;}.cls-9{fill:#040404;}.cls-10{fill:#f7f6f6;}.cls-11{fill:#f82a29;}.cls-12{fill:#f4f1f1;}.cls-13{fill:#302e2e;}.cls-14{fill:#101010;}.cls-15{fill:#080808;}.cls-16{fill:#f9f9f9;}.cls-17{fill:#f00405;}.cls-18{fill:#fdfdfd;}.cls-19{fill:#514b59;}.cls-20{fill:#48a4c1;}</style></defs><title>p1e4</title><g id="Layer_2" data-name="Layer 2"><g id="Layer_1-2" data-name="Layer 1"><path class="cls-1" d="M65.36,151V19s3-20,20-19,16,15,16,15V151s11,9,11,21,0,24-23,31-34-21-34-21S51.36,166,65.36,151Z"/><path class="cls-2" d="M76.36,157v-5h15v5l6,4,4,6,1,3,1,5v3l-2,5s-3,4-4,5-9,5-9,5-20,6-24-17A20.11,20.11,0,0,1,76.36,157Z"/><text class="cls-3" transform="translate(71.61 184.39) scale(0.83 1)">80</text><rect class="cls-2" x="76.36" y="135.04" width="15" height="15"/><rect class="cls-2" x="76.36" y="119.04" width="15" height="15"/><rect class="cls-2" x="76.36" y="102.04" width="15" height="15"/><rect class="cls-2" x="76.36" y="86.04" width="15" height="15"/><rect class="cls-2" x="76.36" y="69.04" width="15" height="15"/><rect class="cls-4" x="76.36" y="52.04" width="15" height="15"/><rect class="cls-5" x="76.36" y="35.04" width="15" height="15"/><rect class="cls-5" x="76.36" y="19.04" width="15" height="15"/><text class="cls-6" transform="translate(95.01 170.43) scale(0.83 1)">o</text><path class="cls-7" d="M127,310.17a63.49,63.49,0,1,1-63.41-63.42A63.46,63.46,0,0,1,127,310.17Zm-43,8.07c0,.09,0,.13.13.12l0,0a.9.9,0,0,0,.44.42c0,.07,0,.1.1.11V319h.08c0,.07,0,.1.1.1l.22.22a.12.12,0,0,0,.11.11.08.08,0,0,0,.09.09v0h0l.29.29a.71.71,0,0,0,.1.14l18.07,18c.43.43.55.2.78-.15,9.37-14.62,11.2-30.14,4.73-46.25-8.08-20.09-27.55-32.1-49.2-30.78a48.42,48.42,0,0,0-24,8.12c-1,.68-1,.69-.16,1.55l22.07,22c2,2,4,3.93,6,5.89a5.77,5.77,0,0,0,1.36,1.34,48.23,48.23,0,0,0,3.71,3.72,40.64,40.64,0,0,0,3.22,3.21.33.33,0,0,0,0,.14,1.93,1.93,0,0,0,.37,2.28,1.81,1.81,0,0,0,2.2.3h.15l1.32,1.42c-.78,1.16-.42,2.47-.47,3.72,0,.34.23.49.57.51a.54.54,0,0,0,.65-.48,6.86,6.86,0,0,0,.1-2c0-.29,0-.5.26-.62a4.56,4.56,0,0,1,1,1l0,1.19c0,.47.11.92.61,1s.69-.38.78-.82l1.81,1.64,0,0,.2.21a.09.09,0,0,0,.09.1l.1.1a.09.09,0,0,0,.1.09l.21.2h0l.25.24,0,0c0,.1,0,.15.14.14l0,0,.28.26.25.27.1.1a.1.1,0,0,0,.11.09l.2.2,0,0,.25.25Zm-30-8a3.2,3.2,0,0,0-.88-.88c0-.06-.09-.14-.15-.2Q38.69,295,24.48,280.81c-.48-.49-.65-.25-.92.14-8.71,12.26-11.59,25.76-8.3,40.43a47.86,47.86,0,0,0,16.93,27.21,49.49,49.49,0,0,0,60.61,1.56c.61-.44.69-.65.12-1.22q-10-9.89-20-19.83c-2.35-2.34-4.72-4.65-7.08-7-.67-.69-1.33-1.39-2-2.07-1.9-1.89-3.82-3.76-5.73-5.65l-.11-.25c0-.59,0-1.19,0-1.78,0-.43.2-.74.64-.75s.7.31.7.77c0,.62,0,1.25,0,1.87,0,.43.13.72.6.74s.65-.23.65-.68c0-.63,0-1.25,0-1.87,0-.36-.08-.82.47-.83s.71.36.71.85,0,1.19,0,1.79.07.88.63.89.56-.5.57-.91q0-1.06,0-2.13a1.8,1.8,0,0,0-2.56-1.77,1.23,1.23,0,0,1-1,0A1.77,1.77,0,0,0,56.84,312c0,.27-.07.5-.35.61l-.31-.19a7.9,7.9,0,0,0-1.79-1.72A.67.67,0,0,0,54,310.23Zm14.64,2a3.35,3.35,0,0,0,.22,1.5,1.78,1.78,0,0,0,2.05,1.32,2.12,2.12,0,0,0,1.64-2.24c0-.28-.14-.5-.44-.53s-.58,0-.72.31a3.65,3.65,0,0,0-.18.56.53.53,0,0,1-.6.47.69.69,0,0,1-.59-.55c-.31-1.07,0-1.49,1.11-1.49a6.57,6.57,0,0,0,.77,0,.64.64,0,0,0,.63-.75.58.58,0,0,0-.67-.6h-.94c-.48,0-1,.1-1-.68a.59.59,0,0,0-.69-.5c-.35,0-.41.3-.47.6A25,25,0,0,0,68.6,312.25Zm-4.09,2.92c1.35-.05,2-.91,2-2.53,0-.6,0-1.11.83-1.08.47,0,.66-.42.64-.84s-.36-.48-.74-.49c-1.42-.05-2.07.57-2.08,2,0,.69.2,1.46-.94,1.48a.67.67,0,0,0-.55.9C63.79,315.06,64.19,315.12,64.51,315.17Zm9-2.62c0,.56,0,1.13,0,1.69s.17.79.66.83.67-.36.68-.78c0-1.1,0-2.2,0-3.3,0-.42-.14-.76-.68-.75s-.64.37-.66.79S73.54,312,73.54,312.55Z"/><path class="cls-8" d="M66.88,322.13q-7.09,7.1-14.21,14.17c-.49.49-.58.82,0,1.24a4.66,4.66,0,0,1,.55.54c.69.69.78,1.41.25,1.92s-1.16.42-1.85-.27l-2.83-2.82L36.71,324.82c-.16-.16-.32-.32-.47-.49a1.14,1.14,0,0,1,1.6-1.61c.38.34.74.71,1.09,1.08s.39.34.68,0c2.84-2.88,5.7-5.75,8.55-8.62l.55-.37h0c.13.32.4.32.69.33s.88,0,1.32.05c0,.34-.3.45-.48.64-3,3.05-6.08,6.11-9.15,9.14-.38.38-.44.58,0,1,1,.91,1.92,1.85,2.83,2.83.35.37.53.31.84,0,.85-.88,1.74-1.71,2.57-2.6.42-.44.67-.52,1.12,0,.84.92,1.75,1.78,2.63,2.67.22.22.37.47.74.11s.14-.51-.09-.74c-.93-.92-1.83-1.86-2.78-2.76-.34-.33-.36-.52,0-.86,1.54-1.51,3.06-3,4.57-4.58.37-.38.59-.43,1,0,.87.94,1.79,1.82,2.69,2.73.22.21.38.47.74.11s.15-.51-.09-.74c-.93-.92-1.83-1.86-2.78-2.76-.36-.35-.32-.54,0-.87,1-1,1.95-2,2.92-3l1.13-1.09c1.91,1.89,3.83,3.76,5.73,5.65C65.55,320.74,66.21,321.44,66.88,322.13Z"/><path class="cls-9" d="M65.07,298.38c1.08-1.08,2.14-2.19,3.25-3.23a8.17,8.17,0,0,1,10.92-.2c1.76,1.54,3.36,3.2,3.83,5.64A8.18,8.18,0,0,1,81,308c-.59.64-1.21,1.26-1.82,1.88a7.73,7.73,0,0,0-1.27,1.22l-.2-.1a.31.31,0,0,0-.27-.25l-1.32-1.42c.12-.15.25-.3.37-.46a1.54,1.54,0,0,0-.33-2.19c-.51-.41-1.1-.26-1.75.43a1.38,1.38,0,0,1-.35.22l-.15,0-.08-.29a4,4,0,0,0,.28-.3,1.73,1.73,0,0,1,2.05-.48,1.65,1.65,0,0,1,.95,1.87c0,.25-.11.49-.16.73l-.07.09.09-.07c1-.57.76-2.4-.35-3.08a2.35,2.35,0,0,0-3.22.84,40.64,40.64,0,0,1-3.22-3.21c.63-.62,1.26-1.23,1.86-1.87.29-.31.47-.35.79,0,.89.94,1.83,1.85,2.76,2.77.23.24.39.53.78.12s.07-.53-.13-.74c-.9-.9-1.79-1.82-2.71-2.7-.37-.34-.45-.55,0-.92a14.9,14.9,0,0,0,1.69-1.68c.43-.53,1.44-.88,1.2-1.58s-1.09-.95-1.77-1.24c-1.59-.69-3.34-.94-4.92.87-1,1.15-2.15,2.18-3.23,3.26A5.77,5.77,0,0,1,65.07,298.38Z"/><path class="cls-10" d="M66.43,299.72c1.08-1.08,2.23-2.11,3.23-3.26,1.58-1.81,3.33-1.56,4.92-.87.68.29,1.56.63,1.77,1.24s-.77,1.05-1.2,1.58a14.9,14.9,0,0,1-1.69,1.68c-.42.37-.34.58,0,.92.92.88,1.81,1.8,2.71,2.7.2.21.49.35.13.74s-.55.12-.78-.12c-.93-.92-1.87-1.83-2.76-2.77-.32-.34-.5-.3-.79,0-.6.64-1.23,1.25-1.86,1.87A48.23,48.23,0,0,1,66.43,299.72Z"/><path class="cls-11" d="M57.49,312.63c.28-.11.32-.34.35-.61a1.77,1.77,0,0,1,2.62-1.64,1.23,1.23,0,0,0,1,0A1.8,1.8,0,0,1,64,312.12q0,1.06,0,2.13c0,.41.1.93-.57.91s-.65-.41-.63-.89,0-1.2,0-1.79-.17-.87-.71-.85-.47.47-.47.83c0,.62,0,1.24,0,1.87,0,.45-.17.71-.65.68s-.62-.31-.6-.74c0-.62,0-1.25,0-1.87,0-.46-.21-.79-.7-.77s-.64.32-.64.75c0,.59,0,1.19,0,1.78-.19-.15-.42-.25-.52-.5.35-.36.13-.81.18-1.21.08-.64.26-1.2,1-1.19s1,.58,1,1.22,0,1.13,0,1.7c0,.19,0,.45.27.44s.24-.27.24-.46c0-.57,0-1.14,0-1.7s0-1.19.82-1.2,1,.52,1,1.17,0,1.25,0,1.87c0,.19-.06.45.22.48s.28-.22.28-.41a22.59,22.59,0,0,0,0-2.47,1.51,1.51,0,0,0-2.14-1.21,1.2,1.2,0,0,1-1.16,0,1.41,1.41,0,0,0-1.69.38c-.63.69-.37,1.5-.44,2.26l-.15,0h0l-.18-.18h0l-.19-.17-.17-.16C57.5,312.74,57.5,312.69,57.49,312.63Z"/><path class="cls-11" d="M69.6,312.25a25,25,0,0,1,.15-2.59c.06-.3.12-.57.47-.6a.59.59,0,0,1,.69.5c0,.78.49.68,1,.68h.94a.58.58,0,0,1,.67.6.64.64,0,0,1-.63.75,6.57,6.57,0,0,1-.77,0c-1.1,0-1.42.42-1.11,1.49a.69.69,0,0,0,.59.55.53.53,0,0,0,.6-.47,3.65,3.65,0,0,1,.18-.56c.14-.33.42-.35.72-.31s.4.25.44.53a2.12,2.12,0,0,1-1.64,2.24,1.78,1.78,0,0,1-2.05-1.32A3.35,3.35,0,0,1,69.6,312.25Zm.5-.67c0,.54,0,1.08,0,1.62a1.46,1.46,0,0,0,1.51,1.47,1.56,1.56,0,0,0,1.55-1.58c0-.17,0-.37-.2-.42s-.27.14-.32.31-.11.38-.2.56a.81.81,0,0,1-.84.46c-.31,0-.63,0-.79-.35a3,3,0,0,1-.1-2.16c.19-.52.92-.14,1.39-.23a1.93,1.93,0,0,1,.34,0c.29,0,.65,0,.67-.35s-.37-.3-.62-.32a5.9,5.9,0,0,0-.94,0c-.55,0-1,0-1-.76a.29.29,0,0,0-.29-.34c-.23,0-.19.24-.2.4Z"/><path class="cls-11" d="M65.51,315.17c-.32-.05-.72-.11-.81-.54a.67.67,0,0,1,.55-.9c1.14,0,.93-.79.94-1.48,0-1.45.66-2.07,2.08-2,.38,0,.72.06.74.49s-.17.86-.64.84c-.87,0-.83.48-.83,1.08C67.54,314.26,66.86,315.12,65.51,315.17Zm.35-.48A1.2,1.2,0,0,0,67,314a3.24,3.24,0,0,0,.25-1.41c-.08-.76,0-1.36,1-1.29a.35.35,0,0,0,.39-.36c0-.27-.2-.29-.4-.31a1.28,1.28,0,0,0-1.37.58,3,3,0,0,0-.31,1.79c0,.58-.13,1-.81,1.05-.27,0-.55.08-.52.41S65.59,314.63,65.86,314.69Z"/><path class="cls-11" d="M74.54,312.55c0-.51,0-1,0-1.52s.11-.78.66-.79.68.33.68.75c0,1.1,0,2.2,0,3.3,0,.42-.16.81-.68.78s-.66-.38-.66-.83S74.54,313.11,74.54,312.55Zm.35.07c0,.51,0,1,0,1.54,0,.2,0,.42.3.44s.34-.19.34-.39c0-1,0-2.1,0-3.15,0-.21-.08-.42-.34-.4s-.31.23-.31.43C74.88,311.6,74.89,312.11,74.89,312.62Z"/><path class="cls-11" d="M78.16,311.59a.48.48,0,0,1,.35.31c-.3.12-.28.33-.26.62a6.86,6.86,0,0,1-.1,2,.54.54,0,0,1-.65.48c-.34,0-.58-.17-.57-.51,0-1.25-.31-2.56.47-3.72a.31.31,0,0,1,.27.25c-.73,1-.29,2.19-.4,3.28a.27.27,0,0,0,.22.31.31.31,0,0,0,.38-.26c0-.3,0-.62.06-.92C78,312.83,77.71,312.17,78.16,311.59Z"/><path class="cls-11" d="M75.6,309a.58.58,0,0,1,.33.34,1.81,1.81,0,0,1-2.2-.3,1.93,1.93,0,0,1-.37-2.28l.43.26c0,.1.06.19.08.29C73.84,308.65,74.28,309.07,75.6,309Z"/><path class="cls-12" d="M58,313.29l.15,0,.33.34c.1.25.33.35.52.5s.07.17.11.25L58,315.5C57.86,314.76,57.43,314,58,313.29Z"/><path class="cls-13" d="M52.39,311.09l.67-.71c.65.21,1.25-.34,1.9-.15a.67.67,0,0,1,.43.49s0,.06-.07,0a1.89,1.89,0,0,0-2.24.28,3,3,0,0,0-.66,2.19,1.64,1.64,0,0,1-.18-1.07C52.25,311.81,52.7,311.5,52.39,311.09Z"/><path class="cls-11" d="M80.52,313.94a.45.45,0,0,1,.34.34c-.09.44-.25.89-.78.82s-.62-.52-.61-1l0-1.19a.74.74,0,0,1,.44.41,1.75,1.75,0,0,0-.09,1.15.3.3,0,0,0,.59,0A5.59,5.59,0,0,0,80.52,313.94Z"/><path class="cls-14" d="M55,310.23c-.65-.19-1.25.36-1.9.15l1-1A3.2,3.2,0,0,1,55,310.23Z"/><path class="cls-12" d="M85.14,318.4a.46.46,0,0,1,.44.42A.9.9,0,0,1,85.14,318.4Z"/><path class="cls-12" d="M57.49,312.63c0,.06,0,.11,0,.17a.35.35,0,0,1-.37-.3l0-.06Z"/><path class="cls-12" d="M86.34,319.59a.3.3,0,0,1,.29.29Z"/><path class="cls-12" d="M83.33,316.59c.17,0,.22.1.25.24Z"/><path class="cls-12" d="M83.77,317a.28.28,0,0,1,.28.26Z"/><path class="cls-12" d="M84.69,317.94c.17,0,.22.11.25.25Z"/><path class="cls-12" d="M82.65,315.9a.22.22,0,0,1,.2.21Z"/><path class="cls-12" d="M82.94,316.21a.13.13,0,0,1,.1.1Z"/><path class="cls-12" d="M83.14,316.4a.22.22,0,0,1,.21.2Z"/><path class="cls-12" d="M83.6,316.87l.14.14C83.64,317,83.59,317,83.6,316.87Z"/><path class="cls-12" d="M84.3,317.57a.12.12,0,0,1,.1.1Z"/><path class="cls-12" d="M84.51,317.76a.21.21,0,0,1,.2.2Z"/><path class="cls-12" d="M85,318.24l.13.12C85,318.37,85,318.33,85,318.24Z"/><path class="cls-12" d="M85.68,318.93a.2.2,0,0,1,.09.09h-.08Z"/><path class="cls-12" d="M85.87,319.12a.25.25,0,0,1,.22.22Z"/><path class="cls-12" d="M86.2,319.45a.13.13,0,0,1,.09.09A.08.08,0,0,1,86.2,319.45Z"/><path class="cls-15" d="M99.17,276a4.51,4.51,0,0,1-1.2,3.11Q92.12,285,86.24,290.86c-.37.37-.49.61-.22,1.13.78,1.51.48,2.77-.88,4.11-.35.34-.74.58-.22,1.13.32.33.14.76-.2,1a.79.79,0,0,1-1.14-.1l-1.75-1.74-3.67-3.67c-.38-.38-.59-.8-.2-1.27a.78.78,0,0,1,1.26-.05c.34.33.49,0,.68-.15A5.05,5.05,0,0,1,81.47,290a3.29,3.29,0,0,1,2.87.21c.32.17.52.24.85-.09,4.57-4.6,9.17-9.18,13.75-13.77a2,2,0,0,0,.23-.34Z"/><path class="cls-15" d="M99.17,276l.15.12c-.17.11-.12-.06-.15-.12Z"/><path class="cls-9" d="M29.48,332.33a2.18,2.18,0,0,1,1.56.75c.88.89,1.78,1.75,2.64,2.66.37.41.59.41,1,0,1.71-1.77,3.49-3.48,5.2-5.26.48-.5.73-.43,1.17,0,1.54,1.59,3.1,3.16,4.7,4.69.5.48.41.73,0,1.17-1.77,1.72-3.49,3.49-5.25,5.21-.38.38-.39.57,0,.93.93.87,1.81,1.8,2.71,2.7a2.14,2.14,0,0,1,.73,1.66,1.6,1.6,0,0,1-2.58,1.18,5.46,5.46,0,0,1-1-.84L28.86,335.73a3,3,0,0,1-.94-1.4A1.54,1.54,0,0,1,29.48,332.33Z"/><path class="cls-14" d="M49.84,313.63l2.09-2.18.46-.36c.31.41-.14.72-.15,1.08a1.64,1.64,0,0,0,.18,1.07,3,3,0,0,1,.66-2.19,1.89,1.89,0,0,1,2.24-.28l-3.26,3.39-.5.38c0-.23-.1-.39-.36-.38h0c0-.15,0-.34-.23-.16h-.24c-.09-.14-.18-.12-.27,0h-.06Z"/><path class="cls-16" d="M51.56,314.54l.5-.38c.64.07.88.71,1.45.95.79.32,1.33.3,1.78-.44a.37.37,0,0,0,.17.34.69.69,0,0,0,.89.23c.44-.21.08-.39,0-.58s0-.27.13-.26c1,.06.42-.66.46-1s-.17-.65.19-.9a.35.35,0,0,0,.37.3l.17.16.19.17h0l.18.18h0c-.6.73-.17,1.47,0,2.21-1,1-1.93,2-2.92,3-.33.33-.37.52,0,.87,1,.9,1.85,1.84,2.78,2.76.24.23.44.39.09.74s-.52.1-.74-.11c-.9-.91-1.82-1.79-2.69-2.73-.39-.41-.61-.36-1,0-1.51,1.55-3,3.07-4.57,4.58-.36.34-.34.53,0,.86,1,.9,1.85,1.84,2.78,2.76.23.23.44.39.09.74s-.52.11-.74-.11c-.88-.89-1.79-1.75-2.63-2.67-.45-.5-.7-.42-1.12,0-.83.89-1.72,1.72-2.57,2.6-.31.33-.49.39-.84,0-.91-1-1.86-1.92-2.83-2.83-.43-.39-.37-.59,0-1,3.07-3,6.11-6.09,9.15-9.14.18-.19.49-.3.48-.64l0,0c.23,0,.37,0,.18-.29l.07,0c.1.09.19.07.25-.06A.46.46,0,0,0,51.56,314.54Z"/><path class="cls-15" d="M51.21,314.84c-.06.13-.15.15-.25.06a12.67,12.67,0,0,0-2.22,0h0a2.21,2.21,0,0,1,.79-.87.75.75,0,0,0,.91,0H51l.23.16h0Z"/><path class="cls-13" d="M48.74,314.85a12.67,12.67,0,0,1,2.22,0l-.07,0-.18.29,0,0c-.44,0-.88-.05-1.32-.05S48.87,315.17,48.74,314.85Z"/><path class="cls-17" d="M78.16,311.59c-.45.58-.14,1.24-.23,1.86,0,.3,0,.62-.06.92a.31.31,0,0,1-.38.26.27.27,0,0,1-.22-.31c.11-1.09-.33-2.26.4-3.28l.2.1Z"/><path class="cls-17" d="M75.6,309c-1.32,0-1.76-.38-1.73-1.69l.15,0c.22.28.33.64.71.78.17.37.55.5.85.73A.77.77,0,0,0,75.6,309Z"/><path class="cls-13" d="M76.93,308.89l-.09.07.07-.09Z"/><path class="cls-17" d="M80.52,313.94a5.59,5.59,0,0,1-.08.59.3.3,0,0,1-.59,0,1.75,1.75,0,0,1,.09-1.15A1.37,1.37,0,0,1,80.52,313.94Z"/><path class="cls-18" d="M55.46,315a.37.37,0,0,1-.17-.34c.33-.36.13-.8.17-1.2s0-.78,0-1.24A2.78,2.78,0,0,1,55.46,315Z"/><path class="cls-17" d="M58.51,313.66l-.33-.34c.07-.76-.19-1.57.44-2.26a1.41,1.41,0,0,1,1.69-.38,1.2,1.2,0,0,0,1.16,0,1.51,1.51,0,0,1,2.14,1.21,22.59,22.59,0,0,1,0,2.47c0,.19,0,.44-.28.41s-.22-.29-.22-.48c0-.62,0-1.25,0-1.87s-.26-1.18-1-1.17-.83.59-.82,1.2,0,1.13,0,1.7c0,.19,0,.45-.24.46s-.26-.25-.27-.44c0-.57,0-1.13,0-1.7s-.21-1.2-1-1.22-1,.55-1,1.19C58.64,312.85,58.86,313.3,58.51,313.66Z"/><path class="cls-12" d="M58,313.3l-.18-.18Z"/><path class="cls-12" d="M57.87,313.13l-.19-.17Z"/><path class="cls-17" d="M70.1,311.58v-1.7c0-.16,0-.39.2-.4a.29.29,0,0,1,.29.34c-.09.79.41.8,1,.76a5.9,5.9,0,0,1,.94,0c.25,0,.66-.14.62.32s-.38.34-.67.35a1.93,1.93,0,0,0-.34,0c-.47.09-1.2-.29-1.39.23a3,3,0,0,0,.1,2.16c.16.37.48.33.79.35a.81.81,0,0,0,.84-.46c.09-.18.13-.38.2-.56s.09-.36.32-.31.2.25.2.42a1.56,1.56,0,0,1-1.55,1.58,1.46,1.46,0,0,1-1.51-1.47C70.09,312.66,70.1,312.12,70.1,311.58Z"/><path class="cls-17" d="M65.86,314.69c-.27-.06-.62.09-.65-.28s.25-.4.52-.41c.68,0,.81-.47.81-1.05a3,3,0,0,1,.31-1.79,1.28,1.28,0,0,1,1.37-.58c.2,0,.42,0,.4.31a.35.35,0,0,1-.39.36c-1-.07-1.11.53-1,1.29A3.24,3.24,0,0,1,67,314,1.2,1.2,0,0,1,65.86,314.69Z"/><path class="cls-17" d="M74.89,312.62c0-.51,0-1,0-1.53,0-.2.06-.42.31-.43s.33.19.34.4c0,1.05,0,2.1,0,3.15,0,.2-.09.41-.34.39s-.3-.24-.3-.44C74.88,313.65,74.89,313.13,74.89,312.62Z"/><path class="cls-14" d="M75.58,308.88c-.3-.23-.68-.36-.85-.73s0-1,.54-1c.34,0,.93,0,1,.58S76.4,308.82,75.58,308.88Z"/><path class="cls-18" d="M40.25,311.48a.48.48,0,0,1-.21.09c-.09,0-.16-.06-.09-.15a.45.45,0,0,1,.21-.09S40.21,311.41,40.25,311.48Z"/><path class="cls-13" d="M50.41,314a.75.75,0,0,1-.91,0l.34-.35Z"/><path class="cls-13" d="M51.21,314.84v-.68c.26,0,.35.15.36.38A.46.46,0,0,1,51.21,314.84Z"/><path class="cls-13" d="M51.21,314.16,51,314C51.22,313.82,51.2,314,51.21,314.16Z"/><path class="cls-13" d="M50.74,314h-.27C50.56,313.88,50.65,313.86,50.74,314Z"/><path class="cls-8" d="M50.71,315.21l.18-.29C51.08,315.17,50.94,315.22,50.71,315.21Z"/><path class="cls-19" d="M98.39,436.69C90.13,428.86,81.86,421,73,413.78c-4.93-4-6.09-14.39-1.67-18.93,3-3,5.25-7.16,10.89-6.75a6.32,6.32,0,0,0,.26-1.06h7.61c-.18,1,.3,1.37,1.33,1.5,4.29.55,7,3.19,9.87,5.83,6.83,6.2,13.11,12.93,20.84,18.3a6.66,6.66,0,0,1,1.32,1.89c-2.79.18-3.3,2.73-5,4C111,423.93,104.87,430.47,98.39,436.69Z"/><path class="cls-20" d="M10.63,501.53c0-10.62-.16-21.24,0-31.86.12-11.45,12.36-18.05,24.27-14.12,8.52,2.8,11.21,8.1,11.3,15.39.1,8.57,0,17.15,0,25.72a12,12,0,0,1-.83,4.47c-1.52.1-3,.29-4.57.3C30.75,501.49,20.69,501.5,10.63,501.53Z"/><path class="cls-19" d="M10.63,501.53c10.06,0,20.12,0,30.17-.1,1.53,0,3.05-.2,4.57-.3,1.35.82.8,2.09.8,3.16,0,9.34-.29,18.7.1,28,.41,9.61-11.44,19.28-23.11,15.86C17.44,546.49,10.4,540,10.52,533,10.69,522.52,10.61,512,10.63,501.53Z"/><path class="cls-20" d="M98.39,436.69c6.48-6.22,12.61-12.76,20-18.14,1.73-1.26,2.24-3.81,5-4,4.94,2.76,8.33,7,12.23,10.76,3.17,3,6.16,6.21,9.86,8.77,9.31,6.44,10,18.28,1.55,25.29-6.62,5.47-18.39,5.72-24.31-.33-7.15-7.33-15.4-13.57-22.88-20.56A19.87,19.87,0,0,1,98.39,436.69Z"/></g></g></svg>