<svg xmlns="http://www.w3.org/2000/svg" viewBox="0 0 530.76 138.18"><defs><style>.cls-1{fill:#fdca42;}.cls-2{fill:#195ea2;}.cls-3{fill:#e37955;}.cls-4{fill:#312f2f;}</style></defs><title>p1e10</title><g id="Layer_2" data-name="Layer 2"><g id="Layer_1-2" data-name="Layer 1"><rect class="cls-1" width="76" height="101"/><path class="cls-2" d="M70.43,65.71C67.83,77.18,59.11,86,42.74,86,22.5,86,12.86,71.7,12.86,54.11,12.86,37,23,21.68,43.41,21.68c17.05,0,25.39,9.89,27,20.31H56.69c-1.32-4.61-4.7-9.6-13.66-9.6-11.29,0-16,9.83-16,21.22,0,10.78,4.15,21.68,16.3,21.68,8.84,0,11.88-5.4,13.34-9.58Z"/><path class="cls-2" d="M124.62,61.65c0,14.11-8.7,24.47-23.93,24.47-15,0-23.49-10.57-23.49-24.27,0-14,8.77-24.5,24.09-24.5C115.85,37.35,124.62,47.67,124.62,61.65Zm-34.1.08c0,8.65,3.93,14.19,10.49,14.19s10.26-5.52,10.26-14.08c0-9.23-3.6-14.3-10.43-14.3C94.39,47.54,90.52,52.39,90.52,61.73Z"/><path class="cls-2" d="M133.68,51.09c0-4.58,0-8.7-.09-12.63h12.85c.18,1.17.35,5.87.35,8.43,2.18-5.5,7.3-9.54,15.56-9.53v12.4c-9.59-.22-15.56,2.71-15.56,15.55V85H133.68Z"/><path class="cls-2" d="M214.17,61.65c0,14.11-8.7,24.47-23.94,24.47-15,0-23.48-10.57-23.48-24.27,0-14,8.77-24.5,24.09-24.5C205.4,37.35,214.17,47.67,214.17,61.65Zm-34.1.08c0,8.65,3.93,14.19,10.49,14.19s10.25-5.52,10.25-14.08c0-9.23-3.59-14.3-10.42-14.3C183.94,47.54,180.07,52.39,180.07,61.73Z"/><path class="cls-2" d="M223.27,50.19c0-3.95,0-8.3-.09-11.73h12.73c.24,1.23.41,4.42.48,6,1.7-3,5.56-7.11,13.92-7.11,9.76,0,16,6.45,16,18.22V85H253.15V57.17c0-5.3-1.83-9.29-7.74-9.29s-9,3.47-9,11.76V85H223.27Z"/><path class="cls-2" d="M317.46,72.82A114,114,0,0,0,318,85H305.53a21.47,21.47,0,0,1-.63-4.73c-1.85,2.91-5.46,5.85-13.82,5.85-11.52,0-16.33-7.45-16.33-14.71,0-10.92,8.94-15.5,22.61-15.5h7.29v-2.6c0-3.43-1.28-6.69-7.5-6.69-5.69,0-6.93,2.37-7.53,5.61H277c.64-7.72,5.51-14.95,20.49-14.88,14,.06,20,5.85,20,16.25ZM304.66,64h-6.15c-7.76,0-10.7,2.29-10.7,6.67,0,3.34,2.17,6.13,7,6.13,8.25,0,9.87-5.35,9.87-11.65Z"/><path class="cls-2" d="M337.05,38.46c4.85,16.24,8.65,29.36,9.72,35h.11c1.38-7.25,5.67-20.26,10.39-35H370.4L353.38,85h-14L322.94,38.46Z"/><path class="cls-2" d="M376.94,19h13.12v11.5H376.94Zm0,19.42h13.12V85H376.94Z"/><path class="cls-2" d="M401.87,51.09c0-4.58,0-8.7-.09-12.63h12.86c.18,1.17.35,5.87.35,8.43,2.17-5.5,7.3-9.54,15.56-9.53v12.4C421,49.54,415,52.47,415,65.31V85H401.87Z"/><path class="cls-2" d="M480.59,71.47c0,4.49,0,9.34.08,13.53H467.83c-.18-1.25-.26-3.68-.34-5.43-2.66,4.49-6.67,6.55-13.41,6.55-9.5,0-15.9-5.71-15.9-17.71V38.46h13.11V65.88c0,5.37,1.74,9.64,7.48,9.64,6.2,0,8.71-3.38,8.71-12.95V38.46h13.11Z"/><path class="cls-2" d="M501.43,71c1,3.68,4.09,5.8,9.24,5.8s6.88-1.78,6.88-4.52c0-2.95-2-4.16-9.27-5.74C492.65,63,490.17,58,490.17,51.59c0-6.87,4.93-14.24,19.34-14.24s19.51,7.7,20,14.08H516.9c-.47-1.85-1.74-5-7.95-5-4.58,0-5.9,2-5.9,4,0,2.27,1.47,3.42,9.28,5.09,16.16,3.45,18.43,9,18.43,15.72,0,7.87-6,14.86-20.67,14.86-13.81,0-20.46-6.52-21.57-15.16Z"/><rect class="cls-3" x="150.77" y="103.29" width="240" height="31" rx="5.28"/><path class="cls-4" d="M153.77,135.71V103.47a2.1,2.1,0,0,1,2-2.16h5.28c2.85,0,5,.82,6.48,2.46s2.2,4,2.2,7v17.1c0,3.42-.78,6-2.35,7.57s-3.82,2.44-6.76,2.44h-4.85A2.1,2.1,0,0,1,153.77,135.71Zm4.95-27.31v22.38a2.1,2.1,0,0,0,2,2.16H161a3.52,3.52,0,0,0,2.95-1.1,5.53,5.53,0,0,0,.88-3.47V110.76a5.78,5.78,0,0,0-.83-3.34,3.41,3.41,0,0,0-3-1.18h-.24A2.1,2.1,0,0,0,158.72,108.4Z"/><path class="cls-4" d="M181.7,135.71V103.47a2.11,2.11,0,0,1,2-2.16h10.67a2.11,2.11,0,0,1,2,2.16v.61a2.11,2.11,0,0,1-2,2.16h-5.72a2.1,2.1,0,0,0-2,2.16v6.41a2.1,2.1,0,0,0,2,2.16h4.45a2.1,2.1,0,0,1,2,2.16v.61a2.1,2.1,0,0,1-2,2.16h-4.45a2.1,2.1,0,0,0-2,2.16v6.42a2.1,2.1,0,0,0,2,2.16h5.72a2.1,2.1,0,0,1,2,2.16v.91a2.1,2.1,0,0,1-2,2.16H183.74A2.1,2.1,0,0,1,181.7,135.71Z"/><path class="cls-4" d="M206.92,135.71V103.47a2.1,2.1,0,0,1,2-2.16h10.66a2.1,2.1,0,0,1,2,2.16v.61a2.1,2.1,0,0,1-2,2.16h-5.71a2.1,2.1,0,0,0-2,2.16v6.77a2.1,2.1,0,0,0,2,2.16h4.45a2.1,2.1,0,0,1,2,2.16v.61a2.1,2.1,0,0,1-2,2.16h-4.45a2.1,2.1,0,0,0-2,2.16v11.29a2.1,2.1,0,0,1-2,2.16H209A2.1,2.1,0,0,1,206.92,135.71Z"/><path class="cls-4" d="M232.28,135.71V103.47a2.11,2.11,0,0,1,2-2.16h.87a2.1,2.1,0,0,1,2,2.16v32.24a2.1,2.1,0,0,1-2,2.16h-.87A2.1,2.1,0,0,1,232.28,135.71Z"/><path class="cls-4" d="M249.11,135.71V103.47a2.1,2.1,0,0,1,2-2.16h1.28a2,2,0,0,1,1.92,1.43l7,20.6h.1V103.47a2.1,2.1,0,0,1,2-2.16h.86a2.1,2.1,0,0,1,2,2.16v32.24a2.1,2.1,0,0,1-2,2.16h-1.18a2,2,0,0,1-1.92-1.42l-7.08-20.56h-.09v19.82a2.1,2.1,0,0,1-2,2.16h-.87A2.1,2.1,0,0,1,249.11,135.71Z"/><path class="cls-4" d="M276.43,135.24l6.8-32.24a2.07,2.07,0,0,1,2-1.69h.86a2.07,2.07,0,0,1,2,1.69l6.8,32.24a2.14,2.14,0,0,1-2,2.63h-.72a2.08,2.08,0,0,1-2-1.74l-.81-4.37a2.06,2.06,0,0,0-2-1.74H284a2.07,2.07,0,0,0-2,1.74l-.81,4.37a2.08,2.08,0,0,1-2,1.74h-.72A2.14,2.14,0,0,1,276.43,135.24Zm9.2-10.15a2.13,2.13,0,0,0,2-2.58l-1.95-10.67h-.1l-2,10.67a2.14,2.14,0,0,0,2,2.58Z"/><path class="cls-4" d="M305.7,135.71V108.4a2.1,2.1,0,0,0-2-2.16H302a2.11,2.11,0,0,1-2-2.16v-.61a2.11,2.11,0,0,1,2-2.16h12.31a2.1,2.1,0,0,1,2,2.16v.61a2.1,2.1,0,0,1-2,2.16h-1.64a2.11,2.11,0,0,0-2,2.16v27.31a2.1,2.1,0,0,1-2,2.16h-.87A2.1,2.1,0,0,1,305.7,135.71Z"/><path class="cls-4" d="M326,135.71V103.47a2.11,2.11,0,0,1,2-2.16h.87a2.1,2.1,0,0,1,2,2.16v32.24a2.1,2.1,0,0,1-2,2.16H328A2.1,2.1,0,0,1,326,135.71Z"/><path class="cls-4" d="M342.71,109.94a9.92,9.92,0,0,1,.72-3.91,8.24,8.24,0,0,1,1.94-2.82,8,8,0,0,1,2.65-1.64,8.07,8.07,0,0,1,6,0,8.5,8.5,0,0,1,2.69,1.64,8.41,8.41,0,0,1,1.89,2.82,9.74,9.74,0,0,1,.73,3.91v19.31a9.61,9.61,0,0,1-.73,3.95,8,8,0,0,1-1.89,2.72,8.16,8.16,0,0,1-2.69,1.7,8.21,8.21,0,0,1-6,0,7.71,7.71,0,0,1-2.65-1.7,7.82,7.82,0,0,1-1.94-2.72,9.78,9.78,0,0,1-.72-3.95Zm4.94,19.31a3.55,3.55,0,0,0,1,2.79,3.52,3.52,0,0,0,4.7,0,3.58,3.58,0,0,0,1-2.79V109.94a3.6,3.6,0,0,0-1-2.8,3.52,3.52,0,0,0-4.7,0,3.57,3.57,0,0,0-1,2.8Z"/><path class="cls-4" d="M370.74,135.71V103.47a2.1,2.1,0,0,1,2-2.16h1.27a2,2,0,0,1,1.92,1.43l7,20.6h.09V103.47a2.11,2.11,0,0,1,2-2.16H386a2.1,2.1,0,0,1,2,2.16v32.24a2.1,2.1,0,0,1-2,2.16h-1.19a2,2,0,0,1-1.91-1.42l-7.08-20.56h-.1v19.82a2.1,2.1,0,0,1-2,2.16h-.86A2.1,2.1,0,0,1,370.74,135.71Z"/></g></g></svg>