<svg xmlns="http://www.w3.org/2000/svg" viewBox="0 0 240 37.18"><defs><style>.cls-1{fill:#e37955;}.cls-2{fill:#312f2f;}</style></defs><title>p2e1a</title><g id="Layer_2" data-name="Layer 2"><g id="Layer_1-2" data-name="Layer 1"><rect class="cls-1" y="2.29" width="240" height="31" rx="5.28"/><path class="cls-2" d="M3,34.71V2.47A2.1,2.1,0,0,1,5,.31h5.28q4.27,0,6.48,2.46t2.2,7v17.1c0,3.42-.78,6-2.35,7.57s-3.82,2.44-6.76,2.44H5A2.1,2.1,0,0,1,3,34.71ZM8,7.4V29.78a2.1,2.1,0,0,0,2,2.16h.24a3.52,3.52,0,0,0,2.95-1.1,5.53,5.53,0,0,0,.88-3.47V9.76a5.78,5.78,0,0,0-.83-3.34,3.41,3.41,0,0,0-3-1.18H10A2.1,2.1,0,0,0,8,7.4Z"/><path class="cls-2" d="M30.93,34.71V2.47A2.11,2.11,0,0,1,33,.31H43.64a2.11,2.11,0,0,1,2,2.16v.61a2.11,2.11,0,0,1-2,2.16H37.92a2.1,2.1,0,0,0-2,2.16v6.41a2.1,2.1,0,0,0,2,2.16h4.45a2.1,2.1,0,0,1,2,2.16v.61a2.1,2.1,0,0,1-2,2.16H37.92a2.1,2.1,0,0,0-2,2.16v6.42a2.1,2.1,0,0,0,2,2.16h5.72a2.1,2.1,0,0,1,2,2.16v.91a2.1,2.1,0,0,1-2,2.16H33A2.1,2.1,0,0,1,30.93,34.71Z"/><path class="cls-2" d="M56.15,34.71V2.47a2.1,2.1,0,0,1,2-2.16H68.85a2.1,2.1,0,0,1,2,2.16v.61a2.1,2.1,0,0,1-2,2.16H63.14a2.1,2.1,0,0,0-2,2.16v6.77a2.1,2.1,0,0,0,2,2.16h4.45a2.1,2.1,0,0,1,2,2.16v.61a2.1,2.1,0,0,1-2,2.16H63.14a2.1,2.1,0,0,0-2,2.16V34.71a2.1,2.1,0,0,1-2,2.16h-.87A2.1,2.1,0,0,1,56.15,34.71Z"/><path class="cls-2" d="M81.51,34.71V2.47a2.11,2.11,0,0,1,2-2.16h.87a2.1,2.1,0,0,1,2,2.16V34.71a2.1,2.1,0,0,1-2,2.16h-.87A2.1,2.1,0,0,1,81.51,34.71Z"/><path class="cls-2" d="M98.34,34.71V2.47a2.1,2.1,0,0,1,2-2.16h1.28a2,2,0,0,1,1.92,1.43l7,20.6h.1V2.47a2.1,2.1,0,0,1,2-2.16h.87a2.11,2.11,0,0,1,2,2.16V34.71a2.1,2.1,0,0,1-2,2.16h-1.19a2,2,0,0,1-1.92-1.42l-7.08-20.56h-.09V34.71a2.1,2.1,0,0,1-2,2.16h-.87A2.1,2.1,0,0,1,98.34,34.71Z"/><path class="cls-2" d="M125.67,34.24,132.46,2a2.07,2.07,0,0,1,2-1.69h.85a2.07,2.07,0,0,1,2,1.69l6.8,32.24a2.14,2.14,0,0,1-2,2.63h-.72a2.08,2.08,0,0,1-2-1.74l-.8-4.37a2.08,2.08,0,0,0-2-1.74h-3.38a2.07,2.07,0,0,0-2,1.74l-.81,4.37a2.08,2.08,0,0,1-2,1.74h-.72A2.13,2.13,0,0,1,125.67,34.24Zm9.19-10.15a2.13,2.13,0,0,0,2-2.58l-2-10.67h-.1l-1.95,10.67a2.13,2.13,0,0,0,2,2.58Z"/><path class="cls-2" d="M154.93,34.71V7.4a2.1,2.1,0,0,0-2-2.16h-1.64a2.11,2.11,0,0,1-2-2.16V2.47a2.11,2.11,0,0,1,2-2.16h12.31a2.1,2.1,0,0,1,2,2.16v.61a2.1,2.1,0,0,1-2,2.16h-1.64a2.11,2.11,0,0,0-2,2.16V34.71a2.1,2.1,0,0,1-2,2.16H157A2.1,2.1,0,0,1,154.93,34.71Z"/><path class="cls-2" d="M175.21,34.71V2.47a2.1,2.1,0,0,1,2-2.16h.86a2.1,2.1,0,0,1,2,2.16V34.71a2.1,2.1,0,0,1-2,2.16h-.86A2.1,2.1,0,0,1,175.21,34.71Z"/><path class="cls-2" d="M191.94,8.94A9.92,9.92,0,0,1,192.66,5a8.38,8.38,0,0,1,1.94-2.82A8,8,0,0,1,197.25.57a8.07,8.07,0,0,1,6,0,8.39,8.39,0,0,1,2.69,1.64A8.41,8.41,0,0,1,207.79,5a9.74,9.74,0,0,1,.73,3.91V28.25a9.61,9.61,0,0,1-.73,4,8,8,0,0,1-1.89,2.72,8.06,8.06,0,0,1-2.69,1.7,8.21,8.21,0,0,1-6,0,7.71,7.71,0,0,1-2.65-1.7,8,8,0,0,1-1.94-2.72,9.78,9.78,0,0,1-.72-4Zm4.94,19.31a3.55,3.55,0,0,0,1,2.79,3.52,3.52,0,0,0,4.7,0,3.58,3.58,0,0,0,1-2.79V8.94a3.6,3.6,0,0,0-1-2.8,3.52,3.52,0,0,0-4.7,0,3.57,3.57,0,0,0-1,2.8Z"/><path class="cls-2" d="M220,34.71V2.47a2.1,2.1,0,0,1,2-2.16h1.27a2,2,0,0,1,1.92,1.43l7,20.6h.09V2.47a2.11,2.11,0,0,1,2-2.16h.87a2.1,2.1,0,0,1,2,2.16V34.71a2.1,2.1,0,0,1-2,2.16H234a2,2,0,0,1-1.91-1.42L225,14.89h-.1V34.71a2.1,2.1,0,0,1-2,2.16H222A2.1,2.1,0,0,1,220,34.71Z"/></g></g></svg>