<svg xmlns="http://www.w3.org/2000/svg" viewBox="0 0 428.88 364.37"><defs><style>.cls-1{fill:#8cadcc;}.cls-2{fill:#fdfdf9;}.cls-3{fill:#fcfdf9;}.cls-4{fill:#fbfcf8;}.cls-5{fill:#facb46;}.cls-6{fill:#e9d177;}.cls-7{fill:#d1c792;}.cls-8{fill:#e5e9df;}.cls-9{fill:#1a5c9f;}.cls-10{fill:#1b5c9f;}.cls-11{fill:#f6e095;}.cls-12{fill:#c1def1;}.cls-13{fill:#c7e3f5;}.cls-14{fill:#b3d4eb;}.cls-15{fill:#bedef2;}.cls-16{fill:#1e5c9e;}.cls-17{fill:#b4d4ed;}.cls-18{fill:#32618e;}.cls-19{fill:#cae9fc;}.cls-20{fill:#1f5d9e;}.cls-21{fill:#1d5d9d;}.cls-22{fill:#1d5e9e;}.cls-23{fill:none;}.cls-24,.cls-25{fill:#231f20;}.cls-24{fill-rule:evenodd;}</style></defs><title>p2e2_1</title><g id="Layer_2" data-name="Layer 2"><g id="Layer_1-2" data-name="Layer 1"><path class="cls-1" d="M298.18,204.9c-10.26,20.14-7.29,39.43-3,59,3.38,15.39,6.64,30.89,8.62,46.54a151.36,151.36,0,0,1-.12,38.92c-1.92,14.31,3.65,11.37-9.87,14.17-8.66,1.8-17.25.52-25.79-1.49-2.87-.67-9.84.74-9.89-2.31-.05-2.74-.9-5.46-1-8.2-.11-3.54-1.52-4.86-4.76-4.84-3.07,0-5,.9-5,4.56a4.68,4.68,0,0,1-.42,1.85c-1.65,3.56,7.45,5.82,3.44,8.11-3,1.71-6.82,1.87-10.31,2.47-9.34,1.59-18.49.34-27.46-2.56-4.68-1.52-10.82-2.79-11.39-7.24-4.18-32.61,2.18-64.05,9.05-95.35,3.87-17.64,5.45-34.77-3.15-51.71-2.2,3-.89,6.81-1.41,10.08-1.05,6.68-2.06,13.52-1.9,20.26A145.93,145.93,0,0,1,196.59,286c-4.58,14.12-8.37,28.32-5,43.69,1.36,6.11-1,12.22-3.25,18-1.76,4.56-2.32,8.54,2.36,11.63,2,1.32,9.11.65,7.36,3s-4,1.55-5.82,0c-3.78-3.06-13.8-2.92-16.69-7-3.93-5.62-6.57-11.47-3.37-18.87,5.34-12.34,6.16-25.13,6.1-39-.12-23.25.29-46.78,4.77-69.87,1.77-9.13.47-18.65,1.38-28,1.57-16.27,1.6-32.71,2.73-49,.53-7.69.08-16.26,7.42-21.13A61.49,61.49,0,0,1,206.85,123c10.1-3.81,19.31-9.63,29-14.32,4.83-2.34,5.56-5.26,2.58-10a119.52,119.52,0,0,1-6.13-11.66c-1.22-2.46-2.34-4.62-5-5.91-4.43-2.15-4.49-6.4-2.2-10.18a14,14,0,0,0,2.27-8.32c-.65-14.13,5.86-23.86,16.48-31,5.44-3.64,18-.62,24.81,5.45s9.39,14.25,9.65,23.42c.12,4.09-.13,8,3.19,11.12A4.56,4.56,0,0,1,281,78.9c-7.26,4-8.13,12.68-12.71,18.6-5.74,7.42-5.37,8.13,3.08,12.49,9.78,5,19.25,10.93,29.61,14.51,11.93,4.11,16.37,13.07,16.61,26,.44,23.61,2.61,47.14,3.77,70.72.84,17.17.63,34.47,3.2,51.53,1.67,11-.34,22-.13,33.07.18,9.79,1.06,19.2,5.44,27.79,4.14,8.12,2.09,15.2-2.49,21.86-3.08,4.5-1.46,4.52-5.95,7.27-2,1.2-3.74,1.29-5.19-.91s-6.71-1.43-4.84-2.45c6.12-3.37,5.14-8.15,2.79-13.45a33.27,33.27,0,0,1-2.37-20c2.37-11.47-.26-22.08-3.29-32.62-1.42-4.95-.94-11.29-6.38-14.29,2.58-5.17-.74-9.81-1.38-14.61-1.56-11.7-1-23.41-1-35.11C299.83,221.47,298.3,213.86,298.18,204.9Z" transform="translate(-2.03)"/><path class="cls-2" d="M411.36,124c-4,.18-7.34.6-7.9-4.28,0-.38-.41-1-.62-1-6.68.09-6.24-7.71-8.45-11.35-1.33-2.18,3.71-12.9,6.13-15.22,3.9-3.74,11.78-5.4,16-2.34,4.07,2.94,6,9.55,4.18,15.36-1.65,5.17-3.9,10-3.74,15.81C417.1,125.72,412.78,123.19,411.36,124Z" transform="translate(-2.03)"/><path class="cls-3" d="M50.31,80.42c.11,3.92-.92,6-5.22,6.66-3.31.49-5.74,4.69-10,3.68-2.23-.52-3.81-1.08-3.79-3.78,0-3.87-1.79-6.91-3.63-10-3.19-5.28-5.38-10.86-1.19-16.51,3.61-4.85,8.8-5.44,14.07-4,6.29,1.7,8.85,6.6,8.91,13.32C50.25,73.3,51.41,76.75,50.31,80.42Z" transform="translate(-2.03)"/><path class="cls-4" d="M70.12,35.1c-5.18.83-7.48-.25-7.23-4.68.24-4.2-2.52-7-4.17-10.32C54.57,11.83,55.84,4.29,61.9,1.49,70-2.27,78.82,1.26,81.05,10c1.24,4.88,4.37,9.17,1.75,15.62C79.68,33.32,73.17,32.2,70.12,35.1Z" transform="translate(-2.03)"/><path class="cls-3" d="M430.86,36.41c-.8,6.83-6.58,11.61-6.6,18.85,0,1.66-1.85,1.82-3.28,2C410.59,58.73,402.1,48,405.23,37.43c1.77-6,2.48-12.88,10.32-13.4-.75,8.08-.66,7.82,7.29,11.07C425.57,36.21,428.42,34.56,430.86,36.41Z" transform="translate(-2.03)"/><path class="cls-5" d="M430.86,36.41c-2.72,2.68-5.21,4.71-8.87,1-1.49-1.53-4.37-1.51-6.62-2.14-5.6-1.56-6.2-3.91-2.15-8.46.8-.89,1.55-1.83,2.33-2.75l8.11-.1c3.5.34,5.81,2.42,7.26,5.77Z" transform="translate(-2.03)"/><path class="cls-6" d="M50.31,80.42c-2.1-3.36-1.24-7-.87-10.61C54.59,76.5,54.73,78.2,50.31,80.42Z" transform="translate(-2.03)"/><path class="cls-7" d="M391.35,113.47c-1.2-2-4-3.14-2.68-6.1a2.08,2.08,0,0,1,2.08-.46C394.38,109.17,391.55,113,391.35,113.47Z" transform="translate(-2.03)"/><path class="cls-8" d="M430.92,29.7l-7.25-5.77C428.27,22.63,430.14,25.36,430.92,29.7Z" transform="translate(-2.03)"/><path class="cls-9" d="M252.19,189.42c-13.75.05-23.55-10.79-23.51-26,0-13.46,10.45-24.38,23.28-24.41,13.29,0,23.58,11,23.7,25.44C275.77,178.22,265.28,189.37,252.19,189.42Z" transform="translate(-2.03)"/><path class="cls-10" d="M274.78,279.7c.53,13-9.08,24.28-21.26,24.9-13.57.7-24.44-9.66-24.94-23.75s9.32-25.8,22.1-26.33C264.2,254,274.15,264.36,274.78,279.7Z" transform="translate(-2.03)"/><path class="cls-11" d="M73.2,17.82c.34,2.71-1.22,4-3.27,4.45a3.35,3.35,0,0,1-4.17-3.39A94.87,94.87,0,0,1,66.61,7.5a2.26,2.26,0,0,1,1.91-2.12c1.71-.26,2.63.94,3,2.47C72.15,11.15,72.63,14.5,73.2,17.82Z" transform="translate(-2.03)"/><path class="cls-12" d="M254.06,155.66c3.72-6.31,6.73-6.55,11.13-.88,4.26,5.49,5.35,13.72,2.42,19-1.48,2.64-3.46,4.76-6.56,4.56s-4.88-2.48-6-5.34a23.35,23.35,0,0,1-1.31-10.59c.17-2.32.67-4.71-1.63-6.26A1.33,1.33,0,0,1,254.06,155.66Z" transform="translate(-2.03)"/><path class="cls-13" d="M254.06,155.66l-2,.45c-1.93,1.29-2.09,3.25-2,5.48a50.63,50.63,0,0,1-.25,8.8c-.53,3.72-2.29,6.85-6,7.72-3.31.79-5.51-1.22-7-4.26-.56-1.2.16-1.63,1-2,3.78,1.07,7.47,1.91,8.55-4.34-1.94.43-4.44,2.35-5.89-.25s-.44-5.52,1-7.71,2.41-3.77,0-5.71a1.58,1.58,0,0,1,.14-1.66c3.85-3.62,6.23-.22,9,3.05l.83-6.51C254.26,150.48,252.26,153.87,254.06,155.66Z" transform="translate(-2.03)"/><path class="cls-14" d="M241.66,152.22l.14,1.77c-1.32,6.18-2.86,12.32-4,18.55l-1,1.31C233.08,165.47,234.63,158.52,241.66,152.22Z" transform="translate(-2.03)"/><path class="cls-15" d="M250.91,295.35c-.52-.56-1.49-1.13-1.49-1.69,0-4.7-.48-7.67-5.55-3.57-1.72,1.39-4.14.51-6-1.07-5.5-4.62-5.46-17,.1-21.56,4.65-3.82,9.07-.74,10.3,7.28,4.19-2.24,1.25-7.11,3.37-10.44,1.55,2.44.29,5.13,1.08,7.29.69,1.91,1.15,6,4.31,1.87,2.84.15,5.59.46,5.65,4.58,0,3.45-1.45,5.1-4.74,4.54-1.28-.51-2.12-1.9-3.57-2.06-1.73-1.08-1.85-.58-2.09,1.54C251.76,286.48,253.85,291.24,250.91,295.35Z" transform="translate(-2.03)"/><path class="cls-16" d="M258.06,281.34c.17-1.72,4.55,1.17,2.36-2-.92-1.34,3.74-5.15-1.48-3.83-.47.12-1.28-1.34-1.93-2.06,0-.22,0-.44,0-.65-.4-3,.77-4.86,3.54-5.3,2.46-.38,4.65.1,6.26,2.53,2.89,4.37,2.79,12.8-.41,16.89-2,2.55-4.59,3.72-7.3,1.71C256.68,286.85,255.1,284.33,258.06,281.34Z" transform="translate(-2.03)"/><path class="cls-17" d="M258.06,281.34c-1.06,3.28-.57,6.11,2.76,7.1s5-1.72,6.16-4.53a16.16,16.16,0,0,0,.53-9.36c-.57-3-1.82-5.71-5-6.31s-4.43,1.95-5.48,4.57c-2.56-2.63-.21-4.14,1.28-5.49,2.19-2,4.67-1.85,7-.13,6.07,4.41,6,18-.06,22.29-3.58,2.51-8.06.68-9.47-3.75-.46-1.46.9-3.49-1.18-4.42a1.58,1.58,0,0,1-.55-1.09l.17-.63Z" transform="translate(-2.03)"/><path class="cls-18" d="M250.91,295.35c-.12-5.53,1.85-11.28-2.19-16.35-1.49-1.88,1.44-3.29,2.05-3.3,2,0,4.79.07,3.49,3.89l.19.25c-3,4.83-.67,10.44-2,15.51Z" transform="translate(-2.03)"/><path class="cls-19" d="M252.46,295.35c.41-5.21-2.32-10.89,2-15.51.07.49.13,1,.19,1.47C252.15,285.67,255.38,291.07,252.46,295.35Z" transform="translate(-2.03)"/><path class="cls-20" d="M255.88,161.77c3.45.58,1.62,4.45,4.69,5.74-1.35-3.25,3.33-7.83-3.33-8.7-1.48-.19-1.08-2.33-.52-3.83.73-1.94,1.89-2.74,3.67-1.83,4.11,2.11,5.81,6.23,6.84,10.59,1,4.13.22,8.21-2.8,11.13-2.86,2.76-5.43,1.62-7.26-1.74C255.25,169.61,255.73,165.78,255.88,161.77Z" transform="translate(-2.03)"/><path class="cls-21" d="M237.81,172.54c-2.45-7.13-.27-13.11,4-18.55,2.2-1,4.61-2.48,5.72,1.28.88,3-.46,4.33-3.3,4.32-2.54,0-1.47.76-.73,2.42.88,2-2,2.73-2.52,4.63,5.57,3.89,3.56-5.18,7.42-4.88.19,5.21,1.05,10.74-3.87,14C241.55,177.8,239.48,175,237.81,172.54Z" transform="translate(-2.03)"/><path class="cls-22" d="M235.67,278.2a11.34,11.34,0,0,1,2.46-8.24c2-2.45,4.55-2.91,6.66-.52,1.87,2.11,2.43,4.36-1,6.16-1.65.86-1.14,3.92-.23,5.24,2.71,3.92,3.1,5.25.66,7-3.06,2.14-5.16.43-6.86-2.32A11.84,11.84,0,0,1,235.67,278.2Z" transform="translate(-2.03)"/><path d="M100.48,7.54h9.62V8.69h-8.45v5.37h7.88v1.17h-7.88v6.59h-1.17Z" transform="translate(-2.03)"/><path d="M112.64,17.07c.11,2.31,1.52,4,3.66,4a3.27,3.27,0,0,0,3.17-2h1.1a4.41,4.41,0,0,1-4.39,3c-3.06,0-4.65-2.57-4.65-5.25,0-3.13,1.92-5.32,4.59-5.32,3.47,0,4.59,2.83,4.59,5.18v.36Zm6.89-1c-.09-1.42-.79-3.48-3.42-3.48-2.1,0-3.23,1.49-3.43,3.48Z" transform="translate(-2.03)"/><path d="M123,11.81c.61,1.45,3.3,7.83,3.65,8.82h0c.21-.64.82-2.19,3.58-8.82h1.13l-4.18,10h-1.16l-4.25-10Z" transform="translate(-2.03)"/><path d="M133.55,17.07c.11,2.31,1.52,4,3.67,4a3.28,3.28,0,0,0,3.17-2h1.09a4.41,4.41,0,0,1-4.39,3c-3.06,0-4.65-2.57-4.65-5.25,0-3.13,1.93-5.32,4.6-5.32,3.46,0,4.59,2.83,4.59,5.18v.36Zm6.89-1c-.09-1.42-.78-3.48-3.42-3.48-2.1,0-3.23,1.49-3.43,3.48Z" transform="translate(-2.03)"/><path d="M144.13,14.53c0-.9,0-1.82,0-2.72h1.06c0,.26.06,1.28.06,2.39a4,4,0,0,1,3.84-2.67v1.21c-2.15,0-3.84,1.62-3.84,4.62v4.46h-1.1Z" transform="translate(-2.03)"/><path d="M305.92,31h1.16v6H316V31h1.17V45.23H316V38.1h-8.93v7.13h-1.16Z" transform="translate(-2.03)"/><path d="M320.87,40.48c.11,2.31,1.52,4,3.67,4a3.29,3.29,0,0,0,3.17-2h1.09a4.41,4.41,0,0,1-4.39,3c-3.06,0-4.65-2.57-4.65-5.25,0-3.13,1.92-5.32,4.6-5.32,3.46,0,4.59,2.84,4.59,5.19,0,.12,0,.22,0,.35Zm6.89-1c-.09-1.42-.78-3.48-3.42-3.48-2.1,0-3.23,1.49-3.43,3.48Z" transform="translate(-2.03)"/><path d="M339,42.93c0,.8.06,2.06.09,2.3h-1.05a14.12,14.12,0,0,1-.11-1.65c-.48,1.14-1.52,1.93-3.6,1.93-2.67,0-3.6-1.74-3.6-3.19,0-2.52,2.17-3.22,4.77-3.22H338v-.66c0-1.24-.5-2.47-2.8-2.47-2.05,0-2.55,1-2.77,2.13h-1.09c.13-1.37,1-3.16,3.87-3.16S339,36.57,339,38.21ZM338,40.07h-2.39c-2.48,0-3.7.55-3.7,2.19,0,1.19.79,2.19,2.58,2.19,2.93,0,3.51-2,3.51-3.8Z" transform="translate(-2.03)"/><path d="M350.7,30.11V42.27c0,1,0,2,0,3h-1c-.05-.5-.07-1.17-.07-1.73a3.55,3.55,0,0,1-3.58,2c-2.74,0-4.49-2.22-4.49-5.21,0-3.24,2.2-5.36,4.68-5.36s3.13,1.28,3.39,1.82V30.11Zm-8,10.17c0,2,1.14,4.15,3.45,4.15,2.58,0,3.55-1.79,3.55-4.27S348.91,36,346.22,36C343.83,36,342.68,38.16,342.68,40.28Z" transform="translate(-2.03)"/><path d="M361.47,42.93c0,.8.06,2.06.09,2.3h-1.05a14.12,14.12,0,0,1-.11-1.65c-.48,1.14-1.52,1.93-3.6,1.93-2.67,0-3.6-1.74-3.6-3.19,0-2.52,2.17-3.22,4.77-3.22h2.43v-.66c0-1.24-.5-2.47-2.8-2.47-2.05,0-2.55,1-2.77,2.13h-1.09c.13-1.37,1-3.16,3.87-3.16s3.86,1.63,3.86,3.27Zm-1.07-2.86H358c-2.48,0-3.7.55-3.7,2.19,0,1.19.79,2.19,2.58,2.19,2.93,0,3.51-2,3.51-3.8Z" transform="translate(-2.03)"/><path d="M373,42.23a4.3,4.3,0,0,1-4.33,3.28c-3.14,0-4.74-2.39-4.74-5.23s1.8-5.34,4.78-5.34A4.07,4.07,0,0,1,373,38.29H372A3.19,3.19,0,0,0,368.69,36c-2.18,0-3.59,1.76-3.59,4.24s1.35,4.21,3.61,4.21A3.25,3.25,0,0,0,372,42.23Z" transform="translate(-2.03)"/><path d="M376.66,30.11v7.2a3.6,3.6,0,0,1,3.62-2.37c2,0,3.45,1.4,3.45,4.22v6.07h-1.09V39.41c0-1.91-.7-3.37-2.64-3.37-2.27,0-3.34,2-3.34,4.21v5h-1.09V30.11Z" transform="translate(-2.03)"/><path d="M387.31,40.48c.11,2.31,1.52,4,3.66,4a3.27,3.27,0,0,0,3.17-2h1.1a4.41,4.41,0,0,1-4.39,3c-3.06,0-4.65-2.57-4.65-5.25,0-3.13,1.92-5.32,4.59-5.32,3.47,0,4.59,2.84,4.59,5.19v.35Zm6.89-1c-.09-1.42-.79-3.48-3.43-3.48-2.09,0-3.22,1.49-3.42,3.48Z" transform="translate(-2.03)"/><path d="M321.09,99.86a5.68,5.68,0,0,1-6,4.3c-4.21,0-6.65-3.21-6.65-7.4s2.71-7.48,6.71-7.48c3.69,0,5.37,2.11,5.95,4.43h-1.22a4.61,4.61,0,0,0-4.75-3.27c-3.32,0-5.44,2.63-5.44,6.28s2.15,6.28,5.46,6.28a4.58,4.58,0,0,0,4.71-3.14Z" transform="translate(-2.03)"/><path d="M332.62,98.85c0,2.62-1.49,5.29-4.76,5.29-3,0-4.7-2.5-4.7-5.27,0-2.94,1.87-5.3,4.78-5.3S332.62,96.12,332.62,98.85Zm-8.33,0c0,2.09,1.3,4.19,3.61,4.19s3.59-1.93,3.59-4.19-1.35-4.22-3.65-4.22S324.29,96.61,324.29,98.87Z" transform="translate(-2.03)"/><path d="M343.12,100.94c0,1,0,1.94,0,2.92h-1c0-.28-.08-1.13-.08-2a3.16,3.16,0,0,1-3.43,2.26c-2,0-3.5-1.13-3.5-4V93.85h1.09v6c0,1.61.61,3.16,2.51,3.16,2.31,0,3.33-1.45,3.33-4.7V93.85h1.1Z" transform="translate(-2.03)"/><path d="M354.74,102.45c0,3.85-1,6.17-4.74,6.17-3.38,0-4.14-2.16-4.32-3.37h1.13c.31,1.22,1.08,2.31,3.25,2.31,3.15,0,3.61-2.2,3.61-5.09v-.61a3.6,3.6,0,0,1-3.71,2.2c-2.58,0-4.39-2.19-4.39-5.09,0-3.26,2.2-5.4,4.62-5.4,2.21,0,3.17,1.15,3.48,2,0-.56,0-1.46.05-1.76h1c0,1,0,1.92,0,2.88Zm-8-3.54c0,2.4,1.5,4,3.48,4,2.19,0,3.53-1.49,3.53-4.15s-1.29-4.12-3.42-4.12C347.8,94.67,346.7,96.88,346.7,98.91Z" transform="translate(-2.03)"/><path d="M359.17,88.74v7.2a3.57,3.57,0,0,1,3.61-2.37c2,0,3.45,1.4,3.45,4.22v6.07h-1.09V98c0-1.91-.69-3.37-2.64-3.37-2.27,0-3.33,2-3.33,4.21v5h-1.1V88.74Z" transform="translate(-2.03)"/><path d="M62,79.71c.44,1.66,1.72,2.59,3.92,2.59,2.38,0,3.28-.93,3.28-2.22,0-1.14-.58-2-3.6-2.34C62,77.3,61.2,76,61.2,74.55s1-3.21,4.28-3.21c3.65,0,4.53,2.13,4.62,3.36H68.8c-.17-.77-.63-2.18-3.43-2.18-2.35,0-2.87,1.14-2.87,1.93,0,1.06.58,1.7,3.27,2.07,3.83.51,4.67,1.72,4.67,3.48,0,2-1.45,3.49-4.64,3.49S61,82,60.65,79.71Z" transform="translate(-2.03)"/><path d="M73.24,74.56c0-1,0-2,0-2.9h1.21c0,.43.07,1.52.07,2.48a4.06,4.06,0,0,1,4-2.8c2.44,0,4.1,1.61,4.1,4.87v7H81.37V76.5c0-2.21-.78-3.9-3-3.9-2.57,0-3.85,2.18-3.85,5.17v5.4H73.24Z" transform="translate(-2.03)"/><path d="M86.74,77.71c.13,2.65,1.75,4.56,4.22,4.56A3.77,3.77,0,0,0,94.6,80h1.26a5.07,5.07,0,0,1-5,3.47c-3.52,0-5.34-2.95-5.34-6,0-3.61,2.21-6.12,5.28-6.12,4,0,5.28,3.26,5.28,6v.41Zm7.93-1.16c-.11-1.64-.91-4-3.94-4-2.41,0-3.71,1.71-3.94,4Z" transform="translate(-2.03)"/><path d="M99.43,77.71c.12,2.65,1.74,4.56,4.21,4.56A3.76,3.76,0,0,0,107.28,80h1.26a5.07,5.07,0,0,1-5.05,3.47c-3.52,0-5.34-2.95-5.34-6,0-3.61,2.21-6.12,5.28-6.12,4,0,5.28,3.26,5.28,6v.41Zm7.92-1.16c-.11-1.64-.91-4-3.94-4-2.41,0-3.71,1.71-3.94,4Z" transform="translate(-2.03)"/><path d="M110.2,82.08l8.08-9.22h-7.64v-1.2H120v1.13l-8,9.18h8.54l-.3,1.2H110.2Z" transform="translate(-2.03)"/><path d="M122.9,65.79h1.25v2.43H122.9Zm0,5.87h1.25V83.17H122.9Z" transform="translate(-2.03)"/><path d="M127.87,74.56c0-1,0-2,0-2.9h1.22c0,.43.06,1.52.06,2.48a4.07,4.07,0,0,1,4-2.8c2.44,0,4.1,1.61,4.1,4.87v7H136V76.5c0-2.21-.78-3.9-3-3.9-2.57,0-3.85,2.18-3.85,5.17v5.4h-1.26Z" transform="translate(-2.03)"/><path d="M150.63,81.54c0,4.44-1.13,7.1-5.46,7.1-3.88,0-4.75-2.48-5-3.88h1.3c.36,1.41,1.25,2.66,3.74,2.66,3.62,0,4.15-2.53,4.15-5.85v-.7c-.66,1.56-2,2.52-4.26,2.52-3,0-5-2.51-5-5.84,0-3.75,2.53-6.21,5.31-6.21,2.54,0,3.64,1.32,4,2.34,0-.63,0-1.68.07-2h1.19c0,1.1,0,2.21,0,3.31Zm-9.25-4.06c0,2.75,1.72,4.63,4,4.63,2.52,0,4.05-1.71,4.05-4.77S148,72.6,145.51,72.6C142.65,72.6,141.38,75.15,141.38,77.48Z" transform="translate(-2.03)"/><ellipse class="cls-9" cx="242.55" cy="41.24" rx="2" ry="2.16"/><ellipse class="cls-9" cx="249.55" cy="74.74" rx="2" ry="2.16"/><ellipse class="cls-9" cx="249.55" cy="89.87" rx="2" ry="2.16"/><ellipse class="cls-9" cx="260.55" cy="41.24" rx="2" ry="2.16"/><path d="M3.26,165.17V172H2V157H8.17c2.66,0,4.59,1.25,4.59,3.95a3.31,3.31,0,0,1-2.59,3.59c1.09.29,2.23,1.12,2.23,3.71v.61a17.75,17.75,0,0,0,.15,3.12H11.3a14.3,14.3,0,0,1-.13-3v-.51c0-2.57-.94-3.3-3.59-3.3Zm0-1.22H7.81c2.44,0,3.69-.92,3.69-3,0-1.87-1.25-2.77-3.6-2.77H3.26Z" transform="translate(-2.03)"/><path d="M16.2,167c.12,2.42,1.59,4.16,3.85,4.16a3.42,3.42,0,0,0,3.32-2h1.15a4.63,4.63,0,0,1-4.61,3.17c-3.21,0-4.87-2.7-4.87-5.51,0-3.29,2-5.59,4.82-5.59,3.64,0,4.81,3,4.81,5.45V167Zm7.23-1.06c-.1-1.5-.82-3.65-3.59-3.65-2.2,0-3.39,1.56-3.6,3.65Z" transform="translate(-2.03)"/><path d="M27.61,168.83c.4,1.51,1.57,2.36,3.57,2.36,2.17,0,3-.85,3-2s-.52-1.8-3.27-2.13c-3.26-.41-4-1.59-4-2.92s.94-2.93,3.91-2.93c3.33,0,4.14,1.95,4.22,3.07H33.86c-.15-.7-.58-2-3.13-2-2.15,0-2.62,1-2.62,1.76,0,1,.53,1.55,3,1.89,3.5.47,4.27,1.57,4.27,3.18,0,1.87-1.33,3.19-4.24,3.19s-4.35-1.35-4.7-3.45Z" transform="translate(-2.03)"/><path d="M39.07,170.14v6.54H37.92V164.12c0-.88,0-1.76,0-2.65H39c0,.36.06,1.07.06,2.06A4.08,4.08,0,0,1,43,161.18c2.67,0,4.51,2.35,4.51,5.38,0,3.31-2.07,5.72-4.77,5.72A3.71,3.71,0,0,1,39.07,170.14Zm7.25-3.56c0-2-1.1-4.24-3.62-4.24s-3.67,2-3.67,4.45,1.19,4.33,3.63,4.33S46.32,168.88,46.32,166.58Z" transform="translate(-2.03)"/><path d="M50.1,156.12h1.15v2.21H50.1Zm0,5.35h1.15V172H50.1Z" transform="translate(-2.03)"/><path d="M53.47,161.47h2v-3.54h1.14v3.54h2.69v1.09H56.65V169c0,1.37.35,2,1.47,2a4.55,4.55,0,0,0,1-.1v1a3.29,3.29,0,0,1-1.27.17c-1.81,0-2.37-.89-2.37-3v-6.56h-2Z" transform="translate(-2.03)"/><path d="M70.48,166.73c0,2.74-1.57,5.55-5,5.55-3.11,0-4.94-2.63-4.94-5.53,0-3.09,2-5.57,5-5.57S70.48,163.86,70.48,166.73Zm-8.75,0c0,2.19,1.36,4.39,3.79,4.39s3.77-2,3.77-4.39-1.42-4.44-3.83-4.44S61.73,164.37,61.73,166.75Z" transform="translate(-2.03)"/><path d="M73.07,164.33c0-.94,0-1.91,0-2.86h1.11c0,.28.06,1.35.06,2.51a4.24,4.24,0,0,1,4-2.8v1.27c-2.25,0-4,1.7-4,4.85V172H73.07Z" transform="translate(-2.03)"/><path d="M80.93,161.47c2.27,5.48,3.62,8.66,4,9.62h0c.39-1,1.5-4.17,3.66-9.62h1.22L85.67,172c-1.74,4.42-2.44,5-4.4,5a7.42,7.42,0,0,1-1.14-.1v-1.22a8.54,8.54,0,0,0,1.12.1c1.31,0,1.92-.66,3-3.25l-4.6-11Z" transform="translate(-2.03)"/><path d="M98.14,157h5.4c4.38,0,7,3.09,7,7.26,0,4.8-3.06,7.72-7,7.72H98.14Zm1.23,13.78h3.78c4.17,0,6.1-2.92,6.1-6.48,0-3.83-2.45-6.1-5.89-6.1h-4Z" transform="translate(-2.03)"/><path d="M113.57,156.12h1.14v2.21h-1.14Zm0,5.35h1.14V172h-1.14Z" transform="translate(-2.03)"/><path d="M118.45,168.83c.4,1.51,1.57,2.36,3.57,2.36,2.17,0,3-.85,3-2s-.52-1.8-3.28-2.13c-3.26-.41-4-1.59-4-2.92s.94-2.93,3.91-2.93c3.33,0,4.14,1.95,4.22,3.07H124.7c-.15-.7-.58-2-3.13-2-2.14,0-2.62,1-2.62,1.76,0,1,.54,1.55,3,1.89,3.49.47,4.26,1.57,4.26,3.18,0,1.87-1.32,3.19-4.24,3.19s-4.35-1.35-4.7-3.45Z" transform="translate(-2.03)"/><path d="M127.29,161.47h2v-3.54h1.14v3.54h2.69v1.09h-2.69V169c0,1.37.35,2,1.47,2a4.55,4.55,0,0,0,1-.1v1a3.29,3.29,0,0,1-1.27.17c-1.81,0-2.37-.89-2.37-3v-6.56h-2Z" transform="translate(-2.03)"/><path d="M135.19,164.33c0-.94,0-1.91,0-2.86h1.11c0,.28.06,1.35.06,2.51a4.25,4.25,0,0,1,4-2.8v1.27c-2.25,0-4,1.7-4,4.85V172h-1.15Z" transform="translate(-2.03)"/><path d="M142.56,167c.12,2.42,1.6,4.16,3.85,4.16a3.42,3.42,0,0,0,3.32-2h1.15a4.63,4.63,0,0,1-4.61,3.17c-3.21,0-4.87-2.7-4.87-5.51,0-3.29,2-5.59,4.82-5.59,3.64,0,4.81,3,4.81,5.45V167Zm7.23-1.06c-.09-1.5-.82-3.65-3.59-3.65-2.2,0-3.39,1.56-3.6,3.65Z" transform="translate(-2.03)"/><path d="M154,168.83c.4,1.51,1.57,2.36,3.57,2.36,2.17,0,3-.85,3-2s-.52-1.8-3.28-2.13c-3.26-.41-4-1.59-4-2.92s.93-2.93,3.9-2.93c3.33,0,4.14,1.95,4.22,3.07h-1.19c-.15-.7-.58-2-3.13-2-2.14,0-2.62,1-2.62,1.76,0,1,.54,1.55,3,1.89,3.49.47,4.26,1.57,4.26,3.18,0,1.87-1.32,3.19-4.24,3.19s-4.35-1.35-4.69-3.45Z" transform="translate(-2.03)"/><path d="M164.63,168.83c.41,1.51,1.58,2.36,3.58,2.36,2.17,0,3-.85,3-2s-.52-1.8-3.27-2.13c-3.26-.41-4-1.59-4-2.92s.94-2.93,3.91-2.93c3.33,0,4.14,1.95,4.22,3.07h-1.19c-.15-.7-.58-2-3.13-2-2.15,0-2.63,1-2.63,1.76,0,1,.54,1.55,3,1.89,3.5.47,4.27,1.57,4.27,3.18,0,1.87-1.33,3.19-4.24,3.19s-4.35-1.35-4.7-3.45Z" transform="translate(-2.03)"/><path d="M13.72,263.44h1.11v7.07c2-1.75,5.75-5,8.13-7.07h1.55l-6.64,5.79,7,7.76H23.37L17,269.87l-2.15,1.81V277H13.72Z" transform="translate(-2.03)"/><path d="M26.89,262.64h1v2h-1Zm0,4.85h1V277h-1Z" transform="translate(-2.03)"/><path d="M39,262.64v11.54c0,.93,0,1.88,0,2.81H38a14.24,14.24,0,0,1-.08-1.63,3.35,3.35,0,0,1-3.39,1.9c-2.6,0-4.26-2.11-4.26-4.94,0-3.09,2.08-5.1,4.43-5.1s3,1.22,3.22,1.73v-6.31Zm-7.62,9.66c0,1.89,1.08,3.93,3.28,3.93,2.45,0,3.38-1.69,3.38-4s-.74-3.94-3.3-3.94C32.44,268.25,31.34,270.28,31.34,272.3Z" transform="translate(-2.03)"/><path d="M42,269.88c0-.8,0-1.67,0-2.39h1c0,.36.06,1.26.06,2a3.36,3.36,0,0,1,3.33-2.31c2,0,3.38,1.34,3.38,4V277h-1v-5.51c0-1.82-.64-3.21-2.49-3.21-2.12,0-3.18,1.8-3.18,4.27V277H42Z" transform="translate(-2.03)"/><path d="M53.19,272.48c.11,2.2,1.44,3.77,3.48,3.77a3.1,3.1,0,0,0,3-1.85h1a4.17,4.17,0,0,1-4.17,2.86c-2.9,0-4.41-2.44-4.41-5,0-3,1.82-5.06,4.36-5.06,3.29,0,4.36,2.7,4.36,4.93v.33Zm6.54-1c-.08-1.35-.74-3.31-3.25-3.31-2,0-3.06,1.41-3.25,3.31Z" transform="translate(-2.03)"/><path d="M63.27,267.49c2.06,4.95,3.27,7.83,3.59,8.7h0c.35-.94,1.36-3.78,3.31-8.7h1.11L67.56,277c-1.58,4-2.21,4.52-4,4.52a7.43,7.43,0,0,1-1-.09v-1.11a7.24,7.24,0,0,0,1,.1c1.18,0,1.74-.61,2.72-2.94l-4.16-10Z" transform="translate(-2.03)"/><path d="M78.86,263.44H88v1.08H80v5.11h7.48v1.11H80V277H78.86Z" transform="translate(-2.03)"/><path d="M97,274.81c0,.76.06,2,.09,2.18h-1a12.46,12.46,0,0,1-.1-1.56c-.46,1.08-1.45,1.83-3.43,1.83-2.53,0-3.41-1.65-3.41-3,0-2.39,2.06-3.06,4.53-3.06h2.3v-.62c0-1.18-.47-2.35-2.66-2.35-2,0-2.41,1-2.62,2h-1c.12-1.31.91-3,3.68-3S97,268.77,97,270.33Zm-1-2.72H93.67c-2.35,0-3.51.53-3.51,2.08,0,1.13.75,2.09,2.45,2.09,2.78,0,3.33-1.87,3.33-3.61Z" transform="translate(-2.03)"/><path d="M100.13,262.64h1v2h-1Zm0,4.85h1V277h-1Z" transform="translate(-2.03)"/><path d="M104.33,277V262.64h1V277Z" transform="translate(-2.03)"/><path d="M116.07,274.22c0,.93,0,1.84,0,2.77h-1c0-.26-.07-1.07-.07-1.87a3,3,0,0,1-3.26,2.14c-1.88,0-3.33-1.07-3.33-3.83v-5.94h1v5.71c0,1.53.58,3,2.39,3,2.19,0,3.16-1.38,3.16-4.47v-4.24h1Z" transform="translate(-2.03)"/><path d="M119.15,270.07c0-.85,0-1.73,0-2.58h1c0,.25.06,1.22.06,2.27a3.84,3.84,0,0,1,3.65-2.54v1.15c-2,0-3.65,1.54-3.65,4.39V277h-1Z" transform="translate(-2.03)"/><path d="M125.82,272.48c.1,2.2,1.44,3.77,3.48,3.77a3.11,3.11,0,0,0,3-1.85h1a4.19,4.19,0,0,1-4.17,2.86c-2.91,0-4.41-2.44-4.41-5,0-3,1.82-5.06,4.36-5.06,3.29,0,4.36,2.7,4.36,4.93v.33Zm6.54-1c-.08-1.35-.74-3.31-3.25-3.31-2,0-3.06,1.41-3.25,3.31Z" transform="translate(-2.03)"/><path class="cls-23" d="M243.71,32.29c-4.15-2-8.32-4-12.6-5.7L225.4,40.46c3.95,1.58,7.79,3.41,11.62,5.26Z" transform="translate(-2.03)"/><polygon class="cls-24" points="229.19 35.34 229.79 33.97 227.5 33.01 226.92 34.39 229.19 35.34"/><polygon class="cls-24" points="233.22 37.15 233.85 35.79 231.59 34.77 230.98 36.14 233.22 37.15"/><polygon class="cls-24" points="237.19 39.05 237.85 37.7 235.62 36.63 234.97 37.98 237.19 39.05"/><path class="cls-23" d="M231.11,26.59c-2.12-.91-4.29-1.68-6.43-2.53s-4.33-1.59-6.53-2.28L213.44,36c2,.63,4,1.41,6,2.1s4,1.49,5.94,2.34Z" transform="translate(-2.03)"/><path class="cls-24" d="M218.88,30.52l.5-1.42c-.78-.27-1.55-.56-2.34-.81l-.48,1.42C217.34,30,218.11,30.25,218.88,30.52Z" transform="translate(-2.03)"/><path class="cls-24" d="M223,32l.53-1.4c-.77-.31-1.54-.6-2.32-.87l-.52,1.41C221.5,31.44,222.27,31.73,223,32Z" transform="translate(-2.03)"/><path class="cls-24" d="M227.13,33.63l.56-1.39c-.76-.33-1.54-.61-2.31-.91l-.54,1.4C225.6,33,226.37,33.3,227.13,33.63Z" transform="translate(-2.03)"/><path class="cls-23" d="M218.15,21.78c-4.36-1.48-8.8-2.71-13.25-3.89l-3.71,14.53c4.11,1.1,8.22,2.23,12.25,3.6Z" transform="translate(-2.03)"/><polygon class="cls-24" points="204.2 26.56 204.6 25.12 202.2 24.47 201.82 25.92 204.2 26.56"/><polygon class="cls-24" points="208.44 27.78 208.87 26.34 206.5 25.64 206.08 27.08 208.44 27.78"/><polygon class="cls-24" points="212.64 29.09 213.1 27.67 210.75 26.9 210.3 28.34 212.64 29.09"/><path class="cls-23" d="M204.9,17.89c-4.48-1.09-9-2.15-13.51-2.93l-2.67,14.76c4.19.72,8.34,1.7,12.47,2.7Z" transform="translate(-2.03)"/><polygon class="cls-24" points="191.31 23.49 191.6 22.02 189.16 21.57 188.89 23.04 191.31 23.49"/><polygon class="cls-24" points="195.62 24.41 195.95 22.95 193.53 22.43 193.22 23.9 195.62 24.41"/><polygon class="cls-24" points="199.9 25.43 200.26 23.98 197.85 23.4 197.51 24.86 199.9 25.43"/><path class="cls-23" d="M191.39,15c-2.26-.45-4.55-.75-6.82-1.13s-4.56-.64-6.86-.85l-1.62,14.91c2.12.19,4.22.53,6.33.79s4.21.62,6.3,1Z" transform="translate(-2.03)"/><path class="cls-24" d="M180.26,21.36l.19-1.48c-.82-.11-1.64-.23-2.46-.31l-.17,1.49C178.63,21.14,179.44,21.26,180.26,21.36Z" transform="translate(-2.03)"/><path class="cls-24" d="M184.63,22l.22-1.48c-.81-.14-1.63-.26-2.45-.36l-.21,1.49C183,21.72,183.82,21.84,184.63,22Z" transform="translate(-2.03)"/><path class="cls-24" d="M189,22.68l.26-1.48c-.81-.16-1.63-.27-2.45-.4l-.24,1.48C187.35,22.41,188.17,22.52,189,22.68Z" transform="translate(-2.03)"/><path class="cls-23" d="M177.71,13c-4.57-.54-9.18-.8-13.79-1l-.55,15c4.24.21,8.49.45,12.72.95Z" transform="translate(-2.03)"/><polygon class="cls-24" points="165.03 20.15 165.11 18.66 162.63 18.53 162.57 20.03 165.03 20.15"/><polygon class="cls-24" points="169.43 20.45 169.55 18.96 167.08 18.77 166.98 20.26 169.43 20.45"/><polygon class="cls-24" points="173.81 20.86 173.97 19.36 171.5 19.11 171.36 20.6 173.81 20.86"/><path class="cls-23" d="M270.18,46.06a84.9,84.9,0,0,1,11.43-2.86L279,28.44a98.17,98.17,0,0,0-13.49,3.37Z" transform="translate(-2.03)"/><polygon class="cls-24" points="274.89 35.94 275.2 37.4 277.52 36.94 277.24 35.46 274.89 35.94"/><path class="cls-24" d="M272.74,36.94l.38,1.45c.76-.19,1.52-.4,2.29-.57l-.35-1.46C274.28,36.54,273.51,36.75,272.74,36.94Z" transform="translate(-2.03)"/><path class="cls-24" d="M268.62,38.14l.45,1.43c.75-.23,1.5-.47,2.26-.68l-.42-1.44C270.14,37.66,269.38,37.9,268.62,38.14Z" transform="translate(-2.03)"/><path class="cls-23" d="M281.61,43.2A82.59,82.59,0,0,1,293.34,42l-.53-15A95.55,95.55,0,0,0,279,28.44Z" transform="translate(-2.03)"/><path class="cls-24" d="M289.71,34.12l.11,1.5c.78,0,1.56-.12,2.35-.14L292.1,34C291.3,34,290.51,34.07,289.71,34.12Z" transform="translate(-2.03)"/><path class="cls-24" d="M285.42,34.53,285.6,36c.78-.1,1.56-.18,2.35-.25l-.14-1.49C287,34.34,286.22,34.43,285.42,34.53Z" transform="translate(-2.03)"/><path class="cls-24" d="M281.18,35.13l.24,1.48c.78-.14,1.56-.24,2.34-.36l-.21-1.48C282.76,34.89,282,35,281.18,35.13Z" transform="translate(-2.03)"/><path class="cls-23" d="M293.34,42a82.56,82.56,0,0,1,11.77.41l1.6-14.92a99.28,99.28,0,0,0-13.9-.48Z" transform="translate(-2.03)"/><path class="cls-24" d="M302.62,34.11l-.1,1.49c.79,0,1.57.12,2.35.2l.15-1.5C304.22,34.23,303.42,34.15,302.62,34.11Z" transform="translate(-2.03)"/><path class="cls-24" d="M298.33,33.91l0,1.49c.79,0,1.57.06,2.36.09l.07-1.5C299.92,34,299.13,33.92,298.33,33.91Z" transform="translate(-2.03)"/><polygon class="cls-24" points="292 33.91 292.04 35.41 294.4 35.38 294.4 33.88 292 33.91"/><path class="cls-23" d="M187.86,89.07q5.43-2,11-3.46L195,71.11Q188.79,72.78,182.7,75Z" transform="translate(-2.03)"/><polygon class="cls-24" points="191.72 78.7 192.14 80.14 194.31 79.52 193.91 78.08 191.72 78.7"/><polygon class="cls-24" points="187.8 79.91 188.27 81.33 190.42 80.65 189.98 79.21 187.8 79.91"/><polygon class="cls-24" points="183.94 81.22 184.45 82.64 186.58 81.89 186.1 80.47 183.94 81.22"/><path class="cls-23" d="M198.89,85.61c3.72-1,7.5-1.79,11.3-2.45l-2.51-14.79c-4.25.74-8.48,1.61-12.64,2.74Z" transform="translate(-2.03)"/><path class="cls-24" d="M205.71,75.81l.28,1.48c.74-.14,1.48-.31,2.22-.42L208,75.39C207.2,75.51,206.45,75.67,205.71,75.81Z" transform="translate(-2.03)"/><path class="cls-24" d="M201.7,76.65l.33,1.47c.73-.16,1.46-.34,2.2-.49l-.3-1.47C203.18,76.31,202.44,76.49,201.7,76.65Z" transform="translate(-2.03)"/><polygon class="cls-24" points="195.7 77.61 196.07 79.07 198.26 78.51 197.91 77.05 195.7 77.61"/><path class="cls-23" d="M210.19,83.16c3.8-.66,7.64-1.14,11.49-1.42l-1.17-15q-6.45.5-12.83,1.59Z" transform="translate(-2.03)"/><path class="cls-24" d="M217.87,74l.15,1.5c.75-.09,1.5-.15,2.25-.21l-.12-1.5C219.39,73.87,218.63,73.92,217.87,74Z" transform="translate(-2.03)"/><path class="cls-24" d="M213.8,74.49,214,76c.75-.11,1.49-.2,2.24-.28l-.17-1.49C215.31,74.29,214.56,74.38,213.8,74.49Z" transform="translate(-2.03)"/><path class="cls-24" d="M209.77,75.09l.24,1.48c.74-.13,1.48-.25,2.23-.35L212,74.74C211.27,74.83,210.52,75,209.77,75.09Z" transform="translate(-2.03)"/><path class="cls-23" d="M221.68,81.74c3.84-.29,7.7-.46,11.56-.38l.2-15c-4.32-.08-8.63.1-12.93.42Z" transform="translate(-2.03)"/><polygon class="cls-24" points="228.12 73.32 228.13 74.82 230.39 74.83 230.4 73.33 228.12 73.32"/><path class="cls-24" d="M226.06,73.43l.06,1.5c.75,0,1.5-.05,2.25-.07l0-1.5C227.58,73.38,226.82,73.39,226.06,73.43Z" transform="translate(-2.03)"/><path class="cls-24" d="M222,73.66l.11,1.49c.75-.07,1.5-.09,2.25-.13l-.08-1.5C223.5,73.57,222.74,73.59,222,73.66Z" transform="translate(-2.03)"/><path class="cls-23" d="M233.24,81.36q5.77.09,11.54.67l1.57-14.91q-6.43-.66-12.91-.76Z" transform="translate(-2.03)"/><polygon class="cls-24" points="240.41 73.76 240.29 75.25 242.54 75.46 242.68 73.97 240.41 73.76"/><polygon class="cls-24" points="236.32 73.49 236.25 74.98 238.5 75.12 238.6 73.63 236.32 73.49"/><polygon class="cls-24" points="232.24 73.34 232.21 74.84 234.47 74.91 234.52 73.42 232.24 73.34"/><path class="cls-23" d="M255.52,97.14c4.27.83,8.6,1.67,13,2.42L271,84.77c-4.16-.7-8.36-1.52-12.61-2.35Z" transform="translate(-2.03)"/><polygon class="cls-24" points="264.5 91.06 264.24 92.53 266.62 92.95 266.88 91.48 264.5 91.06"/><polygon class="cls-24" points="260.24 90.27 259.96 91.74 262.34 92.19 262.62 90.71 260.24 90.27"/><rect class="cls-25" x="258.33" y="89.2" width="1.5" height="2.42" transform="translate(118.67 327.37) rotate(-78.95)"/><path class="cls-23" d="M268.52,99.56c4.4.74,8.88,1.39,13.45,1.82l1.41-14.93c-4.08-.39-8.2-1-12.36-1.68Z" transform="translate(-2.03)"/><polygon class="cls-24" points="277.34 93.03 277.17 94.52 279.58 94.78 279.74 93.28 277.34 93.03"/><path class="cls-24" d="M275.09,92.46l-.21,1.48c.8.12,1.6.24,2.4.33l.2-1.48C276.68,92.69,275.88,92.58,275.09,92.46Z" transform="translate(-2.03)"/><polygon class="cls-24" points="268.8 91.8 268.55 93.28 270.95 93.67 271.18 92.18 268.8 91.8"/><path class="cls-23" d="M282,101.38a112.83,112.83,0,0,0,13.94.5l-.46-15a98.19,98.19,0,0,1-12.07-.44Z" transform="translate(-2.03)"/><polygon class="cls-24" points="290.27 93.89 290.26 95.39 292.7 95.37 292.67 93.87 290.27 93.89"/><path class="cls-24" d="M288,93.76l-.07,1.5c.81,0,1.62.08,2.44.09l0-1.5C289.6,93.84,288.79,93.81,288,93.76Z" transform="translate(-2.03)"/><polygon class="cls-24" points="281.67 93.47 281.54 94.96 283.97 95.16 284.07 93.66 281.67 93.47"/><path class="cls-23" d="M295.91,101.88a81.46,81.46,0,0,0,14.23-1.63l-3.07-14.69a66.36,66.36,0,0,1-11.62,1.33Z" transform="translate(-2.03)"/><polygon class="cls-24" points="303.16 92.99 303.4 94.47 305.81 94.03 305.52 92.56 303.16 92.99"/><path class="cls-24" d="M300.92,93.51l.15,1.5c.81-.07,1.62-.16,2.43-.28l-.19-1.49C302.52,93.36,301.72,93.45,300.92,93.51Z" transform="translate(-2.03)"/><polygon class="cls-24" points="294.61 93.81 294.67 95.31 297.12 95.18 297.01 93.68 294.61 93.81"/><rect class="cls-23" x="212.99" y="154.28" width="15" height="12.92" transform="translate(28.94 357.05) rotate(-82.1)"/><rect class="cls-25" x="215.51" y="158.73" width="1.5" height="2.4" transform="translate(26.09 352.15) rotate(-82.1)"/><rect class="cls-25" x="219.77" y="159.32" width="1.5" height="2.4" transform="translate(29.18 356.88) rotate(-82.1)"/><rect class="cls-25" x="224.02" y="159.91" width="1.5" height="2.4" transform="translate(32.26 361.6) rotate(-82.1)"/><rect class="cls-23" x="200.19" y="152.5" width="15" height="12.92" transform="translate(19.66 342.84) rotate(-82.1)"/><rect class="cls-25" x="202.71" y="156.96" width="1.5" height="2.4" transform="translate(16.81 337.94) rotate(-82.1)"/><rect class="cls-25" x="206.97" y="157.55" width="1.5" height="2.4" transform="translate(19.89 342.67) rotate(-82.1)"/><rect class="cls-25" x="211.22" y="158.14" width="1.5" height="2.4" transform="translate(22.97 347.38) rotate(-82.1)"/><rect class="cls-23" x="187.39" y="150.73" width="15" height="12.92" transform="translate(10.38 328.63) rotate(-82.1)"/><rect class="cls-25" x="189.91" y="155.18" width="1.5" height="2.4" transform="translate(7.52 323.73) rotate(-82.1)"/><rect class="cls-25" x="194.17" y="155.77" width="1.5" height="2.4" transform="translate(10.61 328.46) rotate(-82.1)"/><rect class="cls-25" x="198.42" y="156.36" width="1.5" height="2.4" transform="translate(13.69 333.18) rotate(-82.1)"/><path class="cls-23" d="M189.52,148.87c-4.26-.58-8.51-1.2-12.92-1.74L174.78,162c4.14.51,8.41,1.13,12.68,1.72Z" transform="translate(-2.03)"/><polygon class="cls-24" points="176.91 155.52 177.11 154.03 174.72 153.72 174.54 155.21 176.91 155.52"/><rect class="cls-25" x="181.37" y="154" width="1.5" height="2.4" transform="translate(1.37 314.3) rotate(-82.11)"/><rect class="cls-25" x="185.62" y="154.58" width="1.5" height="2.4" transform="translate(4.41 318.97) rotate(-82.1)"/><path class="cls-23" d="M176.6,147.13c-4.4-.54-8.91-1-13.53-1.14l-.51,15c4,.13,8.07.52,12.22,1Z" transform="translate(-2.03)"/><path class="cls-24" d="M166.13,154.18l.1-1.5-2.42-.13-.06,1.5Z" transform="translate(-2.03)"/><polygon class="cls-24" points="168.37 154.52 168.51 153.03 166.11 152.82 165.99 154.31 168.37 154.52"/><polygon class="cls-24" points="172.62 154.98 172.8 153.49 170.4 153.22 170.24 154.71 172.62 154.98"/><path class="cls-23" d="M163.07,146a85.32,85.32,0,0,0-14.13.61l2,14.87a71.24,71.24,0,0,1,11.66-.49Z" transform="translate(-2.03)"/><path class="cls-24" d="M153.3,154.21l-.12-1.5c-.81.07-1.62.14-2.43.24l.18,1.49C151.72,154.35,152.51,154.28,153.3,154.21Z" transform="translate(-2.03)"/><path class="cls-24" d="M157.56,154l0-1.5c-.81,0-1.62.05-2.43.1l.08,1.5C156,154,156.77,154,157.56,154Z" transform="translate(-2.03)"/><path class="cls-24" d="M161.82,154l0-1.5c-.81,0-1.61,0-2.42,0V154C160.23,154,161,154,161.82,154Z" transform="translate(-2.03)"/><path class="cls-23" d="M148.94,146.6a61.37,61.37,0,0,0-14.25,3.57l5.45,14a46.45,46.45,0,0,1,10.76-2.67Z" transform="translate(-2.03)"/><path class="cls-24" d="M140.74,156.56l-.45-1.44c-.78.25-1.55.5-2.32.79l.52,1.41C139.23,157,140,156.79,140.74,156.56Z" transform="translate(-2.03)"/><path class="cls-24" d="M144.85,155.46l-.33-1.46c-.79.18-1.58.36-2.37.58l.39,1.45C143.31,155.82,144.08,155.64,144.85,155.46Z" transform="translate(-2.03)"/><path class="cls-24" d="M149,154.69l-.22-1.48c-.8.12-1.61.25-2.4.4l.27,1.48C147.46,154.93,148.24,154.81,149,154.69Z" transform="translate(-2.03)"/><path class="cls-23" d="M230.42,264.75c-2.16-.67-4.31-1.4-6.5-2l-3.28-.89-1.64-.45-1.65-.39-3.52,14.58,1.49.35,1.48.4,3,.81c2,.56,3.9,1.22,5.86,1.82Z" transform="translate(-2.03)"/><path class="cls-24" d="M218.71,269.63l.38-1.45c-.78-.21-1.55-.45-2.34-.61l-.36,1.45C217.17,269.19,217.93,269.43,218.71,269.63Z" transform="translate(-2.03)"/><path class="cls-24" d="M222.84,270.78l.43-1.44c-.77-.24-1.55-.43-2.33-.65l-.4,1.44C221.31,270.35,222.08,270.54,222.84,270.78Z" transform="translate(-2.03)"/><polygon class="cls-24" points="224.89 272.07 225.36 270.64 223.06 269.91 222.61 271.35 224.89 272.07"/><path class="cls-23" d="M217.35,261c-2.21-.51-4.41-1.05-6.65-1.45l-3.33-.64-3.36-.52-2.25,14.83,3,.47,3,.58c2,.36,4,.85,6,1.31Z" transform="translate(-2.03)"/><polygon class="cls-24" points="204.08 266.84 204.34 265.37 201.95 264.99 201.71 266.47 204.08 266.84"/><polygon class="cls-24" points="208.3 267.66 208.6 266.19 206.22 265.73 205.95 267.2 208.3 267.66"/><polygon class="cls-24" points="212.48 268.58 212.82 267.12 210.46 266.57 210.14 268.04 212.48 268.58"/><path class="cls-23" d="M204,258.39c-4.48-.71-9-1.15-13.51-1.47l-1,15c4.09.29,8.18.68,12.23,1.33Z" transform="translate(-2.03)"/><polygon class="cls-24" points="191.29 265.19 191.42 263.7 189.01 263.51 188.9 265.01 191.29 265.19"/><polygon class="cls-24" points="195.56 265.63 195.73 264.14 193.33 263.87 193.18 265.36 195.56 265.63"/><path class="cls-24" d="M201.84,266.18l.21-1.48c-.79-.13-1.59-.26-2.39-.34l-.19,1.49C200.26,265.93,201.05,266.06,201.84,266.18Z" transform="translate(-2.03)"/><path class="cls-23" d="M190.5,256.92c-2.26-.15-4.52-.2-6.79-.31s-4.53,0-6.79,0l.31,15c2.05-.05,4.11,0,6.16,0s4.1.14,6.14.28Z" transform="translate(-2.03)"/><polygon class="cls-24" points="178.4 264.63 178.41 263.13 175.99 263.13 176.01 264.62 178.4 264.63"/><path class="cls-24" d="M184.73,264.69l0-1.5c-.8,0-1.61-.06-2.41-.05l0,1.5C183.13,264.63,183.93,264.65,184.73,264.69Z" transform="translate(-2.03)"/><polygon class="cls-24" points="186.97 264.86 187.06 263.37 184.65 263.27 184.58 264.77 186.97 264.86"/><path class="cls-23" d="M176.92,256.62c-4.53.13-9,.37-13.56.88l1.6,14.91c4.07-.46,8.17-.68,12.27-.79Z" transform="translate(-2.03)"/><path class="cls-24" d="M167.55,265.15l-.13-1.49c-.8,0-1.6.14-2.41.23l.15,1.49C166,265.29,166.75,265.2,167.55,265.15Z" transform="translate(-2.03)"/><polygon class="cls-24" points="169.8 264.85 169.72 263.35 167.3 263.52 167.41 265.02 169.8 264.85"/><polygon class="cls-24" points="174.08 264.69 174.04 263.19 171.62 263.27 171.68 264.77 174.08 264.69"/><path class="cls-23" d="M163.36,257.5l-3.37.37-3.37.5c-2.24.3-4.47.74-6.7,1.16l2.88,14.71c2-.37,4-.77,6.06-1l3-.45,3.06-.34Z" transform="translate(-2.03)"/><polygon class="cls-24" points="152.72 266.79 152.47 265.31 150.09 265.76 150.37 267.23 152.72 266.79"/><polygon class="cls-24" points="156.97 266.13 156.75 264.65 154.36 265 154.6 266.49 156.97 266.13"/><polygon class="cls-24" points="161.21 265.59 161.04 264.1 158.64 264.37 158.83 265.86 161.21 265.59"/><path class="cls-23" d="M149.92,259.53l-1.67.31-1.66.38-3.32.75c-2.2.52-4.38,1.16-6.58,1.73l4.17,14.41c2-.52,3.95-1.09,5.94-1.56l3-.68,1.5-.34,1.51-.29Z" transform="translate(-2.03)"/><polygon class="cls-24" points="140.12 269.55 139.74 268.1 137.4 268.73 137.81 270.17 140.12 269.55"/><path class="cls-24" d="M146.32,268.51l-.34-1.46c-.78.18-1.57.34-2.35.55l.36,1.46C144.76,268.85,145.55,268.69,146.32,268.51Z" transform="translate(-2.03)"/><path class="cls-24" d="M150.5,267.59l-.29-1.47c-.8.13-1.58.34-2.37.51l.32,1.46C148.94,267.92,149.72,267.72,150.5,267.59Z" transform="translate(-2.03)"/></g></g></svg>