<svg xmlns="http://www.w3.org/2000/svg" viewBox="0 0 481.87 369.55"><defs><style>.cls-1{fill:#2e3571;stroke:#000;stroke-miterlimit:10;stroke-width:0.5px;}</style></defs><title>p2e30</title><g id="Layer_2" data-name="Layer 2"><g id="Layer_1-2" data-name="Layer 1"><path class="cls-1" d="M20.44,18.14A41.17,41.17,0,0,1,18.68,23a29.25,29.25,0,0,1-5.85.77c-7.65,0-11.55-5.09-11.55-10.69,0-6.53,5-11,12.12-11a32.68,32.68,0,0,1,6,.74c.13,1.44.35,3.36.61,5l-1,.22c-.64-2.14-1.41-3.46-3-4.13a8.84,8.84,0,0,0-3.36-.61C7.39,3.19,4.6,7.1,4.6,12.38c0,6.17,3.2,10.14,8.39,10.14,3.26,0,4.86-1.5,6.49-4.7Z"/><path class="cls-1" d="M30.43,8.83a6.87,6.87,0,0,1,7,7.16c0,5.19-3.84,7.65-7,7.65a7,7,0,0,1-7.11-7.13A7.33,7.33,0,0,1,30.43,8.83ZM30,9.91c-1.95,0-3.71,1.89-3.71,5.6,0,4.07,1.79,7,4.42,7,2,0,3.64-1.44,3.64-5.82C34.39,13,32.86,9.91,30,9.91Z"/><path class="cls-1" d="M46.84,23.26H39.48v-.9c2-.19,2.21-.35,2.21-2.43V13.27c0-2.11-.13-2.2-2-2.43V10a17.7,17.7,0,0,0,4.51-1.31v3.52c1.12-1.66,2.46-3.42,4.06-3.42a1.65,1.65,0,0,1,1.86,1.53,2.13,2.13,0,0,1-1.09,1.76.63.63,0,0,1-.83-.06,2,2,0,0,0-1.44-.8c-.67,0-1.86,1-2.56,2.62v6c0,2.11.16,2.27,2.62,2.46Z"/><path class="cls-1" d="M58.36,8.83a6.88,6.88,0,0,1,7,7.16c0,5.19-3.84,7.65-7,7.65a7,7,0,0,1-7.1-7.13A7.32,7.32,0,0,1,58.36,8.83ZM58,9.91c-1.95,0-3.71,1.89-3.71,5.6,0,4.07,1.79,7,4.41,7,2,0,3.65-1.44,3.65-5.82C62.33,13,60.79,9.91,58,9.91Z"/><path class="cls-1" d="M76.6,23.26v-.9c1.86-.19,2.05-.42,2.05-2.59V14.49c0-2.24-.8-3.74-2.91-3.74a5.56,5.56,0,0,0-3.55,1.66V19.9c0,2.2.19,2.27,2.08,2.46v.9H67.35v-.9c2.12-.22,2.31-.35,2.31-2.46V13.31c0-2.08-.23-2.18-2-2.47V10a18.42,18.42,0,0,0,4.48-1.28v2.53c.64-.45,1.34-.93,2.17-1.47a4.89,4.89,0,0,1,2.66-1c2.56,0,4.16,1.88,4.16,5V19.9c0,2.17.19,2.27,2,2.46v.9Z"/><path class="cls-1" d="M95.39,23.64A2.37,2.37,0,0,1,93.88,23a3,3,0,0,1-.77-1.44c-1.28.87-2.84,2.05-3.84,2.05a3.92,3.92,0,0,1-3.9-3.93c0-1.57.86-2.6,2.62-3.2a25.79,25.79,0,0,0,5.06-2.08v-.64c0-2.28-1.15-3.59-2.82-3.59a1.84,1.84,0,0,0-1.5.74A6.72,6.72,0,0,0,87.87,13a.89.89,0,0,1-.93.73,1.54,1.54,0,0,1-1.41-1.4c0-.45.42-.84,1.06-1.28a13.14,13.14,0,0,1,4.6-2.24,4.19,4.19,0,0,1,4.32,4.57v6.18c0,1.47.55,1.92,1.12,1.92a2.6,2.6,0,0,0,1.16-.35l.32.89Zm-2.34-8.09c-.7.35-2.24,1-3,1.34-1.21.54-1.95,1.15-1.95,2.34a2.33,2.33,0,0,0,2.31,2.46,4.24,4.24,0,0,0,2.62-1.15Z"/><path class="cls-1" d="M112.76,10.07c-1.73.23-2,.48-2.78,2.4-1.06,2.56-2.88,6.82-4.55,11.14h-.92c-1.35-3.68-2.92-7.49-4.42-11.23-.74-1.86-1-2.05-2.66-2.31V9.21H104v.86c-1.76.23-1.82.45-1.31,1.83.8,2.21,2.14,5.6,3,7.84,1.15-2.85,2.21-5.47,2.91-7.52.55-1.57.45-1.92-1.66-2.15V9.21h5.82Z"/><path class="cls-1" d="M113.82,23.26v-.9c2-.19,2.24-.35,2.24-2.53V13.24c0-2-.1-2.11-2-2.43V10a20.87,20.87,0,0,0,4.55-1.28V19.83c0,2.18.22,2.34,2.3,2.53v.9Zm3.33-17.63a1.75,1.75,0,0,1-1.7-1.7,1.73,1.73,0,0,1,1.73-1.76,1.68,1.68,0,0,1,1.63,1.76A1.7,1.7,0,0,1,117.15,5.63Z"/><path class="cls-1" d="M129.88,23.26h-7.36v-.9c2-.19,2.21-.35,2.21-2.43V13.27c0-2.11-.13-2.2-2-2.43V10a17.7,17.7,0,0,0,4.51-1.31v3.52c1.12-1.66,2.46-3.42,4.06-3.42a1.65,1.65,0,0,1,1.86,1.53,2.13,2.13,0,0,1-1.09,1.76.63.63,0,0,1-.83-.06,2,2,0,0,0-1.44-.8c-.67,0-1.86,1-2.56,2.62v6c0,2.11.16,2.27,2.62,2.46Z"/><path class="cls-1" d="M150.33,22.52a36.11,36.11,0,0,0-4.9,1.12V21.18c-1.72,1.44-3.13,2.46-4.89,2.46-2.15,0-4-1.31-4-4.8V12.63c0-1.72-.26-1.92-1.06-2.08l-.89-.16V9.56A43.15,43.15,0,0,0,139.16,9c-.09,1-.09,2.56-.09,4.67V18c0,2.82,1.47,3.61,2.91,3.61a5,5,0,0,0,3.45-1.53V12.63c0-1.72-.38-2-1.47-2.11l-1-.13V9.56A46.16,46.16,0,0,0,148,9V19.71c0,1.6.26,1.82,1.47,1.88l.9,0Z"/><path class="cls-1" d="M160.09,13c-.58-1.86-1.41-3.14-3.36-3.14a1.94,1.94,0,0,0-2,2.08c0,1.38.92,2,2.72,2.85,2.75,1.31,4.12,2.27,4.12,4.38,0,2.95-2.68,4.45-5.21,4.45a8.26,8.26,0,0,1-3.81-.9c-.16-.92-.45-2.68-.58-3.74l.93-.16c.58,2.05,1.7,3.71,3.94,3.71a2.13,2.13,0,0,0,2.24-2.17c0-1.44-.87-2.18-2.56-3-2.24-1.09-4.07-2.11-4.07-4.42s2-4.12,5-4.12a17.14,17.14,0,0,1,3.07.41c.09.77.32,2.79.48,3.55Z"/><path class="cls-1" d="M175.54,20.54c-2,2.56-4.28,3.1-5.31,3.1-3.9,0-6.27-3.2-6.27-6.88a8.24,8.24,0,0,1,2.08-5.6,6.58,6.58,0,0,1,4.77-2.33,5,5,0,0,1,4.89,5c0,.64-.12.92-.64,1.05s-4.73.42-8.54.55c-.09,4.28,2.53,6,4.8,6A5.39,5.39,0,0,0,175,19.8ZM170,10c-1.47,0-2.91,1.38-3.36,4,1.79,0,3.59,0,5.47-.1.58,0,.77-.16.77-.64A3,3,0,0,0,170,10Z"/><path class="cls-1" d="M186,13c-.58-1.86-1.41-3.14-3.36-3.14a2,2,0,0,0-2,2.08c0,1.38.93,2,2.72,2.85,2.75,1.31,4.13,2.27,4.13,4.38,0,2.95-2.69,4.45-5.21,4.45a8.26,8.26,0,0,1-3.81-.9c-.16-.92-.45-2.68-.58-3.74l.93-.16c.58,2.05,1.69,3.71,3.93,3.71A2.13,2.13,0,0,0,185,20.38c0-1.44-.86-2.18-2.56-3-2.24-1.09-4.06-2.11-4.06-4.42s2-4.12,5-4.12a17,17,0,0,1,3.07.41c.1.77.32,2.79.48,3.55Z"/><path class="cls-1" d="M207.29,23.64a2.37,2.37,0,0,1-1.51-.61,3,3,0,0,1-.76-1.44c-1.28.87-2.85,2.05-3.84,2.05a3.92,3.92,0,0,1-3.91-3.93c0-1.57.87-2.6,2.63-3.2a25.92,25.92,0,0,0,5-2.08v-.64c0-2.28-1.15-3.59-2.81-3.59a1.85,1.85,0,0,0-1.51.74,7,7,0,0,0-.86,2.08.89.89,0,0,1-.93.73,1.54,1.54,0,0,1-1.41-1.4c0-.45.42-.84,1.06-1.28a13.2,13.2,0,0,1,4.61-2.24,4.36,4.36,0,0,1,2.68.86,4.44,4.44,0,0,1,1.64,3.71v6.18c0,1.47.54,1.92,1.12,1.92a2.56,2.56,0,0,0,1.15-.35L210,22ZM205,15.55c-.7.35-2.24,1-3,1.34-1.22.54-2,1.15-2,2.34a2.33,2.33,0,0,0,2.31,2.46A4.24,4.24,0,0,0,205,20.54Z"/><path class="cls-1" d="M218.71,23.26h-7.36v-.9c2-.19,2.21-.35,2.21-2.43V13.27c0-2.11-.13-2.2-2-2.43V10a17.7,17.7,0,0,0,4.51-1.31v3.52c1.12-1.66,2.46-3.42,4.06-3.42A1.65,1.65,0,0,1,222,10.36a2.13,2.13,0,0,1-1.09,1.76.63.63,0,0,1-.83-.06,2,2,0,0,0-1.44-.8c-.67,0-1.86,1-2.56,2.62v6c0,2.11.16,2.27,2.62,2.46Z"/><path class="cls-1" d="M234.71,20.54c-2.05,2.56-4.29,3.1-5.31,3.1-3.9,0-6.27-3.2-6.27-6.88a8.24,8.24,0,0,1,2.08-5.6A6.56,6.56,0,0,1,230,8.83a5,5,0,0,1,4.89,5c0,.64-.13.92-.64,1.05s-4.73.42-8.54.55c-.1,4.28,2.53,6,4.8,6a5.39,5.39,0,0,0,3.71-1.63ZM229.21,10c-1.47,0-2.91,1.38-3.36,4,1.79,0,3.58,0,5.47-.1.58,0,.77-.16.77-.64A3,3,0,0,0,229.21,10Z"/><path class="cls-1" d="M254.52,23.64A2.32,2.32,0,0,1,253,23a2.93,2.93,0,0,1-.77-1.44c-1.28.87-2.85,2.05-3.84,2.05a3.93,3.93,0,0,1-3.91-3.93c0-1.57.87-2.6,2.63-3.2a25.92,25.92,0,0,0,5.05-2.08v-.64c0-2.28-1.15-3.59-2.81-3.59a1.85,1.85,0,0,0-1.51.74A7,7,0,0,0,247,13a.89.89,0,0,1-.93.73,1.54,1.54,0,0,1-1.41-1.4c0-.45.42-.84,1.06-1.28a13.2,13.2,0,0,1,4.61-2.24,4.19,4.19,0,0,1,4.32,4.57v6.18c0,1.47.54,1.92,1.12,1.92a2.56,2.56,0,0,0,1.15-.35l.32.89Zm-2.34-8.09c-.7.35-2.24,1-3,1.34-1.22.54-2,1.15-2,2.34a2.33,2.33,0,0,0,2.3,2.46,4.24,4.24,0,0,0,2.62-1.15Z"/><path class="cls-1" d="M270.55,18.58a2.35,2.35,0,0,0-1.06,1.61c0,.57.55,1.21,2,1.21l3.58,0c2.05,0,4.67.67,4.67,3.84,0,3.33-3.93,6.46-8.19,6.46-3.61,0-5.57-2.11-5.63-4a2.53,2.53,0,0,1,.8-1.82,32,32,0,0,1,2.62-2.31,4.19,4.19,0,0,1-2.4-1.72,3,3,0,0,1-.38-1.38,6.71,6.71,0,0,0,2.94-2.21Zm1.54.33c-3,0-5.44-1.83-5.44-4.84,0-3.64,3.26-5.34,5.76-5.34a6.6,6.6,0,0,1,3.07.8,21.88,21.88,0,0,0,4.29-.48l.19.29A3.92,3.92,0,0,1,278.77,11c-.48,0-1.53-.12-2-.16a5,5,0,0,1,.93,2.92C277.72,17.27,274.84,18.91,272.09,18.91Zm.73,4.73c-1.57,0-2.27.19-2.85.67a3.71,3.71,0,0,0-1.53,2.63c0,1.76,1.82,3.07,4.29,3.07,3,0,4.76-1.57,4.76-3.62a2.39,2.39,0,0,0-1.4-2.33A8.45,8.45,0,0,0,272.82,23.64Zm-.73-13.89c-1.44,0-2.72,1.32-2.72,3.84s1.28,4.29,3,4.29c1.4-.06,2.65-1.25,2.65-3.84S273.88,9.75,272.09,9.75Z"/><path class="cls-1" d="M288.41,23.26h-7.36v-.9c2-.19,2.2-.35,2.2-2.43V13.27c0-2.11-.12-2.2-2-2.43V10a17.46,17.46,0,0,0,4.51-1.31v3.52c1.12-1.66,2.47-3.42,4.07-3.42a1.65,1.65,0,0,1,1.85,1.53,2.13,2.13,0,0,1-1.09,1.76.64.64,0,0,1-.83-.06,2,2,0,0,0-1.44-.8c-.67,0-1.85,1-2.56,2.62v6c0,2.11.16,2.27,2.63,2.46Z"/><path class="cls-1" d="M299.93,8.83a6.87,6.87,0,0,1,7,7.16c0,5.19-3.84,7.65-7,7.65a7,7,0,0,1-7.11-7.13A7.33,7.33,0,0,1,299.93,8.83Zm-.39,1.08c-2,0-3.71,1.89-3.71,5.6,0,4.07,1.79,7,4.42,7,2,0,3.64-1.44,3.64-5.82C303.89,13,302.36,9.91,299.54,9.91Z"/><path class="cls-1" d="M324.66,22.52a36.32,36.32,0,0,0-4.89,1.12V21.18c-1.73,1.44-3.14,2.46-4.9,2.46-2.14,0-4-1.31-4-4.8V12.63c0-1.72-.26-1.92-1.06-2.08l-.89-.16V9.56A42.82,42.82,0,0,0,313.49,9c-.09,1-.09,2.56-.09,4.67V18c0,2.82,1.47,3.61,2.91,3.61a5.08,5.08,0,0,0,3.46-1.53V12.63c0-1.72-.39-2-1.48-2.11l-1-.13V9.56a45.85,45.85,0,0,0,5-.57V19.71c0,1.6.26,1.82,1.48,1.88l.89,0Z"/><path class="cls-1" d="M326,9.88a20.83,20.83,0,0,0,4.64-1.37v2.56c.1-.07,2.66-1.54,2.79-1.6a4.48,4.48,0,0,1,1.85-.64c3.52,0,5.67,2.94,5.67,6.11,0,4.86-3.84,7.93-8,8.7a5.26,5.26,0,0,1-2.28-.58v4.32c0,2.37.26,2.56,2.72,2.79v.89h-7.58v-.89c2.08-.23,2.34-.39,2.34-2.53V13.08c0-1.92-.07-2.05-2.12-2.33Zm4.64,10.95a4.68,4.68,0,0,0,3,1.24c2.79,0,4.58-2.33,4.58-5.92s-2-5.4-4.29-5.4a6.42,6.42,0,0,0-3.33,1.37Z"/><path class="cls-1" d="M358,8.83A6.87,6.87,0,0,1,365,16c0,5.19-3.84,7.65-7,7.65a7,7,0,0,1-7.11-7.13A7.33,7.33,0,0,1,358,8.83Zm-.39,1.08c-1.95,0-3.71,1.89-3.71,5.6,0,4.07,1.79,7,4.42,7,2,0,3.64-1.44,3.64-5.82C362,13,360.44,9.91,357.62,9.91Z"/><path class="cls-1" d="M369.21,9.21V8.35A8.22,8.22,0,0,1,372,2a6.59,6.59,0,0,1,3.59-1.7,3.61,3.61,0,0,1,2.59,1,1,1,0,0,1,.19,1.12,2.63,2.63,0,0,1-.77,1,.73.73,0,0,1-.93-.07A4.15,4.15,0,0,0,374.1,2c-2.37,0-2.37,3.23-2.37,5.67v1.5h3.4a1.22,1.22,0,0,1-.32,1.31h-3.08v9.25c0,2.3.36,2.33,2.76,2.59v.9H367v-.9c2-.19,2.24-.32,2.24-2.4V10.52h-2.28l-.12-.35.7-1Z"/><path class="cls-1" d="M397.72,10.07c-1.73.23-2,.48-2.79,2.4-1.05,2.56-2.88,6.82-4.54,11.14h-.93c-1.34-3.68-2.91-7.49-4.41-11.23-.74-1.86-1-2.05-2.66-2.31V9.21h6.53v.86c-1.76.23-1.83.45-1.31,1.83.8,2.21,2.14,5.6,3,7.84,1.16-2.85,2.21-5.47,2.92-7.52.54-1.57.44-1.92-1.67-2.15V9.21h5.83Z"/><path class="cls-1" d="M398.77,23.26v-.9c2-.19,2.24-.35,2.24-2.53V13.24c0-2-.09-2.11-2-2.43V10a20.93,20.93,0,0,0,4.54-1.28V19.83c0,2.18.23,2.34,2.3,2.53v.9ZM402.1,5.63a1.74,1.74,0,0,1-1.69-1.7,1.72,1.72,0,0,1,1.72-1.76,1.68,1.68,0,0,1,1.64,1.76A1.71,1.71,0,0,1,402.1,5.63Z"/><path class="cls-1" d="M414.84,23.26h-7.36v-.9c2-.19,2.2-.35,2.2-2.43V13.27c0-2.11-.12-2.2-2-2.43V10a17.46,17.46,0,0,0,4.51-1.31v3.52c1.12-1.66,2.47-3.42,4.07-3.42a1.65,1.65,0,0,1,1.85,1.53A2.13,2.13,0,0,1,417,12.12a.64.64,0,0,1-.83-.06,2,2,0,0,0-1.44-.8c-.67,0-1.85,1-2.56,2.62v6c0,2.11.16,2.27,2.63,2.46Z"/><path class="cls-1" d="M435.28,22.52a36.32,36.32,0,0,0-4.89,1.12V21.18c-1.73,1.44-3.14,2.46-4.9,2.46-2.14,0-4-1.31-4-4.8V12.63c0-1.72-.25-1.92-1.05-2.08l-.9-.16V9.56A43,43,0,0,0,424.12,9c-.1,1-.1,2.56-.1,4.67V18c0,2.82,1.47,3.61,2.91,3.61a5.07,5.07,0,0,0,3.46-1.53V12.63c0-1.72-.39-2-1.47-2.11l-1-.13V9.56a46.43,46.43,0,0,0,5-.57V19.71c0,1.6.25,1.82,1.47,1.88l.89,0Z"/><path class="cls-1" d="M445,13c-.57-1.86-1.4-3.14-3.36-3.14a1.94,1.94,0,0,0-2,2.08c0,1.38.93,2,2.72,2.85,2.75,1.31,4.13,2.27,4.13,4.38,0,2.95-2.69,4.45-5.22,4.45a8.33,8.33,0,0,1-3.81-.9c-.16-.92-.44-2.68-.57-3.74l.93-.16c.57,2.05,1.69,3.71,3.93,3.71a2.13,2.13,0,0,0,2.24-2.17c0-1.44-.86-2.18-2.56-3-2.24-1.09-4.06-2.11-4.06-4.42s2-4.12,5-4.12a17.14,17.14,0,0,1,3.07.41c.1.77.32,2.79.48,3.55Z"/><path class="cls-1" d="M460.5,20.54c-2.05,2.56-4.29,3.1-5.31,3.1-3.91,0-6.27-3.2-6.27-6.88a8.19,8.19,0,0,1,2.08-5.6,6.56,6.56,0,0,1,4.76-2.33,5,5,0,0,1,4.9,5c0,.64-.13.92-.64,1.05s-4.74.42-8.54.55c-.1,4.28,2.52,6,4.8,6A5.41,5.41,0,0,0,460,19.8ZM455,10c-1.48,0-2.92,1.38-3.36,4,1.79,0,3.58,0,5.47-.1.57,0,.76-.16.76-.64A3,3,0,0,0,455,10Z"/><path class="cls-1" d="M470.93,13c-.57-1.86-1.41-3.14-3.36-3.14a1.94,1.94,0,0,0-2,2.08c0,1.38.93,2,2.72,2.85,2.75,1.31,4.13,2.27,4.13,4.38,0,2.95-2.69,4.45-5.22,4.45a8.3,8.3,0,0,1-3.81-.9c-.16-.92-.45-2.68-.57-3.74l.92-.16c.58,2.05,1.7,3.71,3.94,3.71a2.13,2.13,0,0,0,2.24-2.17c0-1.44-.86-2.18-2.56-3-2.24-1.09-4.06-2.11-4.06-4.42s2-4.12,5-4.12a17.14,17.14,0,0,1,3.07.41c.1.77.32,2.79.48,3.55Z"/><path class="cls-1" d="M7.13,61.62A3.18,3.18,0,0,1,5.76,62c-2,0-3.14-1.25-3.14-3.81V48.92H.41l-.13-.38.87-.93H2.62V44.92c.61-.64,1.54-1.47,2.14-2.11l.48.06c-.06,1.35-.09,3.2-.09,4.74H8.8a1,1,0,0,1-.2,1.31H5.15v8.19c0,2.6,1,3.08,1.85,3.08a4.52,4.52,0,0,0,2-.52l.28.83Z"/><path class="cls-1" d="M19.39,61.66v-.9c1.85-.19,2.11-.35,2.11-2.46V53.05c0-2.66-1-4-3.17-4a4.57,4.57,0,0,0-3.39,1.67V58.3c0,2.08.26,2.27,2.18,2.46v.9h-7v-.9c1.86-.16,2.27-.32,2.27-2.46V42.87c0-1.69-.09-2.11-2.24-2.3v-.83a19.67,19.67,0,0,0,4.77-1.09V49.56a7.22,7.22,0,0,1,4.64-2.33c2.62,0,4.45,1.63,4.45,5.47v5.63c0,2.11.25,2.27,2.11,2.43v.9Z"/><path class="cls-1" d="M38.23,62a2.35,2.35,0,0,1-1.5-.61A2.93,2.93,0,0,1,36,60c-1.28.87-2.84,2-3.84,2a3.92,3.92,0,0,1-3.9-3.94c0-1.56.86-2.59,2.62-3.19a25.79,25.79,0,0,0,5.06-2.08v-.64c0-2.28-1.15-3.59-2.82-3.59a1.84,1.84,0,0,0-1.5.74,6.72,6.72,0,0,0-.86,2.08.89.89,0,0,1-.93.73,1.54,1.54,0,0,1-1.41-1.4c0-.45.42-.84,1.06-1.28A13.14,13.14,0,0,1,34,47.23a4.19,4.19,0,0,1,4.32,4.57V58c0,1.47.55,1.92,1.12,1.92a2.42,2.42,0,0,0,1.15-.36l.32.9ZM35.9,54c-.7.35-2.24,1-3,1.34-1.21.54-2,1.15-2,2.33a2.33,2.33,0,0,0,2.31,2.47,4.24,4.24,0,0,0,2.62-1.15Z"/><path class="cls-1" d="M48.25,61.62a3.18,3.18,0,0,1-1.37.42c-2.05,0-3.14-1.25-3.14-3.81V48.92H41.53l-.13-.38.87-.93h1.47V44.92c.61-.64,1.54-1.47,2.14-2.11l.48.06c-.06,1.35-.09,3.2-.09,4.74h3.64a1,1,0,0,1-.19,1.31H46.27v8.19c0,2.6,1,3.08,1.85,3.08a4.52,4.52,0,0,0,2-.52l.28.83Z"/><path class="cls-1" d="M71.26,58.78C69.85,60.63,67.71,62,65.79,62a6.45,6.45,0,0,1-6.47-6.72,7.6,7.6,0,0,1,3.23-6.27,8.49,8.49,0,0,1,4.87-1.82,4.71,4.71,0,0,1,3,.86,1,1,0,0,1,.52.93,1.61,1.61,0,0,1-1.16,1.44c-.16,0-.28-.07-.6-.32a4.76,4.76,0,0,0-3.24-1.35c-2.11,0-4,1.8-4,5.12,0,4.45,3,5.92,4.86,5.92a5.12,5.12,0,0,0,3.9-1.76Z"/><path class="cls-1" d="M83.13,62a2.35,2.35,0,0,1-1.5-.61A2.93,2.93,0,0,1,80.86,60c-1.28.87-2.85,2-3.84,2a3.93,3.93,0,0,1-3.91-3.94c0-1.56.87-2.59,2.63-3.19a25.92,25.92,0,0,0,5.05-2.08v-.64c0-2.28-1.15-3.59-2.81-3.59a1.85,1.85,0,0,0-1.51.74,7,7,0,0,0-.86,2.08.89.89,0,0,1-.93.73,1.54,1.54,0,0,1-1.41-1.4c0-.45.42-.84,1.06-1.28a13.2,13.2,0,0,1,4.61-2.24,4.19,4.19,0,0,1,4.32,4.57V58c0,1.47.54,1.92,1.12,1.92a2.46,2.46,0,0,0,1.15-.36l.32.9ZM80.79,54c-.7.35-2.24,1-3,1.34-1.22.54-1.95,1.15-1.95,2.33a2.33,2.33,0,0,0,2.3,2.47,4.24,4.24,0,0,0,2.62-1.15Z"/><path class="cls-1" d="M102.39,60.92A37.92,37.92,0,0,0,97.5,62V59.58C95.77,61,94.36,62,92.6,62c-2.14,0-4-1.31-4-4.8V51c0-1.72-.25-1.92-1-2.08l-.9-.16V48a43,43,0,0,0,4.58-.57c-.1,1-.1,2.56-.1,4.67v4.35C91.13,59.23,92.6,60,94,60a5.07,5.07,0,0,0,3.46-1.53V51c0-1.72-.39-2-1.47-2.11l-1-.13V48a46.43,46.43,0,0,0,5-.57V58.1c0,1.61.25,1.83,1.47,1.89l.89,0Z"/><path class="cls-1" d="M112.15,51.42c-.57-1.86-1.4-3.14-3.36-3.14a1.94,1.94,0,0,0-2,2.08c0,1.38.93,2,2.72,2.85,2.75,1.31,4.13,2.27,4.13,4.38,0,2.95-2.69,4.45-5.22,4.45a8.48,8.48,0,0,1-3.81-.89c-.16-.93-.44-2.69-.57-3.75l.93-.16c.57,2,1.69,3.71,3.93,3.71a2.13,2.13,0,0,0,2.24-2.17c0-1.44-.86-2.18-2.56-3-2.24-1.09-4.06-2.11-4.06-4.42s2-4.12,5-4.12a17.14,17.14,0,0,1,3.07.41c.1.77.32,2.79.48,3.55Z"/><path class="cls-1" d="M127.61,58.94c-2,2.56-4.29,3.1-5.31,3.1-3.91,0-6.27-3.2-6.27-6.88a8.19,8.19,0,0,1,2.08-5.6,6.56,6.56,0,0,1,4.76-2.33,5,5,0,0,1,4.9,5c0,.64-.13.92-.64,1.05s-4.74.42-8.54.55c-.1,4.28,2.52,6,4.8,6a5.41,5.41,0,0,0,3.71-1.63Zm-5.5-10.5c-1.48,0-2.92,1.38-3.36,4,1.79,0,3.58,0,5.47-.1.57,0,.77-.16.77-.64A3,3,0,0,0,122.11,48.44Z"/><path class="cls-1" d="M152.73,60.86a33.06,33.06,0,0,0-5,1.18V60c-.58.35-1.41.8-2,1.15a5.8,5.8,0,0,1-2.53.93c-2.56,0-5.95-2.56-5.95-7s3.9-7.77,8.28-7.77a6.46,6.46,0,0,1,2.18.35V42.87c0-2-.23-2.11-2.5-2.3v-.83a32.36,32.36,0,0,0,5-1.09V57.94c0,1.67.22,1.89,1.4,2l1,.06Zm-5-10.75a4,4,0,0,0-3.36-1.64c-1.54,0-4.26,1-4.26,5.64,0,3.87,2.4,5.91,4.45,6a5.74,5.74,0,0,0,3.17-1.16Z"/><path class="cls-1" d="M154.23,61.66v-.9c2-.19,2.24-.35,2.24-2.53V51.64c0-2-.09-2.11-2-2.43v-.77A20.93,20.93,0,0,0,159,47.16V58.23c0,2.18.22,2.34,2.3,2.53v.9ZM157.56,44a1.74,1.74,0,0,1-1.69-1.7,1.72,1.72,0,0,1,1.72-1.76,1.67,1.67,0,0,1,1.63,1.76A1.7,1.7,0,0,1,157.56,44Z"/><path class="cls-1" d="M171.1,51.42c-.58-1.86-1.41-3.14-3.36-3.14a2,2,0,0,0-2,2.08c0,1.38.93,2,2.72,2.85,2.75,1.31,4.13,2.27,4.13,4.38,0,2.95-2.69,4.45-5.21,4.45a8.41,8.41,0,0,1-3.81-.89c-.16-.93-.45-2.69-.58-3.75l.93-.16c.58,2,1.69,3.71,3.94,3.71a2.13,2.13,0,0,0,2.23-2.17c0-1.44-.86-2.18-2.56-3-2.23-1.09-4.06-2.11-4.06-4.42s2-4.12,5-4.12a17,17,0,0,1,3.07.41c.1.77.32,2.79.48,3.55Z"/><path class="cls-1" d="M186.55,58.94c-2.05,2.56-4.29,3.1-5.31,3.1-3.9,0-6.27-3.2-6.27-6.88a8.24,8.24,0,0,1,2.08-5.6,6.56,6.56,0,0,1,4.77-2.33,5,5,0,0,1,4.89,5c0,.64-.13.92-.64,1.05s-4.73.42-8.54.55c-.1,4.28,2.53,6,4.8,6A5.39,5.39,0,0,0,186,58.2Zm-5.5-10.5c-1.47,0-2.91,1.38-3.36,4,1.79,0,3.58,0,5.47-.1.58,0,.77-.16.77-.64A3,3,0,0,0,181.05,48.44Z"/><path class="cls-1" d="M199.06,62a2.35,2.35,0,0,1-1.5-.61,2.93,2.93,0,0,1-.77-1.44c-1.28.87-2.85,2-3.84,2a3.92,3.92,0,0,1-3.9-3.94c0-1.56.86-2.59,2.62-3.19a26.34,26.34,0,0,0,5.06-2.08v-.64c0-2.28-1.15-3.59-2.82-3.59a1.84,1.84,0,0,0-1.5.74,7,7,0,0,0-.87,2.08.88.88,0,0,1-.92.73,1.54,1.54,0,0,1-1.41-1.4c0-.45.41-.84,1-1.28a13.29,13.29,0,0,1,4.61-2.24,4.19,4.19,0,0,1,4.32,4.57V58c0,1.47.55,1.92,1.12,1.92a2.42,2.42,0,0,0,1.15-.36l.32.9ZM196.73,54c-.71.35-2.24,1-3,1.34-1.21.54-1.95,1.15-1.95,2.33a2.33,2.33,0,0,0,2.3,2.47,4.24,4.24,0,0,0,2.63-1.15Z"/><path class="cls-1" d="M211.22,51.42c-.57-1.86-1.4-3.14-3.36-3.14a1.94,1.94,0,0,0-2,2.08c0,1.38.93,2,2.72,2.85,2.75,1.31,4.13,2.27,4.13,4.38,0,2.95-2.69,4.45-5.22,4.45a8.48,8.48,0,0,1-3.81-.89c-.16-.93-.44-2.69-.57-3.75l.93-.16c.57,2,1.69,3.71,3.93,3.71a2.13,2.13,0,0,0,2.24-2.17c0-1.44-.86-2.18-2.56-3-2.24-1.09-4.06-2.11-4.06-4.42s2-4.12,5-4.12a17.14,17.14,0,0,1,3.07.41c.1.77.32,2.79.48,3.55Z"/><path class="cls-1" d="M226.68,58.94c-2.05,2.56-4.29,3.1-5.31,3.1-3.91,0-6.27-3.2-6.27-6.88a8.19,8.19,0,0,1,2.08-5.6,6.56,6.56,0,0,1,4.76-2.33,5,5,0,0,1,4.9,5c0,.64-.13.92-.64,1.05s-4.74.42-8.54.55c-.1,4.28,2.52,6,4.79,6a5.41,5.41,0,0,0,3.72-1.63Zm-5.5-10.5c-1.48,0-2.92,1.38-3.36,4,1.79,0,3.58,0,5.47-.1.57,0,.77-.16.77-.64A3,3,0,0,0,221.18,48.44Z"/><path class="cls-1" d="M237.11,51.42c-.57-1.86-1.41-3.14-3.36-3.14a1.94,1.94,0,0,0-2,2.08c0,1.38.93,2,2.72,2.85,2.75,1.31,4.12,2.27,4.12,4.38,0,2.95-2.68,4.45-5.21,4.45a8.45,8.45,0,0,1-3.81-.89c-.16-.93-.45-2.69-.57-3.75l.92-.16c.58,2,1.7,3.71,3.94,3.71a2.13,2.13,0,0,0,2.24-2.17c0-1.44-.87-2.18-2.56-3-2.24-1.09-4.06-2.11-4.06-4.42s2-4.12,5-4.12a17.14,17.14,0,0,1,3.07.41c.09.77.32,2.79.48,3.55Z"/><path class="cls-1" d="M248.12,61.66v-.9c2-.19,2.24-.35,2.24-2.53V51.64c0-2-.1-2.11-2-2.43v-.77a20.87,20.87,0,0,0,4.55-1.28V58.23c0,2.18.22,2.34,2.3,2.53v.9ZM251.45,44a1.75,1.75,0,0,1-1.7-1.7,1.73,1.73,0,0,1,1.73-1.76,1.68,1.68,0,0,1,1.63,1.76A1.7,1.7,0,0,1,251.45,44Z"/><path class="cls-1" d="M266,61.66v-.9c1.85-.19,2-.42,2-2.59V52.89c0-2.24-.8-3.74-2.91-3.74a5.56,5.56,0,0,0-3.55,1.66V58.3c0,2.2.19,2.27,2.08,2.46v.9h-6.91v-.9c2.11-.22,2.3-.35,2.3-2.46V51.71c0-2.08-.22-2.18-1.95-2.47v-.83a18.17,18.17,0,0,0,4.48-1.28v2.53c.64-.45,1.34-.93,2.18-1.47a4.83,4.83,0,0,1,2.65-1c2.56,0,4.16,1.88,4.16,5V58.3c0,2.17.19,2.27,2.05,2.46v.9Z"/><path class="cls-1" d="M299.54,61.66v-.9c1.89-.19,2.11-.32,2.11-2.56V52.86c0-2.27-.77-3.71-2.75-3.71a5.82,5.82,0,0,0-3.55,1.66c0,.38.09.77.09,1.38v6.2c0,2,.29,2.18,2.05,2.37v.9h-6.84v-.9c2-.19,2.27-.32,2.27-2.43v-5.5c0-2.37-.74-3.68-2.69-3.68a6.12,6.12,0,0,0-3.52,1.66v7.52c0,2.11.22,2.24,2.05,2.43v.9h-6.88v-.9c2.11-.19,2.3-.32,2.3-2.43V51.71c0-2.05-.13-2.18-1.92-2.5v-.8a17,17,0,0,0,4.45-1.28v2.59a22.23,22.23,0,0,1,2.37-1.66,4.34,4.34,0,0,1,2.52-.83,3.74,3.74,0,0,1,3.49,2.62c.9-.7,1.73-1.25,2.53-1.79a4.82,4.82,0,0,1,2.53-.83c2.49,0,4,1.79,4,4.92v6.18c0,2.14.19,2.24,2,2.43v.9Z"/><path class="cls-1" d="M318.39,62a2.37,2.37,0,0,1-1.51-.61,3,3,0,0,1-.76-1.44c-1.28.87-2.85,2-3.84,2a3.93,3.93,0,0,1-3.91-3.94c0-1.56.87-2.59,2.63-3.19a25.92,25.92,0,0,0,5.05-2.08v-.64c0-2.28-1.15-3.59-2.81-3.59a1.85,1.85,0,0,0-1.51.74,7,7,0,0,0-.86,2.08.89.89,0,0,1-.93.73,1.54,1.54,0,0,1-1.41-1.4c0-.45.42-.84,1.06-1.28a13.2,13.2,0,0,1,4.61-2.24,4.36,4.36,0,0,1,2.68.86,4.44,4.44,0,0,1,1.64,3.71V58c0,1.47.54,1.92,1.12,1.92a2.46,2.46,0,0,0,1.15-.36l.32.9ZM316.05,54c-.7.35-2.24,1-3,1.34-1.22.54-2,1.15-2,2.33a2.34,2.34,0,0,0,2.31,2.47,4.24,4.24,0,0,0,2.62-1.15Z"/><path class="cls-1" d="M340,61.66v-.9c1.89-.19,2.11-.32,2.11-2.56V52.86c0-2.27-.77-3.71-2.75-3.71a5.82,5.82,0,0,0-3.55,1.66c0,.38.09.77.09,1.38v6.2c0,2,.29,2.18,2.05,2.37v.9h-6.85v-.9c2-.19,2.28-.32,2.28-2.43v-5.5c0-2.37-.74-3.68-2.69-3.68a6.12,6.12,0,0,0-3.52,1.66v7.52c0,2.11.22,2.24,2.05,2.43v.9h-6.88v-.9c2.11-.19,2.3-.32,2.3-2.43V51.71c0-2.05-.13-2.18-1.92-2.5v-.8a17.08,17.08,0,0,0,4.45-1.28v2.59a22.23,22.23,0,0,1,2.37-1.66,4.34,4.34,0,0,1,2.52-.83,3.74,3.74,0,0,1,3.49,2.62c.9-.7,1.73-1.25,2.53-1.79a4.82,4.82,0,0,1,2.53-.83c2.49,0,4,1.79,4,4.92v6.18c0,2.14.19,2.24,2,2.43v.9Z"/><path class="cls-1" d="M366.16,61.66v-.9c1.89-.19,2.12-.32,2.12-2.56V52.86c0-2.27-.77-3.71-2.76-3.71A5.87,5.87,0,0,0,362,50.81a13.51,13.51,0,0,1,.1,1.38v6.2c0,2,.29,2.18,2.05,2.37v.9h-6.85v-.9c2-.19,2.27-.32,2.27-2.43v-5.5c0-2.37-.74-3.68-2.69-3.68a6.12,6.12,0,0,0-3.52,1.66v7.52c0,2.11.23,2.24,2.05,2.43v.9H348.5v-.9c2.11-.19,2.3-.32,2.3-2.43V51.71c0-2.05-.12-2.18-1.92-2.5v-.8a17,17,0,0,0,4.45-1.28v2.59a23.31,23.31,0,0,1,2.37-1.66,4.35,4.35,0,0,1,2.53-.83,3.75,3.75,0,0,1,3.49,2.62c.89-.7,1.72-1.25,2.52-1.79a4.85,4.85,0,0,1,2.53-.83c2.5,0,4,1.79,4,4.92v6.18c0,2.14.19,2.24,2,2.43v.9Z"/><path class="cls-1" d="M385,62a2.35,2.35,0,0,1-1.5-.61,2.93,2.93,0,0,1-.77-1.44c-1.28.87-2.85,2-3.84,2A3.92,3.92,0,0,1,375,58.1c0-1.56.86-2.59,2.62-3.19a26.34,26.34,0,0,0,5.06-2.08v-.64c0-2.28-1.16-3.59-2.82-3.59a1.83,1.83,0,0,0-1.5.74,6.7,6.7,0,0,0-.87,2.08.89.89,0,0,1-.93.73,1.54,1.54,0,0,1-1.4-1.4c0-.45.41-.84,1-1.28a13.29,13.29,0,0,1,4.61-2.24,4.19,4.19,0,0,1,4.32,4.57V58c0,1.47.54,1.92,1.12,1.92a2.46,2.46,0,0,0,1.15-.36l.32.9ZM382.68,54c-.71.35-2.24,1-3,1.34-1.22.54-1.95,1.15-1.95,2.33a2.33,2.33,0,0,0,2.3,2.47,4.27,4.27,0,0,0,2.63-1.15Z"/><path class="cls-1" d="M388.6,61.66v-.9c2-.19,2.3-.35,2.3-2.46V43c0-1.95-.16-2.14-2.21-2.4v-.83a22.89,22.89,0,0,0,4.74-1.09V58.3c0,2.11.19,2.27,2.27,2.46v.9Z"/><path class="cls-1" d="M405.56,51.42c-.58-1.86-1.41-3.14-3.36-3.14a2,2,0,0,0-2,2.08c0,1.38.93,2,2.72,2.85,2.75,1.31,4.13,2.27,4.13,4.38,0,2.95-2.69,4.45-5.22,4.45a8.4,8.4,0,0,1-3.8-.89c-.16-.93-.45-2.69-.58-3.75l.93-.16c.57,2,1.69,3.71,3.93,3.71a2.13,2.13,0,0,0,2.24-2.17c0-1.44-.86-2.18-2.56-3-2.24-1.09-4.06-2.11-4.06-4.42s2-4.12,5-4.12a17,17,0,0,1,3.07.41c.1.77.32,2.79.48,3.55Z"/><path class="cls-1" d="M426.87,62a2.37,2.37,0,0,1-1.51-.61,3,3,0,0,1-.77-1.44c-1.28.87-2.84,2-3.83,2a3.93,3.93,0,0,1-3.91-3.94c0-1.56.87-2.59,2.62-3.19a25.79,25.79,0,0,0,5.06-2.08v-.64c0-2.28-1.15-3.59-2.81-3.59a1.85,1.85,0,0,0-1.51.74,7,7,0,0,0-.86,2.08.89.89,0,0,1-.93.73,1.54,1.54,0,0,1-1.41-1.4c0-.45.42-.84,1.06-1.28a13.14,13.14,0,0,1,4.6-2.24A4.19,4.19,0,0,1,427,51.8V58c0,1.47.55,1.92,1.12,1.92a2.5,2.5,0,0,0,1.16-.36l.32.9ZM424.53,54c-.7.35-2.24,1-3,1.34-1.22.54-2,1.15-2,2.33a2.33,2.33,0,0,0,2.31,2.47,4.24,4.24,0,0,0,2.62-1.15Z"/><path class="cls-1" d="M440.11,61.66v-.9c1.86-.19,2.05-.42,2.05-2.59V52.89c0-2.24-.8-3.74-2.91-3.74a5.56,5.56,0,0,0-3.55,1.66V58.3c0,2.2.19,2.27,2.08,2.46v.9h-6.91v-.9c2.11-.22,2.3-.35,2.3-2.46V51.71c0-2.08-.22-2.18-1.95-2.47v-.83a18.3,18.3,0,0,0,4.48-1.28v2.53c.64-.45,1.34-.93,2.17-1.47a4.89,4.89,0,0,1,2.66-1c2.56,0,4.16,1.88,4.16,5V58.3c0,2.17.19,2.27,2.05,2.46v.9Z"/><path class="cls-1" d="M464.08,60.86a33.06,33.06,0,0,0-5,1.18V60c-.57.35-1.41.8-2,1.15a5.8,5.8,0,0,1-2.53.93c-2.56,0-5.95-2.56-5.95-7s3.9-7.77,8.29-7.77a6.44,6.44,0,0,1,2.17.35V42.87c0-2-.22-2.11-2.49-2.3v-.83a32,32,0,0,0,5-1.09V57.94c0,1.67.22,1.89,1.41,2l1,.06Zm-5-10.75a4,4,0,0,0-3.36-1.64c-1.53,0-4.25,1-4.25,5.64,0,3.87,2.4,5.91,4.44,6a5.72,5.72,0,0,0,3.17-1.16Z"/><path class="cls-1" d="M7.52,86a3.64,3.64,0,0,1,1.4-.32,6.55,6.55,0,0,1,6.31,6.78,8.14,8.14,0,0,1-7.91,8A11.88,11.88,0,0,1,2.4,99.29v-18c0-2-.1-2.18-2.15-2.34v-.83a25.65,25.65,0,0,0,4.67-1.09v10ZM4.92,96.34a2.86,2.86,0,0,0,.16,1.12,3.67,3.67,0,0,0,3.17,1.73c2.75,0,4.13-2.37,4.13-6s-2.21-5.79-4.86-5.79a6.23,6.23,0,0,0-2.6.61Z"/><path class="cls-1" d="M17.28,100.06v-.9c2-.19,2.24-.35,2.24-2.53V90c0-2-.1-2.11-2-2.43v-.77A20.77,20.77,0,0,0,22,85.56V96.63c0,2.18.23,2.34,2.31,2.53v.9ZM20.6,82.43a1.75,1.75,0,0,1-1.69-1.7A1.73,1.73,0,0,1,20.64,79a1.68,1.68,0,0,1,1.63,1.76A1.71,1.71,0,0,1,20.6,82.43Z"/><path class="cls-1" d="M33.34,100.06H26v-.9c2-.19,2.21-.35,2.21-2.43V90.07c0-2.11-.13-2.2-2-2.43v-.8a17.65,17.65,0,0,0,4.52-1.31v3.52c1.12-1.66,2.46-3.42,4.06-3.42a1.65,1.65,0,0,1,1.85,1.53,2.15,2.15,0,0,1-1.08,1.76.63.63,0,0,1-.83-.06,2,2,0,0,0-1.44-.8c-.68,0-1.86,1-2.56,2.62v6c0,2.11.16,2.27,2.62,2.46Z"/><path class="cls-1" d="M53.18,99.26a33.06,33.06,0,0,0-5,1.18V98.36c-.58.35-1.41.8-2,1.15a5.8,5.8,0,0,1-2.53.93c-2.56,0-6-2.56-6-7s3.9-7.77,8.28-7.77a6.46,6.46,0,0,1,2.18.35V81.27c0-2-.23-2.11-2.5-2.3v-.83a32.36,32.36,0,0,0,5-1.09V96.34c0,1.67.22,1.89,1.4,2l1,.06Zm-5-10.75a4,4,0,0,0-3.36-1.64c-1.54,0-4.26,1-4.26,5.64,0,3.87,2.4,5.91,4.45,5.95a5.74,5.74,0,0,0,3.17-1.16Z"/><path class="cls-1" d="M62.87,89.82c-.57-1.86-1.4-3.14-3.35-3.14a2,2,0,0,0-2,2.08c0,1.38.93,2,2.72,2.85C63,92.92,64.38,93.88,64.38,96c0,3-2.69,4.45-5.22,4.45a8.25,8.25,0,0,1-3.8-.9c-.16-.92-.45-2.68-.58-3.74l.93-.16c.57,2,1.69,3.71,3.93,3.71a2.13,2.13,0,0,0,2.24-2.17c0-1.44-.86-2.18-2.56-3-2.24-1.09-4.06-2.11-4.06-4.42s2-4.12,5-4.12a17,17,0,0,1,3.07.41c.1.77.32,2.79.48,3.55Z"/><path class="cls-1" d="M68.79,100.5a1.9,1.9,0,0,1-2-2,1.94,1.94,0,0,1,2-2,2,2,0,0,1,2,2A2,2,0,0,1,68.79,100.5Z"/><path class="cls-1" d="M1.24,176.86V176c2.63-.29,2.88-.42,2.88-3.13V160.12c0-2.75-.25-2.88-2.88-3.17v-.89H9.82V157c-2.66.29-2.91.42-2.91,3.17v12.71c0,2.75.25,2.84,2.91,3.13v.9Z"/><path class="cls-1" d="M20.6,176.86V176c1.86-.19,2-.42,2-2.59v-5.28c0-2.24-.8-3.74-2.91-3.74A5.56,5.56,0,0,0,16.19,166v7.49c0,2.21.19,2.27,2.08,2.46v.9H11.36V176c2.11-.22,2.3-.35,2.3-2.46v-6.59c0-2.08-.22-2.18-1.95-2.47v-.83a18.3,18.3,0,0,0,4.48-1.28v2.53c.64-.45,1.34-.93,2.17-1.47a4.89,4.89,0,0,1,2.66-1c2.56,0,4.16,1.88,4.16,5v6.08c0,2.17.19,2.27,2.05,2.46v.9Z"/><path class="cls-1" d="M45.37,176.86V176c1.86-.19,2.11-.35,2.11-2.46v-5.25c0-2.66-1-4-3.17-4A4.57,4.57,0,0,0,40.92,166v7.55c0,2.08.26,2.27,2.18,2.46v.9h-7V176c1.86-.16,2.28-.32,2.28-2.46V158.07c0-1.69-.1-2.11-2.24-2.3v-.83a19.69,19.69,0,0,0,4.76-1.09v10.91a7.24,7.24,0,0,1,4.64-2.33c2.63,0,4.45,1.63,4.45,5.47v5.63c0,2.11.26,2.27,2.11,2.43v.9Z"/><path class="cls-1" d="M69.21,176.12a38.05,38.05,0,0,0-4.9,1.12v-2.46c-1.72,1.44-3.13,2.46-4.89,2.46-2.14,0-4-1.31-4-4.8v-6.21c0-1.72-.26-1.92-1.06-2.08l-.89-.16v-.83a42.82,42.82,0,0,0,4.57-.57c-.09,1-.09,2.56-.09,4.67v4.35c0,2.82,1.47,3.62,2.91,3.62a5.06,5.06,0,0,0,3.45-1.54v-7.46c0-1.72-.38-1.95-1.47-2.11l-1-.13v-.83a45.85,45.85,0,0,0,5-.57v10.72c0,1.6.26,1.82,1.47,1.88l.9,0Z"/><path class="cls-1" d="M88.38,176.86V176c1.89-.19,2.11-.32,2.11-2.56v-5.34c0-2.27-.77-3.71-2.75-3.71A5.82,5.82,0,0,0,84.19,166c0,.38.09.77.09,1.38v6.2c0,2,.29,2.18,2,2.37v.9H79.48V176c2-.19,2.27-.32,2.27-2.43V168c0-2.37-.73-3.68-2.68-3.68A6.12,6.12,0,0,0,75.55,166v7.52c0,2.11.22,2.24,2,2.43v.9H70.72V176c2.11-.19,2.3-.32,2.3-2.43v-6.62c0-2-.13-2.18-1.92-2.5v-.8a17.08,17.08,0,0,0,4.45-1.28v2.59a23,23,0,0,1,2.36-1.66,4.4,4.4,0,0,1,2.53-.83,3.74,3.74,0,0,1,3.49,2.62c.9-.7,1.73-1.25,2.53-1.79a4.82,4.82,0,0,1,2.53-.83c2.49,0,4,1.79,4,4.92v6.18c0,2.14.19,2.24,2,2.43v.9Z"/><path class="cls-1" d="M107.23,177.24a2.37,2.37,0,0,1-1.51-.61,3,3,0,0,1-.77-1.44c-1.28.87-2.84,2.05-3.83,2.05a3.92,3.92,0,0,1-3.91-3.93c0-1.57.87-2.6,2.62-3.2a25.79,25.79,0,0,0,5.06-2.08v-.64c0-2.28-1.15-3.59-2.81-3.59a1.85,1.85,0,0,0-1.51.74,6.72,6.72,0,0,0-.86,2.08.89.89,0,0,1-.93.73,1.54,1.54,0,0,1-1.41-1.4c0-.45.42-.84,1.06-1.28a13.14,13.14,0,0,1,4.6-2.24,4.19,4.19,0,0,1,4.32,4.57v6.18c0,1.47.55,1.92,1.12,1.92a2.6,2.6,0,0,0,1.16-.35l.32.89Zm-2.34-8.09c-.7.35-2.24,1-3,1.34-1.21.54-2,1.15-2,2.34a2.33,2.33,0,0,0,2.31,2.46,4.24,4.24,0,0,0,2.62-1.15Z"/><path class="cls-1" d="M120.47,176.86V176c1.86-.19,2-.42,2-2.59v-5.28c0-2.24-.8-3.74-2.91-3.74a5.56,5.56,0,0,0-3.55,1.66v7.49c0,2.21.19,2.27,2.08,2.46v.9h-6.91V176c2.11-.22,2.3-.35,2.3-2.46v-6.59c0-2.08-.22-2.18-2-2.47v-.83a18.3,18.3,0,0,0,4.48-1.28v2.53c.64-.45,1.34-.93,2.17-1.47a4.89,4.89,0,0,1,2.66-1c2.56,0,4.16,1.88,4.16,5v6.08c0,2.17.19,2.27,2,2.46v.9Z"/><path class="cls-1" d="M137,166.62c-.58-1.86-1.41-3.14-3.36-3.14a2,2,0,0,0-2,2.08c0,1.38.93,2,2.72,2.85,2.75,1.31,4.13,2.27,4.13,4.38,0,3-2.69,4.45-5.21,4.45a8.41,8.41,0,0,1-3.81-.89c-.16-.93-.45-2.69-.58-3.75l.93-.16c.58,2.05,1.7,3.71,3.94,3.71A2.13,2.13,0,0,0,136,174c0-1.44-.86-2.18-2.56-3-2.23-1.09-4.06-2.11-4.06-4.42s2-4.12,5-4.12a17,17,0,0,1,3.07.41c.1.77.32,2.79.48,3.55Z"/><path class="cls-1" d="M141.34,179.74c1.44-.68,2.56-1.54,2.56-2.76s-.93-1.44-2.05-1.72a1,1,0,0,1-.51-1,1.64,1.64,0,0,1,1.79-1.6c1.15,0,2.72,1.05,2.72,3.39,0,2.52-2.24,4.06-4.1,4.6Z"/><path class="cls-1" d="M168.6,174c-1.41,1.85-3.55,3.26-5.47,3.26a6.45,6.45,0,0,1-6.46-6.72,7.57,7.57,0,0,1,3.23-6.27,8.45,8.45,0,0,1,4.86-1.82,4.74,4.74,0,0,1,3,.86,1,1,0,0,1,.51.93,1.61,1.61,0,0,1-1.15,1.44c-.16,0-.29-.07-.61-.32a4.74,4.74,0,0,0-3.23-1.35c-2.11,0-4,1.8-4,5.12,0,4.45,3,5.92,4.86,5.92a5.14,5.14,0,0,0,3.91-1.76Z"/><path class="cls-1" d="M177.46,162.43a6.88,6.88,0,0,1,7,7.16c0,5.19-3.84,7.65-7,7.65a7,7,0,0,1-7.1-7.13A7.33,7.33,0,0,1,177.46,162.43Zm-.38,1.08c-2,0-3.71,1.89-3.71,5.6,0,4.07,1.79,7,4.41,7,2,0,3.65-1.44,3.65-5.82C181.43,166.55,179.9,163.51,177.08,163.51Z"/><path class="cls-1" d="M193.88,176.86h-7.36V176c2-.19,2.21-.35,2.21-2.43v-6.66c0-2.11-.13-2.2-2-2.43v-.8a17.65,17.65,0,0,0,4.52-1.31v3.52c1.12-1.66,2.46-3.42,4.06-3.42a1.65,1.65,0,0,1,1.86,1.53,2.16,2.16,0,0,1-1.09,1.76.63.63,0,0,1-.83-.06,2,2,0,0,0-1.44-.8c-.68,0-1.86,1-2.56,2.62v6c0,2.11.16,2.27,2.62,2.46Z"/><path class="cls-1" d="M205.4,162.43a6.88,6.88,0,0,1,7,7.16c0,5.19-3.84,7.65-7,7.65a7,7,0,0,1-7.1-7.13A7.32,7.32,0,0,1,205.4,162.43Zm-.38,1.08c-2,0-3.71,1.89-3.71,5.6,0,4.07,1.79,7,4.41,7,2,0,3.65-1.44,3.65-5.82C209.37,166.55,207.83,163.51,205,163.51Z"/><path class="cls-1" d="M223.64,176.86V176c1.86-.19,2.05-.42,2.05-2.59v-5.28c0-2.24-.8-3.74-2.91-3.74a5.59,5.59,0,0,0-3.56,1.66v7.49c0,2.21.2,2.27,2.08,2.46v.9h-6.91V176c2.12-.22,2.31-.35,2.31-2.46v-6.59c0-2.08-.23-2.18-2-2.47v-.83a18.17,18.17,0,0,0,4.48-1.28v2.53c.64-.45,1.35-.93,2.18-1.47a4.89,4.89,0,0,1,2.66-1c2.56,0,4.16,1.88,4.16,5v6.08c0,2.17.19,2.27,2,2.46v.9Z"/><path class="cls-1" d="M242.42,177.24a2.35,2.35,0,0,1-1.5-.61,2.93,2.93,0,0,1-.77-1.44c-1.28.87-2.85,2.05-3.84,2.05a3.92,3.92,0,0,1-3.9-3.93c0-1.57.86-2.6,2.62-3.2a26.34,26.34,0,0,0,5.06-2.08v-.64c0-2.28-1.15-3.59-2.82-3.59a1.84,1.84,0,0,0-1.5.74,7,7,0,0,0-.87,2.08.88.88,0,0,1-.92.73,1.54,1.54,0,0,1-1.41-1.4c0-.45.41-.84,1.05-1.28a13.29,13.29,0,0,1,4.61-2.24,4.19,4.19,0,0,1,4.32,4.57v6.18c0,1.47.55,1.92,1.12,1.92a2.53,2.53,0,0,0,1.15-.35l.32.89Zm-2.33-8.09c-.71.35-2.24,1-3,1.34-1.21.54-2,1.15-2,2.34a2.33,2.33,0,0,0,2.3,2.46,4.24,4.24,0,0,0,2.63-1.15Z"/><path class="cls-1" d="M259.8,163.67c-1.73.23-1.95.48-2.78,2.4-1.06,2.56-2.88,6.82-4.55,11.14h-.93c-1.34-3.68-2.91-7.49-4.41-11.23-.74-1.86-1-2-2.66-2.31v-.86H251v.86c-1.76.23-1.82.45-1.31,1.83.8,2.21,2.14,5.6,3,7.84,1.15-2.85,2.21-5.47,2.91-7.52.54-1.57.45-1.92-1.66-2.15v-.86h5.82Z"/><path class="cls-1" d="M260.86,176.86V176c2-.19,2.24-.35,2.24-2.53v-6.59c0-2-.1-2.11-2-2.43v-.77a20.77,20.77,0,0,0,4.54-1.28v11.07c0,2.18.23,2.34,2.31,2.53v.9Zm3.32-17.63a1.75,1.75,0,0,1-1.69-1.7,1.73,1.73,0,0,1,1.73-1.76,1.68,1.68,0,0,1,1.63,1.76A1.71,1.71,0,0,1,264.18,159.23Z"/><path class="cls-1" d="M276.92,176.86h-7.36V176c2-.19,2.21-.35,2.21-2.43v-6.66c0-2.11-.13-2.2-2-2.43v-.8a17.65,17.65,0,0,0,4.52-1.31v3.52c1.12-1.66,2.46-3.42,4.06-3.42a1.65,1.65,0,0,1,1.86,1.53,2.16,2.16,0,0,1-1.09,1.76.63.63,0,0,1-.83-.06,2,2,0,0,0-1.44-.8c-.68,0-1.86,1-2.56,2.62v6c0,2.11.16,2.27,2.62,2.46Z"/><path class="cls-1" d="M297.37,176.12a37.68,37.68,0,0,0-4.9,1.12v-2.46c-1.73,1.44-3.13,2.46-4.89,2.46-2.15,0-4-1.31-4-4.8v-6.21c0-1.72-.26-1.92-1.06-2.08l-.9-.16v-.83a43,43,0,0,0,4.58-.57c-.1,1-.1,2.56-.1,4.67v4.35c0,2.82,1.48,3.62,2.92,3.62a5.08,5.08,0,0,0,3.45-1.54v-7.46c0-1.72-.38-1.95-1.47-2.11l-1-.13v-.83a46.49,46.49,0,0,0,5-.57v10.72c0,1.6.26,1.82,1.47,1.88l.9,0Z"/><path class="cls-1" d="M307.13,166.62c-.58-1.86-1.41-3.14-3.36-3.14a2,2,0,0,0-2,2.08c0,1.38.93,2,2.72,2.85,2.76,1.31,4.13,2.27,4.13,4.38,0,3-2.69,4.45-5.21,4.45a8.41,8.41,0,0,1-3.81-.89c-.16-.93-.45-2.69-.58-3.75l.93-.16c.58,2.05,1.7,3.71,3.94,3.71a2.13,2.13,0,0,0,2.24-2.17c0-1.44-.87-2.18-2.56-3-2.24-1.09-4.07-2.11-4.07-4.42s2-4.12,5-4.12a17.14,17.14,0,0,1,3.08.41c.09.77.32,2.79.48,3.55Z"/><path class="cls-1" d="M322.58,174.14c-2,2.56-4.29,3.1-5.31,3.1-3.9,0-6.27-3.2-6.27-6.88a8.24,8.24,0,0,1,2.08-5.6,6.56,6.56,0,0,1,4.77-2.33,5,5,0,0,1,4.89,5c0,.64-.13.92-.64,1.05s-4.73.42-8.54.55c-.1,4.28,2.53,6,4.8,6a5.39,5.39,0,0,0,3.71-1.63Zm-5.5-10.5c-1.47,0-2.91,1.38-3.36,4,1.79,0,3.58,0,5.47-.1.58,0,.77-.16.77-.64A3,3,0,0,0,317.08,163.64Z"/><path class="cls-1" d="M333,166.62c-.57-1.86-1.4-3.14-3.36-3.14a1.94,1.94,0,0,0-2,2.08c0,1.38.93,2,2.72,2.85,2.75,1.31,4.13,2.27,4.13,4.38,0,3-2.69,4.45-5.22,4.45a8.48,8.48,0,0,1-3.81-.89c-.15-.93-.44-2.69-.57-3.75l.93-.16c.57,2.05,1.69,3.71,3.93,3.71A2.13,2.13,0,0,0,332,174c0-1.44-.86-2.18-2.56-3-2.24-1.09-4.06-2.11-4.06-4.42s2-4.12,5-4.12a17.14,17.14,0,0,1,3.07.41c.1.77.32,2.79.48,3.55Z"/><path class="cls-1" d="M356.15,174c-1.41,1.85-3.55,3.26-5.47,3.26a6.45,6.45,0,0,1-6.47-6.72,7.58,7.58,0,0,1,3.24-6.27,8.45,8.45,0,0,1,4.86-1.82,4.74,4.74,0,0,1,3,.86,1,1,0,0,1,.51.93,1.61,1.61,0,0,1-1.15,1.44c-.16,0-.29-.07-.61-.32a4.74,4.74,0,0,0-3.23-1.35c-2.12,0-4,1.8-4,5.12,0,4.45,3,5.92,4.86,5.92a5.14,5.14,0,0,0,3.91-1.76Z"/><path class="cls-1" d="M368,177.24a2.35,2.35,0,0,1-1.5-.61,2.93,2.93,0,0,1-.77-1.44c-1.28.87-2.85,2.05-3.84,2.05a3.92,3.92,0,0,1-3.9-3.93c0-1.57.86-2.6,2.62-3.2a26.34,26.34,0,0,0,5.06-2.08v-.64c0-2.28-1.16-3.59-2.82-3.59a1.83,1.83,0,0,0-1.5.74,6.7,6.7,0,0,0-.87,2.08.89.89,0,0,1-.93.73,1.54,1.54,0,0,1-1.4-1.4c0-.45.41-.84,1.05-1.28a13.29,13.29,0,0,1,4.61-2.24,4.19,4.19,0,0,1,4.32,4.57v6.18c0,1.47.54,1.92,1.12,1.92a2.56,2.56,0,0,0,1.15-.35l.32.89Zm-2.33-8.09c-.71.35-2.24,1-3,1.34-1.22.54-1.95,1.15-1.95,2.34a2.33,2.33,0,0,0,2.3,2.46,4.27,4.27,0,0,0,2.63-1.15Z"/><path class="cls-1" d="M387.29,176.12a37.68,37.68,0,0,0-4.9,1.12v-2.46c-1.73,1.44-3.14,2.46-4.9,2.46-2.14,0-4-1.31-4-4.8v-6.21c0-1.72-.25-1.92-1.05-2.08l-.9-.16v-.83a43,43,0,0,0,4.58-.57c-.1,1-.1,2.56-.1,4.67v4.35c0,2.82,1.47,3.62,2.91,3.62a5.08,5.08,0,0,0,3.46-1.54v-7.46c0-1.72-.38-1.95-1.47-2.11l-1-.13v-.83a46.43,46.43,0,0,0,5-.57v10.72c0,1.6.25,1.82,1.47,1.88l.9,0Z"/><path class="cls-1" d="M397.05,166.62c-.58-1.86-1.41-3.14-3.36-3.14a2,2,0,0,0-2,2.08c0,1.38.93,2,2.72,2.85,2.75,1.31,4.13,2.27,4.13,4.38,0,3-2.69,4.45-5.22,4.45a8.4,8.4,0,0,1-3.8-.89c-.16-.93-.45-2.69-.58-3.75l.93-.16c.57,2.05,1.69,3.71,3.93,3.71a2.13,2.13,0,0,0,2.24-2.17c0-1.44-.86-2.18-2.56-3-2.24-1.09-4.06-2.11-4.06-4.42s2-4.12,5-4.12a17,17,0,0,1,3.07.41c.1.77.32,2.79.48,3.55Z"/><path class="cls-1" d="M412.5,174.14c-2.05,2.56-4.29,3.1-5.31,3.1-3.9,0-6.27-3.2-6.27-6.88a8.24,8.24,0,0,1,2.08-5.6,6.56,6.56,0,0,1,4.77-2.33,5,5,0,0,1,4.89,5c0,.64-.13.92-.64,1.05s-4.73.42-8.54.55c-.1,4.28,2.53,6,4.8,6A5.39,5.39,0,0,0,412,173.4Zm-5.5-10.5c-1.47,0-2.91,1.38-3.36,4,1.79,0,3.58,0,5.47-.1.58,0,.77-.16.77-.64A3,3,0,0,0,407,163.64Z"/><path class="cls-1" d="M8.22,215.26H.86v-.9c2-.19,2.21-.35,2.21-2.43v-6.66c0-2.11-.13-2.2-2-2.43V202a17.65,17.65,0,0,0,4.52-1.31v3.52c1.12-1.66,2.46-3.42,4.06-3.42a1.65,1.65,0,0,1,1.86,1.53,2.16,2.16,0,0,1-1.09,1.76.63.63,0,0,1-.83-.06,2,2,0,0,0-1.44-.8c-.68,0-1.86,1-2.56,2.62v6c0,2.11.16,2.27,2.62,2.46Z"/><path class="cls-1" d="M24.22,212.54c-2,2.56-4.29,3.1-5.31,3.1-3.91,0-6.27-3.2-6.27-6.88a8.19,8.19,0,0,1,2.08-5.6,6.56,6.56,0,0,1,4.76-2.33,5,5,0,0,1,4.9,5c0,.64-.13.92-.64,1.05s-4.74.42-8.54.55c-.1,4.28,2.52,6,4.8,6a5.41,5.41,0,0,0,3.71-1.63ZM18.72,202c-1.48,0-2.92,1.38-3.36,4,1.79,0,3.58,0,5.47-.1.57,0,.77-.16.77-.64A3,3,0,0,0,18.72,202Z"/><path class="cls-1" d="M34.65,205c-.57-1.86-1.41-3.14-3.36-3.14a1.94,1.94,0,0,0-2,2.08c0,1.38.93,2,2.72,2.85,2.75,1.31,4.13,2.27,4.13,4.38,0,2.95-2.69,4.45-5.22,4.45a8.3,8.3,0,0,1-3.81-.9c-.16-.92-.45-2.68-.57-3.74l.92-.16c.58,2,1.7,3.71,3.94,3.71a2.13,2.13,0,0,0,2.24-2.17c0-1.44-.86-2.18-2.56-3C28.86,208.28,27,207.26,27,205s2-4.12,5-4.12a17.14,17.14,0,0,1,3.07.41c.1.77.32,2.79.48,3.55Z"/><path class="cls-1" d="M37.82,201.88a21,21,0,0,0,4.64-1.37v2.56c.1-.07,2.66-1.54,2.78-1.6a4.46,4.46,0,0,1,1.86-.64c3.52,0,5.66,2.94,5.66,6.11,0,4.86-3.84,7.93-8,8.7a5.21,5.21,0,0,1-2.27-.58v4.32c0,2.37.26,2.56,2.72,2.79v.89H37.6v-.89c2.08-.23,2.33-.39,2.33-2.53V205.08c0-1.92-.06-2.05-2.11-2.33Zm4.64,11a4.66,4.66,0,0,0,3,1.24c2.78,0,4.57-2.33,4.57-5.92s-2-5.4-4.28-5.4a6.39,6.39,0,0,0-3.33,1.37Z"/><path class="cls-1" d="M54.91,215.26v-.9c2-.19,2.24-.35,2.24-2.53v-6.59c0-2-.1-2.11-2-2.43V202a20.87,20.87,0,0,0,4.55-1.28v11.07c0,2.18.22,2.34,2.3,2.53v.9Zm3.33-17.63a1.75,1.75,0,0,1-1.7-1.7,1.73,1.73,0,0,1,1.73-1.76,1.68,1.68,0,0,1,1.63,1.76A1.7,1.7,0,0,1,58.24,197.63Z"/><path class="cls-1" d="M71,215.26H63.61v-.9c2-.19,2.21-.35,2.21-2.43v-6.66c0-2.11-.13-2.2-2-2.43V202a17.7,17.7,0,0,0,4.51-1.31v3.52c1.12-1.66,2.46-3.42,4.06-3.42a1.65,1.65,0,0,1,1.86,1.53,2.16,2.16,0,0,1-1.09,1.76.63.63,0,0,1-.83-.06,2,2,0,0,0-1.44-.8c-.67,0-1.86,1-2.56,2.62v6c0,2.11.16,2.27,2.62,2.46Z"/><path class="cls-1" d="M85.79,215.64a2.37,2.37,0,0,1-1.51-.61,3,3,0,0,1-.77-1.44c-1.28.87-2.84,2-3.83,2a3.92,3.92,0,0,1-3.91-3.93c0-1.57.87-2.6,2.62-3.2a25.79,25.79,0,0,0,5.06-2.08v-.64c0-2.28-1.15-3.59-2.81-3.59a1.85,1.85,0,0,0-1.51.74,7,7,0,0,0-.86,2.08.89.89,0,0,1-.93.73,1.54,1.54,0,0,1-1.41-1.4c0-.45.42-.84,1.06-1.28a13.14,13.14,0,0,1,4.6-2.24,4.19,4.19,0,0,1,4.32,4.57v6.18c0,1.47.55,1.92,1.12,1.92a2.6,2.6,0,0,0,1.16-.35l.32.89Zm-2.34-8.09c-.7.35-2.24,1-3,1.34-1.21.54-2,1.15-2,2.34a2.33,2.33,0,0,0,2.31,2.46,4.24,4.24,0,0,0,2.62-1.15Z"/><path class="cls-1" d="M95.8,215.22a3.18,3.18,0,0,1-1.37.42c-2.05,0-3.14-1.25-3.14-3.81v-9.31H89.08l-.12-.38.86-.93h1.47v-2.69c.61-.64,1.54-1.47,2.14-2.11l.48.06c-.06,1.35-.09,3.2-.09,4.74h3.65a1,1,0,0,1-.2,1.31H93.82v8.19c0,2.6,1,3.08,1.86,3.08a4.52,4.52,0,0,0,1.95-.52l.28.83Z"/><path class="cls-1" d="M106,200.83a6.87,6.87,0,0,1,7,7.16c0,5.19-3.84,7.65-7,7.65a7,7,0,0,1-7.11-7.13A7.33,7.33,0,0,1,106,200.83Zm-.39,1.08c-2,0-3.71,1.89-3.71,5.6,0,4.07,1.79,7,4.42,7,2,0,3.65-1.44,3.65-5.82C110,205,108.41,201.91,105.59,201.91Z"/><path class="cls-1" d="M122.39,215.26H115v-.9c2-.19,2.2-.35,2.2-2.43v-6.66c0-2.11-.13-2.2-2-2.43V202a17.46,17.46,0,0,0,4.51-1.31v3.52c1.12-1.66,2.46-3.42,4.06-3.42a1.65,1.65,0,0,1,1.86,1.53,2.13,2.13,0,0,1-1.09,1.76.64.64,0,0,1-.83-.06,2,2,0,0,0-1.44-.8c-.67,0-1.86,1-2.56,2.62v6c0,2.11.16,2.27,2.62,2.46Z"/><path class="cls-1" d="M142.59,202.07c-1.67.26-2,.52-2.82,2.34s-1.66,4-3.87,9.53a87.63,87.63,0,0,0-3.17,8.77c-.19.67-.54.83-1,.83a1.85,1.85,0,0,1-2-1.53c0-.42.22-.71.7-1.12a7.22,7.22,0,0,0,2.15-2.37c.67-1.34,1.15-2.46,1.31-2.88a1.82,1.82,0,0,0-.07-1.31c-1.24-3.65-3-7.58-3.93-9.89-.71-1.76-1-2.14-2.75-2.37v-.86h6.46v.86c-1.47.23-1.63.55-1.22,1.73l3.11,7.87c.89-2.2,2.17-5.76,2.85-7.77.38-1.22.16-1.57-1.7-1.83v-.86h5.86Z"/><path class="cls-1" d="M156.67,215.22a3.25,3.25,0,0,1-1.38.42c-2,0-3.14-1.25-3.14-3.81v-9.31H150l-.13-.38.86-.93h1.47v-2.69c.61-.64,1.54-1.47,2.15-2.11l.48.06c-.07,1.35-.1,3.2-.1,4.74h3.65a1,1,0,0,1-.19,1.31h-3.46v8.19c0,2.6,1,3.08,1.86,3.08a4.48,4.48,0,0,0,2-.52l.29.83Z"/><path class="cls-1" d="M167.29,215.26h-7.36v-.9c2-.19,2.21-.35,2.21-2.43v-6.66c0-2.11-.13-2.2-2-2.43V202a17.46,17.46,0,0,0,4.51-1.31v3.52c1.13-1.66,2.47-3.42,4.07-3.42a1.65,1.65,0,0,1,1.85,1.53,2.15,2.15,0,0,1-1.08,1.76.65.65,0,0,1-.84-.06,2,2,0,0,0-1.44-.8c-.67,0-1.85,1-2.56,2.62v6c0,2.11.17,2.27,2.63,2.46Z"/><path class="cls-1" d="M182.1,215.64a2.35,2.35,0,0,1-1.5-.61,2.93,2.93,0,0,1-.77-1.44c-1.28.87-2.85,2-3.84,2a3.92,3.92,0,0,1-3.9-3.93c0-1.57.86-2.6,2.62-3.2a26.34,26.34,0,0,0,5.06-2.08v-.64c0-2.28-1.15-3.59-2.82-3.59a1.84,1.84,0,0,0-1.5.74,7,7,0,0,0-.87,2.08.87.87,0,0,1-.92.73,1.54,1.54,0,0,1-1.41-1.4c0-.45.41-.84,1.06-1.28a13.14,13.14,0,0,1,4.6-2.24,4.19,4.19,0,0,1,4.32,4.57v6.18c0,1.47.55,1.92,1.12,1.92a2.53,2.53,0,0,0,1.15-.35l.32.89Zm-2.33-8.09c-.71.35-2.24,1-3,1.34-1.21.54-1.95,1.15-1.95,2.34a2.33,2.33,0,0,0,2.3,2.46,4.24,4.24,0,0,0,2.63-1.15Z"/><path class="cls-1" d="M198.1,212.38c-1.4,1.85-3.55,3.26-5.47,3.26a6.45,6.45,0,0,1-6.46-6.72,7.6,7.6,0,0,1,3.23-6.27,8.49,8.49,0,0,1,4.87-1.82,4.73,4.73,0,0,1,3,.86,1,1,0,0,1,.51.93,1.61,1.61,0,0,1-1.15,1.44c-.16,0-.29-.07-.61-.32a4.74,4.74,0,0,0-3.23-1.35c-2.11,0-4,1.8-4,5.12,0,4.45,3,5.92,4.87,5.92a5.12,5.12,0,0,0,3.9-1.76Z"/><path class="cls-1" d="M206.39,215.22a3.18,3.18,0,0,1-1.37.42c-2.05,0-3.14-1.25-3.14-3.81v-9.31h-2.21l-.13-.38.87-.93h1.47v-2.69c.61-.64,1.54-1.47,2.14-2.11l.48.06c-.06,1.35-.09,3.2-.09,4.74h3.65a1,1,0,0,1-.2,1.31h-3.45v8.19c0,2.6,1,3.08,1.85,3.08a4.52,4.52,0,0,0,2-.52l.28.83Z"/><path class="cls-1" d="M217.27,215.26v-.9c2-.19,2.24-.35,2.24-2.53v-6.59c0-2-.09-2.11-2-2.43V202a20.93,20.93,0,0,0,4.54-1.28v11.07c0,2.18.22,2.34,2.3,2.53v.9Zm3.33-17.63a1.75,1.75,0,0,1-1.7-1.7,1.73,1.73,0,0,1,1.73-1.76,1.67,1.67,0,0,1,1.63,1.76A1.7,1.7,0,0,1,220.6,197.63Z"/><path class="cls-1" d="M235.16,215.26v-.9c1.86-.19,2.05-.42,2.05-2.59v-5.28c0-2.24-.8-3.74-2.91-3.74a5.59,5.59,0,0,0-3.56,1.66v7.49c0,2.2.2,2.27,2.08,2.46v.9h-6.91v-.9c2.11-.22,2.31-.35,2.31-2.46v-6.59c0-2.08-.23-2.18-2-2.47V202a18.17,18.17,0,0,0,4.48-1.28v2.53c.64-.45,1.35-.93,2.18-1.47a4.89,4.89,0,0,1,2.66-1c2.55,0,4.15,1.88,4.15,5v6.08c0,2.17.2,2.27,2.05,2.46v.9Z"/><path class="cls-1" d="M245.88,201.21v-.86a8.2,8.2,0,0,1,2.82-6.4,6.57,6.57,0,0,1,3.58-1.7,3.59,3.59,0,0,1,2.59,1,1,1,0,0,1,.19,1.12,2.54,2.54,0,0,1-.77,1,.71.71,0,0,1-.92-.07,4.18,4.18,0,0,0-2.6-1.31c-2.36,0-2.36,3.23-2.36,5.67v1.5h3.39a1.22,1.22,0,0,1-.32,1.31h-3.07v9.25c0,2.3.35,2.33,2.75,2.59v.9h-7.52v-.9c2-.19,2.24-.32,2.24-2.4v-9.44h-2.27l-.13-.35.7-1Z"/><path class="cls-1" d="M264.63,212.54c-2.05,2.56-4.29,3.1-5.31,3.1-3.91,0-6.27-3.2-6.27-6.88a8.24,8.24,0,0,1,2.08-5.6,6.56,6.56,0,0,1,4.76-2.33,5,5,0,0,1,4.9,5c0,.64-.13.92-.64,1.05s-4.74.42-8.54.55c-.1,4.28,2.53,6,4.8,6a5.41,5.41,0,0,0,3.71-1.63Zm-5.5-10.5c-1.47,0-2.91,1.38-3.36,4,1.79,0,3.58,0,5.47-.1.57,0,.77-.16.77-.64A3,3,0,0,0,259.13,202Z"/><path class="cls-1" d="M279.09,212.38c-1.4,1.85-3.55,3.26-5.47,3.26a6.45,6.45,0,0,1-6.46-6.72,7.6,7.6,0,0,1,3.23-6.27,8.49,8.49,0,0,1,4.86-1.82,4.74,4.74,0,0,1,3,.86,1,1,0,0,1,.51.93,1.61,1.61,0,0,1-1.15,1.44c-.16,0-.29-.07-.61-.32a4.74,4.74,0,0,0-3.23-1.35c-2.11,0-4,1.8-4,5.12,0,4.45,3,5.92,4.87,5.92a5.12,5.12,0,0,0,3.9-1.76Z"/><path class="cls-1" d="M287.38,215.22a3.18,3.18,0,0,1-1.37.42c-2.05,0-3.14-1.25-3.14-3.81v-9.31h-2.21l-.13-.38.87-.93h1.47v-2.69c.61-.64,1.54-1.47,2.14-2.11l.48.06c-.06,1.35-.09,3.2-.09,4.74h3.65a1,1,0,0,1-.2,1.31H285.4v8.19c0,2.6,1,3.08,1.85,3.08a4.52,4.52,0,0,0,2-.52l.28.83Z"/><path class="cls-1" d="M290.81,215.26v-.9c2-.19,2.24-.35,2.24-2.53v-6.59c0-2-.1-2.11-2-2.43V202a20.77,20.77,0,0,0,4.54-1.28v11.07c0,2.18.23,2.34,2.31,2.53v.9Zm3.32-17.63a1.75,1.75,0,0,1-1.69-1.7,1.73,1.73,0,0,1,1.73-1.76,1.68,1.68,0,0,1,1.63,1.76A1.71,1.71,0,0,1,294.13,197.63Z"/><path class="cls-1" d="M306.64,200.83a6.88,6.88,0,0,1,7,7.16c0,5.19-3.84,7.65-7,7.65a7,7,0,0,1-7.1-7.13A7.33,7.33,0,0,1,306.64,200.83Zm-.38,1.08c-1.95,0-3.71,1.89-3.71,5.6,0,4.07,1.79,7,4.41,7,2,0,3.65-1.44,3.65-5.82C310.61,205,309.08,201.91,306.26,201.91Z"/><path class="cls-1" d="M324.88,215.26v-.9c1.86-.19,2.05-.42,2.05-2.59v-5.28c0-2.24-.8-3.74-2.91-3.74a5.56,5.56,0,0,0-3.55,1.66v7.49c0,2.2.19,2.27,2.08,2.46v.9h-6.91v-.9c2.11-.22,2.3-.35,2.3-2.46v-6.59c0-2.08-.22-2.18-1.95-2.47V202a18.3,18.3,0,0,0,4.48-1.28v2.53c.64-.45,1.34-.93,2.17-1.47a4.89,4.89,0,0,1,2.66-1c2.56,0,4.16,1.88,4.16,5v6.08c0,2.17.19,2.27,2.05,2.46v.9Z"/><path class="cls-1" d="M341.4,205c-.58-1.86-1.41-3.14-3.36-3.14a2,2,0,0,0-2,2.08c0,1.38.93,2,2.72,2.85,2.75,1.31,4.13,2.27,4.13,4.38,0,2.95-2.69,4.45-5.21,4.45a8.26,8.26,0,0,1-3.81-.9c-.16-.92-.45-2.68-.58-3.74l.93-.16c.58,2,1.7,3.71,3.94,3.71a2.13,2.13,0,0,0,2.24-2.17c0-1.44-.87-2.18-2.56-3-2.24-1.09-4.07-2.11-4.07-4.42s2-4.12,5-4.12a17.28,17.28,0,0,1,3.08.41c.09.77.31,2.79.48,3.55Z"/><path class="cls-1" d="M358.71,215.22a3.25,3.25,0,0,1-1.38.42c-2.05,0-3.13-1.25-3.13-3.81v-9.31H352l-.13-.38.86-.93h1.48v-2.69c.6-.64,1.53-1.47,2.14-2.11l.48.06c-.06,1.35-.1,3.2-.1,4.74h3.65a1,1,0,0,1-.19,1.31h-3.46v8.19c0,2.6,1,3.08,1.86,3.08a4.48,4.48,0,0,0,1.95-.52l.29.83Z"/><path class="cls-1" d="M371,215.26v-.9c1.86-.19,2.12-.35,2.12-2.46v-5.25c0-2.66-1-4-3.17-4a4.54,4.54,0,0,0-3.39,1.67v7.55c0,2.08.25,2.27,2.17,2.46v.9h-7v-.9c1.85-.16,2.27-.32,2.27-2.46V196.47c0-1.69-.1-2.11-2.24-2.3v-.83a19.89,19.89,0,0,0,4.77-1.09v10.91a7.22,7.22,0,0,1,4.64-2.33c2.62,0,4.44,1.63,4.44,5.47v5.63c0,2.11.26,2.27,2.12,2.43v.9Z"/><path class="cls-1" d="M389.81,215.64a2.35,2.35,0,0,1-1.5-.61,2.93,2.93,0,0,1-.77-1.44c-1.28.87-2.85,2-3.84,2a3.92,3.92,0,0,1-3.9-3.93c0-1.57.86-2.6,2.62-3.2a26.34,26.34,0,0,0,5.06-2.08v-.64c0-2.28-1.16-3.59-2.82-3.59a1.83,1.83,0,0,0-1.5.74,6.7,6.7,0,0,0-.87,2.08.89.89,0,0,1-.93.73,1.54,1.54,0,0,1-1.4-1.4c0-.45.41-.84,1.05-1.28a13.29,13.29,0,0,1,4.61-2.24,4.19,4.19,0,0,1,4.32,4.57v6.18c0,1.47.54,1.92,1.12,1.92a2.56,2.56,0,0,0,1.15-.35l.32.89Zm-2.33-8.09c-.71.35-2.24,1-3,1.34-1.22.54-1.95,1.15-1.95,2.34a2.33,2.33,0,0,0,2.3,2.46,4.27,4.27,0,0,0,2.63-1.15Z"/><path class="cls-1" d="M399.83,215.22a3.25,3.25,0,0,1-1.38.42c-2.05,0-3.13-1.25-3.13-3.81v-9.31h-2.21l-.13-.38.86-.93h1.48v-2.69c.6-.64,1.53-1.47,2.14-2.11l.48.06c-.06,1.35-.1,3.2-.1,4.74h3.65a1,1,0,0,1-.19,1.31h-3.46v8.19c0,2.6,1,3.08,1.86,3.08a4.48,4.48,0,0,0,1.95-.52l.29.83Z"/><path class="cls-1" d="M421,215.64a2.35,2.35,0,0,1-1.5-.61,2.93,2.93,0,0,1-.77-1.44c-1.28.87-2.85,2-3.84,2a3.92,3.92,0,0,1-3.9-3.93c0-1.57.86-2.6,2.62-3.2a25.92,25.92,0,0,0,5.05-2.08v-.64c0-2.28-1.15-3.59-2.81-3.59a1.83,1.83,0,0,0-1.5.74,6.7,6.7,0,0,0-.87,2.08.89.89,0,0,1-.93.73,1.54,1.54,0,0,1-1.4-1.4c0-.45.41-.84,1-1.28a13.2,13.2,0,0,1,4.61-2.24,4.19,4.19,0,0,1,4.32,4.57v6.18c0,1.47.54,1.92,1.12,1.92a2.56,2.56,0,0,0,1.15-.35l.32.89Zm-2.34-8.09c-.7.35-2.24,1-3,1.34-1.22.54-1.95,1.15-1.95,2.34a2.33,2.33,0,0,0,2.3,2.46,4.22,4.22,0,0,0,2.62-1.15Z"/><path class="cls-1" d="M432.43,215.26h-7.35v-.9c2-.19,2.2-.35,2.2-2.43v-6.66c0-2.11-.12-2.2-2-2.43V202a17.46,17.46,0,0,0,4.51-1.31v3.52c1.12-1.66,2.46-3.42,4.06-3.42a1.65,1.65,0,0,1,1.86,1.53,2.13,2.13,0,0,1-1.09,1.76.64.64,0,0,1-.83-.06,2,2,0,0,0-1.44-.8c-.67,0-1.85,1-2.56,2.62v6c0,2.11.16,2.27,2.62,2.46Z"/><path class="cls-1" d="M448.43,212.54c-2,2.56-4.28,3.1-5.31,3.1-3.9,0-6.27-3.2-6.27-6.88a8.24,8.24,0,0,1,2.08-5.6,6.59,6.59,0,0,1,4.77-2.33,5,5,0,0,1,4.89,5c0,.64-.12.92-.64,1.05s-4.73.42-8.54.55c-.09,4.28,2.53,6,4.8,6a5.39,5.39,0,0,0,3.71-1.63Zm-5.5-10.5c-1.47,0-2.91,1.38-3.36,4,1.79,0,3.59,0,5.47-.1.58,0,.77-.16.77-.64A3,3,0,0,0,442.93,202Z"/><path class="cls-1" d="M14.59,253.62a3.25,3.25,0,0,1-1.38.42c-2.05,0-3.13-1.25-3.13-3.81v-9.31H7.87l-.13-.38.86-.93h1.48v-2.69c.6-.64,1.53-1.47,2.14-2.11l.48.06c-.06,1.35-.1,3.2-.1,4.74h3.65a1,1,0,0,1-.19,1.31H12.6v8.19c0,2.6,1,3.08,1.86,3.08a4.48,4.48,0,0,0,1.95-.52l.29.83Z"/><path class="cls-1" d="M32.76,240.47c-1.66.26-2,.52-2.81,2.34s-1.67,4-3.88,9.53a86.46,86.46,0,0,0-3.16,8.77c-.2.67-.55.83-1,.83a1.86,1.86,0,0,1-2-1.53c0-.42.23-.71.71-1.12a7.17,7.17,0,0,0,2.14-2.37c.67-1.34,1.15-2.46,1.31-2.88a1.87,1.87,0,0,0-.06-1.31c-1.25-3.65-3-7.58-3.94-9.89-.7-1.76-1-2.14-2.75-2.37v-.86h6.47v.86c-1.48.23-1.64.55-1.22,1.73l3.1,7.87c.9-2.2,2.18-5.76,2.85-7.77.39-1.22.16-1.57-1.69-1.83v-.86h5.85Z"/><path class="cls-1" d="M33.69,240.28a21,21,0,0,0,4.64-1.37v2.56c.1-.07,2.66-1.54,2.78-1.6a4.46,4.46,0,0,1,1.86-.64c3.52,0,5.66,2.94,5.66,6.11,0,4.86-3.84,7.93-8,8.7a5.21,5.21,0,0,1-2.27-.58v4.32c0,2.37.26,2.56,2.72,2.79v.89H33.47v-.89c2.08-.23,2.33-.39,2.33-2.53V243.48c0-1.92-.06-2-2.11-2.33Zm4.64,10.95a4.66,4.66,0,0,0,3,1.24c2.78,0,4.58-2.33,4.58-5.92s-2-5.4-4.29-5.4a6.39,6.39,0,0,0-3.33,1.37Z"/><path class="cls-1" d="M50.78,253.66v-.9c2-.19,2.24-.35,2.24-2.53v-6.59c0-2-.1-2.11-2-2.43v-.77a20.87,20.87,0,0,0,4.55-1.28v11.07c0,2.18.22,2.34,2.3,2.53v.9ZM54.11,236a1.75,1.75,0,0,1-1.7-1.7,1.73,1.73,0,0,1,1.73-1.76,1.68,1.68,0,0,1,1.63,1.76A1.7,1.7,0,0,1,54.11,236Z"/><path class="cls-1" d="M71.45,250.78C70,252.63,67.9,254,66,254a6.45,6.45,0,0,1-6.47-6.72,7.58,7.58,0,0,1,3.24-6.27,8.45,8.45,0,0,1,4.86-1.82,4.74,4.74,0,0,1,3,.86,1,1,0,0,1,.51.93A1.61,1.61,0,0,1,70,242.46c-.16,0-.29-.07-.61-.32a4.74,4.74,0,0,0-3.23-1.35c-2.12,0-4,1.8-4,5.12,0,4.45,3,5.92,4.86,5.92a5.14,5.14,0,0,0,3.91-1.76Z"/><path class="cls-1" d="M83.32,254a2.35,2.35,0,0,1-1.5-.61,2.93,2.93,0,0,1-.77-1.44c-1.28.87-2.85,2-3.84,2a3.92,3.92,0,0,1-3.9-3.94c0-1.56.86-2.59,2.62-3.19A26.34,26.34,0,0,0,81,244.83v-.64c0-2.28-1.16-3.59-2.82-3.59a1.83,1.83,0,0,0-1.5.74,6.7,6.7,0,0,0-.87,2.08.89.89,0,0,1-.93.73,1.54,1.54,0,0,1-1.4-1.4c0-.45.41-.84,1-1.28a13.29,13.29,0,0,1,4.61-2.24,4.19,4.19,0,0,1,4.32,4.57V250c0,1.47.54,1.92,1.12,1.92a2.46,2.46,0,0,0,1.15-.36l.32.9ZM81,246c-.71.35-2.24,1-3,1.34-1.22.54-2,1.15-2,2.33a2.33,2.33,0,0,0,2.3,2.47A4.27,4.27,0,0,0,81,250.94Z"/><path class="cls-1" d="M86.91,253.66v-.9c2-.19,2.3-.35,2.3-2.46V235c0-1.95-.16-2.14-2.21-2.4v-.83a22.89,22.89,0,0,0,4.74-1.09V250.3c0,2.11.19,2.27,2.27,2.46v.9Z"/><path class="cls-1" d="M95.42,253.66v-.9c2-.19,2.3-.35,2.3-2.46V235c0-1.95-.16-2.14-2.21-2.4v-.83a22.74,22.74,0,0,0,4.74-1.09V250.3c0,2.11.19,2.27,2.27,2.46v.9Z"/><path class="cls-1" d="M118.23,240.47c-1.66.26-2,.52-2.81,2.34s-1.67,4-3.88,9.53a89.23,89.23,0,0,0-3.16,8.77c-.2.67-.55.83-1,.83a1.84,1.84,0,0,1-2-1.53c0-.42.22-.71.7-1.12a7.17,7.17,0,0,0,2.14-2.37,30.83,30.83,0,0,0,1.31-2.88,1.87,1.87,0,0,0-.06-1.31c-1.25-3.65-3-7.58-3.93-9.89-.71-1.76-1-2.14-2.76-2.37v-.86h6.47v.86c-1.47.23-1.64.55-1.22,1.73l3.1,7.87c.9-2.2,2.18-5.76,2.85-7.77.39-1.22.16-1.57-1.69-1.83v-.86h5.85Z"/><path class="cls-1" d="M143.61,253.66v-.9c1.89-.19,2.11-.32,2.11-2.56v-5.34c0-2.27-.77-3.71-2.75-3.71a5.82,5.82,0,0,0-3.55,1.66c0,.38.09.77.09,1.38v6.2c0,2,.29,2.18,2.05,2.37v.9h-6.85v-.9c2-.19,2.27-.32,2.27-2.43v-5.5c0-2.37-.73-3.68-2.68-3.68a6.12,6.12,0,0,0-3.52,1.66v7.52c0,2.11.22,2.24,2,2.43v.9h-6.88v-.9c2.12-.19,2.31-.32,2.31-2.43v-6.62c0-2.05-.13-2.18-1.92-2.5v-.8a17.08,17.08,0,0,0,4.45-1.28v2.59a23,23,0,0,1,2.36-1.66,4.38,4.38,0,0,1,2.53-.83,3.74,3.74,0,0,1,3.49,2.62c.9-.7,1.73-1.25,2.53-1.79a4.82,4.82,0,0,1,2.53-.83c2.49,0,4,1.79,4,4.92v6.18c0,2.14.19,2.24,2,2.43v.9Z"/><path class="cls-1" d="M152.15,253.66v-.9c2-.19,2.24-.35,2.24-2.53v-6.59c0-2-.09-2.11-2-2.43v-.77a20.93,20.93,0,0,0,4.54-1.28v11.07c0,2.18.22,2.34,2.3,2.53v.9ZM155.48,236a1.75,1.75,0,0,1-1.7-1.7,1.73,1.73,0,0,1,1.73-1.76,1.67,1.67,0,0,1,1.63,1.76A1.7,1.7,0,0,1,155.48,236Z"/><path class="cls-1" d="M160.57,253.66v-.9c2.05-.19,2.3-.35,2.3-2.46V235c0-1.95-.16-2.14-2.21-2.4v-.83a22.74,22.74,0,0,0,4.74-1.09V250.3c0,2.11.19,2.27,2.27,2.46v.9Z"/><path class="cls-1" d="M184.82,252.86a33.06,33.06,0,0,0-5,1.18V252c-.57.35-1.4.8-2,1.15a5.76,5.76,0,0,1-2.53.93c-2.56,0-5.95-2.56-5.95-7s3.9-7.77,8.29-7.77a6.41,6.41,0,0,1,2.17.35v-4.71c0-2-.22-2.11-2.49-2.3v-.83a32,32,0,0,0,5-1.09v19.29c0,1.67.23,1.89,1.41,2l1,.06Zm-5-10.75a4,4,0,0,0-3.36-1.64c-1.53,0-4.25,1-4.25,5.64,0,3.87,2.4,5.91,4.45,5.95a5.68,5.68,0,0,0,3.16-1.16Z"/><path class="cls-1" d="M187.16,256.54c1.44-.68,2.56-1.54,2.56-2.76s-.93-1.44-2.05-1.72a1,1,0,0,1-.51-1,1.64,1.64,0,0,1,1.79-1.6c1.15,0,2.72,1.06,2.72,3.4,0,2.52-2.24,4.06-4.09,4.6Z"/><path class="cls-1" d="M210.68,243.42c-.58-1.86-1.41-3.14-3.36-3.14a2,2,0,0,0-2,2.08c0,1.38.93,2,2.72,2.85,2.76,1.31,4.13,2.27,4.13,4.38,0,2.95-2.69,4.45-5.21,4.45a8.41,8.41,0,0,1-3.81-.89c-.16-.93-.45-2.69-.58-3.75l.93-.16c.58,2,1.7,3.71,3.94,3.71a2.13,2.13,0,0,0,2.24-2.17c0-1.44-.87-2.18-2.56-3-2.24-1.09-4.07-2.11-4.07-4.42s2-4.12,5-4.12a17.14,17.14,0,0,1,3.08.41c.09.77.32,2.79.48,3.55Z"/><path class="cls-1" d="M229.49,252.92A37.92,37.92,0,0,0,224.6,254v-2.46c-1.73,1.44-3.14,2.46-4.9,2.46-2.14,0-4-1.31-4-4.8V243c0-1.72-.25-1.92-1-2.08l-.9-.16V240a43,43,0,0,0,4.58-.57c-.1,1-.1,2.56-.1,4.67v4.35c0,2.82,1.47,3.61,2.91,3.61a5.07,5.07,0,0,0,3.46-1.53V243c0-1.72-.39-1.95-1.47-2.11l-1-.13V240a45.85,45.85,0,0,0,5-.57V250.1c0,1.61.26,1.83,1.48,1.89l.89,0Z"/><path class="cls-1" d="M243.06,250.78c-1.41,1.85-3.55,3.26-5.47,3.26a6.45,6.45,0,0,1-6.46-6.72,7.57,7.57,0,0,1,3.23-6.27,8.45,8.45,0,0,1,4.86-1.82,4.74,4.74,0,0,1,3,.86,1,1,0,0,1,.51.93,1.61,1.61,0,0,1-1.15,1.44c-.16,0-.29-.07-.61-.32a4.74,4.74,0,0,0-3.23-1.35c-2.11,0-4,1.8-4,5.12,0,4.45,3,5.92,4.86,5.92a5.12,5.12,0,0,0,3.91-1.76Z"/><path class="cls-1" d="M253.46,253.66v-.9c1.86-.19,2.11-.35,2.11-2.46v-5.25c0-2.66-1-4-3.16-4a4.58,4.58,0,0,0-3.4,1.67v7.55c0,2.08.26,2.27,2.18,2.46v.9h-7v-.9c1.86-.16,2.28-.32,2.28-2.46V234.87c0-1.69-.1-2.11-2.24-2.3v-.83a19.69,19.69,0,0,0,4.76-1.09v10.91a7.27,7.27,0,0,1,4.64-2.33c2.63,0,4.45,1.63,4.45,5.47v5.63c0,2.11.26,2.27,2.11,2.43v.9Z"/><path class="cls-1" d="M279.76,254a2.35,2.35,0,0,1-1.5-.61,2.93,2.93,0,0,1-.77-1.44c-1.28.87-2.85,2-3.84,2a3.92,3.92,0,0,1-3.9-3.94c0-1.56.86-2.59,2.62-3.19a26.06,26.06,0,0,0,5.06-2.08v-.64c0-2.28-1.15-3.59-2.82-3.59a1.84,1.84,0,0,0-1.5.74,7,7,0,0,0-.87,2.08.87.87,0,0,1-.92.73,1.54,1.54,0,0,1-1.41-1.4c0-.45.42-.84,1.06-1.28a13.14,13.14,0,0,1,4.6-2.24,4.19,4.19,0,0,1,4.32,4.57V250c0,1.47.55,1.92,1.12,1.92a2.42,2.42,0,0,0,1.15-.36l.32.9ZM277.43,246c-.71.35-2.24,1-3,1.34-1.21.54-1.95,1.15-1.95,2.33a2.33,2.33,0,0,0,2.31,2.47,4.24,4.24,0,0,0,2.62-1.15Z"/><path class="cls-1" d="M291.92,243.42c-.57-1.86-1.4-3.14-3.36-3.14a1.94,1.94,0,0,0-2,2.08c0,1.38.93,2,2.72,2.85,2.75,1.31,4.13,2.27,4.13,4.38,0,2.95-2.69,4.45-5.22,4.45a8.4,8.4,0,0,1-3.8-.89c-.16-.93-.45-2.69-.58-3.75l.93-.16c.57,2,1.69,3.71,3.93,3.71a2.13,2.13,0,0,0,2.24-2.17c0-1.44-.86-2.18-2.56-3-2.24-1.09-4.06-2.11-4.06-4.42s2-4.12,5-4.12a17.14,17.14,0,0,1,3.07.41c.1.77.32,2.79.48,3.55Z"/><path class="cls-1" d="M309.24,253.62a3.25,3.25,0,0,1-1.38.42c-2.05,0-3.14-1.25-3.14-3.81v-9.31h-2.2l-.13-.38.86-.93h1.47v-2.69c.61-.64,1.54-1.47,2.15-2.11l.48.06c-.07,1.35-.1,3.2-.1,4.74h3.65a1,1,0,0,1-.19,1.31h-3.46v8.19c0,2.6,1,3.08,1.86,3.08a4.48,4.48,0,0,0,1.95-.52l.29.83Z"/><path class="cls-1" d="M321.49,253.66v-.9c1.86-.19,2.11-.35,2.11-2.46v-5.25c0-2.66-1-4-3.16-4a4.58,4.58,0,0,0-3.4,1.67v7.55c0,2.08.26,2.27,2.18,2.46v.9h-7v-.9c1.86-.16,2.28-.32,2.28-2.46V234.87c0-1.69-.1-2.11-2.24-2.3v-.83a19.69,19.69,0,0,0,4.76-1.09v10.91a7.27,7.27,0,0,1,4.64-2.33c2.63,0,4.45,1.63,4.45,5.47v5.63c0,2.11.26,2.27,2.11,2.43v.9Z"/><path class="cls-1" d="M341.68,250.94c-2,2.56-4.28,3.1-5.31,3.1-3.9,0-6.27-3.2-6.27-6.88a8.24,8.24,0,0,1,2.08-5.6,6.56,6.56,0,0,1,4.77-2.33,5,5,0,0,1,4.89,5c0,.64-.12.92-.64,1.05s-4.73.42-8.54.55c-.1,4.28,2.53,6,4.8,6a5.39,5.39,0,0,0,3.71-1.63Zm-5.5-10.5c-1.47,0-2.91,1.38-3.36,4,1.79,0,3.58,0,5.47-.1.58,0,.77-.16.77-.64A3,3,0,0,0,336.18,240.44Z"/><path class="cls-1" d="M363.31,250.78c-1.4,1.85-3.55,3.26-5.47,3.26a6.45,6.45,0,0,1-6.46-6.72,7.6,7.6,0,0,1,3.23-6.27,8.49,8.49,0,0,1,4.86-1.82,4.74,4.74,0,0,1,3,.86,1,1,0,0,1,.51.93,1.61,1.61,0,0,1-1.15,1.44c-.16,0-.29-.07-.61-.32a4.74,4.74,0,0,0-3.23-1.35c-2.11,0-4,1.8-4,5.12,0,4.45,3,5.92,4.87,5.92a5.12,5.12,0,0,0,3.9-1.76Z"/><path class="cls-1" d="M372.18,239.23a6.87,6.87,0,0,1,7,7.16c0,5.19-3.84,7.65-7,7.65a7,7,0,0,1-7.1-7.13A7.32,7.32,0,0,1,372.18,239.23Zm-.39,1.08c-2,0-3.71,1.89-3.71,5.6,0,4.07,1.79,7,4.42,7,2,0,3.65-1.44,3.65-5.82C376.15,243.35,374.61,240.31,371.79,240.31Z"/><path class="cls-1" d="M398.8,253.66v-.9c1.89-.19,2.11-.32,2.11-2.56v-5.34c0-2.27-.76-3.71-2.75-3.71a5.87,5.87,0,0,0-3.55,1.66,13.51,13.51,0,0,1,.1,1.38v6.2c0,2,.28,2.18,2,2.37v.9h-6.84v-.9c2-.19,2.27-.32,2.27-2.43v-5.5c0-2.37-.74-3.68-2.69-3.68a6.12,6.12,0,0,0-3.52,1.66v7.52c0,2.11.22,2.24,2,2.43v.9h-6.88v-.9c2.11-.19,2.3-.32,2.3-2.43v-6.62c0-2.05-.13-2.18-1.92-2.5v-.8a17,17,0,0,0,4.45-1.28v2.59a22.23,22.23,0,0,1,2.37-1.66,4.35,4.35,0,0,1,2.53-.83,3.74,3.74,0,0,1,3.48,2.62c.9-.7,1.73-1.25,2.53-1.79a4.85,4.85,0,0,1,2.53-.83c2.5,0,4,1.79,4,4.92v6.18c0,2.14.19,2.24,2,2.43v.9Z"/><path class="cls-1" d="M425,253.66v-.9c1.88-.19,2.11-.32,2.11-2.56v-5.34c0-2.27-.77-3.71-2.75-3.71a5.87,5.87,0,0,0-3.56,1.66,11.13,11.13,0,0,1,.1,1.38v6.2c0,2,.29,2.18,2,2.37v.9h-6.85v-.9c2-.19,2.27-.32,2.27-2.43v-5.5c0-2.37-.73-3.68-2.69-3.68a6.15,6.15,0,0,0-3.52,1.66v7.52c0,2.11.23,2.24,2.05,2.43v.9h-6.88v-.9c2.11-.19,2.31-.32,2.31-2.43v-6.62c0-2.05-.13-2.18-1.92-2.5v-.8a17,17,0,0,0,4.44-1.28v2.59a24.5,24.5,0,0,1,2.37-1.66,4.38,4.38,0,0,1,2.53-.83,3.74,3.74,0,0,1,3.49,2.62c.89-.7,1.73-1.25,2.53-1.79a4.82,4.82,0,0,1,2.52-.83c2.5,0,4,1.79,4,4.92v6.18c0,2.14.2,2.24,2,2.43v.9Z"/><path class="cls-1" d="M440.66,239.23a6.87,6.87,0,0,1,7,7.16c0,5.19-3.84,7.65-7,7.65a7,7,0,0,1-7.11-7.13A7.33,7.33,0,0,1,440.66,239.23Zm-.39,1.08c-1.95,0-3.71,1.89-3.71,5.6,0,4.07,1.79,7,4.42,7,2,0,3.65-1.44,3.65-5.82C444.63,243.35,443.09,240.31,440.27,240.31Z"/><path class="cls-1" d="M458.9,253.66v-.9c1.85-.19,2.05-.42,2.05-2.59v-5.28c0-2.24-.8-3.74-2.92-3.74a5.56,5.56,0,0,0-3.55,1.66v7.49c0,2.2.19,2.27,2.08,2.46v.9h-6.91v-.9c2.11-.22,2.3-.35,2.3-2.46v-6.59c0-2.08-.22-2.18-1.95-2.47v-.83a18.17,18.17,0,0,0,4.48-1.28v2.53c.64-.45,1.35-.93,2.18-1.47a4.86,4.86,0,0,1,2.65-1c2.56,0,4.16,1.88,4.16,5v6.08c0,2.17.2,2.27,2,2.46v.9Z"/><path class="cls-1" d="M13,289.18c-1.4,1.85-3.55,3.26-5.47,3.26A6.45,6.45,0,0,1,1,285.72a7.6,7.6,0,0,1,3.23-6.27,8.49,8.49,0,0,1,4.87-1.82,4.71,4.71,0,0,1,3,.86,1,1,0,0,1,.51.93,1.61,1.61,0,0,1-1.15,1.44c-.16,0-.29-.07-.61-.32a4.74,4.74,0,0,0-3.23-1.35c-2.11,0-4,1.8-4,5.12,0,4.45,3,5.92,4.87,5.92a5.12,5.12,0,0,0,3.9-1.76Z"/><path class="cls-1" d="M21.82,277.63a6.87,6.87,0,0,1,7,7.16c0,5.19-3.84,7.65-7,7.65a7,7,0,0,1-7.1-7.13A7.32,7.32,0,0,1,21.82,277.63Zm-.38,1.08c-2,0-3.72,1.89-3.72,5.6,0,4.07,1.8,7,4.42,7,2,0,3.65-1.44,3.65-5.82C25.79,281.75,24.25,278.71,21.44,278.71Z"/><path class="cls-1" d="M30.59,292.06v-.9c2.05-.19,2.3-.35,2.3-2.46V273.37c0-1.95-.16-2.14-2.21-2.4v-.83a22.74,22.74,0,0,0,4.74-1.09V288.7c0,2.11.19,2.27,2.27,2.46v.9Z"/><path class="cls-1" d="M54.84,291.26a33.06,33.06,0,0,0-5,1.18v-2.08c-.57.35-1.41.8-2,1.15a5.8,5.8,0,0,1-2.53.93c-2.56,0-5.95-2.56-5.95-7s3.9-7.77,8.29-7.77a6.44,6.44,0,0,1,2.17.35v-4.71c0-2-.22-2.11-2.49-2.3v-.83a32,32,0,0,0,5-1.09v19.29c0,1.67.22,1.89,1.41,2l1,.06Zm-5-10.75a4,4,0,0,0-3.36-1.64c-1.53,0-4.25,1-4.25,5.64,0,3.87,2.4,5.91,4.44,5.95a5.72,5.72,0,0,0,3.17-1.16Z"/><path class="cls-1" d="M57.18,294.94c1.44-.68,2.56-1.54,2.56-2.76s-.93-1.44-2.05-1.72a1,1,0,0,1-.51-1,1.64,1.64,0,0,1,1.79-1.6c1.15,0,2.72,1.06,2.72,3.4,0,2.52-2.24,4.06-4.1,4.6Z"/><path class="cls-1" d="M78.62,292a3.25,3.25,0,0,1-1.38.42c-2,0-3.13-1.25-3.13-3.81v-9.31H71.9l-.13-.38.86-.93h1.48v-2.69c.6-.64,1.53-1.47,2.14-2.11l.48.06c-.06,1.35-.1,3.2-.1,4.74h3.65a1,1,0,0,1-.19,1.31H76.63v8.19c0,2.59,1,3.07,1.86,3.07a4.48,4.48,0,0,0,2-.51l.29.83Z"/><path class="cls-1" d="M90.87,292.06v-.9c1.86-.19,2.11-.35,2.11-2.46v-5.25c0-2.66-1-4-3.16-4a4.54,4.54,0,0,0-3.39,1.67v7.55c0,2.08.25,2.27,2.17,2.46v.9h-7v-.9c1.85-.16,2.27-.32,2.27-2.46V273.27c0-1.69-.1-2.11-2.24-2.3v-.83a19.89,19.89,0,0,0,4.77-1.09V280a7.22,7.22,0,0,1,4.63-2.33c2.63,0,4.45,1.63,4.45,5.47v5.63c0,2.11.26,2.27,2.11,2.43v.9Z"/><path class="cls-1" d="M106.58,277.63a6.88,6.88,0,0,1,7,7.16c0,5.19-3.84,7.65-7,7.65a7,7,0,0,1-7.1-7.13A7.33,7.33,0,0,1,106.58,277.63Zm-.38,1.08c-2,0-3.71,1.89-3.71,5.6,0,4.07,1.79,7,4.41,7,2,0,3.65-1.44,3.65-5.82C110.55,281.75,109,278.71,106.2,278.71Z"/><path class="cls-1" d="M131.32,291.32a36.45,36.45,0,0,0-4.9,1.12V290c-1.72,1.44-3.13,2.46-4.89,2.46-2.15,0-4-1.31-4-4.8v-6.21c0-1.72-.26-1.92-1.06-2.08l-.89-.16v-.83a43.15,43.15,0,0,0,4.57-.57c-.09,1-.09,2.56-.09,4.67v4.35c0,2.81,1.47,3.61,2.91,3.61a5,5,0,0,0,3.45-1.53v-7.46c0-1.72-.38-1.95-1.47-2.11l-1-.13v-.83a45.85,45.85,0,0,0,5-.57V288.5c0,1.6.26,1.83,1.47,1.89l.9,0Z"/><path class="cls-1" d="M137,287.38A2.35,2.35,0,0,0,136,289c0,.58.55,1.22,2,1.22l3.58,0c2.05,0,4.67.67,4.67,3.84,0,3.33-3.93,6.46-8.19,6.46-3.62,0-5.57-2.11-5.63-4a2.53,2.53,0,0,1,.8-1.82,32,32,0,0,1,2.62-2.31,4.19,4.19,0,0,1-2.4-1.72,2.88,2.88,0,0,1-.38-1.38A6.76,6.76,0,0,0,136,287Zm1.53.33c-3,0-5.44-1.83-5.44-4.84,0-3.64,3.27-5.34,5.76-5.34a6.56,6.56,0,0,1,3.07.8,21.7,21.7,0,0,0,4.29-.48l.19.29a3.9,3.9,0,0,1-1.18,1.69c-.48,0-1.54-.12-2-.16a5,5,0,0,1,.92,2.92C144.18,286.07,141.31,287.71,138.55,287.71Zm.74,4.73c-1.57,0-2.27.19-2.85.67a3.71,3.71,0,0,0-1.53,2.63c0,1.76,1.82,3.07,4.28,3.07,3,0,4.77-1.57,4.77-3.62a2.38,2.38,0,0,0-1.41-2.33A8.43,8.43,0,0,0,139.29,292.44Zm-.74-13.89c-1.44,0-2.72,1.32-2.72,3.84s1.28,4.29,3,4.29c1.41-.06,2.66-1.25,2.66-3.84S140.35,278.55,138.55,278.55Z"/><path class="cls-1" d="M156.31,292.06v-.9c1.86-.19,2.11-.35,2.11-2.46v-5.25c0-2.66-1-4-3.16-4a4.54,4.54,0,0,0-3.39,1.67v7.55c0,2.08.25,2.27,2.17,2.46v.9h-7v-.9c1.85-.16,2.27-.32,2.27-2.46V273.27c0-1.69-.1-2.11-2.24-2.3v-.83a19.89,19.89,0,0,0,4.77-1.09V280a7.22,7.22,0,0,1,4.63-2.33c2.63,0,4.45,1.63,4.45,5.47v5.63c0,2.11.26,2.27,2.11,2.43v.9Z"/><path class="cls-1" d="M179.7,292.06h-7.35v-.9c2-.19,2.2-.35,2.2-2.43v-6.66c0-2.11-.13-2.2-2-2.43v-.8a17.46,17.46,0,0,0,4.51-1.31v3.52c1.12-1.66,2.46-3.42,4.06-3.42a1.65,1.65,0,0,1,1.86,1.53,2.13,2.13,0,0,1-1.09,1.76.64.64,0,0,1-.83-.06,2,2,0,0,0-1.44-.8c-.67,0-1.86,1-2.56,2.62v6c0,2.11.16,2.27,2.62,2.46Z"/><path class="cls-1" d="M194.52,292.44a2.35,2.35,0,0,1-1.5-.61,2.93,2.93,0,0,1-.77-1.44c-1.28.87-2.85,2.05-3.84,2.05a3.93,3.93,0,0,1-3.91-3.94c0-1.56.87-2.59,2.63-3.19a25.92,25.92,0,0,0,5.05-2.08v-.64c0-2.28-1.15-3.59-2.81-3.59a1.85,1.85,0,0,0-1.51.74,7,7,0,0,0-.86,2.08.89.89,0,0,1-.93.73,1.54,1.54,0,0,1-1.41-1.4c0-.45.42-.84,1.06-1.28a13.2,13.2,0,0,1,4.61-2.24,4.19,4.19,0,0,1,4.32,4.57v6.18c0,1.47.54,1.92,1.12,1.92a2.46,2.46,0,0,0,1.15-.36l.32.9Zm-2.34-8.09c-.7.35-2.24,1-3,1.34-1.22.54-2,1.15-2,2.33a2.33,2.33,0,0,0,2.3,2.47,4.24,4.24,0,0,0,2.62-1.15Z"/><path class="cls-1" d="M205.94,292.06h-7.36v-.9c2-.19,2.21-.35,2.21-2.43v-6.66c0-2.11-.13-2.2-2-2.43v-.8a17.46,17.46,0,0,0,4.51-1.31v3.52c1.12-1.66,2.46-3.42,4.06-3.42a1.65,1.65,0,0,1,1.86,1.53,2.13,2.13,0,0,1-1.09,1.76.64.64,0,0,1-.83-.06,2,2,0,0,0-1.44-.8c-.67,0-1.86,1-2.56,2.62v6c0,2.11.16,2.27,2.62,2.46Z"/><path class="cls-1" d="M221.94,289.34c-2,2.56-4.28,3.1-5.31,3.1-3.9,0-6.27-3.2-6.27-6.88a8.24,8.24,0,0,1,2.08-5.6,6.56,6.56,0,0,1,4.77-2.33,5,5,0,0,1,4.89,5c0,.64-.12.92-.64,1.05s-4.73.42-8.54.55c-.1,4.28,2.53,6,4.8,6a5.39,5.39,0,0,0,3.71-1.63Zm-5.5-10.5c-1.47,0-2.91,1.38-3.36,4,1.79,0,3.58,0,5.47-.1.58,0,.77-.16.77-.64A3,3,0,0,0,216.44,278.84Z"/><path class="cls-1" d="M231.38,292.06H224v-.9c2-.19,2.21-.35,2.21-2.43v-6.66c0-2.11-.13-2.2-2-2.43v-.8a17.46,17.46,0,0,0,4.51-1.31v3.52c1.12-1.66,2.46-3.42,4.06-3.42a1.65,1.65,0,0,1,1.86,1.53,2.13,2.13,0,0,1-1.09,1.76.64.64,0,0,1-.83-.06,2,2,0,0,0-1.44-.8c-.67,0-1.86,1-2.56,2.62v6c0,2.11.16,2.27,2.62,2.46Z"/><path class="cls-1" d="M245.59,278v-.86a8.2,8.2,0,0,1,2.82-6.4,6.57,6.57,0,0,1,3.58-1.7,3.59,3.59,0,0,1,2.59,1,1,1,0,0,1,.2,1.12,2.63,2.63,0,0,1-.77,1,.73.73,0,0,1-.93-.07,4.18,4.18,0,0,0-2.59-1.31c-2.37,0-2.37,3.23-2.37,5.67V278h3.39a1.22,1.22,0,0,1-.32,1.31h-3.07v9.25c0,2.3.35,2.33,2.75,2.59v.9h-7.52v-.9c2-.19,2.24-.32,2.24-2.4v-9.44h-2.27l-.13-.35.71-1Z"/><path class="cls-1" d="M259.86,277.63a6.88,6.88,0,0,1,7,7.16c0,5.19-3.84,7.65-7,7.65a7,7,0,0,1-7.1-7.13A7.32,7.32,0,0,1,259.86,277.63Zm-.38,1.08c-2,0-3.71,1.89-3.71,5.6,0,4.07,1.79,7,4.41,7,2,0,3.65-1.44,3.65-5.82C263.83,281.75,262.29,278.71,259.48,278.71Z"/><path class="cls-1" d="M276.28,292.06h-7.36v-.9c2-.19,2.21-.35,2.21-2.43v-6.66c0-2.11-.13-2.2-2-2.43v-.8a17.65,17.65,0,0,0,4.52-1.31v3.52c1.12-1.66,2.46-3.42,4.06-3.42a1.65,1.65,0,0,1,1.85,1.53,2.15,2.15,0,0,1-1.08,1.76.63.63,0,0,1-.83-.06,2,2,0,0,0-1.44-.8c-.68,0-1.86,1-2.56,2.62v6c0,2.11.16,2.27,2.62,2.46Z"/><path class="cls-1" d="M298.39,292.06v-.9c1.89-.19,2.11-.32,2.11-2.56v-5.34c0-2.27-.77-3.71-2.75-3.71a5.82,5.82,0,0,0-3.55,1.66c0,.38.09.77.09,1.38v6.2c0,2,.29,2.18,2,2.37v.9h-6.85v-.9c2-.19,2.28-.32,2.28-2.43v-5.5c0-2.37-.74-3.68-2.69-3.68a6.12,6.12,0,0,0-3.52,1.66v7.52c0,2.11.22,2.24,2.05,2.43v.9h-6.88v-.9c2.11-.19,2.3-.32,2.3-2.43v-6.62c0-2.05-.13-2.18-1.92-2.5v-.8a17,17,0,0,0,4.45-1.28v2.59a22.23,22.23,0,0,1,2.37-1.66,4.34,4.34,0,0,1,2.52-.83,3.74,3.74,0,0,1,3.49,2.62c.9-.7,1.73-1.25,2.53-1.79a4.82,4.82,0,0,1,2.53-.83c2.49,0,4,1.79,4,4.92v6.18c0,2.14.19,2.24,2,2.43v.9Z"/><path class="cls-1" d="M315,281.82c-.58-1.86-1.41-3.14-3.36-3.14a2,2,0,0,0-2,2.08c0,1.38.93,2,2.72,2.85,2.75,1.31,4.13,2.27,4.13,4.38,0,2.95-2.69,4.45-5.21,4.45a8.26,8.26,0,0,1-3.81-.9c-.16-.92-.45-2.68-.58-3.74l.93-.16c.58,2.05,1.69,3.71,3.94,3.71a2.13,2.13,0,0,0,2.23-2.17c0-1.44-.86-2.18-2.56-3-2.23-1.09-4.06-2.11-4.06-4.42s2-4.12,5-4.12a17,17,0,0,1,3.07.41c.1.77.32,2.79.48,3.55Z"/><path class="cls-1" d="M334.36,281.82c-.58-1.86-1.41-3.14-3.36-3.14a2,2,0,0,0-2,2.08c0,1.38.93,2,2.72,2.85,2.76,1.31,4.13,2.27,4.13,4.38,0,2.95-2.69,4.45-5.21,4.45a8.26,8.26,0,0,1-3.81-.9c-.16-.92-.45-2.68-.58-3.74l.93-.16c.58,2.05,1.7,3.71,3.94,3.71a2.13,2.13,0,0,0,2.24-2.17c0-1.44-.87-2.18-2.56-3-2.24-1.09-4.07-2.11-4.07-4.42s2-4.12,5-4.12a17.14,17.14,0,0,1,3.08.41c.09.77.32,2.79.48,3.55Z"/><path class="cls-1" d="M353.17,291.32a36.32,36.32,0,0,0-4.89,1.12V290c-1.73,1.44-3.14,2.46-4.9,2.46-2.14,0-4-1.31-4-4.8v-6.21c0-1.72-.25-1.92-1.05-2.08l-.9-.16v-.83a43,43,0,0,0,4.58-.57c-.1,1-.1,2.56-.1,4.67v4.35c0,2.81,1.47,3.61,2.91,3.61a5.07,5.07,0,0,0,3.46-1.53v-7.46c0-1.72-.39-1.95-1.47-2.11l-1-.13v-.83a46.43,46.43,0,0,0,5-.57V288.5c0,1.6.25,1.83,1.47,1.89l.89,0Z"/><path class="cls-1" d="M366.74,289.18c-1.41,1.85-3.55,3.26-5.47,3.26a6.45,6.45,0,0,1-6.46-6.72,7.57,7.57,0,0,1,3.23-6.27,8.45,8.45,0,0,1,4.86-1.82,4.74,4.74,0,0,1,3,.86,1,1,0,0,1,.51.93,1.61,1.61,0,0,1-1.15,1.44c-.16,0-.29-.07-.61-.32a4.74,4.74,0,0,0-3.23-1.35c-2.11,0-4,1.8-4,5.12,0,4.45,3,5.92,4.86,5.92a5.12,5.12,0,0,0,3.91-1.76Z"/><path class="cls-1" d="M377.14,292.06v-.9c1.86-.19,2.11-.35,2.11-2.46v-5.25c0-2.66-1-4-3.16-4a4.58,4.58,0,0,0-3.4,1.67v7.55c0,2.08.26,2.27,2.18,2.46v.9h-7v-.9c1.86-.16,2.28-.32,2.28-2.46V273.27c0-1.69-.1-2.11-2.24-2.3v-.83a19.69,19.69,0,0,0,4.76-1.09V280a7.27,7.27,0,0,1,4.64-2.33c2.63,0,4.45,1.63,4.45,5.47v5.63c0,2.11.26,2.27,2.11,2.43v.9Z"/><path class="cls-1" d="M403.44,292.44a2.35,2.35,0,0,1-1.5-.61,2.93,2.93,0,0,1-.77-1.44c-1.28.87-2.84,2.05-3.84,2.05a3.92,3.92,0,0,1-3.9-3.94c0-1.56.86-2.59,2.62-3.19a25.79,25.79,0,0,0,5.06-2.08v-.64c0-2.28-1.15-3.59-2.82-3.59a1.84,1.84,0,0,0-1.5.74,6.72,6.72,0,0,0-.86,2.08.89.89,0,0,1-.93.73,1.54,1.54,0,0,1-1.41-1.4c0-.45.42-.84,1.06-1.28a13.14,13.14,0,0,1,4.6-2.24,4.19,4.19,0,0,1,4.32,4.57v6.18c0,1.47.55,1.92,1.12,1.92a2.42,2.42,0,0,0,1.15-.36l.32.9Zm-2.33-8.09c-.7.35-2.24,1-3,1.34-1.21.54-1.95,1.15-1.95,2.33a2.33,2.33,0,0,0,2.31,2.47,4.24,4.24,0,0,0,2.62-1.15Z"/><path class="cls-1" d="M415.6,281.82c-.57-1.86-1.4-3.14-3.36-3.14a1.94,1.94,0,0,0-2,2.08c0,1.38.93,2,2.72,2.85,2.75,1.31,4.13,2.27,4.13,4.38,0,2.95-2.69,4.45-5.22,4.45a8.25,8.25,0,0,1-3.8-.9c-.16-.92-.45-2.68-.58-3.74l.93-.16c.57,2.05,1.69,3.71,3.93,3.71a2.13,2.13,0,0,0,2.24-2.17c0-1.44-.86-2.18-2.56-3-2.24-1.09-4.06-2.11-4.06-4.42s2-4.12,5-4.12a17,17,0,0,1,3.07.41c.1.77.32,2.79.48,3.55Z"/><path class="cls-1" d="M12.35,314.52c-.55-2.11-1.44-4.19-4.45-4.19a3.19,3.19,0,0,0-3.36,3.49c0,2.21,1.41,3.33,4.06,4.7,3.84,2,5.51,3.46,5.51,6.5,0,3.36-2.91,5.92-7,5.92a13.4,13.4,0,0,1-4.9-1.06,43.94,43.94,0,0,1-.86-4.8l1-.25c.64,2.14,2.05,4.92,5.38,4.92a3.52,3.52,0,0,0,3.71-3.68c0-2.46-1.31-3.45-4.13-5C3.9,319.26,2,317.72,2,314.75s2.37-5.54,6.59-5.54a20.27,20.27,0,0,1,4.23.61c.12,1.15.25,2.43.51,4.51Z"/><path class="cls-1" d="M29.27,330.46v-.9c2.08-.25,2.34-.57,1.89-1.79s-1.05-2.85-1.73-4.86H22.52c-.51,1.44-1,2.68-1.44,4-.7,2.08-.25,2.33,2.37,2.65v.9H16.06v-.9c2-.25,2.53-.48,3.65-3.36l6.62-16.8,1-.19c2,5.47,4.23,11.52,6.24,17.06,1,2.78,1.32,3,3.59,3.29v.9ZM26.08,313.4c-1,2.75-2.12,5.67-3.08,8.19h6Z"/><path class="cls-1" d="M57.43,330.71c-.41,0-.76,0-1.18-.06a5.68,5.68,0,0,1-5-2.75c-1.19-1.63-2.34-3.65-3.36-5.28-.64-1-1.06-1.22-2.69-1.22H44.09v5c0,2.72.35,2.88,2.91,3.13v.9H38.46v-.9c2.66-.29,2.88-.41,2.88-3.13V313.66c0-2.72-.35-2.82-2.88-3.11v-.89h8.16c2.33,0,3.9.29,5.12,1.09A4.77,4.77,0,0,1,53.91,315c0,2.75-1.76,4.48-4.12,5.5.57,1,2,3.14,2.91,4.58a28.18,28.18,0,0,0,2.53,3.3,4.71,4.71,0,0,0,2.33,1.47Zm-11.8-10.4a5.17,5.17,0,0,0,3.52-.92,4.52,4.52,0,0,0,1.76-3.94c0-3.42-2.28-4.67-4.74-4.67a3,3,0,0,0-1.7.32c-.28.22-.38.54-.38,1.37v7.84Z"/><path class="cls-1" d="M70.33,314.52c-.54-2.11-1.44-4.19-4.45-4.19a3.19,3.19,0,0,0-3.36,3.49c0,2.21,1.41,3.33,4.07,4.7,3.84,2,5.5,3.46,5.5,6.5,0,3.36-2.91,5.92-7,5.92a13.45,13.45,0,0,1-4.9-1.06,46.51,46.51,0,0,1-.86-4.8l1-.25c.64,2.14,2,4.92,5.38,4.92a3.52,3.52,0,0,0,3.71-3.68c0-2.46-1.31-3.45-4.13-5-3.36-1.82-5.25-3.36-5.25-6.33s2.37-5.54,6.6-5.54a20.26,20.26,0,0,1,4.22.61c.13,1.15.26,2.43.51,4.51Z"/><path class="cls-1" d="M75.07,333.34c1.44-.67,2.56-1.54,2.56-2.76s-.93-1.43-2-1.72a1,1,0,0,1-.51-1,1.63,1.63,0,0,1,1.79-1.6c1.15,0,2.72,1.05,2.72,3.39,0,2.53-2.24,4.06-4.1,4.6Z"/><path class="cls-1" d="M108.44,330.46v-.9c2.62-.25,2.72-.45,2.69-3.87l0-13.06c-2.62,5.86-6.85,15-8,17.83h-.83c-1.09-2.91-4.7-11.71-7.14-17.51-.54,11.2-.57,13.73-.57,14.34,0,1.79.83,2,3,2.27v.9H90.07v-.9c1.86-.19,2.63-.57,2.88-2.3.2-1.41.23-2.56,1.06-14.24.13-1.67-.19-2.21-3-2.47v-.89h5.57l7.07,16.22,7.58-16.22h5.6v.89c-2.75.32-3.1.61-3,2.85l.13,12.29c.13,3.42.23,3.58,3,3.87v.9Z"/><path class="cls-1" d="M136.44,325.37c-.19.83-1.06,4.13-1.38,5.09H119.51v-.9c3-.22,3.2-.51,3.2-3.13V313.79c0-2.85-.35-3-2.75-3.24v-.89h9.79c3,0,4.26,0,4.64-.07,0,.8.16,3.2.29,4.9l-1,.16a10.75,10.75,0,0,0-1-2.43c-.51-1.06-1.25-1.28-3.17-1.28h-3c-1,0-1,.09-1,1V319h3.55c2.4,0,2.56-.48,2.94-2.65h1V323h-1c-.41-2.3-.67-2.62-3-2.62H125.5v6.36c0,2.24.7,2.44,2.3,2.47h3c1.95,0,2.27-.29,3-1.12a13.73,13.73,0,0,0,1.73-2.95Z"/><path class="cls-1" d="M157.66,330.71c-.42,0-.77,0-1.19-.06a5.69,5.69,0,0,1-5-2.75c-1.18-1.63-2.34-3.65-3.36-5.28-.64-1-1.06-1.22-2.69-1.22h-1.12v5c0,2.72.35,2.88,2.91,3.13v.9h-8.54v-.9c2.66-.29,2.88-.41,2.88-3.13V313.66c0-2.72-.35-2.82-2.88-3.11v-.89h8.16c2.34,0,3.9.29,5.12,1.09a4.78,4.78,0,0,1,2.18,4.22c0,2.75-1.76,4.48-4.13,5.5.57,1,2,3.14,2.91,4.58a28.18,28.18,0,0,0,2.53,3.3,4.71,4.71,0,0,0,2.33,1.47Zm-11.81-10.4a5.17,5.17,0,0,0,3.52-.92,4.5,4.5,0,0,0,1.76-3.94c0-3.42-2.27-4.67-4.74-4.67a2.91,2.91,0,0,0-1.69.32c-.29.22-.39.54-.39,1.37v7.84Z"/><path class="cls-1" d="M170.55,314.52c-.54-2.11-1.44-4.19-4.45-4.19a3.19,3.19,0,0,0-3.36,3.49c0,2.21,1.41,3.33,4.07,4.7,3.84,2,5.5,3.46,5.5,6.5,0,3.36-2.91,5.92-7,5.92a13.34,13.34,0,0,1-4.89-1.06,43.56,43.56,0,0,1-.87-4.8l1-.25c.64,2.14,2.05,4.92,5.38,4.92a3.52,3.52,0,0,0,3.71-3.68c0-2.46-1.31-3.45-4.13-5-3.36-1.82-5.24-3.36-5.24-6.33s2.36-5.54,6.59-5.54a20.26,20.26,0,0,1,4.22.61c.13,1.15.26,2.43.51,4.51Z"/><path class="cls-1" d="M175.29,333.34c1.44-.67,2.56-1.54,2.56-2.76s-.93-1.43-2-1.72a1,1,0,0,1-.51-1,1.64,1.64,0,0,1,1.79-1.6c1.15,0,2.72,1.05,2.72,3.39,0,2.53-2.24,4.06-4.1,4.6Z"/><path class="cls-1" d="M200.73,330.84a2.37,2.37,0,0,1-1.51-.61,3,3,0,0,1-.77-1.44c-1.28.87-2.84,2-3.84,2a3.92,3.92,0,0,1-3.9-3.93c0-1.57.86-2.6,2.62-3.2a25.79,25.79,0,0,0,5.06-2.08V321c0-2.28-1.15-3.59-2.82-3.59a1.84,1.84,0,0,0-1.5.74,6.72,6.72,0,0,0-.86,2.08.89.89,0,0,1-.93.73,1.54,1.54,0,0,1-1.41-1.4c0-.45.42-.84,1.06-1.28a13.14,13.14,0,0,1,4.6-2.24,4.19,4.19,0,0,1,4.32,4.57v6.18c0,1.47.55,1.92,1.12,1.92a2.6,2.6,0,0,0,1.16-.35l.32.89Zm-2.34-8.09c-.7.35-2.24,1-3,1.34-1.21.54-1.95,1.15-1.95,2.34a2.33,2.33,0,0,0,2.31,2.46,4.24,4.24,0,0,0,2.62-1.15Z"/><path class="cls-1" d="M214,330.46v-.9c1.86-.19,2.05-.41,2.05-2.59v-5.28c0-2.24-.8-3.74-2.91-3.74a5.56,5.56,0,0,0-3.55,1.66v7.49c0,2.21.19,2.27,2.08,2.46v.9h-6.91v-.9c2.11-.22,2.3-.35,2.3-2.46v-6.59c0-2.08-.22-2.18-1.95-2.47v-.83a18.3,18.3,0,0,0,4.48-1.28v2.53c.64-.45,1.34-.93,2.17-1.47a4.89,4.89,0,0,1,2.66-1c2.56,0,4.16,1.88,4.16,5v6.08c0,2.17.19,2.27,2,2.46v.9Z"/><path class="cls-1" d="M237.94,329.66a34.38,34.38,0,0,0-5,1.18v-2.08c-.57.35-1.41.8-2,1.15a5.8,5.8,0,0,1-2.53.93c-2.56,0-5.95-2.56-5.95-7s3.9-7.77,8.29-7.77a6.44,6.44,0,0,1,2.17.35v-4.71c0-2-.22-2.11-2.49-2.3v-.83a32,32,0,0,0,5-1.09v19.3c0,1.66.22,1.88,1.41,1.95l1,.06Zm-5-10.75a4,4,0,0,0-3.36-1.64c-1.53,0-4.25,1-4.25,5.64,0,3.87,2.4,5.92,4.44,5.95a5.78,5.78,0,0,0,3.17-1.15Z"/><path class="cls-1" d="M266.52,325.34a41.17,41.17,0,0,1-1.76,4.83,29.37,29.37,0,0,1-5.86.77c-7.65,0-11.55-5.09-11.55-10.69,0-6.53,5-11,12.13-11a32.41,32.41,0,0,1,6,.74c.13,1.44.36,3.36.61,5l-1,.22c-.64-2.14-1.41-3.46-3-4.13a8.81,8.81,0,0,0-3.36-.61c-5.28,0-8.06,3.91-8.06,9.19,0,6.17,3.2,10.14,8.38,10.14,3.26,0,4.86-1.5,6.5-4.7Z"/><path class="cls-1" d="M280.47,309.21a10.29,10.29,0,0,1,10.37,10.56c0,6.88-4.68,11.17-10.56,11.17a10.42,10.42,0,0,1-10.63-10.69C269.65,314.52,273.72,309.21,280.47,309.21Zm-.64,1.18c-3.59,0-6.85,3-6.85,9s3.26,10.33,7.81,10.33c3.87,0,6.78-2.88,6.78-9.05C287.57,314,284,310.39,279.83,310.39Z"/><path class="cls-1" d="M314,310.55c-2.14.29-2.69.58-3.84,3.46-.86,2.11-5.28,12.83-6.85,16.8h-1c-1.89-5.15-4.64-12.64-6.47-17.38-.89-2.36-1.44-2.68-3.39-2.88v-.89h8.13v.89c-2.37.26-2.5.64-2.05,1.83.8,2.33,3.14,8.7,5.15,14,1.7-4.12,3.81-9.34,5.32-13.37.7-1.86.32-2.15-2.31-2.47v-.89H314Z"/><path class="cls-1" d="M315.22,330.46v-.9c2.62-.29,2.88-.41,2.88-3.13V313.72c0-2.75-.26-2.88-2.88-3.17v-.89h8.57v.89c-2.65.29-2.91.42-2.91,3.17v12.71c0,2.75.26,2.84,2.91,3.13v.9Z"/><path class="cls-1" d="M335.92,309.66c4.51,0,7.36.89,9.35,2.78a9.3,9.3,0,0,1,2.72,6.85,10.54,10.54,0,0,1-4,8.64c-2.44,1.82-5.54,2.53-9.48,2.53H327v-.9c2.75-.25,2.88-.48,2.88-3.1V313.69c0-2.75-.39-2.88-2.88-3.14v-.89Zm-3.23,16.54c0,2.4,1,3.07,3.42,3.07,5.76,0,8.71-3.93,8.71-9.53,0-3.49-1.19-6.15-3.71-7.68a10.14,10.14,0,0,0-5.48-1.28,4.46,4.46,0,0,0-2.52.45c-.29.19-.42.54-.42,1.79Z"/><path class="cls-1" d="M358.42,324.19h-7.36l.22-2h7.36Z"/><path class="cls-1" d="M363.12,330.46v-.9c3.55-.22,3.75-.38,3.75-2.78V314.49c0-1.63-.23-1.7-1.64-1.82l-1.56-.16v-.8a27,27,0,0,0,5.85-1.57v16.64c0,2.43.19,2.56,3.78,2.78v.9Z"/><path class="cls-1" d="M386.8,321.18l-2.14,1.09a4.18,4.18,0,0,1-1.92.48,5.69,5.69,0,0,1-5.76-6,6.59,6.59,0,0,1,6.56-6.62c4.13,0,6.43,3.65,6.43,8a12.71,12.71,0,0,1-8.1,12,14.92,14.92,0,0,1-3.8.84l-.26-.93A10.82,10.82,0,0,0,386.8,321.18Zm-3.65-9.92c-2.49,0-3.36,2.37-3.36,4.61,0,2.81,1.57,5.15,4.26,5.15a4.92,4.92,0,0,0,2.88-.93,15.37,15.37,0,0,0,.13-2.08C387.06,315.16,386.26,311.26,383.15,311.26Z"/><path class="cls-1" d="M411.86,327.58c-1.41,1.85-3.56,3.26-5.48,3.26a6.45,6.45,0,0,1-6.46-6.72,7.6,7.6,0,0,1,3.23-6.27A8.49,8.49,0,0,1,408,316a4.71,4.71,0,0,1,3,.86,1,1,0,0,1,.51.93,1.61,1.61,0,0,1-1.15,1.44c-.16,0-.29-.07-.61-.32a4.74,4.74,0,0,0-3.23-1.35c-2.11,0-4,1.8-4,5.12,0,4.45,3,5.92,4.86,5.92a5.12,5.12,0,0,0,3.9-1.76Z"/><path class="cls-1" d="M423.73,330.84a2.37,2.37,0,0,1-1.51-.61,3,3,0,0,1-.76-1.44c-1.28.87-2.85,2-3.84,2a3.93,3.93,0,0,1-3.91-3.93c0-1.57.87-2.6,2.63-3.2a25.92,25.92,0,0,0,5.05-2.08V321c0-2.28-1.15-3.59-2.81-3.59a1.85,1.85,0,0,0-1.51.74,7,7,0,0,0-.86,2.08.89.89,0,0,1-.93.73,1.54,1.54,0,0,1-1.41-1.4c0-.45.42-.84,1.06-1.28a13.2,13.2,0,0,1,4.61-2.24,4.36,4.36,0,0,1,2.68.86,4.44,4.44,0,0,1,1.64,3.71v6.18c0,1.47.54,1.92,1.12,1.92a2.56,2.56,0,0,0,1.15-.35l.32.89Zm-2.34-8.09c-.7.35-2.24,1-3,1.34-1.22.54-2,1.15-2,2.34a2.33,2.33,0,0,0,2.31,2.46,4.24,4.24,0,0,0,2.62-1.15Z"/><path class="cls-1" d="M437,330.46v-.9c1.85-.19,2-.41,2-2.59v-5.28c0-2.24-.8-3.74-2.91-3.74a5.56,5.56,0,0,0-3.55,1.66v7.49c0,2.21.19,2.27,2.08,2.46v.9h-6.91v-.9c2.11-.22,2.3-.35,2.3-2.46v-6.59c0-2.08-.22-2.18-1.95-2.47v-.83a18.17,18.17,0,0,0,4.48-1.28v2.53c.64-.45,1.34-.93,2.18-1.47a4.83,4.83,0,0,1,2.65-1c2.56,0,4.16,1.88,4.16,5v6.08c0,2.17.19,2.27,2.05,2.46v.9Z"/><path class="cls-1" d="M459.6,316.35A3.68,3.68,0,0,1,461,316a6.55,6.55,0,0,1,6.3,6.78,8.14,8.14,0,0,1-7.9,8,11.89,11.89,0,0,1-4.93-1.15v-18c0-2-.09-2.18-2.14-2.34v-.83a25.85,25.85,0,0,0,4.67-1.09v10ZM457,326.75a2.74,2.74,0,0,0,.16,1.12,3.63,3.63,0,0,0,3.17,1.72c2.75,0,4.12-2.36,4.12-6s-2.2-5.79-4.86-5.79a6.18,6.18,0,0,0-2.59.61Z"/><path class="cls-1" d="M481.46,327.74c-2,2.56-4.29,3.1-5.32,3.1-3.9,0-6.27-3.2-6.27-6.88a8.24,8.24,0,0,1,2.08-5.6,6.59,6.59,0,0,1,4.77-2.33,5,5,0,0,1,4.9,5c0,.64-.13.92-.64,1.05s-4.74.42-8.55.55c-.09,4.28,2.53,6,4.8,6a5.39,5.39,0,0,0,3.71-1.63ZM476,317.24c-1.47,0-2.91,1.38-3.36,4,1.79,0,3.59,0,5.47-.1.58,0,.77-.16.77-.64A3,3,0,0,0,476,317.24Z"/><path class="cls-1" d="M.38,368.86V368c2.05-.19,2.3-.35,2.3-2.46V350.17c0-1.95-.16-2.14-2.2-2.4v-.83a22.78,22.78,0,0,0,4.73-1.09V365.5c0,2.11.19,2.27,2.27,2.46v.9Z"/><path class="cls-1" d="M20.79,366.14c-2,2.56-4.28,3.1-5.31,3.1-3.9,0-6.27-3.2-6.27-6.88a8.24,8.24,0,0,1,2.08-5.6,6.59,6.59,0,0,1,4.77-2.33,5,5,0,0,1,4.89,5c0,.64-.12.92-.63,1.05s-4.74.42-8.55.55c-.09,4.28,2.53,6,4.8,6a5.39,5.39,0,0,0,3.71-1.63Zm-5.5-10.5c-1.47,0-2.91,1.38-3.36,4,1.79,0,3.59,0,5.47-.1.58,0,.77-.16.77-.64A3,3,0,0,0,15.29,355.64Z"/><path class="cls-1" d="M29.34,368.82a3.22,3.22,0,0,1-1.38.42c-2,0-3.13-1.25-3.13-3.81v-9.31H22.62l-.13-.38.87-.93h1.47v-2.69c.61-.64,1.53-1.47,2.14-2.11l.48.06c-.06,1.35-.09,3.2-.09,4.74H31a1,1,0,0,1-.19,1.31H27.36v8.19c0,2.6,1,3.08,1.85,3.08a4.48,4.48,0,0,0,1.95-.52l.29.84Z"/><path class="cls-1" d="M41.59,368.86V368c1.86-.19,2.12-.35,2.12-2.46v-5.25c0-2.66-1-4-3.17-4A4.54,4.54,0,0,0,37.15,358v7.55c0,2.08.25,2.27,2.17,2.46v.9h-7V368c1.85-.16,2.27-.32,2.27-2.46V350.07c0-1.69-.1-2.11-2.24-2.3v-.83a19.78,19.78,0,0,0,4.77-1.09v10.91a7.22,7.22,0,0,1,4.64-2.33c2.62,0,4.44,1.63,4.44,5.47v5.63c0,2.11.26,2.27,2.12,2.43v.9Z"/><path class="cls-1" d="M60.44,369.24a2.35,2.35,0,0,1-1.5-.61,2.93,2.93,0,0,1-.77-1.44c-1.28.87-2.85,2.05-3.84,2.05a3.92,3.92,0,0,1-3.9-3.93c0-1.57.86-2.6,2.62-3.2A26.34,26.34,0,0,0,58.11,360v-.64c0-2.28-1.16-3.59-2.82-3.59a1.83,1.83,0,0,0-1.5.74,6.7,6.7,0,0,0-.87,2.08.89.89,0,0,1-.93.73,1.54,1.54,0,0,1-1.4-1.4c0-.45.41-.84,1-1.28a13.29,13.29,0,0,1,4.61-2.24A4.19,4.19,0,0,1,60.57,359v6.18c0,1.47.54,1.92,1.12,1.92a2.56,2.56,0,0,0,1.15-.35l.32.89Zm-2.33-8.09c-.71.35-2.24,1-3,1.34-1.22.54-2,1.15-2,2.34a2.33,2.33,0,0,0,2.3,2.46,4.27,4.27,0,0,0,2.63-1.15Z"/><path class="cls-1" d="M64,368.86V368c2-.19,2.3-.35,2.3-2.46V350.17c0-1.95-.16-2.14-2.21-2.4v-.83a22.89,22.89,0,0,0,4.74-1.09V365.5c0,2.11.19,2.27,2.27,2.46v.9Z"/><path class="cls-1" d="M75.83,369.3a1.9,1.9,0,0,1-2-2,1.94,1.94,0,0,1,2-2.05,2,2,0,0,1,2,2.05A2,2,0,0,1,75.83,369.3Z"/></g></g></svg>