<svg xmlns="http://www.w3.org/2000/svg" viewBox="0 0 165 43.44"><defs><style>.cls-1{fill:#e37955;}.cls-2{fill:#312f2f;}</style></defs><title>p3e1a</title><g id="Layer_2" data-name="Layer 2"><g id="Layer_1-2" data-name="Layer 1"><rect class="cls-1" y="6.8" width="165" height="31" rx="5.28"/><path class="cls-2" d="M18.1,40.39V3.05A2.68,2.68,0,0,1,20.79.36h.74a2.69,2.69,0,0,1,2.69,2.69V34.27A2.68,2.68,0,0,0,26.91,37h6.74a2.69,2.69,0,0,1,2.69,2.69v.74a2.69,2.69,0,0,1-2.69,2.69H20.79A2.68,2.68,0,0,1,18.1,40.39Z"/><path class="cls-2" d="M51.46,10.44a10.91,10.91,0,0,1,.9-4.56,9.64,9.64,0,0,1,2.4-3.3A10.15,10.15,0,0,1,58,.66,10.89,10.89,0,0,1,68.74,2.58a10,10,0,0,1,2.34,3.3,10.91,10.91,0,0,1,.9,4.56V33a10.82,10.82,0,0,1-.9,4.62,9.53,9.53,0,0,1-2.34,3.18,10.29,10.29,0,0,1-3.33,2,10.65,10.65,0,0,1-7.38,0,9.63,9.63,0,0,1-3.27-2,9.16,9.16,0,0,1-2.4-3.18,10.82,10.82,0,0,1-.9-4.62ZM57.58,33a4.07,4.07,0,0,0,1.23,3.27,4.56,4.56,0,0,0,5.82,0A4.07,4.07,0,0,0,65.86,33V10.44a4.07,4.07,0,0,0-1.23-3.27,4.56,4.56,0,0,0-5.82,0,4.07,4.07,0,0,0-1.23,3.27Z"/><path class="cls-2" d="M88.54,10.44a10.91,10.91,0,0,1,.9-4.56,9.64,9.64,0,0,1,2.4-3.3A10.15,10.15,0,0,1,95.11.66a10.89,10.89,0,0,1,10.71,1.92,10,10,0,0,1,2.34,3.3,10.91,10.91,0,0,1,.9,4.56V33a10.82,10.82,0,0,1-.9,4.62,9.53,9.53,0,0,1-2.34,3.18,10.29,10.29,0,0,1-3.33,2,10.65,10.65,0,0,1-7.38,0,9.63,9.63,0,0,1-3.27-2,9.16,9.16,0,0,1-2.4-3.18,10.82,10.82,0,0,1-.9-4.62ZM94.66,33a4.07,4.07,0,0,0,1.23,3.27,4.56,4.56,0,0,0,5.82,0A4.07,4.07,0,0,0,102.94,33V10.44a4.07,4.07,0,0,0-1.23-3.27,4.56,4.56,0,0,0-5.82,0,4.07,4.07,0,0,0-1.23,3.27Z"/><path class="cls-2" d="M126,40.39V3.05A2.68,2.68,0,0,1,128.67.36h.73a2.69,2.69,0,0,1,2.7,2.69V19.86h.12l8.22-17.93A2.67,2.67,0,0,1,142.88.36H143a2.69,2.69,0,0,1,2.42,3.87l-5.94,12.18a2.66,2.66,0,0,0-.09,2.14l8.06,20.87a2.69,2.69,0,0,1-2.51,3.66h-.68a2.69,2.69,0,0,1-2.52-1.76l-4.24-11.56a2.69,2.69,0,0,0-4.9-.34l-.16.29A2.64,2.64,0,0,0,132.1,31v9.42a2.69,2.69,0,0,1-2.7,2.69h-.73A2.68,2.68,0,0,1,126,40.39Z"/></g></g></svg>