<svg xmlns="http://www.w3.org/2000/svg" viewBox="0 0 530.76 146.54"><defs><style>.cls-1{fill:#fdca42;}.cls-2{fill:#195ea2;}.cls-3{fill:#e37955;}.cls-4{fill:#312f2f;}</style></defs><title>p3h10</title><g id="Layer_2" data-name="Layer 2"><g id="Layer_1-2" data-name="Layer 1"><rect class="cls-1" width="76" height="101"/><path class="cls-2" d="M70.43,62.71C67.83,74.18,59.11,83,42.74,83,22.5,83,12.86,68.7,12.86,51.11,12.86,34,23,18.68,43.41,18.68c17.05,0,25.39,9.89,27,20.31H56.69c-1.32-4.61-4.7-9.6-13.66-9.6-11.29,0-16,9.83-16,21.22,0,10.78,4.15,21.68,16.3,21.68,8.84,0,11.88-5.4,13.34-9.58Z"/><path class="cls-2" d="M124.62,58.65c0,14.11-8.7,24.47-23.93,24.47-15,0-23.49-10.57-23.49-24.27,0-14,8.77-24.5,24.09-24.5C115.85,34.35,124.62,44.67,124.62,58.65Zm-34.1.08c0,8.65,3.93,14.19,10.49,14.19s10.26-5.52,10.26-14.08c0-9.23-3.6-14.3-10.43-14.3C94.39,44.54,90.52,49.39,90.52,58.73Z"/><path class="cls-2" d="M133.68,48.09c0-4.58,0-8.7-.09-12.63h12.85c.18,1.17.35,5.87.35,8.43,2.18-5.5,7.3-9.54,15.56-9.53v12.4c-9.59-.22-15.56,2.71-15.56,15.55V82H133.68Z"/><path class="cls-2" d="M214.17,58.65c0,14.11-8.7,24.47-23.94,24.47-15,0-23.48-10.57-23.48-24.27,0-14,8.77-24.5,24.09-24.5C205.4,34.35,214.17,44.67,214.17,58.65Zm-34.1.08c0,8.65,3.93,14.19,10.49,14.19s10.25-5.52,10.25-14.08c0-9.23-3.59-14.3-10.42-14.3C183.94,44.54,180.07,49.39,180.07,58.73Z"/><path class="cls-2" d="M223.27,47.19c0-3.95,0-8.3-.09-11.73h12.73c.24,1.23.41,4.42.48,6,1.7-3,5.56-7.11,13.92-7.11,9.76,0,16,6.45,16,18.22V82H253.15V54.17c0-5.3-1.83-9.29-7.74-9.29s-9,3.47-9,11.76V82H223.27Z"/><path class="cls-2" d="M317.46,69.82A114,114,0,0,0,318,82H305.53a21.47,21.47,0,0,1-.63-4.73c-1.85,2.91-5.46,5.85-13.82,5.85-11.52,0-16.33-7.45-16.33-14.71,0-10.92,8.94-15.5,22.61-15.5h7.29v-2.6c0-3.43-1.28-6.69-7.5-6.69-5.69,0-6.93,2.37-7.53,5.61H277c.64-7.72,5.51-14.95,20.49-14.88,14,.06,20,5.85,20,16.25ZM304.66,61h-6.15c-7.76,0-10.7,2.29-10.7,6.67,0,3.34,2.17,6.13,7,6.13,8.25,0,9.87-5.35,9.87-11.65Z"/><path class="cls-2" d="M337.05,35.46c4.85,16.24,8.65,29.36,9.72,35h.11c1.38-7.25,5.67-20.26,10.39-35H370.4L353.38,82h-14L322.94,35.46Z"/><path class="cls-2" d="M376.94,16h13.12v11.5H376.94Zm0,19.42h13.12V82H376.94Z"/><path class="cls-2" d="M401.87,48.09c0-4.58,0-8.7-.09-12.63h12.86c.18,1.17.35,5.87.35,8.43,2.17-5.5,7.3-9.54,15.56-9.53v12.4C421,46.54,415,49.47,415,62.31V82H401.87Z"/><path class="cls-2" d="M480.59,68.47c0,4.49,0,9.34.08,13.53H467.83c-.18-1.25-.26-3.68-.34-5.43-2.66,4.49-6.67,6.55-13.41,6.55-9.5,0-15.9-5.71-15.9-17.71V35.46h13.11V62.88c0,5.37,1.74,9.64,7.48,9.64,6.2,0,8.71-3.38,8.71-12.95V35.46h13.11Z"/><path class="cls-2" d="M501.43,68c1,3.68,4.09,5.8,9.24,5.8s6.88-1.78,6.88-4.52c0-2.95-2-4.16-9.27-5.74C492.65,60,490.17,55,490.17,48.59c0-6.87,4.93-14.24,19.34-14.24s19.51,7.7,20,14.08H516.9c-.47-1.85-1.74-5-7.95-5-4.58,0-5.9,2-5.9,4,0,2.27,1.47,3.42,9.28,5.09,16.16,3.45,18.43,9,18.43,15.72,0,7.87-6,14.86-20.67,14.86-13.81,0-20.46-6.52-21.57-15.16Z"/><rect class="cls-3" x="173.36" y="109.9" width="165" height="31" rx="5.28"/><path class="cls-4" d="M191.46,143.49V106.15a2.69,2.69,0,0,1,2.69-2.69h.74a2.68,2.68,0,0,1,2.69,2.69v31.22a2.7,2.7,0,0,0,2.69,2.69H207a2.68,2.68,0,0,1,2.69,2.69v.74a2.68,2.68,0,0,1-2.69,2.69H194.15A2.69,2.69,0,0,1,191.46,143.49Z"/><path class="cls-4" d="M224.82,113.54a10.91,10.91,0,0,1,.9-4.56,9.64,9.64,0,0,1,2.4-3.3,10.15,10.15,0,0,1,3.27-1.92,10.89,10.89,0,0,1,10.71,1.92,10,10,0,0,1,2.34,3.3,10.91,10.91,0,0,1,.9,4.56V136.1a10.82,10.82,0,0,1-.9,4.62,9.53,9.53,0,0,1-2.34,3.18,10.29,10.29,0,0,1-3.33,2,10.65,10.65,0,0,1-7.38,0,9.63,9.63,0,0,1-3.27-2,9.16,9.16,0,0,1-2.4-3.18,10.82,10.82,0,0,1-.9-4.62Zm6.12,22.56a4.07,4.07,0,0,0,1.23,3.27,4.56,4.56,0,0,0,5.82,0,4.07,4.07,0,0,0,1.23-3.27V113.54a4.07,4.07,0,0,0-1.23-3.27,4.56,4.56,0,0,0-5.82,0,4.07,4.07,0,0,0-1.23,3.27Z"/><path class="cls-4" d="M261.9,113.54a10.91,10.91,0,0,1,.9-4.56,9.64,9.64,0,0,1,2.4-3.3,10.15,10.15,0,0,1,3.27-1.92,10.89,10.89,0,0,1,10.71,1.92,10,10,0,0,1,2.34,3.3,10.91,10.91,0,0,1,.9,4.56V136.1a10.82,10.82,0,0,1-.9,4.62,9.53,9.53,0,0,1-2.34,3.18,10.29,10.29,0,0,1-3.33,2,10.65,10.65,0,0,1-7.38,0,9.63,9.63,0,0,1-3.27-2,9.16,9.16,0,0,1-2.4-3.18,10.82,10.82,0,0,1-.9-4.62ZM268,136.1a4.07,4.07,0,0,0,1.23,3.27,4.56,4.56,0,0,0,5.82,0,4.07,4.07,0,0,0,1.23-3.27V113.54a4.07,4.07,0,0,0-1.23-3.27,4.56,4.56,0,0,0-5.82,0,4.07,4.07,0,0,0-1.23,3.27Z"/><path class="cls-4" d="M299.34,143.49V106.15a2.68,2.68,0,0,1,2.69-2.69h.74a2.68,2.68,0,0,1,2.69,2.69V123h.12L313.8,105a2.68,2.68,0,0,1,2.45-1.57h.08a2.69,2.69,0,0,1,2.42,3.87l-5.94,12.17a2.73,2.73,0,0,0-.09,2.15l8.07,20.87a2.69,2.69,0,0,1-2.51,3.66h-.68a2.69,2.69,0,0,1-2.53-1.76l-4.24-11.56a2.69,2.69,0,0,0-4.9-.34l-.15.29a2.65,2.65,0,0,0-.32,1.26v9.42a2.68,2.68,0,0,1-2.69,2.69H302A2.68,2.68,0,0,1,299.34,143.49Z"/></g></g></svg>