<svg xmlns="http://www.w3.org/2000/svg" viewBox="0 0 486.21 240.04"><defs><style>.cls-1{fill:#feac29;}.cls-2{fill:#abe2f9;}.cls-3{fill:#01475c;}.cls-4{fill:#0d2632;}.cls-5{fill:#effafd;}</style></defs><title>p3map0</title><g id="Layer_2" data-name="Layer 2"><g id="Layer_1-2" data-name="Layer 1"><path class="cls-1" d="M483,50.35a5.8,5.8,0,0,1-.07,1.61c-.17.84-.62,1.25-1.41,1-1.15-.35-2.48-.56-3.18-1.61a2.26,2.26,0,0,0-2.51-1.08c-1.16.17-1.83-.22-1.71-1.51l.11,0s0,0,0-.08l-.09.14c-.71,0-1.53-.14-.94,1a1.18,1.18,0,0,1-.59,1.49,4,4,0,0,1-2.9.94c-.22,0-.55-.45-.64.12a.47.47,0,0,0,.34.59c1.61.32,1.48,1.94,2.15,2.94.53.78-.16,1.37-.87,1.13-2.69-.9-4.64,1.06-6.86,1.76-1.62.51-3,1.89-4.4,2.93a.57.57,0,0,1-.87,0c-1.3-1.13-2.67-.83-4-.06-1,.59-1,.63-1.5-.56-.71.64-1.31,1.54-2.5,1-.33-.15-.59.29-.78.58-.54.81-1.1,1.61-1.7,2.39-1,1.31.26,1.35,1.33,1.35-.5,1-1.46,1.84-.08,2.69.21.13,0,.54-.4.58-1.33.12-1.69.8-1.2,2,.29.7-.09,1.07-.74,1.11-1.27.07-2.29.35-2.13,2,0,.13-.07.39-.12.39C443,75.22,443,77,442.15,78c-.44.53-.94,1-1.66,1.79-.84-3.39-1.79-6.38-1.48-9.58.14-1.37,1.56-2.19,1.63-3.61,0-.06.13-.15.22-.17,3.11-.75,4.53-3.7,6.94-5.29,1.58-1,2.67-2.05,3-3.91,0-.2.43-.34.92-.68-1.34.08-2.48-.09-2.36,1.6,0,.09,0,.25,0,.28-1.25.74-2.51,1.46-3.76,2.18-.33-.57-1.26-1-.58-1.84,0-.11.09-.21.13-.32l-.31.13c-1.09-.53-2.69-.57-3.24-.05-1.36,1.27-3.17,2.11-4.11,3.81-.41.74.43.69.85,1.06a26.92,26.92,0,0,1-5.26,1c.52-.87.68-1-.53-1.43-2.27-.72-4.11,1.09-6.23.54-.19,0-.44.21-.7.08-2.74-1.31-4.83,0-6.66,1.82a81.13,81.13,0,0,1-7.26,6.23,5.24,5.24,0,0,0-.51.53c.67.69,2.57-.48,2,1.51.6.09.57-.58,1.05-.64.23.4-.07,1,.36,1.34.53,0,.78-.52,1.12-.81a1.54,1.54,0,0,1,1.8-.19,3.32,3.32,0,0,1,1.41,4.72,3.8,3.8,0,0,0-.52,1.55c-.05,4.33-3,7.1-5.49,10.07a11.26,11.26,0,0,1-3.83,3.46c-.52.23-1,.54-1.51,0-.72-.78-1.4-.44-2.1,0-.08-.63-.19-1.27-.25-1.91-.12-1.56.23-2,1.78-1.88a1.29,1.29,0,0,0,1.2-.68,10.42,10.42,0,0,0,1.48-2.7c.24-.6.47-1.16.05-1.65s-.91,0-1.37.09-.62.32-.92.44c-.8.3-2.06.53-2.28-.27-.6-2.1-2.36-2.29-3.9-2.92-.37-.15-.7-.21-.81-.72-.36-1.71-1.45-3.11-2.09-4.7a1.66,1.66,0,0,0-.94-.9,9.55,9.55,0,0,0-5.83-.45c-.55.12-1.57.35-.56,1.36a.87.87,0,0,1-.16,1.32,5.24,5.24,0,0,0-1.44,2.22c-.89,1.77-2.13,2.24-3.91,1.41-1.72-.29-3.25-.84-5.15.24-2.06,1.17-4.55,1.64-6.91-.28a4.82,4.82,0,0,0-4.9-.71,1.83,1.83,0,0,1-2.59-1,1.64,1.64,0,0,0-1.44-1.34,11.76,11.76,0,0,1-2.23-.77c-.93-.41-1.31.4-1.89.77s-.46.85-.19,1.3c.57,1,0,1.58-.77,1.58-1.19,0-2.5.29-3.56-.68a2.79,2.79,0,0,0-3.22-.6c-1.73.82-3.31,1.93-5.1,2.63l-.91-.25c-.2-.32-.33-.77-.86-.63-.94.26-1.46-.2-2.12-.84-.5-.49-.79-1.53-1.59-1.43-1.27.16-2.51.6-3.58-.54a.92.92,0,0,0-.44.29c-.55.76-.77.23-1-.24A27.93,27.93,0,0,0,334.73,75c-.45-.63-1.55-.68-1.61-1.42-.09-1-.44-.65-.9-.4a11,11,0,0,1-3,1.31c-.25,0-.66.11-.57-.14.48-1.27-.53-.68-.95-.83-1-.32-2.43-.06-2.28-1.84,0-.35-.48-.38-.82-.47-1.3-.33-2.37.29-3.55.61a50.9,50.9,0,0,1-8.4,1.73c-.31,0-.75-.12-.82.39a.81.81,0,0,0,.44.87l.7.4c-1.76-.14-1.36,1.8-2.56,2.32a8.79,8.79,0,0,0,1,.45c.59.18,1.06.49.89,1.15s-.89.31-1.33.47c-1.66.59-3-1.1-4.62-.59-.4.12-.92,0-1.33.35a2.13,2.13,0,0,1-2.53-.16c-1.33-1-2.67-1.66-4.28-1.2s-3.24.52-3.5,2.66c-.08.61-.55.34-.86,0s-.51-.91-1-.35c-.76.8-.71,1.94-1,2.93a1.65,1.65,0,0,0,1.67,1.37c.59-.05,1.24.86,1.13,1.64-.09.63.27.61.6.75-.72,1-2.19,1.09-2.81,2.27-.21.38-.61.67-.29,1.17.91,1.41,1,3.22,2.06,4.54a1.43,1.43,0,0,1-2,0c-1.69-1.49-3.93-1.91-6-2.52a6.94,6.94,0,0,0-3.55-.59c-1.16-.08-1.53-1.33-2.5-1.68-1.24-.45-2.33-.88-.68-2.25.72-.59.34-2,1.74-2.16-.4-.49-1.32,0-1.19-.89.52-.22.89-.8,1.59-.66.49.1.93-.34.76-.63-.47-.78.83-1.76-.17-2.23a16.94,16.94,0,0,0-3.68-1.29c-1.61-.34-3.54-1.53-4-3.1-.15-.51-.42-.8-1-.67s-1.06.16-1.59.3c-.93.25-.73-.68-.93-1.16s-.05-.84.59-.73c.38.06.77,0,.87-.41s-.35-.54-.6-.76c-.87-.8-1.81-1.51-1.66-2.94.08-.78-.64-.86-1.26-.89a2.66,2.66,0,0,1-2.93-2.32,6.75,6.75,0,0,1,.29-4.92,1.65,1.65,0,0,1,.77-.66c.29-.16.95-.16.68-.73-.19-.4-.47-.88-1.13-.76a24,24,0,0,0-3.93.78A4.67,4.67,0,0,1,259,61c-1.13-.53-2-.91-1.3-2.45a3.18,3.18,0,0,0-.38-2.13,1.08,1.08,0,0,1,.38-1.42c1.06-.48,1.53-1.7,2.59-2,1.22-.38,1.27-1.82,2.36-2.31.3-.14.13-.84-.3-1.14a3.33,3.33,0,0,0-3.26-.32,2.16,2.16,0,0,0-1.37,2.47c.2.89-.47,1.12-1,1.48a28.11,28.11,0,0,0-3.22,2.32,6.15,6.15,0,0,0-1.43,3,1.32,1.32,0,0,0,.66,1.73c2,1,2.22,2.19.32,3.32-1.67,1-1.5,2.34-1.68,3.75l-.16.14.08.09.13-.18c.88.61.12,1.24-.22,1.36-.59.19-1,1-1.82.58-.48-.22-.88.28-1,.82-.19.72-.84.67-1.33.67s-.35-.59-.42-.94c-.34-1.68-1.32-3.1-1.94-4.66-.18-.46-.51-.85-.38-1.38.73.08.77-.42.82-1a1.27,1.27,0,0,1,.55-1.15c1.28-.72,0-2.12.77-3-1.21-1-.61-2.36-.74-3.57s.37-2,1.74-2c.7.05.9-.45.64-.8-.49-.66-.05-1,.15-1.57a6,6,0,0,1,1.78-3.19c1.33-1,.73-3.7,3.24-3.69.06,0,.17-.14.17-.21,0-1.27.91-1,1.53-.8.86.33,1,.11,1.3-.71s1.3-1.36,1.83-.88c1.14,1,2.42.81,3.7,1.07s1.57-.64,1.78-1.15c.84-2,2.28-2.72,3.85-1.35,1.27,1.11,2.09.52,3.11-.06.91.18,1.89-.84,2.75.18l-.82.59,3.76.37A2.19,2.19,0,0,1,277,41a45.57,45.57,0,0,1,6.74,3.55c1.28.88,1.13,1.89-.14,2.8a5.43,5.43,0,0,1-4.5.85,36.31,36.31,0,0,1-6-1.7c-.15-.16-.3-.51-.52-.29s.09.39.31.49c0,0,0,.11.07.13,1.77.89,3.07,2,2.88,4.3-.07.82,2.65,2.38,3.48,2.19.25-.06.49-.18.51-.46s-.17-.44-.44-.5-.54-.06-.7-.21c-.37-.35-.93-.7-.51-1.35s.83-.44,1.38-.11a7.77,7.77,0,0,0,3.78,1.07c-1-2.35-1-2.27,1.3-3.49,1.11-.58,2-1.19,3.18-.18.32.27.68,0,.81-.38.19-.55.46-1.26-.21-1.57s-.62-.47-.34-1c.56-.94.65-1.84-.55-2.53,1.64.4,3.77-.82,4.41,1.77-.19.34-.6,0-.89.17s-.95.12-1.11.61.37.91.68,1.22a1.82,1.82,0,0,0,2.76-.75c.08-.22.2-.57.36-.6,2.1-.41,3.57-2.51,6-2.14.72.11,1.27-1.12,2.39-.94-.33.53.24,1.32-1.06,1.6,1.25.2,2.07.31,2.72-.47a1.39,1.39,0,0,1,1.26-.32,4.24,4.24,0,0,0,2.82-.68c.64-.39,1.53-.74,1.53.7,0,.42.36.7.76.21.12-.15.17-.37.32-.47.33-.23,1.35.07,1-.62s-.21-1.74-1.37-1.89a1.94,1.94,0,0,1-1.6-.94.43.43,0,0,1,.28-.6,2.09,2.09,0,0,1,1.75.63,3.07,3.07,0,0,0,1.73.69,16.12,16.12,0,0,1,9,3.34c.41.29.78.47,1.13,0s.44-.63-.14-1.05-1-1.51-2.09-1.7c-.66-.12-.36-.61-.12-1,.34-.63.72-1.24-.13-1.92-.58-.47-.1-1.08.44-1.26a3.73,3.73,0,0,0,2.11-2.32c.33-.69.4-1.7,1.54-1.79.42,0,.08-.36.08-.56,0-.58.36-.81.84-.83s1.2,0,1.35.4c.3.84-.81.4-1,.91.23.35.6.17.9.21.68.08,1.54-.06,1.83.7a2.23,2.23,0,0,1-.51,2.22c-.51.56-.65.91.07,1.39s.56,1,.49,1.73c-.15,1.59-.87,3.26.75,4.7.4.35-.26,1.46-.66,2.12-.22.37-.66.59-.93.94-1.41,1.87-1.72,1.79-4.19,1.26,0,.75.58.46.92.6a4,4,0,0,0,3.12.21,10.39,10.39,0,0,0,3.57-3.17c.2-.31,0-.55,0-.84-.13-.54-.62-1.23.14-1.58a2.42,2.42,0,0,1,2.39-.23c.57.37,1.18.8.9,1.81-.33,1.17.63,1.3,1.66,1.41-.67-.57-1.9-.73-.83-1.91.31-.35,0-1-.49-1.25a3.77,3.77,0,0,0-3-.69c-.71.2-1.66.57-2.05-.12a2.3,2.3,0,0,1,.16-2.4,1.45,1.45,0,0,0-.34-2.19c-1.16-1-.53-1.65.45-2s1.36-.77,1.31-1.72c0-.29-.12-.66.29-.71s.62.29.75.62a2.22,2.22,0,0,1-.23,1.57c-.44,1.24,0,1.87,1.27,1.8,1-.06,1.71.68,2.81,1a2.08,2.08,0,0,0-1.57-1.16c-.67-.22-1.71-.45-1.42-1.36s1.18-.34,1.83-.17a1.93,1.93,0,0,0,.49,0C335,34,334.24,34,334,33.55c.25-.45.69-.69,1-.51,1.43.78,3.29.34,4.55,1.6a1.24,1.24,0,0,0,.39.22c.45.2,1.05.56,1.33,0s-.25-.93-.84-1.1c-.95-.28-1.67-.61-1.82-1.89-.13-1.05.16-1.46,1-1.55,2.2-.22,4.43-.27,6.62-.64.25-.05.57.34.74-.12a.6.6,0,0,0-.32-.76c-1-.55,0-.57.22-.83l-.9-.33-.09-.2c1,.1.91-1.25,1.81-1.41,2.29-.4,4.48-1.27,6.71-1.89,1-.27,2.06-.78,3.16-1,.61-.13,1-.77,1.43.43.22.56,1.67-.52,2.62-.65.09,0,.11-.28.22-.36.74-.58,2.34.27,2.33-.44,0-1.12.56-1.43,1.16-1.95a4.51,4.51,0,0,1,5.71-.39c-.12.58-.91.33-1.07.83.85.57,1.82.36,2.78.45.18.57-.67.72-.52,1.25a.85.85,0,0,0,1,.08c2.25-1.57,4.57-.49,6.8-.05a3,3,0,0,1,1.78,2.12,2.3,2.3,0,0,1-1.68,2.36,20.76,20.76,0,0,0-5.14,2.81c-1.12.89-2.8.64-3.8,2,1.83.2,3.34-.64,4.94-1.08.14,0,.15-.1.18-.26.22-1.07.56-1.29,1.53-1s1.84,1.36,3,.42c2.23,1.64,4.87-.26,7.18.82.32.15.88-.11.37.6-.3.43.28.64.56.6,1.76-.27,3.43.65,5.21.31.65-.11.85-.27.87-.87a1.23,1.23,0,0,1,1.9-1.13,4.55,4.55,0,0,0,3.06.64,2.47,2.47,0,0,1,2.81,2.08c0,.22-.06.41.08.67.48.86.44.88-.7,1.16.36.54.69,1.09,1.08,1.58,1.52,1.88,2.64,1.78,3.75-.36.34-.65.56-1,1.28-.35a2.27,2.27,0,0,0,2.51.42c1.21-.55,2.3,0,3.4.36.35.13.28.12.6-.29s1-.26,1.48-.23.84.59,1.17,0-.23-.82-.43-1.19-.73-.28-.55-.73.6-.47,1-.51c.56-.06,1.38.32,1.35-.78,0-.06.35-.2.51-.16,2.21.49,4.52.32,6.71,1.11-.39.85-1.2-.25-1.64.43.29.44.85.12,1.18.41a.63.63,0,0,1,0,.27c-.14.35-.84.14-.75.72,0,.1.21.22.33.24.45.07.72-.24,1-.49s.3-1.2,1.15-1.19a9.76,9.76,0,0,1,3.52.5.63.63,0,0,1,.36.42c.17,1.09.46,1.38,1.58,1.5.33,0,.82.05,1,.27,1.14,1.66,2.7.85,4.11.71,2.13-.23,4.26-.64,6.21.66.6.4,1.33.72.87,1.72-.19.42,0,.8.59.75,1-.11,1.15.54,1.29,1.33A1.28,1.28,0,0,1,448,40.56a9.79,9.79,0,0,1,4.27.23c1.17.37,2.36.52,3.21-.71a.83.83,0,0,1,.23-.19,1.78,1.78,0,0,1,2,.13c.56.4.2.88-.62.81-.23,0-.45-.2-.83.14a10.89,10.89,0,0,0,2.63,1.71,1,1,0,0,0,1.05-.41c.31-.35.09-.66-.19-.89a1.15,1.15,0,0,1-.29-1.69c.48-.78,1.16-.34,1.57-.13,1.42.72,2.93.42,4.37.44,3.39,0,6.15,1.67,9,3.15,1.06.56,2.19.93,3.24,1.5s2,1.09,1.86,2.54c-.06.46.28.88.67.8s.55-.51.18-.91c-.14-.15-.31-.34-.11-.5a1.27,1.27,0,0,1,1.14-.09A9,9,0,0,1,486.21,49c-.74,1-1.65,1.74-3.11,1.21a2.16,2.16,0,0,0-.17-.19C482.75,50.19,482.85,50.27,483,50.35ZM375.88,70.11c-1.55,3.93-4.58,5.91-7.45,8.12.89.07,1.91,0,2.34-.66a5.22,5.22,0,0,1,2.5-1.71C375.13,75,376.21,72.86,375.88,70.11Zm93.06-18.33c-.49-.34-.84-.43-1.19-.15a.34.34,0,0,0,0,.35C468.09,52.25,468.45,52.13,468.94,51.78Z"/><path class="cls-2" d="M282.69,91.9a6.94,6.94,0,0,1,3.55.59c2.05.61,4.29,1,6,2.52a1.43,1.43,0,0,0,2,0c1.69,1.3,1.86,2.07.84,3.88-.9,1.6-.66,2.16,1.16,2.73a3.55,3.55,0,0,1,1.26.76c1,.84,3.06.93,3.84.18.59-.57.29-2.72-.4-3.68a3.38,3.38,0,0,1-.73-1.75c0-1,.85-.5,1.37-.61s1.2.24,1-.55a1.49,1.49,0,0,0-2.66-.55c.28-2.6-2.56-3-3.12-5.16.09-.22.89.12.95-.6s.85-.87,1.36-.82c.9.09,1.61.17,1.6-1s-.65-1.58-1.77-1.73c-1.41-.19-2.47.6-3.69,1-.33-.14-.69-.12-.6-.75.11-.78-.54-1.69-1.13-1.64a1.65,1.65,0,0,1-1.67-1.37c.27-1,.22-2.13,1-2.93.52-.56.74.09,1,.35s.78.56.86,0c.26-2.14,2-2.24,3.5-2.66s2.95.21,4.28,1.2a2.13,2.13,0,0,0,2.53.16c.41-.3.93-.23,1.33-.35,1.66-.51,3,1.18,4.62.59.44-.16,1.14.27,1.33-.47s-.3-1-.89-1.15a8.79,8.79,0,0,1-1-.45c1.2-.52.8-2.46,2.56-2.32l-.7-.4a.81.81,0,0,1-.44-.87c.07-.51.51-.36.82-.39a50.9,50.9,0,0,0,8.4-1.73c1.18-.32,2.25-.94,3.55-.61.34.09.85.12.82.47-.15,1.78,1.29,1.52,2.28,1.84.42.15,1.43-.44.95.83-.09.25.32.19.57.14a11,11,0,0,0,3-1.31c.46-.25.81-.57.9.4.06.74,1.16.79,1.61,1.42a27.93,27.93,0,0,1,2.33,3.81c.23.47.45,1,1,.24a.92.92,0,0,1,.44-.29c1.07,1.14,2.31.7,3.58.54.8-.1,1.09.94,1.59,1.43.66.64,1.18,1.1,2.12.84.53-.14.66.31.86.63-.57.38-.29,1.39-1.23,1.53-.58.09-.75.66-.62,1.18.3,1.2-.36,1.38-1.3,1.32-2.11-.14-2.68.27-2.75,2.37,0,.79-.23.78-.83.7-2-.27-2.41.24-1.85,2.09a2.84,2.84,0,0,1-1.42,3.44,9.37,9.37,0,0,1-1.48.88c-1.26.33-2.25,1.37-3.71,1.2a2.26,2.26,0,0,0-2.28,1.31,1.36,1.36,0,0,0,.89,1.91c.42.16.52.54.6.95a5.38,5.38,0,0,0,3.16,3.9c-.64,1.49-1.82,1.65-3.19,1.29-.53-.14-1.34-.38-1.26.36.1,1-.3,2.3,1.18,2.74.57.17.29.38.13.81a13.43,13.43,0,0,1-2.32,3.73c-1,1.29-1.72,3-3.92,2.71-.64-.08-1.49.68-1,1.31s.61,1.64,1.23,2.31.63,1.39-.66,1.42c-.89,0-1.94-.25-2.48.86a1.92,1.92,0,0,1-1.88-1.39c-.31-.84-.88-1.22-2-1.08a29.53,29.53,0,0,1-10.18-.27c-.67-.15-1.41-.27-1.59-1.11-.21-1-.88-1-1.7-.87a6.41,6.41,0,0,1-7-3.34,4.72,4.72,0,0,0-.6-1,2,2,0,0,0-2.47-.26c-1,.4-.3,1.13-.12,1.65a4.54,4.54,0,0,0,1.74,2.68c.56.34.49,1,.6,1.61s.29,1.39,1.05.38a.53.53,0,0,1,.79-.15.77.77,0,0,1,.18.83c-.39,1.48,0,1.7,1.57,1.55s2.95-.56,3.81-2c.18-.31.47-.76.92-.63s.45.66.49,1a2.49,2.49,0,0,0,2,2.26c2.41.75,2.79,2.72.85,4.37a3.63,3.63,0,0,0-1.39,2.1c-.19.8-1.2,1.43-2.1,1.79-.56.22-1.15.33-1.36,1-.05.13-.18.35-.25.34-2.7-.3-4,2.44-6.43,2.87-1.24.21-2.31,1-3.52,1.44-1.57.55-3.14,1.13-4.75,1.53a3,3,0,0,0-1.84,1.64c.88.48,1.3,2,2.52,1.56a23.85,23.85,0,0,1,6.5-1.27c.73,0,1.32-1.36,2-.35.4.58,0,1.44-.2,2.16a5.58,5.58,0,0,1-.33,1.28c-2.2,3.86-3.95,8-8.11,10.39a11,11,0,0,0-3.09,3,9.72,9.72,0,0,1-2.15,2c-1.74,1.19-2.63,4.3-2.27,6.39.21,1.18-.22,2.55.57,3.55,1.84,2.31.81,5,1.24,7.56.24,1.42-1.11,2.78-2.55,3.1-2.09.46-3.08,2.22-4.61,3.3a1.65,1.65,0,0,0-.47,2.35,7.51,7.51,0,0,1,.55,3.93,1.78,1.78,0,0,1-1.23,1.54c-.58.28-1.17.53-1.76.79s-.82.61-.65,1.39a3.79,3.79,0,0,1-1.19,3.77c-1.71,1.6-2.73,3.77-4.46,5.38a8.45,8.45,0,0,1-6.17,2.39,10.89,10.89,0,0,0-4.32.86,2,2,0,0,1-2.71-.93c-.41-.58-1.23-1.39-.36-2.39.31-.35-.07-1-.33-1.37-1.21-1.87-1.78-4.05-3.18-5.87-1-1.29-1-3.25-1-4.88-.07-3.07-1.73-5.44-3-8a4.19,4.19,0,0,1-.49-3.24c.59-2,.69-4.12,2.22-5.73a1.59,1.59,0,0,0,.21-1.7c-.5-1.19-.24-2.52-.62-3.61-.74-2.16-1-4.58-2.9-6.25a24.55,24.55,0,0,1-2-2.37c-.76-.88-.6-1.65-.26-2.76.46-1.51,1.13-3.16.73-4.76-.24-.94-1.37-1.38-2.35-1.56a3.41,3.41,0,0,0-1.91.17,1.15,1.15,0,0,1-1.51-.59,4.39,4.39,0,0,0-5.92-1.72c-.85.41-1.71.8-2.55,1.21a3.78,3.78,0,0,1-3.29.32,5.4,5.4,0,0,0-3.91.27,5,5,0,0,1-4.91-.77c-1.05-.81-2.2-1.52-3.33-2.23a4.22,4.22,0,0,1-1.66-2c-.83-1.87-2.4-3.25-3.76-4.72s-1.32-3.08-1.39-4.71a11,11,0,0,1,.84-2.82,6.31,6.31,0,0,0-.56-4.42,2.22,2.22,0,0,1-.13-2.21,58.68,58.68,0,0,1,4.81-8c.74-1,2.24-1.13,3.2-2.07s1.83-1.61,1.31-3.13c-.27-.79,1.2-3.28,2.12-3.52a4,4,0,0,0,2.8-2.8c.42-1.06.85-1.13,2-.62,1.52.67,3.27,1.11,5,0a13.16,13.16,0,0,1,8.73-2c.55.06,1-.27,1.44-.27,2,0,4.07-.76,6.09,0,.14.06.31,0,.41.14a13.36,13.36,0,0,1-.59,3.63c-.66.55-.63.73.16,1.35,1.35,1.06,3,.83,4.35,1.42,1.84.81,3.36,2.24,5.41,2.76.62.16,1.17.81,1.88.39s.47-1,.28-1.6.24-.94.63-1.22a3.07,3.07,0,0,1,3.49-.28,26.25,26.25,0,0,0,4,1.45c1,.41,2.26.27,3.3.82a1.07,1.07,0,0,0,.87.08c1.79-1,3.66-.46,5.5-.27A1.43,1.43,0,0,0,275,110.1c.61-2,2.14-3.69,1.89-6-.13-1.27-.67-1.84-1.85-1.2-1.43.79-2.63,1-3.94-.13-.47-.4-1-.29-1.42.24a1.16,1.16,0,0,1-2,0c-.13-.15-.28-.35-.45-.39-2-.5-2.72-1.86-2.65-3.84,0-.73-.75-1.24-.58-2.2.11-.63-2.6-.94-3.1-.11s-1.16.41-1.84.46c0,.92,1.48,1.39.75,2.46a2.14,2.14,0,0,1,.27.09c1.54.73,1.55.86.17,2-.64.51-.64.51-.57,1.49-1.11-.31-2-.71-2.22-2-.15-.8.49-.79,1-1.08-2-.17-4-2.64-3.58-4.48a1.24,1.24,0,0,0-.57-1.44,11.11,11.11,0,0,0-3-1.66c-1.74-.74-2.26-2.66-3.67-3.72a2.06,2.06,0,0,0-1-.46c0-2.24-.8-2.78-2.9-2a6.4,6.4,0,0,0-1.38.81c-.88.65-2,0-3,.79-.67.55-.87-.66-1.44-.92s.17-.6.36-.89c.89-1.4,2.21-1.09,3.56-1,1.84.14,3.67.69,5.25-1.21.91-1.08.5-1.18-.22-1.76-1.13-.91-1-1.73.28-2.33a7.89,7.89,0,0,1,1.62-.69c.66-.15.62-.42.47-.94a11.57,11.57,0,0,1-.77-4.47,23.33,23.33,0,0,1,4.27-1.82c.93-.26,1.52,1,2.49.51a6.88,6.88,0,0,0,1.86.33c.8-.1,2.17.76,2.3-.55s-1.36-.94-2.21-1.17c0-1.24-.52-2.48.24-3.72s1.3-1.38,2.34-.39c.41.39,1,.86,1.35.29s.8-1.57.08-2.06-1-1-.89-1.53c.18-.69,1-.79,1.69-1,1.47-.36,2.92,0,4.38,0a6.75,6.75,0,0,0-.29,4.92A2.66,2.66,0,0,0,269,69.75c.62,0,1.34.11,1.26.89-.15,1.43.79,2.14,1.66,2.94.25.22.7.37.6.76s-.49.47-.87.41c-.64-.11-.85.14-.59.73s0,1.41.93,1.16c.53-.14,1.07-.17,1.59-.3s.8.16,1,.67c.48,1.57,2.41,2.76,4,3.1a16.94,16.94,0,0,1,3.68,1.29c1,.47-.3,1.45.17,2.23.17.29-.27.73-.76.63-.7-.14-1.07.44-1.59.66-.22.77-.82,1-1.52,1.24a7.54,7.54,0,0,0-2.24.77c-.34.24-.69.45-.58.93s.47.59.9.61a1.27,1.27,0,0,1,1.28.67c-1.26-.35-2.07.46-3,.77-.31.09-.87.44-.88,0,0-1-1-1.07-1.41-1.57.35-.57,1.13-.33,1.36-1-.54-.36-1.22.08-1.7-.34-1.28-1.12-1.51-1.06-2.65.33a42.62,42.62,0,0,0-3,4.62c-.84,1.34-.54,2.85,1,3.38a3.82,3.82,0,0,0,3.67-.2,5.21,5.21,0,0,1,4.95-.66c1.91.71,3.78,1.62,5.92,1.29,1.09-.17,2.42-.22,2.68-1.43a1.91,1.91,0,0,0-1.65-2.14C283,92.23,282.84,92,282.69,91.9Zm4,45.57c-.48-1.73-.19-3.64-1-5.16-1-1.93-1.76-4.1-3.69-5.45a1.76,1.76,0,0,1-.68-1.59,3,3,0,0,0-.89-2.44c-1.92-2-2.69-4.71-4.65-6.62-.35-.34-.38-.8-.57-1.26-.31.47-.3,1.18-.79,1.13-1.5-.16-.71.67-.49,1.11.75,1.51,1.53,3,2.36,4.45.37.65,0,1.59.74,2,1.46.86,1.6,2.26,1.62,3.73a2.38,2.38,0,0,0,.67,2,4.56,4.56,0,0,1,1.91,3.05,2.78,2.78,0,0,0,1.36,1.88C284.15,135.14,285.19,136.45,286.68,137.47Zm-14.62,21.17c.34-.06.79,0,1-.21.75-.78.71-2,1.52-2.8.19-.19-.32-.42-.58-.51-1.51-.55-2.55.21-3,2.13C270.74,158.22,271,158.71,272.06,158.64Zm36.81-69.77c.32.42.19.83.22,1.21s-.16.84.36,1a1.12,1.12,0,0,0,1.17-.44c1-1,.08-1.71-.34-2.46s-1.32-.23-1.75-.07c-.86.32-.72,1.2-.45,2.07C308.68,89.86,308.26,89.14,308.87,88.87Zm27-2.18c-1.68,0-3.36-.09-5,0s-2.22,1-1.32,2.64c.17-1.8,1.25-2.16,2.72-2.14C333.47,87.23,334.73,87.54,335.91,86.69Zm-66,80.05c-.63-2.4-2-4.24-2.19-6.49A6,6,0,0,0,269.87,166.74Zm4.29,5.44a3.56,3.56,0,0,0,.73,2.11.6.6,0,0,0,.46.26c.35-.06.29-.38.19-.59a8.39,8.39,0,0,1-.51-3.61,4.54,4.54,0,0,0-.32-1.28c-.1-.28-.28-.59-.64-.45a.47.47,0,0,0-.15.65A3.34,3.34,0,0,1,274.16,172.18Zm-9-75.43a2,2,0,0,0,.5.06c.6-.07,1.31.27,1.76-.42a.28.28,0,0,0-.24-.42c-.72-.07-1.49-.26-2,.52C265.16,96.52,265.18,96.58,265.17,96.75Zm7.29,16.41a1.69,1.69,0,0,0,1,2.19Z"/><path class="cls-1" d="M139.6,84.63c.42,0,1.06-.32.82.67C140,87,141.58,87.47,142.57,88a1.8,1.8,0,0,0,2.68-.68c.94-1.79,1.39-.16,2.08.26-1.77,1-3.21,2.43-5.34,2.42-.56,0-.76.59-1.12.92-.64.61-1.38,1.25-2.14.33s.35-1.25.76-1.78,1-.45,1.59-.56c-.46-.55-.81-.61-1.54-.3-1.16.48-2.24,1.52-3.28,1.58-1.34.07-2.07.8-3,1.35a1.73,1.73,0,0,0-.91,2.44c.33.73,0,1-.72,1s-1.39.07-1.41,1c0,.1-.2.29-.29.28-2.22-.36-2.3,2-3.54,2.89-.62.44-.26,1.79-1.13,2.53-.31-.42.08-.94-.19-1.35s-.53-.31-.86-.1-.55.2-.27.5c.82.9.85,2.19,1.56,3.11.21.27.25.47,0,.55-1.64.62-2.42,2.31-4,3.1a7.75,7.75,0,0,0-3.32,3c-.85,1.5-.24,2.79.27,4.24s1.69,3,.76,4.81c-.48.92-.77,1.2-1.48.18-1-1.46-2.09-2.8-1.83-4.77.09-.64-.77-1-1.11-1.51-.54-.87-1-.39-1.58,0s-.74.27-1-.19a1.43,1.43,0,0,0-2-.66c-.74.36-1.16-.35-1.9-.18-1.91.44-1.94.31-1.07,2a47.75,47.75,0,0,1-5.56-1.17,1.7,1.7,0,0,0-1.62.48c-1.3,1.29-3.49,1.46-4.13,3.67-.22.78.8,1.23.12,1.85-.88-.37-2.19-.26-2.48-1.33-.36-1.31-1.37-2.15-1.91-3.32a1.77,1.77,0,0,0-3.06-.37c-.25.25-.43.37-.74.19-.62-.37-1.3-.59-1.66-1.38-1-2.24-2.68-2.89-4.93-2a2.48,2.48,0,0,1-.73.08,12,12,0,0,1-5.38-.76c-1.8-.79-3.65-1.61-5.69-.77a4.45,4.45,0,0,0-3-2.78,5.69,5.69,0,0,1-3.71-4,7.07,7.07,0,0,0-1.51-2.12,5.71,5.71,0,0,1-1.43-4.88.82.82,0,0,0,0-.44c-1-2.74.16-5.39.35-8.08,0-.38-.19-.5-.25-.76-.67-2.83-2.64-4.61-5-6-.44-.26-1-.57-.85-1s.77-.15,1.19-.12a1.26,1.26,0,0,0,1.66.37c-.31-.82-1-.49-1.49-.55-.57-.65-1.39-1.17-1-2.28.17-.45-.36-.75-.65-.88-.57-.25-1.39-.17-1.11-1.19,0,0-.05-.12-.06-.11-2.58.49-1-2.21-2.26-3a1.53,1.53,0,0,0-1.51-.29c-1.28.74-1.45.73-1.67-.54a3.92,3.92,0,0,0-.38-.9c.42-.34.67,0,1,.16.47.26.8,0,1-.38s-.08-.86-.41-1.17-.43-.21-.75.17-1.05.39-1.61.51c-.22,0-.35-.15-.36-.36,0-.39-.1-.78.35-1,.91-.5,1.14-1.15.28-2,.63,1.38-1.6,1.59-.87,3.22a14,14,0,0,1-2.2-2.58c-.9-1,.28-1,.88-1.08-.12.36,0,.6.39.53.25,0,.22-.34.16-.5-.16-.43-.38.06-.57,0-.31-.68-.72-1-1.41-.43a.58.58,0,0,1-.8,0,9.47,9.47,0,0,0-3.24-2c-.59-.17.25-.66-.1-1.11-.88.46-1.85.85-2.65-.22-.06-.09-.29-.09-.42-.06-1.73.44-3.38-.08-5-.5a4.55,4.55,0,0,0-1.54.1c-.25-.62.41-.42.58-.75l-1.81-.7c-.39-.16-.71-.25-1,.19s-.13.58.07.9c.44.68.35,1.13-.6,1a3.14,3.14,0,0,0-2.17.82c-.66.44-1.29,1-2.2.71.34-1.14.21-2.37,1-3.43-.68-.15-.84.23-1.12.49-.86.77-1.22,2-2.49,2.38-.26.06-.61.45-.29.67,1.87,1.27-.42,2-.6,2.13-1.91,1.41-4.14,2.38-5.76,4.22-.14.16-.46.15-.69.24-1.58.68-3.39.7-4.92,1.64.47-1,.78-2.07,2.23-1.63.17,0,.49.07.56,0,1-1.36,2.8-1.68,3.78-3,.58-.81.18-1.85.74-2.71-.69.5-1.76-.9-2.19.54-1.17-1.12-2.4-.7-3.73-.33-.44.12-.41-.74-.36-1.23.15-1.49,0-1.59-1.33-1.11a2.6,2.6,0,0,1-3-2c0-.29.1-.62-.25-.76-1.52-.6-1.06-1.4-.21-2.2.61-.57,1.54-.88,1.47-2,0,0,.43-.24.49-.18,1.53,1.41,2.27-1.24,3.68-.72.33.12.54-.47.51-.91-.15-2.19-.12-2.13-2.32-1.09-.93.44-2,0-3,.11A1.72,1.72,0,0,1,1.7,50.79c0-.19-.74-.3-1.13-.45-.23-.08-.52-.1-.57-.4s.22-.43.43-.54a25.28,25.28,0,0,0,3.65-1.72c.36-.25.93-.41,1.31.54s1.64.6,2.5.4a9.85,9.85,0,0,1,1.69-.55C9,47.8,8.15,48,8.17,47c0-.39-.45-.4-.71-.33-1.3.33-2-.33-2.58-1.38A3,3,0,0,0,2.93,44c-.54-.14-1.07-.27-.92-1.07s.58-.64,1.1-.65c1.49,0,2.74-.17,3.27-2.06.46-1.67,2.41-1.22,3.7-1.7.35-.13.86.25.64-.58-.11-.43.44-.48.77-.46a3.89,3.89,0,0,0,3.27-1.06,1.2,1.2,0,0,1,1.4,0c.63.28-.13.64,0,.88,1.76,0,3.55-.55,5.07.81a1.64,1.64,0,0,0,1.55.24,8.34,8.34,0,0,1,4.21.46,13.57,13.57,0,0,0,5.22.64,6.25,6.25,0,0,1,2.89.36,4.56,4.56,0,0,0,1.58.41,5,5,0,0,1,3.45,1.07c1.09.85,2.6.43,3.89,1.22a1.42,1.42,0,0,1,1.76-2c1.65.48,2.64-.63,3.92-1a5,5,0,0,1,2-.37c.73.11.15.48.12.74l-2.32.65c1.15.73,1.81.26,2.3-.67,1.35.41,2.23,0,2.4-1.48.08-.67.46-.38.73-.24A3,3,0,0,1,56,39.48c.93,1.76,1.29,1.78,2.36.18a4.21,4.21,0,0,1,.35-.48c.05-.07.17-.08.25-.12s.22.08.24.14c.49,1.73.47,1.68,2.11.85a3.09,3.09,0,0,1,2.71.12,15.33,15.33,0,0,0,7,1.69,2.7,2.7,0,0,1,2.58,1.45c-.54.47-1.37.28-1.7,1.1.51.52,1.2.44,1.86.48a11.31,11.31,0,0,0,4-.39c1.45-.45,2.32.46,3.4.93a.67.67,0,0,1,.4.86c-.08.24-.24.48.07.63s.44-.13.64-.26a.45.45,0,0,0,.14-.74c-1-1.25-.75-2.05,1.1-2.29a1.92,1.92,0,0,0-1.85,0c-.27.11-.64.15-.79-.16a.52.52,0,0,1,.36-.71,12,12,0,0,1,3-.85.86.86,0,0,1,.8.27c1.71,2.07,4,2.52,6.52,2.31A7.43,7.43,0,0,1,93,44.37c.81.09,1.6.42,1.54-.95,0-.57,1,0,1-.88-.45-.7-1.6-.16-2.22-1,.62-.46,1.57-.54,1.64-1.53,0-.15.44-.44.55-.38a10.76,10.76,0,0,0,3,1c.35.06-.45.23-.56.53.33.37.79-.06,1.15.18a.81.81,0,0,1,.43.72c0,.29-.23.53-.46.49-1-.17-1.7.64-2.81.62.77.52,2.07.51,1.27,1.9-.21.36.46.72.92.72.74,0,.41-.46.3-.83-.16-.53-.19-.87.58-1s1.85-.86,1.66-1.55-.48-2-1.82-2.23a2.75,2.75,0,0,1-2-3.65.88.88,0,0,1,.33-.47c1.75-1.09,1.81-1.45,1-3.57a2.92,2.92,0,0,1,.08-2.53c.78-1.45,2.09-1.4,3.43-1.22.58.07,1.15.29,1.73.39s1.35-.34,1.61.31-.47,1-.78,1.52c-.63,1-1.27,2.09-2.79,1.44-.17-.07-.66-.11-.57.15.42,1.19-.74,1.34-1.23,2,.95.6,2.33.83,2.1,2.52,0,.36,1,.65,1.42,1.14s.82.65,0,1a.61.61,0,0,0-.3.77c.12.48.47.19.72.14.65-.13,1.12.33,1.82.54-.84.69-.63,1.45-.28,2.25.53,0,.44-.54.7-.78.45-.41.51-1.56,1.46-.82.68.53,1.93,1,.94,2.32-.39.52.6,2.32,1.23,2.3a1.46,1.46,0,0,0,.89-.48c.26-.26,0-.56-.18-.77s-.63-.62-.21-1,.49.16.65.39a.29.29,0,0,0,.24.1c.78-.33.35-1.33.94-1.75s1.34-.6.34-1.33a.78.78,0,0,1-.29-.93c.14-.43.54-.35.87-.38,1.7-.17,3,.8,4.45,1.49.25.13.37.9.27,1.31-.15.65-.89.46-1.39.58.18.4.24.86.51,1.09,1.62,1.37.51,2.29-.63,2.84-1.31.64-2.72,1.66-4.33.54a1.13,1.13,0,0,0-1,0c-.19.49,1.18.7.25,1.36-.74.53-1.27,1.49-2.42.93-.76-.37-1.4-1.06-2.59-1a3,3,0,0,0,2.81,1.41c.39,0,.85-.08,1.06.34s-.27.58-.45.86c-.67,1.08-1.45,1.93-2.89,1.25-.11,0-.38,0-.39,0-.55,2.12-1.93.63-3,.69h-.15a.85.85,0,0,0-1.16-.09l1.06.22c.18.73.83.6,1.33.73.35.09.74.13.71.58a.67.67,0,0,1-.71.65c-1.16-.11-1.58.79-2.18,1.48-1.43,1.63-2.81,3.26-2.67,5.63,0,.57.06,1.06.76,1.27a3.12,3.12,0,0,1,2.42,3.45c2.55-.66,4.63.26,6.67,1.72a9.39,9.39,0,0,0,5.64,2c1.12,0,1.73.16,1.43,1.62-.49,2.42,1.27,3.94,2.7,5.53.19.2.6.54.89.1.48-.74,1.84-1,1.39-2.24s-.18-2.6-1.13-3.64c-.26-.29-.2-.74.31-.75,1.07,0,1.66-.82,2.41-1.36a3.06,3.06,0,0,0,.16-4.86c-1.71-1.38-1.76-1.42-.48-3.11.36-.47.56-.78.28-1.27-.44-.77-1-1.51-.2-2.39.2-.23,0-.48-.2-.63a.84.84,0,0,1-.2-1.3,1.21,1.21,0,0,1,1.31-.51c1.47.32,2.86.83,4.47.37.78-.22,1.63.66,2.14,1.36A3.76,3.76,0,0,0,134,59.6,4.22,4.22,0,0,0,136.49,65a.63.63,0,0,0,.7-.06c.91-.88,2.52-1.09,2.53-2.85,0-.46.53-.91.85-1.44,1,.56,1.29,1.65,1.73,2.49.66,1.27,1.6,2.34,2.2,3.64.51,1.1.63,1-.36,1.82a8.94,8.94,0,0,1,2.32,2c.64.76,2,.43,2.9,1.06.31.22,1-.06,1.08.52s-.71.36-1,.6l-.58.43a2,2,0,0,0-1.89,1c.61-.35,1.6,0,1.87-1,.68.21,1.79-.76,2,.77,0,.28.41.07.63,0,.71-.34.94.33,1.31.66a.68.68,0,0,1-.14,1.14c-.92.54.79.67.12,1.17a2.08,2.08,0,0,0-.94,1.08l0,0a4,4,0,0,0-3.69,1.39,2.77,2.77,0,0,1-2.31.77,53.23,53.23,0,0,0-6.68.17,2.2,2.2,0,0,0-1.76.92c-.67,1-2.35.64-2.71,2.08.94.12,1.66-.61,2.54-.79s1.64-.39,2.47-.49c.6-.08,1.22,0,1.44.73s-.33,1-.88,1.3c-.25.12-.59.15-.69.49l-.17.14.09.07ZM119.65,90c-.54-1-.5-2.31-1.88-2.35a17.26,17.26,0,0,0-4.81.06c-2,.47-3.76.61-3.68,3.29,0,.8-.48,1.61-.39,2.47,0,.49.15,1.13.72,1.16a1.29,1.29,0,0,0,1.29-1,2.94,2.94,0,0,0,0-.89c-.12-1.52-.07-2.85,1.56-3.79.67-.39,1.08-1,1.86-.44a1.43,1.43,0,0,1,.34,2.2.58.58,0,0,0,0,.77c1.69-1.08,1.27.63,1.59,1.37a1.2,1.2,0,0,0,.78-1.1C117.15,90.07,117.6,89,119.65,90Zm-6.24-3.18a5.54,5.54,0,0,0-4.17-4.12,1.21,1.21,0,0,0-1.36.33,4.31,4.31,0,0,1-3,1.86,3.27,3.27,0,0,0-1.15.66.55.55,0,0,0-.29.63c.08.23.31.18.5.22,1.27.23,2.5.33,3.56-.69.41-.4.76-.72,1.21.2a1.56,1.56,0,0,0,2.35.76A2.23,2.23,0,0,1,113.41,86.79ZM61.13,50.72a1.32,1.32,0,0,0,2.08-.48,1,1,0,0,1,1.12-.56c.72.26-.31.73.18,1.17.33-.37,1.34-.13,1.21-.71-.25-1.07.4-.77.86-.8a1.71,1.71,0,0,0,1.13-.28c.41-.35,1.1-.8.83-1.27-.36-.64-.81.12-1.22.28a1.85,1.85,0,0,1-1.85,0c-.6-.45.63-.7.23-1.28a5,5,0,0,0-3.32,1c.17.55.9.36,1,1C61.86,48.57,61.92,50,61.13,50.72Zm10.52,5.56c.12.6,1.19,1.06.61,1.37-.92.48-1.15,1.77-2.48,1.69a2.17,2.17,0,0,0,.38.27c.19.07.38.1.57.15,2,.56,3.46-.65,4.89-1.55,1.15-.72,2.61-1,3.73-2.28a5.35,5.35,0,0,0-3.25,1.16,1.58,1.58,0,0,1-2.35-.23A1.93,1.93,0,0,0,71.65,56.28ZM96.88,79.71c.52-1-.86-5.47-1.65-5.95a.84.84,0,0,0-1,0,.86.86,0,0,0-.39.89,2.83,2.83,0,0,0,1,1.93A4.09,4.09,0,0,1,96.88,79.71Zm23.27,13.93c-1.25-.29-2-.7-2.87-.2-.56.33-1,1-1.83.46-.18-.12-.36.08-.45.27a.65.65,0,0,0,.23.79,1.7,1.7,0,0,0,1.83.21C118,94.76,118.9,94.26,120.15,93.64ZM58,80.16c.23.73.45,1.63,1.16,1.81,1.9.47,2.29,1.86,2.52,3.51a3.71,3.71,0,0,0,0-2.74C61.21,80.81,59,81.47,58,80.16Zm65.2,10.76a4.61,4.61,0,0,0-2.59.43c-.27.13-.55.29-.42.66s.39.27.63.25c.74-.07,1.49-.12,2.22-.25s1.59-.19,1.5-.91C124.46,90.17,123.59,91.17,123.24,90.92ZM24.15,59.76c-.39-.09-.84-1-1.37,0Zm39.79-8.82-.09.07s0,.07.08.07S64,51,64,51Z"/><path class="cls-2" d="M69.44,109.61c2-.84,3.89,0,5.69.77a12,12,0,0,0,5.38.76,2.48,2.48,0,0,0,.73-.08c2.25-.84,3.93-.19,4.93,2,.36.79,1,1,1.66,1.38.31.18.49.06.74-.19a1.77,1.77,0,0,1,3.06.37c.54,1.17,1.55,2,1.91,3.32.29,1.07,1.6,1,2.48,1.33a34,34,0,0,0-.34,5A3.32,3.32,0,0,0,96.8,127c1,.74.82,2.36,2.29,2.77.52.15,1,.44,1.51.2a1.27,1.27,0,0,1,.44-.07c2.35-.12,4.36-.57,4.64-3.53.06-.69,1.21-.74,1.93-.87a9.71,9.71,0,0,1,1.79,0c.39,0,.85,0,1,.4s-.24.69-.49,1-.51.51-.5.88c0,1.91-1,3.54-1.42,5.32-.09.42-.09.77.45.6,1.06-.33,2.18.07,3.24-.34,1.31-.51,2.24.55,3.3,1,.4.16.22.58.16.93a26.47,26.47,0,0,1-.48,3.35c-.6,1.88.56,2.85,1.53,3.88a2,2,0,0,0,3,.2,2.49,2.49,0,0,1,3.52.6c.58.79.94.9,1.54.06s1.33-1.11,1.38-2.17a1.24,1.24,0,0,1,1.15-1,8.84,8.84,0,0,0,3.84-1.5c.32-.19.62-.45.9,0s-.33.49-.4.71c-.27.9-.35,1.85-.7,2.74-.11.27.44.8,1,.67s.27-.53.21-.87a2.49,2.49,0,0,1,1.85-2.72,2,2,0,0,1,2.24,1.23c0,.18.23.48.32.47,1.61-.16,3.08,1.06,4.72.46a4.14,4.14,0,0,1,1.54-.5c.44,0,1.69-.95,1.32.74-.06.25.43.34.73.36s1,.24,1,.49c-.26,1.72,1.17,1.06,1.86,1.45a4.73,4.73,0,0,1,2,1.65c.92,1.53,2.6,1.77,4.28,1.79a6.39,6.39,0,0,1,4.94,2,2.91,2.91,0,0,1,.9,1.64,1.94,1.94,0,0,0,.5,1.21,1.86,1.86,0,0,1,.42,3c2.64.59,2.64.59,2.19,2.11a.33.33,0,0,0,.52,0c.4-.67.82-1.35,1.73-1,1.34.56,2.91.75,3.76,2.15.11.18,0,.49,0,.74l-.12.14.15-.11a3.15,3.15,0,0,1,2.73,0,1.85,1.85,0,0,0,1.45.17c1.67-.59,2.89.24,4,1.29s2,1.81,3.46,1.77a.85.85,0,0,1,.86.68c.73,2.22,1,5.15-2.18,6.87a2.34,2.34,0,0,0-.87,1.15c-.36.71-.34,1.88-1.69,1.69-.42-.06-.21.45-.3.69-.73,1.77.31,3.63-.31,5.41-1,2.92-1.78,5.94-4.06,8.24a1,1,0,0,1-1.09.25,3.37,3.37,0,0,0-3.29.68c-1.21.81-2.63,1.23-3.73,2.3a2.61,2.61,0,0,0-1,2c0,1.51.31,3.05-1.34,4.05-.4.24-.49.95-.78,1.41s-.54,1.43-1.43,1.56l0,0c0-.43.49-.78.1-1.4a4.59,4.59,0,0,0-1.28,2.47c-.41,1.82-1.8,2.93-3,4.1a3.14,3.14,0,0,1-3.39.26c-.79-.31-1.59-.32-2.42-.56,0,.82.55.76,1,.86s.79.38.64.83a.92.92,0,0,0,.52,1.32c.49.25.46.66.21,1.14a5.22,5.22,0,0,1-4.18,2.91,2.37,2.37,0,0,1-.75,0c-1.8-.39-2.75.36-2.85,2.15-.09,1.59-1,1.51-2.18,1.31-.45-.08-1.17-1-1.41.11-.16.75-.29,1.79,1.07,1.82.36,0,.92-.15.89.46s-.76.24-.9.4c-.48.56-1.38.9-1.37,1.76a2.21,2.21,0,0,1-1.92,2.39,1.38,1.38,0,0,0-1.1,1.42,1.66,1.66,0,0,0,1.2,1.55c1.17.49,1.5,1.62.42,2.17-1.76.88-1.94,3-3.58,4-1,.58-.07,1.64,0,2.48,0,.22.32.42.33.64.06.72-1.14-.36-.9.57.14.55,1.08.14,1.22.66.57,2.13,2.3,2.83,4.43,3.63-2.23.58-4.16,1.5-6.18,1a8.2,8.2,0,0,1-2.6-1.32c-.59-.44.41-1.08-.31-1.41s-.09,1.09-.87.65a3.63,3.63,0,0,0-.79-.39c-.39-.09-.93-.09-.88-.59s.63-.28,1-.33.57-.14.61-.68c-1.39.87-1.43-.64-1.88-1.16s.43-.5.82-.58.68-.11.59-.5-.36-.23-.7-.13-1.12.22-.87-.7c.18-.67-.37-.45-.6-.39-1.14.31-1-.21-.55-.86s.78-1.2-.23-1.9c-.74-.52.44-1.89-.54-2.64.12-.08.24-.26.35-.25.83.06.77-.33.79-1,0-1.16.18-1.16-1.17-1.38,1-2.18,1.33-2.39,2.29-1.37a3.22,3.22,0,0,0,.72-2,36.62,36.62,0,0,1,.55-4c.08-.47.2-1-.35-1-.31,0-.7.51-.67,1a7.36,7.36,0,0,1,0,1.05.54.54,0,0,1-.72.53c-.43-.09-.3-.39-.26-.7a35.15,35.15,0,0,1,.82-3.69,11.74,11.74,0,0,0,.19-4.21,1.83,1.83,0,0,1,.14-1.17,19.05,19.05,0,0,0,2.56-9.77c-.07-2.55,1-5,1.23-7.47.34-3.42,1.13-6.82.77-10.29a.8.8,0,0,0-.36-.6,31.68,31.68,0,0,0-5.14-3.5,6.54,6.54,0,0,1-3.09-3.25c-1.45-2.75-2.48-5.73-4.28-8.29a5.13,5.13,0,0,0-.8-.88c-1.75-1.57-1.8-3.14-.12-4.72.4-.37.39-.55-.06-.89-1.06-.82-1.1-1.71-.34-2.88a18.6,18.6,0,0,1,4-4.87,1.25,1.25,0,0,0,.57-1.3,9.85,9.85,0,0,1-.17-2.81,2.46,2.46,0,0,0-.73-1.74c-.3-.32-.73-.58-.74-1.08,0-.67-.16-1.28-.93-1.23a1.42,1.42,0,0,0-1.44,1.28c-.06,1.41-.75,1-1.45.59-.86-.46-1.6-1.16-2.69-1.15-.72,0-.52-1-1-1.18-1.32-.65-2.76-.95-2.94-2.94-.07-.84-1.54-1.32-1.89-2.37a.43.43,0,0,0-.35-.2c-1.69.4-2.92-1.08-4.55-1.09-.86,0-1.51-.87-2.15-1.5A3.77,3.77,0,0,0,98,133.49a3.35,3.35,0,0,1-2.57-.23c-2.28-.94-4.44-2.16-6.82-2.88-1.16-.35-2-1.39-3.12-2a1.28,1.28,0,0,1-.37-1.61,2.81,2.81,0,0,0-.54-2.79,24.32,24.32,0,0,0-4.12-4.24c-.2-.15-.45-.31-.51-.51-.61-2.17-2.39-3.16-4.08-4.32-.9-.62-.6-2-1.05-2.91-.16-.34,0-.81-.57-.91s-1.56-.77-1.66-.25c-.15.8-.2,2.14.72,2.53s1.15,1.25,1.61,1.94c1.2,1.85,2.72,3.53,3.19,5.79.14.65,1,.29,1.24.91a1.36,1.36,0,0,1-.12,1.54,10.94,10.94,0,0,0-2.82-2.54.83.83,0,0,1-.41-.89c.17-1.48-1-2-2-2.4-1.19-.52-1.18-.44-.59-1.46a1,1,0,0,0-.47-1.41C70.68,113.83,70.77,111.25,69.44,109.61Zm62.63,126c-.44.35-.23.92-.47,1.36a.37.37,0,0,0,.32.54c.26,0,.24-1.25.8-.2.69-.68-.27-.74-.42-1.11-.07-.17-.12-.36-.18-.55.27-.05.57-.08.66-.42,0,0-.11-.14-.18-.15C132.24,235,132.13,235.27,132.07,235.57Zm-1.36-.87c-.79-.36-1.26-.42-1.87,0A1.71,1.71,0,0,0,130.71,234.7Zm.07.7c-.07.06-.21.13-.25.24s.09.24.23.21a.44.44,0,0,0,.29-.22C131.11,235.48,131,235.38,130.78,235.4Zm-3.44-6.66a2.12,2.12,0,0,0-.28.42c0,.07.06.17.09.26.11-.08.27-.13.32-.24S127.41,229,127.34,228.74Z"/><path class="cls-2" d="M192.09,7.29a8.42,8.42,0,0,0,4.28-1.53c.84-.55,1.75-1,2.39-.28s-.08,1.55-.66,2.19c-.23.25-.57.43-.55.93a1.59,1.59,0,0,0,1.54-.55c1.37-1.57,3-1.34,4.75-1,.68.16,1.11.14,1.45-.54a2.15,2.15,0,0,1,2-1,11.57,11.57,0,0,1,4.63.93c.78.31.73.63,0,1a31,31,0,0,1-7.68,2.28c.74.41,1.75-.13,2.32.79a3.45,3.45,0,0,1-2.5.58,3.12,3.12,0,0,0-2.52.9c.78.33,1.22-.19,1.69-.4.7-.31,1.28-.14,1.47.5s-.58.45-.92.58c-.76.29-1.54.48-1.59,1.51,0,.18-.13.49-.25.51-2.24.4-2,2.55-2.95,4.17,1.26-.63,2.37-1.57,3.56-.29,0,.28-.19.26-.37.29-.36.06-.92-.09-.8.55.08.44.57.58,1,.55.77-.05,2-.68,1.85.72-.13,1.14-1.29.37-2,.25-1.22-.22-2.15.73-3.41.62a3.36,3.36,0,0,0,2.82,1.47c1.14,0,1.41.79,1.44,1.69s-.75,1-1.47,1c-.41,0-1-.21-1.12.41s.53.82,1,1.11,1.52,0,1.4.7-1.09.39-1.7.44a14,14,0,0,1-1.45,0c-.13.71.41.7.69.9s.85.29.79.77-.58.69-1,.69c-.83,0-1.67.47-2.47,0s-1.65-.75-2.31.34c-.15.24-.74.28-.5.71s.65.26,1,.14a6.26,6.26,0,0,1,2.35-.26c.56,0,1,.11.91.82s-.36,1-1.07,1-1.27-.55-2.13-.41a7.12,7.12,0,0,0,2.62,2.15,1.8,1.8,0,0,1,.74,2.56c-.51.9-1.61.62-2.4.18a10.33,10.33,0,0,1-1.69-1.43c-.23-.2-.48-.41-.8-.28s-.28.48-.17.76c.34.85-.88.68-.85,1.5,1.79-.22,3.39.88,5.2.63v0c-2.74,1.89-5.56,3.59-9,3.84-1.35.1-2.61.63-4,.77-.84.09-1.72,1.37-2.26,2.29-1.23,2.13-3.23,2.6-5.38,2.89-.59.08-.52-.5-.85-.72-.75,1.64-2.76,1.39-3.68,2.83.6,1.15-.39,4.11-1.91,4.74-.55.23-.65.37-.5.93a5.65,5.65,0,0,1-.44,3.34c-.56,1.75-1.75,2.14-3.26,1A5.8,5.8,0,0,0,164.76,60c-2.45-.39-3.44-2.26-4.35-4.27-.52-1.14-1.65-1.9-2.13-3.09-.05-.13-.31-.21-.3-.3,0-1.67-.86-2.75-2-3.83-.72-.68.51-1,.77-1.51-.3-.56-1.76-.62-1.13-1.5s.46-2.7,2.29-2.72a1.78,1.78,0,0,0,1.82-2.39c-.33-1.13-1.29-1.34-2.39-1,0,.61,1.16.82.41,1.53a1.5,1.5,0,0,1-1.92.26c-.66-.44-1.85-.46-1.84-1.5s.92-1,1.75-1.06c-.21-.47-1.21-1.08.23-1.17a6.49,6.49,0,0,1,3.58,1A2,2,0,0,0,158,36.85c-.79-.33-1.75-.41-1.79-1.66,0-.59-.56-.46-.89-.17-.5.45-1.08.92-1.7.49a1.48,1.48,0,0,1-.24-1.91c1-1.39-.11-2.32-.57-3.33a4.6,4.6,0,0,1-.71-1.76c0-.19,0-.47-.16-.55-2.18-1.36-3.34-4.08-6.24-4.56a21.73,21.73,0,0,0-6-.23c-1.34.14-2.84,1.17-4.3,0-.52-.4-1.32-.41-1.26-1.37,0-.54-.53-.48-.86-.65s-1.12,0-1.54-.43a11.29,11.29,0,0,1,5.49-.83c.41.05.88.25,1-.28s-.43-.71-.88-.71a7.53,7.53,0,0,0-1.33.15,4,4,0,0,1-3.66-.58,2.89,2.89,0,0,0-1.84-.48.79.79,0,0,1-.79-.75.81.81,0,0,1,.49-.84,5.58,5.58,0,0,1,1.84-.54c2.16-.42,4.1-1.69,6.44-1.51.84.06,1.37-.89,1.76-1.66.24-.47,0-.77-.42-.92s-.77-.21-1.15-.3c-.55-.12-1.46.31-1.61-.3-.19-.8.81-1,1.36-1.34,1.26-.7,2.59-1.26,3.91-1.84a3.15,3.15,0,0,1,2.31.22c.91.32,1.23,0,1-.91-.1-.45-.75-1-.25-1.32a2.43,2.43,0,0,1,2-.42c.56.15,1.11.35,2,.63-.83-1.14-.25-1.47.51-1.51a29.07,29.07,0,0,0,4-.66c1.36-.26,1.89.52,1.85,1.82,0,.33-.25.94.35.94s.48-.53.52-.93c.2-1.89.2-1.89,1.87-.81.76.49,1,.52,2.36.28a.38.38,0,0,0,0-.15c-.2-.64-1.6-.67-1.09-1.49s1.5-.23,2.19,0c1.53.55,3,1.23,4.49,1.87.39.17.72.54,1.43.39-.55-.86-1.47-1-2.14-1.47-.38-.27-1.08-.42-1-1s.82-.32,1.27-.42l.55-.11c.06-.69-.84-.55-.86-1.43,2.26.6,4.33-1,6.63-.28a3.59,3.59,0,0,0,1.76-.23c.38-.07.9-.16,1.16,0,.86.62,1.38,1.06,2-.37.22-.49,1.73-.61,2.63-.54,3.57.27,7.14-.76,10.78.38,1.78.56,3.74.42,5.33,1.76.6.51,1.56.06,2.33.26.42.11,1,.21,1.07.69.09.64-.61.55-1,.66a23.45,23.45,0,0,1-7.91,1,12,12,0,0,0-5.87,1.36,28.53,28.53,0,0,1,9.78-.66c-.62,1-1.77.91-2.34,1.65l-.12.14Zm4.45,2.31c.08,0,.19-.06.22-.12s0-.15,0-.23-.18.07-.22.13S196.52,9.52,196.54,9.6Z"/><path class="cls-3" d="M333.83,105a5.38,5.38,0,0,1-3.16-3.9c-.08-.41-.18-.79-.6-.95a1.36,1.36,0,0,1-.89-1.91,2.26,2.26,0,0,1,2.28-1.31c1.46.17,2.45-.87,3.71-1.2a9.37,9.37,0,0,0,1.48-.88,2.84,2.84,0,0,0,1.42-3.44c-.56-1.85-.13-2.36,1.85-2.09.6.08.8.09.83-.7.07-2.1.64-2.51,2.75-2.37.94.06,1.6-.12,1.3-1.32-.13-.52,0-1.09.62-1.18.94-.14.66-1.15,1.23-1.53l.91.25a3.46,3.46,0,0,0,2.3,1.93,3.31,3.31,0,0,1,1.79,2.91c-.33,1.85-.33,1.83,1.67,2.13a4.77,4.77,0,0,1,4.11,2.89,1.69,1.69,0,0,0,2,1.2c3.18-.45,6.16.6,9.16,1.32.69.17,1.21.49,1.86,0a4.9,4.9,0,0,1,4.08-.9c.95.16,3.82-1.32,4.24-2.07.19-.33,0-.56-.1-.83-.34-1.16,0-1.62,1.21-1.28a5.3,5.3,0,0,0,4.65-1.26,6.44,6.44,0,0,1,4.8-1.6c.47,0,.95-.32.42-.66-.84-.54-1.17-2.28-2.85-1.25-.55.34-1.53,0-2.3-.09-.48-.07-.52-.44-.28-.9.45-.88.82-1.8,1.23-2.7,1.78.83,3,.36,3.91-1.41a5.24,5.24,0,0,1,1.44-2.22A.87.87,0,0,0,391,76.3c-1-1,0-1.24.56-1.36a9.55,9.55,0,0,1,5.83.45,1.66,1.66,0,0,1,.94.9c.64,1.59,1.73,3,2.09,4.7.11.51.44.57.81.72,1.54.63,3.3.82,3.9,2.92.22.8,1.48.57,2.28.27.3-.12.56-.39.92-.44s1-.55,1.37-.09.19,1-.05,1.65a10.42,10.42,0,0,1-1.48,2.7,1.29,1.29,0,0,1-1.2.68c-1.55-.09-1.9.32-1.78,1.88.06.64.17,1.28.25,1.91l-.57.37c-.75-.36-1.25-.53-2,.36s-1.55,2.23-3.15,1.37a.26.26,0,0,0-.27.06c-.82,1.48-2.76,1.5-3.69,2.83-1.52,0-2.45,1.45-3.94,1.71a2.24,2.24,0,0,1,.72-2.14c.27-.25.64-.57.22-1a.79.79,0,0,0-1.09,0c-.85.58-1.72,1.16-2.49,1.8-.52.44-.82.84-1.56.73-.58-.08-.74.4-.78.88s.3.7.75.69c.71,0,1.13,0,1.21,1s.9.63,1.24.15c1.13-1.56,2.19-.07,3.21.09.58.08.26.69-.32.78-1.46.21-2.38,1.28-3.43,2.14-.39.32-.79.9-.1,1.18,1,.42,1.2,1.42,1.62,2.2a4,4,0,0,0,1.07,1.53c.21.16.54.38.31.71s-.54,0-.82,0-.33-.18-.45,0c0,0,.16.17.24.26.24.54,1.05.35,1.23,1-.19.53-.84.5-1.12.94a2,2,0,0,0,1.53.38c-.14.52-.64.65-.66,1.15-.07,1.61-1.27,2.54-2.3,3.54-.13.13-.39.27-.38.38.27,2.26-1.86,2.78-2.94,4-1.3,1.49-3.31,1.39-5,2s-4.06,1.08-5.42,3.24c-.19-2.14-1.49-2.19-3-1.74-.49-.39-1.17-.52-1.49-1.15-.6-1.21-1.5-1.53-2.56-.88a3.19,3.19,0,0,1-1.42.25c-.69.09-1.47-.2-2,.44-.43.13-1.11,0-.73.86.12.26.22.61-.17.74-.92.31-2.57-1-3-2-.33-.74-.66-2-1.46-2-1.56-.1-.77-.9-.57-1.43a7.65,7.65,0,0,1,.92-1.32c.86-1.3-.12-2.24-.66-3.26-.32-.6-.72-.34-1.12-.14-.78-.2-.87-1.38-1.55-1.39a4.21,4.21,0,0,0-3.62,1.38,2.58,2.58,0,0,1-1.18.83c-2.8-1-2.94-.86-3.91.69-.33-.3.16-1.63-1-.82a10.6,10.6,0,0,1-6.55-2.77,2.48,2.48,0,0,0-2.77-.63c-.49-1-1.55-1.32-2.27-2-.5-.49-1.19-1.53-.42-1.69,1.56-.33.6-.81.32-1.3-.19-.33-.3-.63-.05-1a2.11,2.11,0,0,0,1.71-1.65c.16-.54-.55-.88-1-1.11-.84-.42-1.38.14-1.91.68C334.42,105,334.16,104.79,333.83,105Z"/><path class="cls-1" d="M423.94,210.78c-.11-.45-.27-.69-.6-.13a1.52,1.52,0,0,1-2.48.52c-1-.63-2.22-.41-3.21-1.06a1.67,1.67,0,0,1-1-1.66c.05-1-.09-2-1.54-1.94-.64,0-.46-.38-.33-.69s.18-.72-.18-.91c-.59-.31-.43.32-.58.54-.29.44-.66.34-1.16.19a6.32,6.32,0,0,0,1.1-3.15,14.82,14.82,0,0,1-2.43,2.51c-.64.57-1,.52-1-.31s-.8-1.21-.92-1.7c-.56-2.36-2.8-1.78-4.21-2.53a4.35,4.35,0,0,0-3.59.26,7.91,7.91,0,0,1-3.31.74,4.06,4.06,0,0,0-3,1.34,3,3,0,0,1-3,1.08,6.45,6.45,0,0,0-4.69,1.2,3.66,3.66,0,0,1-4.79-.84c-.17-.22-.25-.49-.06-.66,1.52-1.38.92-2.81.4-4.46a67.07,67.07,0,0,0-2.73-6.67,1.7,1.7,0,0,0,.19-.19c.78-.29,1.06-.68.38-1.41a1.7,1.7,0,0,1-.12-2.31c.11-.16.28-.4.23-.53-.71-1.8.79-1.89,1.79-2.5a22.8,22.8,0,0,1,7.11-2.44,4.76,4.76,0,0,0,2.6-3.19,1.35,1.35,0,0,1,.75-1.2c.61-.33.55.31.75.59s.62.27.65-.09c.23-2.33,2.09-3.22,3.72-4.32.36-.25.77-.45,1.07-.11a5.46,5.46,0,0,0,3.21,1.65,3.58,3.58,0,0,1,3-4c1.25-.14.93-.72.47-1.52,1.76,1.17,3.69,1.22,5.54,1.56.27.06.78-.31.87.08a1.67,1.67,0,0,1-.44,1.17c-1.67,2-1.4,2.63.88,4,1,.6,2.21.92,3,2,.55.71,1.42.62,2-.28a6.08,6.08,0,0,0,.93-3.54,15.59,15.59,0,0,1,.64-4.5c.1-.42.3-.84.7-.87s.35.49.5.78a5.48,5.48,0,0,1,.95,3.5c-.07.48.16.82.81.72a1.28,1.28,0,0,1,1.53,1.22c.23,1.67,1.25,3.09,1.43,4.76a1,1,0,0,0,.72,1,5.07,5.07,0,0,1,3.71,4.11c0,.05,0,.14,0,.14,1.91-.13,1.27,2.35,2.58,2.62s.85,2.32,2.41,2.17a.49.49,0,0,1,0,.14c.18,3.39.92,7-1.12,9.94a17.56,17.56,0,0,0-3.3,7.72.73.73,0,0,1-.82.7,4.35,4.35,0,0,0-3.35,1.35c-.8.77-1.36.6-2-.09-.12-.12-.34-.13-.52-.2Z"/><path class="cls-1" d="M352.61,116.73a2.58,2.58,0,0,0,1.18-.83,4.21,4.21,0,0,1,3.62-1.38c.68,0,.77,1.19,1.55,1.39-.41.41,0,1.26-.84,1.45a2.67,2.67,0,0,0-2.1,2.2c-.28,1.06.08,2.61-1.71,2.82-.09,0-.12.44-.18.67-.15.58-.3,1.16-.47,1.84-.66-.65-.19-1.52-.63-1.89-.64-.31-.66,1-1.24.29a.85.85,0,0,1,.34-1.28,1.62,1.62,0,0,0,.45-.37c.2-.27.48-.56.31-.94s-.59-.3-.91-.29c-.92,0-1.84.27-2.34-1a1.17,1.17,0,0,0-1.55-.34c-.47.41.3.53.52.79a.39.39,0,0,1-.06.63c-.72.48-.46,1.19-.27,1.75a24,24,0,0,1,.67,2.88c-.41.37-.94.23-1.42.32s-1.09.16-1.28.64c-1.07,2.6-3.61,3.75-5.47,5.55a25.28,25.28,0,0,1-2.73,2.27c-.74.54-.62,1.73-.59,2.76a9.57,9.57,0,0,1-3.25,7.63.66.66,0,0,1-1,0,3.84,3.84,0,0,1-.75-1.1c-1.59-4.77-4.19-9.17-5-14.23-.22-1.32.54-2.78-.64-4,0,1.1-.6,1.91-1.62,1.92a3.1,3.1,0,0,1-2.61-2c-.44-.86.79-.3,1-.81-.86-.24-1.79-.46-2-1.54.54-1.11,1.59-.84,2.48-.86,1.29,0,1.43-.61.66-1.42s-.66-1.58-1.23-2.31.35-1.39,1-1.31c2.2.27,2.89-1.42,3.92-2.71a13.43,13.43,0,0,0,2.32-3.73c.16-.43.44-.64-.13-.81-1.48-.44-1.08-1.78-1.18-2.74-.08-.74.73-.5,1.26-.36,1.37.36,2.55.2,3.19-1.29.33-.18.59,0,.87.17.06.9,1.21,1.16,1.22,2.08-.25.33-.14.63.05,1,.28.49,1.24,1-.32,1.3-.77.16-.08,1.2.42,1.69.72.71,1.78,1,2.27,2-1.24,1.41-1.19,1.79.38,2.62.86.45,1.73.9,2.58,1.37.62.33,1.4-.53,1.91.26s1.52.9,2.32,1.1c1.73.43,2.34-.21,2.13-2,1.2-.81.71.52,1,.82.6,1,1.65.61,2.5.77C352.29,118.4,352.89,117.93,352.61,116.73Z"/><path class="cls-1" d="M109.38,15.9c-.15,0-.38,0-.43.08-.71,1.2-1.82,1.2-3.07,1.41a3.84,3.84,0,0,1-3.7-1,14.57,14.57,0,0,0-1.72-1.23c.58-.75,1.66-.35,2.42-1.31-2.3,0-4.74.84-5.72-2,.53-.63,1.45.37,2.07-.47-.36-.17-.69-.3-1-.47a.75.75,0,0,1-.41-.87c.08-.35.43-.35.66-.51s1.8.51,1-1c-.11-.19.86-.15,1.38-.32.12-.42-.63-.3-.49-.68s.5-.23.77-.24a2.22,2.22,0,0,1,1.5.56A11,11,0,0,0,106,9.65a2.11,2.11,0,0,1,1.2.83c.35.57.57.68,1.35.26,1.18-.65,1.26,1.23,1.26,1.37,0,1.82,1.24,1,2.12,1.2-.27-.55-.79-.23-1.06-.54a1.43,1.43,0,0,1-.43-1.35c.13-.53.53-.65,1-.66,1.55,0,3.08-.06,4.33,1.15a2,2,0,0,0,1.9.66c-.48-.81-1.56-.91-2-1.81,1.72-.92,4.12.08,5.44-2.17-.85-.06-1.21.5-1.72.68-2.23.77-4.59.67-6.88,1-.62.08-1.58.17-1.65-1,0-.47-.33-.16-.51-.07a3.54,3.54,0,0,1-4-.59c-.31-.27-.73-.33-.46-.86-.59-.17,0-1.76-1.29-1.11a1.15,1.15,0,0,1-1.13-.06c.22-.62.8-.59,1.24-.7,1.13-.27,2.48.24,3.39-.93.08-.11.38,0,.58-.06s3.18-.64,3.21-.7c.67-1,1.51-.48,2.24-.17s1.26.07,2-.16c2-.6,3.8-2.63,6.35-1.49.85.38,1.88-.71,3-.44a2.44,2.44,0,0,0,.6,0,29.53,29.53,0,0,0,4.1-.29,9.47,9.47,0,0,1,4.79.2,7.24,7.24,0,0,0,2.52.12c1.38,0,0,.55.19.88,1.16,0,2.26-.82,3.54-.29.53.22,1.05.21,1.44.8s1.15.43,1.79.43c.36,0,.9-.24,1,.28s-.4.66-.74.82c-1.64.79-3.23,1.77-5.2,1.53a4.66,4.66,0,0,0-2.48.5,9.62,9.62,0,0,0,2.79,0c.31,0,.78,0,.87.37s-.33.58-.66.64c-2.92.52-5.31,2.24-7.78,3.67-1.19.69-2.07,1.46-3.47.88-.1-.05-.38,0-.39.09-.41,1.87-2,1-3,1.27-.6.15-1.3,0-1.89.69.91,0,1.69-.06,2.46,0,1.16.11,1.48.72.87,1.72A3.27,3.27,0,0,1,123.38,18c-.6-.08-1.65-.46-1.19,1,.13.42-.39.49-.71.58a7,7,0,0,1-3.25.13c-.42-.08-.92-.13-.94.36s.55.41.82.3c1.41-.6,2.62.67,4,.39.44-.08.58.39.63.7a.59.59,0,0,1-.61.7,4.35,4.35,0,0,0-2.21.77,1.55,1.55,0,0,1-1.57,0,5.3,5.3,0,0,0-5.2-.24,1.52,1.52,0,0,1-1.16.07c-1.69-.88-3.51-.35-5.27-.55l0,0c-.5-.7-.17-1,.49-1.33a17.15,17.15,0,0,1,2.7-.59c0-.18,0-.3,0-.35-.39-.4-1.25-.22-1.29-1a.52.52,0,0,1,.46-.5,2.61,2.61,0,0,1,2.41.33c.36.32.58.81.94,1.13s.77.43,1.07.05-.13-.69-.43-.9c-.57-.39-1.32-.68-.61-1.56l.17-.23-.32.09a11.39,11.39,0,0,1-1.73.39c-1.24.11-1.5-.35-.94-1.56,1.84-1.31,3.79-.63,5.74-.19a6.48,6.48,0,0,0-1.09-.82,3.56,3.56,0,0,0-3-.62C110.46,14.72,109.65,14.93,109.38,15.9Zm6.31.14c.07.06.14.14.21.15a.59.59,0,0,0,.24-.07c-.08-.07-.15-.17-.24-.2S115.76,16,115.69,16Z"/><path class="cls-1" d="M248.47,73.56a11.57,11.57,0,0,0,.77,4.47c.15.52.19.79-.47.94a7.89,7.89,0,0,0-1.62.69c-1.28.6-1.41,1.42-.28,2.33.72.58,1.13.68.22,1.76-1.58,1.9-3.41,1.35-5.25,1.21-1.35-.1-2.67-.41-3.56,1-.19.29-.82.67-.36.89s.77,1.47,1.44.92c.94-.77,2.1-.14,3-.79a6.4,6.4,0,0,1,1.38-.81c2.1-.8,2.86-.26,2.9,2-1.05,1.34-1,2.09.25,3,.23.18.58.35.65.59.7,2.52,3.12,3,4.9,4.31.29.2.59.38.86.59a.61.61,0,0,1,.25.78c-.24.39-.52,0-.75-.08-.4-.22-.82-.49-1.21-.08s.12.69.18,1c.2,1.08-.83,1.54-1.22,2.39a.87.87,0,0,1-.18-1.06c.38-1-.1-1.65-.75-2.34-1.38-1.45-3.44-1.89-4.82-3.38a6.82,6.82,0,0,1-1.62-2.06c-.61-1.46-1.54-1.55-2.92-.8s-2.66,2.08-4.69,1.09c-1.37-.67-2,0-2.05,1.58-.09,1.34-1.25,1.54-2.18,1.87A3.5,3.5,0,0,0,229,99c.15,1-.75,1.61-1.16,2.06-.69.76-1.5,1.87-2.89,1.7a3,3,0,0,0-1.47.11c-1.36.54-2.69,1.34-3.68-.56-.09-.17-.55-.13-.84-.19-.44-.68.42-1.11.33-1.72a7.68,7.68,0,0,1,.9-5.14c.24-.42-.27-.9-.52-.8-1,.4-1.8-.37-2.71-.14,0-.25,0-.5,0-.74,0-.46-.84-1-.26-1.29s1.19-1,2.24-.76a19.23,19.23,0,0,0,5,.25c1-.06,2.12.84,3-.12.68-.78.3-1.92.58-2.88s-.24-1.39-.76-2.13a5.23,5.23,0,0,0-3.46-2.08c-.65-.15-.71-.63-.72-1.13,0-.65.54-.57,1-.66a4.64,4.64,0,0,1,2,.22c.72.16,1.65.22,1.1-1.07-.12-.29-.29-.54,0-.79s.6,0,.89.21c.65.47,1.3.82,1.81-.21a1,1,0,0,1,.91-.42c.66,0,.95-.36,1-1s.55-1.12,1.33-1c1.07,1.48,2.85,1.9,4.29,2.82.4.26.87.17.68-.72s-.68-2.4,0-3.14c1.07-1.13,1-2.42,1.28-3.71a.58.58,0,0,1,.14,0c2.11-.05,2.11-.05,2-2.14l1.47.07c.38.93,1,.94,1.82.54h0c0,.32-.33.66,0,.94s.61-.1.88-.28.47-.35.73-.49C247.17,71.85,247.77,72.84,248.47,73.56Z"/><path class="cls-1" d="M118.36,30.86c.58.94.35,2,.25,3,1,.1,1.76-1.38,2.67-.13.12.16.27-.13.4-.27,1-1,2.93-1.52,3.79-.52s2.17,1.15,2.73,2.33c.35.75.91.72,1.59.23a1.16,1.16,0,0,1,1.51.17c.43.42-.18.68-.22,1,1.36.1,2.47,1,3.89,1,1,0,.29.86.32,1.49.61-.41,1.13-.47,1.59.1.6.74-.45.81-.51,1.35l1.32.44c0,.58-.36.44-.62.48s-.88-.27-1,.25.31.94.76,1.13a17.56,17.56,0,0,0,3.07,1.09c1.26.26,2.38.48,2.9,1.9.27.72,1.19.27,1.76.56.3.15.72.18.76.59s-.32.47-.57.61a10.3,10.3,0,0,0-2.44,2.35c-1,1.06-1.37.53-2,0s-1.19-1.6-2.22-1.89c-.46-.14-1-1-1.31-.25-.23.58-.78,1.42-.12,2.16a2.63,2.63,0,0,0,1.59,1c1.92.16,1.55,2.21,2.6,3.12.31.27-.54,1-1.25,1.11a3.89,3.89,0,0,1-2.75-.93c-.32-.22-.66-.46-1.09-.27.84.88,1.69,1.73,2.49,2.63.21.23.53.57.23.92a.73.73,0,0,1-.84.07,15.33,15.33,0,0,1-2.32-1,6.72,6.72,0,0,0-3.26-1.3c-.66,0-1.08-.4-1.25-1.21-.38-1.8-2.53-2.61-4.26-2.06a9.73,9.73,0,0,1-3.66.22.9.9,0,0,1-.31-1.68c.7-.46,1.42-1.12,2.44-.67a3.19,3.19,0,0,0,1.91.14c.84-.15,1.46-.41.83-1.46a1,1,0,0,1,.72-1.57c1.3-.21,1.35-1.13,1.29-2a2.51,2.51,0,0,0-1.64-2.12.49.49,0,0,0-.29,0c-1,.23-.79-1.21-1.66-1.22-.7,0-1.22.87-2,.46.07-.52.47-.54.75-.71s.56-.52.2-.67c-1.59-.65-2.47-2.39-4.21-2.79-.4.65.51.73.35,1.25,0,0-.1.15-.17.15-3-.13-6.16.41-9.13-.36a31.17,31.17,0,0,1-4.07-.93c-.44-.18-1.06-.48-1-1,.12-.69.81-.28,1.25-.35s.78.2,1.18-.09c-.51-.69-1.26-.47-1.91-.52s-1.2-.1-1.29-.91a4.54,4.54,0,0,1,1.49-4.3,5.56,5.56,0,0,1,5.28-1.13l-1.18,1.3a22.47,22.47,0,0,0,3.17-1c1.91-.9,2.14-.91,3.47.64Zm-6.69.36c-1.57,1-.7,2.24-.51,3.28s1.1,1.23,2.23,1.32c-.43-.91-2.41-1.19-.88-2.51a.7.7,0,0,0-.17-.23C111.73,32.65,112,31.89,111.67,31.22ZM130.24,47a7.35,7.35,0,0,1,1.81,1.28c.61.56,1.28.06,1.67-.39s-.28-.71-.55-1C132.28,46,131.44,46.78,130.24,47Z"/><path class="cls-1" d="M76.41,38.43a9.11,9.11,0,0,0-4.58-.56,6.69,6.69,0,0,1-3.38-.22c-.27-.09-.58-.26-.58-.61s.3-.46.6-.54l2.78-.72a1.5,1.5,0,0,0-1.54,0c-1.08.6-1.85-.12-2.7-.5-.45-.21-.39-.56-.21-1a4.29,4.29,0,0,1,2.9-2.43c.71-.23,1.39-.54,2.08-.82.42-.17,1.14-.36,1.25-.06.57,1.52,1.76.68,2.68.83.38.06,1,.19,1.06.43.4,1.27,1.37.69,2.12.89.09-.71-.73-.6-.73-1.39,1.23.18,2.25.48,2.73,1.76.15.41.25.85.41,1.27s.42.39.73.28.34-.42.22-.72a18.18,18.18,0,0,1-.78-2.09c-.21-.78-.17-1.46,1-1.14.12,0,1.55.87.81-.68-.16-.34.73-.53,1.19-.64a1.63,1.63,0,0,1,1.78.43c.36.44.06.87-.24,1.19-1,1.09-.78,2.15,0,3.23.06.08.2.14.2.21-.09,2.57,2.26,2.57,3.71,3.51.33.22.69.39,1,.63a.62.62,0,0,1,.25.78c-.17.4-.5.24-.76.15a1.94,1.94,0,0,0-2.17.71c.26.35.49.23.7.1a.8.8,0,0,1,1.28.51c.22.7-.45.79-.89.94-2,.62-3.69-.13-5.4-.92-.32-.14-.5-.35-.9-.11a12.55,12.55,0,0,1-7.6,1.71c-.72-.06-1.39-.2-1.57-1.08-.14-.72-.74-.58-1.19-.52a5.59,5.59,0,0,1-3.12-.81c-.32-.16-.67-.36-.62-.75s.48-.47.8-.56a11.37,11.37,0,0,1,4-.39A5.51,5.51,0,0,0,76.41,38.43Z"/><path class="cls-2" d="M270.59,39.78c-1,.58-1.84,1.17-3.11.06-1.57-1.37-3-.64-3.85,1.35-.21.51-.54,1.41-1.78,1.15s-2.56,0-3.7-1.07c-.53-.48-1.59.16-1.83.88s-.44,1-1.3.71c-.62-.24-1.54-.47-1.53.8,0,.07-.11.22-.17.21-2.51,0-1.91,2.69-3.24,3.69a6,6,0,0,0-1.78,3.19c-.2.54-.64.91-.15,1.57.26.35.06.85-.64.8-1.37-.08-1.87.72-1.74,2s-.47,2.58.74,3.57c-.76.87.51,2.27-.77,3a1.27,1.27,0,0,0-.55,1.15c-.05.53-.09,1-.82,1-.7-1.71-1.52-.2-2.23,0-.42.1-.72.66-1.09,1a3.06,3.06,0,0,1-4.16-.29c-.65-.71.58-.84.33-1.4-.2-.37-.92.38-1-.42,0-.45-.08-.94.59-1l.13.12-.12-.13c-.87-.39-.79-1.08-.87-1.91-.3-2.89,2-3.44,3.73-4.63,1-.67,2.13-1.06,2.89-2a2.69,2.69,0,0,1,1.46-1c.19-.06.38-.09.57-.13-1.34-1.65,1.71-1,1.21-2.34S247,48,247.46,47.07a25.32,25.32,0,0,1,1.9-2.78,1.42,1.42,0,0,1,1.35-.73c.2,0,.44.37.44-.14,0-.32-.08-.59-.52-.5-.66.14-1.32.25-2.15.4a6.27,6.27,0,0,1,1.7-2c.37-.38.58-.12.8.21s.6.77,1.08.35-.31-.45-.29-.65a1,1,0,0,1,1.13-1,1,1,0,0,0,1.11-.52c.58-1.09,1.13-1.47,2-.23.14.21.49.28.74.42,0-1,2-2.37,3.4-2.44l0,0c-.61.46-.64,1,.05,1.68-.19-.74.23-1.17.25-1.7h0a5.53,5.53,0,0,0,2.65-.91c.86-.41.92-.08.92.6l-.29.29-.29.31-.3.3-.31.29-.11.15.14-.12.3-.3.29-.31.31-.29.29-.29c.85-.6.89.2,1.1.89.4-2,1.23-2.13,2.55-1a3,3,0,0,0,1.55.36,1.27,1.27,0,0,1,1.19.72c.23.64-.51.56-.79.83s-.43.25-.42.59C269.57,40,270.23,39.15,270.59,39.78Z"/><path class="cls-1" d="M365.76,124.47c.57-.64,1.35-.35,2-.44a3.19,3.19,0,0,0,1.42-.25c1.06-.65,2-.33,2.56.88.32.63,1,.76,1.49,1.15-.35.83-1.37.86-1.82,1.78-.88,1.78-1,2.59.47,4.13a5.19,5.19,0,0,0,1.11,1c2,1.1,2.29,3,2.45,5a2.66,2.66,0,0,1-1.65,3,8.49,8.49,0,0,0-3.51,2.37c-.24.26-.52.75-1,.51s-.3-.75-.13-1.18c.3-.76-.34-1-.79-1.16a2.61,2.61,0,0,1-1.8-1.66,2.54,2.54,0,0,0-1.69-1.31c-.26-.11-.7-.06-.82-.24-1.38-2.11-1.24-.29-1.5.55-.15.53-.39,1-.52,1.55a3.88,3.88,0,0,0,.34,3.15,11.67,11.67,0,0,0,3.39,3.93c1.15.91,2,1.95,1.49,3.66-.33,1.08,1.12,1.7,1.1,2.8-2.63-.22-5-3-5.34-5.24a4.58,4.58,0,0,0-1.63-3.39c-1.32-.91-1.25-2-.84-3.21a5.2,5.2,0,0,0,.14-.88c1.53-1.45,1.24-3,.14-4.93-.3-.55-.64-.95-.35-1.62a2.33,2.33,0,0,0-.6-2.79c-.76-.8-.51-3.08.32-3.28a17.33,17.33,0,0,0,2.29-1c.17-.06.35-.1.53-.15,0,1,1.52,1.24,1.25,2.47-.11.5-.48,1-.19,1.77.67-1,1.79-.53,2.46-.91a1.44,1.44,0,0,1,2.3.69,17.13,17.13,0,0,1,1.34,3.28c.23,1.35.16,1.36,1.44,1.21.05,0,.1,0,.15,0,1-.06,1.7-1.15,1-1.86-1.42-1.39-2.24-3.24-3.73-4.54-.45-.4-.9-.48-.05-1.09s-.1-1.59-.52-1.54C366.69,127,366.62,125.26,365.76,124.47Z"/><path class="cls-2" d="M365.76,124.47c.86.79.93,2.48,2.75,2.26.42,0,1.24,1,.52,1.54s-.4.69.05,1.09c1.49,1.3,2.31,3.15,3.73,4.54.72.71,0,1.8-1,1.86-.05,0-.1,0-.15,0-1.28.15-1.21.14-1.44-1.21a17.13,17.13,0,0,0-1.34-3.28,1.44,1.44,0,0,0-2.3-.69c-.67.38-1.79,0-2.46.91-.29-.78.08-1.27.19-1.77.27-1.23-1.25-1.45-1.25-2.47-.18.05-.36.09-.53.15a17.33,17.33,0,0,1-2.29,1c-.83.2-1.08,2.48-.32,3.28a2.33,2.33,0,0,1,.6,2.79c-.29.67,0,1.07.35,1.62,1.1,2,1.39,3.48-.14,4.93-.05-1.62.1-3.25-.93-4.71-.63-.87-.15-2.05-.54-3.05s-.77-1.4-1.6-.4a1.54,1.54,0,0,1-1.54.71c-.6-.13-1.05-.25-.89-1.16a4.33,4.33,0,0,0-1.92-4.9c-.89-.55-.91-1.61-1.2-2.49s-.55-1.48-1.29-.34c-.49.75-1.22.5-1.89.53a24,24,0,0,0-.67-2.88c-.19-.56-.45-1.27.27-1.75a.39.39,0,0,0,.06-.63c-.22-.26-1-.38-.52-.79a1.17,1.17,0,0,1,1.55.34c.5,1.24,1.42,1,2.34,1,.32,0,.73-.11.91.29s-.11.67-.31.94a1.62,1.62,0,0,1-.45.37.85.85,0,0,0-.34,1.28c.58.72.6-.6,1.24-.29.44.37,0,1.24.63,1.89.17-.68.32-1.26.47-1.84.06-.23.09-.66.18-.67,1.79-.21,1.43-1.76,1.71-2.82a2.67,2.67,0,0,1,2.1-2.2c.85-.19.43-1,.84-1.45.4-.2.8-.46,1.12.14.54,1,1.52,2,.66,3.26a7.65,7.65,0,0,0-.92,1.32c-.2.53-1,1.33.57,1.43.8,0,1.13,1.27,1.46,2,.44,1,2.09,2.31,3,2,.39-.13.29-.48.17-.74C364.65,124.5,365.33,124.6,365.76,124.47Z"/><path class="cls-2" d="M408.57,159c-1.08-.16-2-.1-2.88-1s-.53-1,.15-1.42a2.27,2.27,0,0,1,3.57,1.38c0,.19.13.37.18.56.47,1.87.65,1.95,2.17.8.57-.43,1.37-.56,1.73-1.33.16-.34.58-.3.93-.15,2.93,1.22,6.09,1.82,8.88,3.39,1.41.79,2.3,2.33,4,2.69.27.06.72.55.35.79-1,.66,0,1,.1,1.47.35,1.75,2.06,2.07,3,3.13.19.21.59.3.49.66s-.52.33-.76.24c-1.59-.59-3.61-.27-4.56-2.27a3.32,3.32,0,0,0-1.89-1.39,1.48,1.48,0,0,0-2,.58c-1.21,1.68-2.12,1.84-3.73.57-1.08-.85-2.21-.72-3.38-.74-.24,0-.53,0-.65-.24s.11-.44.3-.59c.35-.3,1.24-.35.92-.92-.4-.75-.25-1.84-1.27-2.23a18,18,0,0,0-2.5-.93,8.14,8.14,0,0,1-2.46-.94c-.29-.17-.65-.5-.95-.29-1.48,1-1.12-.86-1.76-1.17-.27-.13.17-.41.48-.45S408,159.31,408.57,159Z"/><path class="cls-2" d="M294.58,171.66c1.33,1.55,1.42,3.23,1.67,4.86,0,0,0,.14,0,.14-1.48.29-.92,1.57-1.18,2.45-.3,1-.53,2.1-.86,3.14-.75,2.41-1.59,4.79-2.29,7.21-.4,1.39-1.56,1.21-2.51,1.34a1.83,1.83,0,0,1-2.08-1.32c-.6-1.93-1.37-3.87.29-5.71a1.58,1.58,0,0,0,.14-1.83c-.67-1.25-.37-2.47-.17-3.75.12-.74.59-.89,1.1-1a6.11,6.11,0,0,0,2.32-.86c.84-.56,1.63-.8,1.9-2.09C293,173.64,294.28,172.93,294.58,171.66Z"/><path class="cls-1" d="M305.6,38c-1-.12-2-.22-3-.41-.44-.08-1-.13-1-.86s-.31-1.26-1-.35c-.15.18-.51.1-.5,0,.16-1.3-1.7-.68-1.66-1.77,0-.51.59-.42.9-.62.59-.37,1.62-.41,1.15-1.69-.16-.44.83-.86,1.33-1.17s1.22-.6.8-1.5a.46.46,0,0,1,.33-.59,3.12,3.12,0,0,0,2.34-3.1.41.41,0,0,1,.27-.3c2.33-.71,4.35-2.22,6.79-2.66.34-.07.65-.26,1-.16,1.9.58,3.56-.32,5.24-.92a10.39,10.39,0,0,1,2.83-.85c.5,0,1.07,0,1.27.56s-.33.87-.74,1.11a9.08,9.08,0,0,1-3.06,1.11,32.85,32.85,0,0,0-10,4.08,9.86,9.86,0,0,0-2.66,2.87A12.91,12.91,0,0,1,304.73,33c-1,.88-.65,1.65-.11,2.49a5.87,5.87,0,0,0,1.5,1.44c.29.21.84.36.62.85S306,38,305.6,38Z"/><path class="cls-1" d="M225.28,69.44a3.89,3.89,0,0,1,2.1,1.85c.8,1.26,1.81,2.35,2.13,3.89.07.35.51.13.79.12a1,1,0,0,1,1.13.54c.22.5-.21.79-.49,1.13s-1.35.56-.22,1.29c.4.26-.3.49-.54.61-1.4.73-3,.37-4.45.68s-2.63.66-4.23,1.07c.83-1.34,1.59-2.38,3.22-2.48L222,77.51c0-.58.43-.57.7-.75s.7-.38.21-1c-.32-.38-.38-1.4.78-1.18.42.08.89.15,1-.32s.48-1,0-1.36-.49-.78-.3-1.33c-.75,0-1.45.76-2.11.18-.49-.43.4-.84.15-1.44-1.84.68-1.89-1.36-1.74-1.84.32-1-.41-1.22-.9-2,1.17.37,1.7-.15,1.93-.9s.6-1.34,1.56-1.06c.55.17.89-.3,1.36-.49.21,1-.63,1.37-1.07,2a4.29,4.29,0,0,0,.51.09c.8,0,1.93-.54,2.29.36s-.31,1.69-1,2.34a2.35,2.35,0,0,0-.24.37c-.1.11-.16.23,0,.32S225.21,69.48,225.28,69.44Z"/><path class="cls-1" d="M400.85,232.05c-1.19,0-2.38,0-3.57,0-.71,0-1.09-.12-1.07-1,.05-2.48,0-5,0-7.44,0-.73.27-.92,1-.91q3.7,0,7.43,0c.72,0,.94.25.93.95q0,3.72,0,7.43c0,.73-.28,1-1,.93C403.33,232,402.09,232.05,400.85,232.05Z"/><path class="cls-2" d="M386.68,149.87c-.21,1.47-.15,2.83,1.3,3.74.57.35.45.81-.13.93-1.1.23-1.3,1-1.69,1.91a15.69,15.69,0,0,0-1.39,3.68c-.14.78-1.82,1.21-2.5.73a2.88,2.88,0,0,0-2.48-.56c-1.33.3-2.77-1-3.31-2.31-.45-1.09-1.45-1.88-1.78-3.12s-.09-1.81,1.17-1.93c.16.94.76,1.15,1.66,1.28,1.19.18,2.09-.9,3.27-.57s1.75,0,2.15-1.2C383.83,149.66,384.49,149.29,386.68,149.87Z"/><path class="cls-2" d="M250.88,14.44a3,3,0,0,0-.12-1c-.28-.53-.68-1-.19-1.6a.44.44,0,0,1,.74-.07c.57.48,2,0,1.66,1.49l-.07.12.07-.13c.27-.07.68-.4.8-.11.51,1.19,1.65,1,2.57,1.32a3.09,3.09,0,0,1,1.41,1c1.16,1.28,2.38,2.52,4.47,2.72-.77.61-1.41,1.15-2.09,1.63-.26.18-.65.43-.87-.07-.46-1.06-1.26,0-1.8-.31-.9-.49.69-1.14-.07-1.78a3.92,3.92,0,0,1-1.14-1.45c-.28-.64-1.44-.07-1.52.38-.36,2.06-2.48,2.95-3,4.89-.3,1-1.39.32-1.64-.1-.36-.62-1-.73-1.4-1.14s-1-.25-.88-.84.78-.29,1.11-.65c-.17,0-.3-.09-.44-.11-.38-.05-.92.07-.93-.47s.45-.63.87-.68a7.18,7.18,0,0,0,2.78-1.1c-.52-.81-1.45,1-1.74-.42.06-.11.14-.22.2-.33l-.11-.08-.14.38a1.21,1.21,0,0,0-.91.37,2.19,2.19,0,0,1-3.6-.29c-.58-.8.3-1.11.51-1.83-.79.34-1.45.32-1.59-.62s.75-1.06,1.35-1.14a18.49,18.49,0,0,0,2.34-.3c.4-.11.67.09.72.53-.85.26-.61.56,0,.93l.05-.89c.7-.28,1.31-.4,1.62.56a1.89,1.89,0,0,0,1,1.21l.13.12Zm.19,4a1.84,1.84,0,0,0-1.46,0A2,2,0,0,0,251.07,18.48Z"/><path class="cls-1" d="M62.85,27.54c.49-.08.85.25,1.26.41a5.93,5.93,0,0,0,3.53.5c1.47-.29,2.52.73,3.62,1.46.53.35.15.68-.24.86-.81.38-1.61.77-2.45,1.07a5.84,5.84,0,0,0-3.86,3.5,1,1,0,0,1-.91.64,3.87,3.87,0,0,0-1.56.41c-1.13.82-1.65.31-2.07-.73-.27-.67-.86-.85-1.54-1-1.47-.24-1.56-.46-.55-1.62.76-.88.7-2.14,1.54-3a.38.38,0,0,0,0-.54c-1.63-1.62.18-1.34.9-1.56A22.15,22.15,0,0,1,62.85,27.54Z"/><path class="cls-1" d="M106.71,22.19c.38.73-.13,1.18-.73,1.69a11.21,11.21,0,0,0,7.08.64,15.13,15.13,0,0,1,6.35.26c.4.08.76.21.78.74a2,2,0,0,1-.65,1.6,1.33,1.33,0,0,1-.94.36c-2.79-.55-5.5.61-8.26.31a4.69,4.69,0,0,1-2.29-.57c-.15-.1-.45-.25-.5-.2-1.12,1.09-2.16.26-3.3,0s-1.26-.9-1.18-1.81a1.94,1.94,0,0,0-2.17-2.31,7,7,0,0,1-3.38-1c-.26-.14-.56-.31-.5-.66a.69.69,0,0,1,.68-.47,4.55,4.55,0,0,1,2.92.27c1.91,1.15,4.1.64,6.11,1.16Z"/><path class="cls-2" d="M369.72,163.51c-1.68,0-2.26-1.21-3.07-1.9a15.14,15.14,0,0,1-3.48-4.32,26.4,26.4,0,0,0-5-6.8c-.44-.4-.85-.84-1.26-1.27a.87.87,0,0,1-.25-1.08c.31-.45.59.13.88.14,2.57.13,3.86,2.11,5.38,3.73.53.57,1.23.58,1.82.89,1.81.91,2.65,2.61,3.58,4.23a3.91,3.91,0,0,0,1.14,1.15c.39.29.36.31.72-.1a.53.53,0,0,1,.79,0c.36.42,1.16.92.65,1.46-.78.8-.65,1.69-.76,2.61S370.65,163.91,369.72,163.51Z"/><path class="cls-1" d="M407,107.25a3.46,3.46,0,0,0-1.75.41c.2.71,1.44.74,1.23,1.6a7.27,7.27,0,0,1-1,1.81c-.2.32-.37.8-.87.57s-.42-.63-.42-1c0-.58.85-1.5-.7-1.47-.34,0,0-.64.28-.91,1.09-.92,2.2-1.82,3.23-2.8s2.53-.69,3.64-.69c1.35,0,1.6-.75,2-1.46s.13-1.56,1.55-.86c.94.46,1.91-.92,2.31-1.89s1.06-1.68.71-2.88c-.28-1,.73-1.47,1.55-1.68,1-.25.74.74.91,1.2.45,1.19.86,2.28-.51,3.43-.71.6-.69,2.17-.68,3.18,0,2-1.48,2-2.59,2.37s-2.56.33-3.6,1.34c-.54.53-1.23.89-1.51-.48s-1.28-.53-2-.32l0,0a1.62,1.62,0,0,0-1.81.61Z"/><path class="cls-2" d="M196.83,51.36c.46-.87,2,0,1.87-1.08-.1-.76-1.29-.12-2-.33-.35-.11-.54-.34-.37-.65a2.59,2.59,0,0,1,1.85-1.54A1.51,1.51,0,0,1,200,49.17c0,.34.08.68.4.67s1.06-.22,1.06-.34c0-1.63,1.44-.84,2.1-1.16.93-.44,2.33.68,3.22-.66.66.65,2.08-.21,2.35,1.2a1.07,1.07,0,0,0,.63.75c1,.61,1,1.18.16,2s-2.27,1.16-3.41,1.69c-.71.32-1.45.56-2.15.94a1.91,1.91,0,0,1-2,.14c-1-.62-2.07-1.18-3.34-.7-.11,0-.35-.14-.47-.27s0-.33.1-.36c2.19-1-.41-.95-.31-1.48Z"/><path class="cls-1" d="M76.71,25.94c-1.34-.28-2.52.75-3.44-.4a.37.37,0,0,0-.25.11c-1.31,1.71-2.68.29-4.24.21,1.11-1.21,1.5-2.68,2.8-3.47.31-.19.65-.49.94-.27,1.43,1.1,3.58.64,4.78,2.35.45.63,1.55.56,2.68.36-1.15-.48-.32-1.72-1.25-2.3-.12-.07.76-.76,1.29-1A.63.63,0,0,1,81,22a3.91,3.91,0,0,0,1,1.61.85.85,0,0,0,1.18.29c.47-.29.92-.71,1.43-.12a1.7,1.7,0,0,1,.18,1.7,1.21,1.21,0,0,1-1.21.93c-1.08,0-2.17.14-3.24.18a4.5,4.5,0,0,0-2.16.59,6.74,6.74,0,0,1-4,1c-.49-.06-1.13-.19-1.15-.74s.65-.5,1.06-.59A5.16,5.16,0,0,0,76.71,25.94Z"/><path class="cls-2" d="M463.7,216.32c0,.57-.67,1.19-1.09,1.88-.55.87-.9,1.89-2.24,2.2-.83.19-.93,1.54-1.38,2.35-1.22,2.2-3.36,2.66-5.17,1-.5-.48-.28-1,0-1.5a5,5,0,0,1,2.35-2.18,9.1,9.1,0,0,0,4.49-4.31,4.24,4.24,0,0,1,2.83-.62C463.72,215.34,463.66,215.67,463.7,216.32Z"/><path class="cls-1" d="M92.49,29.32c.21.07.53.19.86.29s.69.31.6-.47c-.06-.51.86-.64,1.2-.48a3.45,3.45,0,0,1,1.46,1.27c.23.35-.33.63-.66.83s-1.09.27-.79.8a1,1,0,0,0,1.42,0c.22-.19.35-.52.7-.34s.29.55.26.9a3.88,3.88,0,0,1-3.42,4,1.47,1.47,0,0,1-1.38-.72,5.69,5.69,0,0,0-2.68-2c-.62-.21-1.31-.7-1-1.42.4-.87,1.1-.36,1.6,0a1,1,0,0,0,1.6-.3c.24-.37.33-.76-.33-.83-.5-.06-1.33.14-1.26-.61S91.66,29.41,92.49,29.32Z"/><path class="cls-1" d="M156.4,84.43c.59.39.85,1,.34,1.49a1,1,0,0,1-1.62-.27c-.62-1.2-1.63.59-1.73,0-.14-.94-.43-1.3-1.2-1-1.08.42-2.17.12-3.24.28-.83.11-1.13-.23-.64-1,.37-.6.13-1.64,1.26-1.69.12,0,.33-.29.33-.45,0-1.6,1.29-2.49,1.91-3.74l0,0c.37.08.78-.18,1.2.17l-1.33,2.4a1.77,1.77,0,0,1,1.61.87c.13.2.35.48.54.48,1,0,2.29-.51,1.71,1.41,0,.11,1.16-.08.58.79l0,.37Z"/><path class="cls-1" d="M386.68,149.87c-2.19-.58-2.85-.21-3.73,2.58-.4,1.24-1.06,1.51-2.15,1.2s-2.08.75-3.27.57c-.9-.13-1.5-.34-1.66-1.28.85.21,1.95,1.09,2-.78a.51.51,0,0,1,.52-.45,2.44,2.44,0,0,0,2.69-2c0-.17.35-.42.4-.39,2.08,1.12,2.17-1,2.85-1.88,1.07-1.38,1.06-1.51,2.37-.19.47.47,1,.28,1.52.44.3.1.56.25.6.58a.45.45,0,0,1-.43.51C387.67,148.93,387.47,149.89,386.68,149.87Z"/><path class="cls-1" d="M421,25.21c-.53.55.6,1.33-.14,1.59a7.24,7.24,0,0,1-3,.38,4.4,4.4,0,0,0-1.7.09,2.08,2.08,0,0,1-2.31-1.22c-.56-.94.41-1.61,1-2.21s1.33-1,2.22-.32a2,2,0,0,0,2.45.38,5.75,5.75,0,0,1,4.64.81c.23.14.58.48.28.7-.53.41-.3,1.46-1.28,1.44a2,2,0,0,1-1.72-.69C421.2,25.89,421.47,25.45,421,25.21Z"/><path class="cls-1" d="M90.14,23.58c-.16-.38-.7-.78-.23-1.18s1,.57,1.64.32c.26-.47-.61-.9-.18-1.28s.92.12,1.37.26A2.54,2.54,0,0,0,94,22c1.51-.37,1.84.69,1.92,1.73.18,2.28,0,2.56-1.85,2.83-2,.32-2.31,0-1.74-2-1.57.33-3.08.59-4.44-.48-.72-.56-1.43-1.08-1.47-2.1a.48.48,0,0,1,.46-.49c1.1-.14,1.56.68,2.07,1.41.25.37.44.79.91.94.13.1.27.17.37,0S90.18,23.67,90.14,23.58Zm1.8-.54L92,23s-.06-.1-.1-.1-.07.05-.11.08Z"/><path class="cls-2" d="M260.35,14.15c-1-.4-2.3,0-3.42-.57A12.88,12.88,0,0,0,254,12.35c-.56-.11-.71-.87-.66-1.36.08-.73.73-.15,1.08-.29a4,4,0,0,1,3.36.24c.62.31,1.12.68,1.36-.34a.55.55,0,0,1,.48-.26c1.72.78,3.61.44,5.38.85.69.16.59.61.2,1A6.84,6.84,0,0,1,260.35,14.15Zm-3-1.49.36-.13c-.11,0-.22-.15-.33-.15s-.21.1-.32.16Z"/><path class="cls-4" d="M216.21,228c.61-1.48,1.14-2.63,1.57-3.82a1.09,1.09,0,0,1,1.32-.82c.86.1.47.75.48,1.15,0,1.53,0,3.07,0,4.61,0,.35.16.83-.5.83s-.5-.47-.51-.83c0-1,0-2,0-3.46a17,17,0,0,0-1.7,3.5c-.17.34-.21.78-.74.79s-.55-.52-.7-.83a19,19,0,0,0-1.62-3.22c0,1.09,0,2.18,0,3.27,0,.32.11.73-.43.77s-.58-.37-.58-.78c0-1.64,0-3.27,0-4.91,0-.35-.16-.86.48-.87.48,0,1-.12,1.21.54C215,225.17,215.55,226.41,216.21,228Z"/><path class="cls-2" d="M395.77,98.18c.93-1.33,2.87-1.35,3.69-2.83a.26.26,0,0,1,.27-.06c1.6.86,2.48-.58,3.15-1.37s1.26-.72,2-.36a6,6,0,0,0-1.55,2.62c-.2.84-1.1,1.1-1.76,1.51-1.5.94-1.52.91-.33,2.21a4,4,0,0,1,.34.47c-.85.38-1.86.32-2.61,1a8.88,8.88,0,0,0-.89,0c-.44,0-.9.51-1.3-.14s-.11-.94.2-1.44C397.9,98.28,396.48,98.48,395.77,98.18Z"/><path class="cls-2" d="M390.54,159.65a3.28,3.28,0,0,0-.14,2.49c.22.65,0,1.24-.56,1.3-.82.09-.46-.69-.46-1.08,0-.87.1-1.69-1-2-.45-.14-.47-.53-.29-1,.56-1.42,1-2.9,1.65-4.28a2.27,2.27,0,0,1,2.2-1.19,21.45,21.45,0,0,1,2.46.5c.83.12,1.34-.78,2.25-.66-.47.92-1,1.68-2.32,1.41a5.78,5.78,0,0,0-3.22.08c-.69.26-1.5.65-.92,1.63.45.77,1,1,1.7.12.17-.23.61-.29.95-.37s1.17-.33,1.37.12c.27.61-.5.74-.89.94-.78.38-1.3.7-.54,1.63.38.47.15,1.23.56,1.8s-.18.68-.54.84-.76.43-1-.11A16.9,16.9,0,0,1,390.54,159.65Z"/><path class="cls-2" d="M462.83,205.45c1,.19,1.31,1,1.65,1.88.22.56.08,1.64,1.32,1,.34-.18.5.36.56.71.17,1.12.93,1.32,1.86,1.14.53-.11,1.21-.55,1.49,0a1.35,1.35,0,0,1-.61,1.67c-1.38.74-1.56,2.24-2.35,3.35-.26.36-.46.77-.9.94a.92.92,0,0,1-1-.12.56.56,0,0,1-.06-.8c.76-1.1,0-1.6-.8-2.07s-1.08-.7-.2-1.58a2.2,2.2,0,0,0,.25-3.17,21,21,0,0,1-1.54-2C462.28,206,462,205.53,462.83,205.45Z"/><path class="cls-1" d="M117.55,54.2c-1.56-1.39-3.09-.54-4.6.63-.31.23-.94.33-1-.1-.25-1-.87-.66-1.48-.59-.4,0-.88-.25-.43-.54,1.23-.8.83-2.13,1.22-3.18.57-1.49.82-1.61,2-.58a2.58,2.58,0,0,0,1.15.64c1.8.35,2.8,1.91,4.29,2.7.23.13.4.35.27.61C118.67,54.23,118.22,54.1,117.55,54.2Z"/><path class="cls-1" d="M396.62,142.05a11.11,11.11,0,0,0-1-2.26c-1.11-.55-.57-1.93-1.4-2.41a4.1,4.1,0,0,0-2.9-.72,1,1,0,0,1-.3,0c-.36,0-.58-.28-.49-.6.31-1-1.86-1.78-.35-2.85.48-.35.3-.69.29-1,0-.77-.37-1.71.54-2.08.56-.23,1.65-.11,1.84.44.29.85.85,1.91-.07,2.8a1.61,1.61,0,0,0-.48,2.1c.2.43.31.65.82.54a1.9,1.9,0,0,1,1.93.84,7.46,7.46,0,0,0,1.75,1.7c.67.4,1.49,1.35.26,2.29C396.85,141,396.83,141.43,396.62,142.05Z"/><path class="cls-1" d="M422.37,88c-1.23-1.1-1.23-1.1-2.32,0,.27-2.08.27-4,.37-5.89A19.65,19.65,0,0,0,420,77a5,5,0,0,1,1.14-3.82c1.43,3.22.91,6.76,2.63,9.81-.93.08-1.48-1.13-2.18-.22a3.24,3.24,0,0,0,.15,3.75C422.15,86.89,422.59,87.18,422.37,88Z"/><path class="cls-1" d="M417.59,95.69c-.45-1.63-.17-2.57,1.4-3.23.72-.3.86-1.6.82-2.57,0-.33-.28-.71.17-.9s.66.11.87.39a4,4,0,0,0,5.34,1.41,17.81,17.81,0,0,1-3.11,2.7,4.25,4.25,0,0,1-3.47.37c-.05,0-1.74-.78-.93.85C418.9,95.15,417.86,95.1,417.59,95.69Z"/><path class="cls-2" d="M220.39,73.28c.11.63.27,1.25.32,1.89.06.91-.1,1.7-1.32,1.65-.89,0-1.44.8-2.29,1-.66.15-1.23.32-1.76-.26s0-1.06.31-1.53.73-.91,0-1.6-.28-1.32.8-1.54c.49-.1,1.16-.08,1.1-1.05s.6-.73,1.13-.32c-.13.26-.25.52-.4.76s-.32.51,0,.75c.2.14.5.34.65.12C219.56,72.21,219.91,73.34,220.39,73.28Z"/><path class="cls-1" d="M71.59,19.57c-.36.75-1,.74-.9,1.46.15,1.19-1.15,1.28-1.8,1.83-.35.29-.66-.2-.73-.65,0-.28,0-.66-.44-.63a.61.61,0,0,0-.5.66c0,1.38-1.74.93-2,2,0,0-.12.06-.13.05-.93-1.07-2-.21-3.06-.3-.36,0-.39-.44-.46-.7a.59.59,0,0,1,.57-.72c1.84-.21,3-1.58,4.45-2.47a2,2,0,0,1,1.71-.2c.54.16.93.27,1.37-.35C70.23,18.69,70.7,19.91,71.59,19.57Z"/><path class="cls-2" d="M238.87,73.93c-.25,1.29-.21,2.58-1.28,3.71-.7.74-.25,2.12,0,3.14s-.28,1-.68.72c-1.44-.92-3.22-1.34-4.29-2.82a4.38,4.38,0,0,0,2.33-2.31c.44-1.14,1.76-1.45,2.8-1.9C238.11,74.3,238.59,74.34,238.87,73.93Z"/><path class="cls-2" d="M381.41,164.86c-.19.75-.93.45-1.08,1.12a7,7,0,0,1,3.5,1.1c-.49.93-1.29.34-1.76.29-2-.23-4.1.36-5.85-1.1a1.84,1.84,0,0,0-1.58-.21c-1.48.29-2.69-.42-3.95-.94-.58-.24-.41-.54-.06-.88a2.08,2.08,0,0,1,2.35-.48A14.89,14.89,0,0,0,381.41,164.86Z"/><path class="cls-1" d="M87.8,16.05c-.25-.77-.85-.87-1.52-.74s-1.23,0-1.33-.78c-.13-.95.69-.86,1.22-.86a4.84,4.84,0,0,1,3,.71,8.51,8.51,0,0,0,2.31,1c.92.26,1.6.57,1.87,1.57.09.34.6.56.25,1a1.14,1.14,0,0,1-1.33.41,2.57,2.57,0,0,1-.93-.44,4,4,0,0,0-4-.85,2,2,0,0,1-.74.05c-.36,0-.77-.08-.73-.53s.46-.26.73-.3S87.41,16.39,87.8,16.05Z"/><path class="cls-1" d="M361,15.65a16.6,16.6,0,0,1-5.53-1.83c-.36-.23-.2-.46,0-.73a3.72,3.72,0,0,1,4.76-1c.42.29.59,0,.89-.09a1.55,1.55,0,0,1,1.63.41c.55.5,0,.87-.2,1.29a2.65,2.65,0,0,0-.2.84C362.28,15.53,362.13,15.68,361,15.65Z"/><path class="cls-1" d="M362.06,18.25a19.89,19.89,0,0,1,2.59-3.72c.63-.84,1.68-.63,2.67.05.62.42,1.59.3,2.29.79.33.24,1,.19.92.79s-.52.56-.87.71C367.31,17.89,364.79,17.83,362.06,18.25Z"/><path class="cls-4" d="M346.82,228c0-2.52,0-2.58,2.63-2.31a6.52,6.52,0,0,0,2.49,0c.95-.25,1.65.21,1.66,1.33,0,.94,0,1.89,0,2.83,0,.37,0,.7-.52.69s-.43-.43-.44-.74c0-.8,0-1.59,0-2.39a.72.72,0,0,0-.84-.8c-.51,0-.88.16-.94.72a12.14,12.14,0,0,1-.12,1.48c-.14.58.51,1.68-.53,1.64s-.32-1.11-.46-1.71a5.24,5.24,0,0,1,0-1.19c0-.56-.14-1-.84-.94s-.95.24-1,.87a8.07,8.07,0,0,1-.07,1.48c-.13.53.51,1.55-.52,1.51s-.31-1-.47-1.58A3.86,3.86,0,0,1,346.82,228Z"/><path class="cls-2" d="M217,94.36c.91-.23,1.75.54,2.71.14.25-.1.76.38.52.8a7.68,7.68,0,0,0-.9,5.14c.09.61-.77,1-.33,1.72-1.91.54-1.94.52-2.09-1.45,0-.09,0-.24,0-.28-1.42-1.34-.21-2.66.11-3.91C217.17,95.74,216.71,95.07,217,94.36Z"/><path class="cls-1" d="M399,101.35c.75-.66,1.76-.6,2.61-1,1.62,1,1.36,2.73,1.77,4.21a.68.68,0,0,1-.18.49c-1.35-.13-2,1.2-3.17,1.49s-1.39-.35-1.27-1a11.73,11.73,0,0,1,.27-2.31C399.43,102.45,398.83,102,399,101.35Z"/><path class="cls-2" d="M113.69,125.09a3.9,3.9,0,0,1,4.55-1.85c2.79,1,5.51,2.18,8.24,3.31.35.14.83.31.71.82s-.62.37-1,.48c-2,.57-3.4-.66-4.79-1.69a5.8,5.8,0,0,0-2.67-1.15c-.64-.1-1.36-.05-1.84-.76-.32-.47-.87-.33-1.33,0A3.84,3.84,0,0,1,113.69,125.09Z"/><path class="cls-4" d="M177.9,226.61c0-.15,0-.29,0-.44,0-2.59,2.25-3.86,4.55-2.61a1.49,1.49,0,0,1,.77,1.18,13.42,13.42,0,0,1,.07,3.41A1.77,1.77,0,0,1,181.4,230C178.4,230.2,177.89,229.74,177.9,226.61Zm4.33.22c0-.27,0-.42,0-.56,0-1.1.08-2-1.54-2.06s-1.81.83-1.73,2.06c0,.29,0,.59,0,.89,0,1.72.31,1.94,2,1.87S182.05,227.61,182.23,226.83Z"/><path class="cls-1" d="M359.89,9.58c-.22,1.6-1.48,1.7-2.7,1.92a2.6,2.6,0,0,0-1.59.69c-1.26,1.4-1.63,1.39-2.9,0,.26-.61.91-.22,1.34-.53-.05-.45-1.27-1.12.18-1.39.16,0,.43-.3.41-.36-.53-1.47.78-1.14,1.4-1.38C356.9,8.2,356.92,8.27,359.89,9.58Z"/><path class="cls-4" d="M193.78,229.61c-1,.34-2.14.77-2.79-.32a3.74,3.74,0,0,1,0-3.72c.37-.7,1.16-.62,1.88-.51.43.07.79.4,1.34.09s.6.24.59.67c0,1.49,0,3,0,4.48a1.3,1.3,0,0,1-.91,1.38,4.21,4.21,0,0,1-2.78,0c-.37-.16-.25-.64.22-.71s1,0,1.49-.06C193.61,230.86,194,230.48,193.78,229.61Zm.08-2.13c.06-.78,0-1.49-1.17-1.49s-1.05.69-1,1.38-.2,1.66,1.07,1.66C193.79,229,193.91,228.37,193.86,227.48Z"/><path class="cls-1" d="M397.88,148.34c-1.4-.69-2.47-.88-2.64-2.38s-1.14-.37-1.75-.28c-.3,0-.55.63-.87.22a.7.7,0,0,1,.3-1c.79-.38,1.23-1.53,2.55-.87.73.36,1.37-.69,1.92-1.24.22-.22.25-.64.7-.54s.41.38.47.68c.12.69.27,1.36.37,2.05.05.34.1.87-.23.95C397.46,146.19,397.16,146.91,397.88,148.34Z"/><path class="cls-4" d="M251.22,225.25a6.15,6.15,0,0,1,0-1.15c.09-.46-.38-1.28.53-1.26s.45.76.46,1.18c0,1.64,0,3.28,0,4.91,0,.6.12,1.36-.91.82-.2-.11-.34,0-.54,0-.92.29-2,.57-2.48-.52a3.82,3.82,0,0,1,.15-3.72C249.09,224.58,250.15,225.07,251.22,225.25Zm-2.17,2.26c.07.59-.24,1.48,1,1.52s1.22-.6,1.2-1.44.08-1.62-1.16-1.6C249,226,249.05,226.71,249.05,227.51Z"/><path class="cls-4" d="M363.54,225.88c0-.61,0-1.2,0-1.78,0-.35.14-.58.51-.58s.51.2.51.56c0,2,0,4,0,5.93a.66.66,0,0,1-.21.49,7.49,7.49,0,0,1-3.56-.27,5,5,0,0,1-.11-4C361.44,225.26,362.46,225.81,363.54,225.88Zm0,2.24c-.08-.51.18-1.45-1.08-1.48-1,0-1.18.53-1.13,1.33s-.27,1.68,1,1.7C363.32,229.69,363.54,229.15,363.53,228.12Z"/><path class="cls-1" d="M423.32,214.54c1.48.76,2.67,1,4,.35.65-.33,1.34.82,1.09,1.78a4.8,4.8,0,0,1-2,2.62c-.65.47-2.27-.41-2.29-1.42A14.51,14.51,0,0,0,423.32,214.54Z"/><path class="cls-4" d="M262.48,225.38c2.41-.83,3.1-.38,3.18,1.91,0,.54,0,1.09,0,1.63s.22,1-.52,1-.51-.56-.53-.93c0-.64,0-1.29,0-1.94s-.12-1.07-.88-1.05-1.19.15-1.2,1,0,1.59,0,2.38c0,.33-.08.57-.48.57s-.53-.18-.53-.54v-5.95c0-.31.06-.6.46-.62s.55.31.55.68Z"/><path class="cls-4" d="M241.09,227.94v1.49c0,.27-.12.62-.38.47-.86-.48-1.63.16-2.45.1a1.3,1.3,0,0,1-1.34-1.45,1.34,1.34,0,0,1,1.32-1.49c.6-.08,1.71.45,1.73-.47s-1.13-.56-1.78-.68c-.32-.06-.81.12-.85-.36s.53-.46.87-.51C240.6,224.68,241.09,225.18,241.09,227.94Zm-2-.16c-.43.1-1-.23-1.12.57,0,.62.31.73.81.72s1.13-.06,1.21-.75S239.46,227.91,239.13,227.78Z"/><path class="cls-4" d="M279.19,228c0,.45,0,.89,0,1.34,0,.24,0,.63-.31.54-1-.33-1.9.24-2.86.07a1.14,1.14,0,0,1-1-1.26c0-.66,0-1.32.83-1.53a5.4,5.4,0,0,0,.58-.1c.54-.19,1.57.48,1.58-.46,0-1.12-1.12-.55-1.76-.7-.33-.09-.89.22-.87-.45s.51-.36.81-.41C278.65,224.66,279.19,225.19,279.19,228ZM277,229.06c.53,0,1-.06,1.09-.73s-.57-.51-.94-.52-1.07-.17-1.09.62S276.52,229,277,229.06Z"/><path class="cls-4" d="M225.08,228c0,.4,0,.8,0,1.19,0,.23,0,.68-.21.62-1.13-.32-2.27.49-3.37,0-.63-.32-.6-1-.55-1.57s.23-1,.82-1.07c.24,0,.5,0,.73-.1.5-.16,1.43.41,1.45-.45,0-1.06-1-.58-1.6-.72-.37-.09-1,.29-1-.45,0-.58.61-.38,1-.42C224.62,224.73,225.07,225.22,225.08,228Zm-2-.27c-.41.13-1.13-.23-1.1.71,0,.58.41.57.81.58.56,0,1.13,0,1.23-.72S223.44,227.89,223,227.77Z"/><path class="cls-4" d="M355,228.09c0-2.07.68-2.63,2.73-2.39,1.29.15,1.42,1,1.44,2,0,1.28-.95.6-1.49.76a6,6,0,0,1-.74,0c-.35,0-.87-.16-.88.46s.43.74.9.77a8.44,8.44,0,0,0,1.33,0c.31,0,.61-.1.66.34s-.18.45-.51.55C356.18,231.23,355,230.38,355,228.09Zm2-.3c.4-.14,1.09.29,1.13-.53,0-.59-.45-.65-.93-.66s-1,0-1.12.65C356,228.06,356.64,227.65,357,227.79Z"/><path class="cls-2" d="M133.89,130c-.21,0-.63,0-.87.12-1.54,1.14-3.26.05-4.85.42-.32.08-.79,0-.77-.45s.5-.43.83-.4c1.11.07,1.71-.07.76-1.28-.39-.5,0-1,.53-.8,1.6.5,3.37.16,4.87,1,.38.22,1.08.39.88,1S134.56,130.24,133.89,130Z"/><path class="cls-4" d="M382.5,228.16c0-2.08.69-2.69,2.73-2.46a1.84,1.84,0,0,1,1.46,2.44c-.14.41-.43.34-.7.34-.55,0-1.09,0-1.64,0-.34,0-.73-.05-.72.49a.63.63,0,0,0,.61.7,12.65,12.65,0,0,0,1.63,0c.32,0,.6,0,.64.39s-.17.4-.43.49C384,231.34,382.5,230.32,382.5,228.16Zm2.05-.37c.38-.17,1.09.33,1.13-.49,0-.55-.42-.72-.91-.7s-1-.08-1.14.62S384.18,227.68,384.55,227.79Z"/><path class="cls-2" d="M242.47,71.83,241,71.76a3.36,3.36,0,0,1-1-2.51c0-.68-.24-2.06,1.39-1.65.39.1.54-.49.78-.76s.45-.88,1-.64.29.69.15,1a1,1,0,0,0,.14,1.09c.38.42.34.77-.15,1.09s-.52.56-.11,1c1.16,1.15.1,1-.63,1l-.13-.12.12.13Z"/><path class="cls-4" d="M242.56,227.36c.14-.64-.26-2,.19-2.06a11.6,11.6,0,0,1,2.81-.27c.67.13,1.11.44,1.14,1.15,0,1,0,2.09.06,3.13,0,.41-.08.65-.57.62s-.45-.27-.44-.59c0-.65,0-1.29,0-1.94s.15-1.33-.86-1.41-1.24.59-1.27,1.39c0,.64,0,1.29,0,1.93,0,.32-.05.59-.46.61s-.56-.26-.56-.65C242.57,228.67,242.56,228.08,242.56,227.36Z"/><path class="cls-4" d="M376.54,228.57c0,.35,0,.7,0,1,0,.67,0,1.31-.94.81-.5-.27-.8.21-1.23.23-.95,0-1.87,0-2-1.19s.43-1.79,1.66-1.69c.24,0,.49,0,.74,0,.4,0,.71-.09.67-.56a.61.61,0,0,0-.7-.6,11.76,11.76,0,0,1-1.19,0c-.3,0-.78.18-.82-.35s.5-.49.86-.53C376.09,225.42,376.54,225.85,376.54,228.57Zm-2-.15c-.49,0-1.08-.14-1.13.61s.46.78,1,.76,1.11-.19,1.1-.9S374.84,228.53,374.51,228.42Z"/><path class="cls-4" d="M331.4,228.17c0-2.48,0-2.47,2.52-2.49.94,0,1.54.32,1.58,1.33s.06,1.87.11,2.81c0,.45-.05.78-.62.76s-.51-.33-.51-.71c0-.74,0-1.49,0-2.23,0-.54-.08-1-.78-1s-1.21.15-1.27.92,0,1.58-.07,2.37c0,.28.08.61-.38.65s-.6-.21-.58-.63C331.42,229.36,331.4,228.76,331.4,228.17Z"/><path class="cls-4" d="M256,226.54c0-3.2.88-3.4,3.71-3.2.34,0,.57.14.58.52s-.29.44-.61.43l-.89,0c-1.22-.11-1.73.48-1.67,1.66a12,12,0,0,1,0,1.34c-.1,1.37.55,1.85,1.87,1.79.41,0,1.27-.49,1.24.43s-.85.47-1.32.48C256.44,230.05,256,229.49,256,226.54Z"/><path class="cls-4" d="M198.89,227.26c.09-.61-.11-2,.11-2,1,.07,2-.5,3-.24a1.16,1.16,0,0,1,.94,1,19.72,19.72,0,0,1,.14,3.26c0,.44-.17.63-.61.61s-.51-.36-.51-.72V227c0-.54-.07-1-.78-1s-1.23.09-1.27.9,0,1.58-.06,2.37c0,.37,0,.7-.54.66s-.43-.31-.43-.61Z"/><path class="cls-4" d="M229,227.42v-1.34c0-.7,0-1.46,1-.73.06,0,.19.07.24,0,.89-.53,2-.75,2.55.13.77,1.19.37,2.7.38,4.08,0,.31-.3.33-.56.34s-.53-.17-.53-.54c0-.74,0-1.48,0-2.23s0-1.19-.9-1.17-1.19.38-1.19,1.17l0,2.08c0,.34.05.7-.5.69s-.46-.4-.46-.73C229,228.61,229,228,229,227.42Z"/><path class="cls-4" d="M325.76,228.13c0-2.14.28-2.45,2.19-2.45s2.18.4,2.17,2.51-.42,2.5-2.23,2.49S325.75,230.27,325.76,228.13Zm3.3.06c0-.86.11-1.62-1.15-1.61s-1.16.77-1.17,1.59,0,1.61,1.19,1.61S329.11,229,329.06,228.19Z"/><path class="cls-4" d="M379.15,229.77c.48-.11,1.29.26,1.32-.55s-.83-.52-1.29-.63c-.71-.16-1.38-.27-1.45-1.19-.05-.7.07-1.39.79-1.59a3.84,3.84,0,0,1,2.61.1c.08,0,.12.27.11.4,0,.36-.32.28-.55.32-.67.11-1.8-.48-1.88.5-.07.76,1.1.55,1.73.64a1.11,1.11,0,0,1,1,1.11,1.35,1.35,0,0,1-.59,1.56,4.56,4.56,0,0,1-2.64.13.44.44,0,1,1,.11-.87Z"/><path class="cls-4" d="M323.71,229.61c.32.21,1-.32,1,.47s-.64.53-1,.57c-2.38.3-3.22-.45-3.27-2.81,0-.5,0-1,0-1.49a2.67,2.67,0,0,1,3.85-2.34c.26.11.43.26.42.53s-.27.48-.61.42a3.44,3.44,0,0,0-.45-.05c-1.82,0-2.07.2-2.09,2,0,.39,0,.79,0,1.19.13,1.58.13,1.58-.08,1.55A3,3,0,0,0,323.71,229.61Z"/><path class="cls-4" d="M269.67,227.5c0-2.42.4-2.76,2.8-2.5.73.08,1.27.39,1.32,1.16.07,1.09,0,2.18.08,3.28,0,.38-.18.5-.55.49s-.51-.22-.51-.56c0-.75,0-1.49,0-2.24,0-.54,0-1.11-.81-1.14s-1.24.26-1.27,1.08-.07,1.48-.08,2.23c0,.4-.09.66-.57.63s-.39-.37-.39-.65C269.67,228.69,269.67,228.09,269.67,227.5Z"/><path class="cls-4" d="M389.08,229.73a6.31,6.31,0,0,0,.87,0c.29,0,.6-.11.58-.53s-.27-.48-.59-.5l-.15,0c-1.17-.15-2.43-.28-2-2s1.75-.87,2.74-1c.38,0,.69.06.64.56s-.4.29-.66.33c-.61.11-1.68-.43-1.71.5s1.1.51,1.71.66.91.35.94.95.17,1.39-.54,1.72a4.7,4.7,0,0,1-2.78.09c-.34-.06-.35-.35-.26-.57C388.16,229.33,388.68,229.92,389.08,229.73Z"/><path class="cls-1" d="M118.37,30.88c-.08-1.15.45-1.44,1.49-1.14,1.36.38,2.87.17,4.06,1.15.3.24.76.42.61.89s-.59.24-.9.27a4.62,4.62,0,0,0-1.18,0c-1.6.57-3,.72-3.73-1.26,0,0-.24,0-.36,0Z"/><path class="cls-4" d="M339.76,224c0,.34-.41.25-.67.32-.48.12-.58.48-.59.91s.4.45.73.48.5,0,.54.36,0,.54-.36.52c-1.18-.1-.91.73-.92,1.38s0,1.29,0,1.94c0,.43-.14.66-.59.63s-.44-.32-.43-.63c0-.65,0-1.3,0-1.94s.4-1.37-.72-1.41c-.29,0-.22-.6-.19-.61,1.19-.14.79-1.24,1.15-1.87s1.08-.59,1.72-.57C339.64,223.54,339.76,223.71,339.76,224Z"/><path class="cls-2" d="M337.74,142.53a4.21,4.21,0,0,1,1.89,2.75,2,2,0,0,1-1.37,2.21.87.87,0,0,1-1.17-.63,6.75,6.75,0,0,1-.07-3.78A.62.62,0,0,1,337.74,142.53Z"/><path class="cls-4" d="M368.14,228.2c0-2.14.86-2.91,2.77-2.49.32.07.55.12.55.52s-.34.42-.61.37c-1.64-.27-1.79.72-1.73,2,.06,1.09.72,1.27,1.62,1.19.3,0,.72-.24.76.35s-.41.47-.71.53C368.93,231,368.14,230.28,368.14,228.2Z"/><path class="cls-1" d="M97.76,18.36A2.6,2.6,0,0,1,95.06,16c0-.81.45-.75,1-.54a5,5,0,0,0,2.78.77c.35-.06.79.17.59.59s.43,1-.39,1.21C98.48,18.18,98,18.31,97.76,18.36Z"/><path class="cls-1" d="M430.15,27.58a7.84,7.84,0,0,1-3.65-1.15c-.31-.16-.53-.32-.35-.65s.42-.68.8-.46c1.34.77,2.82.5,4.24.7a3.6,3.6,0,0,1,.86.21c.27.1.62.25.53.6,0,.17-.34.36-.55.41C431.41,27.39,430.78,27.47,430.15,27.58Z"/><path class="cls-1" d="M100.7,27.52a13.19,13.19,0,0,1-3.2-.74c-.37-.16-.75-.29-.35-.84a2.59,2.59,0,0,1,4.26.22C101.88,27,101.67,27.47,100.7,27.52Z"/><path class="cls-4" d="M343.7,225.74c.05,0,.13,0,.14,0,.59.9,1.56-.69,2,.22s-1,.65-1.26,1.27a6.66,6.66,0,0,0-.27,2.46c0,.37.15.85-.5.86s-.52-.46-.52-.84c0-1.08,0-2.17,0-3.25C343.24,226.15,343.16,225.74,343.7,225.74Z"/><path class="cls-1" d="M79.41,17.91c-.29.52-.74.61-.89,1.18-.31,1.13-2.69,1.43-3.47.52-.56-.65-.35-1.18.42-1.5A10.06,10.06,0,0,1,79.41,17.91Z"/><path class="cls-4" d="M206.3,230.35c-.25,0-.21-.29-.09-.6q1.18-3.27,2.38-6.52a.52.52,0,0,1,.68-.4c.36.12.22.39.14.61-.78,2.17-1.58,4.34-2.36,6.51C207,230.22,206.79,230.36,206.3,230.35Z"/><path class="cls-1" d="M124.41,46c-.87,0-1.43-.38-1.36-1.15a1.66,1.66,0,0,1,2-1.57c.93,0,1.56.47,1.47,1.46C126.35,46.08,125.06,45.6,124.41,46Z"/><path class="cls-4" d="M184.66,227.51v-.59c0-1.54.79-2.19,2.3-1.89a.37.37,0,0,1,.35.38c0,.23.09.57-.23.62-1.72.25-1.21,1.62-1.41,2.66-.08.45.38,1.27-.57,1.2-.79,0-.35-.77-.42-1.19A6.74,6.74,0,0,1,184.66,227.51Z"/><path class="cls-3" d="M390.21,123.23a2.51,2.51,0,0,1,.28-1.29c.46-.78,1.11-1.79,1.95-1.41s.05,1.36-.15,2.06a4.92,4.92,0,0,1-.51,1.06c-.23.41-.33,1.14-.85,1C390.26,124.56,390.23,123.83,390.21,123.23Z"/><path class="cls-1" d="M74.34,16.85c1.61-.5,3.1-1.49,4.9-.92.41.13.77.33.73.81a.62.62,0,0,1-.72.6C77.64,16.94,76,17.33,74.34,16.85Z"/><path class="cls-1" d="M473.65,37.7c-.8-.09-1.5-.41-2.24-.07a.52.52,0,0,1-.71-.34c0-.16.19-.43.36-.59a4.51,4.51,0,0,1,4.35-.37c.2.14.46.25.43.55s-.33.33-.55.4C474.73,37.45,474.15,37.58,473.65,37.7Z"/><path class="cls-1" d="M393.42,142.23c.41-.71.22-1-.68-1.2-.61-.14-.5-.95-.3-1.43s.74-.31,1.14-.1c1.52.8,2,2.17,1.08,3.25-.24.29-.48.71-1,.46S393.37,142.64,393.42,142.23Z"/><path class="cls-1" d="M18.79,68.12c-.45.06-.83,0-1-.47a.67.67,0,0,1,.5-.91c.89-.29,1.26-1.2,2-1.73.25-.19.51-.55.85-.09.22.3.42.63-.09.81-.73.27,0,.64-.09.92A2.46,2.46,0,0,1,18.79,68.12Z"/><path class="cls-1" d="M242.24,97.17a9.43,9.43,0,0,1,0,1.19,1.19,1.19,0,0,1-1.18.93c-.57.06-.51-.57-.54-1s0-.68-.08-1-.65-.86,0-1.13a1.88,1.88,0,0,1,1.56-.28C242.63,96.17,242.26,96.72,242.24,97.17Z"/><path class="cls-3" d="M377.66,127.91c-.48,1.94-1.13,2.61-2.24,2.39-.65-.14-1-.63-.83-1.17C375.08,127.5,376.43,127.86,377.66,127.91Z"/><path class="cls-4" d="M234.71,226.2c0-.89,0-1.78,0-2.68,0-.34,0-.73.5-.72s.45.32.45.62c0,2,0,4,0,6,0,.34-.09.56-.5.55s-.46-.28-.46-.6Z"/><path class="cls-2" d="M430.78,164.55a10.54,10.54,0,0,1-1.13-.34c-.36-.14-.91-.25-.81-.72.14-.64.68-.36,1.1-.27a3.13,3.13,0,0,0,3.31-1.09c.18-.22.36-.57.68-.35s.11.53,0,.8C433.3,163.92,432.08,164.27,430.78,164.55Z"/><path class="cls-1" d="M249.89,100.54c-.84.54.11,2.09-1,2.11-.66,0-1.39-.79-2.2-1-.33-.1-.67-.32-.52-.75a.65.65,0,0,1,.72-.41C247.84,100.83,248.8,100.4,249.89,100.54Z"/><path class="cls-3" d="M267.11,227.4c0-.59,0-1.18,0-1.77,0-.38.17-.54.53-.55s.53.14.53.53c0,1.28,0,2.57,0,3.85,0,.29-.13.46-.43.47s-.6-.06-.6-.46c0-.69,0-1.38,0-2.07Z"/><path class="cls-4" d="M340.71,228.2v-1.93c0-.35.1-.55.5-.54s.55.15.55.53c0,1.23,0,2.47,0,3.71,0,.46-.21.61-.63.61s-.45-.28-.45-.6C340.71,229.39,340.71,228.79,340.71,228.2Z"/><path class="cls-3" d="M188.23,227.52c0-.59,0-1.18,0-1.77,0-.4.07-.69.55-.67a.48.48,0,0,1,.52.56c0,1.23,0,2.47,0,3.7,0,.33-.09.56-.48.59s-.58-.23-.57-.63C188.24,228.71,188.23,228.12,188.23,227.52Z"/><path class="cls-3" d="M227.58,227.5c0,.59,0,1.18,0,1.77,0,.39-.06.69-.55.66s-.5-.23-.5-.57c0-1.23,0-2.46,0-3.7,0-.35.12-.56.49-.58s.59.22.57.64C227.56,226.31,227.58,226.91,227.58,227.5Z"/><path class="cls-3" d="M196.29,227.39c0-.59,0-1.18,0-1.77,0-.38.18-.54.53-.53s.54.15.54.53c0,1.23,0,2.47,0,3.7,0,.42-.16.64-.61.61s-.44-.3-.44-.61Z"/><path class="cls-1" d="M421,31.51a7.48,7.48,0,0,1-1.21-.13c-.51-.13-1.34-.07-1.37-.64s.79-.77,1.34-1a1.8,1.8,0,0,1,1.43.17c.55.28,1.4.49,1.21,1.25S421.47,31.36,421,31.51Z"/><path class="cls-1" d="M220.39,73.28c-.48.06-.83-1.07-1.43-.15-.15.22-.45,0-.65-.12-.35-.24-.19-.49,0-.75s.27-.5.4-.76.53-.24.78-.38c.88-.5,1.38.08,1.78.7C221.9,72.82,220.73,72.82,220.39,73.28Z"/><path class="cls-1" d="M257.18,70.86c.85.23,2.34-.14,2.21,1.17s-1.5.45-2.3.55a6.88,6.88,0,0,1-1.86-.33c0-.43.26-1,.64-.67C257,72.37,256.91,71.38,257.18,70.86Z"/><path class="cls-1" d="M408.75,106.68c.51.13,1.36-.35,1.43.56a1,1,0,0,1-1.31,1.15c-.05,0-.1,0-.15,0-.61,0-.64,1.35-1.51.62-.6-.5.15-1.23-.24-1.78v0c.66,0,1.48.39,1.81-.61Z"/><path class="cls-2" d="M400,167.16c-1.8.79-3.33,1.34-4.42,2.6a.57.57,0,0,1-.9-.15.65.65,0,0,1,.36-1C396.47,168,397.63,166.47,400,167.16Z"/><path class="cls-1" d="M309.59,10.88c-1.46.44-2.55,1.33-4,1-.29-.07-.62-.11-.65-.48,0-.12.11-.34.19-.35C306.56,10.82,307.87,9.64,309.59,10.88Z"/><path class="cls-1" d="M49.71,75.86c0,.69-.25.77-.62.53a4,4,0,0,1-1.67-2c-.17-.45,0-.74.44-1a.71.71,0,0,1,1,.24C49.27,74.41,49.22,75.31,49.71,75.86Z"/><path class="cls-2" d="M399.8,154.28c.11-.55.22-1.43.74-1.2s1.34.64,1.34,1.48-.94.95-1.3,1.52C400,155.63,400,154.9,399.8,154.28Z"/><path class="cls-1" d="M297.19,41.37c-1,.49-1.63,1.58-2.77.76a.7.7,0,0,1-.05-1.16C295.28,40.17,296.1,40.66,297.19,41.37Z"/><path class="cls-2" d="M385.76,168.15c-.51,0-1.1,0-1.1-.7s.64-.42,1-.49c.76-.14,1.52-.5,2.3,0,.22.14.47.25.37.53a.66.66,0,0,1-.42.34C387.22,168,386.49,168,385.76,168.15Z"/><path class="cls-1" d="M101.56,18.73a3.58,3.58,0,0,1-4.06.6A6,6,0,0,1,101.56,18.73Z"/><path class="cls-2" d="M244.29,72.37c0-.62.67-1.19.09-1.88-.18-.21.07-.58.37-.71a1.5,1.5,0,0,1,1.29,0c.35.17.09.54.05.8-.16,1-.63,1.77-1.8,1.81Z"/><path class="cls-2" d="M395,167a7,7,0,0,1-4.38.84c-.32,0-.81.09-.8-.39s.45-.54.79-.49A20.77,20.77,0,0,0,395,167Z"/><path class="cls-1" d="M386.51,144.06c.63-1.37,1.87-2.3,2.58-3.62C389.26,142.33,387.43,142.9,386.51,144.06Z"/><path class="cls-2" d="M454,186.71a6.51,6.51,0,0,1-3.58-2.55A6.7,6.7,0,0,1,454,186.71Z"/><path class="cls-1" d="M85,18.52a2.26,2.26,0,0,1,1.56,1.53c.08.36-.25.55-.57.46a2,2,0,0,1-1.53-1.6C84.39,18.62,84.63,18.49,85,18.52Z"/><path class="cls-1" d="M140.85,81a5.73,5.73,0,0,1,4.21,1.42A6,6,0,0,1,140.85,81Z"/><path class="cls-2" d="M402.54,159.48a2.42,2.42,0,0,1,1.3.24c.35.2.81.41.66.86-.21.64-.65.16-.94,0a4,4,0,0,0-1.45-.23c-.39,0-1.05.22-1-.49,0-.53.62-.36,1-.4A3.2,3.2,0,0,1,402.54,159.48Z"/><path class="cls-1" d="M117.1,55.45c-.51,1.1-1.08,1.74-2.13,1.65-.32,0-.63-.35-.44-.61A2.51,2.51,0,0,1,117.1,55.45Z"/><path class="cls-2" d="M260.37,104.47l3.45.2C263,105.76,261.9,105.77,260.37,104.47Z"/><path class="cls-1" d="M105.57,19c.5,0,1.05.11,1,.65s-.68.63-1.18.65-.91-.09-.89-.56S105.1,19,105.57,19Z"/><path class="cls-1" d="M241.78,92.71a1.28,1.28,0,0,1,.3,1.15c-.08.45.06,1-.49,1.28-.31.13-.5-.19-.64-.45a1.05,1.05,0,0,1,.19-1.45Z"/><path class="cls-1" d="M1.9,62.43c-.39-.18-1.08-.12-1.06-.75a.63.63,0,0,1,1-.46c.41.26,1.29-.25,1.25.62C3.06,62.47,2.44,62.45,1.9,62.43Z"/><path class="cls-1" d="M379.81,29.08c-.35-.06-.92,0-.82-.4a1.39,1.39,0,0,1,1.39-.85c.38,0,.95,0,.85.53C381.08,29.07,380.34,29,379.81,29.08Z"/><path class="cls-2" d="M273.59,104.59c.36,0,.8-.06.74.36A1.26,1.26,0,0,1,273,106c-.42,0-.88-.17-.81-.62C272.29,104.55,273.14,104.82,273.59,104.59Z"/><path class="cls-2" d="M177.25,237.81a2.56,2.56,0,0,1,2.23.46.52.52,0,0,1,.2.85c-.27.36-.58.28-.88,0Z"/><path class="cls-2" d="M138.29,129.64c.45,0,1.07,0,1.08.51s-.64.66-1.12.64-1-.14-1-.68S137.92,129.73,138.29,129.64Z"/><path class="cls-1" d="M68.67,23.35c-.66,1.42-.8,1.51-2.27,1.45A4.35,4.35,0,0,1,68.67,23.35Z"/><path class="cls-2" d="M146.14,234c-.37-.09-.64-.32-.48-.62a1.59,1.59,0,0,1,1.46-1c.27,0,.46.16.35.47A2.14,2.14,0,0,1,146.14,234Z"/><path class="cls-2" d="M149.67,233.18c-.22.6-.8.76-1.38.88-.24.05-.62,0-.54-.31.18-.71.82-.95,1.46-1.07C149.49,232.62,149.66,232.82,149.67,233.18Z"/><path class="cls-2" d="M124.69,130.6a2.71,2.71,0,0,1-2.75-.46A2.77,2.77,0,0,1,124.69,130.6Z"/><path class="cls-2" d="M439.14,164.54c0,.36-.08.6-.36.57-.75-.07-1-.69-1.24-1.28a.27.27,0,0,1,.26-.4A1.78,1.78,0,0,1,439.14,164.54Z"/><path class="cls-1" d="M92.42,11.6a1.81,1.81,0,0,1,1.91.63c.12.16,0,.41-.24.44C93.28,12.79,92.87,12.27,92.42,11.6Z"/><path class="cls-1" d="M87.59,25.84a.54.54,0,0,1-.6.53c-.45,0-.79-.17-.78-.68a.5.5,0,0,1,.57-.54A.77.77,0,0,1,87.59,25.84Z"/><path class="cls-1" d="M390.61,137.15c.7.33,1.32.55,1.36,1.36a.6.6,0,0,1-.46.2C390.77,138.51,390.61,138,390.61,137.15Z"/><path class="cls-1" d="M120.72,57.34c-.13.41-.28.88-.78.94s-.53-.37-.52-.71a.68.68,0,0,1,.72-.75C120.48,56.82,120.72,56.93,120.72,57.34Z"/><path class="cls-2" d="M388.51,168.88a2.3,2.3,0,0,1,2,.16.45.45,0,0,1,.26.6c-.14.29-.41.19-.64.08Z"/><path class="cls-2" d="M469.89,180.56a.66.66,0,0,1-.65.65c-.39,0-.86-.1-.91-.53s.42-.57.81-.59S469.85,180.07,469.89,180.56Z"/><path class="cls-2" d="M398.85,159.8c.4,0,.83.12.84.63a.53.53,0,0,1-.62.5.88.88,0,0,1-.91-.8C398.14,159.72,398.57,159.83,398.85,159.8Z"/><path class="cls-1" d="M253.35,67.75c-.11-.94.11-1.49.75-1.8.07,0,.31.1.31.16C254.45,66.83,254,67.24,253.35,67.75Z"/><path class="cls-1" d="M72.3,18.16c.6-.16,1.17-.31,1.64.18a.34.34,0,0,1-.23.56A1.11,1.11,0,0,1,72.3,18.16Z"/><path class="cls-1" d="M4.19,72.73a1.7,1.7,0,0,1,2-.72C5.54,72.68,4.81,72.56,4.19,72.73Z"/><path class="cls-2" d="M105.14,156.09c0,.4-.19.67-.56.6s-.55-.5-.54-.91,0-.68.4-.63S105,155.78,105.14,156.09Z"/><path class="cls-2" d="M260.06,64.3c-.47.69-.76,1.22-1.46,1.08-.2,0-.26-.28-.19-.48C258.67,64.16,259.27,64.29,260.06,64.3Z"/><path class="cls-3" d="M188.86,222.79c.48,0,.53.34.5.7s-.31.44-.62.43c-.48,0-.53-.33-.5-.7S188.55,222.78,188.86,222.79Z"/><path class="cls-3" d="M197.42,223.4c0,.36-.18.51-.53.52s-.61-.19-.6-.61a.48.48,0,0,1,.54-.52C197.26,222.77,197.45,223,197.42,223.4Z"/><path class="cls-1" d="M100.43,42.21l-.34.15c0-.09-.09-.22-.06-.25a1.21,1.21,0,0,1,.33-.2Z"/><path class="cls-2" d="M247.82,43.58s0-.1,0-.1.18.06.09.14S247.86,43.6,247.82,43.58Z"/><path class="cls-2" d="M198.65,39.21A3.28,3.28,0,0,1,199,39l.07.1-.37.12Z"/><path class="cls-2" d="M260.11,37.41l.18-.37c0,.13.09.26.13.39h0a1.51,1.51,0,0,1-.3,0Z"/><path class="cls-1" d="M424.12,211c-.11.13-.23.19-.34,0s.1-.14.16-.21Z"/><path class="cls-2" d="M158.66,199.78l-.07.13.07-.13Z"/><path class="cls-2" d="M159,199.5l-.32.28h0l.28-.32Z"/><path class="cls-1" d="M380.57,192.45c0-.13-.1-.33-.06-.36s.2.06.25.17A1.7,1.7,0,0,1,380.57,192.45Z"/><path class="cls-2" d="M385.51,81.25c-.41.9-.78,1.82-1.23,2.7-.24.46-.2.83.28.9.77.13,1.75.43,2.3.09,1.68-1,2,.71,2.85,1.25.53.34.05.7-.42.66a6.44,6.44,0,0,0-4.8,1.6,5.3,5.3,0,0,1-4.65,1.26c-1.18-.34-1.55.12-1.21,1.28.09.27.29.5.1.83-.42.75-3.29,2.23-4.24,2.07a4.9,4.9,0,0,0-4.08.9c-.65.52-1.17.2-1.86,0-3-.72-6-1.77-9.16-1.32a1.69,1.69,0,0,1-2-1.2,4.77,4.77,0,0,0-4.11-2.89c-2-.3-2-.28-1.67-2.13a3.31,3.31,0,0,0-1.79-2.91,3.46,3.46,0,0,1-2.3-1.93c1.79-.7,3.37-1.81,5.1-2.63a2.79,2.79,0,0,1,3.22.6c1.06,1,2.37.69,3.56.68.8,0,1.34-.62.77-1.58-.27-.45-.35-1,.19-1.3s1-1.18,1.89-.77a11.76,11.76,0,0,0,2.23.77A1.64,1.64,0,0,1,366,79.55a1.83,1.83,0,0,0,2.59,1,4.82,4.82,0,0,1,4.9.71c2.36,1.92,4.85,1.45,6.91.28C382.26,80.41,383.79,81,385.51,81.25Z"/><path class="cls-5" d="M375.88,70.11c.33,2.75-.75,4.87-2.61,5.75a5.22,5.22,0,0,0-2.5,1.71c-.43.67-1.45.73-2.34.66C371.3,76,374.33,74,375.88,70.11Z"/><path class="cls-5" d="M468.94,51.78c-.49.35-.85.47-1.21.2a.34.34,0,0,1,0-.35C468.1,51.35,468.45,51.44,468.94,51.78Z"/><path class="cls-5" d="M272.93,46.71c-.22-.1-.47-.34-.31-.49s.37.13.52.29A1.34,1.34,0,0,1,272.93,46.71Z"/><path class="cls-5" d="M474.14,48.78l.09-.14s0,.07,0,.08l-.11,0Z"/><path class="cls-5" d="M444.79,58.53l.31-.13c0,.11-.09.21-.13.32Z"/><path class="cls-5" d="M251.49,67.29l-.13.18-.08-.09.16-.14Z"/><path class="cls-5" d="M308.87,88.87c-.61.27-.19,1-.79,1.32-.27-.87-.41-1.75.45-2.07.43-.16,1.28-.78,1.75.07s1.31,1.49.34,2.46a1.12,1.12,0,0,1-1.17.44c-.52-.17-.33-.64-.36-1S309.19,89.29,308.87,88.87Z"/><path class="cls-5" d="M335.91,86.69c-1.18.85-2.44.54-3.64.52-1.47,0-2.55.34-2.72,2.14-.9-1.64-.45-2.52,1.32-2.64S334.23,86.69,335.91,86.69Z"/><path class="cls-5" d="M274.16,172.18a3.34,3.34,0,0,0-.24-2.91.47.47,0,0,1,.15-.65c.36-.14.54.17.64.45a4.54,4.54,0,0,1,.32,1.28,8.39,8.39,0,0,0,.51,3.61c.1.21.16.53-.19.59a.6.6,0,0,1-.46-.26A3.56,3.56,0,0,1,274.16,172.18Z"/><path class="cls-5" d="M265.17,96.75c0-.17,0-.23,0-.26.52-.78,1.29-.59,2-.52a.28.28,0,0,1,.24.42c-.45.69-1.16.35-1.76.42A2,2,0,0,1,265.17,96.75Z"/><path class="cls-5" d="M272.46,113.16l1,2.19A1.69,1.69,0,0,1,272.46,113.16Z"/><path class="cls-5" d="M148.8,73.23c-.27,1-1.26.65-1.87,1a2,2,0,0,1,1.89-1Z"/><path class="cls-5" d="M24.15,59.76H22.78C23.31,58.79,23.76,59.67,24.15,59.76Z"/><path class="cls-5" d="M103.06,53.65,102,53.43a.85.85,0,0,1,1.16.09A1.13,1.13,0,0,1,103.06,53.65Z"/><path class="cls-5" d="M63.94,50.94,64,51s-.06.07-.09.06-.06,0-.08-.07Z"/><path class="cls-5" d="M139.6,84.63l-.14.15-.09-.07.17-.14Z"/><path class="cls-5" d="M132.12,235.61c.06.19.11.38.18.55.15.37,1.11.43.42,1.11-.56-1.05-.54.21-.8.2a.37.37,0,0,1-.32-.54c.24-.44,0-1,.47-1.36Z"/><path class="cls-5" d="M130.71,234.7a1.71,1.71,0,0,1-1.87,0C129.45,234.28,129.92,234.34,130.71,234.7Z"/><path class="cls-5" d="M130.78,235.4c.22,0,.33.08.27.23a.44.44,0,0,1-.29.22c-.14,0-.3,0-.23-.21S130.71,235.46,130.78,235.4Z"/><path class="cls-5" d="M132.07,235.57c.06-.3.17-.56.53-.53.07,0,.19.12.18.15-.09.34-.39.37-.66.42Z"/><path class="cls-5" d="M127.34,228.74c.07.22.17.37.13.44s-.21.16-.32.24c0-.09-.11-.19-.09-.26A2.12,2.12,0,0,1,127.34,228.74Z"/><path class="cls-5" d="M168.52,159.21l-.15.11.12-.14Z"/><path class="cls-2" d="M347.66,116.6c.21,1.74-.4,2.38-2.13,2-.8-.2-1.76-.25-2.32-1.1s-1.29.07-1.91-.26c-.85-.47-1.72-.92-2.58-1.37-1.57-.83-1.62-1.21-.38-2.62a2.48,2.48,0,0,1,2.77.63A10.6,10.6,0,0,0,347.66,116.6Z"/><path class="cls-2" d="M352.61,116.73c.28,1.2-.32,1.67-1.41,1.46-.85-.16-1.9.22-2.5-.77C349.67,115.87,349.81,115.74,352.61,116.73Z"/><path class="cls-2" d="M335.92,107.22c0-.92-1.16-1.18-1.22-2.08.53-.54,1.07-1.1,1.91-.68.47.23,1.18.57,1,1.11A2.11,2.11,0,0,1,335.92,107.22Z"/><path class="cls-5" d="M391.38,110.92c-.08-.09-.26-.22-.24-.26.12-.22.29-.11.45,0Z"/><path class="cls-5" d="M260.14,37.44a1.51,1.51,0,0,0,.3,0c0,.53-.44,1-.25,1.7C259.5,38.39,259.53,37.9,260.14,37.44Z"/><path class="cls-5" d="M264,37.15c-.09.1-.19.19-.29.29l0,0,.29-.29Z"/><path class="cls-5" d="M263.41,37.72l.29-.31,0,0-.31.29Z"/><path class="cls-5" d="M263.11,38l.3-.3h0c-.1.1-.2.2-.29.31Z"/><path class="cls-5" d="M262.8,38.31l.31-.29,0,0-.3.3Z"/><path class="cls-5" d="M262.83,38.34l-.14.12.11-.15Z"/><path class="cls-5" d="M236.86,61.6l.12.13-.13-.12Z"/><path class="cls-5" d="M225.28,69.44c-.07,0-.17.13-.2.11s-.1-.21,0-.32Z"/><path class="cls-5" d="M251.07,18.48a2,2,0,0,1-1.46,0A1.84,1.84,0,0,1,251.07,18.48Z"/><path class="cls-5" d="M248.22,12.68l-.05.89c-.6-.37-.84-.67,0-.93Z"/><path class="cls-5" d="M249.36,15.92l.14-.38.11.08c-.06.11-.14.22-.2.33Z"/><path class="cls-5" d="M250.88,14.44l.13.13-.13-.12Z"/><path class="cls-5" d="M253,13.25l-.07.13.07-.12Z"/><path class="cls-5" d="M408.77,106.66c-.33,1-1.15.57-1.81.61A1.62,1.62,0,0,1,408.77,106.66Z"/><path class="cls-5" d="M156.4,84.43l-.33.08,0-.37Z"/><path class="cls-5" d="M90.14,23.58c0,.09.13.21.11.26s-.24.11-.37,0Z"/><path class="cls-5" d="M91.94,23l-.11-.1s.08-.08.11-.08.07.06.1.1Z"/><path class="cls-5" d="M257.4,12.66l-.29-.12c.11-.06.21-.16.32-.16s.22.1.33.15Z"/><path class="cls-5" d="M242.52,71.45l-.12-.13.13.12Z"/></g></g></svg>