<svg xmlns="http://www.w3.org/2000/svg" viewBox="0 0 171.6 23.61"><defs><style>.cls-1{fill:#333130;}.cls-2{fill:#e87a56;}</style></defs><title>p4e2_1</title><g id="Layer_2" data-name="Layer 2"><g id="Layer_1-2" data-name="Layer 1"><path class="cls-1" d="M78.85,18.79c0,.91-.06,1.82-.07,2.73,0,1.77-.68,2.24-2.46,1.82-.62-.15-.55-.55-.56-1,0-1.18,0-2.36-.06-3.54l0-13c0-1.45.12-2.9.06-4.34,0-.95.3-1.14,1.19-1.15,3.2,0,3.19-.07,3.74,3.08.14.79.33,1.57.5,2.35q1,5.34,2,10.69l.3,0q.9-5.28,1.78-10.55c.3-1.46.66-2.91.87-4.38C86.27.7,86.55.39,87.45.38,90.7.32,90.7.28,90.7,3.6c0,.75,0,1.49,0,2.24v13a21.75,21.75,0,0,0,0,2.91c.16,1.4-.4,1.7-1.71,1.66-1.13,0-1.52-.34-1.43-1.47s0-2,0-3.06V8.61l-.13,0L85.56,18.8A23.49,23.49,0,0,0,85,21.64c-.09,1.18-.47,1.64-1.77,1.64s-1.45-.69-1.61-1.66-.42-1.88-.64-2.83q-1-5.38-2-10.78l-.1,0Z"/><path class="cls-1" d="M171.59,5.84q0,6.47,0,12.92c0,1.13-.08,2.26-.13,3.38,0,.51.16,1.23-.69,1.16s-1.67.48-2.06-.68c-.46-1.32-1-2.62-1.45-3.93a70,70,0,0,0-3.22-8.75c.26,3,0,5.91.2,8.85,0,.85-.05,1.71-.05,2.56,0,1.89-.92,2.51-2.76,2-.63-.19-.47-.62-.48-1,0-1.18-.05-2.35-.07-3.53q0-6.48,0-13c0-1.39,0-2.78.06-4.16,0-.44-.36-1.29.51-1.21s2-.72,2.47.68c.57,1.6,1.19,3.18,1.79,4.77q1.2,3.55,2.38,7.1l.16-.09V5.81c0-1.45.13-2.91,0-4.36s.89-1,1.6-1,1.65-.3,1.58,1.08S171.55,4.39,171.59,5.84Z"/><path class="cls-1" d="M55.29,18.91c0,1,0,1.94-.07,2.9,0,.54.42,1.43-.66,1.5s-1.92.3-2.24-1.13a26.81,26.81,0,0,0-1.27-3.47c-1-2.89-2-5.78-2.95-8.68,0,3-.22,5.88-.08,8.77,0,.85-.05,1.71-.05,2.56,0,1.89-.89,2.5-2.75,2-.63-.18-.48-.61-.49-1,0-1.17,0-2.34,0-3.52q0-6.48,0-13c0-1.34,0-2.68.08-4,0-.5-.51-1.47.65-1.41.9,0,2-.53,2.47,1s1.09,3,1.65,4.49L51.91,13l.15-.09V5.75c0-1.44.12-2.89,0-4.32s.92-1,1.61-1,1.65-.31,1.57,1.06,0,2.88,0,4.32Z"/><path class="cls-1" d="M155.15,18.78c-.78,4.14-2.8,5.15-6.28,4.63-2.61-.39-3.26-2.47-3.78-4.61q0-6.48-.05-13c.45-4.52,2.82-6.43,6.72-5.5,2,.49,2.82,1.95,3.2,3.78.12.57.17,1.16.24,1.75Q155.19,12.31,155.15,18.78Zm-6.43,0c0,.94.3,1.69,1.4,1.7s1.41-.72,1.4-1.68l0-13a7.76,7.76,0,0,0,0-1c-.07-.86-.3-1.64-1.35-1.7s-1.38.7-1.54,1.54a6,6,0,0,0,0,1.12C148.59,10.17,148.51,14.48,148.72,18.8Z"/><path class="cls-1" d="M17.13,18.84c0,1.18-.07,2.36-.09,3.54,0,1.55-1.21.84-1.9.91s-1.61.42-1.56-.91c0-1.18,0-2.36,0-3.54l0-13c0-1.35.13-2.69.06-4C13.51.76,13.75.28,15,.38s2.69,0,4,0c3.06,0,4.15,1.07,4.38,4.14,0,.43.07.86.11,1.29-.05.91-.1,1.82-.14,2.73,0,1.14-1.54,2.3-1.31,2.64a5.91,5.91,0,0,1,1.27,2.86c.14,1.7.16,3.41.22,5.12a15.6,15.6,0,0,0,0,2.56c.26,1.46-.41,1.59-1.64,1.64-1.47.05-2-.38-1.88-1.84a22.45,22.45,0,0,0,0-2.72,22.94,22.94,0,0,0-.08-5c-.19-1.18-1.09-1.33-2.05-1.33-1.16,0-.85.89-.85,1.52C17,15.64,17.09,17.24,17.13,18.84Zm0-13A21.73,21.73,0,0,0,17,8.23c0,.59-.43,1.5.79,1.56s1.94-.1,2.1-1.4A8.84,8.84,0,0,0,20,5.82l-.09-1.27c-.08-1.3-1-1.5-2-1.5-1.33,0-.7,1-.82,1.66A4.22,4.22,0,0,0,17.14,5.82Z"/><path class="cls-1" d="M39,18.79c.1.8.17,1.6.3,2.39.36,2.24.37,2.19-1.82,2.17-.91,0-1.28-.31-1.24-1.19a4.29,4.29,0,0,0-.11-.79c-.34-2.07-1.37-2.68-3.47-2.14-.47.12-.57.38-.6.79s-.13.95-.2,1.43c-.25,1.77-1.25,2.37-3,1.88-.55-.15-.47-.47-.42-.84.14-1.23.27-2.45.4-3.67.81-4.3,1.36-8.63,1.89-13a36.64,36.64,0,0,0,.63-4.14C31.43.53,32,.37,33,.38c3.24,0,3.23,0,3.68,3.19.11.79.29,1.58.44,2.37Q38.08,12.36,39,18.79ZM34.13,6.36h-.38c-.36,3-.66,5.9-1.11,8.83-.17,1.12.25,1.31,1.18,1.28s1.81.13,1.53-1.29c-.19-.95-.24-1.92-.38-2.87C34.7,10.32,34.41,8.34,34.13,6.36Z"/><path class="cls-1" d="M115.92,18.78a6.17,6.17,0,0,0-.19.61c-.64,3.07-1.77,4.11-4.55,4.16s-4-1-4.72-4c-.07-.26-.16-.52-.23-.77,0-1,.08-1.92,0-2.87-.13-1.45.85-1.16,1.67-1.18s1.74-.15,1.61,1.23a7.83,7.83,0,0,0,.15,2.85c.09,1,.33,1.79,1.58,1.67,1.07-.1,1.23-.81,1.16-1.69.6-3-1.09-4.89-3-6.71a9.26,9.26,0,0,1-3.28-6.27c0-.42.09-.85.13-1.28.25-3,1.73-4.39,4.65-4.43,2.67,0,4,1,4.45,3.66.12.69.21,1.38.31,2.07-.24.81.44,2-1.35,2.06s-2.12-.6-2-2.06a7.55,7.55,0,0,0-.06-1.26c-.14-.76-.36-1.48-1.36-1.44s-1.35.71-1.41,1.59a8.3,8.3,0,0,0,0,1.11c.16,1.91,1.68,2.93,2.84,4.13C114.76,12.47,116.23,15.24,115.92,18.78Z"/><path class="cls-1" d="M120.46,5.86c.07-.48.13-1,.2-1.44.52-3.63,3.4-5.29,6.84-3.94,1.49.58,2,1.89,2.26,3.29A20.69,20.69,0,0,1,130,5.85c-.28.77.48,2-1.33,2.07s-2.12-.6-2-2.06c0-.53,0-1.06-.07-1.58a1.16,1.16,0,0,0-1.3-1.12A1.23,1.23,0,0,0,124,4.29a2.8,2.8,0,0,0,0,1.57c.06,1.88,1.53,2.9,2.67,4,2.49,2.49,4,5.31,3.57,8.91-.62,3.84-2.32,5.2-5.81,4.67-2.23-.34-3.11-1.44-3.76-4.68,0-1,0-1.94,0-2.9,0-.42,0-.83.54-1,1.64-.57,2.64.1,2.7,1.84,0,.7.09,1.39.14,2.09,0,1,.25,1.7,1.39,1.7s1.37-.78,1.38-1.71c.58-3-1.17-4.89-3-6.7A9.85,9.85,0,0,1,120.46,5.86Z"/><path class="cls-1" d="M70.45,18.79c-.71,4-2.49,5.34-6.11,4.64-2.58-.5-3.06-2.53-3.48-4.62a21.34,21.34,0,0,0,0-2.4c-.16-1.33.44-1.56,1.64-1.6,1.44-.05,1.75.53,1.64,1.78a15.33,15.33,0,0,0,.1,2.24c.09.89.26,1.71,1.43,1.68s1.41-.73,1.36-1.7c.52-2.73-.88-4.68-2.71-6.38a10.18,10.18,0,0,1-3.66-6.61c.07-.42.16-.84.2-1.27.4-3.73,3.56-5.54,7-4a3.93,3.93,0,0,1,2.08,3.06c.16.73.22,1.48.32,2.23-.42.67.44,2-1.29,2.07s-2.13-.63-2-2.08L66.8,4.41c-.08-.79-.46-1.28-1.32-1.25A1.31,1.31,0,0,0,64.13,4.6c0,.42,0,.84.05,1.26,0,1.91,1.56,2.9,2.68,4C69.33,12.39,70.78,15.2,70.45,18.79Z"/><path class="cls-2" d="M120.46,5.86a9.85,9.85,0,0,0,3.34,6.24c1.88,1.81,3.63,3.75,3,6.7h-2.77c0-.7-.12-1.39-.14-2.09-.06-1.74-1.06-2.41-2.7-1.84-.56.19-.53.6-.54,1,0,1,0,1.93,0,2.9l-4.76,0c.31-3.54-1.16-6.31-3.54-8.79-1.16-1.2-2.68-2.22-2.84-4.13h2.79c-.15,1.46.24,2.11,2,2.06s1.11-1.25,1.35-2.06Z"/><path class="cls-2" d="M109.65,18.84A7.83,7.83,0,0,1,109.5,16c.13-1.38-.74-1.26-1.61-1.23s-1.8-.27-1.67,1.18c.09,1,0,1.91,0,2.87h-5.77v-13h5.65a9.26,9.26,0,0,0,3.28,6.27c1.91,1.82,3.6,3.76,3,6.71Z"/><path class="cls-2" d="M64.23,18.83a15.33,15.33,0,0,1-.1-2.24c.11-1.25-.2-1.83-1.64-1.78-1.2,0-1.8.27-1.64,1.6a21.34,21.34,0,0,1,0,2.4l-5.57.1,0-13.11,5.33,0a10.18,10.18,0,0,0,3.66,6.61c1.83,1.7,3.23,3.65,2.71,6.38Z"/><path class="cls-1" d="M6.54,18.8c0,1.13-.09,2.26,0,3.39,0,.79-.18,1.13-1.07,1.16C3,23.43,3,23.48,3,21.05c0-.76,0-1.51-.06-2.26q0-6.48,0-13c.2-1.45.26-2.59-1.89-2.4C-.28,3.54.5,2.2.34,1.54S.18.37,1.15.39q3.48.07,7,0c1,0,1,.58.83,1.15s.63,2-.72,1.89C6,3.28,6.41,4.57,6.54,5.84Z"/><path class="cls-2" d="M130.25,18.81c.39-3.6-1.08-6.42-3.57-8.91-1.14-1.14-2.61-2.16-2.67-4h2.67c-.13,1.46.28,2.11,2,2.06s1.05-1.3,1.33-2.07l5.59-.06q0,6.51,0,13Z"/><path class="cls-2" d="M70.45,18.79c.33-3.59-1.12-6.4-3.59-8.91-1.12-1.12-2.66-2.11-2.68-4l2.77,0c-.13,1.45.24,2.19,2,2.08s.87-1.4,1.29-2.07l5.43,0,0,13Z"/><path class="cls-2" d="M6.54,18.8v-13l7,0,0,13Z"/><path class="cls-2" d="M30.75,5.86c-.53,4.33-1.08,8.66-1.89,13-1.77.18-3.61-.46-5.34.36-.06-1.71-.08-3.42-.22-5.12A5.91,5.91,0,0,0,22,11.2c-.23-.34,1.27-1.5,1.31-2.64,0-.91.09-1.82.14-2.73Z"/><path class="cls-2" d="M39,18.79q-1-6.42-1.93-12.85l7.57-.09q0,6.48,0,13Z"/><path class="cls-1" d="M100.46,5.83v13a19.29,19.29,0,0,0,0,2.74c.2,1.51-.41,1.87-1.85,1.84-1.28,0-1.87-.27-1.71-1.68a21.49,21.49,0,0,0,0-2.89q0-6.48,0-12.95c0-1.45.09-2.9.06-4.34,0-.79.14-1.23,1-1.13a7.78,7.78,0,0,0,1.6,0c.75-.07.9.28.89.94C100.4,2.83,100.45,4.33,100.46,5.83Z"/><path class="cls-2" d="M96.83,5.86q0,6.46,0,13H90.75v-13Z"/><path class="cls-2" d="M145,5.83q0,6.48.05,13l-6,.06c0-4.33-.22-8.67.12-13Z"/><path class="cls-1" d="M139.22,5.85c-.34,4.34-.12,8.68-.12,13,0,1.08-.06,2.16,0,3.23.15,1.76-1.12,1.13-1.95,1.23s-1.69,0-1.56-1.29a28.86,28.86,0,0,0,0-3.22q0-6.51,0-13c0-1.4.08-2.8,0-4.2,0-.86.15-1.22,1.12-1.21,2.36,0,2.35-.06,2.37,2.25C139.12,3.7,139.18,4.78,139.22,5.85Z"/><path class="cls-2" d="M155.15,18.78q0-6.46,0-12.92l5.71,0q0,6.48,0,13Z"/><path class="cls-2" d="M2.92,5.82q0,6.48,0,13c-2.85,0-2.85,0-2.85-2.86,0-2.73.1-5.46,0-8.18-.08-1.58.41-2.16,2-1.9A5.17,5.17,0,0,0,2.92,5.82Z"/><path class="cls-2" d="M85.27,5.92q-.88,5.28-1.78,10.55l-.3,0q-1-5.35-2-10.69Z"/><path class="cls-2" d="M17.13,18.84c0-1.6-.11-3.2-.11-4.8,0-.63-.31-1.53.85-1.52,1,0,1.86.15,2.05,1.33a22.94,22.94,0,0,1,.08,5Z"/><path class="cls-2" d="M164.25,18.79c-.15-2.94.06-5.89-.2-8.85a70,70,0,0,1,3.22,8.75Z"/><path class="cls-2" d="M48,18.8c-.14-2.89,0-5.78.08-8.77,1,2.9,2,5.79,2.95,8.68Z"/><path class="cls-2" d="M85.56,18.8,87.41,8.58l.13,0V18.84Z"/><path class="cls-2" d="M78.85,18.79V8L79,8q1,5.39,2,10.78Z"/><path class="cls-2" d="M168.28,5.81v7.1l-.16.09q-1.19-3.54-2.38-7.1Z"/><path class="cls-2" d="M52.06,5.75V13l-.15.09L49.52,5.91Z"/><path class="cls-2" d="M151.55,5.85l0,13-2.8,0c-.21-4.32-.13-8.63-.05-12.95Z"/><path class="cls-2" d="M20,5.82a8.84,8.84,0,0,1-.09,2.57c-.16,1.3-1,1.46-2.1,1.4s-.75-1-.79-1.56a21.73,21.73,0,0,1,.12-2.41Z"/><path class="cls-2" d="M34.13,6.36c.28,2,.57,4,.84,6,.14.95.19,1.92.38,2.87.28,1.42-.64,1.27-1.53,1.29s-1.35-.16-1.18-1.28c.45-2.93.75-5.88,1.11-8.83Z"/></g></g></svg>