<svg xmlns="http://www.w3.org/2000/svg" viewBox="0 0 163.75 31.31"><defs><style>.cls-1{fill:#312f2f;}.cls-2{fill:#e77a55;}.cls-3{fill:#cad9f7;}</style></defs><title>p4e3</title><g id="Layer_2" data-name="Layer 2"><g id="Layer_1-2" data-name="Layer 1"><path class="cls-1" d="M51.09,27.48a4.51,4.51,0,0,0-.34,1.24c0,1.68-.76,2.09-2.38,2.12s-2-.89-2.11-2.2a5.4,5.4,0,0,0-.41-1.21q-1.49-8.1-3-16.18l-.27.06v16a6.3,6.3,0,0,0-.1,1.49c.26,1.7-.42,2.15-2.11,2.15s-2.18-.53-2-2.08a8.28,8.28,0,0,0-.09-1.49c.2-7.4.17-14.8,0-22.2,0-.57.09-1.15.09-1.72,0-3.1,0-3,3.22-3.15,1.9-.09,3,.27,3,2.43a10.75,10.75,0,0,0,.6,2.49q1.45,7.93,2.93,15.87l.59,0c1-5.27,2.13-10.51,2.79-15.83a4.14,4.14,0,0,0,.31-.77C52.68.18,52.67.23,57,.34c1.12,0,1.51.34,1.44,1.46s0,2.27.05,3.41q0,11.08,0,22.19a14.71,14.71,0,0,1-.09,1.49c-.11.66.43,1.68-.45,1.89a9.24,9.24,0,0,1-3.19,0c-.49-.05-.42-.67-.44-1.09,0-.72-.09-1.43-.13-2.14V11.4L54,11.34Q52.54,19.41,51.09,27.48Z"/><path class="cls-1" d="M123.26,5.18c0-.29.06-.57.06-.85.05-4,.05-3.95,4-4,1.41,0,2.06.35,2.15,1.84a16.11,16.11,0,0,0,.76,3.06,128.34,128.34,0,0,0,3.43,16.46l2.94-16.47c.2-1.05.46-2.09.58-3.15.14-1.28.69-2,2.06-1.71s3.15-.77,3.88.61c.6,1.13.21,2.79.25,4.21V27.48c0,.36-.08.71-.09,1.07-.05,2.24-1.15,3-3.34,2.35-.68-.2-.68-.62-.7-1.12l-.09-2.36V11.74l-.31,0L136,27.32a7.63,7.63,0,0,0-.27,1.24c-.07,1.71-.78,2.32-2.63,2.3s-1.69-1.25-2-2.33c-.08-.34-.18-.68-.27-1l-3-15.9-.29.09V27.56a2.78,2.78,0,0,0-.1.85c.37,2.13-.59,2.7-2.61,2.55-1.25-.09-1.64-.46-1.52-1.63a15.56,15.56,0,0,0-.06-1.93Q123.25,16.28,123.26,5.18Z"/><path class="cls-1" d="M102.13,5.22c1.76-4.2,3.39-5.37,7.26-5.2,3.23.14,4.78,1.52,5.83,5.17.42,7.36.75,14.72-.28,22.06-1.59,5.21-10.21,5.56-12.4.1a31,31,0,0,1-.45-3.83C102.06,17.42,102.11,11.32,102.13,5.22Zm5.13-.06a4.14,4.14,0,0,0-.63,2.66q-.06,7.65,0,15.29a12.31,12.31,0,0,0,.37,2.77,1.69,1.69,0,0,0,1.73,1.35,1.62,1.62,0,0,0,1.73-1.31,8.48,8.48,0,0,0,.3-2.12c0-5.45,0-10.91,0-16.36a3.56,3.56,0,0,0-.45-2.28C109.3,3.46,108.28,3.52,107.26,5.16Z"/><path class="cls-2" d="M79.67,5.23l8.44,0c.16,7.37.2,14.75,0,22.12l-16.65.06c0-2.07,0-4.15-.13-6.22-.09-1.55.22-2.25,2.06-2.26,4.08,0,5.59-1.58,6.3-5.55A30.24,30.24,0,0,0,79.67,5.23Z"/><path class="cls-1" d="M150.92,5.21c1-3.67,2.31-5,5.4-5.17,5-.28,6.36,1.55,7.13,6.59a21.73,21.73,0,0,1,0,3.23c-3.21,1.23-4.08.75-4.34-2.38a23.18,23.18,0,0,0-.41-2.33c-1.22-1.63-1.88-1.63-3.22,0a5.84,5.84,0,0,0,1.7,6.07c2.52,2.54,5,5.13,6.28,8.59a22.66,22.66,0,0,1,.11,6c-.39,2.95-1.95,4.9-4.44,5.34-3.55.63-5.87-.32-7.31-3-.14-.25-.3-.49-.44-.74a30.62,30.62,0,0,1-.48-6.41c-.06-1.83,1.19-1.43,2.2-1.44s2.27-.36,2.17,1.45a23.28,23.28,0,0,0,.13,4.09c.13,1.05.41,2.18,1.9,2.16s1.75-1.15,1.93-2.34c.54-3.8-1.45-6.45-4-8.8C152,13.16,150.27,9.67,150.92,5.21Z"/><path class="cls-1" d="M.46,10.81A14.06,14.06,0,0,1,.31,4.62C1.09,1.43,2.72.09,6.12,0c3.59-.07,5.09,1,6,4.25.1.33.26.65.39,1,0,1,0,2,0,3,.12,1.43-.12,2.25-1.9,2.15-1.51-.08-2.66,0-2.42-2.09a4.69,4.69,0,0,0-.38-3.11C6.8,3.5,6.05,3.49,4.78,5.16c-1.28,3.09.6,5.13,2.55,7,4.45,4.2,6.78,9,5.26,15.25-1.2,3.05-3.52,4.05-6.66,3.87-2.6-.15-4.39-1.32-5.16-3.77a14.47,14.47,0,0,1-.37-8,10.93,10.93,0,0,0,1.71.05c1.75-.25,2.49.34,2.32,2.2a18.63,18.63,0,0,0,.28,3.63c.12,1.11.61,1.88,1.89,1.89s1.64-.92,1.83-2a8.14,8.14,0,0,0-2.08-7.15C4.29,15.77,1.82,13.73.46,10.81Z"/><path class="cls-2" d="M7.87,5.17a4.69,4.69,0,0,1,.38,3.11c-.24,2.06.91,2,2.42,2.09,1.78.1,2-.72,1.9-2.15-.09-1,0-2,0-3L19,5.2c2.28,7.23,4.85,14.4,3.85,22.2l-10.27,0c1.52-6.21-.81-11-5.26-15.25C5.38,10.29,3.5,8.25,4.78,5.16Z"/><path class="cls-1" d="M79.67,5.23a30.24,30.24,0,0,1,0,8.12c-.71,4-2.22,5.53-6.3,5.55-1.84,0-2.15.71-2.06,2.26.13,2.07.09,4.15.13,6.22a4.49,4.49,0,0,0-.1.64c-.11,2.88-1,3.49-3.87,2.89-.61-.12-.83-.37-.83-1,0-.85,0-1.7-.07-2.55V5.19c.28-1.55-.66-3.67.44-4.51s3-.26,4.6-.3c.58,0,1.15,0,1.73,0C77.22.43,78.13,1.13,79.67,5.23Zm-4.92-.09c-.51-1.39-1.7-1.27-2.81-1.2-.93.05-.54.76-.52,1.27,0,2.79,0,5.58-.1,8.36-.06,1.52.73,1.63,1.87,1.47A2.07,2.07,0,0,0,75,13,17.39,17.39,0,0,0,74.75,5.14Z"/><path class="cls-2" d="M150.92,5.21c-.65,4.46,1.09,8,4.32,10.89,2.57,2.35,4.56,5,4,8.8-.18,1.19-.35,2.32-1.93,2.34s-1.77-1.11-1.9-2.16A23.28,23.28,0,0,1,155.3,21c.1-1.81-1.15-1.45-2.17-1.45s-2.26-.39-2.2,1.44a30.62,30.62,0,0,0,.48,6.41l-8,.09V5.19Z"/><path class="cls-2" d="M38.35,5.2c.16,7.4.19,14.8,0,22.2H27.73c-1-7.76,1.42-15,3.52-22.23Z"/><path class="cls-2" d="M102.13,5.22c0,6.1-.07,12.2,0,18.3a31,31,0,0,0,.45,3.83l-9.72-.07c0-2.5-.09-5,0-7.51.08-4.86-.25-9.72.18-14.58Z"/><path class="cls-1" d="M31.25,5.18c-2.1,7.26-4.54,14.47-3.52,22.23,0,.21-.08.42-.09.63-.11,2.85-1,3.5-3.89,2.9-.63-.13-.82-.4-.82-1,0-.86,0-1.71-.07-2.56,1-7.8-1.57-15-3.85-22.2-.13-.63-.23-1.26-.39-1.87-.86-3.21-.8-3.25,2.56-3,.91.07,1.2.45,1.4,1.26.29,1.24.73,2.45,1.1,3.67a36.28,36.28,0,0,0,1.71,6.51l1.38-6.55a13,13,0,0,0,.65-2.46C27.57.64,28.73.19,30.67.32c1.4.09,1.93.3,1.37,1.77A26.9,26.9,0,0,0,31.25,5.18Z"/><path class="cls-2" d="M66.57,5.19V27.4H58.5q0-11.1,0-22.19Z"/><path class="cls-2" d="M114.94,27.25c1-7.34.7-14.7.28-22.06h8q0,11.1,0,22.22Z"/><path class="cls-1" d="M93,5.19c-.43,4.86-.1,9.72-.18,14.58,0,2.5,0,5,0,7.51a5.46,5.46,0,0,0,0,1.07c.46,2.36-.77,2.67-2.76,2.62-1.51,0-2.07-.45-1.87-1.95a8.92,8.92,0,0,0-.1-1.7c.22-7.37.18-14.75,0-22.12-.17-1.51-1.37-.77-2-.74-1.78.1-1.52-1-1.52-2.09s-.26-2.13,1.55-2c2.85.16,5.73.13,8.59,0,1.67-.07,1.45,1,1.38,1.94s.58,2.29-1.36,2.17C94.16,4.41,93.09,3.85,93,5.19Z"/><path class="cls-2" d="M136.62,5.23,133.68,21.7a128.34,128.34,0,0,1-3.43-16.46Z"/><path class="cls-2" d="M51.59,5.27c-.66,5.32-1.78,10.56-2.79,15.83l-.59,0q-1.47-7.94-2.93-15.87Z"/><path class="cls-2" d="M.46,10.81c1.36,2.92,3.83,5,5.89,7.32a8.14,8.14,0,0,1,2.08,7.15c-.19,1-.47,2-1.83,2s-1.77-.78-1.89-1.89a18.63,18.63,0,0,1-.28-3.63c.17-1.86-.57-2.45-2.32-2.2A10.93,10.93,0,0,1,.4,19.47Z"/><path class="cls-2" d="M158.73,5.15a23.18,23.18,0,0,1,.41,2.33c.26,3.13,1.13,3.61,4.34,2.38q0,5,0,9.93c-1.27-3.46-3.76-6-6.28-8.59a5.84,5.84,0,0,1-1.7-6.07Z"/><path class="cls-2" d="M127.54,27.56V11.7l.29-.09,3,15.9Z"/><path class="cls-2" d="M51.09,27.48Q52.55,19.41,54,11.34l.19.06V27.55Z"/><path class="cls-2" d="M42.6,27.33v-16l.27-.06q1.5,8.09,3,16.18Z"/><path class="cls-2" d="M136,27.32l2.86-15.62.31,0V27.42Z"/><path class="cls-2" d="M26.77,5.24l-1.38,6.55a36.28,36.28,0,0,1-1.71-6.51Z"/><path class="cls-2" d="M110.32,5.16a3.56,3.56,0,0,1,.45,2.28c0,5.45,0,10.91,0,16.36a8.48,8.48,0,0,1-.3,2.12,1.62,1.62,0,0,1-1.73,1.31A1.69,1.69,0,0,1,107,25.88a12.31,12.31,0,0,1-.37-2.77q-.06-7.63,0-15.29a4.14,4.14,0,0,1,.63-2.66Z"/><path class="cls-3" d="M110.32,5.16h-3.06C108.28,3.52,109.3,3.46,110.32,5.16Z"/><path class="cls-3" d="M158.73,5.15l-3.22,0C156.85,3.52,157.51,3.52,158.73,5.15Z"/><path class="cls-3" d="M7.87,5.17H4.78C6.05,3.49,6.8,3.5,7.87,5.17Z"/><path class="cls-2" d="M74.75,5.14A17.39,17.39,0,0,1,75,13a2.07,2.07,0,0,1-1.85,2c-1.14.16-1.93.05-1.87-1.47.11-2.78.07-5.57.1-8.36Z"/><path class="cls-3" d="M74.75,5.14l-3.33.07c0-.51-.41-1.22.52-1.27C73.05,3.87,74.24,3.75,74.75,5.14Z"/></g></g></svg>