<svg xmlns="http://www.w3.org/2000/svg" viewBox="0 0 366.94 421.24"><defs><style>.cls-1{fill:#6624a6;}.cls-2{fill:#0b1040;}.cls-3{fill:#fbc03e;}.cls-4{fill:#fc9d12;}.cls-5{fill:#fcc23f;}.cls-6{fill:#42a8cc;}.cls-7{fill:#5caaea;}.cls-8{fill:#5897c6;}.cls-9{fill:#2cacf3;}.cls-10{fill:#fd7415;}.cls-11{fill:#fdeb8d;}.cls-12{fill:#373e77;}.cls-13{fill:#2e3571;}.cls-14{fill:#254ca5;}.cls-15{fill:#1a3ad6;}.cls-16{fill:#ecf6f8;}</style></defs><title>p4e4</title><g id="Layer_2" data-name="Layer 2"><g id="Layer_1-2" data-name="Layer 1"><path class="cls-1" d="M43.29,3.7l-1.47-.21c-1.23-1.69-1-3.08.52-3.43a1.69,1.69,0,0,1,2,.85C45,2.17,44.42,3.07,43.29,3.7Z"/><path class="cls-2" d="M35.77,231.64c-6.22-.43-10.73-3.54-10.69-8.4,0-3.28-1.45-4.4-3.79-5.88C12.84,212,11,204.72,15.8,196a57.53,57.53,0,0,1,4.29-6.79c4.42-5.92,5.57-12.57,5.18-19.77-1.78-32.73,29.93-54.78,59.89-41.63a23.86,23.86,0,0,1,14.6,18.28c1.94,10.13,2,20.22-1.05,30.19-.52-4.06-.76-8.15-1.59-12.19-1.21-5.9-1.15-5.91-7.15-5.89A2.07,2.07,0,0,1,87.76,157a2,2,0,0,1,.82-2.56,6.86,6.86,0,0,1,2.11-1.1c3.27-1,3.31-.94,2-4.06-.84-2.06-1.7-4.12-2.72-6.1-.85-1.66-1.38-3.56-2.91-5a113.6,113.6,0,0,1-13.85,15.13c-.45.4-1.39.76-.47,1.65a2.11,2.11,0,0,1,.46,2.89c-.81,1.23-2.1.89-3.17.58-2.88-.84-4.49.69-5.83,2.86l0,0c-1.08-.65-1.55.45-2.16.87-4.36,3-9,5.48-13.6,8-2.49,1.36-4.33,1.77-6.24-.92a5.5,5.5,0,0,0-6.45-2.07,6.68,6.68,0,0,0-4.67,5.37C29.81,178.4,35.68,187.24,41.6,188c1.89.23,1.87,1,1.75,2.33-.63,7.11-1.6,14.18-2.68,21.24-4,1.53-5,4.9-2.43,8.86.63,1,1.26,1.68-.05,2.63C35.18,225.25,34.65,228.23,35.77,231.64Z"/><path class="cls-3" d="M40.67,211.54c1.08-7,2-14.12,2.68-21.23.12-1.36.14-2.1-1.75-2.33-5.92-.74-11.79-9.58-10.46-15.42a6.68,6.68,0,0,1,4.67-5.37,5.5,5.5,0,0,1,6.45,2.07c1.91,2.69,3.75,2.28,6.24.92,4.63-2.51,9.24-5,13.6-8,.61-.42,1.08-1.52,2.17-.88.21,2.4,2.74,3,4,4.71-1.44,1.06-2.75,2-4,2.95a1.4,1.4,0,0,0-.58,1.65,1.25,1.25,0,0,0,1,.84c1.18.25,7.11-4.46,7.08-5.62a1.91,1.91,0,0,0-.13-.51c-.61-1.91-5.45-4.53-7.31-4,1.34-2.17,3-3.7,5.83-2.86,1.07.31,2.36.65,3.17-.58a2.11,2.11,0,0,0-.46-2.89c-.92-.89,0-1.25.47-1.65a113.6,113.6,0,0,0,13.85-15.13c1.53,1.41,2.06,3.31,2.91,5,1,2,1.88,4,2.72,6.1,1.28,3.12,1.24,3.1-2,4.06a6.86,6.86,0,0,0-2.11,1.1,2,2,0,0,0-.82,2.56A2.07,2.07,0,0,0,90,158.17c6,0,5.94,0,7.15,5.89.83,4,1.07,8.13,1.59,12.19l-.09,6.16c-2.65,1.63-5.3,3.25-7.94,4.89-.71.44-1.38,1-.84,1.94s1.35.9,2.26.36c2-1.19,4-2.31,6-3.45-.06,1-.11,1.93-.16,2.89-.26.93-.52,1.86-.79,2.79-1,0-1.94,0-2.9.12s-2.66-.53-2.62,1.28,1.64,1.21,2.7,1.34c.7.09,1.41.1,2.11.14l-1.68,5.18-3.27-2.21c-.73-.49-1.5-.65-2.1.15s-.16,1.49.5,2l3.44,2.84a21.84,21.84,0,0,1-8.9,8.56l-3.46.55c-1.09-1.08-2.56-.56-3.82-.76-7-1.1-13.59-3.47-20.22-5.77-2.22-.77-2.6.13-2.24,1.92.43,2.16,1,4.28,1.58,6.43C51,213.74,45.84,212.48,40.67,211.54Zm-3.81-36.29,0,0a6.44,6.44,0,0,0-.8,5.88c.51,1.35,1.45,2.25,3.1,1.83,1.12-.29,2-.71,2-2.09.09-1.95-1.41-1.75-2.6-1.77.34-2,1.77-2.88,2.91-4,1.73-1.67,1.39-3.42-.83-4.35a4.6,4.6,0,0,0-5,1.06c-.71.6-1.76,1.18-1.4,2.38S35.92,175.18,36.86,175.25ZM86.14,198c1.75-1.37,2.31-3.37,2.67-5.38.64-3.53-1.62-7-4.77-7.64s-5.79,1.54-6.77,5.32c-1.85,3.25-1.55,7.6.64,9.29C80.27,201.45,83.34,200.86,86.14,198Zm-.32-15.22c3.75,0,7-2.48,6.89-4.93s-2.75-4.37-6.28-4c-1.45.17-1.71-.7-2-1.57a15.09,15.09,0,0,1-.45-8.42c.2-1,.08-1.8-1.06-2A1.43,1.43,0,0,0,81.05,163a18.48,18.48,0,0,0,.83,11.22,3.94,3.94,0,0,0,4.5,2.59c1.21-.17,2.79-.86,3.05.93s-1.72,1.67-2.85,2.15a2.69,2.69,0,0,1-1.53-.18c-1-.3-2.06-.36-2.36.92s.73,1.53,1.56,1.84A7.35,7.35,0,0,0,85.82,182.8Zm8.36-15.61c.85.05,1.66,0,1.83-1.07.11-.67-.12-1.43-.84-1.44-3.44-.05-2.39-1.66-1.31-3.42a1.3,1.3,0,0,0-.47-1.86,1,1,0,0,0-1.45.17c-1.16,1.77-3.12,3.42-2.79,5.58s3,1.25,4.5,2A1.79,1.79,0,0,0,94.18,167.19Z"/><path class="cls-4" d="M97.46,281.19c.59,1.59,0,2.68-1.59,3-5.21,1.05-8.17,4.7-10.53,9-2.07,3.81-4,7.67-6,11.52l-.45.65.07,0c-1.42-.15-2,1.06-2.79,1.81-6.24,5.75-12.84,11-20.72,14.34Q34.49,330.42,17.72,315a75.58,75.58,0,0,1-6.08-7,22.6,22.6,0,0,1,1.55-18.35,11.89,11.89,0,0,0,1.23,1.72,4,4,0,0,0,4.66.75,3.85,3.85,0,0,0,2.47-4,3.9,3.9,0,0,0-2.82-3.77,20.16,20.16,0,0,0-2.08-.43,33.74,33.74,0,0,1,22.22-13.56,6.77,6.77,0,0,0,6.48,4.75,6,6,0,0,0,6.22-4.16c6.56,1.29,12.94,3.5,19.69,3.88,5.28.29,10.36-.2,15-3.08,1-.59,2-1,2.77.28-.07,1.19-.14,2.38-.22,3.7,1.45-.23,3-.64,4.11.35s-.19,2.53-.3,3.9C94.43,280.07,96.23,279.62,97.46,281.19ZM38.78,296.77a18.24,18.24,0,0,0,10.92-3c6.65-4.57,6-12.77-1.29-16.31-6.8-3.31-17.85-.76-22.5,5.2-3.26,4.16-2.3,9,2.33,11.55A21.28,21.28,0,0,0,38.78,296.77ZM26,313.27c3.44.05,6.23-2.27,6.33-5.25.11-3.42-3.93-8.18-6.9-8.12-3.45.06-6.05,3.24-6.1,7.44C19.32,311.15,21.65,313.22,26,313.27Zm15.3-4.68a3,3,0,0,0,3-3.18c.07-2.26-2.2-4.69-4.31-4.7a4.32,4.32,0,0,0-3.85,3.76C36.18,306.8,38.24,308.63,41.33,308.59Zm16.52-16.3a3.07,3.07,0,0,0,2.93,3.42,3.13,3.13,0,0,0,3.76-2.88,3.24,3.24,0,0,0-3-3.71C59.33,289,58.26,290.21,57.85,292.29Zm3.48-7.11c0-.92-.45-1.52-1.41-1.55A1.33,1.33,0,0,0,58.34,285a1.5,1.5,0,0,0,3,.2ZM50.38,309.8c.8-.07,1.5-.39,1.59-1.38a1.28,1.28,0,0,0-1.37-1.56,1.44,1.44,0,0,0-1.71,1.31A1.47,1.47,0,0,0,50.38,309.8Zm2.27,4.8c.08.88.46,1.48,1.45,1.49s1.58-.63,1.64-1.64a1.32,1.32,0,0,0-1.38-1.56C53.29,312.87,52.89,313.69,52.65,314.6ZM50.19,317a1.48,1.48,0,0,0-1.6-1.41,1.42,1.42,0,0,0-1.36,1.4,1.33,1.33,0,0,0,1.41,1.57C49.55,318.54,50,317.86,50.19,317ZM67,287.19a1.25,1.25,0,0,0-1.44-1.47,1.4,1.4,0,0,0-1.54,1.46,1.32,1.32,0,0,0,1.48,1.48A1.36,1.36,0,0,0,67,287.19ZM66.42,282a1.41,1.41,0,0,0-1.56-1.4,1.5,1.5,0,0,0,.11,3C65.87,283.64,66.36,283,66.42,282ZM54.37,308.25a1.43,1.43,0,0,0,1.68,1.47c1-.06,1.4-.69,1.27-1.66a1.32,1.32,0,0,0-1.5-1.19A1.28,1.28,0,0,0,54.37,308.25Z"/><path class="cls-5" d="M53.46,27.06l6.34,2.88c1.27,4.36,3.81,5.58,8.31,4,7.13,3.33,14.24,6.69,21.38,10,2.35,1.09,4.88.93,7.39.75,5,10.45,9.26,21.2,13.38,32l-7.39.47a12.73,12.73,0,0,0-4.8-.21c-3.82.43-6.61,3.19-6.57,6.85,0,2.76-1.71,2.46-3.33,2.27a15.44,15.44,0,0,1-3-1.11c-6.72-2.38-10.33-.7-12.64,5.93-4.21-1.71-8.06-1.73-10.78,2.63-.5.82-1.22.54-1.89.63-3.64.47-5.53,2.43-5.87,6.1-3,.71-6,1.5-9,.39A53.13,53.13,0,0,0,55.4,87.52c-3.61,1.94-7,4-10.31,6.23-1.91,1.28-4.5,1.19-6.06,3.1-2.17-.32-4.52.66-6.49-1a11,11,0,0,1,1-1.27A159,159,0,0,0,44.74,82.78c1.95-2.41,4.36-4.54,5.65-8.4-2.17,1.77-3.7,3.07-5.29,4.3-5,3.85-9.87,7.88-15.63,10.61-4.61-.07-7-3.32-5.37-7.18C27.53,80,30,76.8,33,74.26l.62-.57,0,0A4.61,4.61,0,0,0,36,73.39C41.34,71,46.45,68.14,50.7,64c3.39-3.34,4.12-3.38,8.3-.36-.34,2.12,0,4,2.42,4.53s3.33-1,4-3C71.23,66.57,77,66.92,82.59,64c1.6-.54,2.12-1.57,1.86-3.29A28.32,28.32,0,0,0,82,53.42a25.63,25.63,0,0,1-2.63-8.11c-.29-2.92-1.89-4.56-4.6-5.6C68.92,37.46,62.87,35.93,56.94,34a6,6,0,0,0-5.09.58C48.4,36.42,45,38.43,41,39a9.69,9.69,0,0,1-6.59-2.54c-1.61-1.53-1.58-3.47.19-3.86,5.86-1.28,11.26-3.81,16.86-5.79ZM70.28,79.19a4.12,4.12,0,1,0-8.23,0,4.12,4.12,0,1,0,8.23,0Zm4.24-8.88a2.45,2.45,0,0,0-4.88.23A2.27,2.27,0,0,0,72.12,73,2.36,2.36,0,0,0,74.52,70.31Z"/><path class="cls-6" d="M196.69,395.35c-1.32-3.8-2.58-7.61-2.44-11.72,1.08-.94,2.76-.67,3.74-1.86s1.95-1.86,3.2-.28a.8.8,0,0,0,1.36-.12,9.26,9.26,0,0,0,1.46-4.79c.06-1.63-1-1.56-2.09-1.75a.81.81,0,0,1-.5-.55c-.39-2.57-2.15-4.4-3.47-6.47l2.77-4.67,3.8-3.78c1.39,1.8,2.87,2,4.61.39s-.4-2.37-.81-3.49a26.65,26.65,0,0,1,7.46-3.4,3.34,3.34,0,0,0,.06.78c.45,1.45,1.36,2.8,2.92,2.35,1.75-.51-.1-1.9.17-2.91.09-.33-.28-.8-.44-1.2,4.3-.64,8.59-1.11,12.9,0-.84,1.91-.53,3.28,1.81,3.55,2,.22.91-2.08,2.06-2.56a26.47,26.47,0,0,1,12.83,8.08c-1.63.89-2.36,2.2-1.24,3.84s2.4,2.1,3.89.37c.12-.13.64.09,1,.15a24,24,0,0,1,3.93,8.48c-.1,2.1-.83,3.24-3.13,2.1-1-.48-1.65,0-1.7,1a22.35,22.35,0,0,0,.12,4.25c.11.76.68,1.77,1.65,1.2,3.14-1.87,3.53.51,4.19,2.56a27.68,27.68,0,0,1-4.53,14.29c-1.94-.58-2.91-2.18-4-3.71-1.17-1.7-2.52-2.08-4.19-.62-2.32,2-2.93,4.34-1.31,5.75s3.5,2.66,5.26,4a30.58,30.58,0,0,1-11.74,7.65c-3.22-4.23-7.52-4.11-10.5.37a2.57,2.57,0,0,1-2.14,1.24c-3.71.16-7.15-.93-10.54-2.27-1.25-2.25-2-4.23.54-6.41,1.5-1.3-.34-2.26-1.46-2.9-1-.56-1.93-1.37-2.72.42-1.47,3.37-2.28,3.63-5.86,2.45a19.8,19.8,0,0,1-4-4.82c2.39-.94,1.48-2.39.77-4C199.48,394.08,198.2,394.47,196.69,395.35Zm21.79-10.69c-.89,4.69,4.41,8.15,8,8.06,4.12-.1,8.08-3.86,8.13-8,.06-4.47-3.95-8.74-8.17-8.52C221.33,376.51,217.8,380.41,218.48,384.66Zm7.53-17a5.84,5.84,0,0,0-5.68-5.56,6,6,0,0,0-5.59,6c.06,2.82,2.85,5.28,5.94,5.26A5.35,5.35,0,0,0,226,367.65Zm7.51-5.19c0,3.32,2.15,5.56,5.2,5.5a5.64,5.64,0,0,0,5.39-5.25,5.16,5.16,0,0,0-5.23-5.48C235.59,357.23,233.5,359.27,233.52,362.46ZM247,380c0-2.71-2.28-5.12-4.74-5a5,5,0,0,0-4.94,4.95c.07,2.9,2.08,5.17,4.72,5.18C244.24,385.12,247.6,383,247,380Zm-26.35,19.84c0,2.68,1.69,4.66,4.07,4.64,2,0,4.43-2.26,4.5-4.21a4.16,4.16,0,0,0-4.36-4.37C222.08,395.85,220.67,397.17,220.63,399.86Zm-14.5-8.81a3.78,3.78,0,1,0,7.52.06c0-2.57-1.31-3.81-4-3.79C207.27,387.34,206.14,388.55,206.13,391.05Zm8.61-11.93A3.77,3.77,0,1,0,211,383,4.14,4.14,0,0,0,214.74,379.12Z"/><path class="cls-7" d="M334.17,351.7c.39,12.13-9.4,24.62-25,24.77-13.47.12-24.69-11.49-24.6-25a25,25,0,0,1,24.87-24.75A24.61,24.61,0,0,1,334.17,351.7Zm-24.34-8a8.89,8.89,0,0,0-8.52-9.14c-4.54-.37-9.32,4.52-9.14,8.95.22,5.43,4.1,8.4,9.11,8.73C305.76,352.59,309.78,348.28,309.83,343.74Zm4.88,9.19a6,6,0,0,0-5.92,5.94c0,2.76,3.36,5.92,6.21,5.87a5.85,5.85,0,0,0,5.58-5.93A5.69,5.69,0,0,0,314.71,352.93Zm-17.25,8.12a3.43,3.43,0,0,0,3.86,3.67A4.17,4.17,0,0,0,305,360.8c0-2.25-1.46-3.62-3.93-3.57S297.44,358.42,297.46,361.05Z"/><path class="cls-6" d="M41,39c4-.54,7.39-2.55,10.84-4.4A6,6,0,0,1,56.94,34c5.93,1.94,12,3.47,17.82,5.72,2.71,1,4.31,2.68,4.6,5.6A25.63,25.63,0,0,0,82,53.42a28.32,28.32,0,0,1,2.46,7.32c.26,1.72-.26,2.75-1.86,3.29A17.67,17.67,0,0,1,71,59.35c-2-1.76-2.26-5.12-4.65-5.89S61.22,53,58.78,52l-.24-.12a1.82,1.82,0,0,0-2.19.39Q45,63,33.62,73.71l0,0-.62.57c-3,2.54-5.5,5.76-8.93,7.85a33,33,0,0,0-8.91-5.27c.22-.86.36-1.75.65-2.58q3.51-10,7.09-19.91c1.55-4.26,2.74-8.66,4.8-12.72A40,40,0,0,0,41,39Zm35.65,6.42c0-3.16-1.58-4.9-4.6-5C68.76,40.33,67,42,67,45.15s1.57,4.9,4.6,5C74.85,50.2,76.62,48.56,76.66,45.39ZM80.43,57c-.09-2-1.46-3-3.31-3-2.22,0-2.81,1.86-2.91,3.52a2.62,2.62,0,0,0,3,2.75A3,3,0,0,0,80.43,57ZM47.62,43.4c-.23,2.12,1.09,3,2.82,3.2,1.89.24,2.83-1.07,3-2.7.18-1.8-.92-2.79-2.72-2.94S47.76,41.48,47.62,43.4Zm1.54,8.73a2.42,2.42,0,0,0-2.46-2.5c-1.38,0-2.69.45-2.8,2.17s.65,2.9,2.31,3S48.75,53.77,49.16,52.13ZM39,48.42a1.67,1.67,0,0,0-1.89-2,1.83,1.83,0,0,0-1.82,1.9,1.86,1.86,0,0,0,1.85,2.14A1.72,1.72,0,0,0,39,48.42Zm22.06.47a1.43,1.43,0,0,0,1.47,1.53,1.55,1.55,0,0,0,1.6-1.48c.14-1-.52-1.46-1.45-1.49A1.44,1.44,0,0,0,61.09,48.89Z"/><path class="cls-8" d="M94.94,226.94c.13.6.25,1.21.38,1.82.4,1.89,0,3.16-2.12,3.89a72.68,72.68,0,0,1-19.61,3.83c-4.7.26-9.43.17-14.15.23H57.82a.65.65,0,0,0-.51-.06,97.07,97.07,0,0,1-17.94-2.55,5.26,5.26,0,0,1-3.6-2.46c-1.12-3.41-.59-6.39,2.42-8.6,1.31-.95.68-1.64.05-2.63-2.53-4-1.56-7.33,2.43-8.86,5.17.93,10.29,2.19,15.59,2.09A76.59,76.59,0,0,0,81,211.82l3.46-.55c5.8.6,7.37,3.52,4.68,8.85-.3.6-.37,1,.21,1.28C91.78,222.65,93.22,224.93,94.94,226.94Z"/><path class="cls-6" d="M54,100.26c.34-3.67,2.23-5.63,5.87-6.1.67-.09,1.39.19,1.89-.63,2.72-4.36,6.57-4.34,10.78-2.63,2.31-6.63,5.92-8.31,12.64-5.93a15.44,15.44,0,0,0,3,1.11c1.62.19,3.36.49,3.33-2.27,0-3.66,2.75-6.42,6.57-6.85a12.73,12.73,0,0,1,4.8.21c3.19,4.72,1.69,9.4-3.72,11.22a3.16,3.16,0,0,0-2.24,2.23c-1.86,5.13-5.69,7.82-11.08,8.35-.83.08-1.67-.19-2.26.92-2,3.9-5.71,4.87-9.73,4.89a6,6,0,0,0-3.52.87C63.92,109.79,56.71,107.38,54,100.26Z"/><path class="cls-9" d="M110.26,76.7c-4.12-10.82-8.38-21.57-13.38-32-.26-.75-.51-1.5-.89-2.61,5.92-.22,11.65-.47,17.39-.63,5.44-.15,5.51-.12,6.49,5.4,1.88,10.53,3.6,21.08,4.94,31.7.16,1.33,0,2-1.59,1.88a69.26,69.26,0,0,0-8-.27C112.56,80.25,110.66,79.64,110.26,76.7Z"/><path class="cls-9" d="M27.73,41.63c-2.06,4.06-3.25,8.46-4.8,12.72q-3.6,9.93-7.09,19.91c-.29.83-.43,1.72-.65,2.58-.48,1.89-1.72,2.36-3.58,2.21-3.29-.27-6.59-.38-9.89-.45-1.5,0-2-.31-1.57-2q5-19.69,9.81-39.43c.33-1.38.83-1.7,2.21-1.38,4.6,1.07,9.2,2.17,13.85,2.92C28.23,39.05,28.45,39.9,27.73,41.63Z"/><path class="cls-10" d="M11.64,308a75.58,75.58,0,0,0,6.08,7q16.77,15.5,37.68,6.56c7.88-3.34,14.48-8.59,20.72-14.34.82-.75,1.37-2,2.79-1.81-4.69,9.61-10.62,18.18-20.07,23.76-8.27,4.89-16.91,5.51-25.65,1.61C22.92,326.16,15.1,319.09,11.64,308Z"/><path class="cls-11" d="M99.38,262.79a24,24,0,0,1,.07-2.4c.57-4.36,3.32-6.6,8.29-3.84,2.43,3.21,1.64,6.61.61,10-.81,2.27-1.29,4.56-.45,6.93.24.69.63,1.39,1.35,1.51.93.16,1-.72,1.31-1.35.58-1.24.75-2.79,2.34-3.33,2.57,0,4.94.78,5.95,3.23a5,5,0,0,1-1.42,5.63c-2.3,2.18-5.09,2.41-8,1.58a8.2,8.2,0,0,1-4.08-2.92,2,2,0,0,0-3.21-.4c-1.59,1.21-3.66,1.82-4.7,3.72-1.23-1.57-3-1.12-4.86-1.24.11-1.37,1.55-2.76.3-3.9s-2.66-.58-4.11-.35c.08-1.32.15-2.51.22-3.7,4.33-.74,7.69-3.46,11.17-5.78C101.55,265.31,99.51,264,99.38,262.79Z"/><path class="cls-2" d="M94.94,226.94c-1.72-2-3.16-4.29-5.63-5.54-.58-.28-.51-.68-.21-1.28,2.69-5.33,1.12-8.25-4.68-8.85a21.84,21.84,0,0,0,8.9-8.56c.86.3,1.84,1.14,2.55.06.87-1.31-.69-1.93-1.12-2.88l1.68-5.18c1.62-.36,3.38.4,4.91-.65l1.23,2.15c-1.87.39-3.06,1.32-2.89,3.45.11,1.53,1.11,2.14,2.4,2.43s2-.62,3-1c2.63,6.37,1.92,12.54-1.11,18.57C101.57,222.86,99.11,226,94.94,226.94ZM105,206.24a1.26,1.26,0,1,0-2.51.25,1.16,1.16,0,0,0,1.18,1.16C104.52,207.72,105,207.24,105,206.24Zm-3,3c-.09-.67-.34-1.19-1.14-1.12a1.12,1.12,0,0,0-1.11,1.22,1.14,1.14,0,0,0,1.34,1.24C101.88,210.51,102,209.91,102,209.23Zm-1.72-3.9c-.05-.73-.41-1.14-1.16-1.12a1.15,1.15,0,1,0,1.16,1.12Z"/><path class="cls-7" d="M256.77,384.84c-.66-2-1-4.43-4.19-2.56-1,.57-1.54-.44-1.65-1.2a22.35,22.35,0,0,1-.12-4.25c.05-1,.72-1.45,1.7-1,2.3,1.14,3,0,3.13-2.1,1.72-1.2,2.91-3.07,5.11-3.72a8.76,8.76,0,0,1,9.13,14.36A9,9,0,0,1,259.3,386C258.48,385.6,258,384.49,256.77,384.84Z"/><path class="cls-7" d="M251.71,365.28c-.33-.06-.85-.28-1-.15-1.49,1.73-2.86,1.12-3.89-.37s-.39-2.95,1.24-3.84c.75-1.27-.18-2.5-.11-3.79a8.64,8.64,0,0,1,6-8,8.56,8.56,0,0,1,9.36,13.27,8.83,8.83,0,0,1-9.32,3.13C253.33,365.33,252.6,364.2,251.71,365.28Z"/><path class="cls-7" d="M248,404.52c-1.76-1.31-3.61-2.53-5.26-4s-1-3.72,1.31-5.75c1.67-1.46,3-1.08,4.19.62,1.05,1.53,2,3.13,4,3.71.1,2.09.92,2.75,3.1,2.07,4.24-1.33,8.3,1.36,9.16,5.82.71,3.74-2.38,7.75-6.32,8.21a6.92,6.92,0,0,1-7.94-7C250.26,406.36,250,405.05,248,404.52Z"/><path class="cls-12" d="M246.57,186.83c-1.39,3.84-2.8,7.67-4.14,11.53-.38,1.09-.75,1.84-2.18,1.82s-1.52-1-1.83-1.86a77.1,77.1,0,0,0-4.56-11.07c0,3.62,0,7.23,0,10.85,0,.92.35,2-1.29,2.06s-1.51-1-1.51-2.12c0-4.75,0-9.49,0-14.23,0-.87-.47-2.24,1.2-2.08,1.32.13,3-.85,3.69,1.47,1.15,3.85,2.62,7.6,4,11.38.1.3.24.59.65,1.56,1.61-4.52,3.2-8.36,4.34-12.32.77-2.69,2.61-2.12,4.4-2.09.91,0,.81.78.81,1.39,0,5.2,0,10.39,0,15.58,0,1.31-.61,1.42-1.64,1.44s-1.53-.41-1.51-1.57c.05-3.91,0-7.83,0-11.75Z"/><path class="cls-7" d="M208.32,356.26c.41,1.12,2.65,1.78.81,3.49s-3.22,1.41-4.61-.39c.29-2.69-1.68-4.58-2.48-6.89-.27-.78-1.06-.29-1.66-.24a7.34,7.34,0,0,1-8.12-6.13,7.42,7.42,0,0,1,6.21-8.1,7.26,7.26,0,0,1,8,6,6.14,6.14,0,0,1-1.49,5.49c-1.07,1.17-.8,1.94.07,2.91C206.14,353.67,207.22,355,208.32,356.26Z"/><path class="cls-13" d="M241.86,273.84c1.61-4.45,3.28-8.32,4.37-12.35.67-2.46,2.14-2.5,4-2.3,2.1.22,1.11,1.92,1.13,2.93.11,4.55,0,9.11.06,13.67,0,1.07,0,1.91-1.49,1.9s-1.42-.95-1.42-1.95c0-4,0-8-.33-12-1.42,3.89-2.82,7.78-4.26,11.66-.38,1-.33,2.28-2,2.35-1.89.08-1.88-1.37-2.27-2.44-1.38-3.82-2.67-7.68-4.42-11.46,0,3.86,0,7.72,0,11.58,0,.91.61,2.25-1.28,2.3s-1.39-1.23-1.4-2.2c0-4.56-.07-9.12,0-13.67,0-.92-.93-2.56,1.14-2.64,1.64-.06,3.18-.41,3.85,2.05C238.61,265.34,240.26,269.31,241.86,273.84Z"/><path class="cls-13" d="M191.9,66.74c1.69-4.7,3.28-8.68,4.51-12.77.69-2.28,2.24-1.84,3.77-1.81,2.11,0,1.16,1.7,1.18,2.6.1,4.65,0,9.31,0,14,0,1.06,0,1.86-1.48,1.86s-1.43-.9-1.43-1.92c0-4,0-8-.29-12.19q-2.19,6.06-4.39,12.1c-.35,1-.43,2-2,2s-1.7-1-2.05-2a111,111,0,0,0-4.59-11.75V68.67c0,1,.24,1.93-1.39,1.9s-1.31-1.07-1.31-2c0-4.66-.06-9.31,0-14,0-.83-.88-2.4,1-2.45,1.55,0,3.26-.68,4,1.88C188.63,58.17,190.27,62.14,191.9,66.74Z"/><path class="cls-12" d="M183.35,264.5c0,3.63,0,7.26,0,10.88,0,1,.49,2.27-1.33,2.32s-1.45-1.17-1.45-2.2c0-4.65,0-9.3,0-13.95,0-.84-.61-2.2.94-2.34,1.25-.12,2.6-.46,3.51,1.11,2.25,3.85,4.65,7.61,7,11.41.23.37.48.74,1.08,1.65,0-4.48,0-8.4,0-12.32,0-.8-.39-1.82,1.1-1.94s1.75.59,1.74,1.87c-.05,4.74,0,9.48-.06,14.21,0,.83.71,2.21-.81,2.41-1.33.17-2.75.49-3.72-1.22-2.12-3.72-4.45-7.32-6.71-11-.22-.36-.5-.7-.75-1Z"/><path class="cls-13" d="M299.32,65.19c0-3.53,0-7.07,0-10.6,0-1-.72-2.45,1.36-2.48,2.24,0,1.49,1.55,1.5,2.61q.09,6.7,0,13.4c0,.82.72,2.21-.87,2.36-1.34.12-2.77.45-3.73-1.23-2.07-3.64-4.34-7.17-6.53-10.74-.41-.66-.87-1.29-1.54-2.28,0,4.44,0,8.43,0,12.41,0,1,.29,2-1.36,1.93s-1.36-1-1.36-2c0-4.65,0-9.29,0-13.94,0-.82-.74-2.21.76-2.42,1.31-.19,2.76-.58,3.74,1.13,2.09,3.63,4.38,7.15,6.6,10.71.26.43.58.83.87,1.24Z"/><path class="cls-13" d="M199.45,186.64c0,3.92,0,7.81,0,11.69,0,.91.14,1.77-1.27,1.81s-1.52-.74-1.51-1.84c0-4.74,0-9.48,0-14.21,0-.81-.7-2.22.9-2.32,1.22-.08,2.58-.55,3.51,1.07,2.18,3.79,4.54,7.47,6.83,11.19.31.5.66,1,1.27,1.88,0-4.54,0-8.51,0-12.49,0-1.16.15-1.77,1.56-1.75s1.28.85,1.28,1.74c0,4.74,0,9.47,0,14.21,0,.82.7,2.19-.74,2.41s-2.89.48-3.9-1.33c-2-3.66-4.34-7.18-6.56-10.74C200.52,187.47,200.4,186.77,199.45,186.64Z"/><path class="cls-13" d="M276.59,272.43c0-3.7,0-7.4,0-11.1,0-1-.38-2.19,1.43-2.2s1.47,1.15,1.47,2.18c0,4.65,0,9.29,0,13.94,0,.84.62,2.2-.93,2.35-1.25.12-2.63.46-3.54-1.09-2.2-3.77-4.53-7.47-6.81-11.2-.28-.45-.6-.86-1.34-1.94,0,4.42,0,8.18,0,11.93,0,1,.59,2.47-1.46,2.37s-1.19-1.48-1.2-2.36c-.06-4.56-.07-9.11,0-13.67,0-.83-.68-2.2.79-2.41,1.32-.18,2.71-.46,3.69,1.25,2.34,4.09,4.92,8,7.41,12.07Z"/><path class="cls-7" d="M203.62,405.07c3.58,1.18,4.39.92,5.86-2.45.79-1.79,1.76-1,2.72-.42,1.12.64,3,1.6,1.46,2.9-2.52,2.18-1.79,4.16-.54,6.41-1.47,5.62-3,7-7.89,7.4-5.79-2.28-7.63-7.32-4.21-11.32C201.82,406.66,203.29,406.45,203.62,405.07Z"/><path class="cls-13" d="M226,56.92c0,3.92,0,7.84,0,11.76,0,1,.21,1.92-1.4,1.89s-1.3-1.08-1.31-2c0-4.65,0-9.3,0-13.94,0-.82-.74-2.21.73-2.43s2.88-.46,3.89,1.35c2.08,3.74,4.44,7.32,6.69,11,.22.35.47.69,1.1,1.61,0-4.43,0-8.2,0-12,0-.71-.44-1.78.75-2,1-.16,2.18-.37,2.16,1.4-.05,5.19,0,10.37,0,15.55,0,.63.05,1.38-.86,1.35-1.33-.06-2.74.49-3.72-1.22-2.43-4.23-5.06-8.35-7.61-12.51Z"/><path class="cls-13" d="M174.39,298.88c2.61,1.28,3.53,3.09,2.94,5.6s-2.48,3.6-4.84,4c-7.85,1.21-8.28.83-8.28-6.93,0-3.12.06-6.25,0-9.37,0-1.41.24-2.15,1.87-2,1.95.15,3.93,0,5.89.14s3.94.62,4.7,2.86S176.74,297.3,174.39,298.88Zm-7,4.11c-.11,1.67-.43,3.2,2.24,3,3.29-.25,4.87-1,4.68-3-.28-2.89-2.62-2.54-4.63-2.82C167.12,299.79,167.19,301.33,167.39,303Zm1.88-5.15c2.39-.14,4.62-.06,4.47-2.78s-2.56-2.15-4.32-2.42c-2.3-.35-2,1.17-2.1,2.64C167.18,297.18,167.58,298.27,169.27,297.84Z"/><path class="cls-13" d="M151.33,308.81c-5.42-.21-8.65-4.08-8.34-10s3.57-9.24,9-9,8.69,4.12,8.38,10S156.73,309,151.33,308.81Zm.42-16.39c-3.51,0-5.45,2.35-5.5,6.77s1.83,7,5.23,7.07c3.56.11,5.65-2.46,5.65-6.95S155.22,292.45,151.75,292.42Z"/><path class="cls-13" d="M331.85,195.83c0-4.5,0-8.39,0-12.29,0-1-.15-1.9,1.43-1.88s1.38,1,1.38,2c0,4.73,0,9.47,0,14.2,0,.76.61,2.05-.72,2.2s-2.76.59-3.75-1.12c-2.22-3.87-4.63-7.63-7-11.43-.18-.29-.42-.55-1.06-1.39,0,4.42,0,8.25,0,12.08,0,.65.39,1.59-.59,1.83s-2.15.49-2.13-1.31c.06-5.18,0-10.36,0-15.55,0-.57-.19-1.42.77-1.36,1.23.08,2.61-.63,3.55,1,2.15,3.7,4.45,7.32,6.7,11C330.78,194.28,331.17,194.82,331.85,195.83Z"/><path class="cls-13" d="M315.3,190.82c.05,6.06-3.17,9.65-8.65,9.64S298.07,197,298,191s3.2-9.63,8.69-9.61S315.26,184.87,315.3,190.82Zm-3.24-.15c0-.35,0-1-.1-1.6-.4-3.25-2.2-5-5.17-5.09-2.76-.07-4.67,1.59-5.32,4.65a10.71,10.71,0,0,0,.33,5.83,5.25,5.25,0,0,0,8.38,2.16C311.85,195.11,312.05,193.05,312.06,190.67Z"/><path class="cls-13" d="M176.68,268.48c0,6-3.12,9.4-8.55,9.43s-8.75-3.47-8.75-9.54S162.49,259,168,259C173.58,259,176.7,262.35,176.68,268.48Zm-3.25-.13c0-5-2.35-7.4-6.43-6.7-2.74.46-4.22,2.55-4.37,6.18-.17,3.88,1.21,6.6,3.7,7.28a5.39,5.39,0,0,0,.79.12C171.26,275.74,173.44,273.36,173.43,268.35Z"/><path class="cls-13" d="M265.67,61.22c0-5.92,3.16-9.39,8.57-9.43S283,55.36,283,61.38s-3.24,9.4-8.63,9.44S265.67,67.34,265.67,61.22Zm3.27.62A10.29,10.29,0,0,0,269,63.2c.43,3.22,2.32,5,5.23,5.06s4.7-1.6,5.29-4.69a11.1,11.1,0,0,0-.45-6.09,4.6,4.6,0,0,0-4.32-3.06,4.9,4.9,0,0,0-5,2.49C269.07,58.18,268.92,59.61,268.94,61.84Z"/><path class="cls-13" d="M337.23,277.48c-2.32.1-4.65.41-7-.19,0-5.35.09-10.69,0-16,0-1.63.44-2.26,2.1-2.11,1.86.16,3.76-.05,5.6.23,5,.77,7.47,3.94,7.4,9.13s-2.62,8.15-7.66,8.92A.42.42,0,0,0,337.23,277.48Zm-3.74-9c0,1.7,0,3.39,0,5.08,0,.66-.22,1.51.92,1.53,2.36,0,4.78,0,6.35-2.06,1.93-2.46,1.77-5.33.77-8.12-.84-2.32-2.85-2.93-5.11-3.15-2.08-.2-3.44.09-3,2.73A24.12,24.12,0,0,1,333.49,268.49Z"/><path class="cls-13" d="M187.2,169c-2.56.91-3.8-.21-4.74-2.11-.68-1.35-1.61-2.57-2.32-3.91s-1.73-1.15-2.78-1c-1.25.17-.69,1.25-.74,1.94a33.69,33.69,0,0,0,0,3.76c0,1-.15,1.66-1.44,1.64s-1.78-.29-1.76-1.64c.06-5.1,0-10.2,0-15.29,0-1.12.34-1.66,1.52-1.61a45.91,45.91,0,0,1,6.42.27c2.13.39,3.7,1.46,4.21,3.59s.22,4.24-1.72,5.52c-1.44.94-1.43,1.64-.5,2.91C184.69,164.94,185.87,166.94,187.2,169Zm-10.62-12.94c0,3.38,0,3.38,1.94,3.37,2.78,0,4.08-1,4-3.13s-1.42-2.87-4.21-3C175.73,153.17,176.84,155,176.58,156.08Z"/><path class="cls-13" d="M176.81,199.8c-2.37.8-3.68.09-4.6-1.82-.69-1.44-1.72-2.72-2.47-4.15-.62-1.18-1.63-.9-2.57-.86-1.34.05-.8,1.15-.85,1.84a31.24,31.24,0,0,0,0,3.49c.06,1.13-.12,1.83-1.55,1.84s-1.67-.41-1.65-1.69c.07-5,.06-10,0-15,0-1.2.21-1.83,1.6-1.72,2.13.17,4.29-.18,6.42.28s3.61,1.51,4.12,3.71,0,4.21-1.86,5.46c-1.34.88-1.32,1.52-.49,2.69C174.24,195.71,175.45,197.7,176.81,199.8ZM166.3,187.24c0,3.07,0,3.07,1.93,3.07,2.72,0,4.16-1.11,4-3.18-.17-2.6-2.12-2.64-4.07-2.81C165.35,184.06,166.59,186.15,166.3,187.24Z"/><path class="cls-13" d="M158.42,61.17c0,2.6,0,5.19,0,7.78,0,1.07-.19,1.62-1.45,1.62s-1.58-.5-1.46-1.6a3.25,3.25,0,0,0,0-.54c-.13-6.87-.12-6.83-7.1-6.24-1.2.1-1.51.53-1.47,1.62.05,1.7,0,3.4,0,5.09,0,1.06-.16,1.65-1.43,1.66s-1.7-.38-1.69-1.68c.07-5,.06-10,0-15,0-1.21.27-1.79,1.63-1.75s1.58.56,1.47,1.64a1.22,1.22,0,0,0,0,.27c.2,1.82-.88,4.58.53,5.26,1.89.92,4.52.32,6.83.38,1.19,0,1.21-.75,1.21-1.61,0-1.43,0-2.86,0-4.29,0-1,.11-1.67,1.41-1.65s1.55.41,1.52,1.56C158.38,56.17,158.42,58.67,158.42,61.17Z"/><path class="cls-13" d="M194.21,199.83c-2.43.88-3.69,0-4-2.18-.5-3.74-3.33-2.44-5.51-2.76-2.42-.36-3,1.05-3.51,2.93-.24.89-.15,2.28-1.75,2.3-1.34,0-2.31,0-1.58-1.84,2-5.05,3.84-10.15,5.68-15.26a1.93,1.93,0,0,1,2.16-1.45c1.25,0,2.07.27,2.3,1.61a6.41,6.41,0,0,0,.38,1C190.32,189.34,192.23,194.5,194.21,199.83Zm-8.34-15.16a42.22,42.22,0,0,0-2.49,7.58h5Z"/><path class="cls-13" d="M228.17,277.63c-1.53.32-1.63-1-2-1.9-.49-1.11-.32-2.9-1.64-3.13a28.72,28.72,0,0,0-6.15,0c-.58,0-.68.75-.86,1.24-.32.93-.66,1.85-.94,2.79-.46,1.53-1.74,1.18-2.67,1-1.45-.31-.33-1.32-.14-1.85,1.8-5,3.74-10,5.52-15.08a2.13,2.13,0,0,1,2.32-1.61c1.38-.08,1.84.59,2.24,1.69,1.83,5,3.66,10.06,5.58,15.06C229.9,277.14,229.93,277.86,228.17,277.63Zm-9.25-7.88h5.2l-2.6-7.69Z"/><path class="cls-13" d="M297.15,277.64c-1.87.28-2.08-1.32-2.22-2.4-.44-3.58-3.05-2.57-5.22-2.84-2.36-.29-3.45.69-3.83,2.87a5.21,5.21,0,0,1-.65,1.75c-.65,1.12-1.84.77-2.65.52-1.1-.34-.18-1.24,0-1.76,1.82-5,3.77-10,5.57-15.06a2.07,2.07,0,0,1,2.26-1.69,2,2,0,0,1,2.27,1.67c1.81,5,3.69,10.05,5.59,15.05C298.74,277,299,277.89,297.15,277.64Zm-4.06-7.88c-.91-2.61-1.71-4.89-2.69-7.66-1,2.91-1.75,5.22-2.57,7.66Z"/><path class="cls-13" d="M161.55,169.28c-1.67.35-1.73-1-2.21-2s-.31-2.89-1.6-3.12a28,28,0,0,0-6.14,0c-.57,0-.69.7-.85,1.22-.32,1-.66,2-1,3-.54,1.46-1.85,1-2.74.82-1.07-.28-.28-1.18-.07-1.76,1.86-5.1,3.78-10.17,5.6-15.28a2.12,2.12,0,0,1,2.38-1.55,1.9,1.9,0,0,1,2.07,1.57c1.87,5.18,3.78,10.36,5.76,15.5C163.25,169,163,169.48,161.55,169.28Zm-9.33-8.08a15.38,15.38,0,0,0,5.11,0l-2.57-7.56Z"/><path class="cls-14" d="M51.57,270.92a6,6,0,0,1-6.22,4.16,6.77,6.77,0,0,1-6.48-4.75c-.4-4.7,1.92-7.43,6.24-7.35S51.94,266.1,51.57,270.92Z"/><path class="cls-13" d="M188.93,299.11c0-2.41,0-4.82,0-7.23,0-1.16.09-1.84,1.54-1.77,2.49.11,5,.05,7.5,0,.85,0,1.33.16,1.33,1.16s-.3,1.49-1.38,1.43-2.14,0-3.21,0a2.87,2.87,0,0,0-2.66,4.36c.38.75,1,.56,1.62.58,1.34,0,2.68,0,4,0,.93,0,1.26.37,1.26,1.27s-.37,1.32-1.26,1.31a24.16,24.16,0,0,1-2.95,0c-2.18-.29-2.84.47-2.89,2.74-.06,2.53.77,3.31,3.14,3,1-.14,2,0,2.94,0s1.35.46,1.37,1.43-.33,1.24-1.25,1.22c-2.59,0-5.18-.07-7.76,0-1.37.05-1.36-.71-1.35-1.67C188.94,304.29,188.93,301.7,188.93,299.11Z"/><path class="cls-13" d="M316.93,268.11c0-2.41,0-4.82,0-7.23,0-1.16.09-1.84,1.54-1.77,2.49.11,5,.05,7.5,0,.85,0,1.33.16,1.33,1.16s-.3,1.49-1.38,1.43-2.14,0-3.21,0a2.87,2.87,0,0,0-2.66,4.36c.38.75,1,.56,1.62.58,1.34,0,2.68,0,4,0,.93,0,1.26.37,1.26,1.27s-.37,1.32-1.26,1.31a24.16,24.16,0,0,1-2.95,0c-2.18-.29-2.84.47-2.89,2.74-.06,2.53.77,3.31,3.14,3,1-.14,2,0,2.94,0s1.35.46,1.37,1.43-.33,1.24-1.25,1.22c-2.59,0-5.18-.07-7.76,0-1.37.05-1.36-.71-1.35-1.67C316.94,273.29,316.93,270.7,316.93,268.11Z"/><path class="cls-13" d="M336.22,70.28c-2.36.76-3.69.1-4-2.2-.45-3.6-3.19-2.6-5.44-2.89-2.41-.3-3.18,1-3.54,2.92-.41,2.2-1.6,3-3.93,2.11,2.12-5.69,4.25-11.36,6.31-17.06.44-1.25,1.32-1.17,2.32-1.24,1.27-.1,1.67.62,2,1.63C332,59.08,334.11,64.59,336.22,70.28ZM327.8,55c-.6,1.74-1.08,3.07-1.54,4.41-1.26,3.63-1.78,3.32,2.6,3.39,1.26,0,1.58-.35,1.09-1.58C329.2,59.28,328.61,57.32,327.8,55Z"/><path class="cls-13" d="M203.9,70.32c2.16-5.78,4.34-11.5,6.41-17.25.43-1.16,1.21-1.09,2.1-1.13s1.67.1,2.06,1.19c1.95,5.35,4,10.67,5.95,16,.17.44.62,1.19-.12,1.3-.89.13-2,.52-2.74-.4a3.14,3.14,0,0,1-.58-1.48c-.36-2.73-1.81-3.45-4.54-3.43s-4.38.56-4.74,3.49C207.41,70.89,205.78,70.73,203.9,70.32ZM212.36,55c-.58,1.7-1,3.13-1.54,4.54-1.19,3.36-.91,3.64,2.76,3.23,1.15-.13,1.37-.55,1-1.53C213.89,59.24,213.17,57.24,212.36,55Z"/><path class="cls-13" d="M163.14,59c0-1.52,0-3,0-4.57,0-1-.51-2.37,1.52-2.31s1.43,1.44,1.45,2.46c.08,3.13,0,6.27.12,9.39s1.38,4.19,4,4.3,4.23-1.14,4.43-4.18c.23-3.39.17-6.79.15-10.19,0-1.17.19-1.81,1.59-1.77s1.34.78,1.34,1.74c0,3.57.08,7.16,0,10.73-.14,3.85-3,6.2-7.28,6.24s-7.09-2.3-7.29-6.21C163.06,62.74,163.14,60.86,163.14,59Z"/><path class="cls-7" d="M235.26,352.84c-1.15.48-.09,2.78-2.06,2.56-2.34-.27-2.65-1.64-1.81-3.55,1.36-1.71,2-3.16.16-5.26-2.23-2.54-1.13-6.36,1.8-8a5.49,5.49,0,0,1,7.63,2.65c1.29,3-.06,6.49-3.27,7.28C235.05,349.2,234.77,350.66,235.26,352.84Z"/><path class="cls-13" d="M280.22,200.49c-.75-.14-2.08-.33-3.38-.62s-1.32-1.36-1.11-2.33c.33-1.5,1.25-.36,1.85-.25a12.16,12.16,0,0,0,4.76.45,2.45,2.45,0,0,0,2.2-2,2.26,2.26,0,0,0-1.24-2.47c-1.25-.68-2.58-1.2-3.84-1.85-2.7-1.38-3.94-3.59-3.42-6,.49-2.28,2.45-3.74,5.41-3.93a13,13,0,0,1,4.74.7c.89.28,1.15.67.72,1.54-.31.63-.33,1.4-1.43,1a13.63,13.63,0,0,0-3.39-.7c-1.27-.06-2.56.22-3,1.73s.39,2.39,1.61,3c1,.48,1.94.91,2.91,1.36,3.22,1.51,4.38,3.27,3.89,5.91s-2.36,4-5.67,4.37C281.52,200.45,281.16,200.45,280.22,200.49Z"/><path class="cls-7" d="M223.66,413.78a2.57,2.57,0,0,0,2.14-1.24c3-4.48,7.28-4.6,10.5-.37,1.28,2.68,1.11,5.24-1.06,7.35a5.8,5.8,0,0,1-6.66,1.15,5.57,5.57,0,0,1-3.48-4.7C225,414.88,224.68,414.16,223.66,413.78Z"/><path class="cls-13" d="M237.47,308.82c-.61-.11-1.92-.32-3.23-.58s-1.33-1.36-1.13-2.32c.32-1.52,1.23-.32,1.85-.24,1.67.22,3.28.88,5,.38a2.5,2.5,0,0,0,2-1.94,2.21,2.21,0,0,0-1.21-2.47c-1.17-.64-2.41-1.14-3.61-1.73-3-1.47-4.26-3.67-3.59-6.4.55-2.26,2.78-3.74,5.85-3.7a19.14,19.14,0,0,1,3.95.64c.77.18,1.49.49,1,1.64-.37.88-.66,1.31-1.73.92a8.31,8.31,0,0,0-3.67-.6,2.56,2.56,0,0,0-2.44,1.76,2.28,2.28,0,0,0,1.21,2.71,21.28,21.28,0,0,0,2.88,1.4c3.72,1.66,4.89,3.4,4.28,6.42C244.35,307.33,241.94,308.82,237.47,308.82Z"/><path class="cls-13" d="M266.51,200.6c-1.31-.26-2.64-.45-3.93-.78s-1.19-1.5-1-2.41c.31-1.27,1.13-.29,1.69-.17a14.81,14.81,0,0,0,4.49.57,2.67,2.67,0,0,0,2.61-1.94,2.35,2.35,0,0,0-1.5-2.81c-1.2-.6-2.44-1.09-3.62-1.7-2.71-1.42-3.86-3.53-3.27-6.08.63-2.73,2.74-3.56,5.19-3.81a12,12,0,0,1,4.74.63c.81.25,1.29.56.9,1.51-.32.76-.42,1.53-1.64,1.08a11.22,11.22,0,0,0-3.39-.67,2.51,2.51,0,0,0-2.86,1.91,2.43,2.43,0,0,0,1.59,2.78c.95.48,1.93.92,2.9,1.37,3.42,1.6,4.44,3.18,3.93,6.12-.42,2.45-2.41,3.91-5.77,4.23-.35,0-.71,0-1.07,0Z"/><path class="cls-13" d="M216,196.77c2,.57,3.87,1.27,5.88,1,1.23-.15,2.3-.58,2.6-1.93a2.43,2.43,0,0,0-1.5-2.85c-1.19-.6-2.45-1.07-3.64-1.68-2.53-1.31-3.81-3.61-3.33-5.84.52-2.39,2.36-3.81,5.35-4a12.42,12.42,0,0,1,4.75.67c.84.26,1.22.64.83,1.55-.33.75-.49,1.45-1.69,1a11.05,11.05,0,0,0-3.66-.64,2.32,2.32,0,0,0-2.47,1.69,2.37,2.37,0,0,0,1.35,2.9c1.34.71,2.77,1.25,4.12,1.94,2.09,1.08,3.33,2.72,3,5.18s-1.84,3.75-4.14,4.35a13.24,13.24,0,0,1-5.32.08C216.09,199.89,215.18,199.07,216,196.77Z"/><path class="cls-13" d="M152.21,277.91c-4.57,0-7.19-1.68-8.4-4.8-1.62-4.15-.72-9.54,2-12,2.3-2.12,7.31-2.77,10.15-1.46.92.43,1,.92.64,1.67s-.54,1.4-1.53,1l-.25-.09c-2.61-.89-5.21-1.19-7.09,1.29-2,2.66-1.89,5.73-.82,8.7s3.51,3.67,7.48,2.92c.71-.13,1.76-1.18,2.05.48.21,1.17-.27,1.85-1.55,2S152.6,277.85,152.21,277.91Z"/><path class="cls-13" d="M341,61.4c0,5.3,2.64,7.44,7.88,6.59.67-.11,1.9-1.47,2.31.38.35,1.59-.68,2-2,2.16-3.78.55-7.41.56-9.87-3-2.21-3.23-2.1-9,.11-12.25s7.84-4.47,11.41-2.67c1,.52.64,1,.45,1.66-.36,1.34-1.1,1-2,.72-5.14-1.44-8.19.86-8.28,6.18Z"/><path class="cls-13" d="M252.46,61.48c0,5.22,2.72,7.36,8,6.5.65-.11,1.93-1.43,2.24.52.23,1.46-.68,1.79-1.85,2-4.59.91-8.21-.2-10.05-3.14-2.21-3.51-1.93-9.48.58-12.66,2.25-2.84,8-3.88,11.09-2.1.78.45.76.87.43,1.48s-.27,1.33-1.19,1.14c-.26-.05-.49-.21-.75-.27C255.43,53.6,252.42,55.92,252.46,61.48Z"/><path class="cls-13" d="M211.37,308.81c-4.28-.05-6.78-1.64-8-4.83-1.63-4.14-.76-9.55,1.94-12,2.38-2.18,7.07-2.82,10.11-1.44.77.35,1.22.66.74,1.56-.36.68-.43,1.31-1.67,1-6.81-1.46-10.11,2.14-8.37,9,.91,3.56,3,4.54,8.06,3.79.58-.08,1.62-1,1.77.59.09,1-.17,1.75-1.28,2-.18,0-.35.07-.53.09C213.05,308.63,212,308.74,211.37,308.81Z"/><path class="cls-4" d="M29.47,89.29c5.76-2.73,10.64-6.76,15.63-10.61,1.59-1.23,3.12-2.53,5.29-4.3-1.29,3.86-3.7,6-5.65,8.4A159,159,0,0,1,33.49,94.61a11,11,0,0,0-1,1.27C29.29,94.72,29.64,91.89,29.47,89.29Z"/><path class="cls-12" d="M223,300.58c0-1,0-2,0-2.94,0-1.43.38-3.07-.19-4.23-.71-1.45-2.55-.51-3.89-.66-.87-.09-1.29-.38-1.29-1.29s.21-1.35,1.19-1.34c3.83,0,7.67,0,11.51,0,1,0,1.2.43,1.19,1.3s-.21,1.28-1.19,1.34c-1.37.09-3.23-.72-4,.59-.61,1.1-.21,2.79-.21,4.21,0,3.12,0,6.25,0,9.37,0,1,0,1.7-1.38,1.66-1.15,0-1.86-.16-1.8-1.57C223.07,304.87,223,302.72,223,300.58Z"/><path class="cls-12" d="M358.4,62.5V59c0-3.89,0-3.92-3.89-4.27-1-.08-1.47-.3-1.49-1.38s.64-1.27,1.54-1.26c3.66,0,7.32,0,11,0,1,0,1.43.34,1.39,1.38s-.39,1.16-1.28,1.27c-4.11.48-4.11.52-4.11,4.61,0,3.12,0,6.25,0,9.37,0,1,.1,1.87-1.45,1.86s-1.76-.66-1.72-1.94C358.46,66.6,358.4,64.55,358.4,62.5Z"/><path class="cls-7" d="M283.78,327.2a5.35,5.35,0,0,1-5.47-5.65,5.5,5.5,0,1,1,11,0A5.29,5.29,0,0,1,283.78,327.2Z"/><path class="cls-7" d="M259.12,308.88a5.45,5.45,0,0,1-5.51-5.65,5.51,5.51,0,1,1,11,0A5.26,5.26,0,0,1,259.12,308.88Z"/><path class="cls-7" d="M288.55,385.17a5.36,5.36,0,0,1,5.61,5.55,5.51,5.51,0,0,1-5.53,5.67,5.61,5.61,0,0,1-.08-11.22Z"/><path class="cls-12" d="M304.67,269.67c0-1.08,0-2.15,0-3.22,0-1.43.4-3.13-.24-4.21s-2.48-.32-3.78-.42c-.81-.06-1.36-.17-1.36-1.17s.23-1.52,1.34-1.51c3.75,0,7.51.05,11.26,0,1.16,0,1.29.57,1.31,1.48s-.39,1.2-1.28,1.21c-1.32,0-3.27-.62-3.83.31-.68,1.13-.26,2.94-.27,4.45,0,2.86,0,5.72,0,8.58,0,1.11.6,2.62-1.61,2.56s-1.43-1.62-1.49-2.69C304.6,273.25,304.67,271.45,304.67,269.67Z"/><path class="cls-12" d="M184.15,300.13c0,2.95.15,5.9,0,8.83a4.91,4.91,0,0,1-6.16,4.62,1.28,1.28,0,0,1-1.17-1.45c0-.93.33-1.25,1.3-1.13,2.48.29,3-1.27,3-3.32,0-5.18,0-10.36,0-15.54,0-1.14-.1-2.05,1.57-2.07s1.59.9,1.58,2c0,2.68,0,5.36,0,8Z"/><path class="cls-13" d="M310.36,62.65c0-2-.11-3.94,0-5.89.12-1.65-.42-2.29-2.07-2.08a19.38,19.38,0,0,1-2.41,0c-.91,0-.93-.62-.92-1.28s-.05-1.26.9-1.26c4,0,8,0,12,0,.89,0,1,.57,1,1.25s-.12,1.26-1,1.28a4.78,4.78,0,0,0-.53,0c-3.87.37-3.87.37-3.87,4.27,0,3.3,0,6.6,0,9.9,0,1.27-.39,1.66-1.67,1.7-1.44,0-1.57-.63-1.54-1.77C310.4,66.75,310.36,64.7,310.36,62.65Z"/><path class="cls-13" d="M204.06,269.55c0-1,0-2,0-3,0-1.43.44-3.12-.17-4.22-.73-1.31-2.58-.44-3.94-.55-.88-.08-1.3-.32-1.26-1.26s.17-1.4,1.16-1.39c3.84,0,7.69,0,11.54,0,1.2,0,1.19.7,1.23,1.57,0,1.09-.64,1-1.39,1.08-4,.34-4,.36-4,4.36,0,3.22,0,6.44,0,9.66,0,1.07,0,1.87-1.48,1.88s-1.75-.71-1.71-2C204.11,273.66,204.06,271.6,204.06,269.55Z"/><path class="cls-13" d="M151.94,191.93c0-1,0-2,0-2.94,0-1.42.39-3.11-.24-4.19s-2.46-.36-3.75-.44c-1-.06-1.38-.42-1.4-1.45,0-1.23.73-1.2,1.57-1.2,3.66,0,7.32,0,11,0,1,0,1.43.24,1.41,1.33s-.52,1.25-1.47,1.33c-3.93.29-3.93.33-3.93,4.41,0,3.21,0,6.43,0,9.64,0,1.2-.23,1.75-1.6,1.73s-1.65-.57-1.61-1.78C152,196.22,151.94,194.08,151.94,191.93Z"/><path class="cls-14" d="M68.11,33.94c-4.5,1.58-7,.36-8.31-4,.07-2.73,1.11-4.88,3.93-5.58a5.06,5.06,0,0,1,5.8,2.19C71,28.68,70.45,31.28,68.11,33.94Z"/><path class="cls-4" d="M39,96.85c1.56-1.91,4.15-1.82,6.06-3.1,3.3-2.22,6.7-4.29,10.31-6.23a53.13,53.13,0,0,1-10.47,13.13C42.29,100.42,40.19,99.35,39,96.85Z"/><path class="cls-12" d="M168.85,160.05c0,2.5,0,5,0,7.5,0,1.16-.21,1.79-1.6,1.81s-1.58-.65-1.57-1.8q.06-7.5,0-15c0-1.14.14-1.83,1.56-1.82s1.64.63,1.62,1.81C168.81,155.05,168.85,157.55,168.85,160.05Z"/><path class="cls-12" d="M254.9,190.83c0-2.5,0-5,0-7.49,0-1,0-1.72,1.36-1.67,1.13,0,1.83.12,1.81,1.56q-.09,7.62,0,15.25c0,1.33-.48,1.63-1.71,1.69-1.51.06-1.49-.78-1.47-1.84C254.92,195.83,254.9,193.33,254.9,190.83Z"/><path class="cls-13" d="M256.18,268.27c0-2.5.06-5,0-7.5,0-1.36.56-1.62,1.76-1.64s1.45.59,1.44,1.63q0,7.65,0,15.28c0,1.06-.17,1.67-1.44,1.65s-1.8-.27-1.76-1.65C256.24,273.46,256.18,270.86,256.18,268.27Z"/><path class="cls-13" d="M294.26,190.9c0,2.58-.05,5.17,0,7.75,0,1.23-.48,1.49-1.58,1.47s-1.64-.24-1.63-1.48q.07-7.75,0-15.51c0-1.27.59-1.42,1.63-1.44s1.62.21,1.58,1.45C294.21,185.73,294.26,188.31,294.26,190.9Z"/><path class="cls-15" d="M16.65,283.89a20.16,20.16,0,0,1,2.08.43,3.9,3.9,0,0,1,2.82,3.77,3.85,3.85,0,0,1-2.47,4,4,4,0,0,1-4.66-.75,11.89,11.89,0,0,1-1.23-1.72C12.81,286.79,13.86,284.82,16.65,283.89Z"/><path class="cls-7" d="M218.49,351.88c.16.4.53.87.44,1.2-.27,1,1.58,2.4-.17,2.91-1.56.45-2.47-.9-2.92-2.35a3.34,3.34,0,0,1-.06-.78,3.18,3.18,0,0,0-.85-3.39,2.64,2.64,0,0,1,.06-4.05,2.45,2.45,0,0,1,3.61-.18,2.67,2.67,0,0,1,.4,4A2.24,2.24,0,0,0,218.49,351.88Z"/><path class="cls-6" d="M101.85,187.87a3,3,0,0,1,3.47-2.92,3.66,3.66,0,0,1,3.62,3.82c0,2.14-1.39,3-3.3,3A3.72,3.72,0,0,1,101.85,187.87Z"/><path class="cls-6" d="M98.09,186.15c-2,1.14-4,2.26-6,3.45-.91.54-1.69.64-2.26-.36s.13-1.5.84-1.94c2.64-1.64,5.29-3.26,7.94-4.89,1-.26,2.15-1.51,2.93.13s-.87,1.82-1.69,2.45C99.3,185.42,98.68,185.76,98.09,186.15Z"/><path class="cls-1" d="M64.41.54c1.86,0,2.71.92,2.74,2.33a2.23,2.23,0,0,1-2.34,2.42A2.16,2.16,0,0,1,62.43,3,2.18,2.18,0,0,1,64.41.54Z"/><path class="cls-6" d="M105,201.08c-1,.39-1.79,1.28-3,1s-2.29-.9-2.4-2.43c-.17-2.13,1-3.06,2.89-3.45C105.43,196.81,105.42,198.85,105,201.08Z"/><path class="cls-5" d="M112.9,270.35c-1.59.54-1.76,2.09-2.34,3.33-.3.63-.38,1.51-1.31,1.35-.72-.12-1.11-.82-1.35-1.51-.84-2.37-.36-4.66.45-6.93Z"/><path class="cls-6" d="M101.34,194.06c-1.53,1.05-3.29.29-4.91.65-.7,0-1.41-.05-2.11-.14-1.06-.13-2.65.34-2.7-1.34S93.2,192,94.24,192s1.93-.08,2.9-.12l2.68.06C101.09,192.08,101.47,192.9,101.34,194.06Z"/><path class="cls-1" d="M53.46,27.06l-2-.28c-1.65-2.29-1.37-4.16.71-4.63a2.26,2.26,0,0,1,2.75,1.15C55.74,25,55,26.21,53.46,27.06Z"/><path class="cls-14" d="M31.65,268.23c-.95,0-1.58-.56-1.57-1.46a1.53,1.53,0,0,1,1.49-1.6,1.38,1.38,0,0,1,1.53,1.48A1.45,1.45,0,0,1,31.65,268.23Z"/><path class="cls-14" d="M40.1,261.09a1.47,1.47,0,0,1-1.48,1.58,1.35,1.35,0,0,1-1.42-1.31,1.43,1.43,0,0,1,1.33-1.68A1.39,1.39,0,0,1,40.1,261.09Z"/><path class="cls-14" d="M34,257.49a1.46,1.46,0,0,1-.25,2.91,1.2,1.2,0,0,1-1.21-1.4A1.4,1.4,0,0,1,34,257.49Z"/><path class="cls-7" d="M108.85,181.75c.42.11.85.21,1.26.35,1,.31,1.11,1.09.83,1.91a1.17,1.17,0,0,1-1.48.8,1.38,1.38,0,0,1-1-1.87c.11-.41.28-.81.42-1.22Z"/><path class="cls-7" d="M108.89,181.72a7.24,7.24,0,0,1-1.23-.46c-.75-.46-1.15-1.12-.63-2a1.13,1.13,0,0,1,1.56-.57,1.43,1.43,0,0,1,.89,1.93,7.62,7.62,0,0,1-.62,1.11Z"/><path class="cls-7" d="M107,197.37a1.19,1.19,0,0,1-1.32-1.33,1.29,1.29,0,0,1,2.57-.09C108.31,196.79,107.81,197.26,107,197.37Z"/><path class="cls-6" d="M106.25,182.25a1,1,0,0,1-1.14,1.13,1.11,1.11,0,0,1-1.24-1.33,1.2,1.2,0,0,1,1.19-1.2C105.92,180.83,106.26,181.44,106.25,182.25Z"/><path class="cls-2" d="M99.82,191.89l-2.68-.06c.27-.93.53-1.86.79-2.79Z"/><path class="cls-10" d="M78.84,305.4l.45-.65Z"/><path class="cls-16" d="M57.31,236.65a.65.65,0,0,1,.51.06C57.62,236.93,57.45,236.88,57.31,236.65Z"/><path class="cls-8" d="M337.23,277.48a.42.42,0,0,1,.5-.06l-.08.21A.69.69,0,0,1,337.23,277.48Z"/><path class="cls-7" d="M196.69,395.35c1.51-.88,2.79-1.27,3.73.87.71,1.64,1.62,3.09-.77,4-2.07-.29-3,.43-3.15,2.69-.39,4.2-3.15,6.72-7.34,7.24a8.24,8.24,0,0,1-5.59-14.79,8,8,0,0,1,10.16.31C195.07,396.87,195.88,397.09,196.69,395.35Z"/><path class="cls-7" d="M198,367.81c1.32,2.07,3.08,3.9,3.47,6.47a.81.81,0,0,0,.5.55c1,.19,2.15.12,2.09,1.75a9.26,9.26,0,0,1-1.46,4.79.8.8,0,0,1-1.36.12c-1.25-1.58-2.24-.88-3.2.28s-2.66.92-3.74,1.86c-6.28-.7-9.21-3.45-9.14-8.59a8,8,0,0,1,10.29-7.68C196.23,367.59,197,368.25,198,367.81Z"/><path class="cls-4" d="M81,211.82a76.59,76.59,0,0,1-24.7,1.82c-.53-2.15-1.15-4.27-1.58-6.43-.36-1.79,0-2.69,2.24-1.92,6.63,2.3,13.24,4.67,20.22,5.77C78.4,211.26,79.87,210.74,81,211.82Z"/><path class="cls-10" d="M85.82,182.8a7.35,7.35,0,0,1-1.57-.3c-.83-.31-1.83-.7-1.56-1.84s1.31-1.22,2.36-.92a2.69,2.69,0,0,0,1.53.18c1.13-.48,3.13-.29,2.85-2.15s-1.84-1.1-3.05-.93a3.94,3.94,0,0,1-4.5-2.59A18.48,18.48,0,0,1,81.05,163a1.43,1.43,0,0,1,1.83-1.15c1.14.23,1.26,1,1.06,2a15.09,15.09,0,0,0,.45,8.42c.33.87.59,1.74,2,1.57,3.53-.4,6.2,1.41,6.28,4S89.57,182.8,85.82,182.8Z"/><path class="cls-13" d="M77.27,190.32c1-3.78,3.7-5.91,6.77-5.32s5.41,4.11,4.77,7.64c-.36,2-.92,4-2.67,5.37-1.4-.6-1.5-2.09-2.17-3.19C82.42,192.28,80.37,190.52,77.27,190.32Z"/><path class="cls-14" d="M77.27,190.32c3.1.2,5.15,2,6.7,4.5.67,1.1.77,2.59,2.17,3.19-2.8,2.85-5.87,3.44-8.23,1.6C75.72,197.92,75.42,193.57,77.27,190.32Z"/><path class="cls-10" d="M36.86,175.25c-.94-.07-2.11.26-2.5-1s.69-1.78,1.4-2.38a4.6,4.6,0,0,1,5-1.06c2.22.93,2.56,2.68.83,4.35-1.14,1.1-2.57,2-2.91,4,1.19,0,2.69-.18,2.6,1.77-.06,1.38-.91,1.8-2,2.09-1.65.42-2.59-.48-3.1-1.83a6.44,6.44,0,0,1,.8-5.88l.22-.27Z"/><path class="cls-2" d="M64.23,161.35c1.86-.55,6.7,2.07,7.31,4a1.91,1.91,0,0,1,.13.51c0,1.16-5.9,5.87-7.08,5.62a1.25,1.25,0,0,1-1-.84,1.4,1.4,0,0,1,.58-1.65c1.27-1,2.58-1.89,4-2.95-1.22-1.75-3.75-2.31-4-4.71Z"/><path class="cls-2" d="M94.18,167.19a1.79,1.79,0,0,1-.53-.07c-1.51-.72-4.15.32-4.5-2s1.63-3.81,2.79-5.58a1,1,0,0,1,1.45-.17,1.3,1.3,0,0,1,.47,1.86c-1.08,1.76-2.13,3.37,1.31,3.42.72,0,1,.77.84,1.44C95.84,167.19,95,167.24,94.18,167.19Z"/><path class="cls-6" d="M94.75,199.89c.43,1,2,1.57,1.12,2.88-.71,1.08-1.69.24-2.55-.06l-3.44-2.84c-.66-.55-1.11-1.21-.5-2s1.37-.64,2.1-.15Z"/><path class="cls-6" d="M38.78,296.77a21.28,21.28,0,0,1-10.54-2.6c-4.63-2.54-5.59-7.39-2.33-11.55,4.65-6,15.7-8.51,22.5-5.2,7.27,3.54,7.94,11.74,1.29,16.31A18.24,18.24,0,0,1,38.78,296.77Z"/><path class="cls-6" d="M26,313.27c-4.38,0-6.71-2.12-6.67-5.93.05-4.2,2.65-7.38,6.1-7.44,3-.06,7,4.7,6.9,8.12C32.26,311,29.47,313.32,26,313.27Z"/><path class="cls-6" d="M41.33,308.59c-3.09,0-5.15-1.79-5.12-4.12a4.32,4.32,0,0,1,3.85-3.76c2.11,0,4.38,2.44,4.31,4.7A3,3,0,0,1,41.33,308.59Z"/><path class="cls-14" d="M57.85,292.29c.41-2.08,1.48-3.32,3.68-3.17a3.24,3.24,0,0,1,3,3.71,3.13,3.13,0,0,1-3.76,2.88A3.07,3.07,0,0,1,57.85,292.29Z"/><path class="cls-14" d="M61.33,285.19a1.5,1.5,0,0,1-3-.21,1.33,1.33,0,0,1,1.58-1.35C60.88,283.66,61.31,284.26,61.33,285.19Z"/><path class="cls-14" d="M50.38,309.8a1.47,1.47,0,0,1-1.49-1.63,1.44,1.44,0,0,1,1.71-1.31A1.28,1.28,0,0,1,52,308.42C51.88,309.41,51.18,309.73,50.38,309.8Z"/><path class="cls-14" d="M52.65,314.6c.24-.91.64-1.73,1.71-1.71a1.32,1.32,0,0,1,1.38,1.56c-.06,1-.54,1.65-1.64,1.64S52.73,315.48,52.65,314.6Z"/><path class="cls-14" d="M50.19,317c-.18.88-.64,1.56-1.55,1.56A1.33,1.33,0,0,1,47.23,317a1.42,1.42,0,0,1,1.36-1.4A1.48,1.48,0,0,1,50.19,317Z"/><path class="cls-14" d="M67,287.19a1.36,1.36,0,0,1-1.5,1.47,1.32,1.32,0,0,1-1.48-1.48,1.4,1.4,0,0,1,1.54-1.46A1.25,1.25,0,0,1,67,287.19Z"/><path class="cls-14" d="M66.42,282c-.06.95-.55,1.6-1.45,1.59a1.5,1.5,0,0,1-.11-3A1.41,1.41,0,0,1,66.42,282Z"/><path class="cls-14" d="M54.37,308.25a1.28,1.28,0,0,1,1.45-1.38,1.32,1.32,0,0,1,1.5,1.19c.13,1-.29,1.6-1.27,1.66A1.43,1.43,0,0,1,54.37,308.25Z"/><path class="cls-4" d="M33.62,73.71Q45,63,56.35,52.26a1.82,1.82,0,0,1,2.19-.39l.24.12c2.44,1,5.18.71,7.54,1.47S69,57.59,71,59.35A17.67,17.67,0,0,0,82.59,64C77,66.92,71.23,66.57,65.38,65.16,64,61.31,61.92,60.81,59,63.6c-4.18-3-4.91-3-8.3.36-4.25,4.18-9.36,7-14.74,9.43A4.61,4.61,0,0,1,33.62,73.71Z"/><path class="cls-14" d="M70.28,79.19a4.12,4.12,0,1,1-4.12-4.29A4.13,4.13,0,0,1,70.28,79.19Z"/><path class="cls-14" d="M59,63.6c2.92-2.79,5-2.29,6.38,1.56-.63,1.92-1.68,3.45-4,3S58.66,65.72,59,63.6Z"/><path class="cls-14" d="M74.52,70.31A2.36,2.36,0,0,1,72.12,73a2.27,2.27,0,0,1-2.48-2.5,2.45,2.45,0,0,1,4.88-.23Z"/><path class="cls-4" d="M33,74.26l.62-.57Z"/><path class="cls-7" d="M218.48,384.66c-.68-4.25,2.85-8.15,8-8.42,4.22-.22,8.23,4.05,8.17,8.52,0,4.1-4,7.86-8.13,8C222.89,392.81,217.59,389.35,218.48,384.66Z"/><path class="cls-7" d="M226,367.65a5.35,5.35,0,0,1-5.33,5.7c-3.09,0-5.88-2.44-5.94-5.26a6,6,0,0,1,5.59-6A5.84,5.84,0,0,1,226,367.65Z"/><path class="cls-7" d="M233.52,362.46c0-3.19,2.07-5.23,5.36-5.23a5.16,5.16,0,0,1,5.23,5.48,5.64,5.64,0,0,1-5.39,5.25C235.67,368,233.55,365.78,233.52,362.46Z"/><path class="cls-7" d="M247,380c.62,3-2.74,5.1-5,5.1-2.64,0-4.65-2.28-4.72-5.18a5,5,0,0,1,4.94-4.95C244.7,374.9,247,377.31,247,380Z"/><path class="cls-7" d="M220.63,399.86c0-2.69,1.45-4,4.21-3.94a4.16,4.16,0,0,1,4.36,4.37c-.07,1.95-2.47,4.19-4.5,4.21C222.32,404.52,220.59,402.54,220.63,399.86Z"/><path class="cls-7" d="M206.13,391.05c0-2.5,1.14-3.71,3.48-3.73,2.73,0,4,1.22,4,3.79a3.78,3.78,0,1,1-7.52-.06Z"/><path class="cls-7" d="M214.74,379.12A3.78,3.78,0,1,1,211,375,4.14,4.14,0,0,1,214.74,379.12Z"/><path class="cls-6" d="M309.83,343.74c-.05,4.54-4.07,8.85-8.55,8.54-5-.33-8.89-3.3-9.11-8.73-.18-4.43,4.6-9.32,9.14-8.95A8.89,8.89,0,0,1,309.83,343.74Z"/><path class="cls-6" d="M314.71,352.93a5.69,5.69,0,0,1,5.87,5.88,5.85,5.85,0,0,1-5.58,5.93c-2.85.05-6.2-3.11-6.21-5.87A6,6,0,0,1,314.71,352.93Z"/><path class="cls-6" d="M297.46,361.05c0-2.63,1.06-3.78,3.59-3.82s4,1.32,3.93,3.57a4.17,4.17,0,0,1-3.66,3.92A3.43,3.43,0,0,1,297.46,361.05Z"/><path class="cls-14" d="M76.66,45.39c0,3.17-1.81,4.81-5.11,4.73-3-.07-4.64-1.81-4.6-5s1.81-4.82,5.11-4.74C75.08,40.49,76.69,42.23,76.66,45.39Z"/><path class="cls-14" d="M80.43,57a3,3,0,0,1-3.25,3.26,2.62,2.62,0,0,1-3-2.75c.1-1.66.69-3.56,2.91-3.52C79,54,80.34,54.92,80.43,57Z"/><path class="cls-14" d="M47.62,43.4c.14-1.92,1.31-2.58,3.09-2.44s2.9,1.14,2.72,2.94c-.16,1.63-1.1,2.94-3,2.7C48.71,46.37,47.39,45.52,47.62,43.4Z"/><path class="cls-14" d="M49.16,52.13c-.41,1.64-1.36,2.77-2.95,2.67s-2.42-1.36-2.31-3,1.42-2.21,2.8-2.17A2.42,2.42,0,0,1,49.16,52.13Z"/><path class="cls-14" d="M39,48.42a1.72,1.72,0,0,1-1.86,2.09,1.86,1.86,0,0,1-1.85-2.14,1.83,1.83,0,0,1,1.82-1.9A1.67,1.67,0,0,1,39,48.42Z"/><path class="cls-14" d="M61.09,48.89a1.44,1.44,0,0,1,1.62-1.44c.93,0,1.59.49,1.45,1.49a1.55,1.55,0,0,1-1.6,1.48A1.43,1.43,0,0,1,61.09,48.89Z"/><path class="cls-6" d="M105,206.24c-.06,1-.5,1.48-1.33,1.41a1.16,1.16,0,0,1-1.18-1.16,1.26,1.26,0,1,1,2.51-.25Z"/><path class="cls-6" d="M102,209.24c0,.67-.12,1.27-.9,1.33a1.14,1.14,0,0,1-1.34-1.24,1.12,1.12,0,0,1,1.11-1.22C101.67,208,101.92,208.56,102,209.24Z"/><path class="cls-6" d="M100.29,205.33a1.13,1.13,0,1,1-1.16-1.12C99.88,204.19,100.24,204.6,100.29,205.33Z"/><path class="cls-3" d="M36.86,175.25l.26-.23-.22.27Z"/></g></g></svg>