<svg xmlns="http://www.w3.org/2000/svg" viewBox="0 0 455.19 271.66"><defs><style>.cls-1{fill:#5584f9;}.cls-2{fill:#d5d0f1;}.cls-3{fill:#2aabf3;}.cls-4{fill:#fefefe;}.cls-5{fill:#0a95c6;}.cls-6{fill:#697ded;}.cls-7{fill:#090e3f;}.cls-8{fill:#0693f4;}.cls-9{fill:#fdc23e;}.cls-10{fill:#254575;}.cls-11{fill:#29306e;}.cls-12{fill:#232754;}.cls-13{fill:#121746;}.cls-14{fill:#fc9e12;}.cls-15{fill:#f4f2fb;}.cls-16{fill:#8d3fd0;}.cls-17{fill:#fdfdfd;}</style></defs><title>p4e5</title><g id="Layer_2" data-name="Layer 2"><g id="Layer_1-2" data-name="Layer 1"><path class="cls-1" d="M231,271.66H126.83a37.75,37.75,0,0,0-4.61-3.23c-.17-.15-.32-.31-.5-.44A147.72,147.72,0,0,1,96,244.47c-1.06-1.24-2.36-2.33-3-3.91a69.62,69.62,0,0,0,3.71-8.22c4.12-9.65,8.16-19.32,12.26-29,2-4.64,4.27-9.14,5.77-14s2.26-9.94.84-15.11A96.42,96.42,0,0,1,111.92,143a39.44,39.44,0,0,1,2.35-12.68c5.12-12.6,13.87-20.6,28-21.43a25.49,25.49,0,0,0,17.13,25.86c.54.2,1.49.85,1.78,0s-.88-.92-1.46-1.12A24.22,24.22,0,0,1,143.7,108.2c1.49-.31,2.34-1.49,3.36-2.43a4.18,4.18,0,0,1,0,.79,23.64,23.64,0,0,0-.27,7.78,23,23,0,0,0,12,17.76,28.47,28.47,0,0,0,5.93,2.32,26.51,26.51,0,0,0-5.41,6.2c-5.18,8.81-2.69,20.2,8,24.34,1.79.7,3.67,1.17,5.52,1.74-1.54,2.26-3.24,4.43-4.57,6.8a75.09,75.09,0,0,0-7.41,17.4,97.94,97.94,0,0,0-2.42,12.37c-.29,2.2,0,4.39-.42,6.58a6.2,6.2,0,0,0,.33,3.89c1-3.73,1.72-7.32,3.37-10.64a4.18,4.18,0,0,1,6.43-1.69,4.07,4.07,0,0,1,1,1.66,3,3,0,0,0,1-1c2-2.44,3.59-5.28,6-7.46a2.74,2.74,0,0,1,4,0,6.06,6.06,0,0,1,1.94,4.84c0,.54-.16,1.4.89.8,1.33-.75,2.62-1.56,4-2.26,1-.5,2.06-1.34,2.94-1.16,1.45.29,2.26-.53,3.27-1,.72-.36,1.35-.89,2.05-1.29q9-5.25,18.44-9.79c6.6-3.18,13.34-6,20.22-8.54,2.19-.81,4.39-1.59,6.57-2.42.51-.2,1.05-.56.79-1.21s-.85-.82-1.57-.56c-2.28.81-4.6,1.51-6.86,2.37-3.11,1.19-6.2,2.42-9.25,3.73-4.13,1.76-8.28,3.49-12.31,5.46-5,2.43-9.91,5-14.67,7.86-2.3,1.38-4.84,2.38-6.82,4.32-.83-3.37-1.74-6.65-2.74-9.9-1.57-5.12-3.42-10.12-5.42-15.07-.42-1-1.25-2-1.13-3.25l5.39-.32c2-.05,3.86.76,5.84.87a26.78,26.78,0,0,0,8.76-1.16c1.32.68,2.6,1.43,4,2,7.75,3.3,15.67,4,23.75,1.3,4.5-1.52,8.07-4.15,9.71-8.82a18.11,18.11,0,0,0,.81-8.49c.64.23,1.69-.59,1.84.84.59,5.69,1.29,11.36,1.33,17.09a1.16,1.16,0,0,0,.91,1.28c.71.22,1.4.54,2.1.82.65.62,1.31,1.21,1.94,1.84a72,72,0,0,1,11.86,15.93c1.22,2.63,2.62,5.19,3.63,7.92.49,1.33,1.28,2.57,1.22,4.06a1.63,1.63,0,0,0-2.07.27c-1.81,1.55-3.68,3-5.52,4.51a1.13,1.13,0,0,0-.33,1.66c.47.58,1.11.4,1.67-.05a47.16,47.16,0,0,0,3.86-3.14c.93-1,2.75-1.33,2.39-3.25a2.66,2.66,0,0,1-.7,3.27c-3,3-6.64,5.34-9.87,8.12-1.68,1.45-3.88,2.28-5.14,4.23-.14.21-.27.15-.43,0-.64-.47-1.09,0-1.58.31-3.28,2-6.51,4.13-9.85,6s-6.69,3.83-10.06,5.69-6.59,3.64-9.92,5.36c-5,2.58-10.06,5-15.14,7.33-6.31,2.93-12.65,5.78-19.54,7.11a29.23,29.23,0,0,1-10.83.26,27.14,27.14,0,0,1-12-5.56,48.22,48.22,0,0,1-10-10.9c-1.77-2.54-3.45-5.14-5.11-7.76-2.55-4-4.94-8.1-7.36-12.18-1-1.7-1.92-3.45-2.92-5.14-2.68-4.52-5.11-9.17-7.57-13.8-2-3.86-4-7.79-5.9-11.7-.31-.62-.75-.95-1.4-.57s-.71.89-.34,1.61c2,3.9,4,7.82,6,11.74,3.63,7.22,7.65,14.23,11.78,21.18,2.77,4.67,5.64,9.28,8.56,13.85,4,6.33,8.53,12.19,14.79,16.56,6.88,4.8,14.42,5.89,22.46,4.46,7.28-1.3,13.94-4.42,20.58-7.5,6-2.8,12-5.78,17.92-8.81,4.26-2.18,8.48-4.47,12.62-6.88,4.92-2.86,9.74-5.89,14.58-8.89.76-.47.91-.3.9.49,0,2.07,0,4.15,0,6.22a36.24,36.24,0,0,1-2.45,13.41,9.82,9.82,0,0,0-1.07,2.72,29.61,29.61,0,0,1-6.8,7.86,19.8,19.8,0,0,1-7.1,2.9c.47.35.68.51.9.66A10.35,10.35,0,0,1,235,266.87,13,13,0,0,1,231,271.66Zm-20.89-15.84c1-.17,1.6-.32,2.22-.38,3.66-.35,7.28-.91,10.95-1.18a12.87,12.87,0,0,0,3.59-.38c.55-.21.87-.53.82-1.08a1,1,0,0,0-1-.87,6.5,6.5,0,0,0-1.08,0c-3.29.34-6.58.65-9.87,1-3,.35-6,.77-9,1.22-.51.07-1.3,0-1.35.83a1.83,1.83,0,0,0,1,1.67,3.81,3.81,0,0,0,1,.48c4,1,8,2.18,12.16,2.83.59.09,1.56,0,1.63.56.09.7-1,.53-1.45.91-.12.1-.34.09-.51.15a11.49,11.49,0,0,0-4.54,2.52c-1.28,1.24-1.21,2.44.32,3.3a12.87,12.87,0,0,0,8.75,1.17c.41-.07.57-.38.6-.78.08-1-.53-1.08-1.29-1.08-2,0-4.05.18-6-.5-.3-.1-.65-.15-.7-.53s.25-.58.51-.73a26.3,26.3,0,0,1,3-1.49c1.39-.6,2.93-.84,4.14-1.9s1.07-1.66-.21-2.42a11,11,0,0,0-3.59-1.07C216.84,257.5,213.6,256.87,210.11,255.82Zm-97.91-20.4h3.64c2,0,2.76-.93,2.31-2.82a3.84,3.84,0,0,0-1-1.58,40.54,40.54,0,0,0-7.51-6.32,27.11,27.11,0,0,0-3.44-1.86c-.49-.24-1.11-.31-1.43.29a1,1,0,0,0,.53,1.45c.23.13.45.29.69.42a33.11,33.11,0,0,1,8.48,6.34c.6.62,1.92,1.33,1.53,1.93s-1.83.29-2.79.17c-1.5-.2-3-.49-4.5-.72-.5-.07-1,0-1.23.56s.11,1,.5,1.26a26.65,26.65,0,0,1,3.17,2.93c.32.33,1,.64.69,1.18s-.94.21-1.45.08a21.28,21.28,0,0,1-8.18-4.54,1,1,0,0,0-1.64.06c-.52.59,0,1,.34,1.36,1.73,1.9,4,3,6.24,4.13a8.48,8.48,0,0,0,4.65,1.11,2.13,2.13,0,0,0,2.07-2C114,237.43,113.19,236.57,112.2,235.42ZM132.67,139a1.86,1.86,0,0,1-1.23,0,41.34,41.34,0,0,1-9.51-5.17c-.49-.37-1-1-1.59-.2a1.19,1.19,0,0,0,.34,1.86,46.4,46.4,0,0,0,9.3,5.09,7.3,7.3,0,0,0,3.51.73,1.62,1.62,0,0,0,1.58-2.2,6.29,6.29,0,0,0-1.71-2.54c-.51-.54-1.36-1.16-1.15-1.8s1.22-.13,1.86-.23h.14a2.6,2.6,0,0,0,2.46-1.58,2.47,2.47,0,0,0-.58-2.59,18.15,18.15,0,0,0-5.71-4.6c-.68-.4-1.38-.68-1.81.25s.28,1.39.93,1.69a14.85,14.85,0,0,1,4.41,3.24c.32.34,1,.62.66,1.2a1.26,1.26,0,0,1-1.45.48,17.42,17.42,0,0,0-3.88-.24c-.59,0-1.35-.24-1.56.65-.17.73.28,1.11.8,1.54A20.1,20.1,0,0,1,132.67,139ZM236,183.73a2,2,0,0,0,.41-.17,71.45,71.45,0,0,1,8.45-5.27,1,1,0,0,0,.33-1.53.87.87,0,0,0-1.36-.37c-.92.56-1.86,1.08-2.77,1.66q-2.84,1.8-5.63,3.66a1.16,1.16,0,0,0-.55,1.29A1.06,1.06,0,0,0,236,183.73Zm12.58-1.09c0-.81-.93-1.14-1.75-.49-2.53,2-4.89,4.22-7.61,6a1,1,0,0,0,1.23,1.55,46.89,46.89,0,0,0,7.74-6.22A1.08,1.08,0,0,0,248.57,182.64Zm-2.47,13.78a1.82,1.82,0,0,0,.35-.12,39.48,39.48,0,0,0,7.65-5.83,1,1,0,0,0,0-1.56c-.53-.54-1-.27-1.52.16-1.2,1.06-2.46,2.06-3.65,3.15-1,.92-2.31,1.35-3.32,2.24-.41.36-.68.75-.45,1.29A1,1,0,0,0,246.1,196.42Zm5.88,6,.6-.31c2.43-1.22,4.13-3.25,5.84-5.26.48-.56.76-1.25.12-1.79s-1.19,0-1.58.51a22.9,22.9,0,0,1-3.41,3.41,17.13,17.13,0,0,0-2.45,1.88c-.24.29-.45.58-.22,1A1.12,1.12,0,0,0,252,202.39Z"/><path class="cls-2" d="M289.16,271.66h-7.84l3.81-2.1.22.16c.48.37.69,1.5,1.47,1s-.36-1.11-.38-1.73l1.09-.54c2.77-1.43,2.84-1.74,1.08-4.34a138.13,138.13,0,0,1-19.3-42.73c-.88-3.34-1.57-6.73-2.34-10.1a9.55,9.55,0,0,1,.07-1.2,185.77,185.77,0,0,0,2.1-21.69c11.22-2.45,22.44-4.87,33.65-7.35,1.85-.41,3.86-.44,5.41-1.79s1.42-2.52-.29-3.31a26.63,26.63,0,0,0-8.41-2.22c.12-.36.41-.43.74-.48,3-.45,5.92-.87,8.87-1.38a82.17,82.17,0,0,0,8.82-1.55c1.05-.55.7-1.15.06-1.76a15.31,15.31,0,0,0-8.21-3.72A80.62,80.62,0,0,0,294,164c-.53,0-1.09.18-1.52-.31.17-.45.62-.49,1-.63,2.21-.87,4.41-1.76,6.64-2.57,3.53-1.28,7.14-2.34,10.77-3.33,2-.55,2.77-1.48,2.84-3.2a2.62,2.62,0,0,0-1.67-2,11.29,11.29,0,0,0-7.19-1.12,82.6,82.6,0,0,0-17.3,4.88c-.4.15-.82.7-1.31.11q7-5.4,14-10.81a7.12,7.12,0,0,0,2.59-3.22c.66-1.7.3-2.24-1.46-2.25a12.13,12.13,0,0,0-3.45.48c-6,1.72-11.23,4.92-16.53,8-2.34.48-4.69.86-7,1.57,1.24-4.13,2.5-8.25,3.71-12.38.84-2.86.91-2.52-1.8-3.43a6.81,6.81,0,0,1-.73-.33,31.65,31.65,0,0,1,6.69-9.23,103.71,103.71,0,0,0,17.81-24,26.94,26.94,0,0,0,2.89-19A34.22,34.22,0,0,0,300,73.68a20.62,20.62,0,0,0,.1-4.84,47.54,47.54,0,0,0-10.76-28.32c-.22-.26-.68-.45-.51-.94.53-.25.83.21,1.18.41a42.27,42.27,0,0,1,4.45,3.06c8.32,6.33,13.5,18.1,8.53,27.8-.2.39-.25.84.26,1s.68-.28.86-.64a18.88,18.88,0,0,0,1.93-9.15c-.28-7.57-3.74-13.58-9.23-18.57a47.29,47.29,0,0,0-11.93-7.57L281,32.57l.27-.27c.66.54,1.08-.08,1.54-.35a24.64,24.64,0,0,1,12-3.76,165.65,165.65,0,0,1,12.93,10.7,157.19,157.19,0,0,1,17,18.4c1.61,2.1,3,4.33,4.73,6.35A17,17,0,0,0,331.78,67c-2.69,2.71-5.39,5.42-8.07,8.14-.27.27-.88.49-.36,1.06s.86,0,1.17-.29q3.93-3.87,7.85-7.78l3.85,6.1c2.16,4.29,4.52,8.46,6.48,12.85a152,152,0,0,1,7.1,19.28q1,3.25,1.9,6.51c0,.32-.09.63.22.86.37,2.06.73,4.12,1.1,6.19-.54,0-1.08.05-1.61.05q-26.43,0-52.86,0a2.72,2.72,0,0,0-2.14.84c-3.57,3.63-7.19,7.21-10.77,10.83-.29.29-1,.55-.37,1.15s.87-.14,1.16-.42q5.19-5.13,10.32-10.32a3,3,0,0,1,2.35-1q26.28,0,52.58,0c.54,0,1.08,0,1.62.07a144.38,144.38,0,0,1,2.43,25.58c-.12,2.81.19,5.64-.24,8.45a2.78,2.78,0,0,0,.18,2.09v.56a53.31,53.31,0,0,0-1,7.95,137.1,137.1,0,0,1-3.2,17.55,146.83,146.83,0,0,1-11.74,31.62c-1-.51-2-1-3-1.56a1.15,1.15,0,0,1-.69-1.33,1.31,1.31,0,0,1,1.34-.94,4.81,4.81,0,0,1,2.09.44c1,.41,1-.47,1.24-.95s0-.89-.53-1.07a7.37,7.37,0,0,0-3.45-.42,3.25,3.25,0,0,0-3.12,2.69,3.39,3.39,0,0,0,1.85,3.59c.73.43,1.53.75,2.26,1.19.55.32,1.1.73.9,1.49s-.89.88-1.6.93c-1.22.07-2.3-.54-3.46-.79-.2,2.33-.2,2.33,1.87,2.76l.8.17a12,12,0,0,1-1.4,2.59c-.72,1.48-1.92,2.7-2.39,4.32q-13.38,0-26.77.06a2.42,2.42,0,0,1-1.45-.62l-14.95-10.69c-3.29-2.35-6.59-4.71-9.9-7-.36-.25-.76-1-1.3-.21s.49.74.69,1.14c0,0,.07.05.11.08q12.48,8.91,24.94,17.84a3.18,3.18,0,0,0,2,.61c3.92,0,7.84,0,11.76,0,4.51,0,9,0,13.52.06a3.74,3.74,0,0,1-.72,1.58c-1.46,2.09-2.95,4.16-4.43,6.23-.53.61-1.11,1.19-1.57,1.84a84.91,84.91,0,0,1-8,9.44c-3.27,3.4-6.59,6.77-10.1,9.93-3.81,3.44-7.89,6.51-11.94,9.63C292.66,269.18,290.64,270.06,289.16,271.66Zm60.07-162.14c0-3.54-1.41-5.51-4.33-6a5.51,5.51,0,0,0-6.13,2.64c-1.27,2.63-.69,6.56,1.21,8.17a4.9,4.9,0,0,0,1.92,1C346.22,116.33,349.22,114,349.23,109.52ZM311.89,215v5c0,.47,0,.9.66.88a41.39,41.39,0,0,0,4.32-.14c3.07-.44,4.79-2.67,4.72-5.91s-1.88-5.28-5.06-5.58c-1.3-.12-2.62,0-3.92-.07-.64,0-.74.28-.73.82C311.9,211.64,311.89,213.31,311.89,215Zm18.4-105.37c-.15-3.11,1.74-5.07,4.83-3.63l.12,0c.87.33.8-.45,1-.87s.47-.85-.24-1.2a6.36,6.36,0,0,0-6.6.88c-1.88,1.82-2.3,5.81-.87,8.32,1.17,2,3.84,2.79,6.72,2,1.19-.31,1-1.13.9-1.87-.18-1-.88-.23-1.25-.15C331.74,113.84,330.31,112.76,330.29,109.61Zm-7.72,99.69c.64,1.19,1.21,2.34,1.86,3.45,1.24,2.12,2.36,4.25,1.91,6.83-.17,1,.21,1.31,1.25,1.31s1.46-.31,1.31-1.37a9,9,0,0,1,1.63-6.35c.8-1.23,1.41-2.58,2.14-3.93-2.52-.17-2.52-.17-3.61,1.9l-1.47,2.79c-.56-1.09-1-2-1.47-2.91C325.1,209,325.1,209,322.57,209.3ZM287.67,32.6c-.4.08-1.33-.4-1.41.5s.92.66,1.45.68a38,38,0,0,1,9.93,1.73,34.83,34.83,0,0,1,5.12,2.05c.38.19.77.32,1.1-.1a.4.4,0,0,0,0-.6,6.64,6.64,0,0,0-1-.59A39.05,39.05,0,0,0,287.67,32.6Zm37.21,138.19a4.58,4.58,0,0,0,0-.57c-.08-.48.27-1.25-.53-1.3s-.58.73-.6,1.2a12.5,12.5,0,0,1-2.52,7.11c-.27.37-.61.77-.11,1.16s.8-.13,1.05-.45A13.07,13.07,0,0,0,324.88,170.79Zm5.09,1.45c0-.31.14-.94-.59-1s-.57.56-.59,1a12.17,12.17,0,0,1-2.68,7.19c-.29.36-.59.75-.06,1.13s.73-.09,1-.39A13.42,13.42,0,0,0,330,172.24Zm-21-94,1.44-.23A47.54,47.54,0,0,0,317,76.35c.41-.13.82-.3.7-.81s-.43-.51-.86-.38a46.54,46.54,0,0,1-8,1.85c-.4,0-.67.3-.57.74A.54.54,0,0,0,308.93,78.2Zm5.89-10.15c-.18-.69-.59-.66-1.1-.31l-6.58,4.49c-.37.25-.83.5-.47,1.06s.8.14,1.14-.09l6.36-4.32C314.47,68.68,314.81,68.51,314.82,68.05Zm-6.59,15.89c-.62-.09-1.05-.07-1.11.47s.32.55.7.63l7.12,1.47a.62.62,0,0,0,.83-.46c.12-.48-.23-.63-.6-.71ZM286,192.41a12.1,12.1,0,0,0,5.15-1.15c.36-.16.6-.43.41-.84s-.48-.43-.88-.25a10.13,10.13,0,0,1-5.73,1c-.42-.06-.75.08-.83.48s.27.63.63.69A11.68,11.68,0,0,0,286,192.41Zm1.84,5.81a14.87,14.87,0,0,0,4.51-.88c.41-.16.77-.34.63-.84s-.57-.41-.89-.3A14.21,14.21,0,0,1,287,197a.59.59,0,0,0-.67.66c0,.36.31.52.67.52Z"/><path class="cls-3" d="M267,211.25c.77,3.37,1.46,6.76,2.34,10.1a138.13,138.13,0,0,0,19.3,42.73c1.76,2.6,1.69,2.91-1.08,4.34l-1.09.54a29.25,29.25,0,0,1-2.28-2.94c-.3-.33-.6-1.1-1.25-.59s0,.89.26,1.27c.64,1,1.31,1.91,2,2.86l-3.81,2.1h-.81c-.07-1.27-1-2.18-1.35-3.34-.15-.49-.41-.86-1-.59s-.37.74-.16,1.16c.47.92.92,1.85,1.38,2.77h-5.68c-.21-.59-.23-1.48-1.18-1.22-.66.18-.39.77-.17,1.22H242.9a208.93,208.93,0,0,1-5.18-20.82,29.61,29.61,0,0,0,6.8-7.86,40.85,40.85,0,0,0,9.13-2.15,14.35,14.35,0,0,0,8.44-8c1.76-4.08,2.38-8.44,3.27-12.74C266,217.14,266.13,214.14,267,211.25Zm-25.22,39.87c-.54.07-.53.51-.37,1,.47,1.35,1,2.69,1.44,4,.15.43.33.79.84.58s.33-.59.21-.93c-.42-1.31-.85-2.63-1.3-3.94C242.45,251.51,242.32,251.15,241.75,251.12Zm11.86.59c-.58-1.33-1.18-2.72-1.81-4.1a.45.45,0,0,0-.68-.17.54.54,0,0,0-.32.67q.84,2,1.74,4a.53.53,0,0,0,.7.24A.55.55,0,0,0,253.61,251.71Zm-5.71,3.69c.56-.08.48-.56.29-1-.51-1.2-1.07-2.37-1.62-3.55-.15-.33-.34-.69-.8-.49s-.39.52-.22.89c.53,1.19,1,2.39,1.54,3.58A.74.74,0,0,0,247.9,255.4Zm27.7-2.54a13.7,13.7,0,0,0-2.39-3.32.9.9,0,0,0-.63.09.54.54,0,0,0-.11.73c.67,1,1.36,2,2.07,2.95a.53.53,0,0,0,.73.1A.65.65,0,0,0,275.6,252.86Zm-6.43-2.52c-.51.14-.66.5-.44,1,.45,1,.92,2,1.38,3,.16.35.41.62.83.47s.39-.63.23-1c-.44-1-.91-2-1.37-3C269.68,250.57,269.55,250.32,269.17,250.34Zm-15.46,8.48a18.29,18.29,0,0,0-1.89-3.46.43.43,0,0,0-.61-.07.61.61,0,0,0-.17.74c.52,1.09,1.08,2.15,1.66,3.21a.54.54,0,0,0,.71.19C253.68,259.34,253.7,259.11,253.71,258.82Zm16.15-12.06a10.29,10.29,0,0,0-2.23-3.41c-.63-.16-.78.3-.6.68.51,1,1.12,2,1.72,3a.58.58,0,0,0,.72.21A.52.52,0,0,0,269.86,246.76Zm-16.69,18.65c-.47-.88-1-2-1.59-3a.44.44,0,0,0-.6-.12.57.57,0,0,0-.22.71,12.29,12.29,0,0,0,1.4,3c.15.27.44.27.72.17S253.16,265.86,253.17,265.41Zm-4.88-4c-.36-.94-.73-2-1.15-3-.12-.28-.43-.29-.7-.18s-.32.42-.28.68a12.92,12.92,0,0,0,1.09,3,.54.54,0,0,0,.68.27C248.27,262.07,248.29,261.8,248.29,261.41Z"/><path class="cls-4" d="M96.53,271.66a1.48,1.48,0,0,1,.54-1.05c2.4-2.65,5-5.14,7.56-7.6.6-.57,1.14-.41,1.8-.07A73.69,73.69,0,0,0,119.11,268c1,.29,2,.85,3.11.43a37.75,37.75,0,0,1,4.61,3.23Z"/><path class="cls-2" d="M237.72,250.84a208.93,208.93,0,0,0,5.18,20.82H231a13,13,0,0,0,4-4.79,10.35,10.35,0,0,0-3.48-12.47c-.22-.15-.43-.31-.9-.66A19.8,19.8,0,0,0,237.72,250.84Z"/><path class="cls-5" d="M279.42,271.66c-.46-.92-.91-1.85-1.38-2.77-.21-.42-.39-.89.16-1.16s.81.1,1,.59c.34,1.16,1.28,2.07,1.35,3.34Z"/><path class="cls-5" d="M272.39,271.66c-.22-.45-.49-1,.17-1.22.95-.26,1,.63,1.18,1.22Z"/><path class="cls-2" d="M167.16,5.75l9.72-2.45c3.35-.56,6.7-1.16,10.06-1.66,2.69-.41,5.39-.82,8.11-1A143.44,143.44,0,0,1,212.14.1c5.54.29,11.07.67,16.57,1.46a160.81,160.81,0,0,1,24.34,5.51,1.7,1.7,0,0,0,.4,0,.65.65,0,0,0,.2.17,152.93,152.93,0,0,1,21.69,9.08,141.69,141.69,0,0,1,15.83,9.42c.47.33,1.22.5,1.25,1.3-.39.1-.77.23-1.16.31A26.56,26.56,0,0,0,282,31.07c-.46.3-1,.54-.73,1.23l-.27.27c-.38-.24-.76-.47-1.13-.72a46.61,46.61,0,0,0-9.65-5.28,1.68,1.68,0,0,0-1-1.82c-1-.53-1.91-1.19-2.89-1.75-8.82-5.12-18.16-8.27-28.52-7.58-15.3,1-26.12,10-29.88,24.82A3.17,3.17,0,0,1,206,42.55,26.15,26.15,0,0,0,191.2,62.09c-.37,2-.47,4-.81,6-.24,1.39-.29,2.88-1.35,4a82.08,82.08,0,0,1-11,4.33A97.42,97.42,0,0,0,165.91,81a27.77,27.77,0,0,0-9.64,7h0l-.34.29a15.65,15.65,0,0,1-1.4,1,24.82,24.82,0,0,0-11.26,15c-.43,1.5-.68,3-1,4.58-14.17.83-22.92,8.83-28,21.43A39.44,39.44,0,0,0,111.92,143a96.42,96.42,0,0,0,3.71,31.33c1.42,5.17.71,10.14-.84,15.11s-3.8,9.33-5.77,14c-4.1,9.65-8.14,19.32-12.26,29a69.62,69.62,0,0,1-3.71,8.22c-1.68-1.09-2.53-2.88-3.68-4.41a142.91,142.91,0,0,1-15.19-25.22,131.77,131.77,0,0,1-7.24-18.55c-.34-1.16-.38-2.5-1.24-3.5-.43-2.92-1.48-5.7-2-8.6-.31-1.67-.65-3.33-1-5a23.71,23.71,0,0,0,3.61-4.43c1.12-2,1.14-2,3.41-1.43a4.56,4.56,0,0,0,3.6,4.58,4.67,4.67,0,0,0,5.2-2.44,4.79,4.79,0,0,0-1.23-5.74,4.65,4.65,0,0,0-5.86,0A15.76,15.76,0,0,0,70,167.28a1.38,1.38,0,0,0-.48-.22c-1.19-.11-1.49-.56-1.26-1.84a13.39,13.39,0,0,0-.05-5.46c-.3-1.25-.35-2.2,1-2.79.35,0,.58.2.86.34a3.22,3.22,0,0,0,4.09-4.82,3.17,3.17,0,0,0-4-.83,3.21,3.21,0,0,0-1.54,3.89c-.6,0-1.25,1-1.79-.1A16.78,16.78,0,0,0,60,148.32c.57-.84.16-1.79.27-2.68a4.5,4.5,0,0,0,2.47-1.74c1.46-2.33.61-4.71-2.19-6.09,0-3,.55-6,.81-9a152.32,152.32,0,0,1,3.92-19.73,149.07,149.07,0,0,1,6.09-17.82,4.93,4.93,0,0,1,.54,0q16.62,0,33.25,0a1.77,1.77,0,0,1,1.56.79q6,7.64,12.14,15.21c.27.33.45,1.19,1.19.53s-.11-.89-.34-1.18c-4.16-5.26-8.36-10.5-12.52-15.76a1.63,1.63,0,0,0-1.48-.66c-1.81,0-3.61,0-5.41,0l-28.39,0a135,135,0,0,1,8.37-16.65.67.67,0,0,1,.52-.36c0,2.16.11,4.32.06,6.47,0,1,.21,1.31,1.26,1.32s1.31-.38,1.23-1.33A5.35,5.35,0,0,1,83.41,77c.41-.87,1.52-.27,2.31-.43A3.65,3.65,0,0,0,89,72.74c0-2-1-3.15-3.15-3.52-.84-.14-1.7-.15-2.55-.22-.09-.56.3-.93.56-1.33a120.66,120.66,0,0,1,8.1-11.23,2.21,2.21,0,0,0,.57-1.19,9.59,9.59,0,0,0,1.81-1.79c1.39-1.63,2.75-3.3,4.18-4.89a106,106,0,0,1,9.1-9.13c1.14-1,2.2-2.08,3.3-3.13,4.65-3.72,9.23-7.53,14.22-10.8a16.85,16.85,0,0,1,3.67-2.2c1.95,2.57,3.91,5.14,5.84,7.73s4.08,5.49,6.12,8.23c.23.31.38.75.93.34s.2-.67,0-1-.32-.43-.48-.64L129.54,22.24c1.13,0,1.88-.81,2.75-1.32A150.09,150.09,0,0,1,146,13.7c1.09-.49,1.18-.11,1.17.82,0,1.39.38,2.76.25,4.16-.45,0-.89.07-1.34.09a.8.8,0,0,0-.87.93c0,.59.4.74.9.77l1.33.1a27.76,27.76,0,0,0,.22,5,9,9,0,0,1-2.13.22.88.88,0,0,0-.87,1c0,.71.49.78,1,.77s1.34-.07,2-.1a27.77,27.77,0,0,0,.27,5.31l-1.05.08c-.63,0-1.19.17-1.15,1s.59.87,1.23.81a7.22,7.22,0,0,1,.93,0,37.09,37.09,0,0,0,.31,5.47,7,7,0,0,1-2.24.29.81.81,0,0,0-.78.91c0,.57.36.77.88.76h2.14v3.5c-.56.17-1.34.16-1.26,1s.9.78,1.54.86c0,.73-.64,1.08-1.12,1.45a15.7,15.7,0,1,0,21.94,2.39c-.58-.68-1.06-1.57-1.83-2-2-1-1.82-2.67-1.59-4.36a17,17,0,0,0,.17-2c.1-4.45.11-8.9.32-13.35.23-5.15.36-10.32.57-15.48C167.06,11.32,167.07,8.54,167.16,5.75Zm-85,170.67c-6.28-.3-11.88,5.26-11.83,11.65a11.78,11.78,0,1,0,23.55.07A11.59,11.59,0,0,0,82.11,176.42Zm28-103.9.21-.07L114.64,80c.4.68,2.77,1.17,3.38.71.22-.16.2-.39.2-.6,0-3.43,0-6.85,0-10.28,0-1-.66-.74-1.2-.77s-1.06,0-1,.79c0,2.12,0,4.24,0,6.36,0,.35.19.77-.23,1.13-1.3-2.22-2.67-4.35-3.8-6.59A2.68,2.68,0,0,0,109,69c-.77.08-1.1.17-1.09,1,0,3.25.06,6.49,0,9.73,0,.91.35,1,1.11,1s1.13-.14,1.1-1C110,77.38,110.06,75,110.06,72.52ZM99.68,80.76c.19-.29,1.54.73,1-.76-1.18-3.44-2.44-6.85-3.61-10.29-.3-.9-1-.72-1.53-.65s-1.58-.51-2,.58Q91.77,74.86,90,80.08c-.1.27-.35.55.15.74a1.89,1.89,0,0,0,2.62-1.31c.25-1.15.78-1.73,2-1.51a2.48,2.48,0,0,0,.94,0c1.34-.22,2.13.22,2.28,1.67C98.06,80.53,98.54,81.07,99.68,80.76Zm5.24-5.7c0-1.71,0-3.41,0-5.12,0-1-.62-.87-1.23-.86s-1.26-.23-1.25.84c.05,3.32.06,6.65,0,10,0,1,.48,1,1.16.94s1.38.22,1.32-.92C104.86,78.29,104.92,76.68,104.92,75.06Zm-1.49,73.05c.06-.67.12-1.34.19-2,0-.44.24-1-.4-1.1s-.67.51-.75,1a24.53,24.53,0,0,0,.06,7.65,26.34,26.34,0,0,0,1.94,6.56c.17.36.35.8.88.59s.44-.61.24-1c-.12-.24-.23-.49-.33-.74A24.73,24.73,0,0,1,103.43,148.11Zm-4.93,4c-.53,0-.61.43-.57.86a18.09,18.09,0,0,0,4.47,10.59c.24.28.53.57.91.24s.3-.68,0-1A16.43,16.43,0,0,1,99.12,153,.79.79,0,0,0,98.5,152.15Z"/><path class="cls-6" d="M69.21,157c-1.32.59-1.27,1.54-1,2.79a13.39,13.39,0,0,1,.05,5.46c-.23,1.28.07,1.73,1.26,1.84a1.38,1.38,0,0,1,.48.22l-.3,2.14c-2.27-.59-2.29-.6-3.41,1.43a23.71,23.71,0,0,1-3.61,4.43,21.45,21.45,0,0,1-5.22,2.77c-.44.13-.53.42-.55.81,0,.9-.1,1.8-.16,2.7l-1.26.3c-.54-3-.54-3-3.5-3a14.61,14.61,0,0,1-7.46-2,1.77,1.77,0,0,0-2.37.09,1.75,1.75,0,0,1-.87-.85c.53-.66.44-1.15-.22-1.76a15.07,15.07,0,0,1-4.42-7.4c-.56-2.1-.56-2.1-2.9-2.16a3.33,3.33,0,0,0,.27-2.74c1.31-.05,2.23-.34,2.27-2a9.07,9.07,0,0,1,1.28-4.2,1.72,1.72,0,0,0-.27-2.36,12.12,12.12,0,0,1-1.16-1.62L37,151a7,7,0,0,1,1,.69c.91.89,1.49,1,2.53-.13a15.1,15.1,0,0,1,13.59-4.9c1.73.24,2.34-.51,2.73-1.89.77.08,1.24.92,2.08.83-.59,1.95-.54,2.08,1.06,2.71a16.78,16.78,0,0,1,6.83,7.13c.54,1.11,1.19.15,1.79.1Zm-29.5,3.47a6.39,6.39,0,0,0,6.49,6.74,6.58,6.58,0,0,0,6.77-6.7,6.76,6.76,0,0,0-6.73-6.79C42.81,153.61,39.24,157.09,39.71,160.44ZM57.09,170a2.56,2.56,0,0,0,2.88-2.3,2.91,2.91,0,0,0-2.82-2.84,3,3,0,0,0-2.54,2.7A2.51,2.51,0,0,0,57.09,170ZM49,174.82a2.07,2.07,0,0,0,2.11-2.11,2.5,2.5,0,0,0-2.21-2.18,2.52,2.52,0,0,0-2.11,2.27A2.1,2.1,0,0,0,49,174.82Z"/><path class="cls-7" d="M71.9,90.09l28.39,0c1.8,0,3.6,0,5.41,0a1.63,1.63,0,0,1,1.48.66c4.16,5.26,8.36,10.5,12.52,15.76.23.29,1,.6.34,1.18s-.92-.2-1.19-.53Q112.76,99.61,106.71,92a1.77,1.77,0,0,0-1.56-.79q-16.62,0-33.25,0a4.93,4.93,0,0,0-.54,0c-.67,0-1.35,0-2,0q-28.47,0-56.95,0c-.94,0-1.34.11-1.39,1.24a5,5,0,0,1-3.43,4.6,5.25,5.25,0,0,1-5.68-1A12.1,12.1,0,0,1,.64,94.67c-1.21-3-.7-5.5,1.44-7.15a5.46,5.46,0,0,1,8.22,1.6,1.74,1.74,0,0,0,1.86,1c3.14-.06,6.29,0,9.43-.06,4,0,8,0,12,0H70.42C70.91,90.14,71.41,90.11,71.9,90.09Z"/><path class="cls-6" d="M50.5,195.31c-2.06,3-4.45,4-7.25,2.93a5.86,5.86,0,0,1-3.44-3.69,6.09,6.09,0,0,1,1.14-5.1,5.61,5.61,0,0,1,9.76,5Zm-5.11-4.09a2,2,0,1,0-2.12,2A2.09,2.09,0,0,0,45.39,191.22Zm1.09,4.7c.69-.16,1.44-.33,1.33-1.31a1.35,1.35,0,0,0-1.4-1.36,1.28,1.28,0,0,0-1.27,1.45C45.14,195.53,45.63,195.9,46.48,195.92Zm-2.18-.81c0-.56-.33-.78-.86-.82a.76.76,0,0,0-.91.75c0,.56.29.9.91.87A.78.78,0,0,0,44.3,195.11Z"/><path class="cls-8" d="M34.05,162.08a3.33,3.33,0,0,1-.27,2.74c-1.36,2-3.26,2.63-5.2,1.67a3.87,3.87,0,0,1-1.84-4.82,3.83,3.83,0,0,1,7.31.41Z"/><path class="cls-8" d="M55.52,181.86l1.26-.3a2.53,2.53,0,0,1,2.38,2.05,2.46,2.46,0,0,1-1.42,2.78,2.5,2.5,0,0,1-2.93-3.91A7.16,7.16,0,0,1,55.52,181.86Z"/><path class="cls-8" d="M41.32,176.14a1.75,1.75,0,0,0,.87.85c.4,1.61,0,2.61-1.16,3a1.91,1.91,0,0,1-2.08-.54,1.79,1.79,0,0,1-.4-2,1.83,1.83,0,0,1,1.7-1.29C40.61,176.12,41,176.14,41.32,176.14Z"/><path class="cls-8" d="M36.44,148.69A2.2,2.2,0,0,1,37,151l-.84.86c-.26,0-.53,0-.8-.05a1.68,1.68,0,1,1,.42-3.31A5.25,5.25,0,0,1,36.44,148.69Z"/><path class="cls-7" d="M270.22,26.57a46.61,46.61,0,0,1,9.65,5.28c.37.25.75.48,1.13.72l3.9,3.37c-.48.72-.36,1.2.46,1.58s1.8,1,2.7,1.49c.17.14.19.56.57.29l0,0c-.13.31-.06.43.28.29h0c-.17.49.29.68.51.94a47.54,47.54,0,0,1,10.76,28.32,20.62,20.62,0,0,1-.1,4.84c-1.43-1.68-2.66-3.57-4.64-4.7a7.11,7.11,0,0,0-2.95-1.55,4.41,4.41,0,0,0-5.65,2.36l-1.42-.24c-1.94-.09-2.78.58-3,2.42a8,8,0,0,0,.69,4.46c.15.31.39.63.12,1-1.42-.61-2.82-1.56-4.39-.35-1.67,1.86-1.37,4-.89,6.18.09.39.59.75.14,1.2l-.56-.24L277,84c-.71,0-.91-.56-1.11-1.15-1-3-1.94-5.9-3-8.82-1.89-5.29-3.86-10.56-6.13-15.71-.54-1.23-1.06-1.24-1.92-.44-.2.19-.42.35-.63.52a57.12,57.12,0,0,1-34,12.4,1.57,1.57,0,0,1-1.34-.7,7.07,7.07,0,0,0-7.54-2.41c-4.18,1.07-6.46,4-7.62,8a19.9,19.9,0,0,0,.84,12.83c-.91.32-1.36,1.15-2,1.79-5.71,6-8.37,13.23-9.11,21.31a16.35,16.35,0,0,0-.29,2.88c-.65,6.44,0,12.84.66,19.24a123.39,123.39,0,0,1,1,13.85c-.1,6.79-2.17,12.55-8.32,16.23a28.8,28.8,0,0,1-6.63,2.65,7.49,7.49,0,0,1-3-.59c-.49-.17-1.06-.52-1.5-.07s.39.88.36,1.39l-5.39.32c-2.55-.06-5.05-.5-7.57-.81-1.85-.57-3.73-1-5.52-1.74-10.71-4.14-13.2-15.53-8-24.34a26.51,26.51,0,0,1,5.41-6.2,28.47,28.47,0,0,1-5.93-2.32,23,23,0,0,1-12-17.76,23.64,23.64,0,0,1,.27-7.78,4.18,4.18,0,0,0,0-.79,47,47,0,0,1,5.21-12.56c.15-.26.59-.48.29-.91l0,0c.12.13.23.13.34,0a7.09,7.09,0,0,1,2.4-2.08,39.31,39.31,0,0,1,12.24-4.37,9.68,9.68,0,0,1,3.55-.52c-.25.54-.71.67-1.06.91a40.58,40.58,0,0,0-11.22,11.32c-4.22,6.65-5.81,13.8-4.07,21.58A23.07,23.07,0,0,0,160,129.33c.36.41.79,1.27,1.5.58s-.15-1-.52-1.41a15.21,15.21,0,0,1-2.08-2.64,23.35,23.35,0,0,1-3.42-16.1,28.32,28.32,0,0,1,5-12.51A38.62,38.62,0,0,1,169.73,88c2.74-2,5.51-3.75,9-4.14A40.83,40.83,0,0,0,188,81.51a24.26,24.26,0,0,0,12.74-9.91c3.78-5.94,5.08-12.67,6.16-19.47A52.69,52.69,0,0,1,208,45.66L210.71,42c5.78-1.83,11.74-1.51,17.65-1.29,6.08.24,12.11,1.19,18.24.79a34.58,34.58,0,0,0,14.55-3.88,20,20,0,0,0,8.37-8.32c.2-.38.77-.91.14-1.27s-.92.24-1.2.73a18.68,18.68,0,0,1-4.61,5.58c-5.3,4.15-11.46,5.77-18.07,6a125.82,125.82,0,0,1-14.4-.6c-1.57-.12-3.15-.05-4.7-.25a48.82,48.82,0,0,0-11.27.24c-.82.09-1.71.8-2.56,0a45.67,45.67,0,0,1,7.34-6.55c13-9.36,27.28-12.94,43.11-9.11,1.42.34,2.74,1.06,4.23,1.09l0,0c-.12.31.17.27.3.36A10.08,10.08,0,0,0,270.22,26.57ZM188,141a22.37,22.37,0,0,1-4.34,13.56,14.64,14.64,0,0,1-17.6,4.72c-.37-.17-.85-.67-1.16-.07s.33.84.74,1.05a13.27,13.27,0,0,0,7.81,1.36,16.08,16.08,0,0,0,11.63-7c4.31-6,4.7-12.84,3.51-19.84a54,54,0,0,0-3.21-10.41c-1.48-3.8-3.1-7.58-2.84-11.82a9.3,9.3,0,0,1,4.49-7.7c3-2,6.52-3,9.83-4.4a14.6,14.6,0,0,0,9.54-12.75c.4-3.72,0-7.46.51-11.16a20.07,20.07,0,0,1,2-6.94C212,63.88,217.17,61,223,59.06c5.15-1.66,10.53-2.08,15.86-2.74a63.61,63.61,0,0,0,14.67-3.23,50.36,50.36,0,0,0,23.57-17.71c.25-.35,1-.82.31-1.34s-.95.2-1.26.63a46.14,46.14,0,0,1-9,9.41,50.66,50.66,0,0,1-19,9.46c-5.4,1.4-11,1.74-16.45,2.49-5.84.79-11.48,2.16-16.51,5.37-4.39,2.79-7.65,6.46-8.88,11.71-1,4.37-.65,8.84-1,13.26-.45,5.52-2.43,10-7.8,12.4-3,1.33-6.1,2.44-9,3.88-5.77,2.8-7.52,6.84-7.18,11.68.25,3.56,1.57,6.89,2.9,10.18C186.29,129.7,188,135,188,141ZM281,41c0-1.14-.09-1.58-.46-1.59s-.54.36-.61.73a31.91,31.91,0,0,0-.2,10.18,36.88,36.88,0,0,0,5.47,15.21c.37.56.74,1.45,1.47,1s-.13-1.09-.43-1.57a33.91,33.91,0,0,1-5.5-18.46A21.21,21.21,0,0,1,281,41Z"/><path class="cls-9" d="M313.66,154c-.07,1.72-.83,2.65-2.84,3.2-3.63,1-7.24,2.05-10.77,3.33-2.23.81-4.43,1.7-6.64,2.57-.36.14-.81.18-1,.63-3.63,1-6.82,2.92-10.06,4.74a.51.51,0,0,0,.45.12,52,52,0,0,1,14.07-1.39,93.91,93.91,0,0,1,13.73,1.49,34.63,34.63,0,0,1,7.31,1.62,82.17,82.17,0,0,1-8.82,1.55c-2.95.51-5.91.93-8.87,1.38-.33,0-.62.12-.74.48-.72.15-1.36-.3-2.12-.16-3.12.58-6.27,1-9.39,1.57-1.69.31-3.45.23-5.17.93a14.72,14.72,0,0,0,3.84.42c2.54.14,5.1.28,7.63.6,4.65.6,9.3,1.25,13.91,2.17-1.55,1.35-3.56,1.38-5.41,1.79-11.21,2.48-22.43,4.9-33.65,7.35-3.57.53-7,1.54-10.53,2.34a72,72,0,0,0-11.86-15.93c-.63-.63-1.29-1.22-1.94-1.84.16-.21.34-.41.49-.63a59.24,59.24,0,0,1,25.89-21.25,16.62,16.62,0,0,0,3.18-1.38c2.29-.71,4.64-1.09,7-1.57.23.28.58.2.88.27,2.16.52,2.4,1.2.87,2.88a44.17,44.17,0,0,1-5,4.82c-.31.25-.75.48-.7,1,.4.07.55-.18.76-.33,2.44-1.75,4.84-3.56,7.32-5.23,3.84-2.58,7.83-4.92,11.88-7.13a23.34,23.34,0,0,1,5.47-2.56,7.12,7.12,0,0,1-2.59,3.22q-7,5.43-14,10.81a1.55,1.55,0,0,0-.5.16c-2.62,2-5.25,3.91-7.84,5.91-.53.41-1.28.61-1.56,1.32.34.25.58.09.82,0a104.52,104.52,0,0,1,15.3-5.59C299.37,155.75,306.34,153.81,313.66,154Zm-38.29,4.61-.09,0s0,0,0,.07l.11-.12.09,0s0,0,0-.06Zm.81-.54c.32,0,.61-.1.7-.47,0-.16-.07-.26-.23-.22-.36.08-.45.37-.47.69l-.1,0s0,0,0,.07Z"/><path class="cls-3" d="M238.63,152.9a18.11,18.11,0,0,1-.81,8.49c-1.64,4.67-5.21,7.3-9.71,8.82-8.08,2.72-16,2-23.75-1.3-1.37-.58-2.65-1.33-4-2l1.43-.74c7.73-4,11.46-10.45,11.5-19,0-4.69-1.52-9.11-3.17-13.46-2.13-5.63-4.65-11.15-5.26-17.24a30.88,30.88,0,0,1,3.61-18.24c.28,3,.57,6.07.85,9.11.65,6.9,1.82,13.67,5.11,19.9a20.69,20.69,0,0,0,5.56,7.21c4.59,3.86,9.77,5.86,15.87,4.61a2.76,2.76,0,0,1,1.3.15,30,30,0,0,0,6.5,1.33,8.12,8.12,0,0,1,1.62,4.19,6.69,6.69,0,0,1-5.42,6.84C239.16,151.72,238.28,151.73,238.63,152.9Zm-20.37,8.16c0,.71,0,1,0,1.34-.25,2-1.45,3.36-2.94,3.16-.47-.06-1-.27-1,.4s.51.71,1,.75c2.14.15,3.93-1.64,4-4.11.05-1.26,0-2.52,0-3.78a5.93,5.93,0,0,1,1.79-4.34,36.27,36.27,0,0,1,4.53-3.38,9.9,9.9,0,0,0,3.71-4.14c.91-2.22.24-5.12-1.52-6.16-.34-.2-.74-.5-1.06,0s-.05.77.35,1a2.42,2.42,0,0,1,1,1.07,4.83,4.83,0,0,1-.95,5.35,24.44,24.44,0,0,1-4.23,3.3c-1.83,1.33-3.61,2.68-4.43,4.93A7.79,7.79,0,0,0,218.26,161.06Zm20.32-16.67a2.73,2.73,0,0,0-1-2.57c-.3-.25-.62-.39-1-.09s-.12.53.06.82c1.25,2,1,3.75-.8,5.35a11.36,11.36,0,0,1-3.26,2.12c-.85.37-.95.83-.41,1.55,3.46,4.56.41,10.94-5.24,11.6-.49.06-1.16,0-1.08.67s.8.44,1.22.41a8.31,8.31,0,0,0,6.77-12.12c-.48-1-.27-1.23.55-1.68C236.81,149.15,238.73,147.52,238.58,144.39Zm-28.69,19.05-.29-.32,1.87-1.66c.34-.31.31-.61,0-.92s-.55-.13-.79.11l-2.09,2.1c-.23.24-.43.75-.13.79.81.09.85,1.07,1.47,1.18s1.23-.44,1.8-.77a7.61,7.61,0,0,0,1.65-1.39c.33-.34.88-.7.42-1.23s-.84.09-1.17.37A8.71,8.71,0,0,1,209.89,163.44Zm17.71-2.51a3.85,3.85,0,0,0,2.47-2.43.54.54,0,0,0-.2-.58.51.51,0,0,0-.73,0,9.32,9.32,0,0,1-2,2.09.45.45,0,0,0-.07.61A.52.52,0,0,0,227.6,160.93Zm-12.54-28.69c-.05-.44,0-.75-.27-.89s-.61.05-.77.34c-.44.77-.86,1.55-1.28,2.34a.61.61,0,0,0,.26.9.56.56,0,0,0,.81-.23C214.27,133.85,214.69,133,215.06,132.24Zm.78,4.17c0-.43,0-.67-.29-.76a.59.59,0,0,0-.8.28l-1.16,2.28a.57.57,0,0,0,.95.63C215,138,215.47,137.12,215.84,136.41Zm1.5.51c.67-.32.78-1,1-1.71.17-.47.41-1,0-1.37a.51.51,0,0,0-.86.26c-.26.66-.54,1.32-.76,2C216.58,136.53,216.66,136.92,217.34,136.92ZM231,154.71h0v-.53c0-.56-.18-1-.83-1s-.4.6-.31,1a2.41,2.41,0,0,1-.06,1.33c-.13.35-.26.73.28.84a.69.69,0,0,0,.88-.61A9.46,9.46,0,0,0,231,154.71Z"/><path class="cls-10" d="M258.61,190.7c3.5-.8,7-1.81,10.53-2.34a185.77,185.77,0,0,1-2.1,21.69,9.55,9.55,0,0,0-.07,1.2c-.84,2.89-1,5.89-1.61,8.82-.89,4.3-1.51,8.66-3.27,12.74a14.35,14.35,0,0,1-8.44,8,40.85,40.85,0,0,1-9.13,2.15,9.82,9.82,0,0,1,1.07-2.72A36.24,36.24,0,0,0,248,226.85c0-2.07,0-4.15,0-6.22,0-.79-.14-1-.9-.49-4.84,3-9.66,6-14.58,8.89-4.14,2.41-8.36,4.7-12.62,6.88-5.93,3-11.88,6-17.92,8.81-6.64,3.08-13.3,6.2-20.58,7.5-8,1.43-15.58.34-22.46-4.46-6.26-4.37-10.75-10.23-14.79-16.56-2.92-4.57-5.79-9.18-8.56-13.85-4.13-6.95-8.15-14-11.78-21.18-2-3.92-3.95-7.84-6-11.74-.37-.72-.29-1.24.34-1.61s1.09,0,1.4.57c2,3.91,3.85,7.84,5.9,11.7,2.46,4.63,4.89,9.28,7.57,13.8,1,1.69,1.92,3.44,2.92,5.14,2.42,4.08,4.81,8.18,7.36,12.18,1.66,2.62,3.34,5.22,5.11,7.76a48.22,48.22,0,0,0,10,10.9,27.14,27.14,0,0,0,12,5.56,29.23,29.23,0,0,0,10.83-.26c6.89-1.33,13.23-4.18,19.54-7.11,5.08-2.36,10.16-4.75,15.14-7.33,3.33-1.72,6.63-3.54,9.92-5.36s6.72-3.77,10.06-5.69,6.57-4,9.85-6c.49-.3.94-.78,1.58-.31.16.12.29.18.43,0,1.26-2,3.46-2.78,5.14-4.23,3.23-2.78,6.83-5.11,9.87-8.12a2.66,2.66,0,0,0,.7-3.27h0c.06-1.49-.73-2.73-1.22-4.06C261.23,195.89,259.83,193.33,258.61,190.7Z"/><path class="cls-10" d="M172.83,166.7c2.52.31,5,.75,7.57.81-.12,1.25.71,2.2,1.13,3.25,2,5,3.85,10,5.42,15.07,1,3.25,1.91,6.53,2.74,9.9,2-1.94,4.52-2.94,6.82-4.32,4.76-2.85,9.68-5.43,14.67-7.86,4-2,8.18-3.7,12.31-5.46,3-1.31,6.14-2.54,9.25-3.73,2.26-.86,4.58-1.56,6.86-2.37.72-.26,1.29-.14,1.57.56s-.28,1-.79,1.21c-2.18.83-4.38,1.61-6.57,2.42-6.88,2.53-13.62,5.36-20.22,8.54q-9.42,4.54-18.44,9.79c-.7.4-1.33.93-2.05,1.29-1,.52-1.82,1.34-3.27,1-.88-.18-2,.66-2.94,1.16-1.35.7-2.64,1.51-4,2.26-1,.6-.88-.26-.89-.8a6.06,6.06,0,0,0-1.94-4.84,2.74,2.74,0,0,0-4,0c-2.38,2.18-3.93,5-6,7.46a3,3,0,0,1-1,1,4.07,4.07,0,0,0-1-1.66,4.18,4.18,0,0,0-6.43,1.69c-1.65,3.32-2.37,6.91-3.37,10.64a6.2,6.2,0,0,1-.33-3.89c.39-2.19.13-4.38.42-6.58a97.94,97.94,0,0,1,2.42-12.37,75.09,75.09,0,0,1,7.41-17.4C169.59,171.13,171.29,169,172.83,166.7Z"/><path class="cls-10" d="M238.63,152.9c-.35-1.17.53-1.18,1.26-1.35a6.69,6.69,0,0,0,5.42-6.84,8.12,8.12,0,0,0-1.62-4.19,23.84,23.84,0,0,0,7.89-.76,40,40,0,0,1,.88,4.74,1.43,1.43,0,0,0,1.63,1.28,1.37,1.37,0,0,0,1.29-1.6c0-.49-.11-1-.18-1.46-.2-1.42-.41-2.84-.62-4.26,3.61-1.8,6.63-4.44,9.73-7a69.6,69.6,0,0,1,10.53,1.9l.71.14a6.81,6.81,0,0,0,.73.33c2.71.91,2.64.57,1.8,3.43-1.21,4.13-2.47,8.25-3.71,12.38a16.62,16.62,0,0,1-3.18,1.38A59.24,59.24,0,0,0,245.3,172.3c-.15.22-.33.42-.49.63-.7-.28-1.39-.6-2.1-.82a1.16,1.16,0,0,1-.91-1.28c0-5.73-.74-11.4-1.33-17.09C240.32,152.31,239.27,153.13,238.63,152.9Zm30.53-9.27c0-.28-.2-.62-.41-1-.39-.61-.79-1.21-1.19-1.81-1.06-1.62-2.12-3.24-3.2-4.84a1.42,1.42,0,0,0-2-.55,1.3,1.3,0,0,0-.66,1.84c1.57,2.52,3.23,5,4.91,7.44a1.2,1.2,0,0,0,1.57.39A1.59,1.59,0,0,0,269.16,143.63Z"/><path class="cls-11" d="M208,45.66a52.69,52.69,0,0,0-1.11,6.47c-1.08,6.8-2.38,13.53-6.16,19.47A24.26,24.26,0,0,1,188,81.51a40.83,40.83,0,0,1-9.25,2.31c-3.53.39-6.3,2.17-9,4.14a38.62,38.62,0,0,0-9.28,9.29,28.32,28.32,0,0,0-5,12.51,23.35,23.35,0,0,0,3.42,16.1A15.21,15.21,0,0,0,161,128.5c.37.38,1.16.79.52,1.41s-1.14-.17-1.5-.58a23.07,23.07,0,0,1-5.28-10.17c-1.74-7.78-.15-14.93,4.07-21.58A40.58,40.58,0,0,1,170,86.26c.35-.24.81-.37,1.06-.91a9.68,9.68,0,0,0-3.55.52,39.31,39.31,0,0,0-12.24,4.37,7.09,7.09,0,0,0-2.4,2.08l-.24-.21-.1.22,0,0a3.35,3.35,0,0,0-1.49,1.1,24,24,0,0,0,8.69,40.16c.58.2,1.79.11,1.46,1.12s-1.24.23-1.78,0a25.49,25.49,0,0,1-17.13-25.86c.33-1.53.58-3.08,1-4.58a24.82,24.82,0,0,1,11.26-15,15.65,15.65,0,0,0,1.4-1l.34-.29h0c1.5,0,2.71-.89,4.06-1.36,4.08-1.42,8.34-2,12.53-3a30.21,30.21,0,0,0,13.32-7.24c1.3-1.14,2.6-2.38,2.86-4.27,1.06-1.13,1.11-2.62,1.35-4,.34-2,.44-4,.81-6A26.15,26.15,0,0,1,206,42.55a3.17,3.17,0,0,0,1.88-2.31c3.76-14.85,14.58-23.8,29.88-24.82,10.36-.69,19.7,2.46,28.52,7.58,1,.56,1.9,1.22,2.89,1.75a1.68,1.68,0,0,1,1,1.82,10.08,10.08,0,0,1-2.42-1c.06-.25-.09-.33-.3-.36l0,0A51.51,51.51,0,0,0,251.79,18c-10-2.72-19.8-2.17-29,3.12-7.75,4.45-12,11.34-13.87,20a7.33,7.33,0,0,0,3.93-1.32c.85.76,1.74.05,2.56,0a48.82,48.82,0,0,1,11.27-.24c1.55.2,3.13.13,4.7.25a125.82,125.82,0,0,0,14.4.6c6.61-.27,12.77-1.89,18.07-6a18.68,18.68,0,0,0,4.61-5.58c.28-.49.57-1.1,1.2-.73s.06.89-.14,1.27a20,20,0,0,1-8.37,8.32,34.58,34.58,0,0,1-14.55,3.88c-6.13.4-12.16-.55-18.24-.79-5.91-.22-11.87-.54-17.65,1.29-.83.4-2.07.15-2.35,1.42C208.2,44.15,208.14,44.91,208,45.66ZM191.21,70.91c-1.94,5.5-6.37,8.54-11.3,11.13a1.12,1.12,0,0,0,1.17.17c2.32-.66,4.68-1.17,7-2A23.52,23.52,0,0,0,202.4,65.8a69.76,69.76,0,0,0,3.37-14.08c.11-.68.75-1.53-.05-2.25,1.06-1.88.9-4,1.5-6.12a25.51,25.51,0,0,0-10.3,8.19C192.54,57.29,191.94,64.11,191.21,70.91Z"/><path class="cls-11" d="M208.5,98.21a30.88,30.88,0,0,0-3.61,18.24c.61,6.09,3.13,11.61,5.26,17.24,1.65,4.35,3.2,8.77,3.17,13.46,0,8.56-3.77,15-11.5,19l-1.43.74a26.78,26.78,0,0,1-8.76,1.16c-2-.11-3.84-.92-5.84-.87,0-.51-.9-.83-.36-1.39s1-.1,1.5.07a7.49,7.49,0,0,0,3,.59,13.66,13.66,0,0,0,8.9-.55,15.34,15.34,0,0,0,1.67-.5c7.77-3.29,12.78-11.26,11.45-20.88a55.17,55.17,0,0,0-3.74-12.64c-2.21-5.62-4.38-11.25-4.59-17.39a6.87,6.87,0,0,0-.15-2.89c.74-8.08,3.4-15.35,9.11-21.31.61-.64,1.06-1.47,2-1.79.75.79.65,1.35-.24,2.06A19.42,19.42,0,0,0,208.5,98.21Z"/><path class="cls-10" d="M210.11,255.82c3.49,1.05,6.73,1.68,10,2.33a11,11,0,0,1,3.59,1.07c1.28.76,1.29,1.48.21,2.42s-2.75,1.3-4.14,1.9a26.3,26.3,0,0,0-3,1.49c-.26.15-.56.36-.51.73s.4.43.7.53c2,.68,4,.5,6,.5.76,0,1.37.1,1.29,1.08,0,.4-.19.71-.6.78a12.87,12.87,0,0,1-8.75-1.17c-1.53-.86-1.6-2.06-.32-3.3a11.49,11.49,0,0,1,4.54-2.52c.17-.06.39-.05.51-.15.47-.38,1.54-.21,1.45-.91-.07-.52-1-.47-1.63-.56-4.12-.65-8.13-1.81-12.16-2.83a3.81,3.81,0,0,1-1-.48,1.83,1.83,0,0,1-1-1.67c.05-.84.84-.76,1.35-.83,3-.45,6-.87,9-1.22,3.29-.39,6.58-.7,9.87-1a6.5,6.5,0,0,1,1.08,0,1,1,0,0,1,1,.87c.05.55-.27.87-.82,1.08a12.87,12.87,0,0,1-3.59.38c-3.67.27-7.29.83-10.95,1.18C211.71,255.5,211.1,255.65,210.11,255.82Z"/><path class="cls-10" d="M112.2,235.42c1,1.15,1.83,2,1.67,3.4a2.13,2.13,0,0,1-2.07,2,8.48,8.48,0,0,1-4.65-1.11c-2.23-1.16-4.51-2.23-6.24-4.13-.37-.4-.86-.77-.34-1.36a1,1,0,0,1,1.64-.06,21.28,21.28,0,0,0,8.18,4.54c.51.13,1.12.51,1.45-.08s-.37-.85-.69-1.18a26.65,26.65,0,0,0-3.17-2.93c-.39-.29-.76-.64-.5-1.26s.73-.63,1.23-.56c1.5.23,3,.52,4.5.72,1,.12,2.34.52,2.79-.17s-.93-1.31-1.53-1.93A33.11,33.11,0,0,0,106,225c-.24-.13-.46-.29-.69-.42a1,1,0,0,1-.53-1.45c.32-.6.94-.53,1.43-.29a27.11,27.11,0,0,1,3.44,1.86,40.54,40.54,0,0,1,7.51,6.32,3.84,3.84,0,0,1,1,1.58c.45,1.89-.31,2.81-2.31,2.82Z"/><path class="cls-10" d="M132.67,139a20.1,20.1,0,0,0-4.19-4.47c-.52-.43-1-.81-.8-1.54.21-.89,1-.63,1.56-.65a17.42,17.42,0,0,1,3.88.24,1.26,1.26,0,0,0,1.45-.48c.29-.58-.34-.86-.66-1.2a14.85,14.85,0,0,0-4.41-3.24c-.65-.3-1.32-.81-.93-1.69s1.13-.65,1.81-.25a18.15,18.15,0,0,1,5.71,4.6,2.47,2.47,0,0,1,.58,2.59,2.6,2.6,0,0,1-2.46,1.58h-.14c-.64.1-1.67-.34-1.86.23s.64,1.26,1.15,1.8a6.29,6.29,0,0,1,1.71,2.54,1.62,1.62,0,0,1-1.58,2.2,7.3,7.3,0,0,1-3.51-.73,46.4,46.4,0,0,1-9.3-5.09,1.19,1.19,0,0,1-.34-1.86c.58-.77,1.1-.17,1.59.2a41.34,41.34,0,0,0,9.51,5.17A1.86,1.86,0,0,0,132.67,139Z"/><path class="cls-2" d="M143.7,108.2a24.44,24.44,0,0,1,7.37-14.8,3.35,3.35,0,0,1,1.49-1.1c.3.43-.14.65-.29.91a47,47,0,0,0-5.21,12.56C146,106.71,145.19,107.89,143.7,108.2Z"/><path class="cls-10" d="M236,183.73a1.06,1.06,0,0,1-1.12-.73,1.16,1.16,0,0,1,.55-1.29q2.79-1.86,5.63-3.66c.91-.58,1.85-1.1,2.77-1.66a.87.87,0,0,1,1.36.37,1,1,0,0,1-.33,1.53,71.45,71.45,0,0,0-8.45,5.27A2,2,0,0,1,236,183.73Z"/><path class="cls-10" d="M248.57,182.64a1.08,1.08,0,0,1-.39.83,46.89,46.89,0,0,1-7.74,6.22,1,1,0,0,1-1.23-1.55c2.72-1.77,5.08-4,7.61-6C247.64,181.5,248.53,181.83,248.57,182.64Z"/><path class="cls-10" d="M246.1,196.42a1,1,0,0,1-.95-.67c-.23-.54,0-.93.45-1.29,1-.89,2.32-1.32,3.32-2.24,1.19-1.09,2.45-2.09,3.65-3.15.5-.43,1-.7,1.52-.16a1,1,0,0,1,0,1.56,39.48,39.48,0,0,1-7.65,5.83A1.82,1.82,0,0,1,246.1,196.42Z"/><path class="cls-10" d="M252,202.39a1.12,1.12,0,0,1-1.1-.6c-.23-.38,0-.67.22-1a17.13,17.13,0,0,1,2.45-1.88,22.9,22.9,0,0,0,3.41-3.41c.39-.5.94-1,1.58-.51s.36,1.23-.12,1.79c-1.71,2-3.41,4-5.84,5.26Z"/><path class="cls-10" d="M263.46,202.68c.36,1.92-1.46,2.3-2.39,3.25a47.16,47.16,0,0,1-3.86,3.14c-.56.45-1.2.63-1.67.05a1.13,1.13,0,0,1,.33-1.66c1.84-1.5,3.71-3,5.52-4.51a1.63,1.63,0,0,1,2.07-.27Z"/><path class="cls-9" d="M275.55,133.53l-.71-.14c1.55-3.82,3.11-7.63,4.63-11.46,1.9-4.78,3.72-9.59,5.37-14.47a2.94,2.94,0,0,1,.52-.75c1.47-1.14,1.43-1.09.19-2.48a36.81,36.81,0,0,1-8.43-15,3.81,3.81,0,0,1,.25-3.26,1.69,1.69,0,0,0,.14-1.75l.56.25a46.56,46.56,0,0,1,10.17,10.09,27.3,27.3,0,0,0-3.44-9.71,42.8,42.8,0,0,0-6-7.76c1.57-1.21,3-.26,4.39.35a45.57,45.57,0,0,1,8.36,7.94c.17.2.35.43.68.3,0-.08.12-.17.1-.24A33.82,33.82,0,0,0,286.11,71c-.32-.43-.87-.77-.75-1.44l1.42.24c3.91,2.25,6.71,5.66,9.5,9.16a10.51,10.51,0,0,0,.08-3.35c-.34-2.21-.65-4.42-1-6.62,2,1.13,3.21,3,4.64,4.7a34.22,34.22,0,0,1,2.92,7.65,26.94,26.94,0,0,1-2.89,19,103.71,103.71,0,0,1-17.81,24A31.65,31.65,0,0,0,275.55,133.53Z"/><path class="cls-12" d="M331.78,67a.76.76,0,0,0,.22-.17c2-3,4.82-3.42,8.26-3.41,29.6.14,59.21.08,88.82.1.93,0,1.41-.12,1.57-1.23a5.38,5.38,0,0,1,5.53-4.55,5.59,5.59,0,0,1,1.67,10.88,5.37,5.37,0,0,1-6.65-2.69A2,2,0,0,0,429,64.58q-45.56,0-91.12,0A4,4,0,0,0,334.33,66a27,27,0,0,1-2,2q-3.93,3.9-7.85,7.78c-.31.31-.59.94-1.17.29s.09-.79.36-1.06C326.39,72.38,329.09,69.67,331.78,67Z"/><path class="cls-13" d="M405.18,227.83c1.14-3.74,3.89-5.51,7.13-4.61a5.57,5.57,0,0,1-.7,10.86,5.44,5.44,0,0,1-6.1-3.78c-.25-.87-.55-1.18-1.52-1.17q-35.83,0-71.67,0c-.4,0-.81,0-1.21.06-4.51,0-9-.05-13.52-.06-3.92,0-7.84,0-11.76,0a3.18,3.18,0,0,1-2-.61q-12.45-8.94-24.94-17.84s-.09-.05-.11-.08c-.2-.4-1.24-.32-.69-1.14s.94,0,1.3.21c3.31,2.34,6.61,4.7,9.9,7l14.95,10.69a2.42,2.42,0,0,0,1.45.62q13.38,0,26.77-.06c.31,0,.63,0,.94,0H404c.31,0,.63,0,.94,0S405.2,228,405.18,227.83Z"/><path class="cls-13" d="M353,119.88c3,0,5.94.05,8.91.05,9.73,0,19.46,0,29.19,0,.86,0,1.23-.18,1.38-1.1a5.4,5.4,0,0,1,5.73-4.61,5.58,5.58,0,0,1,1.13,11A5.59,5.59,0,0,1,392.8,122l-.33-.74c0-.16-.05-.25-.23-.18l-38.94,0c-.54,0-1.08-.07-1.62-.07q-26.3,0-52.58,0a3,3,0,0,0-2.35,1q-5.12,5.2-10.32,10.32c-.29.28-.52,1-1.16.42s.08-.86.37-1.15c3.58-3.62,7.2-7.2,10.77-10.83a2.72,2.72,0,0,1,2.14-.84q26.43,0,52.86,0C351.94,119.93,352.48,119.9,353,119.88Z"/><path class="cls-14" d="M313.66,154c-7.32-.16-14.29,1.78-21.25,3.69a104.52,104.52,0,0,0-15.3,5.59c-.24.11-.48.27-.82,0,.28-.71,1-.91,1.56-1.32,2.59-2,5.22-3.95,7.84-5.91a1.55,1.55,0,0,1,.5-.16c.49.59.91,0,1.31-.11a82.6,82.6,0,0,1,17.3-4.88A11.29,11.29,0,0,1,312,152,2.62,2.62,0,0,1,313.66,154Z"/><path class="cls-14" d="M317.93,170.28a34.63,34.63,0,0,0-7.31-1.62,93.91,93.91,0,0,0-13.73-1.49,52,52,0,0,0-14.07,1.39.51.51,0,0,1-.45-.12c3.24-1.82,6.43-3.73,10.06-4.74.43.49,1,.32,1.52.31a80.62,80.62,0,0,1,15.83.79,15.31,15.31,0,0,1,8.21,3.72C318.63,169.13,319,169.73,317.93,170.28Z"/><path class="cls-14" d="M302.79,141.85a23.34,23.34,0,0,0-5.47,2.56c-4.05,2.21-8,4.55-11.88,7.13-2.48,1.67-4.88,3.48-7.32,5.23-.21.15-.36.4-.76.33-.05-.55.39-.78.7-1a44.17,44.17,0,0,0,5-4.82c1.53-1.68,1.29-2.36-.87-2.88-.3-.07-.65,0-.88-.27,5.3-3.1,10.56-6.3,16.53-8a12.13,12.13,0,0,1,3.45-.48C303.09,139.61,303.45,140.15,302.79,141.85Z"/><path class="cls-14" d="M308.2,179.22c-4.61-.92-9.26-1.57-13.91-2.17-2.53-.32-5.09-.46-7.63-.6a14.72,14.72,0,0,1-3.84-.42c1.72-.7,3.48-.62,5.17-.93,3.12-.56,6.27-1,9.39-1.57.76-.14,1.4.31,2.12.16a26.63,26.63,0,0,1,8.41,2.22C309.62,176.7,309.7,178,308.2,179.22Z"/><path class="cls-11" d="M349.23,109.52c0,4.46-3,6.81-7.33,5.74a4.9,4.9,0,0,1-1.92-1c-1.9-1.61-2.48-5.54-1.21-8.17a5.51,5.51,0,0,1,6.13-2.64C347.82,104,349.23,106,349.23,109.52Zm-8.48.33a10.07,10.07,0,0,0,.29,1.56,2.67,2.67,0,0,0,3.35,1.9c1.44-.33,2.11-1.36,2.24-3.4.13-2.28-.51-3.79-1.83-4.25a2.48,2.48,0,0,0-.66-.12C341.86,105.31,340.65,106.75,340.75,109.85Z"/><path class="cls-11" d="M311.89,215c0-1.67,0-3.34,0-5,0-.54.09-.85.73-.82,1.3.05,2.62,0,3.92.07,3.18.3,5,2.35,5.06,5.58s-1.65,5.47-4.72,5.91a41.39,41.39,0,0,1-4.32.14c-.69,0-.67-.41-.66-.88Zm7.06,0c0-.18,0-.36,0-.54-.13-2.32-1.53-3.49-3.85-3.27-.54.05-.79.18-.78.78,0,2,0,4.05,0,6.08,0,.68.26.81.87.82C317.69,218.88,319,217.6,319,215Z"/><path class="cls-11" d="M288.06,39c-.9-.5-1.77-1-2.7-1.49s-.94-.86-.46-1.58a47.29,47.29,0,0,1,11.93,7.57c5.49,5,8.95,11,9.23,18.57a18.88,18.88,0,0,1-1.93,9.15c-.18.36-.34.82-.86.64s-.46-.63-.26-1c5-9.7-.21-21.47-8.53-27.8A42.27,42.27,0,0,0,290,40c-.35-.2-.65-.66-1.18-.41h0c.11-.29-.1-.28-.28-.29l0,0C288.54,39,288.28,39,288.06,39Z"/><path class="cls-11" d="M339.74,214.9a3.37,3.37,0,0,1,1.17,3.82c-.56,1.66-2,2.08-3.46,2.3-.4.06-.8,0-1.2.08l-.8-.17c-2.07-.43-2.07-.43-1.87-2.76,1.16.25,2.24.86,3.46.79.71-.05,1.39-.11,1.6-.93s-.35-1.17-.9-1.49c-.73-.44-1.53-.76-2.26-1.19a3.39,3.39,0,0,1-1.85-3.59,3.25,3.25,0,0,1,3.12-2.69,7.37,7.37,0,0,1,3.45.42c.55.18.89.46.53,1.07s-.23,1.36-1.24.95a4.81,4.81,0,0,0-2.09-.44,1.31,1.31,0,0,0-1.34.94,1.15,1.15,0,0,0,.69,1.33C337.73,213.9,338.74,214.39,339.74,214.9Z"/><path class="cls-11" d="M330.29,109.61c0,3.15,1.45,4.23,4.62,3.57.37-.08,1.07-.84,1.25.15.14.74.29,1.56-.9,1.87-2.88.75-5.55,0-6.72-2-1.43-2.51-1-6.5.87-8.32A6.36,6.36,0,0,1,336,104c.71.35.46.76.24,1.2s-.14,1.2-1,.87l-.12,0C332,104.54,330.14,106.5,330.29,109.61Z"/><path class="cls-11" d="M322.57,209.3c2.53-.31,2.53-.31,3.55,1.72.45.91.91,1.82,1.47,2.91l1.47-2.79c1.09-2.07,1.09-2.07,3.61-1.9-.73,1.35-1.34,2.7-2.14,3.93a9,9,0,0,0-1.63,6.35c.15,1.06-.24,1.38-1.31,1.37s-1.42-.32-1.25-1.31c.45-2.58-.67-4.71-1.91-6.83C323.78,211.64,323.21,210.49,322.57,209.3Z"/><path class="cls-11" d="M281.27,32.3c-.24-.69.27-.93.73-1.23a26.56,26.56,0,0,1,9.26-3.68c.39-.08.77-.21,1.16-.31a42.81,42.81,0,0,1,7.25-.07c1.23.23,2.47.43,3.69.72.48.11,1.29.11,1.12.86s-.87.41-1.36.28a22.84,22.84,0,0,0-8.27-.68,24.64,24.64,0,0,0-12,3.76C282.35,32.22,281.93,32.84,281.27,32.3Z"/><path class="cls-8" d="M355.67,157.22a2.64,2.64,0,0,1,2.31-2.44,2.74,2.74,0,0,1,3.08,1.65,2.61,2.61,0,0,0,.31.43c-.17.67-.34,1.33-.5,2a2.79,2.79,0,0,1-5.2-1.08Z"/><path class="cls-11" d="M287.67,32.6a39.05,39.05,0,0,1,15.12,3.67,6.64,6.64,0,0,1,1,.59.4.4,0,0,1,0,.6c-.33.42-.72.29-1.1.1a34.83,34.83,0,0,0-5.12-2.05,38,38,0,0,0-9.93-1.73c-.53,0-1.53.29-1.45-.68S287.27,32.68,287.67,32.6Z"/><path class="cls-13" d="M324.88,170.79a13.07,13.07,0,0,1-2.71,7.15c-.25.32-.5.89-1.05.45s-.16-.79.11-1.16a12.5,12.5,0,0,0,2.52-7.11c0-.47-.27-1.26.6-1.2s.45.82.53,1.3A4.58,4.58,0,0,1,324.88,170.79Z"/><path class="cls-13" d="M330,172.24a13.42,13.42,0,0,1-2.94,7.95c-.25.3-.49.74-1,.39s-.23-.77.06-1.13a12.17,12.17,0,0,0,2.68-7.19c0-.42-.09-1,.59-1S330,171.93,330,172.24Z"/><path class="cls-13" d="M308.93,78.2a.54.54,0,0,1-.62-.45c-.1-.44.17-.69.57-.74a46.54,46.54,0,0,0,8-1.85c.43-.13.76,0,.86.38s-.29.68-.7.81A47.54,47.54,0,0,1,310.37,78Z"/><path class="cls-13" d="M314.82,68.05c0,.46-.35.63-.65.83l-6.36,4.32c-.34.23-.73.7-1.14.09s.1-.81.47-1.06l6.58-4.49C314.23,67.39,314.64,67.36,314.82,68.05Z"/><path class="cls-13" d="M308.23,83.94l6.94,1.4c.37.08.72.23.6.71a.62.62,0,0,1-.83.46L307.82,85c-.38-.08-.75-.17-.7-.63S307.61,83.85,308.23,83.94Z"/><path class="cls-13" d="M286,192.41a11.68,11.68,0,0,1-1.25-.09c-.36-.06-.73-.24-.63-.69s.41-.54.83-.48a10.13,10.13,0,0,0,5.73-1c.4-.18.71-.15.88.25s-.05.68-.41.84A12.1,12.1,0,0,1,286,192.41Z"/><path class="cls-13" d="M287.86,198.22H287c-.36,0-.65-.16-.67-.52A.59.59,0,0,1,287,197a14.21,14.21,0,0,0,5.13-.84c.32-.11.76-.18.89.3s-.22.68-.63.84A14.87,14.87,0,0,1,287.86,198.22Z"/><path class="cls-5" d="M285.13,269.56c-.65-.95-1.32-1.9-2-2.86-.26-.38-.81-.82-.26-1.27s.95.26,1.25.59a29.25,29.25,0,0,0,2.28,2.94c0,.62,1.17,1.19.38,1.73s-1-.6-1.47-1Z"/><path class="cls-4" d="M351.92,113.69c-.31-.23-.26-.54-.22-.86l.14-.11.3.75Z"/><path class="cls-11" d="M364.72,105.44c2.15-2.17,4.72-2.38,7.49-1.62.45.13,1.12.18.66.94-.31.5-.09,1.55-1.32,1.09-1.55-.57-3.16-.65-4.39.68s-1.23,3.24-.71,5a3,3,0,0,0,3.72,1.84c1-.35.42-1.23.54-1.86s-.29-.74-.83-.74-1.48.32-1.44-.95c0-.84.27-1.14,1.09-1a9.77,9.77,0,0,0,1.21,0c2.31,0,2.31,0,2.53,2.21,0,1-.11,2-.07,3,0,.67-.21,1-.87,1.11s-1.05.22-1.59.28c-5.9.64-8.9-3.57-6.47-9.07.05-.12.08-.25.12-.38l.22-.31A.11.11,0,0,0,364.72,105.44Z"/><path class="cls-11" d="M383.06,103.66c2.34-.44,2.36-.42,2.53,1.9,0,2.84-.08,5.68,0,8.52,0,.94-.24,1.21-1.19,1.21s-1.39-.21-1.29-1.26,0-2.08,0-3.11c0-.6-.2-.83-.78-.76a.66.66,0,0,1-.14,0c-1.2.07-2.74-.49-3.51.22s-.27,2.23-.19,3.37-.33,1.62-1.55,1.54c-.82-.05-.94-.34-.93-1.05,0-3.51,0-7,0-10.55,2.43-.08,2.43-.08,2.43,2.27,0,.45,0,.9,0,1.35-.06.66.22.81.85.84,3.82.2,3.82.22,3.8-3.54Z"/><path class="cls-11" d="M352.14,113.47l-.3-.75c-.45-2.81-.16-5.65-.21-8.48,0-1.14.93-.5,1.43-.6s1.08-.18,1.06.72c-.05,2.2-.05,4.41,0,6.61,0,1.56.64,2.25,2,2.39a2.07,2.07,0,0,0,2.6-2.16c.07-2.16.09-4.32,0-6.48,0-1,.43-1.11,1.27-1.13s1.26.17,1.22,1.16c-.08,2,0,4,0,5.94,0,2.43-.74,3.69-2.59,4.39a5.72,5.72,0,0,1-6.1-1.2C352.37,113.75,352.26,113.61,352.14,113.47Z"/><path class="cls-8" d="M377.55,144.28l-.68-.93c-.47-1.94,0-3.22,1.42-3.88a2.87,2.87,0,0,1,3.5.89,3.12,3.12,0,0,1,.16,3.31,4,4,0,0,1-3,1.36Z"/><path class="cls-2" d="M392.24,121.07c.18-.07.24,0,.23.18Z"/><path class="cls-15" d="M364.61,105.56l-.22.31Z"/><path class="cls-11" d="M20.82,72.63c-.76,2.32-1.58,4.62-2.27,7A1.55,1.55,0,0,1,16.81,81c-1.14,0-1.18-.72-1.4-1.42-.76-2.43-1.51-4.88-2.33-7.56,0,2.79,0,5.32,0,7.84,0,.92-.31,1.12-1.17,1.12s-1.07-.27-1.06-1.08c0-3.2.05-6.4,0-9.6,0-.93.33-1.11,1.17-1.11,2.2,0,2.19,0,2.82,2a63.48,63.48,0,0,0,2.31,6.56c.56-1.69,1.13-3.39,1.7-5.08.27-.81.58-1.61.78-2.44A1.17,1.17,0,0,1,21,69.14c2.33,0,2.33,0,2.33,2.37,0,2.79-.05,5.59,0,8.38,0,1-.51,1-1.24,1s-1.14-.07-1.12-1c.07-2.41,0-4.82,0-7.23Z"/><path class="cls-11" d="M35.8,73.62c0,1.13.05,2.26,0,3.38-.13,2.48-1.81,3.94-4.52,4-3.1.05-4.88-1.25-5-3.86-.12-2.39,0-4.78-.08-7.17,0-1.13.75-.75,1.3-.79s1.25-.16,1.22.88c-.06,2.12-.05,4.24,0,6.36,0,1.18.3,2.24,1.76,2.48,1.72.29,2.77-.4,2.85-2.15.1-2.16.09-4.32,0-6.49,0-.94.33-1.14,1.18-1.11s1.42,0,1.32,1.1S35.8,72.49,35.8,73.62Z"/><path class="cls-11" d="M45.52,69.85c-.15.42-.31.84-.45,1.26s-.45.63-1,.41a7.27,7.27,0,0,0-2-.4,1.24,1.24,0,0,0-1.48.88c-.17.68.24,1.1.79,1.4s1.19.63,1.78.94c2,1,2.77,2.36,2.4,4S43.79,81,41.55,81a8.63,8.63,0,0,1-2.67-.3c-.59-.18-.93-.47-.89-1.12-.1-1.15.22-1.63,1.44-1a4.18,4.18,0,0,0,2.49.42c.6-.09,1.15-.32,1.28-1a1.22,1.22,0,0,0-.72-1.32c-.65-.39-1.36-.7-2-1.06-1.86-1-2.61-2.36-2.21-4S39.94,69.07,42,69A7.36,7.36,0,0,1,45.52,69.85Z"/><path class="cls-6" d="M429,28.42a.78.78,0,0,0-.06-1.26,10.17,10.17,0,0,1-3.21-5.76c-.21-1.14-1.16-.69-1.83-.84a3,3,0,0,0,.26-1.88c.94-.13,1.51-.55,1.49-1.62a3,3,0,0,1,.41-1.55,2.84,2.84,0,0,0-.5-3.9.7.7,0,0,1,.68-.45c1.08.94,1.87.73,2.83-.34A11.08,11.08,0,0,1,434.45,8a21.8,21.8,0,0,1,3.33,0,1.68,1.68,0,0,0,2.06-1.12l1.36.54a1.36,1.36,0,0,0,.87,1.86,10,10,0,0,1,4.44,4.41c.38.71.75,1,1.44.46l.3,1.1a1.23,1.23,0,0,0-.59,1.54,7.15,7.15,0,0,1,.17,3.73c-.31,1.18,0,1.69,1.25,1.63l-.36,1.6a1.83,1.83,0,0,0-2.43,1.15,8.79,8.79,0,0,1-4.79,4.33c-1.68.62-1.86,1.61-1.58,3.05l-1,.06c0-.27-.11-.53-.14-.8-.11-1-.5-1.33-1.64-1.21a9.55,9.55,0,0,1-5.81-1.36c-.59-.33-1.07-.43-1.56.09Zm-1-10.91a4.61,4.61,0,1,0,9.21,0,4.8,4.8,0,0,0-4.7-4.72A4.73,4.73,0,0,0,428,17.51Zm12.41,6.63A1.87,1.87,0,0,0,442,22.46c.14-.88-.9-1.85-1.88-1.84a1.66,1.66,0,0,0-1.86,1.66C438.16,23.34,439,24.11,440.36,24.14Zm-4.55,2.08c0-1.13-.47-1.55-1.42-1.56s-1.56.24-1.54,1.25.41,1.52,1.49,1.49C435.26,27.37,435.79,27,435.81,26.22Z"/><path class="cls-6" d="M409,16.27a7.07,7.07,0,0,1-8.5,0c-3.69-3.68-3.24-9,.95-11.33a6.82,6.82,0,0,1,9.05,2.19A6.64,6.64,0,0,1,409.25,16,1.57,1.57,0,0,0,409,16.27Zm-6.43-10a2.16,2.16,0,0,0-2.48,2.22,2.47,2.47,0,0,0,2.5,2.61A2.64,2.64,0,0,0,405,8.6,2.15,2.15,0,0,0,402.58,6.27Zm3.72,8.14a1.53,1.53,0,0,0,1.59-1.69,1.46,1.46,0,0,0-1.67-1.53,1.48,1.48,0,0,0-1.53,1.67A1.54,1.54,0,0,0,406.3,14.41Zm-3.92-2.18c-.52.18-1,.5-.91,1.2a1,1,0,0,0,1.1.93,1,1,0,0,0,1-1.16C403.51,12.6,403.09,12.28,402.38,12.23Z"/><path class="cls-11" d="M348.74,56.59c-.44,1.13-1.38.43-2.07.5s-.39-.66-.41-1c0-1,0-2.07,0-3.1,0-.68-.16-.92-.89-1-3.77-.14-3.84-.16-3.73,3.6,0,1.39-.44,1.67-1.66,1.56-.64-.06-.85-.23-.83-.86,0-1.08,0-2.16-.05-3.24,0-2,.11-4.12,0-6.17-.05-1.16.23-1.68,1.45-1.45a4.35,4.35,0,0,0,.8,0l.24.14c0,.4-.05.81,0,1.21.09,1.06-.51,2.67.24,3.06,1,.53,2.53.18,3.82.22.52,0,.57-.29.57-.69,0-.86.06-1.72,0-2.57s.13-1.39,1.28-1.39,1.21.41,1.2,1.33C348.67,50,348.72,53.31,348.74,56.59Z"/><path class="cls-11" d="M358.14,55c.14.79.95,1.75-.53,2.15-1.71,0-3.42-.06-5.13,0-.66,0-.84-.2-.83-.84q0-5,0-10c0-.61.13-.88.81-.86,1.67,0,3.34.06,5,0,.84,0,.94.35.93,1.05s-.11,1-.88,1-1.26,0-1.89,0a1.54,1.54,0,0,0-1.51,2.31c.16.34.41.3.67.3.72,0,1.44,0,2.16,0s1.21.08,1.21,1.07-.52,1-1.19.94a12.13,12.13,0,0,1-1.35,0c-1.23-.19-1.54.29-1.57,1.52s.41,1.73,1.66,1.56C356.51,55,357.33,55.05,358.14,55Z"/><path class="cls-16" d="M448.72,23.68l.36-1.6c1.82-1.85,4-2,5.35-.42a3.26,3.26,0,0,1,.3,3.77,3.16,3.16,0,0,1-3.47,1.46C449.69,26.52,448.93,25.57,448.72,23.68Z"/><path class="cls-8" d="M441.2,7.35l-1.36-.54a11.25,11.25,0,0,1-.7-1.14,2.75,2.75,0,1,1,5.05-2.15,2.71,2.71,0,0,1-1.67,3.59A9.59,9.59,0,0,1,441.2,7.35Z"/><path class="cls-16" d="M448.25,15.18l-.3-1.1a2.17,2.17,0,0,1,1.3-2.76,2,2,0,0,1,2.54.64,2.11,2.11,0,0,1,.1,2.74,2.09,2.09,0,0,1-2.37.85C449.09,15.44,448.67,15.31,448.25,15.18Z"/><path class="cls-8" d="M438.89,32.27l1-.06c1.52.43,1.82,1.07,1.29,2.74-.88.71-1.8,1.07-2.73.11S437.84,33.39,438.89,32.27Z"/><path class="cls-15" d="M341.63,45.56l-.24-.14C341.58,45.27,341.62,45.39,341.63,45.56Z"/><path class="cls-11" d="M372.18,51.3c0-1.67,0-3.33,0-5,0-.39-.1-.86.55-.84a23.64,23.64,0,0,1,5.11.23c2.57.65,3.92,2.46,4,5.36s-1.25,4.89-3.63,5.69c-1.8.6-3.66.34-5.5.4-.66,0-.53-.47-.53-.85C372.17,54.63,372.18,53,372.18,51.3Zm2.44-.07v3.1c0,.43,0,.73.62.8a3.4,3.4,0,0,0,4-3.22c.28-2.73-.88-4.29-3.22-4.48-1.11-.1-1.55.22-1.42,1.37A21.87,21.87,0,0,1,374.62,51.23Z"/><path class="cls-11" d="M406,51.2c0-1.67,0-3.34,0-5,0-1.09.68-.82,1.25-.84s1.31-.21,1.23.86,0,2,0,3c0,.59.21.83.78.76h.14c3.66.18,3.71.18,3.7-3.48,0-1,.43-1.15,1.28-1.13s1.24,0,1.22,1q-.1,4.86,0,9.72c0,1.07-.55,1-1.26,1s-1.39,0-1.22-1a2.57,2.57,0,0,0,0-.68c-.09-1.1.5-2.76-.24-3.18-1-.56-2.52-.18-3.81-.23-.64,0-.59.38-.59.8,0,1.17-.05,2.34,0,3.51.05,1-.61.83-1.16.78s-1.34.39-1.31-.76C406.07,54.62,406,52.91,406,51.2Z"/><path class="cls-11" d="M393.89,57.09a6,6,0,0,0-1,.06c-1.23.26-1.86-.31-2-1.48s-.68-1.46-1.71-1.29a2.21,2.21,0,0,1-.81,0c-1.59-.28-2.59.2-2.72,2-.05.63-.46.88-1.12.81a17.56,17.56,0,0,0-1.8,0c.83-2.38,1.62-4.64,2.42-6.9.48-1.4,1-2.79,1.44-4.21.24-.82.85-.75,1.38-.65.71.13,1.69-.56,2.1.6l3.76,10.68A1.5,1.5,0,0,1,393.89,57.09ZM388.4,47.4c-.28.91-.46,1.46-.62,2a13,13,0,0,1-.46,1.54c-.49,1.06-.21,1.38.94,1.33,1.71-.08,1.72,0,1.21-1.63C389.16,49.69,388.83,48.72,388.4,47.4Z"/><path class="cls-11" d="M370.66,57.14a8,8,0,0,0-1,0c-1.26.21-2.05-.18-2.15-1.57-.08-1-.72-1.32-1.67-1.19a2.7,2.7,0,0,1-.94,0,2,2,0,0,0-2.64,1.9c-.1.69-2.13,1.26-2.64.79-.25-.22-.07-.49,0-.72,1.2-3.43,2.44-6.84,3.59-10.29.33-1,1-.7,1.63-.68s1.54-.42,1.91.68C368,49.7,369.32,53.33,370.66,57.14ZM365,47.32c-.54,1.83-1,3.34-1.45,4.86h2.95C366,50.6,365.57,49.12,365,47.32Z"/><path class="cls-11" d="M418.53,51.14c0-1.62,0-3.24,0-4.86,0-.7.2-1,.91-.94,1.67,0,3.33.06,5,0,.95,0,.8.54.84,1.12s-.08,1-.86.95-1.71.05-2.56,0c-1.05-.09-.9.6-.87,1.21s-.29,1.45.87,1.37c.68,0,1.36,0,2,0,.87-.08,1.13.21,1.14,1.12s-.45,1-1.14.94a12.16,12.16,0,0,1-1.48,0c-1.23-.2-1.44.33-1.48,1.47-.05,1.36.4,1.76,1.66,1.57.49-.07,1,0,1.48,0,.75,0,1.25,0,1.24,1s-.36,1.11-1.18,1.08c-1.49,0-3-.06-4.46,0-.86,0-1.19-.2-1.15-1.11C418.58,54.38,418.53,52.76,418.53,51.14Z"/><path class="cls-11" d="M397.62,51.39c0,3.21,1.36,4.27,4.53,3.64.38-.08,1.07-.86,1.29.1.19.8.25,1.64-1,1.94-2.86.68-5.48-.07-6.61-2.06-1.4-2.46-1-6.41.77-8.23s4.74-1.75,6.82-.92c.6.24.39.64.18,1s0,1.2-.87,1.12a.77.77,0,0,1-.25-.1C399.47,46.35,397.41,48.26,397.62,51.39Z"/><path class="cls-8" d="M424.15,18.68a3,3,0,0,1-.26,1.88c-1.07,1.36-2,1.72-3.35,1.24a2.52,2.52,0,0,1-1.73-2.6,2.71,2.71,0,0,1,2.09-2.51C422.2,16.37,423.26,17,424.15,18.68Z"/><path class="cls-8" d="M429,28.42l.75.57a3,3,0,0,1,.1.66c0,.9-.51,1.47-1.42,1.45a1.23,1.23,0,0,1-1.3-1.26,1.33,1.33,0,0,1,1.35-1.51A1.89,1.89,0,0,1,429,28.42Z"/><path class="cls-8" d="M426.23,11.16a.7.7,0,0,0-.68.45,5.8,5.8,0,0,1-.93-.14,1,1,0,0,1-.74-1.26,1,1,0,0,1,1.07-1,1.07,1.07,0,0,1,1.18.87A7.32,7.32,0,0,1,426.23,11.16Z"/><path class="cls-1" d="M149.59,18.7c.49-4.22,2.07-5.62,6.33-5.62a36.42,36.42,0,0,1,4.05.06,4.77,4.77,0,0,1,4.46,5.15c-.13,4.86-.35,9.71-.51,14.57-.2,5.89-.37,11.78-.59,17.67a2.1,2.1,0,0,0,.83,1.94,11.18,11.18,0,1,1-17.94,11.08,10.48,10.48,0,0,1,3.41-10.64,3.09,3.09,0,0,0,1.26-3.1c-.13-.8-.14-1.61-.2-2.42.63,0,1.26,0,1.89,0a.84.84,0,0,0,.91-.81.86.86,0,0,0-.91-1c-.62,0-1.26,0-1.88-.06,0-1.19,0-2.37-.07-3.55,1.31-.45,2.67-.19,4-.29.71,0,1.32-.26,1.27-1.06s-.71-.81-1.33-.78l-4.17.22c0-1.88-.05-3.75-.07-5.63.79-.08,1.59-.14,2.38-.24a.8.8,0,0,0,.76-.92.85.85,0,0,0-.92-.77l-2.26,0c-.07-1.71-.14-3.43-.2-5.15a55.07,55.07,0,0,1,5.88-.5c.74-.07,1.57,0,1.44-1.11s-1-.73-1.6-.7c-1.93.11-3.86.26-5.78.39-.09-1.65-.17-3.3-.26-5l3.07-.09c.59,0,1.08-.13,1.07-.87s-.54-.82-1.11-.82Zm17.09,41.76A6.46,6.46,0,0,0,164,55.58a3.65,3.65,0,0,0-4.27-.35c-.94.77-1,2-.18,3.73q.1.24.24.48a2.43,2.43,0,0,1-.19,2.67,8.78,8.78,0,0,1-1.85,2,3.74,3.74,0,0,0-1.45,4c.56,1.39,1.81,2,3.84,1.76a5.55,5.55,0,0,0,2.4-.86C165.31,67.26,166.58,64.72,166.68,60.46Zm-6-33.89h-.07c0,2.52.1,5.05,0,7.57-.26,5.2-.47,10.42-1,15.61-.05.51,0,1,.64,1.13s1-.39,1.07-1c.07-.4.08-.81.11-1.21.22-3.23.44-6.46.61-9.69.33-6.48.52-13,.43-19.44,0-.69-.15-1.33-1-1.33s-.79.7-.79,1.29Z"/><path class="cls-13" d="M129.54,22.24,141.16,38c.16.21.33.42.48.64s.55.62,0,1-.7,0-.93-.34c-2-2.74-4.07-5.5-6.12-8.23s-3.89-5.16-5.84-7.73c-.43-.63-.88-1.25-1.28-1.89a1.43,1.43,0,0,0-1.36-.67l-35.55.1c-4.19,0-8.38,0-12.57,0-.82,0-1.24.13-1.5,1a5.45,5.45,0,0,1-6.05,3.85,5.59,5.59,0,0,1-.16-11,5.38,5.38,0,0,1,6.18,3.81c.32,1.14.84,1.28,1.85,1.28,15.68-.06,31.36-.06,47-.15,1.61,0,2.76.34,3.51,1.78A5.8,5.8,0,0,0,129.54,22.24Z"/><path class="cls-11" d="M126.11,14.39c-1.83.45-3.06.12-3.75-1.59-.32-.78-.93-1.43-1.32-2.19s-.86-.61-1.38-.52-.33.66-.34,1a15,15,0,0,0,0,2.42c.12,1.06-.48,1-1.22,1s-1.29.08-1.26-1c.07-3.23,0-6.47,0-9.71,0-.86.28-1.08,1.09-1a23.86,23.86,0,0,1,4.3.24,3.08,3.08,0,0,1,2.62,2.38A3.1,3.1,0,0,1,123.53,9c-.7.45-.61.76-.2,1.34C124.27,11.6,125.14,13,126.11,14.39Zm-6.83-7.95c.25.54-.56,1.63.88,1.62s2.39-.66,2.29-1.71C122.32,5,121.29,5,120.26,4.87,118.86,4.74,119.42,5.77,119.28,6.44Z"/><path class="cls-11" d="M67.44,75c0-1.58,0-3.15,0-4.73,0-.76.12-1.15,1-1.11,1.62.06,3.24.07,4.86,0,1,0,.8.55.84,1.12s-.06,1-.85,1a14.9,14.9,0,0,0-1.89,0,1.45,1.45,0,0,0-1.48,2.19c.16.41.47.35.77.36a11.92,11.92,0,0,0,1.89,0c1.11-.16,1.38.32,1.3,1.34,0,.63-.27.76-.81.72s-1.19.07-1.76,0c-1.24-.2-1.42.35-1.47,1.48-.06,1.36.41,1.75,1.66,1.56.49-.07,1,0,1.49,0,.84-.1,1.16.14,1.18,1.07s-.47,1.05-1.22,1c-1.53,0-3.07,0-4.6,0-.71,0-.94-.22-.92-.92C67.46,78.32,67.44,76.66,67.44,75Z"/><path class="cls-11" d="M107.75,8.8c0-1.66,0-3.33,0-5,0-.7.22-.95.93-.93,1.67,0,3.33,0,5,0,.86,0,.8.47.78,1s.16,1.12-.75,1c-.72-.07-1.45.07-2.16,0-1.22-.18-1.4.39-1.36,1.44,0,.85.23,1.25,1.14,1.15.53-.06,1.08,0,1.62,0,.85-.08,1.26.07,1.29,1.11s-.65.94-1.29.94a7.1,7.1,0,0,1-1.22,0c-1.23-.2-1.55.28-1.55,1.51s.33,1.7,1.57,1.52c.48-.07,1,0,1.48,0,.86-.09,1.27.07,1.27,1.11s-.56,1-1.26,1c-1.4,0-2.8-.07-4.19,0-1,.06-1.37-.19-1.3-1.24C107.82,11.87,107.75,10.33,107.75,8.8Z"/><path class="cls-11" d="M83.26,69c.85.07,1.71.08,2.55.22C88,69.59,89,70.69,89,72.74a3.65,3.65,0,0,1-3.24,3.84c-.79.16-1.9-.44-2.31.43a5.35,5.35,0,0,0-.07,2.53c.08.95-.16,1.34-1.23,1.33s-1.28-.34-1.26-1.32c.05-2.15,0-4.31-.06-6.47a21.86,21.86,0,0,0,.07-2.68c-.1-1.07.27-1.49,1.34-1.33A5.45,5.45,0,0,0,83.26,69Zm.06,3.72c0,1.87,0,1.87,1,1.88,1.38,0,2.21-.69,2.19-1.81s-.73-1.57-2.16-1.64S83.48,72.14,83.32,72.72Z"/><path class="cls-11" d="M87.87,8.71c0-1.63,0-3.25,0-4.87,0-.64.08-1,.86-1,1.67,0,3.34.06,5,0,.91,0,.88.46.89,1.1s-.06,1-.85,1-1.55.08-2.3,0c-1.16-.18-1.14.46-1.18,1.32s.19,1.42,1.25,1.27c.53-.08,1.08,0,1.62,0,1-.12,1.26.26,1.2,1.2,0,.61-.15.92-.83.86s-1.09.06-1.62,0c-1.26-.19-1.66.21-1.65,1.56s.42,1.64,1.59,1.48c.53-.07,1.09,0,1.62,0,.86-.09,1.17.18,1.17,1.11s-.4,1-1.14,1c-1.53,0-3.07-.06-4.6,0-.86,0-1.07-.26-1-1.07C87.91,12,87.87,10.33,87.87,8.71Z"/><path class="cls-11" d="M101,11.62c.81-2.6,1.61-5.16,2.42-7.73a2,2,0,0,1,2.48-1c.41.24.16.57.07.82-1.14,3.4-2.32,6.79-3.45,10.19-.4,1.19-1.35.52-2,.68s-1-.23-1.21-.88c-1-3.2-2.17-6.37-3.22-9.56-.12-.37-.72-1.09,0-1.19s1.85-.71,2.27.61c.77,2.44,1.52,4.88,2.28,7.32C100.65,11.15,100.6,11.46,101,11.62Z"/><path class="cls-11" d="M55.57,78.47c.24,2.16.16,2.26-1.88,2.48-3.6.38-5.73-1-6.34-4.13-.74-3.75.8-6.85,3.83-7.62a7.33,7.33,0,0,1,4.24.32c1,.34.42.9.27,1.39s-.24,1-1.08.65c-2.17-.81-3.38-.52-4.21.78-.93,1.47-.83,4.63.23,5.79a2.75,2.75,0,0,0,2.59.81C54,78.82,54.79,78.63,55.57,78.47Z"/><path class="cls-11" d="M78.9,8.75c0-1.62,0-3.24,0-4.86,0-.74.17-1.05,1-1,1.62,0,3.25,0,4.87,0,.91,0,.85.5.88,1.12s-.12,1-.89,1c-.62-.06-1.27.06-1.88,0-1.28-.19-1.52.35-1.54,1.53s.34,1.7,1.56,1.51c.4-.06.82,0,1.22,0,.83-.09,1.19.14,1.18,1.09s-.34,1-1.12,1c-2.79,0-2.79,0-2.79,2.9,0,.84.34,1.81-1.23,1.73-1-.06-1.28-.35-1.23-1.32C79,11.82,78.9,10.28,78.9,8.75Z"/><path class="cls-11" d="M58.15,75.07c0-1.62.08-3.25,0-4.86-.07-1.16.6-1,1.34-1.06s1.17.19,1.15,1.11c-.07,2.52,0,5,0,7.56,0,.74.16,1.07,1,1s1.8,0,2.69,0c.71,0,1.18,0,1.17,1s-.24,1.17-1.14,1.14c-1.71-.07-3.42,0-5.13,0-.76,0-1-.2-1-1C58.19,78.31,58.15,76.69,58.15,75.07Z"/><path class="cls-13" d="M151.64,8.41c1.7-.09,3.4-.17,5.11-.24.64,0,1.35-.1,1.36.83s-.65.89-1.23.92c-3.68.17-7.35.31-11,.46-.56,0-1-.12-1-.77s.38-.93,1-.95c1.93-.08,3.85-.19,5.78-.28Z"/><path class="cls-7" d="M149.59,18.7h3.21c.57,0,1.09.06,1.11.82s-.48.86-1.07.87l-3.07.09-2.35.1-1.33-.1c-.5,0-.88-.18-.9-.77a.8.8,0,0,1,.87-.93c.45,0,.89-.06,1.34-.09Z"/><path class="cls-13" d="M150.7,45.53c.62,0,1.26,0,1.88.06a.86.86,0,0,1,.91,1,.84.84,0,0,1-.91.81c-.63,0-1.26,0-1.89,0l-2.21,0c-.64-.08-1.44,0-1.54-.86s.7-.85,1.26-1A6.57,6.57,0,0,0,150.7,45.53Z"/><path class="cls-5" d="M241.75,251.12c.57,0,.7.39.82.72.45,1.31.88,2.63,1.3,3.94.12.34.24.74-.21.93s-.69-.15-.84-.58c-.47-1.35-1-2.69-1.44-4C241.22,251.63,241.21,251.19,241.75,251.12Z"/><path class="cls-5" d="M253.61,251.71a.55.55,0,0,1-.37.69.53.53,0,0,1-.7-.24q-.9-2-1.74-4a.54.54,0,0,1,.32-.67.45.45,0,0,1,.68.17C252.43,249,253,250.38,253.61,251.71Z"/><path class="cls-5" d="M247.9,255.4a.74.74,0,0,1-.81-.55c-.52-1.19-1-2.39-1.54-3.58-.17-.37-.22-.7.22-.89s.65.16.8.49c.55,1.18,1.11,2.35,1.62,3.55C248.38,254.84,248.46,255.32,247.9,255.4Z"/><path class="cls-5" d="M275.59,252.86a.62.62,0,0,1-.32.55.53.53,0,0,1-.73-.1c-.71-1-1.4-1.95-2.07-2.95a.54.54,0,0,1,.11-.73.9.9,0,0,1,.63-.09A13.4,13.4,0,0,1,275.59,252.86Z"/><path class="cls-5" d="M269.17,250.34c.38,0,.51.23.63.47.46,1,.93,2,1.37,3,.16.37.31.8-.23,1s-.67-.12-.83-.47c-.46-1-.93-2-1.38-3C268.51,250.84,268.66,250.48,269.17,250.34Z"/><path class="cls-5" d="M253.71,258.82c0,.29,0,.52-.3.61a.54.54,0,0,1-.71-.19c-.58-1.06-1.14-2.12-1.66-3.21a.61.61,0,0,1,.17-.74.43.43,0,0,1,.61.07A18.29,18.29,0,0,1,253.71,258.82Z"/><path class="cls-5" d="M269.86,246.76a.52.52,0,0,1-.39.49.58.58,0,0,1-.72-.21c-.6-1-1.21-2-1.72-3-.18-.38,0-.84.6-.68A10.29,10.29,0,0,1,269.86,246.76Z"/><path class="cls-5" d="M253.17,265.41c0,.45,0,.68-.29.77s-.57.1-.72-.17a12.29,12.29,0,0,1-1.4-3,.57.57,0,0,1,.22-.71.44.44,0,0,1,.6.12C252.16,263.46,252.7,264.53,253.17,265.41Z"/><path class="cls-5" d="M248.29,261.41c0,.39,0,.66-.36.74a.54.54,0,0,1-.68-.27,12.92,12.92,0,0,1-1.09-3c0-.26,0-.56.28-.68s.58-.1.7.18C247.56,259.42,247.93,260.47,248.29,261.41Z"/><path class="cls-6" d="M82.11,176.42a11.59,11.59,0,0,1,11.72,11.72,11.78,11.78,0,1,1-23.55-.07C70.23,181.68,75.83,176.12,82.11,176.42Zm-8,7.79a4.06,4.06,0,1,0,8.12.08,4,4,0,0,0-4-4.11C75.87,180,73.7,182,74.07,184.21Zm7.85,7.17c0,1.78,1,2.91,2.58,2.91a2.55,2.55,0,0,0,2.83-2.67,2.46,2.46,0,0,0-2.57-2.74C82.73,188.86,81.93,189.56,81.92,191.38Zm-3.75-.61a1.71,1.71,0,0,0-1.93,1.58,1.69,1.69,0,0,0,1.7,1.94,1.56,1.56,0,0,0,1.82-1.64A1.59,1.59,0,0,0,78.17,190.77Z"/><path class="cls-7" d="M189,72.12c-.26,1.89-1.56,3.13-2.86,4.27a30.21,30.21,0,0,1-13.32,7.24c-4.19,1-8.45,1.54-12.53,3-1.35.47-2.56,1.33-4.06,1.36a27.77,27.77,0,0,1,9.64-7A97.42,97.42,0,0,1,178,76.45,82.08,82.08,0,0,0,189,72.12Z"/><path class="cls-11" d="M110.06,72.52c0,2.43,0,4.86,0,7.29,0,.9-.32,1-1.1,1s-1.13-.12-1.11-1c.06-3.24,0-6.48,0-9.73,0-.88.32-1,1.09-1a2.68,2.68,0,0,1,3,1.73c1.13,2.24,2.5,4.37,3.8,6.59.42-.36.23-.78.23-1.13,0-2.12,0-4.24,0-6.36,0-.84.46-.83,1-.79s1.21-.22,1.2.77c0,3.43,0,6.85,0,10.28,0,.21,0,.44-.2.6-.61.46-3,0-3.38-.71l-4.37-7.57Z"/><path class="cls-8" d="M69.73,169.42l.3-2.14a15.76,15.76,0,0,1,1.41-1.42,4.65,4.65,0,0,1,5.86,0,4.79,4.79,0,0,1,1.23,5.74,4.67,4.67,0,0,1-5.2,2.44A4.56,4.56,0,0,1,69.73,169.42Z"/><path class="cls-11" d="M99.68,80.76c-1.14.31-1.62-.23-1.71-1.09-.15-1.45-.94-1.89-2.28-1.67a2.48,2.48,0,0,1-.94,0c-1.23-.22-1.76.36-2,1.51a1.89,1.89,0,0,1-2.62,1.31c-.5-.19-.25-.47-.15-.74q1.8-5.22,3.63-10.44c.38-1.09,1.29-.5,2-.58s1.23-.25,1.53.65c1.17,3.44,2.43,6.85,3.61,10.29C101.22,81.49,99.87,80.47,99.68,80.76Zm-4.34-9.71c-.35,1.12-.64,2-.91,2.89-.64,2.12-.47,2.31,1.74,2h.14c.44,0,.5-.23.38-.61C96.25,74,95.83,72.62,95.34,71.05Z"/><path class="cls-8" d="M56.85,144.78c-1.14-1.34-1.76-2.81-1-4.56s2.19-2.56,4.73-2.41c2.8,1.38,3.65,3.76,2.19,6.09a4.5,4.5,0,0,1-2.47,1.74l-1.33,0C58.09,145.7,57.62,144.86,56.85,144.78Z"/><path class="cls-8" d="M69.21,157l-.6-1.42a3.21,3.21,0,0,1,1.54-3.89,3.17,3.17,0,0,1,4,.83,3.22,3.22,0,0,1-4.09,4.82C69.79,157.17,69.56,156.94,69.21,157Z"/><path class="cls-11" d="M104.92,75.06c0,1.62-.06,3.23,0,4.85.06,1.14-.68.89-1.32.92s-1.18,0-1.16-.94c.06-3.32.05-6.65,0-10,0-1.07.67-.83,1.25-.84s1.27-.19,1.23.86C104.87,71.65,104.92,73.35,104.92,75.06Z"/><path class="cls-13" d="M150,25.42c1.92-.13,3.85-.28,5.78-.39.62,0,1.48-.33,1.6.7s-.7,1-1.44,1.11a55.07,55.07,0,0,0-5.88.5,9.35,9.35,0,0,0-2.42.09c-.67,0-1.34.08-2,.1s-1-.06-1-.77a.88.88,0,0,1,.87-1,9,9,0,0,0,2.13-.22Z"/><path class="cls-13" d="M103.43,148.11A24.73,24.73,0,0,0,105.26,159c.1.25.21.5.33.74.2.4.26.8-.24,1s-.71-.23-.88-.59a26.34,26.34,0,0,1-1.94-6.56,24.53,24.53,0,0,1-.06-7.65c.08-.47,0-1.11.75-1s.44.66.4,1.1C103.55,146.77,103.49,147.44,103.43,148.11Z"/><path class="cls-13" d="M150.4,40.07l4.17-.22c.62,0,1.29,0,1.33.78s-.56,1-1.27,1.06c-1.33.1-2.69-.16-4,.29a7.29,7.29,0,0,0-2.42.05h-2.14c-.52,0-.87-.19-.88-.76a.81.81,0,0,1,.78-.91,7,7,0,0,0,2.24-.29Z"/><path class="cls-13" d="M98.5,152.15a.79.79,0,0,1,.62.8,16.43,16.43,0,0,0,4.18,9.85c.31.36.4.71,0,1s-.67,0-.91-.24A18.09,18.09,0,0,1,97.93,153C97.89,152.58,98,152.19,98.5,152.15Z"/><path class="cls-13" d="M150.33,34.44a7.37,7.37,0,0,0-2.43.16,7.22,7.22,0,0,0-.93,0c-.64.06-1.19,0-1.23-.81s.52-.92,1.15-1l1.05-.08c.78-.15,1.62.35,2.35-.25l2.26,0a.85.85,0,0,1,.92.77.8.8,0,0,1-.76.92C151.92,34.3,151.12,34.36,150.33,34.44Z"/><path class="cls-15" d="M58.93,145.61l1.33,0c-.11.89.3,1.84-.27,2.68C58.39,147.69,58.34,147.56,58.93,145.61Z"/><path class="cls-7" d="M156.32,87.94l-.34.29Z"/><path class="cls-8" d="M39.71,160.44c-.47-3.35,3.1-6.83,6.53-6.75A6.76,6.76,0,0,1,53,160.48a6.58,6.58,0,0,1-6.77,6.7A6.39,6.39,0,0,1,39.71,160.44Z"/><path class="cls-8" d="M57.09,170a2.51,2.51,0,0,1-2.48-2.44,3,3,0,0,1,2.54-2.7A2.91,2.91,0,0,1,60,167.65,2.56,2.56,0,0,1,57.09,170Z"/><path class="cls-8" d="M49,174.82a2.1,2.1,0,0,1-2.21-2,2.52,2.52,0,0,1,2.11-2.27,2.5,2.5,0,0,1,2.21,2.18A2.07,2.07,0,0,1,49,174.82Z"/><path class="cls-8" d="M45.39,191.22a2,2,0,1,1-2-2.06A2.09,2.09,0,0,1,45.39,191.22Z"/><path class="cls-8" d="M46.48,195.92c-.85,0-1.34-.39-1.34-1.22a1.28,1.28,0,0,1,1.27-1.45,1.35,1.35,0,0,1,1.4,1.36C47.92,195.59,47.17,195.76,46.48,195.92Z"/><path class="cls-8" d="M44.3,195.11a.78.78,0,0,1-.86.8c-.62,0-.95-.31-.91-.87a.76.76,0,0,1,.91-.75C44,194.33,44.27,194.55,44.3,195.11Z"/><path class="cls-9" d="M208.5,98.21a19.42,19.42,0,0,1,5.8-7.64c.89-.71,1-1.27.24-2.06a19.9,19.9,0,0,1-.84-12.83c1.16-4,3.44-6.93,7.62-8a7.07,7.07,0,0,1,7.54,2.41,1.57,1.57,0,0,0,1.34.7,57.12,57.12,0,0,0,34-12.4c.21-.17.43-.33.63-.52.86-.8,1.38-.79,1.92.44,2.27,5.15,4.24,10.42,6.13,15.71,1,2.92,2,5.87,3,8.82.2.59.4,1.1,1.11,1.15a3.74,3.74,0,0,0-2.11,4.5,36.18,36.18,0,0,0,1.75,5.62,52,52,0,0,0,4.47,8.07c.47,3.22,1.07,6.43.56,9.71a87.61,87.61,0,0,1-11.26,13.92c-.39.4-1,.7-1,1.37-1.53-.5-3.06-1-4.58-1.5-1.37-.45-2.31-.22-2.64.68s.22,1.69,1.6,2.17l2.65.93a14.17,14.17,0,0,1-2.14,2c-3.1,2.53-6.12,5.17-9.73,7-.13-.61-.23-1.22-.38-1.82-.22-.88-.73-1.45-1.71-1.29a1.35,1.35,0,0,0-1.21,1.63c.08.93.2,1.85.3,2.78a23.84,23.84,0,0,1-7.89.76,30,30,0,0,1-6.5-1.33,2.76,2.76,0,0,0-1.3-.15c-.06-.37-.34-.52-.64-.63a26,26,0,0,1-11.31-8.4,28.2,28.2,0,0,1-5.7-13.2c-.33-2.11-.07-4.23-.3-6.47a49.6,49.6,0,0,0-3.48,16.88c-3.29-6.23-4.46-13-5.11-19.9C209.07,104.28,208.78,101.24,208.5,98.21Zm39.75,20.62a16.84,16.84,0,0,0-2.49,5,5.85,5.85,0,0,0,.78,5.47c1.46,2,4.37,2,6.88.19a16.57,16.57,0,0,0,7.38-7.78,5.08,5.08,0,0,0-3-7.15,6.14,6.14,0,0,0-5.21.32A13.53,13.53,0,0,0,248.25,118.83Zm2-44.9a12.76,12.76,0,0,0-1.75,0,2.89,2.89,0,0,0-.17,5.71,34.7,34.7,0,0,1,9,1.59,2.76,2.76,0,0,0,3.43-2.07A2.64,2.64,0,0,0,259,75.69,26.52,26.52,0,0,0,250.23,73.93Zm13.84,39.76c2.89,0,4-.54,4.7-2a3.41,3.41,0,0,0-.56-3.89,6.77,6.77,0,0,0-2.73-1.66c-1.51-.66-1.75-1.21-1.5-2.83a15.79,15.79,0,0,1,4.32-8.66c.4-.42.94-.87.32-1.47s-1,0-1.44.41a19,19,0,0,0-4.76,9.09c-.59,2.46.31,3.91,2.64,4.91a12,12,0,0,1,1.43.73,2.15,2.15,0,0,1,1,2.59,1.93,1.93,0,0,1-2.09,1.39c-1.79-.11-3.63-.22-4.61-2.14-.21-.41-.52-.66-1-.41a.77.77,0,0,0-.3,1.06,4.17,4.17,0,0,0,.64,1A5.47,5.47,0,0,0,264.07,113.69Zm-9.27-22a33.09,33.09,0,0,0-1.48-7.11c-.23-.72-.51-1.49-1.46-1.17s-.71,1.11-.48,1.81a40.79,40.79,0,0,1,1.21,5.11c.2,1,.13,1.59-1.23,1.27-1.7-.41-3.46-.58-5.19-.84-.65-.1-1.22,0-1.35.77s.35,1.14,1.07,1.25c2.4.37,4.8.78,7.2,1.1C254.68,94.13,254.9,93.87,254.8,91.73ZM220.2,74.18a3,3,0,0,1,2.08.41c.28.22.61.46.52.87s-.5.28-.79.35a16.5,16.5,0,0,0-3.87,1.13,4.42,4.42,0,0,0-2.58,4.49,2.15,2.15,0,0,0,1.6,1.8,1.68,1.68,0,0,0,1.85-.45.89.89,0,0,0,.23-1.21.63.63,0,0,0-1-.13c-.3.23-.62.45-.94.07a1.08,1.08,0,0,1-.24-1,3.25,3.25,0,0,1,1.4-1.92A9.65,9.65,0,0,1,223,77.17c.95-.11,1.59-.54,1.45-1.54a3.19,3.19,0,0,0-1.39-2.36c-1.57-1-3.19-.65-4.81-.37-.47.09-.58.54-.47,1a.62.62,0,0,0,.82.49A5.12,5.12,0,0,1,220.2,74.18Zm10,10c0-.24.05-.68-.44-.76s-.62.21-.62.65a2.17,2.17,0,0,1-1.33,1.89c-.66.39-1.36.72-2,1.13a2.66,2.66,0,0,0-1.24,3.57c.41,1,.17,1.46-.84,1.77a3.83,3.83,0,0,0-2.45,2,2.73,2.73,0,0,0,.56,3.33,2.62,2.62,0,0,0,3.36-.19,8.32,8.32,0,0,0,1.67-2.11c.18-.29.28-.62,0-.84s-.66-.06-.89.28a6.19,6.19,0,0,1-1.37,1.83c-.68.48-1.41.71-2.09.06a1.54,1.54,0,0,1,0-2.2,3.48,3.48,0,0,1,1.65-1.13c1.88-.74,2.1-1.12,1.5-3a2,2,0,0,1,.94-2.53c.81-.5,1.64-.94,2.42-1.47A2.52,2.52,0,0,0,230.22,84.14Zm9.4-9.81c0-.57,0-1.11-.6-1.12s-.42.47-.45.82a3.68,3.68,0,0,1-1.34,2.56c-.84.75-1.74,1.43-2.6,2.16a6.58,6.58,0,0,0-2.43,4.36,2.92,2.92,0,0,0,3.93,3.27c1.77-.53,3.9-3.75,3.76-5.66,0-.25-.08-.46-.33-.52a.49.49,0,0,0-.66.3c-.15.42-.26.86-.4,1.28a5.82,5.82,0,0,1-1.76,3.12,2.17,2.17,0,0,1-2.51.36,2,2,0,0,1-.91-2.21,5.41,5.41,0,0,1,2.18-3.6,30,30,0,0,0,2.95-2.57A4.62,4.62,0,0,0,239.62,74.33Zm38.41,25a1,1,0,0,0-1.44-.78,10.23,10.23,0,0,0-1.84,1.11,1.21,1.21,0,0,0-.3,1.88,17.9,17.9,0,0,0,3.62,3.6,1,1,0,0,0,1.46,0,1,1,0,0,0-.19-1.54c-.68-.59-1.32-1.22-2-1.81s-.91-.91.06-1.34A1.07,1.07,0,0,0,278,99.28Zm-31.25,34.95a1.56,1.56,0,0,0,.53,0c.57-.23,1.57-.06,1.47-1s-1-.58-1.54-.59c-2.38,0-3.31-.72-4-3.13-.15-.55-.21-1.1-1-.93s-.49.79-.46,1.22A5.29,5.29,0,0,0,246.78,134.23ZM233.26,93.92a2.92,2.92,0,0,0,1.9-.89c.37-.35,1-.81.59-1.32s-.88.13-1.26.45c-.1.08-.18.19-.29.27-.4.32-.86.62-1.34.29s-.27-.87,0-1.32.54-1,.79-1.56c.13-.3.18-.66-.14-.84s-.67,0-.84.4a19.39,19.39,0,0,0-1.09,2.31A1.61,1.61,0,0,0,233.26,93.92Z"/><path class="cls-2" d="M212.85,39.8a7.33,7.33,0,0,1-3.93,1.32c1.86-8.62,6.12-15.51,13.87-20,9.2-5.29,19-5.84,29-3.12a51.51,51.51,0,0,1,15.74,7.19c-1.49,0-2.81-.75-4.23-1.09-15.83-3.83-30.08-.25-43.11,9.11A45.67,45.67,0,0,0,212.85,39.8Z"/><path class="cls-3" d="M203.61,114.5c.21,6.14,2.38,11.77,4.59,17.39a55.17,55.17,0,0,1,3.74,12.64c1.33,9.62-3.68,17.59-11.45,20.88a15.34,15.34,0,0,1-1.67.5c-.59-.87-1.84-1-2.27-2.1,6.15-3.68,8.22-9.44,8.32-16.23a123.39,123.39,0,0,0-1-13.85c-.64-6.4-1.31-12.8-.66-19.24Zm2.59,38.86a1.55,1.55,0,0,0,.33-.21,11.06,11.06,0,0,0,2-3.63.45.45,0,0,0-.33-.62.56.56,0,0,0-.7.26c-.59,1.15-1.19,2.3-1.75,3.47C205.51,153.06,205.75,153.31,206.2,153.36Zm5-7.19c0-.41.06-.88-.46-1s-.61.32-.71.65a6.34,6.34,0,0,1-.87,2.08.55.55,0,0,0,.11.83c.35.21.65.06.91-.27A5.73,5.73,0,0,0,211.24,146.17Zm-2.92-3.79c-.09.05-.31.09-.38.22-.43.79-.83,1.59-1.21,2.4a.5.5,0,0,0,.13.47.55.55,0,0,0,.74,0,4.17,4.17,0,0,0,1.2-2.62C208.81,142.62,208.68,142.43,208.32,142.38Z"/><path class="cls-11" d="M188,141c-.05-6-1.71-11.29-3.81-16.48-1.33-3.29-2.65-6.62-2.9-10.18-.34-4.84,1.41-8.88,7.18-11.68,2.94-1.44,6-2.55,9-3.88,5.37-2.38,7.35-6.88,7.8-12.4.36-4.42,0-8.89,1-13.26,1.23-5.25,4.49-8.92,8.88-11.71,5-3.21,10.67-4.58,16.51-5.37,5.49-.75,11-1.09,16.45-2.49a50.66,50.66,0,0,0,19-9.46,46.14,46.14,0,0,0,9-9.41c.31-.43.64-1.07,1.26-.63s-.06,1-.31,1.34a50.36,50.36,0,0,1-23.57,17.71,63.61,63.61,0,0,1-14.67,3.23c-5.33.66-10.71,1.08-15.86,2.74-5.87,1.89-11,4.82-14.13,10.5a20.07,20.07,0,0,0-2,6.94c-.53,3.7-.11,7.44-.51,11.16a14.6,14.6,0,0,1-9.54,12.75c-3.31,1.39-6.79,2.42-9.83,4.4a9.3,9.3,0,0,0-4.49,7.7c-.26,4.24,1.36,8,2.84,11.82a54,54,0,0,1,3.21,10.41c1.19,7,.8,13.83-3.51,19.84a16.08,16.08,0,0,1-11.63,7,13.27,13.27,0,0,1-7.81-1.36c-.41-.21-1.06-.43-.74-1.05s.79-.1,1.16.07a14.64,14.64,0,0,0,17.6-4.72A22.37,22.37,0,0,0,188,141Z"/><path class="cls-14" d="M285.36,69.55c-.12.67.43,1,.75,1.44a33.82,33.82,0,0,1,6.24,14.44c0,.07-.06.16-.1.24-.33.13-.51-.1-.68-.3a45.57,45.57,0,0,0-8.36-7.94c.27-.37,0-.69-.12-1A8,8,0,0,1,282.4,72C282.58,70.13,283.42,69.46,285.36,69.55Z"/><path class="cls-14" d="M278.82,77.08a42.8,42.8,0,0,1,6,7.76,27.3,27.3,0,0,1,3.44,9.71,46.56,46.56,0,0,0-10.17-10.09c.45-.45-.05-.81-.14-1.2C277.45,81.08,277.15,78.94,278.82,77.08Z"/><path class="cls-14" d="M295.38,69c.33,2.2.64,4.41,1,6.62a10.51,10.51,0,0,1-.08,3.35c-2.79-3.5-5.59-6.91-9.5-9.16a4.41,4.41,0,0,1,5.65-2.36A7.11,7.11,0,0,1,295.38,69Z"/><path class="cls-14" d="M281.11,102.18a52,52,0,0,1-4.47-8.07,36.18,36.18,0,0,1-1.75-5.62A3.74,3.74,0,0,1,277,84l.51.23a1.67,1.67,0,0,1-.14,1.74,3.81,3.81,0,0,0-.25,3.26,36.81,36.81,0,0,0,8.43,15c1.24,1.39,1.28,1.34-.19,2.48a2.94,2.94,0,0,0-.52.75l-.19-.16a.84.84,0,0,0-.13-1.18C283.36,104.83,282.24,103.5,281.11,102.18Z"/><path class="cls-11" d="M281,41a21.21,21.21,0,0,0-.26,5.45,33.91,33.91,0,0,0,5.5,18.46c.3.48,1.13,1.09.43,1.57s-1.1-.39-1.47-1a36.88,36.88,0,0,1-5.47-15.21,31.91,31.91,0,0,1,.2-10.18c.07-.37.12-.75.61-.73S281.08,39.85,281,41Z"/><path class="cls-1" d="M196.55,163.81c.43,1.06,1.68,1.23,2.27,2.1a13.66,13.66,0,0,1-8.9.55A28.8,28.8,0,0,0,196.55,163.81Z"/><path class="cls-2" d="M208,45.66c.11-.75.17-1.51.33-2.25.28-1.27,1.52-1,2.35-1.42Z"/><path class="cls-5" d="M203.61,114.5h-.44a16.35,16.35,0,0,1,.29-2.88A6.87,6.87,0,0,1,203.61,114.5Z"/><path class="cls-2" d="M288.06,39c.22,0,.48,0,.57.29C288.25,39.57,288.23,39.15,288.06,39Z"/><path class="cls-2" d="M152.53,92.33l.1-.22.24.21C152.76,92.46,152.65,92.46,152.53,92.33Z"/><path class="cls-2" d="M288.6,39.28c.18,0,.39,0,.28.29C288.54,39.71,288.47,39.59,288.6,39.28Z"/><path class="cls-2" d="M267.5,25.2c.21,0,.36.11.3.36C267.67,25.47,267.38,25.51,267.5,25.2Z"/><path class="cls-14" d="M276.18,158c0-.32.11-.61.47-.69.16,0,.27.06.23.22-.09.37-.38.45-.7.47Z"/><path class="cls-14" d="M275.37,158.58l-.11.12s0-.06,0-.07l.09,0Z"/><path class="cls-14" d="M275.37,158.58l.11-.1s0,.05,0,.06l-.09,0Z"/><path class="cls-14" d="M276.18,158l-.12.11s0-.05,0-.07l.1,0Z"/><path class="cls-14" d="M214.46,127.22a49.6,49.6,0,0,1,3.48-16.88c.23,2.24,0,4.36.3,6.47a28.2,28.2,0,0,0,5.7,13.2,26,26,0,0,0,11.31,8.4c.3.11.58.26.64.63-6.1,1.25-11.28-.75-15.87-4.61A20.69,20.69,0,0,1,214.46,127.22Z"/><path class="cls-5" d="M218.26,161.06a7.79,7.79,0,0,1,.27-4.63c.82-2.25,2.6-3.6,4.43-4.93a24.44,24.44,0,0,0,4.23-3.3,4.83,4.83,0,0,0,.95-5.35,2.42,2.42,0,0,0-1-1.07c-.4-.22-.65-.56-.35-1s.72-.19,1.06,0c1.76,1,2.43,3.94,1.52,6.16a9.9,9.9,0,0,1-3.71,4.14,36.27,36.27,0,0,0-4.53,3.38,5.93,5.93,0,0,0-1.79,4.34c0,1.26,0,2.52,0,3.78-.1,2.47-1.89,4.26-4,4.11-.52,0-1.1-.06-1-.75s.56-.46,1-.4c1.49.2,2.69-1.11,2.94-3.16C218.29,162.09,218.26,161.77,218.26,161.06Z"/><path class="cls-5" d="M238.58,144.39c.15,3.13-1.77,4.76-4.1,6.06-.82.45-1,.69-.55,1.68a8.31,8.31,0,0,1-6.77,12.12c-.42,0-1.15.31-1.22-.41s.59-.61,1.08-.67c5.65-.66,8.7-7,5.24-11.6-.54-.72-.44-1.18.41-1.55a11.36,11.36,0,0,0,3.26-2.12c1.75-1.6,2-3.38.8-5.35-.18-.29-.38-.53-.06-.82s.66-.16,1,.09A2.73,2.73,0,0,1,238.58,144.39Z"/><path class="cls-5" d="M209.89,163.44a8.71,8.71,0,0,0,2.72-1.74c.33-.28.63-1,1.17-.37s-.09.89-.42,1.23a7.61,7.61,0,0,1-1.65,1.39c-.57.33-1.11.89-1.8.77s-.66-1.09-1.47-1.18c-.3,0-.1-.55.13-.79l2.09-2.1c.24-.24.47-.43.79-.11s.36.61,0,.92l-1.87,1.66Z"/><path class="cls-5" d="M227.6,160.93a.52.52,0,0,1-.55-.29.45.45,0,0,1,.07-.61,9.32,9.32,0,0,0,2-2.09.51.51,0,0,1,.73,0,.54.54,0,0,1,.2.58A3.85,3.85,0,0,1,227.6,160.93Z"/><path class="cls-5" d="M215.06,132.24c-.37.73-.79,1.61-1.25,2.46a.56.56,0,0,1-.81.23.61.61,0,0,1-.26-.9c.42-.79.84-1.57,1.28-2.34.16-.29.41-.5.77-.34S215,131.8,215.06,132.24Z"/><path class="cls-5" d="M215.84,136.41c-.37.71-.81,1.58-1.3,2.43a.57.57,0,0,1-.95-.63l1.16-2.28a.59.59,0,0,1,.8-.28C215.81,135.74,215.82,136,215.84,136.41Z"/><path class="cls-5" d="M217.34,136.92c-.68,0-.76-.39-.62-.82.22-.68.5-1.34.76-2a.51.51,0,0,1,.86-.26c.42.39.18.9,0,1.37C218.12,135.87,218,136.6,217.34,136.92Z"/><path class="cls-5" d="M231,154.71a9.46,9.46,0,0,1-.06,1.07.69.69,0,0,1-.88.61c-.54-.11-.41-.49-.28-.84a2.41,2.41,0,0,0,.06-1.33c-.09-.41-.46-.93.31-1s.82.41.83,1v.53Z"/><path class="cls-14" d="M269.42,127.18c0-.67.6-1,1-1.37a87.61,87.61,0,0,0,11.26-13.92q1.5-2.3,3-4.59l.19.16c-1.65,4.88-3.47,9.69-5.37,14.47-1.52,3.83-3.08,7.64-4.63,11.46a69.6,69.6,0,0,0-10.53-1.9,14.17,14.17,0,0,0,2.14-2c1.5.47,3,.95,4.49,1.41.89.28,1.66.09,2-.86a1.44,1.44,0,0,0-.94-1.95C271.12,127.75,270.27,127.47,269.42,127.18Z"/><path class="cls-17" d="M269.16,143.63a1.59,1.59,0,0,1-1,1.51,1.2,1.2,0,0,1-1.57-.39c-1.68-2.45-3.34-4.92-4.91-7.44a1.3,1.3,0,0,1,.66-1.84,1.42,1.42,0,0,1,2,.55c1.08,1.6,2.14,3.22,3.2,4.84.4.6.8,1.2,1.19,1.81C269,143,269.2,143.35,269.16,143.63Z"/><path class="cls-17" d="M251.58,139.76c-.1-.93-.22-1.85-.3-2.78a1.35,1.35,0,0,1,1.21-1.63c1-.16,1.49.41,1.71,1.29.15.6.25,1.21.38,1.82.21,1.42.42,2.84.62,4.26.07.48.15,1,.18,1.46a1.37,1.37,0,0,1-1.29,1.6,1.43,1.43,0,0,1-1.63-1.28A40,40,0,0,0,251.58,139.76Z"/><path class="cls-2" d="M191.21,70.91c.73-6.8,1.33-13.62,5.71-19.37a25.51,25.51,0,0,1,10.3-8.19c-.6,2.11-.44,4.24-1.5,6.12a67.44,67.44,0,0,0-5.53,11.76,15.88,15.88,0,0,1-3.9,5.71A30,30,0,0,1,191.21,70.91Z"/><path class="cls-7" d="M191.21,70.91a30,30,0,0,0,5.08-4,15.88,15.88,0,0,0,3.9-5.71,67.44,67.44,0,0,1,5.53-11.76c.8.72.16,1.57.05,2.25A69.76,69.76,0,0,1,202.4,65.8,23.52,23.52,0,0,1,188,80.19c-2.28.85-4.64,1.36-7,2a1.12,1.12,0,0,1-1.17-.17C184.84,79.45,189.27,76.41,191.21,70.91Z"/><path class="cls-6" d="M377.55,144.28,379,145a1.64,1.64,0,0,0,1.07,2,10.37,10.37,0,0,1,4.61,4.67c.37.71.76.77,1.36.41l.82,1c-1,.22-1.34.82-1,1.84a7.57,7.57,0,0,1,.12,3.72c-.27,1.37.19,1.78,1.42,1.74l-.52,1.63c-1.29-.4-2,.17-2.58,1.32a10.46,10.46,0,0,1-4.93,4.45c-1.89.89-1.9.87-1.59,3.11l-1.1.1a5.07,5.07,0,0,1-.09-.54c-.1-1.28-.67-1.8-2.06-1.65a9.22,9.22,0,0,1-5.67-1.31,1.46,1.46,0,0,0-1.74,0,.93.93,0,0,1-.57-.66c.14-.38.24-.68-.17-1a11.47,11.47,0,0,1-3.52-6.2c-.29-1.28-1.27-.57-1.95-.74.16-.67.33-1.33.5-2,.93-.21,1.49-.66,1.42-1.74a2.74,2.74,0,0,1,.37-1.42,3.1,3.1,0,0,0-.43-4.26.94.94,0,0,1,.58-.6s.1,0,.12,0c1.05,1.15,1.82.91,2.9-.18a10.74,10.74,0,0,1,9.28-3.09C376.81,145.75,377.34,145.36,377.55,144.28ZM370,150.74a4.66,4.66,0,0,0-4.81,5,4.76,4.76,0,0,0,4.94,4.74,5.08,5.08,0,0,0,4.79-4.74A5,5,0,0,0,370,150.74Zm9.8,9.93a1.89,1.89,0,0,0-3.78.05,1.89,1.89,0,1,0,3.78-.05Zm-6.49,3.79c.19-1-.4-1.48-1.4-1.52a1.43,1.43,0,0,0-1.57,1.47,1.34,1.34,0,0,0,1.37,1.62A1.41,1.41,0,0,0,373.31,164.46Z"/><path class="cls-6" d="M362.79,181.26a5.66,5.66,0,0,1,5.65-5.56,5.63,5.63,0,1,1-5.65,5.56Zm1.85-1.79a2,2,0,0,0,2,2.07,2.09,2.09,0,0,0,1.77-1.89,1.85,1.85,0,0,0-1.89-2.13A1.76,1.76,0,0,0,364.64,179.47Zm6.24,3.58c0-.84-.28-1.42-1.18-1.46a1.34,1.34,0,0,0-1.48,1.23,1.32,1.32,0,0,0,1.4,1.44C370.43,184.32,370.82,183.82,370.88,183.05Zm-3.54.37c0-.52-.36-.75-.88-.76s-.74.2-.73.71.22.87.78.89S367.32,184,367.34,183.42Z"/><path class="cls-11" d="M355.72,212.18c0,2.81-.05,5.21,0,7.62,0,1-.37,1.06-1.17,1.08s-1.06-.24-1.05-1.07q.08-4.78,0-9.59c0-.79.15-1,1-1.09a2.75,2.75,0,0,1,3.14,1.76c1.1,2.25,2.5,4.36,3.8,6.59.38-.36.21-.78.21-1.13,0-2,0-4,0-5.95,0-.83,0-1.29,1.1-1.27s1.16.37,1.14,1.25c0,3.11,0,6.21,0,9.32,0,.81-.12,1.13-1.07,1.2a2.78,2.78,0,0,1-3.13-1.79C358.58,216.84,357.19,214.7,355.72,212.18Z"/><path class="cls-11" d="M377.37,215.1c0,4.48-2.92,6.8-7.26,5.71a4.39,4.39,0,0,1-3.19-2.67,8,8,0,0,1,0-6.31c.93-2.18,3.31-3.2,6.16-2.74a4.8,4.8,0,0,1,4.27,4.52A14.79,14.79,0,0,1,377.37,215.1Zm-8.43-.15c0,2.3.78,3.66,2.28,3.94,1.92.36,3.17-.58,3.55-2.7.49-2.67-.44-4.76-2.24-5.09-.13,0-.27,0-.4,0C370.06,211,369,212.32,368.94,215Z"/><path class="cls-11" d="M387.58,220.81c1.33-3.83,2.62-7.46,3.86-11.12.27-.79.86-.73,1.41-.64.72.11,1.69-.53,2.09.62q1.85,5.21,3.7,10.42c.18.53.08.69-.5.73-1.26.09-2.35.08-2.43-1.61,0-.94-.61-1.32-1.55-1.16a2.7,2.7,0,0,1-.94,0c-1.62-.32-2.57.26-2.72,2-.07.67-.47.86-1.11.81S388.32,220.81,387.58,220.81Zm7.15-4.93c-.5-1.58-1-3.1-1.52-4.87-.53,1.77-1,3.28-1.46,4.87Z"/><path class="cls-11" d="M343.27,214.93c0-1.63,0-3.25,0-4.87,0-.72.19-.95.91-.9,1.47.11,3-.17,4.44.21a3.22,3.22,0,0,1,2.74,3.34,3.55,3.55,0,0,1-2.54,3.72,4,4,0,0,1-1.59.25c-1.42-.22-1.69.46-1.52,1.66.06.35,0,.73,0,1.08.21,1.19-.26,1.54-1.45,1.47-.86,0-1-.3-1-1.1C343.31,218.17,343.27,216.55,343.27,214.93Zm3.34-.31c1.48,0,2.2-.6,2.21-1.72s-.73-1.77-2.23-1.69c-1.68.08-.66,1.39-.84,2.12S345.47,214.9,346.61,214.62Z"/><path class="cls-11" d="M379.92,214.85c0-1.57,0-3.15,0-4.72,0-.73.16-1,1-1,1.62,0,3.24.07,4.86,0,.9,0,.87.44.89,1.08s-.14,1-.89.93c-.58-.05-1.17,0-1.76,0-1.63,0-1.88.35-1.6,2,.07.45.26.62.69.61a17,17,0,0,1,1.75,0c.65.06,1.54-.43,1.56,1s-.78,1-1.48,1a4.87,4.87,0,0,1-1.08,0c-1.25-.22-1.44.37-1.48,1.5,0,1.35.41,1.76,1.67,1.58.48-.08,1,0,1.48,0,.87-.09,1.14.22,1.16,1.12s-.47,1-1.16.94c-1.53,0-3.06,0-4.59,0-.75,0-1-.2-1-1C380,218.18,379.92,216.52,379.92,214.85Z"/><path class="cls-8" d="M386.84,162.07l.52-1.63a3.3,3.3,0,0,1,3.83-1.55,3,3,0,0,1,2.33,2.38,3.23,3.23,0,0,1-1,3.41,3.3,3.3,0,0,1-5.4-1.73c0-.1-.07-.2-.11-.3Z"/><path class="cls-8" d="M386.84,153.14l-.82-1c0-2.11,1-3.35,2.57-3.1a2.23,2.23,0,0,1,2,1.65,2.2,2.2,0,0,1-.72,2.44A2.28,2.28,0,0,1,386.84,153.14Z"/><path class="cls-8" d="M376.64,171.05l1.1-.1a1.62,1.62,0,0,1,1.55,1.81,1.78,1.78,0,0,1-3.32.86A1.86,1.86,0,0,1,376.64,171.05Z"/><path class="cls-8" d="M366.51,166.85a.93.93,0,0,0,.57.66c0,.27,0,.54,0,.81a1.3,1.3,0,0,1-1.4,1.47,1.29,1.29,0,0,1-1.37-1.36,1.3,1.3,0,0,1,1.36-1.49C366,166.92,366.24,166.88,366.51,166.85Z"/><path class="cls-6" d="M387,162.65c0,.1.08.2.11.3C387,162.85,387,162.75,387,162.65Z"/><path class="cls-2" d="M405.18,227.83c0,.18,0,.27-.22.18Z"/><path class="cls-8" d="M363.31,148.84a.94.94,0,0,0-.58.6,4.75,4.75,0,0,0-.53-.05,1.16,1.16,0,0,1-1.26-1.36,1.06,1.06,0,0,1,1.13-1.07c.88,0,1.27.49,1.25,1.35C363.32,148.48,363.32,148.66,363.31,148.84Z"/><path class="cls-2" d="M340.75,109.85c-.1-3.1,1.11-4.54,3.39-4.31a2.48,2.48,0,0,1,.66.12c1.32.46,2,2,1.83,4.25-.13,2-.8,3.07-2.24,3.4a2.67,2.67,0,0,1-3.35-1.9A10.07,10.07,0,0,1,340.75,109.85Z"/><path class="cls-2" d="M319,215c0,2.59-1.26,3.87-3.76,3.87-.61,0-.89-.14-.87-.82,0-2,0-4.05,0-6.08,0-.6.24-.73.78-.78,2.32-.22,3.72,1,3.85,3.27C319,214.65,319,214.83,319,215Z"/><path class="cls-8" d="M428,17.51a4.73,4.73,0,0,1,4.51-4.73,4.8,4.8,0,0,1,4.7,4.72,4.61,4.61,0,1,1-9.21,0Z"/><path class="cls-8" d="M440.36,24.14c-1.4,0-2.2-.8-2.1-1.86a1.66,1.66,0,0,1,1.86-1.66c1,0,2,1,1.88,1.84A1.87,1.87,0,0,1,440.36,24.14Z"/><path class="cls-8" d="M435.81,26.22c0,.79-.55,1.15-1.47,1.18-1.08,0-1.47-.58-1.49-1.49s.65-1.26,1.54-1.25S435.82,25.09,435.81,26.22Z"/><path class="cls-8" d="M402.58,6.27A2.15,2.15,0,0,1,405,8.6a2.64,2.64,0,0,1-2.36,2.5,2.47,2.47,0,0,1-2.5-2.61A2.16,2.16,0,0,1,402.58,6.27Z"/><path class="cls-8" d="M406.3,14.41a1.54,1.54,0,0,1-1.61-1.55,1.48,1.48,0,0,1,1.53-1.67,1.46,1.46,0,0,1,1.67,1.53A1.53,1.53,0,0,1,406.3,14.41Z"/><path class="cls-8" d="M402.38,12.23c.71,0,1.13.37,1.19,1a1,1,0,0,1-1,1.16,1,1,0,0,1-1.1-.93C401.39,12.73,401.86,12.41,402.38,12.23Z"/><path class="cls-2" d="M166.68,60.46c-.1,4.26-1.37,6.8-4.1,8.53a5.55,5.55,0,0,1-2.4.86c-2,.2-3.28-.37-3.84-1.76a3.74,3.74,0,0,1,1.45-4,8.78,8.78,0,0,0,1.85-2,2.43,2.43,0,0,0,.19-2.67q-.14-.24-.24-.48c-.81-1.74-.76-3,.18-3.73a3.65,3.65,0,0,1,4.27.35A6.46,6.46,0,0,1,166.68,60.46Z"/><path class="cls-2" d="M160.7,26.57v-7c0-.59-.06-1.3.79-1.29s1,.64,1,1.33c.09,6.48-.1,13-.43,19.44-.17,3.23-.39,6.46-.61,9.69,0,.4,0,.81-.11,1.21-.11.57-.36,1-1.07,1s-.69-.62-.64-1.13c.52-5.19.73-10.41,1-15.61.13-2.52,0-5.05,0-7.57Z"/><path class="cls-2" d="M83.32,72.72c.16-.58-.5-1.65,1-1.57s2.14.53,2.16,1.64-.81,1.81-2.19,1.81C83.32,74.59,83.32,74.59,83.32,72.72Z"/><path class="cls-8" d="M74.07,184.21c-.37-2.18,1.8-4.2,4.12-4a4,4,0,0,1,4,4.11,4.06,4.06,0,1,1-8.12-.08Z"/><path class="cls-8" d="M81.92,191.38c0-1.82.81-2.52,2.84-2.5a2.46,2.46,0,0,1,2.57,2.74,2.55,2.55,0,0,1-2.83,2.67C82.9,194.29,81.9,193.16,81.92,191.38Z"/><path class="cls-8" d="M78.17,190.77a1.59,1.59,0,0,1,1.59,1.88,1.56,1.56,0,0,1-1.82,1.64,1.69,1.69,0,0,1-1.7-1.94A1.71,1.71,0,0,1,78.17,190.77Z"/><path class="cls-2" d="M95.34,71.05c.49,1.57.91,2.92,1.35,4.28.12.38.06.61-.38.61h-.14c-2.21.3-2.38.11-1.74-2C94.7,73.05,95,72.17,95.34,71.05Z"/><path class="cls-12" d="M248.25,118.83a13.53,13.53,0,0,1,4.38-3.93,6.14,6.14,0,0,1,5.21-.32,5.08,5.08,0,0,1,3,7.15,16.57,16.57,0,0,1-7.38,7.78,8,8,0,0,0-1.52-7.21A12.71,12.71,0,0,0,248.25,118.83Z"/><path class="cls-7" d="M250.23,73.93A26.52,26.52,0,0,1,259,75.69a2.64,2.64,0,0,1,1.69,3.49,2.76,2.76,0,0,1-3.43,2.07,34.7,34.7,0,0,0-9-1.59,2.89,2.89,0,0,1,.17-5.71A12.76,12.76,0,0,1,250.23,73.93Z"/><path class="cls-14" d="M248.25,118.83a12.71,12.71,0,0,1,3.65,3.47,8,8,0,0,1,1.52,7.21c-2.51,1.79-5.42,1.77-6.88-.19a5.85,5.85,0,0,1-.78-5.47A16.84,16.84,0,0,1,248.25,118.83Z"/><path class="cls-14" d="M264.07,113.69a5.47,5.47,0,0,1-4-1.87,4.17,4.17,0,0,1-.64-1,.77.77,0,0,1,.3-1.06c.46-.25.77,0,1,.41,1,1.92,2.82,2,4.61,2.14a1.93,1.93,0,0,0,2.09-1.39,2.15,2.15,0,0,0-1-2.59,12,12,0,0,0-1.43-.73c-2.33-1-3.23-2.45-2.64-4.91a19,19,0,0,1,4.76-9.09c.4-.4.81-1,1.44-.41s.08,1-.32,1.47A15.79,15.79,0,0,0,264,103.3c-.25,1.62,0,2.17,1.5,2.83a6.77,6.77,0,0,1,2.73,1.66,3.41,3.41,0,0,1,.56,3.89C268,113.15,267,113.7,264.07,113.69Z"/><path class="cls-13" d="M254.8,91.73c.1,2.14-.12,2.4-1.71,2.19-2.4-.32-4.8-.73-7.2-1.1-.72-.11-1.21-.46-1.07-1.25s.7-.87,1.35-.77c1.73.26,3.49.43,5.19.84,1.36.32,1.43-.23,1.23-1.27a40.79,40.79,0,0,0-1.21-5.11c-.23-.7-.48-1.5.48-1.81s1.23.45,1.46,1.17A33.09,33.09,0,0,1,254.8,91.73Z"/><path class="cls-17" d="M269.42,127.18c.85.29,1.7.57,2.54.88a1.44,1.44,0,0,1,.94,1.95c-.3,1-1.07,1.14-2,.86-1.5-.46-3-.94-4.49-1.41l-2.65-.93c-1.38-.48-1.95-1.24-1.6-2.17s1.27-1.13,2.64-.68C266.36,126.19,267.89,126.68,269.42,127.18Z"/><path class="cls-14" d="M220.2,74.18a5.12,5.12,0,0,0-1.6.19.62.62,0,0,1-.82-.49c-.11-.44,0-.89.47-1,1.62-.28,3.24-.68,4.81.37a3.19,3.19,0,0,1,1.39,2.36c.14,1-.5,1.43-1.45,1.54a9.65,9.65,0,0,0-4.58,1.42,3.25,3.25,0,0,0-1.4,1.92,1.08,1.08,0,0,0,.24,1c.32.38.64.16.94-.07a.63.63,0,0,1,1,.13.89.89,0,0,1-.23,1.21,1.68,1.68,0,0,1-1.85.45,2.15,2.15,0,0,1-1.6-1.8,4.42,4.42,0,0,1,2.58-4.49A16.5,16.5,0,0,1,222,75.81c.29-.07.7.07.79-.35s-.24-.65-.52-.87A3,3,0,0,0,220.2,74.18Z"/><path class="cls-17" d="M230.22,84.14A2.52,2.52,0,0,1,229,86.37c-.78.53-1.61,1-2.42,1.47a2,2,0,0,0-.94,2.53c.6,1.92.38,2.3-1.5,3a3.48,3.48,0,0,0-1.65,1.13,1.54,1.54,0,0,0,0,2.2c.68.65,1.41.42,2.09-.06A6.19,6.19,0,0,0,226,94.85c.23-.34.51-.54.89-.28s.23.55,0,.84a8.32,8.32,0,0,1-1.67,2.11,2.62,2.62,0,0,1-3.36.19,2.73,2.73,0,0,1-.56-3.33,3.83,3.83,0,0,1,2.45-2c1-.31,1.25-.76.84-1.77a2.66,2.66,0,0,1,1.24-3.57c.64-.41,1.34-.74,2-1.13A2.17,2.17,0,0,0,229.16,84c0-.44.15-.72.62-.65S230.18,83.9,230.22,84.14Z"/><path class="cls-17" d="M239.62,74.33a4.62,4.62,0,0,1-1.17,2.55,30,30,0,0,1-2.95,2.57,5.41,5.41,0,0,0-2.18,3.6,2,2,0,0,0,.91,2.21,2.17,2.17,0,0,0,2.51-.36,5.82,5.82,0,0,0,1.76-3.12c.14-.42.25-.86.4-1.28a.49.49,0,0,1,.66-.3c.25.06.31.27.33.52.14,1.91-2,5.13-3.76,5.66a2.92,2.92,0,0,1-3.93-3.27,6.58,6.58,0,0,1,2.43-4.36c.86-.73,1.76-1.41,2.6-2.16A3.68,3.68,0,0,0,238.57,74c0-.35-.06-.83.45-.82S239.62,73.76,239.62,74.33Z"/><path class="cls-13" d="M278,99.28a1.07,1.07,0,0,1-.63,1.07c-1,.43-.61.85-.06,1.34s1.32,1.22,2,1.81a1,1,0,0,1,.19,1.54,1,1,0,0,1-1.46,0,17.9,17.9,0,0,1-3.62-3.6,1.21,1.21,0,0,1,.3-1.88,10.23,10.23,0,0,1,1.84-1.11A1,1,0,0,1,278,99.28Z"/><path class="cls-7" d="M284.65,107.3q-1.48,2.3-3,4.59c.51-3.28-.09-6.49-.56-9.71,1.13,1.32,2.25,2.65,3.41,3.94A.84.84,0,0,1,284.65,107.3Z"/><path class="cls-14" d="M246.78,134.23a5.29,5.29,0,0,1-4.95-4.45c0-.43-.26-1.05.46-1.22s.83.38,1,.93c.66,2.41,1.59,3.12,4,3.13.57,0,1.45-.31,1.54.59s-.9.78-1.47,1A1.56,1.56,0,0,1,246.78,134.23Z"/><path class="cls-17" d="M233.25,93.92a1.61,1.61,0,0,1-1.7-2.21,19.39,19.39,0,0,1,1.09-2.31c.17-.35.43-.63.84-.4s.27.54.14.84c-.25.53-.53,1-.79,1.56s-.51.95,0,1.32.94,0,1.34-.29c.11-.08.19-.19.29-.27.38-.32.73-1.1,1.26-.45s-.22,1-.59,1.32A2.93,2.93,0,0,1,233.25,93.92Z"/><path class="cls-5" d="M206.2,153.36c-.45-.05-.69-.3-.48-.73.56-1.17,1.16-2.32,1.75-3.47a.56.56,0,0,1,.7-.26.45.45,0,0,1,.33.62,11.06,11.06,0,0,1-2,3.63A1.55,1.55,0,0,1,206.2,153.36Z"/><path class="cls-5" d="M211.24,146.17a5.73,5.73,0,0,1-1,2.3c-.26.33-.56.48-.91.27a.55.55,0,0,1-.11-.83,6.34,6.34,0,0,0,.87-2.08c.1-.33.25-.75.71-.65S211.23,145.76,211.24,146.17Z"/><path class="cls-5" d="M208.32,142.38c.36.05.49.24.48.48a4.17,4.17,0,0,1-1.2,2.62.55.55,0,0,1-.74,0,.5.5,0,0,1-.13-.47c.38-.81.78-1.61,1.21-2.4C208,142.47,208.23,142.43,208.32,142.38Z"/><path class="cls-8" d="M370,150.74a5,5,0,0,1,4.92,5,5.08,5.08,0,0,1-4.79,4.74,4.76,4.76,0,0,1-4.94-4.74A4.66,4.66,0,0,1,370,150.74Z"/><path class="cls-8" d="M379.8,160.67a1.89,1.89,0,1,1-3.78.05,1.89,1.89,0,0,1,3.78-.05Z"/><path class="cls-8" d="M373.31,164.46a1.41,1.41,0,0,1-1.6,1.57,1.34,1.34,0,0,1-1.37-1.62,1.43,1.43,0,0,1,1.57-1.47C372.91,163,373.5,163.51,373.31,164.46Z"/><path class="cls-8" d="M364.64,179.47a1.76,1.76,0,0,1,1.91-1.95,1.85,1.85,0,0,1,1.89,2.13,2.09,2.09,0,0,1-1.77,1.89A2,2,0,0,1,364.64,179.47Z"/><path class="cls-8" d="M370.88,183.05c-.06.77-.45,1.27-1.26,1.21a1.32,1.32,0,0,1-1.4-1.44,1.34,1.34,0,0,1,1.48-1.23C370.6,181.63,370.91,182.21,370.88,183.05Z"/><path class="cls-8" d="M367.34,183.42c0,.56-.29.86-.83.84s-.76-.37-.78-.89.23-.72.73-.71S367.3,182.9,367.34,183.42Z"/></g></g></svg>