<svg xmlns="http://www.w3.org/2000/svg" viewBox="0 0 530.76 136.58"><defs><style>.cls-1{fill:#fdca42;}.cls-2{fill:#195ea2;}.cls-3{fill:#e37955;}.cls-4{fill:#312f2f;}</style></defs><title>p6e1</title><g id="Layer_2" data-name="Layer 2"><g id="Layer_1-2" data-name="Layer 1"><rect class="cls-1" width="76" height="101"/><path class="cls-2" d="M70.43,64.71C67.83,76.18,59.11,85,42.74,85,22.5,85,12.86,70.7,12.86,53.11,12.86,36,23,20.68,43.41,20.68c17.05,0,25.39,9.89,27,20.31H56.69c-1.32-4.61-4.7-9.6-13.66-9.6-11.29,0-16,9.83-16,21.22,0,10.78,4.15,21.68,16.3,21.68,8.84,0,11.88-5.4,13.34-9.58Z"/><path class="cls-2" d="M124.62,60.65c0,14.11-8.7,24.47-23.93,24.47-15,0-23.49-10.57-23.49-24.27,0-14,8.77-24.5,24.09-24.5C115.85,36.35,124.62,46.67,124.62,60.65Zm-34.1.08c0,8.65,3.93,14.19,10.49,14.19s10.26-5.52,10.26-14.08c0-9.23-3.6-14.3-10.43-14.3C94.39,46.54,90.52,51.39,90.52,60.73Z"/><path class="cls-2" d="M133.68,50.09c0-4.58,0-8.7-.09-12.63h12.85c.18,1.17.35,5.87.35,8.43,2.18-5.5,7.3-9.54,15.56-9.53v12.4c-9.59-.22-15.56,2.71-15.56,15.55V84H133.68Z"/><path class="cls-2" d="M214.17,60.65c0,14.11-8.7,24.47-23.94,24.47-15,0-23.48-10.57-23.48-24.27,0-14,8.77-24.5,24.09-24.5C205.4,36.35,214.17,46.67,214.17,60.65Zm-34.1.08c0,8.65,3.93,14.19,10.49,14.19s10.25-5.52,10.25-14.08c0-9.23-3.59-14.3-10.42-14.3C183.94,46.54,180.07,51.39,180.07,60.73Z"/><path class="cls-2" d="M223.27,49.19c0-3.95,0-8.3-.09-11.73h12.73c.24,1.23.41,4.42.48,6,1.7-3,5.56-7.11,13.92-7.11,9.76,0,16,6.45,16,18.22V84H253.15V56.17c0-5.3-1.83-9.29-7.74-9.29s-9,3.47-9,11.76V84H223.27Z"/><path class="cls-2" d="M317.46,71.82A114,114,0,0,0,318,84H305.53a21.47,21.47,0,0,1-.63-4.73c-1.85,2.91-5.46,5.85-13.82,5.85-11.52,0-16.33-7.45-16.33-14.71,0-10.92,8.94-15.5,22.61-15.5h7.29v-2.6c0-3.43-1.28-6.69-7.5-6.69-5.69,0-6.93,2.37-7.53,5.61H277c.64-7.72,5.51-14.95,20.49-14.88,14,.06,20,5.85,20,16.25ZM304.66,63h-6.15c-7.76,0-10.7,2.29-10.7,6.67,0,3.34,2.17,6.13,7,6.13,8.25,0,9.87-5.36,9.87-11.65Z"/><path class="cls-2" d="M337.05,37.46c4.85,16.24,8.65,29.36,9.72,35h.11c1.38-7.25,5.67-20.26,10.39-35H370.4L353.38,84h-14L322.94,37.46Z"/><path class="cls-2" d="M376.94,18h13.12v11.5H376.94Zm0,19.42h13.12V84H376.94Z"/><path class="cls-2" d="M401.87,50.09c0-4.58,0-8.7-.09-12.63h12.86c.18,1.17.35,5.87.35,8.43,2.17-5.5,7.3-9.54,15.56-9.53v12.4C421,48.54,415,51.47,415,64.31V84H401.87Z"/><path class="cls-2" d="M480.59,70.47c0,4.49,0,9.33.08,13.53H467.83c-.18-1.25-.26-3.68-.34-5.43-2.66,4.49-6.67,6.55-13.41,6.55-9.5,0-15.9-5.71-15.9-17.71V37.46h13.11V64.88c0,5.37,1.74,9.65,7.48,9.65,6.2,0,8.71-3.39,8.71-13V37.46h13.11Z"/><path class="cls-2" d="M501.43,70c1,3.68,4.09,5.8,9.24,5.8s6.88-1.78,6.88-4.52c0-2.95-2-4.16-9.27-5.74C492.65,62,490.17,57,490.17,50.59c0-6.87,4.93-14.24,19.34-14.24s19.51,7.7,20,14.08H516.9c-.47-1.85-1.74-5-7.95-5-4.58,0-5.9,2-5.9,4,0,2.27,1.47,3.42,9.28,5.09,16.16,3.45,18.43,9,18.43,15.72,0,7.87-6,14.86-20.67,14.86-13.81,0-20.46-6.52-21.57-15.16Z"/><rect class="cls-3" x="130.07" y="103.2" width="275" height="31" rx="5.28"/><path class="cls-4" d="M132.19,134.6V101a1.66,1.66,0,0,1,1.66-1.66h6.85q9.35,0,9.34,10.85a13.73,13.73,0,0,1-1,5.55,7.36,7.36,0,0,1-2.53,3,1.66,1.66,0,0,0-.61,1.88l4.55,13.44a1.66,1.66,0,0,1-1.57,2.19H146.8a1.67,1.67,0,0,1-1.59-1.16L141,121.65a1.67,1.67,0,0,0-1.59-1.16h-.28a1.66,1.66,0,0,0-1.66,1.66V134.6a1.66,1.66,0,0,1-1.66,1.66h-2A1.66,1.66,0,0,1,132.19,134.6ZM137.48,106v8.2a1.66,1.66,0,0,0,1.66,1.67h1.35a5.28,5.28,0,0,0,2.23-.39,3,3,0,0,0,1.3-1.12,4.9,4.9,0,0,0,.57-1.79,19.07,19.07,0,0,0,0-4.93,4.88,4.88,0,0,0-.62-1.84c-.66-1-1.91-1.46-3.74-1.46h-1.09A1.66,1.66,0,0,0,137.48,106Z"/><path class="cls-4" d="M161.87,134.6V101a1.67,1.67,0,0,1,1.66-1.66H176a1.66,1.66,0,0,1,1.66,1.66v1.66a1.66,1.66,0,0,1-1.66,1.66h-7.16a1.66,1.66,0,0,0-1.66,1.66v7.53a1.66,1.66,0,0,0,1.66,1.66h5.81a1.66,1.66,0,0,1,1.66,1.66v1.66a1.66,1.66,0,0,1-1.66,1.66h-5.81a1.66,1.66,0,0,0-1.66,1.66v7.53a1.66,1.66,0,0,0,1.66,1.66H176a1.66,1.66,0,0,1,1.66,1.66v2a1.66,1.66,0,0,1-1.66,1.66H163.53A1.66,1.66,0,0,1,161.87,134.6Z"/><path class="cls-4" d="M188.65,134.6V101a1.67,1.67,0,0,1,1.66-1.66h12.46a1.66,1.66,0,0,1,1.66,1.66v1.66a1.66,1.66,0,0,1-1.66,1.66h-7.16A1.66,1.66,0,0,0,194,106v7.89a1.66,1.66,0,0,0,1.66,1.66h5.81a1.66,1.66,0,0,1,1.66,1.67v1.66a1.66,1.66,0,0,1-1.66,1.66h-5.81a1.66,1.66,0,0,0-1.66,1.66V134.6a1.66,1.66,0,0,1-1.66,1.66h-2A1.66,1.66,0,0,1,188.65,134.6Z"/><path class="cls-4" d="M215.43,134.6V101a1.67,1.67,0,0,1,1.66-1.66h12.46a1.66,1.66,0,0,1,1.66,1.66v1.66a1.66,1.66,0,0,1-1.66,1.66h-7.16a1.66,1.66,0,0,0-1.66,1.66v7.53a1.66,1.66,0,0,0,1.66,1.66h5.81a1.66,1.66,0,0,1,1.66,1.66v1.66a1.66,1.66,0,0,1-1.66,1.66h-5.81a1.66,1.66,0,0,0-1.66,1.66v7.53a1.66,1.66,0,0,0,1.66,1.66h7.16a1.66,1.66,0,0,1,1.66,1.66v2a1.66,1.66,0,0,1-1.66,1.66H217.09A1.66,1.66,0,0,1,215.43,134.6Z"/><path class="cls-4" d="M242.21,134.6V101a1.67,1.67,0,0,1,1.66-1.66h6.85q9.34,0,9.35,10.85a13.55,13.55,0,0,1-1,5.55,7.34,7.34,0,0,1-2.52,3,1.66,1.66,0,0,0-.62,1.88l4.56,13.44a1.66,1.66,0,0,1-1.58,2.19h-2.07a1.65,1.65,0,0,1-1.58-1.16L251,121.65a1.67,1.67,0,0,0-1.59-1.16h-.28a1.66,1.66,0,0,0-1.66,1.66V134.6a1.66,1.66,0,0,1-1.67,1.66h-2A1.66,1.66,0,0,1,242.21,134.6Zm5.3-28.65v8.2a1.66,1.66,0,0,0,1.66,1.67h1.35a5.34,5.34,0,0,0,2.23-.39,3.09,3.09,0,0,0,1.3-1.12,5.31,5.31,0,0,0,.57-1.79,20.33,20.33,0,0,0,0-4.93,5.07,5.07,0,0,0-.63-1.84c-.65-1-1.9-1.46-3.73-1.46h-1.09A1.66,1.66,0,0,0,247.51,106Z"/><path class="cls-4" d="M271.9,134.6V101a1.66,1.66,0,0,1,1.66-1.66H286a1.67,1.67,0,0,1,1.67,1.66v1.66a1.66,1.66,0,0,1-1.67,1.66h-7.16a1.67,1.67,0,0,0-1.66,1.66v7.53a1.66,1.66,0,0,0,1.66,1.66h5.81a1.66,1.66,0,0,1,1.67,1.66v1.66a1.66,1.66,0,0,1-1.67,1.66h-5.81a1.67,1.67,0,0,0-1.66,1.66v7.53a1.66,1.66,0,0,0,1.66,1.66H286a1.66,1.66,0,0,1,1.67,1.66v2a1.66,1.66,0,0,1-1.67,1.66H273.56A1.66,1.66,0,0,1,271.9,134.6Z"/><path class="cls-4" d="M298.47,134.6V101a1.67,1.67,0,0,1,1.66-1.66h2.26a1.65,1.65,0,0,1,1.56,1.1l7.6,21.17h.1V101a1.67,1.67,0,0,1,1.66-1.66h2A1.67,1.67,0,0,1,317,101V134.6a1.66,1.66,0,0,1-1.66,1.66h-2.16a1.65,1.65,0,0,1-1.56-1.09l-7.7-21.12h-.1V134.6a1.66,1.66,0,0,1-1.67,1.66h-2A1.66,1.66,0,0,1,298.47,134.6Z"/><path class="cls-4" d="M344.45,125.73a1.66,1.66,0,0,1,1.66,1.66V128a8.13,8.13,0,0,1-.65,3.25,8.8,8.8,0,0,1-1.79,2.72,8.42,8.42,0,0,1-2.67,1.89,7.78,7.78,0,0,1-3.29.71,11.76,11.76,0,0,1-3.07-.42,7.35,7.35,0,0,1-2.8-1.45,8.1,8.1,0,0,1-2-2.68,9.39,9.39,0,0,1-.8-4.17V107.51a8.9,8.9,0,0,1,.62-3.37,8,8,0,0,1,1.76-2.7,8.25,8.25,0,0,1,2.73-1.79,9.17,9.17,0,0,1,3.5-.65,8,8,0,0,1,6.07,2.44,8.53,8.53,0,0,1,1.79,2.83,9.38,9.38,0,0,1,.65,3.55v.42a1.66,1.66,0,0,1-1.66,1.66h-2a1.66,1.66,0,0,1-1.66-1.66v-.11a4.26,4.26,0,0,0-.88-2.69,2.85,2.85,0,0,0-2.39-1.15,2.7,2.7,0,0,0-2.62,1.22,6.61,6.61,0,0,0-.65,3.09v18.89a4.84,4.84,0,0,0,.7,2.7,2.76,2.76,0,0,0,2.52,1.09,3.83,3.83,0,0,0,1.11-.18,3.3,3.3,0,0,0,1.12-.6,3.1,3.1,0,0,0,.78-1.14,4.58,4.58,0,0,0,.31-1.82v-.15a1.66,1.66,0,0,1,1.66-1.66Z"/><path class="cls-4" d="M358,134.6V101a1.66,1.66,0,0,1,1.66-1.66h12.45a1.67,1.67,0,0,1,1.67,1.66v1.66a1.66,1.66,0,0,1-1.67,1.66H365a1.67,1.67,0,0,0-1.66,1.66v7.53a1.66,1.66,0,0,0,1.66,1.66h5.82a1.66,1.66,0,0,1,1.66,1.66v1.66a1.66,1.66,0,0,1-1.66,1.66H365a1.67,1.67,0,0,0-1.66,1.66v7.53A1.66,1.66,0,0,0,365,131h7.16a1.66,1.66,0,0,1,1.67,1.66v2a1.66,1.66,0,0,1-1.67,1.66H359.66A1.66,1.66,0,0,1,358,134.6Z"/><path class="cls-4" d="M401.91,108.29a1.66,1.66,0,0,1-1.67,1.66h-3.63v-1.19a5.58,5.58,0,0,0-.86-3.14,3.15,3.15,0,0,0-2.88-1.33,3.3,3.3,0,0,0-1.76.42,3.5,3.5,0,0,0-1.09,1,4.26,4.26,0,0,0-.57,1.53,9.46,9.46,0,0,0-.16,1.79c0,.72,0,1.33.08,1.82a3.36,3.36,0,0,0,.39,1.29,2.94,2.94,0,0,0,.91,1,8.41,8.41,0,0,0,1.63.83l4.05,1.61a10.21,10.21,0,0,1,2.86,1.58,7.12,7.12,0,0,1,1.71,2.1,10,10,0,0,1,.78,2.83,29.65,29.65,0,0,1,.21,3.61,19,19,0,0,1-.47,4.33,9.13,9.13,0,0,1-1.51,3.4,7.4,7.4,0,0,1-2.85,2.28,10,10,0,0,1-4.31.84,9.43,9.43,0,0,1-3.58-.68,8.36,8.36,0,0,1-2.85-1.87,9,9,0,0,1-1.9-2.77,8.43,8.43,0,0,1-.7-3.46v-.31a1.66,1.66,0,0,1,1.66-1.66h2a1.66,1.66,0,0,1,1.66,1.66h0a4.31,4.31,0,0,0,.86,2.62,3.33,3.33,0,0,0,2.88,1.17,4.62,4.62,0,0,0,2.1-.39,2.85,2.85,0,0,0,1.17-1.11,4.07,4.07,0,0,0,.49-1.74c.05-.68.08-1.43.08-2.26a22.43,22.43,0,0,0-.1-2.39,4.58,4.58,0,0,0-.34-1.35,2.38,2.38,0,0,0-.18-.3,3,3,0,0,0-.86-.79,11.73,11.73,0,0,0-1.58-.77l-3.79-1.56a8.42,8.42,0,0,1-4.59-3.71,12.75,12.75,0,0,1-1.17-5.79,13.41,13.41,0,0,1,.57-3.94,9,9,0,0,1,1.71-3.22,8,8,0,0,1,2.78-2.16,9.33,9.33,0,0,1,4-.8,8.69,8.69,0,0,1,3.61.73,9.2,9.2,0,0,1,2.83,1.92,8,8,0,0,1,2.39,5.71Z"/></g></g></svg>