<svg xmlns="http://www.w3.org/2000/svg" viewBox="0 0 911.55 245.76"><defs><style>.cls-1{font-size:27px;}.cls-1,.cls-16{fill:#2e3571;font-family:MyriadPro-Regular, Myriad Pro;}.cls-2{letter-spacing:0em;}.cls-3{letter-spacing:0.01em;}.cls-4{letter-spacing:-0.04em;}.cls-5{letter-spacing:-0.01em;}.cls-6{letter-spacing:0.01em;}.cls-7{letter-spacing:0em;}.cls-8{letter-spacing:-0.01em;}.cls-9{letter-spacing:-0.01em;}.cls-10{letter-spacing:0em;}.cls-11{letter-spacing:0.03em;}.cls-12{letter-spacing:0em;}.cls-13{letter-spacing:0.01em;}.cls-14{letter-spacing:-0.01em;}.cls-15{letter-spacing:-0.01em;}.cls-16{font-size:26px;}.cls-17{letter-spacing:0em;}.cls-18{letter-spacing:0.01em;}.cls-19{letter-spacing:-0.04em;}.cls-20{letter-spacing:-0.01em;}.cls-21{letter-spacing:0.01em;}.cls-22{letter-spacing:-0.01em;}.cls-23{letter-spacing:-0.01em;}.cls-24{letter-spacing:0.03em;}.cls-25{letter-spacing:0em;}.cls-26{letter-spacing:0.01em;}.cls-27{letter-spacing:-0.01em;}.cls-28{letter-spacing:-0.01em;}.cls-29{letter-spacing:0em;}.cls-30{letter-spacing:0em;}.cls-31{letter-spacing:0em;}.cls-32{letter-spacing:0em;}.cls-33{letter-spacing:0.02em;}.cls-34{letter-spacing:-0.01em;}.cls-35{letter-spacing:-0.01em;}.cls-36{letter-spacing:-0.01em;}.cls-37{letter-spacing:0em;}.cls-38{letter-spacing:0em;}.cls-39{letter-spacing:0em;}.cls-40{letter-spacing:0.02em;}.cls-41{letter-spacing:-0.01em;}.cls-42{letter-spacing:-0.01em;}</style></defs><title>p6e2</title><g id="Layer_2" data-name="Layer 2"><g id="Layer_1-2" data-name="Layer 1"><text class="cls-1" transform="translate(13.79 22.6)"><tspan class="cls-2">h</tspan><tspan x="14.88" y="0">ttps://</tspan><tspan class="cls-3" x="82.92" y="0">ww</tspan><tspan class="cls-4" x="123.31" y="0">w</tspan><tspan x="142.13" y="0">.f</tspan><tspan class="cls-5" x="155.6" y="0">r</tspan><tspan x="164.16" y="0">eepi</tspan><tspan class="cls-6" x="212.89" y="0">k</tspan><tspan class="cls-7" x="225.93" y="0">.</tspan><tspan class="cls-8" x="231.52" y="0">c</tspan><tspan x="243.45" y="0">om/f</tspan><tspan class="cls-9" x="297.94" y="0">r</tspan><tspan class="cls-10" x="306.5" y="0">e</tspan><tspan class="cls-11" x="320.03" y="0">e</tspan><tspan class="cls-12" x="334.31" y="0">-</tspan><tspan class="cls-5" x="342.46" y="0">v</tspan><tspan class="cls-10" x="355.18" y="0">e</tspan><tspan class="cls-13" x="368.71" y="0">c</tspan><tspan class="cls-14" x="381.15" y="0">t</tspan><tspan x="389.93" y="0">or/</tspan><tspan class="cls-14" x="422.84" y="0">c</tspan><tspan x="434.77" y="0">o</tspan><tspan class="cls-9" x="449.6" y="0">r</tspan><tspan x="458.16" y="0">ona</tspan><tspan class="cls-12" x="500.98" y="0">-</tspan><tspan class="cls-10" x="509.13" y="0">virus-in</tspan><tspan class="cls-15" x="592.42" y="0">f</tspan><tspan class="cls-7" x="599.96" y="0">o</tspan><tspan class="cls-14" x="614.78" y="0">g</tspan><tspan class="cls-12" x="629.71" y="0">r</tspan><tspan class="cls-10" x="638.41" y="0">aphics_6706041.</tspan><tspan class="cls-2" x="826.92" y="0">h</tspan><tspan x="841.79" y="0">tml</tspan></text><text class="cls-16" transform="translate(0 130.57)"><tspan class="cls-17">h</tspan><tspan x="14.33" y="0">ttps://</tspan><tspan class="cls-18" x="79.84" y="0">ww</tspan><tspan class="cls-19" x="118.74" y="0">w</tspan><tspan x="136.86" y="0">.f</tspan><tspan class="cls-20" x="149.83" y="0">r</tspan><tspan x="158.08" y="0">eepi</tspan><tspan class="cls-21" x="205.01" y="0">k</tspan><tspan x="217.56" y="0">.</tspan><tspan class="cls-22" x="222.95" y="0">c</tspan><tspan x="234.44" y="0">om/f</tspan><tspan class="cls-23" x="286.9" y="0">r</tspan><tspan x="295.15" y="0">e</tspan><tspan class="cls-24" x="308.17" y="0">e</tspan><tspan class="cls-25" x="321.93" y="0">-</tspan><tspan class="cls-20" x="329.78" y="0">v</tspan><tspan x="342.02" y="0">e</tspan><tspan class="cls-26" x="355.05" y="0">c</tspan><tspan class="cls-27" x="367.04" y="0">t</tspan><tspan x="375.49" y="0">or/in</tspan><tspan class="cls-28" x="427.69" y="0">f</tspan><tspan x="434.95" y="0">o</tspan><tspan class="cls-29" x="449.22" y="0">r</tspan><tspan class="cls-30" x="457.83" y="0">m</tspan><tspan class="cls-31" x="479.51" y="0">a</tspan><tspan x="491.94" y="0">tion-abou</tspan><tspan class="cls-32" x="599.24" y="0">t</tspan><tspan class="cls-33" x="607.71" y="0">-</tspan><tspan class="cls-34" x="616.16" y="0">c</tspan><tspan class="cls-30" x="627.66" y="0">o</tspan><tspan class="cls-35" x="641.93" y="0">r</tspan><tspan class="cls-30" x="650.17" y="0">on</tspan><tspan class="cls-36" x="678.88" y="0">a</tspan><tspan x="691.2" y="0">virus_6860033.</tspan><tspan class="cls-37" x="854.66" y="0">h</tspan><tspan x="868.98" y="0">tmL</tspan></text><text class="cls-1" transform="translate(136.99 239.01)"><tspan class="cls-38">h</tspan><tspan class="cls-39" x="14.88" y="0">ttps://en.wi</tspan><tspan class="cls-40" x="143.2" y="0">k</tspan><tspan x="156.33" y="0">ipedia.o</tspan><tspan class="cls-41" x="246.5" y="0">r</tspan><tspan x="255.12" y="0">g/wi</tspan><tspan class="cls-40" x="305.66" y="0">k</tspan><tspan x="318.78" y="0">i/2019–20_</tspan><tspan class="cls-14" x="444.46" y="0">c</tspan><tspan x="456.4" y="0">o</tspan><tspan class="cls-9" x="471.22" y="0">r</tspan><tspan x="479.78" y="0">on</tspan><tspan class="cls-42" x="509.59" y="0">a</tspan><tspan class="cls-10" x="522.39" y="0">virus_outb</tspan><tspan class="cls-5" x="643.59" y="0">r</tspan><tspan x="652.15" y="0">eak</tspan></text></g></g></svg>