<svg xmlns="http://www.w3.org/2000/svg" viewBox="0 0 650 280.59"><defs><style>.cls-1{fill:#fff;}</style></defs><title>page1-h1</title><g id="Layer_2" data-name="Layer 2"><g id="Layer_1-2" data-name="Layer 1"><path class="cls-1" d="M124.24,48.73c0-20.53,12.09-33,28.25-33A23.75,23.75,0,0,1,170,23.53l-4.44,5.28c-3.35-3.57-7.56-6-12.93-6-12,0-20,9.85-20,25.71s7.64,26,19.71,26c6.08,0,10.7-2.64,14.76-7.15l4.44,5.08c-5,5.85-11.26,9.19-19.53,9.19C136.12,81.67,124.24,69.41,124.24,48.73Z" transform="translate(-103.87 -15.68)"/><path class="cls-1" d="M176.81,48.45c0-20.39,11.22-32.77,27.21-32.77s27.21,12.41,27.21,32.77S220,81.67,204,81.67,176.81,68.84,176.81,48.45Zm46.05,0c0-15.86-7.47-25.64-18.84-25.64s-18.84,9.78-18.84,25.64,7.47,26.1,18.84,26.1S222.86,64.31,222.86,48.45Z" transform="translate(-103.87 -15.68)"/><path class="cls-1" d="M244.92,16.85h19.93c13,0,22.28,4.65,22.28,17.92,0,12.71-9.31,18.83-22.28,18.83H253V80.51h-8.1ZM263.69,47c9.91,0,15.36-4,15.36-12.26s-5.45-11.35-15.36-11.35H253V47Zm-.43,4.35,6.34-4.19L289,80.51h-9.18Z" transform="translate(-103.87 -15.68)"/><path class="cls-1" d="M296.41,48.45c0-20.39,11.22-32.77,27.21-32.77s27.21,12.41,27.21,32.77-11.22,33.22-27.21,33.22S296.41,68.84,296.41,48.45Zm46,0c0-15.86-7.47-25.64-18.84-25.64s-18.84,9.78-18.84,25.64,7.47,26.1,18.84,26.1S342.46,64.31,342.46,48.45Z" transform="translate(-103.87 -15.68)"/><path class="cls-1" d="M364.51,16.85h8.37l23,40,6.87,13.18h.39c-.41-6.42-1-13.6-1-20.25V16.85h7.69V80.51h-8.36l-23-40.06-6.88-13.14h-.38c.4,6.44,1,13.23,1,19.88V80.51h-7.7Z" transform="translate(-103.87 -15.68)"/><path class="cls-1" d="M440.36,16.85h9.14L471,80.51h-8.58L451.36,45C449.07,37.84,447,30.85,445,23.5h-.38c-2,7.38-4,14.34-6.31,21.45L427.07,80.51h-8.24Zm-10.21,37.8h29.31v6.47H430.15Z" transform="translate(-103.87 -15.68)"/><path class="cls-1" d="M470,16.85h8.58l10.28,34.41c2.23,7.49,3.77,13.56,6.12,21h.39c2.36-7.47,3.93-13.54,6.13-21l10.2-34.41h8.25L499.72,80.51h-9.39Z" transform="translate(-103.87 -15.68)"/><path class="cls-1" d="M528.25,16.85h8.1V80.51h-8.1Z" transform="translate(-103.87 -15.68)"/><path class="cls-1" d="M553.76,16.85H573.7c13,0,22.27,4.65,22.27,17.92,0,12.71-9.31,18.83-22.27,18.83H561.86V80.51h-8.1ZM572.53,47c9.91,0,15.36-4,15.36-12.26s-5.45-11.35-15.36-11.35H561.86V47Zm-.43,4.35,6.35-4.19,19.42,33.32h-9.18Z" transform="translate(-103.87 -15.68)"/><path class="cls-1" d="M608.68,54.22V16.85h8.11V54.44c0,15.3,6.46,20.11,14.77,20.11s15.1-4.81,15.1-20.11V16.85h7.76V54.22c0,20.43-9.86,27.45-22.86,27.45S608.68,74.65,608.68,54.22Z" transform="translate(-103.87 -15.68)"/><path class="cls-1" d="M665.93,72.22l4.85-5.56a24.83,24.83,0,0,0,17.56,7.89c8.35,0,13.31-4.16,13.31-10.34,0-6.51-4.61-8.58-10.62-11.2l-9.15-4C676,46.44,669,41.94,669,32.58c0-9.73,8.48-16.9,20-16.9a26.28,26.28,0,0,1,18.75,7.89l-4.3,5.2a20.36,20.36,0,0,0-14.45-6c-7.14,0-11.87,3.6-11.87,9.29,0,6.13,5.56,8.43,10.54,10.54l9.08,3.92c7.36,3.17,13.11,7.56,13.11,17,0,10.06-8.31,18.09-21.69,18.09A30.49,30.49,0,0,1,665.93,72.22Z" transform="translate(-103.87 -15.68)"/><path class="cls-1" d="M135.44,127.39h3.4l8,26.91h-3.19l-4.13-15c-.85-3-1.61-6-2.37-9.07H137c-.73,3.12-1.49,6.06-2.34,9.07l-4.18,15h-3.06Zm-3.8,16h10.9v2.73h-10.9Z" transform="translate(-103.87 -15.68)"/><path class="cls-1" d="M150.06,127.39h3.11l8.57,16.92,2.56,5.57h.14c-.15-2.72-.38-5.75-.38-8.56V127.39h2.86V154.3h-3.11l-8.58-16.93-2.55-5.56h-.15c.16,2.72.39,5.59.39,8.41V154.3h-2.86Z" transform="translate(-103.87 -15.68)"/><path class="cls-1" d="M173.4,127.39h5.93c7.28,0,11.19,4.81,11.19,13.36s-3.91,13.55-11.06,13.55H173.4Zm5.7,24.1c5.54,0,8.3-3.94,8.3-10.74s-2.76-10.55-8.3-10.55h-2.68v21.29Z" transform="translate(-103.87 -15.68)"/><path class="cls-1" d="M207.69,127.39h3.4l8,26.91h-3.19l-4.13-15c-.86-3-1.62-6-2.38-9.07h-.14c-.73,3.12-1.49,6.06-2.34,9.07l-4.18,15h-3.07Zm-3.8,16h10.9v2.73h-10.9Z" transform="translate(-103.87 -15.68)"/><path class="cls-1" d="M222.3,127.39h3v24h10.33v2.9H222.3Z" transform="translate(-103.87 -15.68)"/><path class="cls-1" d="M239.84,127.39h3v24h10.34v2.9H239.84Z" transform="translate(-103.87 -15.68)"/><path class="cls-1" d="M268.44,143.87l-7.12-16.48h3.22l3,7.6c.76,2,1.48,3.85,2.29,5.86H270c.82-2,1.64-3.88,2.36-5.86l3.06-7.6h3.12l-7.12,16.48V154.3h-3Z" transform="translate(-103.87 -15.68)"/><path class="cls-1" d="M279.89,140.75c0-8.62,4.18-13.85,10.13-13.85s10.12,5.24,10.12,13.85-4.18,14-10.12,14S279.89,149.37,279.89,140.75Zm17.14,0c0-6.71-2.78-10.84-7-10.84s-7,4.13-7,10.84,2.78,11,7,11S297,147.45,297,140.75Z" transform="translate(-103.87 -15.68)"/><path class="cls-1" d="M305.13,143.19v-15.8h3v15.89c0,6.47,2.4,8.5,5.49,8.5s5.62-2,5.62-8.5V127.39h2.89v15.8c0,8.63-3.67,11.6-8.51,11.6S305.13,151.82,305.13,143.19Z" transform="translate(-103.87 -15.68)"/><path class="cls-1" d="M335.72,127.39h3.12l8.57,16.92,2.56,5.57h.14c-.15-2.72-.38-5.75-.38-8.56V127.39h2.86V154.3h-3.11l-8.58-16.93-2.55-5.56h-.15c.16,2.72.39,5.59.39,8.41V154.3h-2.87Z" transform="translate(-103.87 -15.68)"/><path class="cls-1" d="M359.07,127.39h13.65v2.9H362.09v8.43h9v2.9h-9v9.78h11v2.9h-14Z" transform="translate(-103.87 -15.68)"/><path class="cls-1" d="M378.09,127.39h13.65v2.9H381.11v8.43h9v2.9h-9v9.78h11v2.9h-14Z" transform="translate(-103.87 -15.68)"/><path class="cls-1" d="M397.11,127.39H403c7.29,0,11.19,4.81,11.19,13.36s-3.9,13.55-11.05,13.55h-6.06Zm5.7,24.1c5.54,0,8.3-3.94,8.3-10.74s-2.76-10.55-8.3-10.55h-2.69v21.29Z" transform="translate(-103.87 -15.68)"/><path class="cls-1" d="M431.45,130.29h-7.16v-2.9h17.34v2.9h-7.16v24h-3Z" transform="translate(-103.87 -15.68)"/><path class="cls-1" d="M443.62,140.75c0-8.62,4.18-13.85,10.12-13.85s10.13,5.24,10.13,13.85-4.18,14-10.13,14S443.62,149.37,443.62,140.75Zm17.13,0c0-6.71-2.78-10.84-7-10.84s-7,4.13-7,10.84,2.78,11,7,11S460.75,147.45,460.75,140.75Z" transform="translate(-103.87 -15.68)"/><path class="cls-1" d="M476.18,127.39h3v13.5h.1l9.84-13.5h3.41l-7.41,10.25,8.55,16.66h-3.36l-7.07-14-4.06,5.47v8.51h-3Z" transform="translate(-103.87 -15.68)"/><path class="cls-1" d="M497.07,127.39h3.11l8.58,16.92,2.55,5.57h.15c-.15-2.72-.39-5.75-.39-8.56V127.39h2.87V154.3h-3.12l-8.57-16.93-2.55-5.56h-.15c.15,2.72.38,5.59.38,8.41V154.3h-2.86Z" transform="translate(-103.87 -15.68)"/><path class="cls-1" d="M519,140.75c0-8.62,4.18-13.85,10.13-13.85s10.12,5.24,10.12,13.85-4.17,14-10.12,14S519,149.37,519,140.75Zm17.14,0c0-6.71-2.78-10.84-7-10.84s-7,4.13-7,10.84,2.78,11,7,11S536.18,147.45,536.18,140.75Z" transform="translate(-103.87 -15.68)"/><path class="cls-1" d="M541.75,127.39h3.11L547.34,142c.46,2.89.93,5.78,1.39,8.67h.14c.53-2.89,1.1-5.79,1.67-8.67l3.29-14.65h2.73L559.85,142c.56,2.85,1.14,5.77,1.7,8.67h.15c.46-2.9.88-5.81,1.34-8.67l2.49-14.65h2.9l-4.9,26.91h-3.62l-3.59-16.18c-.4-2.1-.78-4.05-1.14-6.13H555c-.37,2.08-.78,4-1.19,6.13l-3.51,16.18h-3.57Z" transform="translate(-103.87 -15.68)"/><path class="cls-1" d="M584.62,127.39H588l8,26.91h-3.19l-4.13-15c-.85-3-1.61-6-2.37-9.07h-.15c-.73,3.12-1.49,6.06-2.34,9.07l-4.18,15h-3.06Zm-3.8,16h10.9v2.73h-10.9Z" transform="translate(-103.87 -15.68)"/><path class="cls-1" d="M599.24,127.39h7c4.81,0,8.14,1.86,8.14,6.59,0,2.66-1.24,5-3.46,5.84V140c2.83.63,4.82,2.75,4.82,6.44,0,5.28-3.68,7.87-9,7.87h-7.57Zm6.52,11.45c4,0,5.69-1.69,5.69-4.42,0-3.14-1.89-4.31-5.56-4.31h-3.64v8.73Zm.61,12.74c4,0,6.44-1.66,6.44-5.28,0-3.32-2.3-4.83-6.44-4.83h-4.12v10.11Z" transform="translate(-103.87 -15.68)"/><path class="cls-1" d="M619.08,140.75c0-8.62,4.18-13.85,10.12-13.85s10.13,5.24,10.13,13.85-4.18,14-10.13,14S619.08,149.37,619.08,140.75Zm17.13,0c0-6.71-2.78-10.84-7-10.84s-7,4.13-7,10.84,2.79,11,7,11S636.21,147.45,636.21,140.75Z" transform="translate(-103.87 -15.68)"/><path class="cls-1" d="M644.32,143.19v-15.8h3v15.89c0,6.47,2.41,8.5,5.5,8.5s5.62-2,5.62-8.5V127.39h2.89v15.8c0,8.63-3.67,11.6-8.51,11.6S644.32,151.82,644.32,143.19Z" transform="translate(-103.87 -15.68)"/><path class="cls-1" d="M672.63,130.29h-7.17v-2.9H682.8v2.9h-7.16v24h-3Z" transform="translate(-103.87 -15.68)"/><path class="cls-1" d="M694.26,127.39h3V154.3h-3Z" transform="translate(-103.87 -15.68)"/><path class="cls-1" d="M708.68,130.29h-7.17v-2.9h17.35v2.9h-7.17v24h-3Z" transform="translate(-103.87 -15.68)"/><rect class="cls-1" y="78.59" width="650" height="4"/><rect class="cls-1" y="237.59" width="650" height="4"/><rect class="cls-1" y="90.59" width="650" height="4"/><path class="cls-1" d="M117.48,189.17c0-3.81,2.25-6.13,5.25-6.13A4.41,4.41,0,0,1,126,184.5l-.83,1a3.19,3.19,0,0,0-2.4-1.12c-2.23,0-3.71,1.83-3.71,4.77s1.42,4.84,3.66,4.84a3.56,3.56,0,0,0,2.74-1.33l.82.94a4.54,4.54,0,0,1-3.63,1.71C119.69,195.29,117.48,193,117.48,189.17Z" transform="translate(-103.87 -15.68)"/><path class="cls-1" d="M127.66,190.71c0-2.92,1.91-4.61,4.06-4.61s4.05,1.69,4.05,4.61-1.91,4.58-4.05,4.58S127.66,193.61,127.66,190.71Zm6.58,0c0-2-1-3.37-2.52-3.37s-2.53,1.36-2.53,3.37,1,3.35,2.53,3.35S134.24,192.71,134.24,190.71Z" transform="translate(-103.87 -15.68)"/><path class="cls-1" d="M138.07,186.32h1.22l.12,1.59h.05A3,3,0,0,1,142,186.1a2.08,2.08,0,0,1,.94.18l-.28,1.3a2.57,2.57,0,0,0-.85-.14c-.74,0-1.62.53-2.21,2v5.62h-1.48Z" transform="translate(-103.87 -15.68)"/><path class="cls-1" d="M143.48,190.71c0-2.92,1.91-4.61,4.06-4.61s4.05,1.69,4.05,4.61-1.91,4.58-4.05,4.58S143.48,193.61,143.48,190.71Zm6.58,0c0-2-1-3.37-2.52-3.37S145,188.7,145,190.71s1,3.35,2.53,3.35S150.06,192.71,150.06,190.71Z" transform="translate(-103.87 -15.68)"/><path class="cls-1" d="M153.89,186.32h1.22l.13,1.26h0a4.16,4.16,0,0,1,2.93-1.48c1.85,0,2.67,1.19,2.67,3.43v5.54h-1.48v-5.35c0-1.63-.49-2.33-1.65-2.33a3.35,3.35,0,0,0-2.39,1.34v6.34h-1.48Z" transform="translate(-103.87 -15.68)"/><path class="cls-1" d="M163.19,192.8c0-1.91,1.65-2.86,5.38-3.27,0-1.12-.38-2.21-1.81-2.21a4.83,4.83,0,0,0-2.61.94l-.58-1A6.42,6.42,0,0,1,167,186.1c2.13,0,3,1.42,3,3.6v5.37h-1.23l-.12-1h0a4.66,4.66,0,0,1-2.89,1.26A2.38,2.38,0,0,1,163.19,192.8Zm5.38.14v-2.43c-2.94.35-3.93,1.07-3.93,2.19s.68,1.4,1.54,1.4A3.65,3.65,0,0,0,168.57,192.94Z" transform="translate(-103.87 -15.68)"/><path class="cls-1" d="M171.54,186.32h1.53l1.66,5c.26.86.54,1.75.8,2.58h.08c.26-.83.54-1.72.8-2.58l1.66-5h1.45l-3.1,8.75H174.7Z" transform="translate(-103.87 -15.68)"/><path class="cls-1" d="M180.94,183.56a1,1,0,0,1,2.05,0,1,1,0,0,1-2.05,0Zm.27,2.76h1.48v8.75h-1.48Z" transform="translate(-103.87 -15.68)"/><path class="cls-1" d="M185.64,186.32h1.22l.13,1.59h0a3,3,0,0,1,2.48-1.81,2.08,2.08,0,0,1,.94.18l-.28,1.3a2.57,2.57,0,0,0-.85-.14c-.74,0-1.62.53-2.21,2v5.62h-1.48Z" transform="translate(-103.87 -15.68)"/><path class="cls-1" d="M191.77,191.87v-5.55h1.48v5.35c0,1.63.49,2.33,1.65,2.33.89,0,1.51-.44,2.34-1.47v-6.21h1.48v8.75H197.5l-.13-1.37h0a3.73,3.73,0,0,1-2.89,1.59C192.6,195.29,191.77,194.1,191.77,191.87Z" transform="translate(-103.87 -15.68)"/><path class="cls-1" d="M200.71,194.07l.73-1a3.94,3.94,0,0,0,2.58,1c1.15,0,1.72-.61,1.72-1.35,0-.9-1-1.3-2-1.66-1.23-.45-2.61-1.06-2.61-2.53s1.12-2.49,3-2.49a4.42,4.42,0,0,1,2.72,1l-.71.95a3.26,3.26,0,0,0-2-.78c-1.1,0-1.61.59-1.61,1.25,0,.83.95,1.15,1.95,1.52,1.26.48,2.66,1,2.66,2.66,0,1.42-1.12,2.6-3.19,2.6A5.23,5.23,0,0,1,200.71,194.07Z" transform="translate(-103.87 -15.68)"/><path class="cls-1" d="M212.19,190.71c0-2.84,1.8-4.61,3.79-4.61a3.57,3.57,0,0,1,2.45,1l-.06-1.5v-3.38h1.48v12.83h-1.22l-.13-1h-.05a3.87,3.87,0,0,1-2.65,1.25C213.61,195.29,212.19,193.62,212.19,190.71Zm6.18,2.14v-4.59a3.07,3.07,0,0,0-2.13-.91c-1.4,0-2.52,1.35-2.52,3.34s.87,3.35,2.41,3.35A3,3,0,0,0,218.37,192.85Z" transform="translate(-103.87 -15.68)"/><path class="cls-1" d="M222.54,183.56a1,1,0,0,1,2,0,1,1,0,0,1-2,0Zm.27,2.76h1.48v8.75h-1.48Z" transform="translate(-103.87 -15.68)"/><path class="cls-1" d="M226.27,194.07l.73-1a3.94,3.94,0,0,0,2.58,1c1.15,0,1.72-.61,1.72-1.35,0-.9-1-1.3-2-1.66-1.23-.45-2.61-1.06-2.61-2.53s1.12-2.49,3-2.49a4.42,4.42,0,0,1,2.72,1l-.71.95a3.26,3.26,0,0,0-2-.78c-1.1,0-1.61.59-1.61,1.25,0,.83.95,1.15,1.95,1.52,1.26.48,2.66,1,2.66,2.66,0,1.42-1.12,2.6-3.19,2.6A5.23,5.23,0,0,1,226.27,194.07Z" transform="translate(-103.87 -15.68)"/><path class="cls-1" d="M234.13,190.71c0-2.85,1.92-4.61,3.93-4.61,2.23,0,3.49,1.61,3.49,4.11a5,5,0,0,1-.06.84h-5.9a2.91,2.91,0,0,0,2.91,3.06,3.82,3.82,0,0,0,2.18-.7l.53,1a5.17,5.17,0,0,1-2.89.91C236,195.29,234.13,193.58,234.13,190.71Zm6.12-.72c0-1.75-.79-2.71-2.16-2.71a2.69,2.69,0,0,0-2.51,2.71Z" transform="translate(-103.87 -15.68)"/><path class="cls-1" d="M242.91,192.8c0-1.91,1.65-2.86,5.38-3.27,0-1.12-.38-2.21-1.81-2.21a4.83,4.83,0,0,0-2.61.94l-.58-1a6.42,6.42,0,0,1,3.44-1.15c2.13,0,3,1.42,3,3.6v5.37h-1.23l-.12-1h0a4.66,4.66,0,0,1-2.89,1.26A2.38,2.38,0,0,1,242.91,192.8Zm5.38.14v-2.43c-2.94.35-3.93,1.07-3.93,2.19s.68,1.4,1.54,1.4A3.65,3.65,0,0,0,248.29,192.94Z" transform="translate(-103.87 -15.68)"/><path class="cls-1" d="M251.56,194.07l.73-1a3.94,3.94,0,0,0,2.58,1c1.15,0,1.72-.61,1.72-1.35,0-.9-1-1.3-2-1.66-1.23-.45-2.61-1.06-2.61-2.53s1.12-2.49,3-2.49a4.42,4.42,0,0,1,2.72,1L257,188a3.26,3.26,0,0,0-2-.78c-1.1,0-1.61.59-1.61,1.25,0,.83.95,1.15,1.94,1.52,1.27.48,2.67,1,2.67,2.66,0,1.42-1.12,2.6-3.19,2.6A5.23,5.23,0,0,1,251.56,194.07Z" transform="translate(-103.87 -15.68)"/><path class="cls-1" d="M259.42,190.71c0-2.85,1.92-4.61,3.93-4.61,2.23,0,3.49,1.61,3.49,4.11a5,5,0,0,1-.06.84h-5.9a2.91,2.91,0,0,0,2.91,3.06,3.82,3.82,0,0,0,2.18-.7l.53,1a5.17,5.17,0,0,1-2.89.91C261.27,195.29,259.42,193.58,259.42,190.71Zm6.12-.72c0-1.75-.79-2.71-2.16-2.71a2.69,2.69,0,0,0-2.51,2.71Z" transform="translate(-103.87 -15.68)"/><path class="cls-1" d="M271.83,194.2c3.46-3.45,5.41-5.51,5.41-7.38a2,2,0,0,0-2.18-2.24,3.34,3.34,0,0,0-2.44,1.38l-.86-.84a4.49,4.49,0,0,1,3.48-1.75,3.19,3.19,0,0,1,3.45,3.38c0,2.16-2,4.3-4.69,7.15.62-.05,1.34-.1,1.93-.1h3.32v1.27h-7.42Z" transform="translate(-103.87 -15.68)"/><path class="cls-1" d="M280.86,189.29c0-3.85,1.39-5.92,3.68-5.92s3.68,2.07,3.68,5.92-1.39,6-3.68,6S280.86,193.14,280.86,189.29Zm5.92,0c0-3.37-.91-4.72-2.24-4.72s-2.24,1.35-2.24,4.72.9,4.81,2.24,4.81S286.78,192.65,286.78,189.29Z" transform="translate(-103.87 -15.68)"/><path class="cls-1" d="M290.43,193.84h2.63v-8.46H291v-.95a6.94,6.94,0,0,0,2.45-.84h1.13v10.25h2.37v1.23h-6.48Z" transform="translate(-103.87 -15.68)"/><path class="cls-1" d="M298.88,194.08l.82-.93a2.56,2.56,0,0,0,1.89.91c1.66,0,3-1.31,3-5.17,0-2.82-.92-4.35-2.57-4.35-1.12,0-2,1-2,2.52s.7,2.44,2.12,2.44a3.13,3.13,0,0,0,2.47-1.63l0,1.17a3.68,3.68,0,0,1-2.77,1.57c-2,0-3.27-1.2-3.27-3.55a3.47,3.47,0,0,1,3.39-3.69c2.27,0,4,1.84,4,5.52,0,4.62-2.09,6.4-4.38,6.4A3.67,3.67,0,0,1,298.88,194.08Z" transform="translate(-103.87 -15.68)"/><path class="cls-1" d="M312,190.07a15,15,0,0,1,2.37-8.18l.92.43a15.61,15.61,0,0,0,0,15.5l-.92.43A15,15,0,0,1,312,190.07Z" transform="translate(-103.87 -15.68)"/><path class="cls-1" d="M316.88,189.17c0-3.81,2.25-6.13,5.25-6.13a4.41,4.41,0,0,1,3.25,1.46l-.82,1a3.22,3.22,0,0,0-2.4-1.12c-2.24,0-3.72,1.83-3.72,4.77s1.42,4.84,3.66,4.84a3.56,3.56,0,0,0,2.74-1.33l.82.94a4.54,4.54,0,0,1-3.63,1.71C319.09,195.29,316.88,193,316.88,189.17Z" transform="translate(-103.87 -15.68)"/><path class="cls-1" d="M326.64,189.12c0-3.78,2.08-6.08,5.05-6.08s5.05,2.3,5.05,6.08-2.08,6.17-5.05,6.17S326.64,192.91,326.64,189.12Zm8.55,0c0-2.94-1.39-4.76-3.5-4.76s-3.5,1.82-3.5,4.76,1.39,4.85,3.5,4.85S335.19,192.06,335.19,189.12Z" transform="translate(-103.87 -15.68)"/><path class="cls-1" d="M337.49,183.25h1.59l1.91,6.39c.41,1.39.7,2.52,1.13,3.91h.08c.43-1.39.72-2.52,1.13-3.91l1.9-6.39h1.53L343,195.07h-1.74Z" transform="translate(-103.87 -15.68)"/><path class="cls-1" d="M348.3,183.25h1.5v11.82h-1.5Z" transform="translate(-103.87 -15.68)"/><path class="cls-1" d="M353,183.25h3c3.63,0,5.58,2.12,5.58,5.87s-1.95,5.95-5.52,5.95h-3Zm2.84,10.59c2.77,0,4.14-1.73,4.14-4.72s-1.37-4.63-4.14-4.63h-1.34v9.35Z" transform="translate(-103.87 -15.68)"/><path class="cls-1" d="M363.23,190h4.13v1.13h-4.13Z" transform="translate(-103.87 -15.68)"/><path class="cls-1" d="M369.37,193.84H372v-8.46h-2.09v-.95a6.81,6.81,0,0,0,2.44-.84h1.14v10.25h2.37v1.23h-6.49Z" transform="translate(-103.87 -15.68)"/><path class="cls-1" d="M377.83,194.08l.82-.93a2.53,2.53,0,0,0,1.89.91c1.66,0,3-1.31,3-5.17,0-2.82-.92-4.35-2.57-4.35-1.12,0-2,1-2,2.52s.71,2.44,2.13,2.44a3.15,3.15,0,0,0,2.47-1.63l.05,1.17a3.69,3.69,0,0,1-2.77,1.57c-2,0-3.27-1.2-3.27-3.55a3.47,3.47,0,0,1,3.39-3.69c2.26,0,4,1.84,4,5.52,0,4.62-2.08,6.4-4.37,6.4A3.66,3.66,0,0,1,377.83,194.08Z" transform="translate(-103.87 -15.68)"/><path class="cls-1" d="M386.53,197.82a15.54,15.54,0,0,0,0-15.5l.93-.43a15.3,15.3,0,0,1,0,16.36Z" transform="translate(-103.87 -15.68)"/><path class="cls-1" d="M396.11,183.56a1,1,0,0,1,2,0,1,1,0,0,1-2,0Zm.27,2.76h1.48v8.75h-1.48Z" transform="translate(-103.87 -15.68)"/><path class="cls-1" d="M399.84,194.07l.73-1a3.94,3.94,0,0,0,2.58,1c1.15,0,1.72-.61,1.72-1.35,0-.9-1-1.3-2-1.66-1.23-.45-2.61-1.06-2.61-2.53s1.12-2.49,3-2.49a4.42,4.42,0,0,1,2.72,1l-.71.95a3.26,3.26,0,0,0-2-.78c-1.11,0-1.62.59-1.62,1.25,0,.83,1,1.15,1.95,1.52,1.26.48,2.67,1,2.67,2.66,0,1.42-1.13,2.6-3.2,2.6A5.23,5.23,0,0,1,399.84,194.07Z" transform="translate(-103.87 -15.68)"/><path class="cls-1" d="M411.41,192.8c0-1.91,1.64-2.86,5.37-3.27,0-1.12-.37-2.21-1.8-2.21a4.78,4.78,0,0,0-2.61.94l-.58-1a6.38,6.38,0,0,1,3.43-1.15c2.14,0,3,1.42,3,3.6v5.37H417l-.12-1h-.05a4.69,4.69,0,0,1-2.9,1.26A2.38,2.38,0,0,1,411.41,192.8Zm5.37.14v-2.43c-2.93.35-3.92,1.07-3.92,2.19a1.34,1.34,0,0,0,1.53,1.4A3.61,3.61,0,0,0,416.78,192.94Z" transform="translate(-103.87 -15.68)"/><path class="cls-1" d="M421,186.32h1.22l.13,1.26h.05a4.17,4.17,0,0,1,2.94-1.48c1.84,0,2.67,1.19,2.67,3.43v5.54h-1.48v-5.35c0-1.63-.5-2.33-1.66-2.33a3.35,3.35,0,0,0-2.39,1.34v6.34H421Z" transform="translate(-103.87 -15.68)"/><path class="cls-1" d="M434.2,183.56a1,1,0,0,1,2,0,1,1,0,0,1-2,0Zm.27,2.76H436v8.75h-1.48Z" transform="translate(-103.87 -15.68)"/><path class="cls-1" d="M438.89,186.32h1.23l.12,1.26h.05a4.21,4.21,0,0,1,2.94-1.48c1.84,0,2.67,1.19,2.67,3.43v5.54h-1.48v-5.35c0-1.63-.49-2.33-1.65-2.33a3.31,3.31,0,0,0-2.39,1.34v6.34h-1.49Z" transform="translate(-103.87 -15.68)"/><path class="cls-1" d="M447.8,186.41l1.25-.09h3.27v1.21H447.8Zm1.19-1.47c0-1.78.8-2.91,2.56-2.91a3.78,3.78,0,0,1,1.45.3l-.31,1.13a2.45,2.45,0,0,0-1-.23c-.83,0-1.23.58-1.23,1.71v10.13H449Z" transform="translate(-103.87 -15.68)"/><path class="cls-1" d="M453.17,190.71c0-2.85,1.92-4.61,3.93-4.61,2.23,0,3.49,1.61,3.49,4.11a5,5,0,0,1-.06.84h-5.9a2.91,2.91,0,0,0,2.91,3.06,3.82,3.82,0,0,0,2.18-.7l.53,1a5.17,5.17,0,0,1-2.89.91C455,195.29,453.17,193.58,453.17,190.71Zm6.11-.72c0-1.75-.78-2.71-2.15-2.71a2.69,2.69,0,0,0-2.51,2.71Z" transform="translate(-103.87 -15.68)"/><path class="cls-1" d="M462.09,190.71a4.26,4.26,0,0,1,4.22-4.61,3.72,3.72,0,0,1,2.56,1l-.76,1a2.54,2.54,0,0,0-1.74-.77c-1.58,0-2.75,1.36-2.75,3.37s1.1,3.35,2.71,3.35a3.15,3.15,0,0,0,2.06-.88l.64,1a4.27,4.27,0,0,1-2.83,1.11C463.87,195.29,462.09,193.61,462.09,190.71Z" transform="translate(-103.87 -15.68)"/><path class="cls-1" d="M471,192.37v-4.84h-1.3v-1.12l1.37-.09.18-2.45h1.23v2.45h2.37v1.21h-2.37v4.86c0,1.07.35,1.69,1.36,1.69a3,3,0,0,0,1-.23l.29,1.11a5.19,5.19,0,0,1-1.62.33C471.66,195.29,471,194.11,471,192.37Z" transform="translate(-103.87 -15.68)"/><path class="cls-1" d="M476.59,183.56a1,1,0,0,1,2,0,1,1,0,0,1-2,0Zm.27,2.76h1.48v8.75h-1.48Z" transform="translate(-103.87 -15.68)"/><path class="cls-1" d="M480.63,190.71c0-2.92,1.91-4.61,4.06-4.61s4.06,1.69,4.06,4.61-1.91,4.58-4.06,4.58S480.63,193.61,480.63,190.71Zm6.59,0c0-2-1-3.37-2.53-3.37s-2.53,1.36-2.53,3.37,1,3.35,2.53,3.35S487.22,192.71,487.22,190.71Z" transform="translate(-103.87 -15.68)"/><path class="cls-1" d="M490.92,191.87v-5.55h1.48v5.35c0,1.63.5,2.33,1.66,2.33.89,0,1.51-.44,2.34-1.47v-6.21h1.48v8.75h-1.22l-.13-1.37h0a3.7,3.7,0,0,1-2.88,1.59C491.75,195.29,490.92,194.1,490.92,191.87Z" transform="translate(-103.87 -15.68)"/><path class="cls-1" d="M499.86,194.07l.73-1a4,4,0,0,0,2.59,1c1.15,0,1.72-.61,1.72-1.35,0-.9-1-1.3-2-1.66-1.22-.45-2.61-1.06-2.61-2.53s1.13-2.49,3-2.49a4.45,4.45,0,0,1,2.73,1l-.71.95a3.31,3.31,0,0,0-2-.78c-1.1,0-1.61.59-1.61,1.25,0,.83,1,1.15,1.94,1.52,1.26.48,2.67,1,2.67,2.66,0,1.42-1.13,2.6-3.19,2.6A5.24,5.24,0,0,1,499.86,194.07Z" transform="translate(-103.87 -15.68)"/><path class="cls-1" d="M511.35,190.71c0-2.84,1.79-4.61,3.79-4.61a3.59,3.59,0,0,1,2.45,1l-.06-1.5v-3.38H519v12.83h-1.23l-.12-1h0a3.87,3.87,0,0,1-2.65,1.25C512.77,195.29,511.35,193.62,511.35,190.71Zm6.18,2.14v-4.59a3.07,3.07,0,0,0-2.14-.91c-1.4,0-2.51,1.35-2.51,3.34s.87,3.35,2.4,3.35A3,3,0,0,0,517.53,192.85Z" transform="translate(-103.87 -15.68)"/><path class="cls-1" d="M521.69,183.56a1,1,0,0,1,2,0,1,1,0,0,1-2,0Zm.27,2.76h1.49v8.75H522Z" transform="translate(-103.87 -15.68)"/><path class="cls-1" d="M525.42,194.07l.73-1a4,4,0,0,0,2.59,1c1.14,0,1.72-.61,1.72-1.35,0-.9-1-1.3-2-1.66-1.22-.45-2.61-1.06-2.61-2.53s1.13-2.49,3-2.49a4.4,4.4,0,0,1,2.72,1l-.7.95a3.31,3.31,0,0,0-2-.78c-1.1,0-1.61.59-1.61,1.25,0,.83,1,1.15,1.94,1.52,1.26.48,2.67,1,2.67,2.66,0,1.42-1.13,2.6-3.19,2.6A5.24,5.24,0,0,1,525.42,194.07Z" transform="translate(-103.87 -15.68)"/><path class="cls-1" d="M533.28,190.71c0-2.85,1.92-4.61,3.94-4.61,2.23,0,3.49,1.61,3.49,4.11a4.89,4.89,0,0,1-.07.84h-5.89a2.91,2.91,0,0,0,2.91,3.06,3.77,3.77,0,0,0,2.17-.7l.53,1a5.14,5.14,0,0,1-2.89.91C535.14,195.29,533.28,193.58,533.28,190.71Zm6.12-.72c0-1.75-.79-2.71-2.16-2.71a2.69,2.69,0,0,0-2.51,2.71Z" transform="translate(-103.87 -15.68)"/><path class="cls-1" d="M542.07,192.8c0-1.91,1.64-2.86,5.37-3.27,0-1.12-.37-2.21-1.8-2.21a4.78,4.78,0,0,0-2.61.94l-.58-1a6.38,6.38,0,0,1,3.43-1.15c2.14,0,3,1.42,3,3.6v5.37H547.7l-.12-1h-.05a4.69,4.69,0,0,1-2.9,1.26A2.38,2.38,0,0,1,542.07,192.8Zm5.37.14v-2.43c-2.93.35-3.92,1.07-3.92,2.19a1.34,1.34,0,0,0,1.53,1.4A3.61,3.61,0,0,0,547.44,192.94Z" transform="translate(-103.87 -15.68)"/><path class="cls-1" d="M550.71,194.07l.73-1a4,4,0,0,0,2.59,1c1.14,0,1.72-.61,1.72-1.35,0-.9-1-1.3-2-1.66-1.22-.45-2.61-1.06-2.61-2.53s1.13-2.49,3-2.49a4.4,4.4,0,0,1,2.72,1l-.7.95a3.31,3.31,0,0,0-2-.78c-1.1,0-1.61.59-1.61,1.25,0,.83,1,1.15,1.94,1.52,1.26.48,2.67,1,2.67,2.66,0,1.42-1.13,2.6-3.19,2.6A5.24,5.24,0,0,1,550.71,194.07Z" transform="translate(-103.87 -15.68)"/><path class="cls-1" d="M558.57,190.71c0-2.85,1.92-4.61,3.94-4.61,2.23,0,3.49,1.61,3.49,4.11a4.89,4.89,0,0,1-.07.84H560a2.91,2.91,0,0,0,2.91,3.06,3.82,3.82,0,0,0,2.17-.7l.53,1a5.14,5.14,0,0,1-2.89.91C560.43,195.29,558.57,193.58,558.57,190.71Zm6.12-.72c0-1.75-.79-2.71-2.16-2.71A2.69,2.69,0,0,0,560,190Z" transform="translate(-103.87 -15.68)"/><path class="cls-1" d="M571.1,190.71c0-2.92,2-4.61,4.21-4.61a3.68,3.68,0,0,1,2.56,1l-.75,1a2.54,2.54,0,0,0-1.74-.77c-1.59,0-2.75,1.36-2.75,3.37s1.1,3.35,2.71,3.35a3.1,3.1,0,0,0,2-.88l.65,1a4.27,4.27,0,0,1-2.83,1.11C572.88,195.29,571.1,193.61,571.1,190.71Z" transform="translate(-103.87 -15.68)"/><path class="cls-1" d="M579.24,192.8c0-1.91,1.64-2.86,5.37-3.27,0-1.12-.37-2.21-1.8-2.21a4.78,4.78,0,0,0-2.61.94l-.58-1a6.38,6.38,0,0,1,3.43-1.15c2.14,0,3,1.42,3,3.6v5.37h-1.22l-.13-1h0a4.69,4.69,0,0,1-2.9,1.26A2.38,2.38,0,0,1,579.24,192.8Zm5.37.14v-2.43c-2.93.35-3.92,1.07-3.92,2.19a1.34,1.34,0,0,0,1.53,1.4A3.61,3.61,0,0,0,584.61,192.94Z" transform="translate(-103.87 -15.68)"/><path class="cls-1" d="M588.73,191.87v-5.55h1.48v5.35c0,1.63.5,2.33,1.66,2.33.89,0,1.51-.44,2.34-1.47v-6.21h1.48v8.75h-1.22l-.13-1.37h-.05a3.7,3.7,0,0,1-2.88,1.59C589.56,195.29,588.73,194.1,588.73,191.87Z" transform="translate(-103.87 -15.68)"/><path class="cls-1" d="M597.67,194.07l.73-1a4,4,0,0,0,2.59,1c1.15,0,1.72-.61,1.72-1.35,0-.9-1-1.3-2-1.66-1.22-.45-2.6-1.06-2.6-2.53s1.12-2.49,3-2.49a4.45,4.45,0,0,1,2.73,1l-.71.95a3.28,3.28,0,0,0-2-.78c-1.1,0-1.61.59-1.61,1.25,0,.83,1,1.15,1.94,1.52,1.26.48,2.67,1,2.67,2.66,0,1.42-1.13,2.6-3.19,2.6A5.26,5.26,0,0,1,597.67,194.07Z" transform="translate(-103.87 -15.68)"/><path class="cls-1" d="M605.53,190.71c0-2.85,1.92-4.61,3.94-4.61,2.23,0,3.49,1.61,3.49,4.11a4.06,4.06,0,0,1-.07.84H607a2.91,2.91,0,0,0,2.91,3.06,3.77,3.77,0,0,0,2.17-.7l.54,1a5.18,5.18,0,0,1-2.9.91C607.39,195.29,605.53,193.58,605.53,190.71Zm6.12-.72c0-1.75-.78-2.71-2.15-2.71A2.69,2.69,0,0,0,607,190Z" transform="translate(-103.87 -15.68)"/><path class="cls-1" d="M614.49,190.71c0-2.84,1.79-4.61,3.79-4.61a3.61,3.61,0,0,1,2.45,1l-.06-1.5v-3.38h1.48v12.83h-1.23l-.12-1h0a3.87,3.87,0,0,1-2.66,1.25C615.91,195.29,614.49,193.62,614.49,190.71Zm6.18,2.14v-4.59a3.07,3.07,0,0,0-2.14-.91c-1.4,0-2.51,1.35-2.51,3.34s.87,3.35,2.4,3.35A3,3,0,0,0,620.67,192.85Z" transform="translate(-103.87 -15.68)"/><path class="cls-1" d="M630.07,194.17h0l-.14.9H628.7V182.24h1.48v3.51l0,1.57a4.46,4.46,0,0,1,2.75-1.22c2.27,0,3.48,1.76,3.48,4.46,0,3-1.79,4.73-3.79,4.73A4,4,0,0,1,630.07,194.17Zm4.76-3.59c0-1.93-.66-3.23-2.31-3.23a3.58,3.58,0,0,0-2.34,1.19v4.59a3.36,3.36,0,0,0,2.13.91C633.76,194,634.83,192.74,634.83,190.58Z" transform="translate(-103.87 -15.68)"/><path class="cls-1" d="M637.71,198.66l.29-1.18a2.21,2.21,0,0,0,.66.13c1,0,1.62-.79,2-1.87l.2-.65-3.52-8.77h1.53l1.79,4.85c.27.76.56,1.65.85,2.46h.07c.25-.8.5-1.69.74-2.46l1.56-4.85h1.45l-3.3,9.47c-.62,1.74-1.52,3.05-3.28,3.05A2.78,2.78,0,0,1,637.71,198.66Z" transform="translate(-103.87 -15.68)"/><path class="cls-1" d="M649.62,194.07l.73-1a4,4,0,0,0,2.59,1c1.14,0,1.71-.61,1.71-1.35,0-.9-1-1.3-2-1.66-1.22-.45-2.61-1.06-2.61-2.53s1.12-2.49,3-2.49a4.42,4.42,0,0,1,2.72,1l-.71.95a3.26,3.26,0,0,0-2-.78c-1.1,0-1.61.59-1.61,1.25,0,.83.95,1.15,1.94,1.52,1.26.48,2.67,1,2.67,2.66,0,1.42-1.13,2.6-3.19,2.6A5.24,5.24,0,0,1,649.62,194.07Z" transform="translate(-103.87 -15.68)"/><path class="cls-1" d="M657.48,190.71c0-2.85,1.92-4.61,3.94-4.61,2.23,0,3.49,1.61,3.49,4.11a4.89,4.89,0,0,1-.07.84H659a2.91,2.91,0,0,0,2.91,3.06,3.82,3.82,0,0,0,2.17-.7l.53,1a5.17,5.17,0,0,1-2.89.91C659.34,195.29,657.48,193.58,657.48,190.71Zm6.12-.72c0-1.75-.79-2.71-2.16-2.71a2.69,2.69,0,0,0-2.51,2.71Z" transform="translate(-103.87 -15.68)"/><path class="cls-1" d="M665.89,186.32h1.53l1.65,5c.26.86.55,1.75.81,2.58H670c.26-.83.55-1.72.81-2.58l1.65-5h1.45l-3.09,8.75h-1.72Z" transform="translate(-103.87 -15.68)"/><path class="cls-1" d="M674.83,190.71c0-2.85,1.92-4.61,3.94-4.61,2.23,0,3.49,1.61,3.49,4.11a4.89,4.89,0,0,1-.07.84H676.3a2.91,2.91,0,0,0,2.91,3.06,3.77,3.77,0,0,0,2.17-.7l.53,1a5.14,5.14,0,0,1-2.89.91C676.69,195.29,674.83,193.58,674.83,190.71ZM681,190c0-1.75-.79-2.71-2.16-2.71a2.69,2.69,0,0,0-2.51,2.71Z" transform="translate(-103.87 -15.68)"/><path class="cls-1" d="M684.41,186.32h1.23l.12,1.59h0a3,3,0,0,1,2.49-1.81,2,2,0,0,1,.93.18l-.27,1.3a2.61,2.61,0,0,0-.85-.14c-.74,0-1.63.53-2.22,2v5.62h-1.48Z" transform="translate(-103.87 -15.68)"/><path class="cls-1" d="M689.83,190.71c0-2.85,1.92-4.61,3.93-4.61,2.23,0,3.49,1.61,3.49,4.11a5,5,0,0,1-.06.84h-5.9a2.91,2.91,0,0,0,2.91,3.06,3.82,3.82,0,0,0,2.18-.7l.53,1a5.17,5.17,0,0,1-2.89.91C691.68,195.29,689.83,193.58,689.83,190.71ZM696,190c0-1.75-.79-2.71-2.16-2.71a2.69,2.69,0,0,0-2.51,2.71Z" transform="translate(-103.87 -15.68)"/><path class="cls-1" d="M702.46,192.8c0-1.91,1.65-2.86,5.38-3.27,0-1.12-.38-2.21-1.81-2.21a4.83,4.83,0,0,0-2.61.94l-.58-1a6.45,6.45,0,0,1,3.44-1.15c2.14,0,3,1.42,3,3.6v5.37H708.1l-.13-1h-.05a4.66,4.66,0,0,1-2.89,1.26A2.38,2.38,0,0,1,702.46,192.8Zm5.38.14v-2.43c-2.93.35-3.93,1.07-3.93,2.19s.68,1.4,1.54,1.4A3.65,3.65,0,0,0,707.84,192.94Z" transform="translate(-103.87 -15.68)"/><path class="cls-1" d="M711.43,190.71c0-2.92,2-4.61,4.21-4.61a3.7,3.7,0,0,1,2.56,1l-.76,1a2.54,2.54,0,0,0-1.74-.77c-1.58,0-2.74,1.36-2.74,3.37s1.09,3.35,2.7,3.35a3.15,3.15,0,0,0,2.06-.88l.64,1a4.25,4.25,0,0,1-2.83,1.11C713.2,195.29,711.43,193.61,711.43,190.71Z" transform="translate(-103.87 -15.68)"/><path class="cls-1" d="M720.17,191.87v-5.55h1.48v5.35c0,1.63.49,2.33,1.65,2.33.9,0,1.51-.44,2.34-1.47v-6.21h1.48v8.75H725.9l-.12-1.37h0a3.71,3.71,0,0,1-2.89,1.59C721,195.29,720.17,194.1,720.17,191.87Z" transform="translate(-103.87 -15.68)"/><path class="cls-1" d="M730.34,192.37v-4.84H729v-1.12l1.37-.09.18-2.45h1.24v2.45h2.37v1.21h-2.37v4.86c0,1.07.34,1.69,1.35,1.69a3.16,3.16,0,0,0,1-.23l.28,1.11a5.14,5.14,0,0,1-1.62.33C731,195.29,730.34,194.11,730.34,192.37Z" transform="translate(-103.87 -15.68)"/><path class="cls-1" d="M735.26,190.71c0-2.85,1.92-4.61,3.93-4.61,2.24,0,3.5,1.61,3.5,4.11a4.89,4.89,0,0,1-.07.84h-5.9a2.91,2.91,0,0,0,2.91,3.06,3.82,3.82,0,0,0,2.18-.7l.53,1a5.17,5.17,0,0,1-2.89.91C737.12,195.29,735.26,193.58,735.26,190.71Zm6.12-.72c0-1.75-.79-2.71-2.16-2.71a2.69,2.69,0,0,0-2.51,2.71Z" transform="translate(-103.87 -15.68)"/><path class="cls-1" d="M109.52,207.92h1.22l.13,1.59h0a3,3,0,0,1,2.48-1.81,2.08,2.08,0,0,1,.94.18l-.28,1.3a2.57,2.57,0,0,0-.85-.14c-.74,0-1.62.53-2.21,2v5.62h-1.48Z" transform="translate(-103.87 -15.68)"/><path class="cls-1" d="M114.93,212.31c0-2.85,1.92-4.61,3.94-4.61,2.23,0,3.49,1.61,3.49,4.11a4.89,4.89,0,0,1-.07.84H116.4a2.91,2.91,0,0,0,2.91,3.06,3.77,3.77,0,0,0,2.17-.7l.53,1a5.14,5.14,0,0,1-2.89.91C116.79,216.89,114.93,215.18,114.93,212.31Zm6.12-.72c0-1.75-.79-2.71-2.16-2.71a2.69,2.69,0,0,0-2.51,2.71Z" transform="translate(-103.87 -15.68)"/><path class="cls-1" d="M123.54,215.67l.73-1a4,4,0,0,0,2.59,1c1.14,0,1.72-.61,1.72-1.35,0-.91-1-1.3-2-1.66-1.22-.45-2.61-1.06-2.61-2.53s1.13-2.49,3-2.49a4.4,4.4,0,0,1,2.72,1l-.7.95a3.31,3.31,0,0,0-2-.78c-1.1,0-1.61.58-1.61,1.25,0,.83,1,1.15,1.94,1.52,1.26.48,2.67,1,2.67,2.66,0,1.42-1.13,2.6-3.19,2.6A5.24,5.24,0,0,1,123.54,215.67Z" transform="translate(-103.87 -15.68)"/><path class="cls-1" d="M132.05,207.92h1.23l.12,1h0a4.6,4.6,0,0,1,2.79-1.23c2.26,0,3.47,1.76,3.47,4.46,0,3-1.79,4.73-3.79,4.73a4,4,0,0,1-2.43-1l0,1.53v3h-1.48Zm6.13,4.26c0-1.94-.66-3.23-2.31-3.23a3.65,3.65,0,0,0-2.34,1.19v4.59a3.43,3.43,0,0,0,2.14.91C137.11,215.64,138.18,214.34,138.18,212.18Z" transform="translate(-103.87 -15.68)"/><path class="cls-1" d="M141.77,205.16a1,1,0,0,1,2,0,1,1,0,0,1-2,0Zm.27,2.76h1.48v8.75H142Z" transform="translate(-103.87 -15.68)"/><path class="cls-1" d="M146.47,207.92h1.22l.13,1.59h.05a3,3,0,0,1,2.49-1.81,2,2,0,0,1,.93.18l-.28,1.3a2.51,2.51,0,0,0-.84-.14c-.74,0-1.63.53-2.22,2v5.62h-1.48Z" transform="translate(-103.87 -15.68)"/><path class="cls-1" d="M151.74,214.4c0-1.91,1.65-2.86,5.38-3.27,0-1.12-.38-2.21-1.81-2.21a4.83,4.83,0,0,0-2.61.94l-.58-1a6.45,6.45,0,0,1,3.44-1.15c2.14,0,3,1.42,3,3.6v5.37h-1.22l-.13-1h-.05a4.66,4.66,0,0,1-2.89,1.26A2.38,2.38,0,0,1,151.74,214.4Zm5.38.14v-2.43c-2.94.35-3.93,1.07-3.93,2.19s.68,1.39,1.54,1.39A3.64,3.64,0,0,0,157.12,214.54Z" transform="translate(-103.87 -15.68)"/><path class="cls-1" d="M161.36,214v-4.84h-1.3V208l1.37-.08.18-2.46h1.24v2.46h2.37v1.21h-2.37V214c0,1.07.34,1.69,1.35,1.69a3.16,3.16,0,0,0,1-.23l.28,1.11a5.19,5.19,0,0,1-1.62.33C162,216.89,161.36,215.71,161.36,214Z" transform="translate(-103.87 -15.68)"/><path class="cls-1" d="M166.29,212.31c0-2.92,1.91-4.61,4.05-4.61s4.06,1.69,4.06,4.61-1.91,4.58-4.06,4.58S166.29,215.21,166.29,212.31Zm6.58,0c0-2-1-3.37-2.53-3.37s-2.52,1.36-2.52,3.37,1,3.34,2.52,3.34S172.87,214.31,172.87,212.31Z" transform="translate(-103.87 -15.68)"/><path class="cls-1" d="M176.69,207.92h1.23l.12,1.59h.05a3,3,0,0,1,2.49-1.81,2,2,0,0,1,.93.18l-.27,1.3a2.57,2.57,0,0,0-.85-.14c-.74,0-1.62.53-2.22,2v5.62h-1.48Z" transform="translate(-103.87 -15.68)"/><path class="cls-1" d="M182.51,220.26l.29-1.18a2.21,2.21,0,0,0,.67.13c1,0,1.61-.79,2-1.87l.2-.65-3.51-8.77h1.52l1.79,4.84c.27.76.57,1.66.85,2.47h.08c.24-.8.49-1.69.73-2.47l1.56-4.84h1.45l-3.3,9.47c-.61,1.74-1.52,3.05-3.27,3.05A2.8,2.8,0,0,1,182.51,220.26Z" transform="translate(-103.87 -15.68)"/><path class="cls-1" d="M194.42,215.67l.73-1a4,4,0,0,0,2.59,1c1.15,0,1.72-.61,1.72-1.35,0-.91-1-1.3-2-1.66-1.23-.45-2.61-1.06-2.61-2.53s1.12-2.49,3-2.49a4.45,4.45,0,0,1,2.72,1l-.71.95a3.26,3.26,0,0,0-2-.78c-1.1,0-1.61.58-1.61,1.25,0,.83.95,1.15,1.94,1.52,1.27.48,2.67,1,2.67,2.66,0,1.42-1.13,2.6-3.19,2.6A5.28,5.28,0,0,1,194.42,215.67Z" transform="translate(-103.87 -15.68)"/><path class="cls-1" d="M202.06,220.26l.29-1.18a2.21,2.21,0,0,0,.66.13c1,0,1.62-.79,2-1.87l.2-.65-3.51-8.77h1.52l1.79,4.84c.27.76.57,1.66.85,2.47h.07c.25-.8.5-1.69.74-2.47l1.56-4.84h1.45l-3.3,9.47c-.62,1.74-1.52,3.05-3.28,3.05A2.78,2.78,0,0,1,202.06,220.26Z" transform="translate(-103.87 -15.68)"/><path class="cls-1" d="M211.34,207.92h1.23l.12,1.26h.05a4.17,4.17,0,0,1,2.94-1.48c1.84,0,2.67,1.19,2.67,3.43v5.54h-1.48v-5.35c0-1.63-.5-2.33-1.65-2.33a3.35,3.35,0,0,0-2.4,1.34v6.34h-1.48Z" transform="translate(-103.87 -15.68)"/><path class="cls-1" d="M220.56,212.31c0-2.84,1.8-4.61,3.79-4.61a3.57,3.57,0,0,1,2.45,1l-.06-1.5v-3.38h1.48v12.83H227l-.13-1h-.05a3.87,3.87,0,0,1-2.65,1.25C222,216.89,220.56,215.22,220.56,212.31Zm6.18,2.14v-4.59a3.07,3.07,0,0,0-2.13-.91c-1.4,0-2.52,1.35-2.52,3.34s.87,3.35,2.41,3.35A3,3,0,0,0,226.74,214.45Z" transform="translate(-103.87 -15.68)"/><path class="cls-1" d="M231.18,207.92h1.22l.13,1.59h.05a3,3,0,0,1,2.48-1.81,2.08,2.08,0,0,1,.94.18l-.28,1.3a2.57,2.57,0,0,0-.85-.14c-.74,0-1.62.53-2.21,2v5.62h-1.48Z" transform="translate(-103.87 -15.68)"/><path class="cls-1" d="M236.59,212.31c0-2.92,1.91-4.61,4.06-4.61s4,1.69,4,4.61-1.91,4.58-4,4.58S236.59,215.21,236.59,212.31Zm6.58,0c0-2-1-3.37-2.52-3.37s-2.53,1.36-2.53,3.37,1,3.34,2.53,3.34S243.17,214.31,243.17,212.31Z" transform="translate(-103.87 -15.68)"/><path class="cls-1" d="M247,207.92h1.22l.13,1.27h.05a3.87,3.87,0,0,1,2.72-1.49,2.31,2.31,0,0,1,2.42,1.67,4.15,4.15,0,0,1,2.88-1.67c1.8,0,2.67,1.19,2.67,3.43v5.54h-1.48v-5.35c0-1.63-.52-2.33-1.63-2.33a3.2,3.2,0,0,0-2.2,1.34v6.34H252.3v-5.35c0-1.63-.51-2.33-1.63-2.33a3.25,3.25,0,0,0-2.19,1.34v6.34H247Z" transform="translate(-103.87 -15.68)"/><path class="cls-1" d="M261.27,212.31c0-2.85,1.92-4.61,3.94-4.61,2.23,0,3.49,1.61,3.49,4.11a4.89,4.89,0,0,1-.07.84h-5.89a2.9,2.9,0,0,0,2.9,3.06,3.82,3.82,0,0,0,2.18-.7l.53,1a5.17,5.17,0,0,1-2.89.91C263.13,216.89,261.27,215.18,261.27,212.31Zm6.12-.72c0-1.75-.79-2.71-2.16-2.71a2.69,2.69,0,0,0-2.51,2.71Z" transform="translate(-103.87 -15.68)"/><path class="cls-1" d="M273.8,212.31c0-2.92,2-4.61,4.21-4.61a3.7,3.7,0,0,1,2.56,1l-.76,1a2.53,2.53,0,0,0-1.73-.77c-1.59,0-2.75,1.36-2.75,3.37s1.1,3.34,2.71,3.34a3.09,3.09,0,0,0,2-.87l.64,1a4.25,4.25,0,0,1-2.83,1.11C275.57,216.89,273.8,215.21,273.8,212.31Z" transform="translate(-103.87 -15.68)"/><path class="cls-1" d="M281.63,212.31c0-2.92,1.91-4.61,4.05-4.61s4.06,1.69,4.06,4.61-1.91,4.58-4.06,4.58S281.63,215.21,281.63,212.31Zm6.58,0c0-2-1-3.37-2.53-3.37s-2.52,1.36-2.52,3.37,1,3.34,2.52,3.34S288.21,214.31,288.21,212.31Z" transform="translate(-103.87 -15.68)"/><path class="cls-1" d="M292,207.92h1.23l.12,1.59h.05a3,3,0,0,1,2.49-1.81,2.08,2.08,0,0,1,.94.18l-.28,1.3a2.57,2.57,0,0,0-.85-.14c-.74,0-1.62.53-2.21,2v5.62H292Z" transform="translate(-103.87 -15.68)"/><path class="cls-1" d="M297.45,212.31c0-2.92,1.91-4.61,4.06-4.61s4.05,1.69,4.05,4.61-1.91,4.58-4.05,4.58S297.45,215.21,297.45,212.31Zm6.58,0c0-2-1-3.37-2.52-3.37S299,210.3,299,212.31s1,3.34,2.53,3.34S304,214.31,304,212.31Z" transform="translate(-103.87 -15.68)"/><path class="cls-1" d="M307.86,207.92h1.22l.12,1.26h.05a4.21,4.21,0,0,1,2.94-1.48c1.84,0,2.67,1.19,2.67,3.43v5.54h-1.48v-5.35c0-1.63-.49-2.33-1.65-2.33a3.35,3.35,0,0,0-2.39,1.34v6.34h-1.48Z" transform="translate(-103.87 -15.68)"/><path class="cls-1" d="M317.16,214.4c0-1.91,1.65-2.86,5.38-3.27,0-1.12-.38-2.21-1.81-2.21a4.8,4.8,0,0,0-2.61.94l-.58-1A6.39,6.39,0,0,1,321,207.7c2.13,0,3,1.42,3,3.6v5.37h-1.23l-.12-1h-.05a4.69,4.69,0,0,1-2.9,1.26A2.38,2.38,0,0,1,317.16,214.4Zm5.38.14v-2.43c-2.94.35-3.93,1.07-3.93,2.19s.68,1.39,1.53,1.39A3.64,3.64,0,0,0,322.54,214.54Z" transform="translate(-103.87 -15.68)"/><path class="cls-1" d="M325.51,207.92H327l1.65,5,.81,2.58h.07c.27-.83.55-1.72.81-2.58l1.66-5h1.45l-3.1,8.75h-1.72Z" transform="translate(-103.87 -15.68)"/><path class="cls-1" d="M334.91,205.16a1,1,0,0,1,2,0,1,1,0,0,1-2,0Zm.27,2.76h1.48v8.75h-1.48Z" transform="translate(-103.87 -15.68)"/><path class="cls-1" d="M339.61,207.92h1.22l.13,1.59H341a3,3,0,0,1,2.48-1.81,2.08,2.08,0,0,1,.94.18l-.28,1.3a2.57,2.57,0,0,0-.85-.14c-.74,0-1.62.53-2.21,2v5.62h-1.48Z" transform="translate(-103.87 -15.68)"/><path class="cls-1" d="M345.74,213.47v-5.55h1.48v5.35c0,1.63.49,2.33,1.65,2.33.89,0,1.51-.44,2.34-1.47v-6.21h1.48v8.75h-1.22l-.13-1.37h0a3.7,3.7,0,0,1-2.88,1.59C346.56,216.89,345.74,215.7,345.74,213.47Z" transform="translate(-103.87 -15.68)"/><path class="cls-1" d="M354.67,215.67l.74-1a3.94,3.94,0,0,0,2.58,1c1.15,0,1.72-.61,1.72-1.35,0-.91-1-1.3-2-1.66-1.23-.45-2.61-1.06-2.61-2.53s1.12-2.49,3-2.49a4.42,4.42,0,0,1,2.72,1l-.71.95a3.26,3.26,0,0,0-2-.78c-1.1,0-1.61.58-1.61,1.25,0,.83,1,1.15,1.94,1.52,1.27.48,2.67,1,2.67,2.66,0,1.42-1.12,2.6-3.19,2.6A5.28,5.28,0,0,1,354.67,215.67Z" transform="translate(-103.87 -15.68)"/><path class="cls-1" d="M366,215.79c3.45-3.44,5.4-5.5,5.4-7.37a2,2,0,0,0-2.18-2.24,3.37,3.37,0,0,0-2.44,1.37l-.86-.83a4.51,4.51,0,0,1,3.48-1.75,3.19,3.19,0,0,1,3.45,3.38c0,2.16-2,4.3-4.69,7.15.63-.05,1.34-.1,1.93-.1h3.32v1.27H366Z" transform="translate(-103.87 -15.68)"/><path class="cls-1" d="M379.33,211.67a15,15,0,0,1,2.38-8.18l.92.43a15.54,15.54,0,0,0,0,15.5l-.92.42A15,15,0,0,1,379.33,211.67Z" transform="translate(-103.87 -15.68)"/><path class="cls-1" d="M384.07,215.13l.9-1a4.63,4.63,0,0,0,3.26,1.47c1.55,0,2.47-.78,2.47-1.92s-.86-1.6-2-2.08l-1.7-.75a3.33,3.33,0,0,1-2.39-3c0-1.8,1.57-3.13,3.72-3.13a4.91,4.91,0,0,1,3.48,1.46l-.8,1a3.79,3.79,0,0,0-2.68-1.11c-1.33,0-2.21.67-2.21,1.73s1,1.56,2,1.95l1.68.73c1.37.59,2.44,1.4,2.44,3.16s-1.54,3.36-4,3.36A5.64,5.64,0,0,1,384.07,215.13Z" transform="translate(-103.87 -15.68)"/><path class="cls-1" d="M397,204.85h1.69l4,11.82h-1.59l-2.06-6.6c-.43-1.32-.81-2.62-1.18-4h-.08c-.36,1.37-.74,2.66-1.17,4l-2.08,6.6H393Zm-1.9,7h5.44v1.2h-5.44Z" transform="translate(-103.87 -15.68)"/><path class="cls-1" d="M404.26,204.85H408c2.41,0,4.13.87,4.13,3.33s-1.72,3.5-4.13,3.5h-2.2v5h-1.5Zm3.48,5.61c1.84,0,2.85-.75,2.85-2.28s-1-2.11-2.85-2.11h-2v4.39Zm-.08.81,1.18-.78,3.61,6.18h-1.71Z" transform="translate(-103.87 -15.68)"/><path class="cls-1" d="M413.39,215.13l.9-1a4.63,4.63,0,0,0,3.26,1.47c1.55,0,2.47-.78,2.47-1.92s-.86-1.6-2-2.08l-1.7-.75a3.33,3.33,0,0,1-2.39-3c0-1.8,1.57-3.13,3.72-3.13a4.91,4.91,0,0,1,3.48,1.46l-.8,1a3.79,3.79,0,0,0-2.68-1.11c-1.33,0-2.2.67-2.2,1.73s1,1.56,1.95,1.95l1.69.73c1.36.59,2.43,1.4,2.43,3.16s-1.54,3.36-4,3.36A5.66,5.66,0,0,1,413.39,215.13Z" transform="translate(-103.87 -15.68)"/><path class="cls-1" d="M426.67,212.31c0-2.92,2-4.61,4.21-4.61a3.68,3.68,0,0,1,2.56,1l-.76,1a2.51,2.51,0,0,0-1.73-.77c-1.59,0-2.75,1.36-2.75,3.37s1.1,3.34,2.71,3.34a3.09,3.09,0,0,0,2-.87l.65,1a4.27,4.27,0,0,1-2.83,1.11C428.45,216.89,426.67,215.21,426.67,212.31Z" transform="translate(-103.87 -15.68)"/><path class="cls-1" d="M434.5,212.31c0-2.92,1.91-4.61,4.06-4.61s4.05,1.69,4.05,4.61-1.91,4.58-4.05,4.58S434.5,215.21,434.5,212.31Zm6.58,0c0-2-1-3.37-2.52-3.37S436,210.3,436,212.31s1,3.34,2.53,3.34S441.08,214.31,441.08,212.31Z" transform="translate(-103.87 -15.68)"/><path class="cls-1" d="M444.91,207.92h1.22l.13,1.59h0a3,3,0,0,1,2.49-1.81,2.08,2.08,0,0,1,.94.18l-.28,1.3a2.57,2.57,0,0,0-.85-.14c-.74,0-1.62.53-2.21,2v5.62h-1.48Z" transform="translate(-103.87 -15.68)"/><path class="cls-1" d="M450.32,212.31c0-2.92,1.91-4.61,4.06-4.61s4.05,1.69,4.05,4.61-1.91,4.58-4.05,4.58S450.32,215.21,450.32,212.31Zm6.58,0c0-2-1-3.37-2.52-3.37s-2.53,1.36-2.53,3.37,1,3.34,2.53,3.34S456.9,214.31,456.9,212.31Z" transform="translate(-103.87 -15.68)"/><path class="cls-1" d="M460.73,207.92H462l.13,1.26h.05a4.16,4.16,0,0,1,2.93-1.48c1.85,0,2.67,1.19,2.67,3.43v5.54h-1.48v-5.35c0-1.63-.49-2.33-1.65-2.33a3.35,3.35,0,0,0-2.39,1.34v6.34h-1.48Z" transform="translate(-103.87 -15.68)"/><path class="cls-1" d="M470,214.4c0-1.91,1.65-2.86,5.38-3.27,0-1.12-.38-2.21-1.81-2.21a4.83,4.83,0,0,0-2.61.94l-.58-1a6.45,6.45,0,0,1,3.44-1.15c2.14,0,3,1.42,3,3.6v5.37h-1.22l-.13-1h-.05a4.66,4.66,0,0,1-2.89,1.26A2.38,2.38,0,0,1,470,214.4Zm5.38.14v-2.43c-2.94.35-3.93,1.07-3.93,2.19s.68,1.39,1.54,1.39A3.64,3.64,0,0,0,475.41,214.54Z" transform="translate(-103.87 -15.68)"/><path class="cls-1" d="M478.39,207.92h1.52l1.66,5c.26.86.54,1.75.8,2.58h.08c.26-.83.54-1.72.8-2.58l1.66-5h1.45l-3.09,8.75h-1.73Z" transform="translate(-103.87 -15.68)"/><path class="cls-1" d="M487.78,205.16a1,1,0,0,1,2.05,0,1,1,0,0,1-2.05,0Zm.27,2.76h1.48v8.75h-1.48Z" transform="translate(-103.87 -15.68)"/><path class="cls-1" d="M492.48,207.92h1.22l.13,1.59h.05a3,3,0,0,1,2.49-1.81,2,2,0,0,1,.93.18l-.28,1.3a2.51,2.51,0,0,0-.84-.14c-.74,0-1.63.53-2.22,2v5.62h-1.48Z" transform="translate(-103.87 -15.68)"/><path class="cls-1" d="M498.61,213.47v-5.55h1.48v5.35c0,1.63.49,2.33,1.65,2.33.89,0,1.52-.44,2.34-1.47v-6.21h1.48v8.75h-1.22l-.12-1.37h-.05a3.71,3.71,0,0,1-2.89,1.59C499.44,216.89,498.61,215.7,498.61,213.47Z" transform="translate(-103.87 -15.68)"/><path class="cls-1" d="M507.55,215.67l.73-1a3.94,3.94,0,0,0,2.58,1c1.15,0,1.72-.61,1.72-1.35,0-.91-1-1.3-2-1.66-1.23-.45-2.61-1.06-2.61-2.53s1.12-2.49,3-2.49a4.42,4.42,0,0,1,2.72,1l-.71.95a3.26,3.26,0,0,0-2-.78c-1.11,0-1.62.58-1.62,1.25,0,.83,1,1.15,1.95,1.52,1.26.48,2.67,1,2.67,2.66,0,1.42-1.13,2.6-3.2,2.6A5.23,5.23,0,0,1,507.55,215.67Z" transform="translate(-103.87 -15.68)"/><path class="cls-1" d="M518.9,215.79c3.45-3.44,5.4-5.5,5.4-7.37a2,2,0,0,0-2.18-2.24,3.37,3.37,0,0,0-2.44,1.37l-.86-.83a4.51,4.51,0,0,1,3.49-1.75,3.19,3.19,0,0,1,3.44,3.38c0,2.16-2,4.3-4.68,7.15.62-.05,1.33-.1,1.93-.1h3.32v1.27H518.9Z" transform="translate(-103.87 -15.68)"/><path class="cls-1" d="M531.56,212.31c0-2.92,1.91-4.61,4.05-4.61s4.06,1.69,4.06,4.61-1.91,4.58-4.06,4.58S531.56,215.21,531.56,212.31Zm6.58,0c0-2-1-3.37-2.53-3.37s-2.52,1.36-2.52,3.37,1,3.34,2.52,3.34S538.14,214.31,538.14,212.31Z" transform="translate(-103.87 -15.68)"/><path class="cls-1" d="M542,207.92h1.23l.12,1.59h.05a3,3,0,0,1,2.49-1.81,2,2,0,0,1,.93.18l-.27,1.3a2.61,2.61,0,0,0-.85-.14c-.74,0-1.63.53-2.22,2v5.62H542Z" transform="translate(-103.87 -15.68)"/><path class="cls-1" d="M551.09,215.13l.9-1a4.63,4.63,0,0,0,3.26,1.47c1.55,0,2.47-.78,2.47-1.92s-.86-1.6-2-2.08l-1.7-.75a3.33,3.33,0,0,1-2.39-3c0-1.8,1.57-3.13,3.72-3.13a4.91,4.91,0,0,1,3.48,1.46l-.8,1a3.79,3.79,0,0,0-2.68-1.11c-1.33,0-2.21.67-2.21,1.73s1,1.56,2,1.95l1.68.73c1.37.59,2.44,1.4,2.44,3.16s-1.54,3.36-4,3.36A5.64,5.64,0,0,1,551.09,215.13Z" transform="translate(-103.87 -15.68)"/><path class="cls-1" d="M564,204.85h1.69l4,11.82h-1.59l-2.06-6.6c-.43-1.32-.81-2.62-1.18-4h-.08c-.36,1.37-.74,2.66-1.17,4l-2.08,6.6H560Zm-1.9,7h5.44v1.2h-5.44Z" transform="translate(-103.87 -15.68)"/><path class="cls-1" d="M571.28,204.85H575c2.4,0,4.13.87,4.13,3.33s-1.73,3.5-4.13,3.5h-2.2v5h-1.5Zm3.48,5.61c1.84,0,2.85-.75,2.85-2.28s-1-2.11-2.85-2.11h-2v4.39Zm-.08.81,1.18-.78,3.61,6.18h-1.71Z" transform="translate(-103.87 -15.68)"/><path class="cls-1" d="M580.41,215.13l.9-1a4.63,4.63,0,0,0,3.26,1.47c1.55,0,2.47-.78,2.47-1.92s-.86-1.6-2-2.08l-1.7-.75a3.33,3.33,0,0,1-2.39-3c0-1.8,1.57-3.13,3.72-3.13a4.91,4.91,0,0,1,3.48,1.46l-.8,1A3.79,3.79,0,0,0,584.7,206c-1.33,0-2.2.67-2.2,1.73s1,1.56,2,1.95l1.69.73c1.36.59,2.43,1.4,2.43,3.16s-1.54,3.36-4,3.36A5.64,5.64,0,0,1,580.41,215.13Z" transform="translate(-103.87 -15.68)"/><path class="cls-1" d="M590.26,211.59h4.13v1.13h-4.13Z" transform="translate(-103.87 -15.68)"/><path class="cls-1" d="M596,210.77c0-3.81,2.25-6.13,5.25-6.13a4.43,4.43,0,0,1,3.25,1.46l-.83,1a3.19,3.19,0,0,0-2.4-1.12c-2.23,0-3.71,1.83-3.71,4.77s1.41,4.84,3.65,4.84a3.53,3.53,0,0,0,2.74-1.33l.83.94a4.55,4.55,0,0,1-3.63,1.71C598.25,216.89,596,214.61,596,210.77Z" transform="translate(-103.87 -15.68)"/><path class="cls-1" d="M606.22,212.31c0-2.92,1.91-4.61,4-4.61s4.06,1.69,4.06,4.61-1.91,4.58-4.06,4.58S606.22,215.21,606.22,212.31Zm6.58,0c0-2-1-3.37-2.53-3.37s-2.52,1.36-2.52,3.37,1,3.34,2.52,3.34S612.8,214.31,612.8,212.31Z" transform="translate(-103.87 -15.68)"/><path class="cls-1" d="M614.81,204.85h1.59l1.91,6.39c.41,1.39.7,2.52,1.13,3.91h.08c.43-1.39.73-2.52,1.13-3.91l1.9-6.39h1.53l-3.75,11.82h-1.75Z" transform="translate(-103.87 -15.68)"/><path class="cls-1" d="M624.48,211.59h4.13v1.13h-4.13Z" transform="translate(-103.87 -15.68)"/><path class="cls-1" d="M629.92,215.79c3.45-3.44,5.41-5.5,5.41-7.37a2,2,0,0,0-2.18-2.24,3.39,3.39,0,0,0-2.45,1.37l-.85-.83a4.49,4.49,0,0,1,3.48-1.75,3.2,3.2,0,0,1,3.45,3.38c0,2.16-2,4.3-4.69,7.15.62-.05,1.33-.1,1.93-.1h3.32v1.27h-7.42Z" transform="translate(-103.87 -15.68)"/><path class="cls-1" d="M638.84,219.42a15.61,15.61,0,0,0,0-15.5l.92-.43a15.28,15.28,0,0,1,0,16.35Z" transform="translate(-103.87 -15.68)"/><path class="cls-1" d="M648.14,214.4c0-1.91,1.64-2.86,5.38-3.27,0-1.12-.38-2.21-1.81-2.21a4.8,4.8,0,0,0-2.61.94l-.58-1A6.39,6.39,0,0,1,652,207.7c2.13,0,3,1.42,3,3.6v5.37h-1.23l-.12-1h0a4.69,4.69,0,0,1-2.9,1.26A2.38,2.38,0,0,1,648.14,214.4Zm5.38.14v-2.43c-2.94.35-3.93,1.07-3.93,2.19s.68,1.39,1.53,1.39A3.64,3.64,0,0,0,653.52,214.54Z" transform="translate(-103.87 -15.68)"/><path class="cls-1" d="M660.09,207.92h1.53l1.65,5,.81,2.58h.07c.27-.83.55-1.72.81-2.58l1.66-5h1.45l-3.1,8.75h-1.72Z" transform="translate(-103.87 -15.68)"/><path class="cls-1" d="M669.49,205.16a1,1,0,0,1,2,0,1,1,0,0,1-2,0Zm.27,2.76h1.48v8.75h-1.48Z" transform="translate(-103.87 -15.68)"/><path class="cls-1" d="M674.19,207.92h1.22l.12,1.59h.05a3,3,0,0,1,2.49-1.81,2.08,2.08,0,0,1,.94.18l-.28,1.3a2.57,2.57,0,0,0-.85-.14c-.74,0-1.62.53-2.21,2v5.62h-1.48Z" transform="translate(-103.87 -15.68)"/><path class="cls-1" d="M680.32,213.47v-5.55h1.48v5.35c0,1.63.49,2.33,1.65,2.33.89,0,1.51-.44,2.34-1.47v-6.21h1.48v8.75h-1.22l-.13-1.37h0a3.7,3.7,0,0,1-2.88,1.59C681.14,216.89,680.32,215.7,680.32,213.47Z" transform="translate(-103.87 -15.68)"/><path class="cls-1" d="M689.25,215.67l.74-1a3.92,3.92,0,0,0,2.58,1c1.15,0,1.72-.61,1.72-1.35,0-.91-1-1.3-2-1.66-1.23-.45-2.61-1.06-2.61-2.53s1.12-2.49,3-2.49a4.45,4.45,0,0,1,2.72,1l-.71.95a3.26,3.26,0,0,0-2-.78c-1.1,0-1.61.58-1.61,1.25,0,.83.95,1.15,1.94,1.52,1.27.48,2.67,1,2.67,2.66,0,1.42-1.12,2.6-3.19,2.6A5.28,5.28,0,0,1,689.25,215.67Z" transform="translate(-103.87 -15.68)"/><path class="cls-1" d="M700.72,212.31c0-2.92,2-4.61,4.21-4.61a3.7,3.7,0,0,1,2.56,1l-.76,1a2.54,2.54,0,0,0-1.74-.77c-1.58,0-2.74,1.36-2.74,3.37s1.09,3.34,2.7,3.34a3.14,3.14,0,0,0,2.06-.87l.64,1a4.25,4.25,0,0,1-2.83,1.11C702.49,216.89,700.72,215.21,700.72,212.31Z" transform="translate(-103.87 -15.68)"/><path class="cls-1" d="M709.57,214.91V203.84h1.49V215c0,.46.19.63.41.63a1.48,1.48,0,0,0,.32,0l.2,1.13a2.26,2.26,0,0,1-.85.14C710,216.89,709.57,216.18,709.57,214.91Z" transform="translate(-103.87 -15.68)"/><path class="cls-1" d="M713.51,212.31c0-2.92,1.91-4.61,4.06-4.61s4.06,1.69,4.06,4.61-1.92,4.58-4.06,4.58S713.51,215.21,713.51,212.31Zm6.59,0c0-2-1-3.37-2.53-3.37S715,210.3,715,212.31s1,3.34,2.53,3.34S720.1,214.31,720.1,212.31Z" transform="translate(-103.87 -15.68)"/><path class="cls-1" d="M722.91,215.67l.73-1a4,4,0,0,0,2.59,1c1.15,0,1.72-.61,1.72-1.35,0-.91-1-1.3-2-1.66-1.23-.45-2.61-1.06-2.61-2.53s1.12-2.49,3-2.49a4.42,4.42,0,0,1,2.72,1l-.71.95a3.26,3.26,0,0,0-2-.78c-1.1,0-1.61.58-1.61,1.25,0,.83,1,1.15,1.94,1.52,1.27.48,2.67,1,2.67,2.66,0,1.42-1.13,2.6-3.19,2.6A5.28,5.28,0,0,1,722.91,215.67Z" transform="translate(-103.87 -15.68)"/><path class="cls-1" d="M730.78,212.31c0-2.85,1.92-4.61,3.93-4.61,2.23,0,3.49,1.61,3.49,4.11a4.06,4.06,0,0,1-.07.84h-5.89a2.91,2.91,0,0,0,2.91,3.06,3.82,3.82,0,0,0,2.18-.7l.53,1a5.17,5.17,0,0,1-2.89.91C732.63,216.89,730.78,215.18,730.78,212.31Zm6.11-.72c0-1.75-.78-2.71-2.15-2.71a2.69,2.69,0,0,0-2.51,2.71Z" transform="translate(-103.87 -15.68)"/><path class="cls-1" d="M740.35,214.91V203.84h1.48V215c0,.46.2.63.42.63a1.48,1.48,0,0,0,.32,0l.2,1.13a2.26,2.26,0,0,1-.85.14C740.81,216.89,740.35,216.18,740.35,214.91Z" transform="translate(-103.87 -15.68)"/><path class="cls-1" d="M744.07,220.26l.29-1.18a2.21,2.21,0,0,0,.66.13c1,0,1.61-.79,2-1.87l.2-.65-3.52-8.77h1.53l1.79,4.84c.27.76.56,1.66.85,2.47h.07c.25-.8.5-1.69.74-2.47l1.56-4.84h1.45l-3.3,9.47c-.62,1.74-1.52,3.05-3.28,3.05A2.78,2.78,0,0,1,744.07,220.26Z" transform="translate(-103.87 -15.68)"/><path class="cls-1" d="M335.78,229.52H337l.12,1.59h.05a3,3,0,0,1,2.49-1.81,2,2,0,0,1,.93.18l-.27,1.3a2.57,2.57,0,0,0-.85-.14c-.74,0-1.62.53-2.22,2v5.62h-1.48Z" transform="translate(-103.87 -15.68)"/><path class="cls-1" d="M341.2,233.91c0-2.85,1.92-4.61,3.93-4.61,2.24,0,3.5,1.61,3.5,4.11a4.89,4.89,0,0,1-.07.84h-5.9a2.91,2.91,0,0,0,2.91,3.06,3.82,3.82,0,0,0,2.18-.7l.53,1a5.17,5.17,0,0,1-2.89.91C343.06,238.49,341.2,236.78,341.2,233.91Zm6.12-.72c0-1.75-.79-2.71-2.16-2.71a2.69,2.69,0,0,0-2.51,2.71Z" transform="translate(-103.87 -15.68)"/><path class="cls-1" d="M350.78,236.51V225.44h1.48v11.18c0,.46.19.63.41.63a1.44,1.44,0,0,0,.32,0l.21,1.13a2.32,2.32,0,0,1-.86.14C351.23,238.49,350.78,237.78,350.78,236.51Z" transform="translate(-103.87 -15.68)"/><path class="cls-1" d="M354.82,236c0-1.91,1.65-2.86,5.38-3.27,0-1.12-.38-2.21-1.81-2.21a4.83,4.83,0,0,0-2.61.94l-.58-1a6.45,6.45,0,0,1,3.44-1.15c2.14,0,3,1.42,3,3.6v5.37h-1.22l-.13-1h-.05a4.66,4.66,0,0,1-2.89,1.26A2.38,2.38,0,0,1,354.82,236Zm5.38.14v-2.43c-2.93.35-3.92,1.07-3.92,2.19s.67,1.39,1.53,1.39A3.64,3.64,0,0,0,360.2,236.14Z" transform="translate(-103.87 -15.68)"/><path class="cls-1" d="M364.45,235.57v-4.84h-1.31V229.6l1.37-.08.18-2.46h1.24v2.46h2.37v1.21h-2.37v4.86c0,1.07.34,1.69,1.35,1.69a3.16,3.16,0,0,0,1-.23l.28,1.11a5.14,5.14,0,0,1-1.62.33C365.08,238.49,364.45,237.31,364.45,235.57Z" transform="translate(-103.87 -15.68)"/><path class="cls-1" d="M369.37,233.91c0-2.85,1.92-4.61,3.93-4.61,2.23,0,3.5,1.61,3.5,4.11a4.89,4.89,0,0,1-.07.84h-5.9a2.91,2.91,0,0,0,2.91,3.06,3.82,3.82,0,0,0,2.18-.7l.53,1a5.17,5.17,0,0,1-2.89.91C371.23,238.49,369.37,236.78,369.37,233.91Zm6.12-.72c0-1.75-.79-2.71-2.16-2.71a2.69,2.69,0,0,0-2.51,2.71Z" transform="translate(-103.87 -15.68)"/><path class="cls-1" d="M378.32,233.91c0-2.84,1.79-4.61,3.79-4.61a3.59,3.59,0,0,1,2.45,1l-.06-1.5v-3.38H386v12.83h-1.22l-.13-1h-.05a3.87,3.87,0,0,1-2.65,1.25C379.74,238.49,378.32,236.82,378.32,233.91Zm6.18,2.14v-4.59a3.07,3.07,0,0,0-2.13-.91c-1.4,0-2.52,1.35-2.52,3.34s.87,3.35,2.4,3.35A3,3,0,0,0,384.5,236.05Z" transform="translate(-103.87 -15.68)"/><path class="cls-1" d="M392.8,235.57v-4.84h-1.31V229.6l1.37-.08.18-2.46h1.24v2.46h2.37v1.21h-2.37v4.86c0,1.07.34,1.69,1.35,1.69a3.16,3.16,0,0,0,1-.23l.28,1.11a5.14,5.14,0,0,1-1.62.33C393.43,238.49,392.8,237.31,392.8,235.57Z" transform="translate(-103.87 -15.68)"/><path class="cls-1" d="M397.72,233.91c0-2.92,1.91-4.61,4-4.61s4.06,1.69,4.06,4.61-1.91,4.58-4.06,4.58S397.72,236.81,397.72,233.91Zm6.58,0c0-2-1-3.37-2.53-3.37s-2.52,1.36-2.52,3.37,1,3.34,2.52,3.34S404.3,235.91,404.3,233.91Z" transform="translate(-103.87 -15.68)"/><path class="cls-1" d="M411.91,235.57v-4.84h-1.3V229.6l1.37-.08.18-2.46h1.23v2.46h2.37v1.21h-2.37v4.86c0,1.07.35,1.69,1.36,1.69a3,3,0,0,0,1-.23l.29,1.11a5.19,5.19,0,0,1-1.62.33C412.54,238.49,411.91,237.31,411.91,235.57Z" transform="translate(-103.87 -15.68)"/><path class="cls-1" d="M417.74,225.44h1.48V229l-.06,1.8a4.18,4.18,0,0,1,2.91-1.45c1.84,0,2.67,1.19,2.67,3.43v5.54h-1.48v-5.35c0-1.63-.49-2.33-1.65-2.33a3.35,3.35,0,0,0-2.39,1.34v6.34h-1.48Z" transform="translate(-103.87 -15.68)"/><path class="cls-1" d="M426.88,233.91c0-2.85,1.92-4.61,3.93-4.61,2.23,0,3.5,1.61,3.5,4.11a4.89,4.89,0,0,1-.07.84h-5.9a2.91,2.91,0,0,0,2.91,3.06,3.82,3.82,0,0,0,2.18-.7l.53,1a5.17,5.17,0,0,1-2.89.91C428.74,238.49,426.88,236.78,426.88,233.91Zm6.12-.72c0-1.75-.79-2.71-2.16-2.71a2.69,2.69,0,0,0-2.51,2.71Z" transform="translate(-103.87 -15.68)"/><path class="cls-1" d="M439.34,236.73l.9-1a4.63,4.63,0,0,0,3.26,1.47c1.55,0,2.47-.78,2.47-1.92s-.86-1.6-2-2.08l-1.7-.75a3.33,3.33,0,0,1-2.39-3c0-1.81,1.57-3.14,3.72-3.14a4.91,4.91,0,0,1,3.48,1.46l-.8,1a3.8,3.8,0,0,0-2.68-1.11c-1.33,0-2.21.67-2.21,1.73s1,1.56,2,2l1.68.73c1.37.59,2.44,1.4,2.44,3.16s-1.55,3.36-4,3.36A5.64,5.64,0,0,1,439.34,236.73Z" transform="translate(-103.87 -15.68)"/><path class="cls-1" d="M452.24,226.45h1.69l4,11.82h-1.59l-2.06-6.6c-.43-1.32-.81-2.62-1.19-4H453c-.36,1.37-.74,2.66-1.17,4l-2.08,6.6h-1.53Zm-1.9,7h5.44v1.2h-5.44Z" transform="translate(-103.87 -15.68)"/><path class="cls-1" d="M459.53,226.45h3.7c2.4,0,4.13.87,4.13,3.33s-1.73,3.5-4.13,3.5H461v5h-1.5Zm3.48,5.61c1.84,0,2.85-.75,2.85-2.28s-1-2.11-2.85-2.11h-2v4.39Zm-.08.81,1.18-.78,3.6,6.18H466Z" transform="translate(-103.87 -15.68)"/><path class="cls-1" d="M468.66,236.73l.9-1a4.63,4.63,0,0,0,3.26,1.47c1.55,0,2.47-.78,2.47-1.92s-.86-1.6-2-2.08l-1.7-.75a3.33,3.33,0,0,1-2.39-3c0-1.81,1.57-3.14,3.72-3.14a4.91,4.91,0,0,1,3.48,1.46l-.8,1a3.79,3.79,0,0,0-2.68-1.11c-1.33,0-2.21.67-2.21,1.73s1,1.56,2,2l1.69.73c1.36.59,2.43,1.4,2.43,3.16s-1.54,3.36-4,3.36A5.64,5.64,0,0,1,468.66,236.73Z" transform="translate(-103.87 -15.68)"/><path class="cls-1" d="M481.33,229.52h1.53l1.65,5c.26.86.55,1.75.81,2.58h.07c.26-.83.55-1.72.81-2.58l1.65-5h1.45l-3.09,8.75h-1.72Z" transform="translate(-103.87 -15.68)"/><path class="cls-1" d="M490.72,226.76a1,1,0,0,1,2,0,1,1,0,0,1-2,0Zm.28,2.76h1.48v8.75H491Z" transform="translate(-103.87 -15.68)"/><path class="cls-1" d="M495.42,229.52h1.23l.12,1.59h.05a3,3,0,0,1,2.49-1.81,2,2,0,0,1,.93.18l-.27,1.3a2.57,2.57,0,0,0-.85-.14c-.74,0-1.62.53-2.22,2v5.62h-1.48Z" transform="translate(-103.87 -15.68)"/><path class="cls-1" d="M501.55,235.07v-5.55H503v5.35c0,1.63.5,2.33,1.65,2.33.9,0,1.52-.44,2.35-1.47v-6.21h1.48v8.75h-1.23l-.12-1.37h-.05a3.7,3.7,0,0,1-2.89,1.59C502.38,238.49,501.55,237.3,501.55,235.07Z" transform="translate(-103.87 -15.68)"/><path class="cls-1" d="M510.49,237.27l.73-1a3.94,3.94,0,0,0,2.58,1c1.15,0,1.73-.61,1.73-1.35,0-.91-1-1.3-2-1.66-1.22-.45-2.61-1.06-2.61-2.53s1.12-2.49,3-2.49a4.42,4.42,0,0,1,2.72,1l-.7,1a3.31,3.31,0,0,0-2-.78c-1.1,0-1.61.58-1.61,1.25,0,.83.95,1.15,1.94,1.52,1.26.48,2.67,1,2.67,2.66,0,1.42-1.13,2.6-3.19,2.6A5.24,5.24,0,0,1,510.49,237.27Z" transform="translate(-103.87 -15.68)"/><path class="cls-1" d="M522.3,237.37a1.07,1.07,0,1,1,1.07,1.12A1.09,1.09,0,0,1,522.3,237.37Z" transform="translate(-103.87 -15.68)"/><polygon class="cls-1" points="0 244.59 650 244.59 650 250.59 439.31 250.59 325.75 280.59 213.68 249.59 0 249.59 0 244.59"/></g></g></svg>