<svg xmlns="http://www.w3.org/2000/svg" viewBox="0 0 256.75 42.93"><defs><style>.cls-1{fill:#343130;}.cls-2{fill:#312f2f;}.cls-3{fill:#e77a55;}.cls-4{fill:#312f2e;}.cls-5{fill:#e87a55;}.cls-6{fill:#333030;}.cls-7{fill:#e37955;}.cls-8{fill:#e77954;}.cls-9{fill:#ea7b55;}.cls-10{fill:#e97a55;}.cls-11{fill:#323030;}.cls-12{fill:#d87554;}.cls-13{fill:#dc7c5e;}.cls-14{fill:#e17753;}.cls-15{fill:#cad9f8;}</style></defs><title>p5e1a_1</title><g id="Layer_2" data-name="Layer 2"><g id="Layer_1-2" data-name="Layer 1"><path class="cls-1" d="M149.72,6.59a17.48,17.48,0,0,0,.06-3.23c-.39-2.56.73-3.09,3.09-3,2.07.06,3.15.42,2.83,2.76a20.73,20.73,0,0,0,.11,3.51V37a13,13,0,0,1-.17,2.34c-.26,1,1,2.82-1.23,3-1.8.14-3.82.57-4.23-2.23a15.54,15.54,0,0,0-1.27-3.28q-3.14-9.18-6.25-18.36l-.35.12V37.09a14.08,14.08,0,0,0-.1,2c.28,2.3-.14,3.5-3,3.38-2.46-.11-3.34-.75-3-3.15a12.1,12.1,0,0,0-.11-2.32V6.59a17.45,17.45,0,0,1,.16-2.91c.25-1.13-1-3,1.29-3.21,2-.16,4.18-.67,4.67,2.4a18.24,18.24,0,0,0,1.46,3.8l6,17.7C149.64,18.35,150,12.46,149.72,6.59Z"/><path class="cls-2" d="M241.37,37c0,.58-.11,1.16-.12,1.75-.06,3.43-1.74,4.58-5.06,3.61-1-.28-.87-.89-.9-1.55,0-1.26-.09-2.53-.13-3.8q.38-15.21,0-30.44a17.74,17.74,0,0,1,.18-2.93c.24-1.13-1.05-3,1.28-3.2,1.9-.15,4-.52,4.55,2.3a24.32,24.32,0,0,0,1.43,3.83c2,5.78,3.93,11.56,6,17.74V6.52A26.26,26.26,0,0,0,248.75,3c-.14-1.85.38-2.54,2.42-2.64,2.76-.14,3.77.75,3.36,3.45a14.87,14.87,0,0,0,.08,2.66q0,15.35,0,30.7a13.08,13.08,0,0,1-.14,2.35c-.25,1,1,2.8-1.33,2.88-1.74.06-3.57.39-4-2.14A18.67,18.67,0,0,0,247.86,37c-1.9-6.43-4.21-12.71-6.49-18.72Z"/><path class="cls-1" d="M223.91,36.92c-1.57,4-4.35,6.07-8.81,6s-7-2.13-8.5-6c-1.27-10.08-.79-20.18-.33-30.27C207.66,3,209.8.32,214.07.05c5.6-.34,7.66,1,10.09,6.54C224.81,16.7,225.08,26.82,223.91,36.92Zm-5.83-15.5h0c0-3.94.07-7.88,0-11.82-.05-1.63-.2-3.47-2.61-3.53s-2.75,1.47-3,3.24a15.84,15.84,0,0,0-.14,2.06c0,6.7,0,13.4,0,20.1a21.82,21.82,0,0,0,.53,4.09,2.33,2.33,0,0,0,2.38,1.85,2.19,2.19,0,0,0,2.34-1.85,21.13,21.13,0,0,0,.48-3.79C218.12,28.32,218.08,24.87,218.08,21.42Z"/><path class="cls-3" d="M87.8,36.94l-13.64.14c-2.64-.65-6.34,1.28-7.77-.94-1.27-2-.35-5.36-.36-8.13,0-4.5,0-4.61,4.45-4.44,1.91.07,2.87-.08,2.85-2.39s-.52-3.39-3-3c-.68.1-1.39,0-2.07,0-1.88.22-2.39-.66-2.31-2.41.14-3.06.1-6.12.13-9.18l17,0Q85.44,21.74,87.8,36.94Z"/><path class="cls-4" d="M30.46,6.6a1,1,0,0,0,.07-.28C31,.45,31,.45,37.17.45c1,0,2,0,3,0,5.63.06,6.82.91,8.59,6.15-.07,3.13,1.09,6.68-.42,9.29-1.92,3.29-1.05,5.76-.05,8.85,1.28,3.94.32,8.19.78,12.28a7.88,7.88,0,0,0-.12,2c.63,3-.76,3.45-3.45,3.43-2.45,0-3.08-.91-2.92-3.05a16.69,16.69,0,0,0-.13-2.34,52.32,52.32,0,0,0-.06-11.8c-.28-2.41-2-2.66-3.89-2.62-2.21.05-1.46,1.74-1.47,2.84,0,3.85.07,7.7.13,11.54a9.49,9.49,0,0,0-.1,2c.43,2.67-.61,3.44-3.3,3.38-2.37-.06-3.46-.55-3.07-3.06a10.86,10.86,0,0,0-.15-2.33c.56-5,.23-10.07.21-15.11S31.14,11.72,30.46,6.6Zm6.68,0c0,2.84-.14,5.69-.14,8.53,0,1.06-.5,2.56,1.43,2.59,1.59,0,3.4.08,3.72-2,.48-3.06,1.06-6.19-.4-9.2C39.64,4.9,38.15,4.92,37.14,6.6Z"/><path class="cls-5" d="M136.11,6.59V37l-9.66,0c-2.07,0-4.14-.16-6.21-.12-1.36,0-2-.36-1.93-1.82.07-3.16.08-6.32,0-9.47,0-1.59.63-2.12,2.1-2,.79.06,1.6-.09,2.37,0,2.26.33,2.81-.63,2.85-2.81.05-2.38-.92-2.94-3-2.7-.59.06-1.19,0-1.78,0-1.83.2-2.71-.37-2.59-2.42.18-3,.1-6.12.13-9.17Z"/><path class="cls-6" d="M87.8,36.94Q85.45,21.74,83.08,6.56C83,5.78,82.86,5,82.76,4.24,82.2.22,82.2.3,86.28.39c1.59,0,2.31.49,2.36,2.16A31.63,31.63,0,0,0,89.3,6.6l3.09,23,.9,0,2.43-23c.23-1.45.56-2.89.67-4.35s.7-1.79,2-1.86c4.13-.23,4.3-.1,3.66,4.09-.11.68-.16,1.36-.24,2L97.59,37c-.1.39-.22.76-.31,1.15-.88,4.21-.89,4-5.25,4.27-2.53.13-3.83-.55-3.85-3.19A14.21,14.21,0,0,0,87.8,36.94Z"/><path class="cls-2" d="M9.8,37.08a9.49,9.49,0,0,0-.1,2.05c.45,2.73-.71,3.39-3.34,3.36-2.43,0-3.42-.64-3-3.12A10.31,10.31,0,0,0,3.14,37c.71-7.53.18-15.08.28-22.62,0-2.63.44-5.29-.32-7.89C2.9.46,2.9.46,9,.45c1.18,0,2.37,0,3.55,0C17.7.59,19.25,1.73,21,6.6a38.32,38.32,0,0,1,.46,9.14c-.34,7.49-2.22,9.5-9.7,10.11-1.42.12-2.2.44-2.14,2C9.75,31,9.75,34,9.8,37.08ZM9.65,13.33c0,1.77.09,3.54,0,5.3s.73,2.23,2.3,2.07a3.1,3.1,0,0,0,3-3,35.15,35.15,0,0,0,0-9.39C14.65,5.8,13,6,11.31,6,9.15,5.87,9.7,7.45,9.66,8.62,9.61,10.19,9.65,11.76,9.65,13.33Z"/><path class="cls-7" d="M9.8,37.08C9.75,34,9.75,31,9.63,27.9c-.06-1.61.72-1.93,2.14-2,7.48-.61,9.36-2.62,9.7-10.11A38.32,38.32,0,0,0,21,6.6h9.45c.68,5.12.24,10.26.26,15.39s.35,10.08-.21,15.11Z"/><path class="cls-8" d="M175.47,6.58l13,0c.68,2.11.33,4.28.3,6.42-.11,8,.4,16-.25,24.07l-13.07,0Z"/><path class="cls-6" d="M118.42,6.59c0,3.05,0,6.12-.13,9.17-.12,2,.76,2.62,2.59,2.42.59-.06,1.19,0,1.78,0,2-.24,3,.32,3,2.7,0,2.18-.59,3.14-2.85,2.81-.77-.11-1.58,0-2.37,0-1.47-.1-2.15.43-2.1,2,.08,3.15.07,6.31,0,9.47,0,1.46.57,1.86,1.93,1.82,2.07,0,4.14.07,6.21.12-.25,5.31-.25,5.31-5.59,5.31h-3.25c-5.47,0-5.47,0-5.87-5.37V6.6a2.47,2.47,0,0,0,.06-.29c.34-5.89.34-5.89,6.2-5.89h4.74c3.06,0,4.36,2,3.27,4.81-.41,1.1-1.26.68-2,.79C122.18,6.31,120.2,5.4,118.42,6.59Z"/><path class="cls-6" d="M66.13,6.59c0,3.06,0,6.12-.13,9.18-.08,1.75.43,2.63,2.31,2.41.68-.08,1.39.07,2.07,0,2.43-.36,2.93.8,3,3s-.94,2.46-2.85,2.39C66,23.4,66,23.51,66,28c0,2.77-.91,6.16.36,8.13,1.43,2.22,5.13.29,7.77.94-.25,5.31-.25,5.31-5.59,5.31H65.31c-5.46,0-5.46,0-5.86-5.37V6.6a1.35,1.35,0,0,0,0-.29C59.84.42,59.84.42,65.7.42h4.74c3.06,0,4.36,2,3.28,4.81-.42,1.1-1.26.68-2,.79C69.89,6.31,67.9,5.4,66.13,6.59Z"/><path class="cls-9" d="M155.81,37V6.61l13,0q0,15.2,0,30.39Z"/><path class="cls-10" d="M111.74,6.6V37H97.59l4.26-30.51Z"/><path class="cls-10" d="M59.45,6.6V37H49c-.46-4.09.5-8.34-.78-12.28-1-3.09-1.87-5.56.05-8.85,1.51-2.61.35-6.16.42-9.29Z"/><path class="cls-11" d="M168.79,37q0-15.2,0-30.39c-.41-.87-1.23-.58-1.81-.48-2.63.45-3-.8-3-3.1.05-2,.43-2.78,2.59-2.68,3.73.18,7.48.19,11.21,0,2.58-.13,2.23,1.44,2.24,3s.29,3.06-2.13,2.77c-.78-.09-1.77-.49-2.44.42V37.06a18.38,18.38,0,0,0-.07,3c.27,2-.63,2.46-2.5,2.42-3.89-.1-3.89,0-4-3.95C168.91,38,168.84,37.51,168.79,37Z"/><path class="cls-8" d="M206.27,6.63c-.46,10.09-.94,20.19.33,30.27l-11.38.16q-.37-15.24,0-30.49Z"/><path class="cls-8" d="M223.91,36.92c1.17-10.1.9-20.22.25-30.33h11q.4,15.23,0,30.44Z"/><path class="cls-4" d="M195.22,6.57q-.37,15.24,0,30.49a8.91,8.91,0,0,0-.11,2c.44,2.72-.68,3.43-3.34,3.37-2.39,0-3.46-.59-3.06-3.1a9.83,9.83,0,0,0-.17-2.34c.65-8,.14-16,.25-24.07,0-2.14.38-4.31-.3-6.42A29.63,29.63,0,0,0,188.42,3C188.15.9,189,.33,191.07.39c4.88.16,3.92-.3,4,3.83C195.1,5,195.17,5.79,195.22,6.57Z"/><path class="cls-12" d="M3.1,6.53c.76,2.6.35,5.26.32,7.89C3.32,22,3.85,29.51,3.14,37,.74,37.4,0,36.5,0,34Q.27,21.83,0,9.67C0,7.17.71,6.26,3.1,6.53Z"/><path class="cls-7" d="M95.72,6.6l-2.43,23-.9,0L89.3,6.6Z"/><path class="cls-12" d="M37.13,37.06c-.06-3.84-.16-7.69-.13-11.54,0-1.1-.74-2.79,1.47-2.84,1.91,0,3.61.21,3.89,2.62a52.32,52.32,0,0,1,.06,11.8Z"/><path class="cls-13" d="M254.62,37.15q0-15.36,0-30.7c1.65-.07,2.15.73,2.14,2.35q-.09,13,0,26C256.76,36.4,256.3,37.25,254.62,37.15Z"/><path class="cls-14" d="M241.37,37V18.25c2.28,6,4.59,12.29,6.49,18.72Z"/><path class="cls-14" d="M142.31,37.09V18.61l.35-.12q3.12,9.18,6.25,18.36Z"/><path class="cls-12" d="M248.61,6.52V24.34c-2.09-6.18-4.06-12-6-17.74Z"/><path class="cls-14" d="M149.72,6.59c.24,5.87-.08,11.76,0,17.78l-6-17.7Z"/><path class="cls-14" d="M218.08,21.42c0,3.45,0,6.9,0,10.35a21.13,21.13,0,0,1-.48,3.79,2.19,2.19,0,0,1-2.34,1.85,2.33,2.33,0,0,1-2.38-1.85,21.82,21.82,0,0,1-.53-4.09c-.06-6.7,0-13.4,0-20.1a15.84,15.84,0,0,1,.14-2.06c.23-1.77.71-3.3,3-3.24S218,8,218,9.6c.11,3.94,0,7.88,0,11.82Z"/><path class="cls-14" d="M41.75,6.53c1.46,3,.88,6.14.4,9.2-.32,2.07-2.13,2-3.72,2-1.93,0-1.43-1.53-1.43-2.59,0-2.84.09-5.69.14-8.53Z"/><path class="cls-15" d="M41.75,6.53l-4.61.07C38.15,4.92,39.64,4.9,41.75,6.53Z"/><path class="cls-14" d="M9.65,13.33c0-1.57,0-3.14,0-4.71,0-1.17-.51-2.75,1.65-2.66C13,6,14.65,5.8,14.94,8.27a35.15,35.15,0,0,1,0,9.39,3.1,3.1,0,0,1-3,3c-1.57.16-2.42-.27-2.3-2.07S9.65,15.1,9.65,13.33Z"/></g></g></svg>