<svg xmlns="http://www.w3.org/2000/svg" viewBox="0 0 536.76 101"><defs><style>.cls-1{fill:#fdca42;}.cls-2{fill:#195ea2;}</style></defs><title>p5e1_1</title><g id="Layer_2" data-name="Layer 2"><g id="Layer_1-2" data-name="Layer 1"><rect class="cls-1" width="76" height="101"/><path class="cls-2" d="M76.43,57.71C73.83,69.18,65.11,78,48.74,78,28.5,78,18.86,63.7,18.86,46.11,18.86,29,29,13.68,49.41,13.68c17,0,25.39,9.89,27,20.31H62.69c-1.32-4.61-4.7-9.6-13.66-9.6-11.29,0-16,9.83-16,21.22,0,10.78,4.15,21.68,16.3,21.68,8.84,0,11.88-5.4,13.34-9.58Z"/><path class="cls-2" d="M130.62,53.65c0,14.11-8.7,24.47-23.93,24.47-15,0-23.49-10.57-23.49-24.27,0-14,8.77-24.5,24.09-24.5C121.85,29.35,130.62,39.67,130.62,53.65Zm-34.1.08c0,8.65,3.93,14.19,10.49,14.19s10.26-5.52,10.26-14.08c0-9.23-3.6-14.3-10.43-14.3C100.39,39.54,96.52,44.39,96.52,53.73Z"/><path class="cls-2" d="M139.68,43.09c0-4.58,0-8.7-.09-12.63h12.85c.18,1.17.35,5.87.35,8.43,2.18-5.5,7.3-9.54,15.56-9.53v12.4c-9.59-.22-15.56,2.71-15.56,15.55V77H139.68Z"/><path class="cls-2" d="M220.17,53.65c0,14.11-8.7,24.47-23.94,24.47-15,0-23.48-10.57-23.48-24.27,0-14,8.77-24.5,24.09-24.5C211.4,29.35,220.17,39.67,220.17,53.65Zm-34.1.08c0,8.65,3.93,14.19,10.49,14.19s10.25-5.52,10.25-14.08c0-9.23-3.59-14.3-10.42-14.3C189.94,39.54,186.07,44.39,186.07,53.73Z"/><path class="cls-2" d="M229.27,42.19c0-3.95,0-8.3-.09-11.73h12.73c.24,1.23.41,4.42.48,6,1.7-3,5.56-7.11,13.92-7.11,9.76,0,16,6.45,16,18.22V77H259.15V49.17c0-5.3-1.83-9.29-7.74-9.29s-9,3.47-9,11.76V77H229.27Z"/><path class="cls-2" d="M323.46,64.82A114,114,0,0,0,324,77H311.53a21.47,21.47,0,0,1-.63-4.73c-1.85,2.91-5.46,5.85-13.82,5.85-11.52,0-16.33-7.45-16.33-14.71,0-10.92,8.94-15.5,22.61-15.5h7.29v-2.6c0-3.43-1.28-6.69-7.5-6.69-5.69,0-6.93,2.37-7.53,5.61H283c.64-7.72,5.51-14.95,20.49-14.88,14,.06,20,5.85,20,16.25ZM310.66,56h-6.15c-7.76,0-10.7,2.29-10.7,6.67,0,3.34,2.17,6.13,7,6.13,8.25,0,9.87-5.36,9.87-11.65Z"/><path class="cls-2" d="M343.05,30.46c4.85,16.24,8.65,29.36,9.72,35h.11c1.38-7.25,5.67-20.26,10.39-35H376.4L359.38,77h-14L328.94,30.46Z"/><path class="cls-2" d="M382.94,11h13.12v11.5H382.94Zm0,19.42h13.12V77H382.94Z"/><path class="cls-2" d="M407.87,43.09c0-4.58,0-8.7-.09-12.63h12.86c.18,1.17.35,5.87.35,8.43,2.17-5.5,7.3-9.54,15.56-9.53v12.4C427,41.54,421,44.47,421,57.31V77H407.87Z"/><path class="cls-2" d="M486.59,63.47c0,4.49,0,9.33.08,13.53H473.83c-.18-1.25-.26-3.68-.34-5.43-2.66,4.49-6.67,6.55-13.41,6.55-9.5,0-15.9-5.71-15.9-17.71V30.46h13.11V57.88c0,5.37,1.74,9.65,7.48,9.65,6.2,0,8.71-3.39,8.71-13V30.46h13.11Z"/><path class="cls-2" d="M507.43,63c1,3.68,4.09,5.8,9.24,5.8s6.88-1.78,6.88-4.52c0-2.95-2-4.16-9.27-5.74C498.65,55,496.17,50,496.17,43.59c0-6.87,4.93-14.24,19.34-14.24s19.51,7.7,20,14.08H522.9c-.47-1.85-1.74-5-7.95-5-4.58,0-5.9,2-5.9,4,0,2.27,1.47,3.42,9.28,5.09,16.16,3.45,18.43,9,18.43,15.72,0,7.87-6,14.86-20.67,14.86-13.81,0-20.46-6.52-21.57-15.16Z"/></g></g></svg>