<svg xmlns="http://www.w3.org/2000/svg" viewBox="0 0 536.76 144.27"><defs><style>.cls-1{fill:#fdca42;}.cls-2{fill:#195ea2;}.cls-3{fill:#343130;}.cls-4{fill:#312f2f;}.cls-5{fill:#e77a55;}.cls-6{fill:#312f2e;}.cls-7{fill:#e87a55;}.cls-8{fill:#333030;}.cls-9{fill:#e37955;}.cls-10{fill:#e77954;}.cls-11{fill:#ea7b55;}.cls-12{fill:#e97a55;}.cls-13{fill:#323030;}.cls-14{fill:#d87554;}.cls-15{fill:#dc7c5e;}.cls-16{fill:#e17753;}.cls-17{fill:#cad9f8;}</style></defs><title>p5e1</title><g id="Layer_2" data-name="Layer 2"><g id="Layer_1-2" data-name="Layer 1"><rect class="cls-1" width="76" height="101"/><path class="cls-2" d="M76.43,57.71C73.83,69.18,65.11,78,48.74,78,28.5,78,18.86,63.7,18.86,46.11,18.86,29,29,13.68,49.41,13.68c17,0,25.39,9.89,27,20.31H62.69c-1.32-4.61-4.7-9.6-13.66-9.6-11.29,0-16,9.83-16,21.22,0,10.78,4.15,21.68,16.3,21.68,8.84,0,11.88-5.4,13.34-9.58Z"/><path class="cls-2" d="M130.62,53.65c0,14.11-8.7,24.47-23.93,24.47-15,0-23.49-10.57-23.49-24.27,0-14,8.77-24.5,24.09-24.5C121.85,29.35,130.62,39.67,130.62,53.65Zm-34.1.08c0,8.65,3.93,14.19,10.49,14.19s10.26-5.52,10.26-14.08c0-9.23-3.6-14.3-10.43-14.3C100.39,39.54,96.52,44.39,96.52,53.73Z"/><path class="cls-2" d="M139.68,43.09c0-4.58,0-8.7-.09-12.63h12.85c.18,1.17.35,5.87.35,8.43,2.18-5.5,7.3-9.54,15.56-9.53v12.4c-9.59-.22-15.56,2.71-15.56,15.55V77H139.68Z"/><path class="cls-2" d="M220.17,53.65c0,14.11-8.7,24.47-23.94,24.47-15,0-23.48-10.57-23.48-24.27,0-14,8.77-24.5,24.09-24.5C211.4,29.35,220.17,39.67,220.17,53.65Zm-34.1.08c0,8.65,3.93,14.19,10.49,14.19s10.25-5.52,10.25-14.08c0-9.23-3.59-14.3-10.42-14.3C189.94,39.54,186.07,44.39,186.07,53.73Z"/><path class="cls-2" d="M229.27,42.19c0-3.95,0-8.3-.09-11.73h12.73c.24,1.23.41,4.42.48,6,1.7-3,5.56-7.11,13.92-7.11,9.76,0,16,6.45,16,18.22V77H259.15V49.17c0-5.3-1.83-9.29-7.74-9.29s-9,3.47-9,11.76V77H229.27Z"/><path class="cls-2" d="M323.46,64.82A114,114,0,0,0,324,77H311.53a21.47,21.47,0,0,1-.63-4.73c-1.85,2.91-5.46,5.85-13.82,5.85-11.52,0-16.33-7.45-16.33-14.71,0-10.92,8.94-15.5,22.61-15.5h7.29v-2.6c0-3.43-1.28-6.69-7.5-6.69-5.69,0-6.93,2.37-7.53,5.61H283c.64-7.72,5.51-14.95,20.49-14.88,14,.06,20,5.85,20,16.25ZM310.66,56h-6.15c-7.76,0-10.7,2.29-10.7,6.67,0,3.34,2.17,6.13,7,6.13,8.25,0,9.87-5.36,9.87-11.65Z"/><path class="cls-2" d="M343.05,30.46c4.85,16.24,8.65,29.36,9.72,35h.11c1.38-7.25,5.67-20.26,10.39-35H376.4L359.38,77h-14L328.94,30.46Z"/><path class="cls-2" d="M382.94,11h13.12v11.5H382.94Zm0,19.42h13.12V77H382.94Z"/><path class="cls-2" d="M407.87,43.09c0-4.58,0-8.7-.09-12.63h12.86c.18,1.17.35,5.87.35,8.43,2.17-5.5,7.3-9.54,15.56-9.53v12.4C427,41.54,421,44.47,421,57.31V77H407.87Z"/><path class="cls-2" d="M486.59,63.47c0,4.49,0,9.33.08,13.53H473.83c-.18-1.25-.26-3.68-.34-5.43-2.66,4.49-6.67,6.55-13.41,6.55-9.5,0-15.9-5.71-15.9-17.71V30.46h13.11V57.88c0,5.37,1.74,9.65,7.48,9.65,6.2,0,8.71-3.39,8.71-13V30.46h13.11Z"/><path class="cls-2" d="M507.43,63c1,3.68,4.09,5.8,9.24,5.8s6.88-1.78,6.88-4.52c0-2.95-2-4.16-9.27-5.74C498.65,55,496.17,50,496.17,43.59c0-6.87,4.93-14.24,19.34-14.24s19.51,7.7,20,14.08H522.9c-.47-1.85-1.74-5-7.95-5-4.58,0-5.9,2-5.9,4,0,2.27,1.47,3.42,9.28,5.09,16.16,3.45,18.43,9,18.43,15.72,0,7.87-6,14.86-20.67,14.86-13.81,0-20.46-6.52-21.57-15.16Z"/><path class="cls-3" d="M276,107.93a18.3,18.3,0,0,0,.06-3.22c-.39-2.56.72-3.1,3.09-3,2.07.07,3.15.42,2.83,2.76a21.77,21.77,0,0,0,.1,3.51q0,15.21,0,30.41a13.79,13.79,0,0,1-.17,2.34c-.26,1.06.95,2.83-1.23,3-1.8.14-3.82.58-4.23-2.23a15.58,15.58,0,0,0-1.28-3.28l-6.24-18.36-.35.12v18.49a11.6,11.6,0,0,0-.1,2c.28,2.3-.14,3.51-3,3.38-2.46-.1-3.34-.75-3-3.15a12.14,12.14,0,0,0-.11-2.32V107.93a17.57,17.57,0,0,1,.16-2.91c.25-1.13-1-3,1.28-3.21,2-.16,4.19-.67,4.67,2.41a18.78,18.78,0,0,0,1.47,3.79q3,8.85,6,17.7C275.89,119.69,276.21,113.8,276,107.93Z"/><path class="cls-4" d="M367.62,138.37c-.05.58-.12,1.17-.13,1.75-.06,3.43-1.73,4.58-5.05,3.61-1-.28-.87-.89-.9-1.54-.05-1.27-.09-2.54-.14-3.8.25-10.15.27-20.3,0-30.45a19,19,0,0,1,.17-2.93c.25-1.13-1-3,1.29-3.2,1.9-.15,4-.52,4.55,2.3a24,24,0,0,0,1.43,3.83c2,5.78,3.93,11.57,6,17.74V107.86a28,28,0,0,0,.14-3.54c-.15-1.85.38-2.54,2.42-2.64,2.76-.14,3.77.75,3.36,3.45a14,14,0,0,0,.08,2.66q0,15.34,0,30.7a13,13,0,0,1-.14,2.35c-.25,1,1,2.8-1.33,2.88-1.74.06-3.57.39-4-2.14a17.22,17.22,0,0,0-1.26-3.27c-1.89-6.43-4.2-12.7-6.48-18.71Z"/><path class="cls-3" d="M350.16,138.26c-1.58,4-4.35,6.07-8.81,6s-7-2.13-8.5-6c-1.27-10.08-.79-20.17-.33-30.27,1.39-3.63,3.53-6.31,7.8-6.58,5.6-.34,7.66,1,10.08,6.54C351.06,118.05,351.33,128.16,350.16,138.26Zm-5.83-15.49h0c0-4,.08-7.89,0-11.83,0-1.63-.2-3.46-2.61-3.53s-2.76,1.47-3,3.25a15.72,15.72,0,0,0-.14,2.06c0,6.7,0,13.4,0,20.09a21.73,21.73,0,0,0,.54,4.09,2.34,2.34,0,0,0,2.38,1.86,2.18,2.18,0,0,0,2.33-1.86,21,21,0,0,0,.49-3.79C344.37,129.66,344.33,126.21,344.33,122.77Z"/><path class="cls-5" d="M214.05,138.28l-13.65.14c-2.63-.65-6.33,1.28-7.76-.94-1.27-2-.35-5.36-.36-8.12,0-4.51,0-4.62,4.45-4.45,1.91.08,2.86-.08,2.85-2.39s-.52-3.38-3-3c-.68.1-1.39,0-2.08,0-1.87.21-2.38-.67-2.3-2.42.14-3.06.09-6.12.13-9.18l17,0Q211.69,123.1,214.05,138.28Z"/><path class="cls-6" d="M156.71,108c0-.1.06-.19.07-.29.5-5.87.5-5.87,6.64-5.87,1,0,2,0,3,0,5.63.06,6.82.91,8.59,6.15-.07,3.13,1.08,6.68-.43,9.29-1.91,3.29-1,5.77,0,8.85,1.28,3.94.32,8.19.77,12.28a7.86,7.86,0,0,0-.11,2c.62,3-.77,3.46-3.45,3.44-2.45,0-3.08-.92-2.92-3.06a16.79,16.79,0,0,0-.14-2.34,51.74,51.74,0,0,0,0-11.8c-.28-2.41-2-2.66-3.89-2.61-2.21,0-1.47,1.74-1.47,2.83,0,3.85.07,7.7.12,11.55a9.36,9.36,0,0,0-.09,2c.43,2.67-.61,3.44-3.3,3.38-2.37-.06-3.46-.55-3.07-3.06a10.75,10.75,0,0,0-.16-2.32c.56-5,.24-10.08.22-15.12S157.38,113.06,156.71,108Zm6.68,0c0,2.84-.15,5.68-.14,8.52,0,1.07-.5,2.57,1.42,2.6,1.6,0,3.41.07,3.73-2,.48-3.07,1.06-6.2-.4-9.21C165.88,106.24,164.39,106.26,163.39,108Z"/><path class="cls-7" d="M262.36,107.93v30.45l-9.66,0c-2.07,0-4.14-.16-6.21-.11-1.36,0-2-.37-1.94-1.83.08-3.15.09-6.31,0-9.47,0-1.59.64-2.12,2.11-2,.79.06,1.6-.09,2.37,0,2.25.33,2.8-.63,2.85-2.81.05-2.38-.92-2.94-3-2.7-.59.07-1.19,0-1.78,0-1.83.19-2.72-.37-2.59-2.43.18-3,.1-6.11.13-9.17Z"/><path class="cls-8" d="M214.05,138.28q-2.37-15.19-4.72-30.38c-.11-.77-.22-1.55-.32-2.32-.56-4-.56-3.94,3.51-3.85,1.59,0,2.31.5,2.37,2.16a31.34,31.34,0,0,0,.66,4L218.64,131l.9,0,2.43-23c.23-1.45.56-2.89.66-4.35s.71-1.79,2.05-1.86c4.13-.23,4.29-.09,3.66,4.09-.11.68-.16,1.36-.24,2q-2.13,15.26-4.27,30.52c-.1.38-.22.75-.3,1.14-.88,4.21-.89,4-5.25,4.27-2.53.13-3.83-.55-3.85-3.19A14.38,14.38,0,0,0,214.05,138.28Z"/><path class="cls-4" d="M136.05,138.42a9.49,9.49,0,0,0-.1,2.05c.45,2.73-.71,3.39-3.34,3.36-2.43,0-3.42-.64-3-3.11a10.31,10.31,0,0,0-.18-2.33c.71-7.54.18-15.09.27-22.63,0-2.63.44-5.29-.32-7.89-.19-6.07-.19-6.07,5.9-6.08,1.19,0,2.37-.05,3.56,0,5.15.17,6.7,1.3,8.46,6.17a38.41,38.41,0,0,1,.46,9.15c-.34,7.48-2.22,9.49-9.7,10.11-1.43.12-2.2.44-2.14,2C136,132.3,136,135.36,136.05,138.42Zm-.15-23.75c0,1.77.09,3.55,0,5.31s.74,2.22,2.31,2.07a3.11,3.11,0,0,0,3-3,35.07,35.07,0,0,0,0-9.38c-.29-2.47-2-2.24-3.63-2.32-2.16-.09-1.61,1.5-1.65,2.66C135.85,111.53,135.9,113.1,135.9,114.67Z"/><path class="cls-9" d="M136.05,138.42c-.05-3.06-.05-6.12-.17-9.17-.06-1.61.71-1.93,2.14-2,7.48-.62,9.36-2.63,9.7-10.11a38.41,38.41,0,0,0-.46-9.15h9.45c.67,5.11.24,10.26.26,15.38s.34,10.09-.22,15.12Z"/><path class="cls-10" d="M301.72,107.92l13,0c.68,2.11.33,4.28.3,6.42-.11,8,.4,16.06-.25,24.08l-13.07,0Z"/><path class="cls-8" d="M244.67,107.93c0,3.06.05,6.12-.13,9.17-.13,2.06.76,2.62,2.59,2.43.59-.07,1.19,0,1.78,0,2.05-.24,3,.32,3,2.7,0,2.18-.6,3.14-2.85,2.81-.77-.11-1.58,0-2.37,0-1.47-.1-2.15.43-2.11,2,.09,3.16.08,6.32,0,9.47,0,1.46.58,1.86,1.94,1.83,2.07-.05,4.14.06,6.21.11-.25,5.32-.25,5.32-5.59,5.32h-3.26c-5.46,0-5.46,0-5.86-5.38V108a1.6,1.6,0,0,0,0-.29c.34-5.9.34-5.9,6.21-5.9H249c3.06,0,4.35,2,3.27,4.81-.41,1.09-1.26.67-2,.79C248.43,107.65,246.44,106.74,244.67,107.93Z"/><path class="cls-8" d="M192.38,107.93c0,3.06,0,6.12-.13,9.18-.08,1.75.43,2.63,2.3,2.42.69-.08,1.4.06,2.08,0,2.43-.35,2.93.8,3,3s-.94,2.47-2.85,2.39c-4.45-.17-4.46-.06-4.45,4.45,0,2.76-.91,6.15.36,8.12,1.43,2.22,5.13.29,7.76.94-.25,5.32-.25,5.32-5.58,5.32h-3.26c-5.46,0-5.46,0-5.87-5.38q0-15.2,0-30.41c0-.1,0-.2.05-.29.34-5.9.34-5.9,6.2-5.9h4.74c3.06,0,4.36,2,3.28,4.81-.42,1.09-1.26.67-2,.79C196.14,107.65,194.15,106.74,192.38,107.93Z"/><path class="cls-11" d="M282.06,138.36q0-15.21,0-30.41l13,0q0,15.18,0,30.38Z"/><path class="cls-12" d="M238,108v30.41l-14.16,0q2.14-15.27,4.27-30.52Z"/><path class="cls-12" d="M185.7,108q0,15.21,0,30.41H175.28c-.45-4.09.51-8.34-.77-12.28-1-3.08-1.87-5.56,0-8.85,1.51-2.61.36-6.16.43-9.29Z"/><path class="cls-13" d="M295,138.36q0-15.2,0-30.38c-.4-.87-1.23-.59-1.8-.49-2.63.46-3-.8-3-3.1.05-2,.43-2.78,2.59-2.67,3.73.17,7.48.18,11.21,0,2.58-.13,2.23,1.44,2.24,3s.29,3.06-2.14,2.77c-.77-.1-1.76-.49-2.43.41v30.49a18.23,18.23,0,0,0-.07,3c.27,2-.63,2.46-2.5,2.42-3.89-.09-3.89,0-4-3.94C295.16,139.34,295.08,138.85,295,138.36Z"/><path class="cls-10" d="M332.52,108c-.46,10.1-.94,20.19.33,30.27l-11.39.17q-.36-15.25,0-30.5Z"/><path class="cls-10" d="M350.16,138.26c1.17-10.1.9-20.21.24-30.33h11c.27,10.15.25,20.3,0,30.45Z"/><path class="cls-6" d="M321.46,107.91q-.36,15.25,0,30.5a9.46,9.46,0,0,0-.1,2.05c.44,2.71-.68,3.42-3.34,3.37-2.39-.06-3.46-.6-3.06-3.11a10.29,10.29,0,0,0-.17-2.33c.65-8,.14-16.06.25-24.08,0-2.14.38-4.31-.3-6.42a29.63,29.63,0,0,0-.07-3.53c-.27-2.11.62-2.69,2.64-2.63,4.89.16,3.93-.29,4,3.83C321.35,106.35,321.42,107.13,321.46,107.91Z"/><path class="cls-14" d="M129.34,107.87c.76,2.6.36,5.26.32,7.89-.09,7.54.44,15.09-.27,22.63-2.4.35-3.19-.55-3.13-3.07q.26-12.15,0-24.3C126.19,108.51,127,107.6,129.34,107.87Z"/><path class="cls-9" d="M222,107.94l-2.43,23-.9,0-3.09-23.05Z"/><path class="cls-14" d="M163.37,138.41c-.05-3.85-.15-7.7-.12-11.55,0-1.09-.74-2.79,1.47-2.83,1.91,0,3.61.2,3.89,2.61a51.74,51.74,0,0,1,0,11.8Z"/><path class="cls-15" d="M380.87,138.49q0-15.35,0-30.7c1.65-.07,2.15.73,2.14,2.35q-.11,13,0,26C383,137.74,382.55,138.59,380.87,138.49Z"/><path class="cls-16" d="M367.62,138.37V119.6c2.28,6,4.59,12.28,6.48,18.71Z"/><path class="cls-16" d="M268.56,138.44V120l.35-.12,6.24,18.36Z"/><path class="cls-14" d="M374.86,107.86v17.82c-2.09-6.17-4.06-12-6-17.74Z"/><path class="cls-16" d="M276,107.93c.24,5.87-.08,11.76,0,17.78q-3-8.85-6-17.7Z"/><path class="cls-16" d="M344.33,122.77c0,3.44,0,6.89,0,10.34a21,21,0,0,1-.49,3.79,2.18,2.18,0,0,1-2.33,1.86,2.34,2.34,0,0,1-2.38-1.86,21.73,21.73,0,0,1-.54-4.09c-.05-6.69,0-13.39,0-20.09a15.72,15.72,0,0,1,.14-2.06c.22-1.78.71-3.31,3-3.25s2.56,1.9,2.61,3.53c.11,3.94,0,7.88,0,11.83Z"/><path class="cls-16" d="M168,107.87c1.46,3,.88,6.14.4,9.21-.32,2.06-2.13,2-3.73,2-1.92,0-1.42-1.53-1.42-2.6,0-2.84.09-5.68.14-8.53Z"/><path class="cls-17" d="M168,107.87l-4.61.07C164.39,106.26,165.88,106.24,168,107.87Z"/><path class="cls-16" d="M135.9,114.67c0-1.57-.05-3.14,0-4.71,0-1.16-.51-2.75,1.65-2.66,1.67.08,3.34-.15,3.63,2.32a35.07,35.07,0,0,1,0,9.38,3.11,3.11,0,0,1-3,3c-1.57.15-2.43-.28-2.31-2.07S135.9,116.44,135.9,114.67Z"/></g></g></svg>