<svg xmlns="http://www.w3.org/2000/svg" viewBox="0 0 354.87 318.13"><defs><style>.cls-1{fill:#fefefe;}.cls-2{fill:#0995b4;}.cls-3{fill:#001021;}.cls-4{fill:#fbcaaf;}.cls-5{fill:#9adaf4;}.cls-6{fill:#f3803e;}.cls-7{fill:#2e3571;}</style></defs><title>p5e2</title><g id="Layer_2" data-name="Layer 2"><g id="Layer_1-2" data-name="Layer 1"><path class="cls-1" d="M8,304.63A33.81,33.81,0,0,1,.78,289.31a35,35,0,0,1,7.1-29.74,34.62,34.62,0,0,1,22.89-13.21,35.26,35.26,0,0,1,27.9,7.37,35,35,0,0,1,13,21.72,36.33,36.33,0,0,1-3.93,24.29c-.79,1.49-1.5,3.09-3,4.09a3.77,3.77,0,0,0-1.68-3.2,6.08,6.08,0,0,1-2.52-3.91c-.55-3.7-2.92-4.21-6-4.69-.6-.1-1.48.49-1.77-.49a1.9,1.9,0,0,1,.83-2.15,5.88,5.88,0,0,0,2.13-3,7.67,7.67,0,0,1,1.61-3.08c.69-.77,1.25-2.07.62-2.93-1.13-1.53-1-3.29-1.36-4.94-1-4-4.27-6.93-7.69-6.8-4.8.17-7.2,2.05-8.4,6.76-.44,1.72-.16,3.56-1.23,5.24a2.49,2.49,0,0,0,.9,3.1,3.66,3.66,0,0,1,1.39,2.21,6.15,6.15,0,0,0,2.47,3.79c.73.46.32,1.28.29,1.92s-.69.41-1.07.4a14,14,0,0,0-3.79.81c-1.33-3.17-3.47-5.06-7.15-4.69-.55.05-1.44.41-1.68-.36a2.07,2.07,0,0,1,.58-2.42,7.52,7.52,0,0,0,2.38-3.11c.49-1.37.8-2.78,1.94-3.86a3.15,3.15,0,0,0,.65-3.56c-1-1.85-.44-3.71-.66-5.55-.37-3-1.31-5.6-4.06-7.21-2-1.17-4.17-1.17-6.39-1.15-4.79.05-7.88,2.83-8.78,7.57-.35,1.83.12,3.72-.53,5.43-.87,2.32-.71,3.83,1.19,5.31a2.08,2.08,0,0,1,.89,1.32,6.83,6.83,0,0,0,2.64,4.6,2.21,2.21,0,0,1,.78,2.55c-.32.92-1.32.43-2,.44-3.73.05-5.39,1.38-6.4,5-.35,1.24-.65,2.65-1.73,3.47A8.23,8.23,0,0,0,8,304.63Z"/><path class="cls-2" d="M8,304.63a8.23,8.23,0,0,1,3.26-8c1.08-.82,1.38-2.23,1.73-3.47,1-3.62,2.67-4.95,6.4-5,.68,0,1.68.48,2-.44a2.21,2.21,0,0,0-.78-2.55,6.83,6.83,0,0,1-2.64-4.6,2.08,2.08,0,0,0-.89-1.32c-1.9-1.48-2.06-3-1.19-5.31.65-1.71.18-3.6.53-5.43.9-4.74,4-7.52,8.78-7.57,2.22,0,4.4,0,6.39,1.15,2.75,1.61,3.69,4.25,4.06,7.21.22,1.84-.35,3.7.66,5.55a3.15,3.15,0,0,1-.65,3.56c-1.14,1.08-1.45,2.49-1.94,3.86a7.52,7.52,0,0,1-2.38,3.11,2.07,2.07,0,0,0-.58,2.42c.24.77,1.13.41,1.68.36,3.68-.37,5.82,1.52,7.15,4.69a5.53,5.53,0,0,0,2.21,4.46,5.78,5.78,0,0,1,2.38,5.43,9.3,9.3,0,0,0,2.23,7.41,7.45,7.45,0,0,1,2,5.95c-4,1.67-8.29,2-12.63,2a33.59,33.59,0,0,1-16.21-3.91A32.11,32.11,0,0,1,8,304.63Z"/><path class="cls-3" d="M48.39,316.09a7.45,7.45,0,0,0-2-5.95,9.3,9.3,0,0,1-2.23-7.41,5.78,5.78,0,0,0-2.38-5.43,5.53,5.53,0,0,1-2.21-4.46,14,14,0,0,1,3.79-.81c.38,0,1,.26,1.07-.4s.44-1.46-.29-1.92a6.15,6.15,0,0,1-2.47-3.79,3.66,3.66,0,0,0-1.39-2.21,2.49,2.49,0,0,1-.9-3.1c1.07-1.68.79-3.52,1.23-5.24,1.2-4.71,3.6-6.59,8.4-6.76,3.42-.13,6.72,2.8,7.69,6.8.39,1.65.23,3.41,1.36,4.94.63.86.07,2.16-.62,2.93a7.67,7.67,0,0,0-1.61,3.08,5.88,5.88,0,0,1-2.13,3,1.9,1.9,0,0,0-.83,2.15c.29,1,1.17.39,1.77.49,3,.48,5.4,1,6,4.69a6.08,6.08,0,0,0,2.52,3.91,3.77,3.77,0,0,1,1.68,3.2,21.09,21.09,0,0,1-6.06,6.55A33.4,33.4,0,0,1,48.39,316.09Z"/><path class="cls-4" d="M49,4.3a2.34,2.34,0,0,0,.38-.66C49.91.37,52-.11,54.94,0c5.7.25,11.43.07,17.48.07L62.86,13.86Q58,20.67,53.19,27.48c-2.37,3.31-5.06,6.29-5.31,10.82s-3.16,7.78-6.11,10.91c.26-2.11,0-4.1-1.71-5.56a15.5,15.5,0,0,0-5.12-2.88c-2.23-.77-4.52-1.46-5.59-3.84-3.18,7.46-6.85,14.72-4.51,23.44A5.91,5.91,0,0,0,26,56.83,50.7,50.7,0,0,0,25.66,50c-.34-2.2.61-3.11,2.7-3.17a8.76,8.76,0,0,1,6.83,2.82,4.66,4.66,0,0,0,4,1.83c-3.27,3.81-6.52,7.62-7.83,12.67-.51,2-.64,4-1.05,6-.15.7-.31,1.2-1.11,1.31s-1.28-.36-1.54-1.09a9.67,9.67,0,0,1-.3-4.89c.37-2.53,1.07-5,1.66-7.47a29.1,29.1,0,0,0-4.82,14.62c-.2.79.37,2-.92,2.22S21.57,74,21.14,73c-.21-.46-.29-1-.47-1.45a1.47,1.47,0,0,0-1.54-.88c-.9,0-.67.72-.74,1.26-.13,1.07-.24,2.14-.43,3.2a1.79,1.79,0,0,1-1.11,1.43c-.76.33-1.05-.3-1.41-.67-1.15-1.22-2.78-1.94-3.53-3.57-.5-1.06-1.41.27-2-.24-.76-.63-1.07-.31-1.49.44-.8,1.44-1.65.66-2.35-.15-1.74-2-1.94-4.58-2.14-7-.31-3.77-.76-7.75.12-11.32.77-3.13,1.41-6.47,3-9.41a3.42,3.42,0,0,0,.42-1.38,15.34,15.34,0,0,0-2.9,6.21,23,23,0,0,1-1.39,4c-.37.79-.78,1.5-1.8,1.42S.19,53.75.12,53.05a22.61,22.61,0,0,1,1-7.7c.2-.8.33-1.61.49-2.42A64.22,64.22,0,0,1,8.86,29.57c2.48-2.68,4.67-5.65,7.67-7.83a2.06,2.06,0,0,0,.75-1.86c-.07-4.56.62-9.09.37-13.66-.09-1.69.26-3.4.34-5.1,0-.88.49-1,1.22-1H32.58c1.67,0,1.08,1.15,1,2-1.36,5.76-2.74,11.52-4.06,17.29-.49,2.11-1.45,4.27,0,6.39.33,1.7.25,3.47.93,5.26l4.69-2.26a5.05,5.05,0,0,0,4.52-3.41c1.26-3.06,2.91-5.95,4.22-9C45.68,12.39,47.67,8.48,49,4.3ZM8.11,61.45a27.93,27.93,0,0,0,.57,7.34,17,17,0,0,1,.72-4.25,2.74,2.74,0,0,0-.28-2.34,50.11,50.11,0,0,1,.61-8A17.14,17.14,0,0,0,8.11,61.45Zm6.59.7a5.25,5.25,0,0,0,.09,4.8C15.06,65.28,15.83,63.72,14.7,62.15Zm5.92,4.46c.23-1.41,1-2.52.49-4.27C20.47,63.93,19.4,65,20.62,66.61Z"/><path class="cls-1" d="M41.77,49.21c2.95-3.13,5.87-6.49,6.11-10.91s2.94-7.51,5.31-10.82q4.85-6.8,9.67-13.62a33.36,33.36,0,0,1,8.35,15.32c2.69,11,.82,21.33-5.81,30.51A35.2,35.2,0,0,1,41.81,74.06a33.91,33.91,0,0,1-16.68-1.37,4.24,4.24,0,0,0-.94-.11A29.1,29.1,0,0,1,29,58c-.59,2.48-1.29,4.94-1.66,7.47a9.67,9.67,0,0,0,.3,4.89c.26.73.67,1.2,1.54,1.09s1-.61,1.11-1.31c.41-2,.54-4,1.05-6,1.31-5,4.56-8.86,7.83-12.67A3.45,3.45,0,0,0,41.77,49.21Z"/><path class="cls-1" d="M29.59,25.8c-1.49-2.12-.53-4.28,0-6.39,1.32-5.77,2.7-11.53,4.06-17.29C38.91,1.7,44,2.78,49,4.3,47.67,8.48,45.68,12.39,44,16.41c-1.31,3-3,5.92-4.22,9a5.05,5.05,0,0,1-4.52,3.41A7.93,7.93,0,0,0,36,24.73a2.91,2.91,0,0,0-2.16-2.64c-1.22-.34-2,.41-2.65,1.38C30.64,24.24,30.49,25.29,29.59,25.8Z"/><path class="cls-1" d="M8.86,29.57A64.22,64.22,0,0,0,1.61,42.93l-1.13,1C-.31,33.06,1.63,23.65,5.59,19.64Z"/><path class="cls-5" d="M41.77,49.21a3.45,3.45,0,0,1-2.59,2.25,4.66,4.66,0,0,1-4-1.83,8.76,8.76,0,0,0-6.83-2.82c-2.09.06-3,1-2.7,3.17A50.7,50.7,0,0,1,26,56.83a5.91,5.91,0,0,1-1.16,3.54c-2.34-8.72,1.33-16,4.51-23.44,1.07,2.38,3.36,3.07,5.59,3.84a15.5,15.5,0,0,1,5.12,2.88C41.73,45.11,42,47.1,41.77,49.21Z"/><path class="cls-5" d="M29.59,25.8c.9-.51,1.05-1.56,1.6-2.33.69-1,1.43-1.72,2.65-1.38A2.91,2.91,0,0,1,36,24.73a7.93,7.93,0,0,1-.79,4.07l-4.69,2.26C29.84,29.27,29.92,27.5,29.59,25.8Z"/><path class="cls-5" d="M9.12,62.2a2.74,2.74,0,0,1,.28,2.34,17,17,0,0,0-.72,4.25,27.93,27.93,0,0,1-.57-7.34Z"/><path class="cls-1" d="M9.12,62.2l-1-.75a17.14,17.14,0,0,1,1.62-7.27A50.11,50.11,0,0,0,9.12,62.2Z"/><path class="cls-1" d="M14.7,62.15c1.13,1.57.36,3.13.09,4.8A5.25,5.25,0,0,1,14.7,62.15Z"/><path class="cls-1" d="M20.62,66.61c-1.22-1.6-.15-2.68.49-4.27C21.66,64.09,20.85,65.2,20.62,66.61Z"/><path class="cls-1" d="M17.56,200.7A35.93,35.93,0,0,1,.32,173.61a35,35,0,0,1,6.05-24.37A34.61,34.61,0,0,1,30.74,134a34.93,34.93,0,0,1,27.78,7.16A35.08,35.08,0,0,1,72.11,166a35.68,35.68,0,0,1-7.43,26,32.4,32.4,0,0,1-12.11,9.86c0-.44-.06-.89-.06-1.33,0-7.83,0-15.66,0-23.48,0-3.55-1.94-5.47-5.44-5.48-1.15,0-2.29,0-3.44-.06q2.49-6.09,5-12.16,2.84-6.87,5.7-13.73a1.53,1.53,0,0,0-.64-2.19,19.35,19.35,0,0,1-4.1-3.07c-3-3.48-6.14-3.3-9.67-.83-1.44,1-3.39,2.4-4.74,2.08s-2.6-2.43-3.78-3.84c-.6-.71-1-.67-1.76-.24-3.57,2.07-7.17,4.11-10.81,6-1,.52-1.07,1-.72,1.91q5.18,13,10.33,26l-5.35.06c-3.62,0-5.44,1.83-5.44,5.44Q17.6,188.85,17.56,200.7Z"/><path class="cls-6" d="M17.56,200.7q0-11.85.07-23.7c0-3.61,1.82-5.43,5.44-5.44l5.35-.06h15.2c1.15,0,2.29.05,3.44.06,3.5,0,5.44,1.93,5.44,5.48,0,7.82,0,15.65,0,23.48,0,.44,0,.89.06,1.33-.82,3.2-1.65,4.55-6.44,4.59-7.51.06-15,0-22.52,0C19.51,206.45,17.78,204.81,17.56,200.7Z"/><path class="cls-5" d="M43.62,171.5H28.42q-5.16-13-10.33-26c-.35-.88-.26-1.39.72-1.91,3.64-1.93,7.24-4,10.81-6,.75-.43,1.16-.47,1.76.24,1.18,1.41,2.29,3.5,3.78,3.84s3.3-1.08,4.74-2.08c3.53-2.47,6.63-2.65,9.67.83a19.35,19.35,0,0,0,4.1,3.07,1.53,1.53,0,0,1,.64,2.19q-2.88,6.85-5.7,13.73Q46.11,165.41,43.62,171.5Z"/><path class="cls-7" d="M99.78,30.24,95.45,12.71h3.08L100.34,21c.45,2.16.88,4.37,1.18,6.09h.06c.29-1.8.79-3.9,1.32-6.12l2-8.23h3l1.87,8.34c.44,2.08.85,4.07,1.11,5.95H111c.32-1.93.76-3.91,1.25-6.06l2-8.23h2.95L112.4,30.24h-3.07l-1.94-8.54a52.73,52.73,0,0,1-1-5.61h0a54.07,54.07,0,0,1-1.22,5.61l-2.19,8.54Z"/><path class="cls-7" d="M125.34,30.24l-.21-1.47h-.07a4.68,4.68,0,0,1-3.77,1.76,3.7,3.7,0,0,1-3.94-3.72c0-3.14,2.79-4.78,7.52-4.76v-.22c0-.9-.31-2.45-2.67-2.44a6.54,6.54,0,0,0-3.36.94l-.59-1.89a8.7,8.7,0,0,1,4.44-1.12c4,0,5.07,2.58,5.07,5.28v4.6a19.17,19.17,0,0,0,.2,3Zm-.4-6.27c-2.33,0-4.71.43-4.71,2.52a1.8,1.8,0,0,0,1.93,1.94,2.78,2.78,0,0,0,2.69-1.87,2.4,2.4,0,0,0,.09-.7Z"/><path class="cls-7" d="M131,27.5a6.81,6.81,0,0,0,3.16.91c1.49,0,2.17-.66,2.17-1.57s-.57-1.42-2.16-2c-2.41-.84-3.46-2.16-3.45-3.66,0-2.16,1.78-3.87,4.65-3.87a6.94,6.94,0,0,1,3.27.76l-.61,2.06a5.53,5.53,0,0,0-2.65-.73c-1.21,0-1.87.63-1.87,1.46s.65,1.3,2.27,1.9c2.25.81,3.34,2,3.35,3.83,0,2.28-1.78,3.91-5,3.91a7.87,7.87,0,0,1-3.75-.88Z"/><path class="cls-7" d="M141.91,11.78h2.89v7.63h0a4.55,4.55,0,0,1,1.61-1.5,4.5,4.5,0,0,1,2.24-.59c2,0,4.41,1.3,4.41,5.45v7.47h-2.89V23.09c0-1.9-.7-3.4-2.59-3.4a2.88,2.88,0,0,0-2.83,3v7.58h-2.89Z"/><path class="cls-7" d="M163.67,17.61l2.43,7c.27.8.55,1.77.75,2.49h.07c.21-.72.46-1.68.71-2.53l2.15-7h3.09l-3.26,8.74c-1.7,4.59-2.86,6.73-4.37,8.06A6.64,6.64,0,0,1,162.06,36l-.67-2.44a5.81,5.81,0,0,0,1.9-.95,6.12,6.12,0,0,0,1.81-2.2,1.24,1.24,0,0,0,.19-.56,1.5,1.5,0,0,0-.16-.61l-4.65-11.61Z"/><path class="cls-7" d="M186.3,23.8c0,4.65-3.26,6.73-6.42,6.73-3.52,0-6.24-2.48-6.24-6.51s2.74-6.7,6.45-6.7S186.3,20,186.3,23.8Zm-9.69.14c0,2.54,1.34,4.46,3.37,4.46s3.34-1.86,3.34-4.51c0-2-.94-4.44-3.32-4.44S176.61,21.74,176.61,23.94Z"/><path class="cls-7" d="M200.07,26.56c0,1.45.05,2.66.11,3.68h-2.54l-.15-2h-.07a4.62,4.62,0,0,1-4.09,2.25c-2.19,0-4.38-1.3-4.38-5.52v-7.4h2.9v6.91c0,2.19.69,3.64,2.51,3.64A2.88,2.88,0,0,0,197,26.32a3.07,3.07,0,0,0,.19-1.05V17.61h2.89Z"/><path class="cls-7" d="M209.09,11.78H212v7.63h0a4.39,4.39,0,0,1,1.61-1.5,4.48,4.48,0,0,1,2.24-.59c2,0,4.41,1.3,4.41,5.45v7.47h-2.9V23.09c0-1.9-.7-3.4-2.59-3.4a2.85,2.85,0,0,0-2.82,3v7.58h-2.9Z"/><path class="cls-7" d="M230.88,30.24l-.22-1.47h-.07a4.66,4.66,0,0,1-3.77,1.76,3.7,3.7,0,0,1-3.94-3.72c0-3.14,2.8-4.78,7.52-4.76v-.22c0-.9-.31-2.45-2.66-2.44a6.55,6.55,0,0,0-3.37.94l-.59-1.89a8.7,8.7,0,0,1,4.44-1.12c4,0,5.08,2.58,5.08,5.28v4.6a19.28,19.28,0,0,0,.19,3ZM230.47,24c-2.33,0-4.71.43-4.71,2.52a1.8,1.8,0,0,0,1.93,1.94,2.78,2.78,0,0,0,2.69-1.87,2.4,2.4,0,0,0,.09-.7Z"/><path class="cls-7" d="M236.78,21.25c0-1.41-.05-2.56-.11-3.64h2.55l.14,1.95h.07a4.63,4.63,0,0,1,4.08-2.24c2.05,0,4.48,1.3,4.48,5.41v7.51h-2.9V23.06c0-1.89-.7-3.38-2.58-3.38a2.86,2.86,0,0,0-2.68,2,3.15,3.15,0,0,0-.15,1v7.49h-2.9Z"/><path class="cls-7" d="M262.89,11.78v15c0,1.24,0,2.59.1,3.45h-2.58l-.13-2.06h-.06a4.56,4.56,0,0,1-4.16,2.35c-3,0-5.41-2.58-5.41-6.45,0-4.23,2.61-6.76,5.66-6.76a4.06,4.06,0,0,1,3.63,1.74H260V11.78Zm-2.89,11a5.24,5.24,0,0,0-.08-.88A3,3,0,0,0,257,19.57c-2.16,0-3.4,1.91-3.4,4.39s1.19,4.24,3.36,4.24a3,3,0,0,0,2.95-2.43,3.59,3.59,0,0,0,.11-.95Z"/><path class="cls-7" d="M266.23,27.5a6.81,6.81,0,0,0,3.17.91c1.49,0,2.17-.66,2.17-1.57s-.57-1.42-2.16-2C267,24,266,22.69,266,21.19c0-2.16,1.78-3.87,4.65-3.87a6.94,6.94,0,0,1,3.27.76l-.61,2.06a5.53,5.53,0,0,0-2.65-.73c-1.21,0-1.87.63-1.87,1.46s.65,1.3,2.26,1.9c2.26.81,3.35,2,3.36,3.83,0,2.28-1.78,3.91-5,3.91a7.87,7.87,0,0,1-3.75-.88Z"/><path class="cls-7" d="M289.61,30.24l-.21-1.47h-.08a4.66,4.66,0,0,1-3.77,1.76,3.7,3.7,0,0,1-3.94-3.72c0-3.14,2.8-4.78,7.53-4.76v-.22c0-.9-.32-2.45-2.67-2.44a6.51,6.51,0,0,0-3.36.94l-.6-1.89A8.77,8.77,0,0,1,287,17.32c4,0,5.07,2.58,5.07,5.28v4.6a19.28,19.28,0,0,0,.19,3Zm-.4-6.27c-2.33,0-4.71.43-4.71,2.52a1.79,1.79,0,0,0,1.92,1.94,2.77,2.77,0,0,0,2.69-1.87,2.42,2.42,0,0,0,.1-.7Z"/><path class="cls-7" d="M295.51,11.78h2.9V30.24h-2.9Z"/><path class="cls-7" d="M305.37,14v3.63h3.12v2.17h-3.12v6c0,1.55.43,2.37,1.67,2.37a4.42,4.42,0,0,0,1.27-.15l.08,2.21a6.74,6.74,0,0,1-2.24.32,3.54,3.54,0,0,1-2.66-1,4.94,4.94,0,0,1-1-3.46V19.78h-1.85V17.61h1.85V14.69Z"/><path class="cls-7" d="M312.73,24.65c.07,2.56,1.91,3.65,4,3.65a9.33,9.33,0,0,0,3.49-.6l.45,2a11,11,0,0,1-4.35.8c-4,0-6.41-2.55-6.41-6.39,0-3.6,2.16-6.8,6.1-6.8,4.11,0,5.37,3.46,5.37,6.08a5.93,5.93,0,0,1-.11,1.25Zm5.94-2c0-1.27-.53-3.29-2.81-3.29-2.09,0-3,1.89-3.12,3.29Z"/><path class="cls-7" d="M331.16,30.24l-.22-1.47h-.07a4.66,4.66,0,0,1-3.77,1.76,3.7,3.7,0,0,1-3.94-3.72c0-3.14,2.8-4.78,7.52-4.76v-.22c0-.9-.31-2.45-2.66-2.44a6.49,6.49,0,0,0-3.36.94l-.6-1.89a8.7,8.7,0,0,1,4.44-1.12c4,0,5.08,2.58,5.08,5.28v4.6a19.28,19.28,0,0,0,.19,3Zm-.4-6.27c-2.33,0-4.72.43-4.72,2.52A1.8,1.8,0,0,0,328,28.43a2.78,2.78,0,0,0,2.69-1.87,2.42,2.42,0,0,0,.1-.7Z"/><path class="cls-7" d="M336.85,27.5a6.81,6.81,0,0,0,3.16.91c1.5,0,2.17-.66,2.17-1.57s-.57-1.42-2.16-2c-2.41-.84-3.46-2.16-3.45-3.66,0-2.16,1.79-3.87,4.66-3.87a6.93,6.93,0,0,1,3.26.76l-.61,2.06a5.52,5.52,0,0,0-2.64-.73c-1.21,0-1.88.63-1.88,1.46s.65,1.3,2.27,1.9c2.26.81,3.34,2,3.35,3.83,0,2.28-1.78,3.91-5,3.91a7.87,7.87,0,0,1-3.75-.88Z"/><path class="cls-7" d="M351.08,14v3.63h3.12v2.17h-3.12v6c0,1.55.42,2.37,1.66,2.37A4.5,4.5,0,0,0,354,28l.07,2.21a6.67,6.67,0,0,1-2.23.32,3.52,3.52,0,0,1-2.66-1,4.94,4.94,0,0,1-1-3.46V19.78h-1.86V17.61h1.86V14.69Z"/><path class="cls-7" d="M147.49,61.44V51h-1.73V48.81h1.73v-.56A5.94,5.94,0,0,1,149,43.89a4.64,4.64,0,0,1,3.22-1.2,5.53,5.53,0,0,1,2,.34L154,45.25a3.81,3.81,0,0,0-1.4-.25c-1.7,0-2.22,1.46-2.22,3.14v.67h2.86V51h-2.84V61.44Z"/><path class="cls-7" d="M166.74,55c0,4.65-3.25,6.73-6.42,6.73-3.51,0-6.23-2.48-6.23-6.51s2.74-6.7,6.44-6.7S166.74,51.17,166.74,55Zm-9.68.14c0,2.54,1.33,4.46,3.36,4.46s3.35-1.86,3.35-4.51c0-2-.94-4.44-3.32-4.44S157.06,52.94,157.06,55.14Z"/><path class="cls-7" d="M169.46,52.83c0-1.63,0-2.88-.1-4h2.52l.1,2.42h.09a3.79,3.79,0,0,1,3.48-2.71,3.11,3.11,0,0,1,.71.07v2.73a4.41,4.41,0,0,0-.88-.08,3,3,0,0,0-2.94,2.58,6.23,6.23,0,0,0-.08,1v6.62h-2.9Z"/><path class="cls-7" d="M183.27,61.44V59.68l1.94-1.83c4.09-3.82,6-5.9,6-8.24a2.77,2.77,0,0,0-3.12-3A6,6,0,0,0,184.49,48L183.62,46a8.13,8.13,0,0,1,5.06-1.73c3.71,0,5.44,2.4,5.44,5,0,3-2.18,5.46-5.33,8.41L187.37,59v0h7.14v2.4Z"/><path class="cls-7" d="M208.73,52.86c0,5.53-2.13,8.87-6.07,8.87-3.7,0-5.83-3.4-5.87-8.69s2.31-8.79,6.09-8.79S208.73,47.75,208.73,52.86Zm-9,.18c0,4.22,1.2,6.46,3.07,6.46,2,0,3-2.43,3-6.56s-1-6.46-3-6.46C201,46.48,199.7,48.7,199.7,53Z"/><path class="cls-7" d="M216.65,58.7a6.81,6.81,0,0,0,3.17.91c1.49,0,2.17-.66,2.17-1.57s-.57-1.42-2.17-2c-2.41-.84-3.45-2.15-3.44-3.66,0-2.16,1.78-3.87,4.65-3.87a6.94,6.94,0,0,1,3.27.76l-.62,2.06a5.45,5.45,0,0,0-2.64-.73c-1.21,0-1.88.63-1.88,1.46s.66,1.3,2.27,1.9c2.26.81,3.35,2,3.35,3.83,0,2.28-1.77,3.91-5,3.91a7.84,7.84,0,0,1-3.75-.88Z"/><path class="cls-7" d="M229.45,55.85c.08,2.56,1.91,3.65,4,3.65a9.29,9.29,0,0,0,3.49-.6l.45,2a11,11,0,0,1-4.35.8c-4,0-6.4-2.55-6.4-6.39,0-3.6,2.16-6.8,6.1-6.8,4.11,0,5.36,3.46,5.36,6.08a6.08,6.08,0,0,1-.1,1.25Zm5.94-2c0-1.27-.52-3.29-2.81-3.29-2.09,0-3,1.89-3.12,3.29Z"/><path class="cls-7" d="M240.6,58.7a6.81,6.81,0,0,0,3.16.91c1.5,0,2.17-.66,2.17-1.57s-.57-1.42-2.16-2c-2.41-.84-3.46-2.15-3.45-3.66,0-2.16,1.79-3.87,4.66-3.87a6.93,6.93,0,0,1,3.26.76l-.61,2.06a5.53,5.53,0,0,0-2.65-.73c-1.2,0-1.87.63-1.87,1.46s.65,1.3,2.27,1.9c2.26.81,3.34,2,3.35,3.83,0,2.28-1.78,3.91-5,3.91a7.87,7.87,0,0,1-3.75-.88Z"/><path class="cls-7" d="M263.28,55c0,4.65-3.25,6.73-6.42,6.73-3.52,0-6.24-2.48-6.24-6.51s2.75-6.7,6.45-6.7S263.28,51.17,263.28,55Zm-9.69.14c0,2.54,1.34,4.46,3.37,4.46s3.35-1.86,3.35-4.51c0-2-.94-4.44-3.32-4.44S253.59,52.94,253.59,55.14Z"/><path class="cls-7" d="M266,52.45c0-1.41,0-2.56-.1-3.64h2.54l.15,1.95h.07a4.63,4.63,0,0,1,4.07-2.24c2,0,4.48,1.3,4.48,5.41v7.51h-2.9V54.26c0-1.89-.7-3.38-2.58-3.38a2.87,2.87,0,0,0-2.68,2,3.2,3.2,0,0,0-.15,1v7.49H266Z"/><path class="cls-7" d="M292.11,43V58c0,1.24.05,2.59.11,3.45h-2.58l-.14-2.06h-.06a4.55,4.55,0,0,1-4.16,2.35c-3,0-5.41-2.58-5.41-6.45,0-4.23,2.62-6.76,5.67-6.76a4.07,4.07,0,0,1,3.63,1.74h.05V43ZM289.22,54a4.37,4.37,0,0,0-.08-.88,3,3,0,0,0-2.94-2.38c-2.16,0-3.39,1.91-3.39,4.39s1.19,4.24,3.35,4.24a3.05,3.05,0,0,0,3-2.43,4.07,4.07,0,0,0,.1-.95Z"/><path class="cls-7" d="M295.46,58.7a6.81,6.81,0,0,0,3.16.91c1.5,0,2.17-.66,2.17-1.57s-.57-1.42-2.16-2c-2.41-.84-3.46-2.15-3.45-3.66,0-2.16,1.78-3.87,4.66-3.87a6.93,6.93,0,0,1,3.26.76l-.61,2.06a5.53,5.53,0,0,0-2.65-.73c-1.2,0-1.87.63-1.87,1.46s.65,1.3,2.27,1.9c2.26.81,3.34,2,3.35,3.83,0,2.28-1.78,3.91-5,3.91a7.87,7.87,0,0,1-3.75-.88Z"/><path class="cls-7" d="M129.54,159.55a11.12,11.12,0,0,1-4.55.8c-5.49,0-8.91-3.45-8.91-8.83,0-5.73,4-9.24,9.35-9.24a9.8,9.8,0,0,1,4.23.77l-.67,2.47a8.27,8.27,0,0,0-3.43-.69c-3.64,0-6.23,2.28-6.23,6.54,0,3.91,2.28,6.39,6.18,6.39a9.36,9.36,0,0,0,3.51-.64Z"/><path class="cls-7" d="M143.72,153.63c0,4.65-3.26,6.73-6.47,6.73-3.56,0-6.3-2.46-6.3-6.51s2.73-6.71,6.51-6.71S143.72,149.79,143.72,153.63Zm-9.6.14c0,2.47,1.26,4.34,3.23,4.34s3.19-1.8,3.19-4.39c0-2-.9-4.32-3.17-4.32S134.12,151.62,134.12,153.77Z"/><path class="cls-7" d="M148.06,147.43l2.1,6.5c.37,1.12.64,2.14.88,3.18h.08c.24-1.05.53-2.05.88-3.18l2.06-6.5h3.25l-4.85,12.65h-3l-4.71-12.65Z"/><path class="cls-7" d="M161.13,154.58c.08,2.39,1.88,3.43,4,3.43a9.42,9.42,0,0,0,3.5-.6l.46,2.14a11.47,11.47,0,0,1-4.39.8c-4.08,0-6.48-2.54-6.48-6.41,0-3.53,2.13-6.8,6.16-6.8s5.42,3.41,5.42,6.13a6.53,6.53,0,0,1-.11,1.31Zm5.7-2.16c0-1.2-.51-3.16-2.7-3.16-2,0-2.86,1.83-3,3.16Z"/><path class="cls-7" d="M172.35,151.48c0-1.67,0-2.92-.1-4h2.68l.11,2.41h.09a3.79,3.79,0,0,1,3.47-2.7,2.82,2.82,0,0,1,.74.07v2.91a4.69,4.69,0,0,0-.92-.09,2.87,2.87,0,0,0-2.89,2.49,4.88,4.88,0,0,0-.08,1v6.59h-3.1Z"/><path class="cls-7" d="M188.77,147.43l2.34,6.86c.26.79.54,1.76.73,2.47h.07c.2-.71.44-1.67.69-2.5l2-6.83h3.29l-3.2,8.68c-1.72,4.67-2.89,6.78-4.39,8.1a6.45,6.45,0,0,1-3.29,1.6l-.7-2.6a5.62,5.62,0,0,0,1.86-.9,5.73,5.73,0,0,0,1.78-2.08,1.31,1.31,0,0,0,.2-.56,1.55,1.55,0,0,0-.17-.62l-4.65-11.62Z"/><path class="cls-7" d="M211.45,153.63c0,4.65-3.26,6.73-6.48,6.73-3.55,0-6.29-2.46-6.29-6.51s2.73-6.71,6.51-6.71S211.45,149.79,211.45,153.63Zm-9.6.14c0,2.47,1.26,4.34,3.23,4.34s3.19-1.8,3.19-4.39c0-2-.9-4.32-3.17-4.32S201.85,151.62,201.85,153.77Z"/><path class="cls-7" d="M225.34,156.33c0,1.48,0,2.72.1,3.75h-2.7l-.15-1.93h-.08a4.6,4.6,0,0,1-4.06,2.21c-2.27,0-4.4-1.35-4.4-5.52v-7.41h3.09v6.89c0,2.14.68,3.52,2.42,3.52a2.73,2.73,0,0,0,2.51-1.75,2.9,2.9,0,0,0,.18-1v-7.64h3.09Z"/><path class="cls-7" d="M228.82,151.48c0-1.67,0-2.92-.1-4h2.68l.11,2.41h.09a3.79,3.79,0,0,1,3.47-2.7,2.82,2.82,0,0,1,.74.07v2.91a4.69,4.69,0,0,0-.92-.09,2.87,2.87,0,0,0-2.89,2.49,4.88,4.88,0,0,0-.08,1v6.59h-3.1Z"/><path class="cls-7" d="M252.64,159.69a9.09,9.09,0,0,1-3.58.66,6.08,6.08,0,0,1-6.5-6.47c0-3.8,2.6-6.73,7-6.73a8.21,8.21,0,0,1,3.1.59l-.56,2.33a5.37,5.37,0,0,0-2.45-.51,4.18,4.18,0,0,0,0,8.34,6.39,6.39,0,0,0,2.55-.51Z"/><path class="cls-7" d="M266.8,153.63c0,4.65-3.26,6.73-6.47,6.73a6.1,6.1,0,0,1-6.3-6.51c0-4.16,2.74-6.71,6.51-6.71S266.8,149.79,266.8,153.63Zm-9.6.14c0,2.47,1.26,4.34,3.23,4.34s3.2-1.8,3.2-4.39c0-2-.91-4.32-3.18-4.32S257.2,151.62,257.2,153.77Z"/><path class="cls-7" d="M280.69,156.33c0,1.48.05,2.72.11,3.75h-2.71l-.15-1.93h-.07a4.61,4.61,0,0,1-4.07,2.21c-2.27,0-4.4-1.35-4.4-5.52v-7.41h3.09v6.89c0,2.14.68,3.52,2.42,3.52a2.73,2.73,0,0,0,2.51-1.75,2.9,2.9,0,0,0,.18-1v-7.64h3.09Z"/><path class="cls-7" d="M295.66,147.43c-.06.85-.11,1.9-.11,3.61v7.2c0,2.68-.54,4.55-1.86,5.74a7.22,7.22,0,0,1-4.86,1.53,9,9,0,0,1-4.38-1l.68-2.35a7.41,7.41,0,0,0,3.69,1c2.11,0,3.69-1.12,3.69-3.9v-1.12h-.06a4.25,4.25,0,0,1-3.72,1.89c-3.14,0-5.37-2.61-5.37-6.17,0-4.19,2.71-6.69,5.72-6.69a4,4,0,0,1,3.71,2h0l.12-1.71Zm-3.19,5.06a3.08,3.08,0,0,0-.11-.88,2.74,2.74,0,0,0-2.69-2.1c-1.82,0-3.18,1.58-3.18,4.21,0,2.19,1.11,4,3.17,4a2.78,2.78,0,0,0,2.66-2,4.22,4.22,0,0,0,.15-1.13Z"/><path class="cls-7" d="M299.05,141.62h3.09v7.56h.06a4.5,4.5,0,0,1,1.59-1.47,4.62,4.62,0,0,1,2.21-.57c2.1,0,4.42,1.38,4.42,5.48v7.46h-3.09V153c0-1.86-.68-3.29-2.49-3.29a2.73,2.73,0,0,0-2.56,1.85,3,3,0,0,0-.14,1v7.58h-3.09Z"/><path class="cls-7" d="M331.2,153.63c0,4.65-3.26,6.73-6.47,6.73a6.1,6.1,0,0,1-6.3-6.51c0-4.16,2.74-6.71,6.51-6.71S331.2,149.79,331.2,153.63Zm-9.6.14c0,2.47,1.26,4.34,3.23,4.34s3.2-1.8,3.2-4.39c0-2-.91-4.32-3.18-4.32S321.6,151.62,321.6,153.77Z"/><path class="cls-7" d="M333.86,151.48c0-1.67,0-2.92-.1-4h2.68l.11,2.41h.09a3.79,3.79,0,0,1,3.47-2.7,2.82,2.82,0,0,1,.74.07v2.91a4.69,4.69,0,0,0-.92-.09,2.86,2.86,0,0,0-2.89,2.49,4.85,4.85,0,0,0-.09,1v6.59h-3.09Z"/><path class="cls-7" d="M119,188.41a7,7,0,0,0,3.21.92c1.44,0,2.08-.62,2.08-1.48s-.54-1.34-2.11-1.9c-2.45-.84-3.49-2.18-3.48-3.68,0-2.2,1.83-3.93,4.75-3.93a7.18,7.18,0,0,1,3.33.76l-.63,2.18a5.68,5.68,0,0,0-2.66-.73c-1.17,0-1.81.59-1.81,1.39s.62,1.22,2.23,1.81c2.28.82,3.35,2,3.36,3.85,0,2.3-1.79,4-5.08,4a8,8,0,0,1-3.82-.89Z"/><path class="cls-7" d="M130,182.35c0-1.45,0-2.63-.11-3.72h2.71l.15,1.92h.07a4.61,4.61,0,0,1,4-2.21c2.15,0,4.49,1.38,4.49,5.42v7.52h-3.09v-7.16c0-1.84-.68-3.26-2.47-3.26a2.73,2.73,0,0,0-2.56,1.93,3.17,3.17,0,0,0-.15,1v7.47H130Z"/><path class="cls-7" d="M146.93,185.78c.08,2.39,1.88,3.43,4,3.43a9.36,9.36,0,0,0,3.49-.6l.47,2.14a11.29,11.29,0,0,1-4.4.8c-4.08,0-6.48-2.54-6.48-6.41,0-3.53,2.14-6.8,6.16-6.8s5.42,3.41,5.42,6.13a6.53,6.53,0,0,1-.11,1.31Zm5.7-2.16c0-1.2-.5-3.16-2.7-3.16-2,0-2.85,1.83-3,3.16Z"/><path class="cls-7" d="M160.3,185.78c.08,2.39,1.87,3.43,3.95,3.43a9.36,9.36,0,0,0,3.49-.6l.47,2.14a11.29,11.29,0,0,1-4.4.8c-4.08,0-6.47-2.54-6.47-6.41,0-3.53,2.13-6.8,6.15-6.8s5.42,3.41,5.42,6.13a6.71,6.71,0,0,1-.1,1.31Zm5.7-2.16c0-1.2-.51-3.16-2.7-3.16-2,0-2.86,1.83-3,3.16Z"/><path class="cls-7" d="M170.24,189.49l4.88-6.24c.64-.77,1.18-1.39,1.83-2.1v-.06h-6.23v-2.46h10v1.89l-4.76,6.1c-.61.75-1.2,1.47-1.84,2.14v.06h6.75v2.46H170.24Z"/><path class="cls-7" d="M185.05,185.78c.08,2.39,1.88,3.43,3.95,3.43a9.42,9.42,0,0,0,3.5-.6l.46,2.14a11.28,11.28,0,0,1-4.39.8c-4.09,0-6.48-2.54-6.48-6.41,0-3.53,2.13-6.8,6.16-6.8s5.42,3.41,5.42,6.13a6.53,6.53,0,0,1-.11,1.31Zm5.7-2.16c0-1.2-.51-3.16-2.7-3.16-2,0-2.86,1.83-3,3.16Z"/><path class="cls-7" d="M203.44,178.63l1.37,5.82c.31,1.35.6,2.72.83,4.09h.06c.26-1.35.66-2.76,1-4.07l1.71-5.84H211l1.63,5.7c.39,1.47.75,2.85,1,4.21h.06c.2-1.36.5-2.74.86-4.21l1.45-5.7h3l-4,12.65h-2.86L210.59,186a37.84,37.84,0,0,1-1-4.06h-.06a33.19,33.19,0,0,1-1,4.06l-1.66,5.26H204l-3.75-12.65Z"/><path class="cls-7" d="M224.37,175.08a1.75,1.75,0,1,1-1.74-1.69A1.65,1.65,0,0,1,224.37,175.08Zm-3.29,16.2V178.63h3.09v12.65Z"/><path class="cls-7" d="M231.21,175v3.63h3.07v2.31h-3.07v5.72c0,1.56.42,2.35,1.65,2.35a4.78,4.78,0,0,0,1.25-.14l.07,2.35a7,7,0,0,1-2.3.33,3.63,3.63,0,0,1-2.71-1,5,5,0,0,1-1-3.52v-6.06h-1.82v-2.31h1.82v-2.89Z"/><path class="cls-7" d="M236.73,172.82h3.09v7.56h.05a4.59,4.59,0,0,1,3.81-2c2.1,0,4.42,1.38,4.42,5.48v7.46H245v-7.12c0-1.86-.68-3.29-2.49-3.29a2.73,2.73,0,0,0-2.56,1.85,3,3,0,0,0-.14,1v7.58h-3.09Z"/><path class="cls-7" d="M264,191.28l-.22-1.43h-.08a4.64,4.64,0,0,1-3.74,1.71,3.72,3.72,0,0,1-4-3.74c0-3.18,2.82-4.8,7.51-4.78v-.22c0-.85-.32-2.3-2.61-2.29a6.63,6.63,0,0,0-3.38.94l-.62-2a9,9,0,0,1,4.53-1.12c4,0,5.17,2.57,5.17,5.32v4.57a19.25,19.25,0,0,0,.19,3.05Zm-.42-6.23c-2.28,0-4.53.44-4.53,2.43a1.74,1.74,0,0,0,1.87,1.87,2.69,2.69,0,0,0,2.57-1.8,2.4,2.4,0,0,0,.09-.7Z"/><path class="cls-7" d="M279,175v3.63h3.07v2.31H279v5.72c0,1.56.41,2.35,1.64,2.35a4.81,4.81,0,0,0,1.26-.14l.07,2.35a7,7,0,0,1-2.3.33,3.65,3.65,0,0,1-2.72-1,5,5,0,0,1-1-3.52v-6.06h-1.83v-2.31H276v-2.89Z"/><path class="cls-7" d="M287.81,175.08a1.75,1.75,0,1,1-1.74-1.69A1.65,1.65,0,0,1,287.81,175.08Zm-3.29,16.2V178.63h3.09v12.65Z"/><path class="cls-7" d="M290.92,188.41a7,7,0,0,0,3.21.92c1.44,0,2.08-.62,2.08-1.48s-.54-1.34-2.11-1.9c-2.45-.84-3.49-2.18-3.48-3.68,0-2.2,1.83-3.93,4.75-3.93a7.18,7.18,0,0,1,3.33.76l-.63,2.18a5.69,5.69,0,0,0-2.67-.73c-1.16,0-1.81.59-1.81,1.39s.63,1.22,2.24,1.81c2.28.82,3.35,2,3.36,3.85,0,2.3-1.79,4-5.08,4a8,8,0,0,1-3.82-.89Z"/><path class="cls-7" d="M301.71,188.41a7,7,0,0,0,3.21.92c1.44,0,2.08-.62,2.08-1.48s-.54-1.34-2.11-1.9c-2.45-.84-3.49-2.18-3.48-3.68,0-2.2,1.83-3.93,4.75-3.93a7.18,7.18,0,0,1,3.33.76l-.63,2.18a5.69,5.69,0,0,0-2.67-.73c-1.16,0-1.81.59-1.81,1.39s.63,1.22,2.24,1.81c2.28.82,3.35,2,3.36,3.85,0,2.3-1.79,4-5.08,4a8,8,0,0,1-3.82-.89Z"/><path class="cls-7" d="M323.9,187.53c0,1.48.05,2.72.11,3.75H321.3l-.15-1.93h-.07a4.61,4.61,0,0,1-4.07,2.21c-2.26,0-4.4-1.35-4.4-5.52v-7.41h3.1v6.89c0,2.14.67,3.52,2.41,3.52a2.73,2.73,0,0,0,2.51-1.75,2.9,2.9,0,0,0,.18-1v-7.64h3.09Z"/><path class="cls-7" d="M329.53,185.78c.08,2.39,1.88,3.43,4,3.43a9.42,9.42,0,0,0,3.5-.6l.46,2.14a11.28,11.28,0,0,1-4.39.8c-4.09,0-6.48-2.54-6.48-6.41,0-3.53,2.13-6.8,6.16-6.8s5.42,3.41,5.42,6.13a6.53,6.53,0,0,1-.11,1.31Zm5.7-2.16c0-1.2-.51-3.16-2.7-3.16-2,0-2.86,1.83-3,3.16Z"/><path class="cls-7" d="M99,268.24l-1.52,5H94.29l5.65-17.52h4l5.72,17.52h-3.34l-1.61-5Zm5.1-2.36-1.41-4.38c-.34-1.1-.63-2.27-.89-3.29h-.06c-.25,1-.52,2.23-.83,3.27l-1.39,4.4Z"/><path class="cls-7" d="M113.2,260.59l2.09,6.49c.36,1.12.64,2.14.88,3.17h.07c.24-1.05.53-2.05.88-3.17l2-6.49h3.27l-4.84,12.65h-3.07l-4.7-12.65Z"/><path class="cls-7" d="M136.09,266.79c0,4.66-3.26,6.74-6.48,6.74a6.11,6.11,0,0,1-6.3-6.52c0-4.15,2.73-6.7,6.52-6.7S136.09,263,136.09,266.79Zm-9.58.14c0,2.47,1.25,4.33,3.21,4.33s3.17-1.8,3.17-4.37c0-2-.9-4.31-3.15-4.31S126.51,264.8,126.51,266.93Z"/><path class="cls-7" d="M142.08,257.05a1.67,1.67,0,0,1-1.79,1.7,1.7,1.7,0,1,1,1.79-1.7Zm-3.32,16.19V260.59h3.12v12.65Z"/><path class="cls-7" d="M157,254.78v14.94c0,1.28,0,2.66.1,3.52h-2.77l-.15-2h0a4.54,4.54,0,0,1-4.13,2.3c-3,0-5.41-2.58-5.41-6.46,0-4.24,2.62-6.76,5.67-6.76a4,4,0,0,1,3.57,1.67h.05v-7.2Zm-3.12,11.07a4.76,4.76,0,0,0-.07-.84,2.86,2.86,0,0,0-2.8-2.29c-2.1,0-3.26,1.85-3.26,4.23s1.16,4.08,3.22,4.08a2.88,2.88,0,0,0,2.81-2.32,3.48,3.48,0,0,0,.1-.94Z"/><path class="cls-7" d="M178.49,272.72a11.39,11.39,0,0,1-4.56.8c-5.5,0-8.92-3.46-8.92-8.84,0-5.73,4-9.23,9.36-9.23a9.85,9.85,0,0,1,4.24.77l-.68,2.49a8.23,8.23,0,0,0-3.43-.69c-3.62,0-6.21,2.27-6.21,6.51,0,3.9,2.28,6.38,6.16,6.38a9.16,9.16,0,0,0,3.51-.65Z"/><path class="cls-7" d="M192.67,266.79c0,4.66-3.26,6.74-6.48,6.74a6.11,6.11,0,0,1-6.31-6.52c0-4.15,2.74-6.7,6.52-6.7S192.67,263,192.67,266.79Zm-9.59.14c0,2.47,1.25,4.33,3.21,4.33s3.18-1.8,3.18-4.37c0-2-.9-4.31-3.16-4.31S183.08,264.8,183.08,266.93Z"/><path class="cls-7" d="M195.34,264.32c0-1.44-.05-2.64-.11-3.73H198l.16,1.92h.07a4.61,4.61,0,0,1,4-2.2c2.17,0,4.5,1.38,4.5,5.42v7.51h-3.12v-7.15c0-1.83-.68-3.25-2.46-3.25a2.71,2.71,0,0,0-2.54,1.92,3.17,3.17,0,0,0-.15,1v7.46h-3.12Z"/><path class="cls-7" d="M213.61,257v3.62h3.06v2.33h-3.06v5.69c0,1.55.41,2.35,1.64,2.35a4.72,4.72,0,0,0,1.25-.14l.07,2.37a7,7,0,0,1-2.3.33,3.67,3.67,0,0,1-2.73-1,5,5,0,0,1-1-3.53v-6h-1.82v-2.33h1.82v-2.88Z"/><path class="cls-7" d="M226.21,273.24l-.22-1.42h-.07a4.63,4.63,0,0,1-3.74,1.71,3.73,3.73,0,0,1-4-3.75c0-3.18,2.83-4.8,7.51-4.78v-.22c0-.85-.32-2.28-2.6-2.27a6.7,6.7,0,0,0-3.39.95l-.62-2a9,9,0,0,1,4.55-1.12c4,0,5.18,2.56,5.18,5.32v4.57a19,19,0,0,0,.19,3Zm-.42-6.22c-2.28,0-4.5.45-4.5,2.42a1.72,1.72,0,0,0,1.86,1.85,2.64,2.64,0,0,0,2.55-1.78,2.4,2.4,0,0,0,.09-.7Z"/><path class="cls-7" d="M241.49,272.86a9.07,9.07,0,0,1-3.57.66c-4,0-6.51-2.55-6.51-6.47s2.6-6.74,7-6.74a8.21,8.21,0,0,1,3.1.59l-.57,2.35a5.29,5.29,0,0,0-2.44-.51,4.16,4.16,0,0,0,0,8.31,6.28,6.28,0,0,0,2.53-.51Z"/><path class="cls-7" d="M247.88,257v3.62h3.06v2.33h-3.06v5.69c0,1.55.41,2.35,1.64,2.35a4.72,4.72,0,0,0,1.25-.14l.07,2.37a7.06,7.06,0,0,1-2.3.33,3.67,3.67,0,0,1-2.73-1,5,5,0,0,1-1-3.53v-6H243v-2.33h1.82v-2.88Z"/><path class="cls-7" d="M260.57,260.59l1.35,5.8c.31,1.36.6,2.72.83,4.09h.06c.26-1.35.66-2.76,1-4.07l1.7-5.82h2.53l1.61,5.68c.4,1.47.75,2.85,1,4.21h.06c.2-1.35.5-2.73.85-4.21l1.44-5.68h3.06l-4,12.65h-2.9L267.69,268a40.4,40.4,0,0,1-1-4.06h-.05a34.64,34.64,0,0,1-1,4.06L264,273.24h-2.9l-3.75-12.65Z"/><path class="cls-7" d="M281.52,257.05a1.68,1.68,0,0,1-1.8,1.7,1.7,1.7,0,1,1,1.8-1.7Zm-3.32,16.19V260.59h3.12v12.65Z"/><path class="cls-7" d="M288.38,257v3.62h3.07v2.33h-3.07v5.69c0,1.55.42,2.35,1.65,2.35a4.78,4.78,0,0,0,1.25-.14l.07,2.37a7.08,7.08,0,0,1-2.31.33,3.66,3.66,0,0,1-2.72-1,5,5,0,0,1-1-3.53v-6h-1.82v-2.33h1.82v-2.88Z"/><path class="cls-7" d="M293.88,254.78H297v7.56h.05a4.61,4.61,0,0,1,3.8-2c2.11,0,4.42,1.39,4.42,5.48v7.45h-3.12v-7.11c0-1.85-.67-3.28-2.48-3.28a2.7,2.7,0,0,0-2.53,1.84,2.73,2.73,0,0,0-.14,1v7.57h-3.12Z"/><path class="cls-7" d="M313.91,270.36a7.06,7.06,0,0,0,3.21.92c1.43,0,2.08-.62,2.08-1.46s-.54-1.33-2.11-1.89c-2.45-.85-3.49-2.19-3.48-3.69,0-2.2,1.83-3.93,4.76-3.93a7,7,0,0,1,3.33.76l-.62,2.19a5.72,5.72,0,0,0-2.67-.73c-1.16,0-1.8.58-1.8,1.37s.62,1.22,2.22,1.81c2.29.82,3.36,2,3.37,3.85,0,2.3-1.79,4-5.1,4a8.11,8.11,0,0,1-3.83-.89Z"/><path class="cls-7" d="M328.19,257.05a1.68,1.68,0,0,1-1.8,1.7,1.7,1.7,0,1,1,1.8-1.7Zm-3.32,16.19V260.59H328v12.65Z"/><path class="cls-7" d="M340.73,272.86a9,9,0,0,1-3.57.66c-4,0-6.51-2.55-6.51-6.47s2.6-6.74,7-6.74a8.21,8.21,0,0,1,3.1.59l-.56,2.35a5.37,5.37,0,0,0-2.45-.51,4.16,4.16,0,0,0,0,8.31,6.38,6.38,0,0,0,2.54-.51Z"/><path class="cls-7" d="M346.26,266.16h.05c.3-.49.68-1,1-1.48l3.14-4.09h3.75l-4.71,5.17,5.37,7.48h-3.82l-3.7-5.63-1.09,1.28v4.35h-3.11V254.78h3.11Z"/><path class="cls-7" d="M186.7,296c0-1.64,0-3-.1-4.19h2.74l.16,2h.05a4.9,4.9,0,0,1,4.35-2.25c2.91,0,5.31,2.49,5.31,6.43,0,4.59-2.86,6.79-5.75,6.79a4.14,4.14,0,0,1-3.59-1.72h-.05v6.58H186.7Zm3.12,3.18a4.1,4.1,0,0,0,.09.88,3,3,0,0,0,2.86,2.28c2.07,0,3.28-1.72,3.28-4.24,0-2.26-1.11-4.11-3.2-4.11a3,3,0,0,0-2.91,2.41,3.17,3.17,0,0,0-.12.81Z"/><path class="cls-7" d="M204.08,299c.08,2.37,1.87,3.39,3.95,3.39a9.45,9.45,0,0,0,3.49-.59l.47,2.15a11.41,11.41,0,0,1-4.41.81c-4.09,0-6.48-2.55-6.48-6.41,0-3.53,2.13-6.8,6.16-6.8s5.43,3.4,5.43,6.13a6.57,6.57,0,0,1-.11,1.32Zm5.67-2.18c0-1.19-.51-3.14-2.69-3.14-2,0-2.84,1.82-3,3.14Z"/><path class="cls-7" d="M227.25,298c0,4.66-3.27,6.74-6.48,6.74a6.11,6.11,0,0,1-6.31-6.52c0-4.15,2.74-6.7,6.52-6.7S227.25,294.16,227.25,298Zm-9.59.14c0,2.47,1.25,4.33,3.21,4.33s3.17-1.8,3.17-4.37c0-2-.89-4.31-3.15-4.31S217.66,296,217.66,298.13Z"/><path class="cls-7" d="M229.91,296c0-1.64,0-3-.1-4.19h2.74l.16,2h0a4.9,4.9,0,0,1,4.35-2.25c2.91,0,5.31,2.49,5.31,6.43,0,4.59-2.86,6.79-5.75,6.79a4.14,4.14,0,0,1-3.59-1.72H233v6.58h-3.12Zm3.12,3.18a4.1,4.1,0,0,0,.09.88,3,3,0,0,0,2.87,2.28c2.06,0,3.27-1.72,3.27-4.24,0-2.26-1.11-4.11-3.2-4.11a3,3,0,0,0-2.91,2.41,3.17,3.17,0,0,0-.12.81Z"/><path class="cls-7" d="M245.07,286h3.12v18.46h-3.12Z"/><path class="cls-7" d="M253.87,299c.08,2.37,1.87,3.39,3.94,3.39a9.47,9.47,0,0,0,3.5-.59l.46,2.15a11.31,11.31,0,0,1-4.4.81c-4.09,0-6.49-2.55-6.49-6.41,0-3.53,2.13-6.8,6.17-6.8s5.43,3.4,5.43,6.13a6.57,6.57,0,0,1-.11,1.32Zm5.67-2.18c0-1.19-.51-3.14-2.69-3.14-2,0-2.84,1.82-3,3.14Z"/></g></g></svg>