<svg xmlns="http://www.w3.org/2000/svg" viewBox="0 0 369.57 328.7"><defs><style>.cls-1{fill:#fefefe;}.cls-2{fill:#0995b4;}.cls-3{fill:#001021;}.cls-4{fill:#f3803e;}.cls-5{fill:#fbcaaf;}.cls-6{fill:#2e3571;}</style></defs><title>p5e3</title><g id="Layer_2" data-name="Layer 2"><g id="Layer_1-2" data-name="Layer 1"><path class="cls-1" d="M16.66,322.14c-3.81-1.77-6.53-4.87-9.06-8A34.33,34.33,0,0,1,.18,295.29a35.35,35.35,0,0,1,8.6-27.13,33.91,33.91,0,0,1,23.13-12.22c10.25-1,19.62,1.45,27.65,8.37a36.17,36.17,0,0,1,3.59,51.48,24.71,24.71,0,0,1-7.66,6.35l-.06-41a4.57,4.57,0,0,0-4.85-5L44.27,276a6.88,6.88,0,0,1,.19-1.07c.85-2.68-.32-4.33-3.15-4.55,0-1.33-.05-2.66-.06-4,0-2.95,0-2.95-3-2.9,0-1.47,0-2.94-.07-4.4-.07-2.79.53-2.41-2.56-2.52-1.21-.05-1.71.25-1.64,1.56.1,1.78,0,3.57,0,5.36a7.48,7.48,0,0,1-1,0c-1.57-.25-2.3.19-2.11,2a40.74,40.74,0,0,1,0,4.94c-2.85.22-3,.33-3,3,0,.88,0,1.76,0,2.64-2,0-4,.22-5.93.08a5.14,5.14,0,0,0-5.31,5.19C16.79,294.92,16.68,308.53,16.66,322.14Z"/><path class="cls-2" d="M16.66,322.14c0-13.61.13-27.22,0-40.83A5.14,5.14,0,0,1,22,276.12c2,.14,3.95-.05,5.93-.08a6.31,6.31,0,0,0,1.45.37q6.95,0,13.89,0a3.7,3.7,0,0,0,1.05-.38l6.31.12a4.57,4.57,0,0,1,4.85,5l.06,41c-.2,1.84.33,3.84-1.33,5.35a4,4,0,0,1-2.87,1.21c-10.14,0-20.29,0-30.43,0a4.05,4.05,0,0,1-4.13-4.06C16.67,323.8,16.68,323,16.66,322.14Zm27.08-15.71h1.54c2.92,0,4.37-1.23,4.39-3.72s-1.68-4.2-4.41-4.32c-1.7-.08-4,.79-4.91-.39s-.24-3.31-.26-5a4,4,0,1,0-8,0c0,1.4-.07,2.81,0,4.21.06,1-.33,1.28-1.31,1.29-1.82,0-3.65-.24-5.47.32a4,4,0,0,0-2.82,4.5,3.54,3.54,0,0,0,3.58,3.18c1.54,0,3.07.06,4.6,0,1.05-.05,1.49.23,1.43,1.36a39.22,39.22,0,0,0,0,4.6c.13,2.59,1.57,3.73,4.46,3.65a3.51,3.51,0,0,0,3.55-3.8v-2.1C40.09,306.43,40.09,306.43,43.74,306.43Z"/><path class="cls-3" d="M3.56,234.53c.43-.57,1.26-1,.54-1.79a.45.45,0,0,1,.39-.67c.44,0,.64.07.74.57C5.49,233.93,5.17,234.37,3.56,234.53Z"/><path class="cls-3" d="M44.27,276a3.7,3.7,0,0,1-1.05.38q-6.94,0-13.89,0a6.31,6.31,0,0,1-1.45-.37c0-.88,0-1.76,0-2.64,0-2.66.11-2.77,3-3H41.31c2.83.22,4,1.87,3.15,4.55A6.88,6.88,0,0,0,44.27,276Z"/><path class="cls-2" d="M41.31,270.41H30.84a42.87,42.87,0,0,0,0-4.94c-.19-1.79.54-2.23,2.11-2a7.48,7.48,0,0,0,1,0,5.56,5.56,0,0,0,4.31,0c3,0,3,0,3,2.9C41.26,267.75,41.29,269.08,41.31,270.41Z"/><path class="cls-4" d="M38.23,263.52a5.56,5.56,0,0,1-4.31,0c0-1.79.14-3.58,0-5.36-.07-1.31.43-1.61,1.64-1.56,3.09.11,2.49-.27,2.56,2.52C38.19,260.58,38.21,262.05,38.23,263.52Z"/><path class="cls-1" d="M43.74,306.43c-3.65,0-3.65,0-3.65,3.69v2.1a3.51,3.51,0,0,1-3.55,3.8c-2.89.08-4.33-1.06-4.46-3.65a39.22,39.22,0,0,1,0-4.6c.06-1.13-.38-1.41-1.43-1.36-1.53.08-3.06,0-4.6,0a3.54,3.54,0,0,1-3.58-3.18,4,4,0,0,1,2.82-4.5c1.82-.56,3.65-.3,5.47-.32,1,0,1.37-.25,1.31-1.29-.08-1.4,0-2.81,0-4.21a4,4,0,1,1,8,0c0,1.72-.58,3.93.26,5s3.21.31,4.91.39c2.73.12,4.44,1.74,4.41,4.32s-1.47,3.72-4.39,3.72Z"/><path class="cls-1" d="M4.44,182.73a34.79,34.79,0,0,1-2.75-18.56,36,36,0,0,1,28-31.17,35.62,35.62,0,0,1,24.24,3.05,31.33,31.33,0,0,1,13,11.4c-1.79.27-3.67-.39-5.41.47a22.39,22.39,0,0,0-3.47-3.41c-8.09-6.9-17.47-8.88-27.59-6.68-10.66,2.33-18.18,8.85-22.21,19.07a29.28,29.28,0,0,0-2,15c.42,3.08,1.37,6,2.05,9C7.26,181.91,5.7,182,4.44,182.73Z"/><path class="cls-1" d="M71.54,155.59a38.4,38.4,0,0,1,2.21,12.28A35.08,35.08,0,0,1,70.64,183C66,193.09,58.4,199.92,47.74,203a35.07,35.07,0,0,1-25.34-1.87c-3.69-1.73-7.21-3.73-9.94-6.87a15.41,15.41,0,0,1,3.91-2.35,31.61,31.61,0,0,0,19.44,8,30.3,30.3,0,0,0,15.72-3.18,30.78,30.78,0,0,0,15.2-16.36,31.51,31.51,0,0,0,1.4-19.1c.76-.15,1.88.34,2.12-.75s-.8-1.6-1.62-2a5.85,5.85,0,0,0-1.26-.34c-.26-.62-.51-1.24-.77-1.85Z"/><path class="cls-5" d="M16.37,191.93a15.41,15.41,0,0,0-3.91,2.35c-3.28,1.4-6.08,3.71-9.54,5.28,0-5.26,0-10.27,0-15.27,0-1.13.7-1.36,1.53-1.56,1.26-.71,2.82-.82,3.89-1.91A39,39,0,0,0,16.37,191.93Z"/><path class="cls-5" d="M71.54,155.59l-4.94.76c-.54-1.28-1.09-2.55-1.63-3.83a16.11,16.11,0,0,1,5,.3C72.22,153.65,72.4,154,71.54,155.59Z"/><path class="cls-5" d="M61.53,147.92c1.74-.86,3.62-.2,5.41-.47a1.62,1.62,0,0,1,1.47,2A6.47,6.47,0,0,1,63.85,151Z"/><path class="cls-1" d="M63.85,151a6.47,6.47,0,0,0,4.56-1.53,15.3,15.3,0,0,1,1.6,3.4,16.11,16.11,0,0,0-5-.3C64.3,152.21,64.2,151.49,63.85,151Z"/><path class="cls-4" d="M63.85,151c.35.54.45,1.26,1.12,1.57.54,1.28,1.09,2.55,1.63,3.83.26.61.51,1.23.77,1.85.25,1,.51,2.09.76,3.13a31.51,31.51,0,0,1-1.4,19.1,30.78,30.78,0,0,1-15.2,16.36A30.3,30.3,0,0,1,35.81,200a31.61,31.61,0,0,1-19.44-8,39,39,0,0,1-8-11.11c-.68-3-1.63-5.88-2-9a29.28,29.28,0,0,1,2-15c4-10.22,11.55-16.74,22.21-19.07,10.12-2.2,19.5-.22,27.59,6.68a22.39,22.39,0,0,1,3.47,3.41Zm-18,4.24c.42.14.67-.12.91-.39l.25-.26.88-.9a23.63,23.63,0,0,0,3.33-3.45c1.84-1.51,1.84-1.51.05-2.81-.2-.15-.45-.22-.66-.35-5.22-3-10.71-4.4-16.78-3.41a25,25,0,0,0-13.31,6.43c-6.1,5.64-8.62,12.74-8,20.92a15.47,15.47,0,0,0,2.24,7.6,15.6,15.6,0,0,0,3,5.26L40,161.6c1.34-1.35,2.63-2.75,3.95-4.13.66-.75,1.66-1.22,1.94-2.29Zm16,6.92a25.2,25.2,0,0,0-2.34-5.56c-1.81-3.59-2-3.64-4.8-.84-10,9.84-19.87,19.81-29.78,29.74-.48.48-1.14.84-1.3,1.6l-1.55,1.29c9.22,6.31,18.76,7.29,28.27,1.64,8.48-5,12.49-12.94,12.26-22.89L62.28,164C62.15,163.34,62,162.72,61.9,162.11Z"/><path class="cls-5" d="M68.13,161.33c-.25-1-.51-2.09-.76-3.13a5.85,5.85,0,0,1,1.26.34c.82.44,1.87.92,1.62,2S68.89,161.18,68.13,161.33Z"/><path class="cls-1" d="M14.8,178.57a15.47,15.47,0,0,1-2.24-7.6c-.66-8.18,1.86-15.28,8-20.92a25,25,0,0,1,13.31-6.43c6.07-1,11.56.44,16.78,3.41.21.13.46.2.66.35,1.79,1.3,1.79,1.3-.05,2.81.09-1.17-.51-1.57-1.62-1.56a7.09,7.09,0,0,0-3.44,1,39.57,39.57,0,0,0-17.11,19.6,8.55,8.55,0,0,1-5.12,5.1A59.37,59.37,0,0,0,14.8,178.57Z"/><path class="cls-1" d="M62.66,167.09C62.89,177,58.88,184.93,50.4,190c-9.51,5.65-19,4.67-28.27-1.64l1.55-1.29a2.92,2.92,0,0,0,1.4-.52c4-2.09,7.38-5,12.36-5.27,4.52-.21,7.86-3.51,11.05-6.64C52.45,170.74,57,167.77,62.66,167.09Z"/><path class="cls-5" d="M62.66,167.09c-5.7.68-10.21,3.65-14.17,7.53-3.19,3.13-6.53,6.43-11.05,6.64-5,.23-8.4,3.18-12.36,5.27a2.92,2.92,0,0,1-1.4.52c.16-.76.82-1.12,1.3-1.6,9.91-9.93,19.78-19.9,29.78-29.74,2.84-2.8,3-2.75,4.8.84a25.2,25.2,0,0,1,2.34,5.56c-2.21.86-4.6,1.35-6.84,3.06,2.63-.5,4.86-1.32,7.22-1.22Z"/><path class="cls-5" d="M14.8,178.57a59.37,59.37,0,0,1,9.13-4.21,8.55,8.55,0,0,0,5.12-5.1,39.57,39.57,0,0,1,17.11-19.6,7.09,7.09,0,0,1,3.44-1c1.11,0,1.71.39,1.62,1.56a23.63,23.63,0,0,1-3.33,3.45c-.59,0-1,.23-.88.9l-.25.26a.75.75,0,0,0-.91.39h0c-1.11.37-2.16.8-1.94,2.29-1.32,1.38-2.61,2.78-3.95,4.13L17.77,183.83A15.6,15.6,0,0,1,14.8,178.57Z"/><path class="cls-1" d="M62.28,164c-2.36-.1-4.59.72-7.22,1.22,2.24-1.71,4.63-2.2,6.84-3.06C62,162.72,62.15,163.34,62.28,164Z"/><path class="cls-1" d="M43.94,157.47c-.22-1.49.83-1.92,1.94-2.29C45.6,156.25,44.6,156.72,43.94,157.47Z"/><path class="cls-1" d="M47,154.54c-.09-.67.29-.89.88-.9Z"/><path class="cls-1" d="M45.85,155.19a.75.75,0,0,1,.91-.39C46.52,155.07,46.27,155.33,45.85,155.19Z"/><path class="cls-4" d="M56.26,67.17c0,2.37,0,4.74-2.79,5.81a5.94,5.94,0,0,1-2.22.33c-8.92,0-17.85-.11-26.76.06-3.31.06-6.1-1.76-5.48-5.44a3.29,3.29,0,0,0-.06-.76c0-.77.06-1.53.06-2.3q0-19.05,0-38.12c0-2.74,1.32-4,4.07-4.05l7.09,0A6.3,6.3,0,0,0,31.8,23c4.41-.13,8.84.41,13.24-.36l6.31,0c3.59,0,4.84,1.27,4.85,4.87ZM42,38.79c0-.89,0-1.79,0-2.68a4.48,4.48,0,0,0-3.18-4.2c-2.49-.48-4.91.7-5.62,2.74-.77,2.23-.34,4.54-.35,6.81,0,1.28-.41,1.58-1.63,1.6-1.89,0-3.78-.26-5.68.27C23,44,21.08,45.87,21.37,48c.43,3.18,2.48,4.71,5.2,4.62,1.66,0,3.32,0,5,0,1,0,1.32.35,1.28,1.33-.06,1.85,0,3.71,0,5.56.06,2.44,2.51,4.88,4.63,4.59,3.57-.49,4.93-2.57,4.61-5.09-.22-1.7,0-3.45-.07-5.17,0-.92.29-1.24,1.2-1.21,1.92,0,3.84.1,5.75,0s3.69-.94,4.31-3c.56-1.83.51-3.57-1.08-5S48.4,43,46.3,43C42,43,42,43,42,38.79Z"/><path class="cls-1" d="M56.26,67.17,56.2,27.56c0-3.6-1.26-4.86-4.85-4.87l-6.31,0c1.8-3.41.79-5.64-2.58-5.72,0-1.33-.05-2.66-.06-4,0-2.56,0-2.56-2.63-2.52,0-1.64,0-3.29-.09-4.93-.06-1,.4-1.27,1.34-1.26,4.68.06,9.37.06,14,.09a54.41,54.41,0,0,1,8.08,6.29A35.37,35.37,0,0,1,73.5,33.49a35.55,35.55,0,0,1-6.15,23.2A34.3,34.3,0,0,1,56.26,67.17Z"/><path class="cls-1" d="M30.18,22.67l-7.09,0C20.34,22.71,19,24,19,26.75q0,19.06,0,38.12c0,.77,0,1.53-.06,2.3-10-6.1-15.71-15-17.21-26.63-1.29-10,1.47-18.8,7.35-26.81.74-1,2.07-1.56,2.3-3,2.38,1.27,3.08,1.09,4.11-1.39,1.48-3.61,4.19-5.16,8-5.12,2.1,0,4.21-.06,6.3,0,1.88.08,4.44-.86,5.46.41s.32,3.79.22,5.75c-2.63,0-2.63,0-2.64,2.52,0,1.33,0,2.66-.06,4-1.21.08-2.8-.31-3.18,1.25S28.94,21.33,30.18,22.67Z"/><path class="cls-4" d="M35.45,10.44c.1-2,.81-4.44-.22-5.75s-3.58-.33-5.46-.41c-2.09-.08-4.2,0-6.3,0-3.78,0-6.49,1.51-8,5.12-1,2.48-1.73,2.66-4.11,1.39-.75-4.49,5-10.42,10-10.32,4.07.08,8.14,0,12.21,0h8.08c4.31,0,8.63.06,12.94.05a2,2,0,0,1,2.29,1.77,1.7,1.7,0,0,1-1.81,2.11c-4.68,0-9.37,0-14-.09-.94,0-1.4.21-1.34,1.26.09,1.64.06,3.29.09,4.93A5.58,5.58,0,0,1,35.45,10.44Z"/><path class="cls-1" d="M41.65.41H33.57A20,20,0,0,1,41.65.41Z"/><path class="cls-1" d="M42,38.79C42,43,42,43,46.3,43c2.1,0,4.15-.09,5.88,1.51s1.64,3.22,1.08,5c-.62,2.07-2.31,2.9-4.31,3s-3.83.06-5.75,0c-.91,0-1.23.29-1.2,1.21.06,1.72-.15,3.47.07,5.17.32,2.52-1,4.6-4.61,5.09-2.12.29-4.57-2.15-4.63-4.59,0-1.85-.06-3.71,0-5.56,0-1-.25-1.37-1.28-1.33-1.66.08-3.32,0-5,0-2.72.09-4.77-1.44-5.2-4.62-.29-2.12,1.6-4,4.18-4.66,1.9-.53,3.79-.25,5.68-.27,1.22,0,1.62-.32,1.63-1.6,0-2.27-.42-4.58.35-6.81.71-2,3.13-3.22,5.62-2.74A4.48,4.48,0,0,1,42,36.11C42,37,42,37.9,42,38.79Zm-8.49,7.28c-2.74-.89-3.41-.44-3.41,2.14,0,1.42.53,2.14,2,2.1,1.14,0,1.95-.52,1.79-1.68-.19-1.46-1.31-1.62-2.56-1.19C31.49,45.87,33.08,47,33.53,46.07Zm1.19,1.4c.05,1.51-.24,2.9,1.8,2.86,1.61,0,2.1-.79,2.06-2.27s-.09-2.46-2-2.41C35,45.69,34.52,46.31,34.72,47.47Zm6.89-.56c.16-.88-.17-1.23-1.11-1.23s-1.21.3-1.19,1.21.19,1.16,1.07,1.13S41.81,48,41.61,46.91Zm3.09,1.84c0-.83-.84-.91-1.1-1.44-.26.74-1.5.38-1.54,1.27s1.24.46,1.36,1.25C44,49.65,44.32,49.11,44.7,48.75Z"/><path class="cls-3" d="M30.18,22.67c-1.24-1.34-1-3-.61-4.47s2-1.17,3.18-1.25h9.71c3.37.08,4.38,2.31,2.58,5.72-4.4.77-8.83.23-13.24.36A6.3,6.3,0,0,1,30.18,22.67Z"/><path class="cls-2" d="M42.46,17H32.75c0-1.33.06-2.66.06-4,0-2.56,0-2.56,2.64-2.52a5.58,5.58,0,0,0,4.32,0c2.63,0,2.62,0,2.63,2.52C42.41,14.29,42.44,15.62,42.46,17Z"/><path class="cls-4" d="M33.53,46.07c-.45.9-2-.2-2.17,1.37,1.25-.43,2.37-.27,2.56,1.19.16,1.16-.65,1.65-1.79,1.68-1.48,0-2-.68-2-2.1C30.12,45.63,30.79,45.18,33.53,46.07Z"/><path class="cls-4" d="M34.72,47.47c-.2-1.16.25-1.78,1.86-1.82,1.91,0,2,1,2,2.41s-.45,2.24-2.06,2.27C34.48,50.37,34.77,49,34.72,47.47Zm1.15.35c.05.68-.15,1.61.81,1.61s.73-.84.74-1.46,0-1.5-1-1.45S36,47.39,35.87,47.82Z"/><path class="cls-4" d="M41.61,46.91C41.81,48,41.16,48,40.38,48s-1-.36-1.07-1.13.27-1.21,1.19-1.21S41.77,46,41.61,46.91Z"/><path class="cls-4" d="M44.7,48.75c-.38.36-.66.9-1.28,1.08-.12-.79-1.4-.39-1.36-1.25s1.28-.53,1.54-1.27C43.86,47.84,44.67,47.92,44.7,48.75Z"/><path class="cls-1" d="M35.87,47.82c.17-.43-.34-1.25.55-1.3s1,.72,1,1.45.07,1.46-.74,1.46S35.92,48.5,35.87,47.82Z"/><path class="cls-6" d="M130.86,11.06V21.17c0,3.11,1.22,4.67,3.27,4.67s3.32-1.49,3.32-4.67V11.06h3.8v9.87c0,5.4-2.74,7.94-7.25,7.94-4.34,0-6.93-2.42-6.93-8V11.06Z"/><path class="cls-6" d="M144.22,25.24a7.46,7.46,0,0,0,3.36,1c1.24,0,1.78-.45,1.78-1.14s-.43-1-1.92-1.55c-2.6-.87-3.61-2.28-3.59-3.78,0-2.35,2-4.14,5.09-4.14a8.07,8.07,0,0,1,3.53.75L151.8,19a6.38,6.38,0,0,0-2.74-.72c-1,0-1.58.42-1.58,1.09s.53,1,2.1,1.54c2.39.82,3.41,2,3.43,3.9,0,2.36-1.85,4.09-5.42,4.09a8.89,8.89,0,0,1-4.07-.89Z"/><path class="cls-6" d="M158.35,23.41C158.46,25.2,160.12,26,162,26a10.41,10.41,0,0,0,3.5-.55l.52,2.57a12.2,12.2,0,0,1-4.57.8c-4.27,0-6.73-2.51-6.73-6.46,0-3.29,2-6.81,6.37-6.81,4.12,0,5.63,3.25,5.63,6.32a7.17,7.17,0,0,1-.14,1.51Zm4.85-2.6a2.39,2.39,0,0,0-2.31-2.69,2.74,2.74,0,0,0-2.57,2.69Z"/><path class="cls-6" d="M181.62,28.58l-.23-1.3h-.08a4.56,4.56,0,0,1-3.66,1.59A3.86,3.86,0,0,1,173.56,25c0-3.29,2.94-4.87,7.48-4.86V20c0-.71-.35-1.77-2.38-1.77a7.27,7.27,0,0,0-3.49.95l-.7-2.43a10,10,0,0,1,4.86-1.14c4.2,0,5.5,2.52,5.5,5.46v4.47a18.33,18.33,0,0,0,.2,3.07Zm-.47-6.06c-2.12,0-3.85.48-3.85,2.09a1.49,1.49,0,0,0,1.63,1.59,2.26,2.26,0,0,0,2.14-1.53,2.15,2.15,0,0,0,.08-.68Z"/><path class="cls-6" d="M188,10.12h3.79V28.58H188Z"/><path class="cls-6" d="M204.57,28.25a9.47,9.47,0,0,1-3.56.6c-4.08,0-6.68-2.52-6.68-6.5,0-3.74,2.55-6.76,7.22-6.76a9.07,9.07,0,0,1,3,.52L204,18.93a5.33,5.33,0,0,0-2.26-.42,3.41,3.41,0,0,0-3.52,3.68,3.42,3.42,0,0,0,3.58,3.69,6.05,6.05,0,0,0,2.33-.43Z"/><path class="cls-6" d="M218.92,22.1a6.35,6.35,0,0,1-6.66,6.77,6.21,6.21,0,0,1-6.52-6.55,6.34,6.34,0,0,1,6.75-6.74A6.15,6.15,0,0,1,218.92,22.1Zm-9.27.13c0,2.23,1,3.92,2.72,3.92S215,24.56,215,22.21c0-1.91-.76-3.91-2.64-3.91S209.65,20.3,209.65,22.23Z"/><path class="cls-6" d="M221.41,10.12h3.8v7.32h0a4.51,4.51,0,0,1,1.56-1.34,4.36,4.36,0,0,1,2.08-.52c2.45,0,4.46,1.68,4.46,5.57v7.43h-3.8v-7c0-1.71-.6-2.91-2.13-2.91a2.19,2.19,0,0,0-2.09,1.48,2.56,2.56,0,0,0-.13.89v7.55h-3.8Z"/><path class="cls-6" d="M249,22.1a6.35,6.35,0,0,1-6.67,6.77,6.21,6.21,0,0,1-6.52-6.55,6.34,6.34,0,0,1,6.75-6.74A6.16,6.16,0,0,1,249,22.1Zm-9.28.13c0,2.23,1,3.92,2.72,3.92s2.65-1.59,2.65-3.94c0-1.91-.76-3.91-2.64-3.91S239.73,20.3,239.73,22.23Z"/><path class="cls-6" d="M251.49,10.12h3.8V28.58h-3.8Z"/><path class="cls-6" d="M263.71,28.58c.06-.84.1-2.33.1-3.74V10.12h3.8v7.32h.05a4.47,4.47,0,0,1,3.88-1.86c3.07,0,5.29,2.54,5.26,6.43,0,4.57-2.9,6.86-5.81,6.86a4.2,4.2,0,0,1-3.84-2.09h-.06l-.16,1.8Zm3.9-5.36a3.08,3.08,0,0,0,.07.7,2.52,2.52,0,0,0,2.43,2c1.76,0,2.84-1.38,2.84-3.72,0-2-.92-3.66-2.82-3.66a2.55,2.55,0,0,0-2.44,2,3.59,3.59,0,0,0-.08.75Z"/><path class="cls-6" d="M286.5,28.58l-.23-1.3h-.08a4.56,4.56,0,0,1-3.66,1.59A3.86,3.86,0,0,1,278.45,25c0-3.29,2.94-4.87,7.47-4.86V20c0-.71-.35-1.77-2.38-1.77a7.26,7.26,0,0,0-3.48.95l-.71-2.43a10,10,0,0,1,4.87-1.14c4.19,0,5.49,2.52,5.49,5.46v4.47a19.47,19.47,0,0,0,.2,3.07ZM286,22.52c-2.12,0-3.85.48-3.85,2.09a1.49,1.49,0,0,0,1.63,1.59A2.26,2.26,0,0,0,286,24.67,2.49,2.49,0,0,0,286,24Z"/><path class="cls-6" d="M292.86,25.24a7.46,7.46,0,0,0,3.36,1c1.24,0,1.78-.45,1.78-1.14s-.43-1-1.92-1.55c-2.61-.87-3.61-2.28-3.59-3.78,0-2.35,2-4.14,5.09-4.14a8.07,8.07,0,0,1,3.53.75L300.44,19a6.38,6.38,0,0,0-2.74-.72c-1,0-1.58.42-1.58,1.09s.53,1,2.1,1.54c2.39.82,3.41,2,3.42,3.9,0,2.36-1.84,4.09-5.42,4.09a8.88,8.88,0,0,1-4.06-.89Z"/><path class="cls-6" d="M307,23.41c.11,1.79,1.77,2.62,3.66,2.62a10.37,10.37,0,0,0,3.5-.55l.52,2.57a12.2,12.2,0,0,1-4.57.8c-4.27,0-6.73-2.51-6.73-6.46,0-3.29,2-6.81,6.37-6.81,4.12,0,5.63,3.25,5.63,6.32a7.17,7.17,0,0,1-.14,1.51Zm4.85-2.6a2.39,2.39,0,0,0-2.31-2.69A2.74,2.74,0,0,0,307,20.81Z"/><path class="cls-6" d="M329.94,10.12V24.84c0,1.41.05,2.89.11,3.74h-3.37l-.16-1.89h-.06a4.46,4.46,0,0,1-4,2.18c-3,0-5.43-2.58-5.43-6.52,0-4.27,2.66-6.77,5.69-6.77a3.89,3.89,0,0,1,3.39,1.49h0v-7Zm-3.79,11.12a4.6,4.6,0,0,0,0-.74,2.45,2.45,0,0,0-2.4-2c-1.87,0-2.83,1.65-2.83,3.73s1.07,3.61,2.8,3.61a2.45,2.45,0,0,0,2.4-2,4.25,4.25,0,0,0,.08-.9Z"/><path class="cls-6" d="M148.36,41.32h3.8v7.33h.05a4.53,4.53,0,0,1,3.65-1.87c2.44,0,4.45,1.68,4.45,5.57v7.43h-3.8v-7c0-1.71-.59-2.91-2.13-2.91a2.2,2.2,0,0,0-2.09,1.48,2.56,2.56,0,0,0-.13.89v7.55h-3.8Z"/><path class="cls-6" d="M170.74,59.78l-.23-1.3h-.08a4.58,4.58,0,0,1-3.66,1.59,3.86,3.86,0,0,1-4.09-3.87c0-3.29,2.94-4.87,7.48-4.86v-.17c0-.71-.36-1.77-2.38-1.77a7.27,7.27,0,0,0-3.49,1l-.71-2.43a10.11,10.11,0,0,1,4.87-1.14c4.2,0,5.5,2.52,5.5,5.46v4.47a18.33,18.33,0,0,0,.2,3.07Zm-.47-6.06c-2.12,0-3.85.48-3.85,2.09a1.49,1.49,0,0,0,1.63,1.59,2.26,2.26,0,0,0,2.14-1.53,2.15,2.15,0,0,0,.08-.68Z"/><path class="cls-6" d="M177.15,51.07c0-1.56-.05-2.87-.11-4h3.29l.18,1.79h.08a4.64,4.64,0,0,1,4-2.08c2.51,0,4.54,1.67,4.54,5.47v7.53H185.3V52.71c0-1.68-.61-2.86-2.1-2.86a2.26,2.26,0,0,0-2.12,1.58,2.92,2.92,0,0,0-.14,1v7.36h-3.79Z"/><path class="cls-6" d="M204.48,41.32V56c0,1.41.05,2.89.11,3.74h-3.37l-.17-1.89H201a4.46,4.46,0,0,1-4,2.18c-3,0-5.43-2.58-5.43-6.52,0-4.27,2.66-6.77,5.69-6.77a3.89,3.89,0,0,1,3.39,1.49h.05v-7Zm-3.79,11.12a4.6,4.6,0,0,0-.05-.74,2.45,2.45,0,0,0-2.4-2c-1.87,0-2.83,1.65-2.83,3.73s1.07,3.61,2.8,3.61a2.45,2.45,0,0,0,2.4-2,4.25,4.25,0,0,0,.08-.9Z"/><path class="cls-6" d="M213,56.44a7.46,7.46,0,0,0,3.36,1c1.24,0,1.78-.45,1.78-1.14s-.43-1-1.92-1.55c-2.61-.87-3.61-2.28-3.6-3.78,0-2.35,2-4.14,5.1-4.14a8.07,8.07,0,0,1,3.53.75l-.67,2.62a6.38,6.38,0,0,0-2.75-.72c-1,0-1.57.42-1.57,1.09s.53,1,2.1,1.54c2.39.82,3.41,2,3.42,3.9,0,2.36-1.84,4.1-5.42,4.1a8.87,8.87,0,0,1-4.06-.9Z"/><path class="cls-6" d="M231.42,59.78l-.23-1.3h-.08a4.56,4.56,0,0,1-3.66,1.59,3.87,3.87,0,0,1-4.09-3.87c0-3.29,2.94-4.87,7.48-4.86v-.17c0-.71-.35-1.77-2.38-1.77a7.33,7.33,0,0,0-3.49,1l-.7-2.43a10,10,0,0,1,4.86-1.14c4.2,0,5.5,2.52,5.5,5.46v4.47a19.47,19.47,0,0,0,.2,3.07ZM231,53.72c-2.12,0-3.85.48-3.85,2.09a1.49,1.49,0,0,0,1.63,1.59,2.27,2.27,0,0,0,2.15-1.53,2.49,2.49,0,0,0,.07-.68Z"/><path class="cls-6" d="M237.83,51.07c0-1.56-.05-2.87-.1-4H241l.18,1.79h.08a4.6,4.6,0,0,1,3.95-2.08c2.51,0,4.54,1.67,4.54,5.47v7.53H246V52.71c0-1.68-.61-2.86-2.1-2.86a2.26,2.26,0,0,0-2.12,1.58,2.92,2.92,0,0,0-.14,1v7.36h-3.79Z"/><path class="cls-6" d="M256.91,43.54a1.9,1.9,0,0,1-2.06,1.92,1.93,1.93,0,1,1,2.06-1.92ZM253,59.78V47.07h3.79V59.78Z"/><path class="cls-6" d="M264.25,43.44v3.63h2.9v2.8h-2.9V54.7c0,1.53.39,2.26,1.58,2.26a5.51,5.51,0,0,0,1.19-.12l0,2.88a8.13,8.13,0,0,1-2.51.34,4,4,0,0,1-2.93-1.1,5.12,5.12,0,0,1-1.08-3.72V49.87h-1.71v-2.8h1.71V44.31Z"/><path class="cls-6" d="M273.37,43.54a1.91,1.91,0,0,1-2.06,1.92,1.93,1.93,0,1,1,2.06-1.92Zm-3.92,16.24V47.07h3.79V59.78Z"/><path class="cls-6" d="M275.41,57.6l4.17-5.24c.71-.84,1.28-1.47,2-2.22v-.06h-5.7v-3h10.33v2.29l-4,5.06c-.68.81-1.33,1.59-2,2.3v.05h6.23v3h-11Z"/><path class="cls-6" d="M291.25,54.61c.11,1.79,1.76,2.62,3.65,2.62a10.33,10.33,0,0,0,3.5-.55l.52,2.57a12.1,12.1,0,0,1-4.56.81c-4.27,0-6.73-2.52-6.73-6.47,0-3.29,2-6.81,6.36-6.81,4.12,0,5.63,3.25,5.63,6.32a7.32,7.32,0,0,1-.13,1.51Zm4.84-2.6a2.39,2.39,0,0,0-2.31-2.69A2.73,2.73,0,0,0,291.22,52Z"/><path class="cls-6" d="M302,51.24c0-1.83,0-3.07-.1-4.17h3.26l.14,2.37h.09a3.74,3.74,0,0,1,3.44-2.66,3,3,0,0,1,.83.08v3.56a5,5,0,0,0-1-.1,2.6,2.6,0,0,0-2.75,2.1,4.8,4.8,0,0,0-.07.89v6.47H302Z"/><path class="cls-6" d="M133.62,156.14l-1.53,5H128.9l5.66-17.52h3.91l5.73,17.52h-3.31l-1.62-5Zm5.13-2.34-1.43-4.4c-.34-1.1-.62-2.27-.89-3.29h-.06c-.25,1-.52,2.23-.83,3.27l-1.4,4.42Z"/><path class="cls-6" d="M147.75,148.52l2.1,6.5c.37,1.12.65,2.14.89,3.17h.07c.25-1.05.54-2.05.89-3.17l2.06-6.5H157l-4.84,12.64h-3l-4.71-12.64Z"/><path class="cls-6" d="M170.64,154.72c0,4.65-3.27,6.73-6.48,6.73a6.11,6.11,0,0,1-6.3-6.52c0-4.16,2.74-6.7,6.52-6.7S170.64,150.88,170.64,154.72Zm-9.6.13c0,2.48,1.26,4.35,3.22,4.35s3.2-1.81,3.2-4.39c0-2-.9-4.33-3.17-4.33S161,152.71,161,154.85Z"/><path class="cls-6" d="M176.59,145a1.75,1.75,0,1,1-1.74-1.69A1.66,1.66,0,0,1,176.59,145Zm-3.29,16.19V148.52h3.09v12.64Z"/><path class="cls-6" d="M191.44,142.7v15c0,1.28.05,2.65.11,3.51h-2.76l-.13-2h-.06a4.53,4.53,0,0,1-4.13,2.31c-3,0-5.42-2.58-5.42-6.46,0-4.24,2.63-6.76,5.68-6.76a4,4,0,0,1,3.57,1.68h0V142.7Zm-3.09,11.07a4.07,4.07,0,0,0-.07-.85,2.88,2.88,0,0,0-2.82-2.3c-2.1,0-3.27,1.85-3.27,4.25s1.16,4.1,3.23,4.1a2.92,2.92,0,0,0,2.84-2.33,4,4,0,0,0,.09-.94Z"/><path class="cls-6" d="M203.86,144.89v3.63h3.08v2.3h-3.08v5.73c0,1.55.42,2.35,1.65,2.35a4.81,4.81,0,0,0,1.26-.14l.07,2.35a7.06,7.06,0,0,1-2.3.33,3.66,3.66,0,0,1-2.72-1,5,5,0,0,1-1-3.52v-6.06H199v-2.3h1.83v-2.89Z"/><path class="cls-6" d="M221.18,154.72c0,4.65-3.26,6.73-6.47,6.73a6.11,6.11,0,0,1-6.3-6.52c0-4.16,2.74-6.7,6.51-6.7S221.18,150.88,221.18,154.72Zm-9.6.13c0,2.48,1.26,4.35,3.23,4.35s3.19-1.81,3.19-4.39c0-2-.9-4.33-3.17-4.33S211.58,152.71,211.58,154.85Z"/><path class="cls-6" d="M235.07,157.41c0,1.49.05,2.73.1,3.75h-2.7l-.15-1.93h-.07a4.59,4.59,0,0,1-4.07,2.22c-2.27,0-4.4-1.35-4.4-5.52v-7.41h3.09v6.89c0,2.14.68,3.52,2.42,3.52a2.74,2.74,0,0,0,2.51-1.76,2.8,2.8,0,0,0,.18-1v-7.64h3.09Z"/><path class="cls-6" d="M247.81,160.77a8.88,8.88,0,0,1-3.58.67,6.07,6.07,0,0,1-6.49-6.47c0-3.8,2.59-6.73,7-6.73a8.15,8.15,0,0,1,3.1.58l-.56,2.33a5.5,5.5,0,0,0-2.45-.5,4.18,4.18,0,0,0,0,8.34,6.39,6.39,0,0,0,2.55-.51Z"/><path class="cls-6" d="M250.23,142.7h3.09v7.57h.06a4.59,4.59,0,0,1,3.8-2c2.1,0,4.42,1.38,4.42,5.48v7.45h-3.09v-7.11c0-1.86-.68-3.3-2.49-3.3a2.76,2.76,0,0,0-2.7,2.84v7.57h-3.09Z"/><path class="cls-6" d="M268.34,145a1.75,1.75,0,1,1-1.74-1.69A1.65,1.65,0,0,1,268.34,145Zm-3.29,16.19V148.52h3.09v12.64Z"/><path class="cls-6" d="M271.63,152.24c0-1.45-.05-2.64-.1-3.72h2.7l.15,1.92h.08a4.6,4.6,0,0,1,4.05-2.21c2.15,0,4.49,1.37,4.49,5.42v7.51h-3.09V154c0-1.84-.68-3.27-2.48-3.27a2.73,2.73,0,0,0-2.56,1.94,3.09,3.09,0,0,0-.15,1v7.46h-3.09Z"/><path class="cls-6" d="M297.93,148.52c-.06.85-.11,1.9-.11,3.61v7.19c0,2.69-.54,4.56-1.86,5.74a7.22,7.22,0,0,1-4.86,1.54,9,9,0,0,1-4.38-1l.67-2.36a7.38,7.38,0,0,0,3.7,1c2.11,0,3.69-1.11,3.69-3.89V159.2h-.06a4.28,4.28,0,0,1-3.72,1.89c-3.14,0-5.37-2.61-5.37-6.18,0-4.18,2.71-6.68,5.72-6.68a4,4,0,0,1,3.71,2h.05l.12-1.7Zm-3.2,5.06a3,3,0,0,0-.1-.88,2.74,2.74,0,0,0-2.69-2.11c-1.82,0-3.18,1.59-3.18,4.22,0,2.18,1.11,4,3.17,4a2.78,2.78,0,0,0,2.66-2,4.29,4.29,0,0,0,.14-1.14Z"/><path class="cls-6" d="M308.56,148.52l2.34,6.86c.26.79.54,1.76.72,2.47h.08c.2-.72.44-1.67.68-2.5l2.05-6.83h3.29l-3.2,8.67c-1.73,4.68-2.89,6.79-4.39,8.11a6.57,6.57,0,0,1-3.29,1.6l-.71-2.6a6,6,0,0,0,1.87-.9,5.87,5.87,0,0,0,1.78-2.09,1.27,1.27,0,0,0,.2-.56,1.56,1.56,0,0,0-.17-.61l-4.65-11.62Z"/><path class="cls-6" d="M331.24,154.72c0,4.65-3.27,6.73-6.48,6.73a6.11,6.11,0,0,1-6.3-6.52c0-4.16,2.74-6.7,6.52-6.7S331.24,150.88,331.24,154.72Zm-9.6.13c0,2.48,1.26,4.35,3.22,4.35s3.2-1.81,3.2-4.39c0-2-.9-4.33-3.17-4.33S321.64,152.71,321.64,154.85Z"/><path class="cls-6" d="M345.13,157.41c0,1.49,0,2.73.1,3.75h-2.7l-.15-1.93h-.08a4.59,4.59,0,0,1-4.06,2.22c-2.27,0-4.4-1.35-4.4-5.52v-7.41h3.09v6.89c0,2.14.67,3.52,2.41,3.52a2.74,2.74,0,0,0,2.52-1.76,2.81,2.81,0,0,0,.17-1v-7.64h3.1Z"/><path class="cls-6" d="M348.61,152.57c0-1.67,0-2.92-.1-4h2.68l.11,2.41h.09a3.79,3.79,0,0,1,3.47-2.7,2.82,2.82,0,0,1,.74.07v2.91a4,4,0,0,0-.92-.09,2.87,2.87,0,0,0-2.89,2.48,5,5,0,0,0-.09,1v6.58h-3.09Z"/><path class="cls-6" d="M133.59,184.54H127v5.28h7.41v2.54h-10.5V174.84H134v2.54h-7V182h6.63Z"/><path class="cls-6" d="M138.7,179.72l2.34,6.86c.26.79.54,1.76.73,2.47h.07c.2-.72.44-1.67.69-2.5l2-6.83h3.29l-3.2,8.67c-1.72,4.68-2.89,6.79-4.39,8.11a6.54,6.54,0,0,1-3.29,1.6l-.7-2.6a5.83,5.83,0,0,0,1.86-.9,5.73,5.73,0,0,0,1.78-2.08,1.34,1.34,0,0,0,.2-.57,1.56,1.56,0,0,0-.17-.61l-4.65-11.62Z"/><path class="cls-6" d="M151.57,186.87c.08,2.39,1.87,3.42,4,3.42a9.38,9.38,0,0,0,3.49-.59l.47,2.13a11.27,11.27,0,0,1-4.4.81c-4.08,0-6.47-2.55-6.47-6.41,0-3.53,2.13-6.8,6.15-6.8s5.42,3.41,5.42,6.13a6.53,6.53,0,0,1-.11,1.31Zm5.7-2.16c0-1.21-.51-3.16-2.7-3.16-2,0-2.86,1.83-3,3.16Z"/><path class="cls-6" d="M162.62,189.49a6.86,6.86,0,0,0,3.2.92c1.44,0,2.09-.61,2.09-1.47s-.54-1.34-2.11-1.9c-2.45-.85-3.49-2.18-3.48-3.68,0-2.2,1.83-3.93,4.75-3.93a7.1,7.1,0,0,1,3.32.76l-.62,2.17a5.7,5.7,0,0,0-2.67-.72c-1.16,0-1.81.58-1.81,1.38s.63,1.23,2.23,1.82c2.29.81,3.36,2,3.37,3.85,0,2.29-1.79,3.95-5.09,3.95a8,8,0,0,1-3.81-.89Z"/><path class="cls-6" d="M171.79,195.52a39.94,39.94,0,0,0,1.72-6.79l3.26-.26a33,33,0,0,1-2.87,6.85Z"/><path class="cls-6" d="M179.43,192.36V174.84H183l4.66,7.68a49.2,49.2,0,0,1,3,5.85h.06c-.22-2.33-.28-4.58-.28-7.26v-6.26h2.86v17.52h-3.19l-4.7-7.85a57.67,57.67,0,0,1-3.15-6l-.09,0c.13,2.27.17,4.56.17,7.44v6.41Z"/><path class="cls-6" d="M208.75,185.92c0,4.65-3.26,6.73-6.47,6.73a6.11,6.11,0,0,1-6.3-6.52c0-4.15,2.74-6.7,6.51-6.7S208.75,182.08,208.75,185.92Zm-9.6.13c0,2.48,1.26,4.35,3.23,4.35s3.2-1.81,3.2-4.39c0-2-.91-4.33-3.18-4.33S199.15,183.91,199.15,186.05Z"/><path class="cls-6" d="M211.24,189.49a6.87,6.87,0,0,0,3.21.92c1.44,0,2.08-.61,2.08-1.47s-.54-1.34-2.11-1.9c-2.45-.85-3.49-2.18-3.48-3.68,0-2.2,1.83-3.93,4.75-3.93a7.18,7.18,0,0,1,3.33.76l-.63,2.17a5.7,5.7,0,0,0-2.67-.72c-1.16,0-1.81.58-1.81,1.38s.63,1.23,2.23,1.82c2.29.81,3.36,2,3.37,3.85,0,2.29-1.79,3.95-5.09,3.95a8,8,0,0,1-3.81-.89Z"/><path class="cls-6" d="M224.34,186.87c.08,2.39,1.88,3.42,4,3.42a9.38,9.38,0,0,0,3.49-.59l.46,2.13a11.26,11.26,0,0,1-4.39.81c-4.08,0-6.48-2.55-6.48-6.41,0-3.53,2.14-6.8,6.16-6.8s5.42,3.41,5.42,6.13a6.53,6.53,0,0,1-.11,1.31Zm5.7-2.16c0-1.21-.5-3.16-2.7-3.16-2,0-2.85,1.83-3,3.16Z"/><path class="cls-6" d="M248.05,192.36l-.21-1.43h-.08a4.63,4.63,0,0,1-3.74,1.72,3.73,3.73,0,0,1-4-3.75c0-3.17,2.83-4.8,7.52-4.78v-.21c0-.86-.33-2.3-2.61-2.29a6.69,6.69,0,0,0-3.39.94l-.62-2a9,9,0,0,1,4.54-1.12c4,0,5.17,2.57,5.17,5.31v4.58a19,19,0,0,0,.19,3Zm-.41-6.22c-2.29,0-4.53.44-4.53,2.43a1.73,1.73,0,0,0,1.86,1.86,2.68,2.68,0,0,0,2.58-1.79,2.45,2.45,0,0,0,.09-.7Z"/><path class="cls-6" d="M254.08,183.44c0-1.45-.05-2.63-.1-3.72h2.7l.15,1.92h.08a4.6,4.6,0,0,1,4-2.21c2.15,0,4.49,1.38,4.49,5.42v7.51h-3.09v-7.15c0-1.84-.68-3.27-2.48-3.27a2.73,2.73,0,0,0-2.56,1.94,3.09,3.09,0,0,0-.15,1v7.46h-3.09Z"/><path class="cls-6" d="M280.46,173.9v14.95c0,1.28.05,2.65.11,3.51h-2.75l-.14-2h-.06a4.53,4.53,0,0,1-4.13,2.31c-3,0-5.41-2.58-5.41-6.46,0-4.24,2.62-6.76,5.67-6.76a4,4,0,0,1,3.57,1.68h.06V173.9ZM277.38,185a4.08,4.08,0,0,0-.08-.85,2.88,2.88,0,0,0-2.82-2.3c-2.1,0-3.27,1.85-3.27,4.25s1.17,4.1,3.24,4.1a2.92,2.92,0,0,0,2.83-2.33,4,4,0,0,0,.1-.94Z"/><path class="cls-6" d="M304.24,185.15c-.11-2.29-.23-5-.22-7.4H304c-.58,2.14-1.31,4.48-2.09,6.73l-2.63,7.69h-2.37l-2.39-7.59c-.7-2.27-1.34-4.64-1.8-6.83h-.06c-.07,2.28-.18,5.1-.32,7.51l-.4,7.1H289l1.17-17.52h4.05l2.37,7.21c.64,2.08,1.2,4.14,1.63,6.08h.07c.47-1.9,1.08-4,1.77-6.09l2.51-7.2h4l1,17.52h-3Z"/><path class="cls-6" d="M322.84,185.92c0,4.65-3.26,6.73-6.48,6.73-3.55,0-6.29-2.47-6.29-6.52s2.73-6.7,6.51-6.7S322.84,182.08,322.84,185.92Zm-9.6.13c0,2.48,1.26,4.35,3.23,4.35s3.19-1.81,3.19-4.39c0-2-.9-4.33-3.17-4.33S313.24,183.91,313.24,186.05Z"/><path class="cls-6" d="M336.73,188.61c0,1.49,0,2.73.1,3.75h-2.7l-.15-1.93h-.07a4.6,4.6,0,0,1-4.07,2.22c-2.27,0-4.4-1.35-4.4-5.52v-7.41h3.09v6.89c0,2.14.68,3.52,2.42,3.52a2.74,2.74,0,0,0,2.51-1.76,2.8,2.8,0,0,0,.18-1v-7.64h3.09Z"/><path class="cls-6" d="M343.77,176.09v3.63h3.07V182h-3.07v5.73c0,1.55.42,2.35,1.65,2.35a4.78,4.78,0,0,0,1.25-.14l.07,2.35a7,7,0,0,1-2.29.33,3.64,3.64,0,0,1-2.72-1,5,5,0,0,1-1-3.52V182h-1.82v-2.3h1.82v-2.89Z"/><path class="cls-6" d="M349.29,173.9h3.09v7.57h.06a4.55,4.55,0,0,1,3.8-2c2.1,0,4.42,1.38,4.42,5.48v7.45h-3.09v-7.11c0-1.86-.68-3.3-2.49-3.3a2.74,2.74,0,0,0-2.56,1.86,3,3,0,0,0-.14,1v7.57h-3.09Z"/><path class="cls-6" d="M133.45,249.38a34.85,34.85,0,0,1,5.46-.4c3.54,0,6,.74,7.69,2.2a8.49,8.49,0,0,1,2.92,6.92,9.81,9.81,0,0,1-2.91,7.49c-1.88,1.71-4.86,2.59-8.53,2.59a36.34,36.34,0,0,1-4.63-.25Zm3.33,16.07a12.76,12.76,0,0,0,2,.1c4.57,0,7.25-2.52,7.25-7.33,0-4.2-2.4-6.65-6.82-6.65a11.7,11.7,0,0,0-2.41.21Z"/><path class="cls-6" d="M156,250.56a1.78,1.78,0,0,1-1.91,1.82,1.82,1.82,0,1,1,1.91-1.82ZM152.49,268V254.38h3.33V268Z"/><path class="cls-6" d="M159.39,264.91a7.43,7.43,0,0,0,3.45,1c1.55,0,2.24-.67,2.24-1.59s-.58-1.44-2.27-2.05c-2.64-.91-3.76-2.35-3.74-4,0-2.37,2-4.23,5.11-4.23a7.7,7.7,0,0,1,3.58.81l-.68,2.35a6,6,0,0,0-2.87-.79c-1.25,0-1.94.64-1.94,1.5s.67,1.32,2.4,1.95c2.46.88,3.61,2.13,3.62,4.15,0,2.47-1.92,4.25-5.47,4.25a8.74,8.74,0,0,1-4.12-1Z"/><path class="cls-6" d="M174.74,250.56a1.79,1.79,0,0,1-1.92,1.82,1.82,1.82,0,1,1,1.92-1.82ZM171.2,268V254.38h3.32V268Z"/><path class="cls-6" d="M178.28,258.38c0-1.55-.05-2.83-.11-4h2.91l.16,2.06h.08a5,5,0,0,1,4.36-2.37c2.32,0,4.84,1.48,4.84,5.83V268h-3.33v-7.71c0-2-.73-3.51-2.66-3.51a2.94,2.94,0,0,0-2.76,2.08,3.27,3.27,0,0,0-.16,1.1v8h-3.33Z"/><path class="cls-6" d="M194.6,268V256.86h-1.85v-2.48h1.85v-.59a6.36,6.36,0,0,1,1.65-4.67,5.1,5.1,0,0,1,3.53-1.31,6.81,6.81,0,0,1,2.18.34l-.25,2.56a4.08,4.08,0,0,0-1.48-.25c-1.76,0-2.32,1.48-2.32,3.2v.72h3v2.48h-3V268Z"/><path class="cls-6" d="M205.05,262.08c.09,2.57,2,3.69,4.26,3.69a10.22,10.22,0,0,0,3.76-.64l.5,2.3a12.21,12.21,0,0,1-4.73.86c-4.4,0-7-2.74-7-6.9,0-3.8,2.3-7.32,6.63-7.32s5.84,3.67,5.84,6.6a6.65,6.65,0,0,1-.12,1.41Zm6.14-2.33c0-1.3-.55-3.4-2.91-3.4-2.17,0-3.07,2-3.23,3.4Z"/><path class="cls-6" d="M227.1,267.58a9.8,9.8,0,0,1-3.85.71c-4.25,0-7-2.75-7-7s2.8-7.25,7.55-7.25a8.71,8.71,0,0,1,3.34.63l-.6,2.51a5.79,5.79,0,0,0-2.64-.55c-2.69,0-4.26,2-4.25,4.51a4.13,4.13,0,0,0,4.25,4.47,6.67,6.67,0,0,0,2.74-.55Z"/><path class="cls-6" d="M234,250.47v3.91h3.31v2.48H234V263c0,1.67.45,2.53,1.77,2.53a5.4,5.4,0,0,0,1.35-.15l.08,2.53a7.68,7.68,0,0,1-2.47.35,3.91,3.91,0,0,1-2.93-1.11,5.42,5.42,0,0,1-1.06-3.79v-6.53h-2v-2.48h2v-3.11Z"/><path class="cls-6" d="M246.06,268V256.86h-1.85v-2.48h1.85v-.59a6.36,6.36,0,0,1,1.65-4.67,5.11,5.11,0,0,1,3.53-1.31,6.76,6.76,0,0,1,2.18.34l-.25,2.56a4,4,0,0,0-1.48-.25c-1.75,0-2.32,1.48-2.32,3.2v.72h3v2.48h-3V268Z"/><path class="cls-6" d="M254.54,258.74c0-1.8,0-3.14-.11-4.36h2.89l.12,2.6h.1a4.06,4.06,0,0,1,3.73-2.91,3.31,3.31,0,0,1,.8.07v3.14a4.65,4.65,0,0,0-1-.1,3.1,3.1,0,0,0-3.12,2.67,6.76,6.76,0,0,0-.09,1.06V268h-3.33Z"/><path class="cls-6" d="M266.48,262.08c.09,2.57,2,3.69,4.26,3.69a10.22,10.22,0,0,0,3.76-.64l.5,2.3a12.21,12.21,0,0,1-4.73.86c-4.4,0-7-2.74-7-6.9,0-3.8,2.3-7.32,6.63-7.32s5.84,3.67,5.84,6.6a6.65,6.65,0,0,1-.12,1.41Zm6.14-2.33c0-1.3-.55-3.4-2.91-3.4-2.17,0-3.07,2-3.23,3.4Z"/><path class="cls-6" d="M287.7,266.09h-.06a4.7,4.7,0,0,1-4.25,2.21c-3.07,0-5.7-2.67-5.7-6.91,0-5,3.2-7.32,6.09-7.32a4.29,4.29,0,0,1,4,2.13h.05l.1-1.83h3.2c-.05,1.22-.1,2.49-.1,3.91v15.25H287.7Zm0-6.11a3.49,3.49,0,0,0-.09-.86,3.1,3.1,0,0,0-3-2.44c-2.26,0-3.54,1.92-3.54,4.56s1.21,4.43,3.47,4.43a3.11,3.11,0,0,0,3-2.32,3.45,3.45,0,0,0,.16-1.06Z"/><path class="cls-6" d="M306.85,264c0,1.59,0,2.93.11,4h-2.91l-.17-2.08h-.08a4.94,4.94,0,0,1-4.38,2.38c-2.44,0-4.73-1.45-4.73-5.94v-8H298v7.42c0,2.3.72,3.79,2.6,3.79a2.93,2.93,0,0,0,2.7-1.89,3,3,0,0,0,.2-1.09v-8.23h3.33Z"/><path class="cls-6" d="M312.9,262.08c.09,2.57,2,3.69,4.26,3.69a10.22,10.22,0,0,0,3.76-.64l.5,2.3a12.21,12.21,0,0,1-4.73.86c-4.39,0-7-2.74-7-6.9,0-3.8,2.29-7.32,6.63-7.32s5.83,3.67,5.83,6.6a7.59,7.59,0,0,1-.11,1.41Zm6.14-2.33c0-1.3-.54-3.4-2.91-3.4-2.16,0-3.07,2-3.23,3.4Z"/><path class="cls-6" d="M325,258.38c0-1.55,0-2.83-.11-4h2.91l.17,2.06H328a5,5,0,0,1,4.36-2.37c2.31,0,4.84,1.48,4.84,5.83V268h-3.33v-7.71c0-2-.74-3.51-2.67-3.51a3,3,0,0,0-2.76,2.08,3.55,3.55,0,0,0-.16,1.1v8H325Z"/><path class="cls-6" d="M344.64,250.47v3.91H348v2.48h-3.31V263c0,1.67.45,2.53,1.77,2.53a5.4,5.4,0,0,0,1.35-.15l.08,2.53a7.68,7.68,0,0,1-2.47.35,3.92,3.92,0,0,1-2.93-1.11,5.42,5.42,0,0,1-1.06-3.79v-6.53h-2v-2.48h2v-3.11Z"/><path class="cls-6" d="M350.59,248.12h3.33V268h-3.33Z"/><path class="cls-6" d="M359.7,254.38l2.52,7.39c.27.85.57,1.89.78,2.65h.08c.21-.77.47-1.79.74-2.68l2.2-7.36h3.55l-3.46,9.34c-1.85,5-3.11,7.31-4.72,8.73a7,7,0,0,1-3.55,1.72l-.75-2.8a6.28,6.28,0,0,0,3.92-3.21,1.39,1.39,0,0,0,.21-.6,1.7,1.7,0,0,0-.18-.67l-5-12.51Z"/><path class="cls-6" d="M159.07,284.07V288h3.31v2.48h-3.31v6.17c0,1.67.45,2.53,1.78,2.53a5.47,5.47,0,0,0,1.35-.15l.07,2.53a7.64,7.64,0,0,1-2.47.35,3.94,3.94,0,0,1-2.93-1.11,5.42,5.42,0,0,1-1.06-3.79v-6.53h-2V288h2v-3.11Z"/><path class="cls-6" d="M177.72,294.65c0,5-3.51,7.25-7,7.25-3.83,0-6.79-2.65-6.79-7s2.95-7.22,7-7.22S177.72,290.52,177.72,294.65Zm-10.34.15c0,2.67,1.36,4.68,3.48,4.68s3.44-1.94,3.44-4.73c0-2.16-1-4.66-3.42-4.66S167.38,292.49,167.38,294.8Z"/><path class="cls-6" d="M192.68,297.56c0,1.59,0,2.93.11,4h-2.91l-.16-2.08h-.08a5,5,0,0,1-4.38,2.38c-2.44,0-4.74-1.45-4.74-5.94v-8h3.33v7.42c0,2.3.73,3.79,2.6,3.79a3,3,0,0,0,2.71-1.89,3,3,0,0,0,.19-1.09V288h3.33Z"/><path class="cls-6" d="M206.4,301.18a9.86,9.86,0,0,1-3.86.71c-4.25,0-7-2.75-7-7s2.79-7.25,7.54-7.25a8.71,8.71,0,0,1,3.34.63l-.6,2.51a5.79,5.79,0,0,0-2.64-.55,4.5,4.5,0,0,0,0,9,6.72,6.72,0,0,0,2.75-.55Z"/><path class="cls-6" d="M209,281.72h3.33v8.15h0a4.9,4.9,0,0,1,4.1-2.2c2.26,0,4.76,1.48,4.76,5.89v8h-3.33v-7.67c0-2-.73-3.54-2.68-3.54a2.92,2.92,0,0,0-2.9,3.05v8.16H209Z"/><path class="cls-6" d="M227.27,295.68c.08,2.57,2,3.69,4.26,3.69a10.3,10.3,0,0,0,3.76-.64l.5,2.3a12.27,12.27,0,0,1-4.74.86c-4.39,0-7-2.74-7-6.9,0-3.8,2.3-7.32,6.63-7.32s5.84,3.67,5.84,6.6a7.4,7.4,0,0,1-.12,1.41Zm6.14-2.33c0-1.3-.55-3.4-2.91-3.4-2.17,0-3.08,2-3.23,3.4Z"/><path class="cls-6" d="M251.81,281.72v16.09c0,1.38.05,2.86.11,3.79h-3l-.15-2.18h-.06a4.89,4.89,0,0,1-4.45,2.48c-3.26,0-5.83-2.77-5.83-6.95,0-4.56,2.83-7.28,6.11-7.28a4.33,4.33,0,0,1,3.85,1.81h.06v-7.76Zm-3.32,11.91a4.67,4.67,0,0,0-.08-.91,3.1,3.1,0,0,0-3-2.47c-2.26,0-3.53,2-3.53,4.57s1.26,4.42,3.49,4.42a3.13,3.13,0,0,0,3-2.51,4.09,4.09,0,0,0,.11-1Z"/><path class="cls-6" d="M274.23,294.65c0,5-3.51,7.25-7,7.25-3.82,0-6.78-2.65-6.78-7s2.95-7.22,7-7.22S274.23,290.52,274.23,294.65Zm-10.33.15c0,2.67,1.35,4.68,3.47,4.68s3.44-1.94,3.44-4.73c0-2.16-1-4.66-3.41-4.66S263.9,292.49,263.9,294.8Z"/><path class="cls-6" d="M277,301.6c.06-.92.11-2.41.11-3.79V281.72h3.33v8.17h.05a4.89,4.89,0,0,1,4.38-2.22c3.34,0,5.71,2.76,5.69,6.9,0,4.9-3.1,7.33-6.18,7.33a4.69,4.69,0,0,1-4.32-2.38H280l-.16,2.08Zm3.44-5.62a4.22,4.22,0,0,0,.08.82,3.22,3.22,0,0,0,3.12,2.47c2.22,0,3.55-1.76,3.55-4.56,0-2.44-1.19-4.45-3.51-4.45a3.3,3.3,0,0,0-3.13,2.58,4.12,4.12,0,0,0-.11.91Z"/><path class="cls-6" d="M290.35,304.84a3.84,3.84,0,0,0,2.61-1c.64-.7.89-1.78.89-4.78V288h3.33v12.09c0,2.8-.53,4.56-1.76,5.78a7.08,7.08,0,0,1-4.73,1.6Zm7-20.68a1.88,1.88,0,1,1-1.86-1.82A1.77,1.77,0,0,1,297.39,284.16Z"/><path class="cls-6" d="M303.2,295.68c.09,2.57,2,3.69,4.26,3.69a10.22,10.22,0,0,0,3.76-.64l.5,2.3a12.21,12.21,0,0,1-4.73.86c-4.39,0-7-2.74-7-6.9,0-3.8,2.29-7.32,6.63-7.32s5.83,3.67,5.83,6.6a7.59,7.59,0,0,1-.11,1.41Zm6.14-2.33c0-1.3-.54-3.4-2.91-3.4-2.16,0-3.07,2-3.23,3.4Z"/><path class="cls-6" d="M325.25,301.18a9.76,9.76,0,0,1-3.85.71c-4.25,0-7-2.75-7-7s2.79-7.25,7.54-7.25a8.71,8.71,0,0,1,3.34.63l-.6,2.51a5.79,5.79,0,0,0-2.64-.55,4.5,4.5,0,0,0,0,9,6.72,6.72,0,0,0,2.75-.55Z"/><path class="cls-6" d="M332.11,284.07V288h3.31v2.48h-3.31v6.17c0,1.67.45,2.53,1.78,2.53a5.31,5.31,0,0,0,1.34-.15l.08,2.53a7.64,7.64,0,0,1-2.47.35,3.94,3.94,0,0,1-2.93-1.11,5.42,5.42,0,0,1-1.06-3.79v-6.53h-2V288h2v-3.11Z"/><path class="cls-6" d="M337.87,298.51a7.46,7.46,0,0,0,3.45,1c1.55,0,2.25-.67,2.25-1.59s-.58-1.44-2.27-2.05c-2.65-.91-3.76-2.35-3.75-4,0-2.37,2-4.23,5.11-4.23a7.7,7.7,0,0,1,3.58.81l-.67,2.35a6,6,0,0,0-2.87-.79c-1.26,0-1.95.64-1.95,1.5s.67,1.32,2.4,1.95c2.46.88,3.62,2.13,3.63,4.15,0,2.47-1.93,4.25-5.48,4.25a8.66,8.66,0,0,1-4.11-.95Z"/></g></g></svg>