<svg xmlns="http://www.w3.org/2000/svg" viewBox="0 0 275 37.58"><defs><style>.cls-1{fill:#e37955;}.cls-2{fill:#312f2f;}</style></defs><title>p6e1a</title><g id="Layer_2" data-name="Layer 2"><g id="Layer_1-2" data-name="Layer 1"><rect class="cls-1" y="4.2" width="275" height="31" rx="5.28"/><path class="cls-2" d="M2.11,35.6V2A1.67,1.67,0,0,1,3.77.31h6.85Q20,.31,20,11.16a13.55,13.55,0,0,1-1,5.55,7.34,7.34,0,0,1-2.52,3,1.66,1.66,0,0,0-.62,1.88l4.56,13.44a1.66,1.66,0,0,1-1.58,2.19H16.72a1.66,1.66,0,0,1-1.58-1.16l-4.2-13.45a1.67,1.67,0,0,0-1.59-1.16H9.07a1.66,1.66,0,0,0-1.66,1.66V35.6a1.66,1.66,0,0,1-1.66,1.66h-2A1.66,1.66,0,0,1,2.11,35.6ZM7.41,7v8.2a1.66,1.66,0,0,0,1.66,1.67h1.35a5.34,5.34,0,0,0,2.23-.39A3.09,3.09,0,0,0,14,15.31a5.31,5.31,0,0,0,.57-1.79,17.88,17.88,0,0,0,.15-2.47,17.83,17.83,0,0,0-.15-2.46,4.89,4.89,0,0,0-.63-1.84c-.65-1-1.9-1.46-3.73-1.46H9.07A1.66,1.66,0,0,0,7.41,7Z"/><path class="cls-2" d="M31.8,35.6V2A1.66,1.66,0,0,1,33.46.31H45.92A1.67,1.67,0,0,1,47.58,2V3.63a1.66,1.66,0,0,1-1.66,1.66H38.75A1.67,1.67,0,0,0,37.09,7v7.53a1.66,1.66,0,0,0,1.66,1.66h5.82a1.66,1.66,0,0,1,1.66,1.66v1.66a1.66,1.66,0,0,1-1.66,1.66H38.75a1.67,1.67,0,0,0-1.66,1.66v7.53A1.66,1.66,0,0,0,38.75,32h7.17a1.66,1.66,0,0,1,1.66,1.66v2a1.66,1.66,0,0,1-1.66,1.66H33.46A1.66,1.66,0,0,1,31.8,35.6Z"/><path class="cls-2" d="M58.58,35.6V2A1.66,1.66,0,0,1,60.24.31H72.69A1.67,1.67,0,0,1,74.36,2V3.63a1.66,1.66,0,0,1-1.67,1.66H65.53A1.67,1.67,0,0,0,63.87,7v7.89a1.66,1.66,0,0,0,1.66,1.66h5.82A1.67,1.67,0,0,1,73,18.17v1.66a1.67,1.67,0,0,1-1.66,1.66H65.53a1.66,1.66,0,0,0-1.66,1.66V35.6a1.66,1.66,0,0,1-1.66,1.66h-2A1.66,1.66,0,0,1,58.58,35.6Z"/><path class="cls-2" d="M85.36,35.6V2A1.66,1.66,0,0,1,87,.31H99.47A1.67,1.67,0,0,1,101.14,2V3.63a1.66,1.66,0,0,1-1.67,1.66H92.31A1.67,1.67,0,0,0,90.65,7v7.53a1.66,1.66,0,0,0,1.66,1.66h5.82a1.66,1.66,0,0,1,1.66,1.66v1.66a1.66,1.66,0,0,1-1.66,1.66H92.31a1.67,1.67,0,0,0-1.66,1.66v7.53A1.66,1.66,0,0,0,92.31,32h7.16a1.66,1.66,0,0,1,1.67,1.66v2a1.66,1.66,0,0,1-1.67,1.66H87A1.66,1.66,0,0,1,85.36,35.6Z"/><path class="cls-2" d="M112.14,35.6V2A1.66,1.66,0,0,1,113.8.31h6.85Q130,.31,130,11.16a13.73,13.73,0,0,1-1,5.55,7.36,7.36,0,0,1-2.53,3,1.67,1.67,0,0,0-.61,1.88l4.55,13.44a1.66,1.66,0,0,1-1.57,2.19h-2.07a1.67,1.67,0,0,1-1.59-1.16L121,22.65a1.65,1.65,0,0,0-1.58-1.16h-.29a1.66,1.66,0,0,0-1.66,1.66V35.6a1.66,1.66,0,0,1-1.66,1.66h-2A1.66,1.66,0,0,1,112.14,35.6ZM117.43,7v8.2a1.67,1.67,0,0,0,1.66,1.67h1.35a5.28,5.28,0,0,0,2.23-.39,3,3,0,0,0,1.3-1.12,4.9,4.9,0,0,0,.57-1.79,16.33,16.33,0,0,0,.16-2.47,16.29,16.29,0,0,0-.16-2.46,4.88,4.88,0,0,0-.62-1.84c-.66-1-1.9-1.46-3.74-1.46h-1.09A1.67,1.67,0,0,0,117.43,7Z"/><path class="cls-2" d="M141.82,35.6V2A1.67,1.67,0,0,1,143.49.31h12.45A1.66,1.66,0,0,1,157.6,2V3.63a1.66,1.66,0,0,1-1.66,1.66h-7.16A1.66,1.66,0,0,0,147.12,7v7.53a1.66,1.66,0,0,0,1.66,1.66h5.81a1.66,1.66,0,0,1,1.66,1.66v1.66a1.66,1.66,0,0,1-1.66,1.66h-5.81a1.66,1.66,0,0,0-1.66,1.66v7.53A1.66,1.66,0,0,0,148.78,32h7.16a1.66,1.66,0,0,1,1.66,1.66v2a1.66,1.66,0,0,1-1.66,1.66H143.49A1.66,1.66,0,0,1,141.82,35.6Z"/><path class="cls-2" d="M168.4,35.6V2A1.66,1.66,0,0,1,170.06.31h2.25a1.66,1.66,0,0,1,1.57,1.1l7.6,21.17h.1V2A1.66,1.66,0,0,1,183.24.31h2A1.66,1.66,0,0,1,186.87,2V35.6a1.66,1.66,0,0,1-1.66,1.66h-2.16a1.66,1.66,0,0,1-1.56-1.09l-7.7-21.12h-.1V35.6A1.66,1.66,0,0,1,172,37.26h-2A1.66,1.66,0,0,1,168.4,35.6Z"/><path class="cls-2" d="M214.38,26.73A1.66,1.66,0,0,1,216,28.39V29a8.31,8.31,0,0,1-.65,3.25A9,9,0,0,1,213.6,35a8.42,8.42,0,0,1-2.67,1.89,7.79,7.79,0,0,1-3.3.71,11.74,11.74,0,0,1-3.06-.42,7.28,7.28,0,0,1-2.8-1.45A8,8,0,0,1,199.72,33a9.39,9.39,0,0,1-.81-4.17V8.51a8.9,8.9,0,0,1,.63-3.37,7.84,7.84,0,0,1,1.76-2.7A8.15,8.15,0,0,1,204,.65a9.17,9.17,0,0,1,3.5-.65,8,8,0,0,1,6.07,2.44,8.69,8.69,0,0,1,1.79,2.83A9.58,9.58,0,0,1,216,8.82v.42a1.66,1.66,0,0,1-1.66,1.66h-2a1.66,1.66,0,0,1-1.66-1.66V9.13a4.27,4.27,0,0,0-.89-2.69,2.84,2.84,0,0,0-2.38-1.15,2.69,2.69,0,0,0-2.62,1.22,6.49,6.49,0,0,0-.65,3.09V28.49a4.84,4.84,0,0,0,.7,2.7,2.73,2.73,0,0,0,2.51,1.09,3.89,3.89,0,0,0,1.12-.18,3.3,3.3,0,0,0,1.12-.6,3,3,0,0,0,.77-1.14,4.57,4.57,0,0,0,.32-1.82v-.15a1.66,1.66,0,0,1,1.66-1.66Z"/><path class="cls-2" d="M227.92,35.6V2A1.67,1.67,0,0,1,229.58.31H242A1.66,1.66,0,0,1,243.7,2V3.63A1.66,1.66,0,0,1,242,5.29h-7.16A1.66,1.66,0,0,0,233.22,7v7.53a1.66,1.66,0,0,0,1.66,1.66h5.81a1.66,1.66,0,0,1,1.66,1.66v1.66a1.66,1.66,0,0,1-1.66,1.66h-5.81a1.66,1.66,0,0,0-1.66,1.66v7.53A1.66,1.66,0,0,0,234.88,32H242a1.66,1.66,0,0,1,1.66,1.66v2A1.66,1.66,0,0,1,242,37.26H229.58A1.66,1.66,0,0,1,227.92,35.6Z"/><path class="cls-2" d="M271.83,9.29A1.66,1.66,0,0,1,270.17,11h-3.63V9.76a5.66,5.66,0,0,0-.86-3.14,3.15,3.15,0,0,0-2.88-1.33,3.25,3.25,0,0,0-1.76.42,3.4,3.4,0,0,0-1.09,1,4.46,4.46,0,0,0-.58,1.53,10.38,10.38,0,0,0-.15,1.79,15.67,15.67,0,0,0,.08,1.82,3.36,3.36,0,0,0,.39,1.29,2.91,2.91,0,0,0,.9,1,8.53,8.53,0,0,0,1.64.83l4,1.61a10.14,10.14,0,0,1,2.85,1.58,6.82,6.82,0,0,1,1.71,2.1,10,10,0,0,1,.78,2.83,27.77,27.77,0,0,1,.21,3.61,19,19,0,0,1-.47,4.33,9.12,9.12,0,0,1-1.5,3.4A7.44,7.44,0,0,1,267,36.74a9.93,9.93,0,0,1-4.3.84,9.48,9.48,0,0,1-3.59-.68A8.56,8.56,0,0,1,256.26,35a8.85,8.85,0,0,1-1.89-2.77,8.43,8.43,0,0,1-.7-3.46v-.31a1.66,1.66,0,0,1,1.66-1.66h2A1.66,1.66,0,0,1,259,28.49h0a4.25,4.25,0,0,0,.86,2.62,3.33,3.33,0,0,0,2.88,1.17,4.62,4.62,0,0,0,2.1-.39A2.85,2.85,0,0,0,266,30.78a4.22,4.22,0,0,0,.49-1.74c.05-.68.08-1.43.08-2.26a22.07,22.07,0,0,0-.11-2.39A4.6,4.6,0,0,0,266.1,23a2.38,2.38,0,0,0-.18-.3,3.1,3.1,0,0,0-.86-.79,11.94,11.94,0,0,0-1.59-.77l-3.78-1.56a8.41,8.41,0,0,1-4.6-3.71,12.76,12.76,0,0,1-1.16-5.79,13.08,13.08,0,0,1,.57-3.94A9,9,0,0,1,256.21,3,7.9,7.9,0,0,1,259,.8a9.33,9.33,0,0,1,4-.8,8.68,8.68,0,0,1,3.6.73,9.08,9.08,0,0,1,2.83,1.92,8,8,0,0,1,2.39,5.71Z"/></g></g></svg>